<?xml version="1.0" encoding="utf-8"?>
<!-- Generator: Adobe Illustrator 25.2.1, SVG Export Plug-In . SVG Version: 6.00 Build 0)  -->
<svg version="1.1" id="_x30_" xmlns="http://www.w3.org/2000/svg" xmlns:xlink="http://www.w3.org/1999/xlink" x="0px" y="0px"
	 viewBox="0 0 552.8 360.4" style="enable-background:new 0 0 552.8 360.4;" xml:space="preserve">
<style type="text/css">
	.st0{fill:none;stroke:#231F20;stroke-miterlimit:10;stroke-dasharray:12,6;}
	.st1{fill:none;stroke:#231F20;stroke-width:0.25;stroke-miterlimit:10;}
	.st2{fill:#231F20;}
	.st3{font-family:'Arial-BoldMT';}
	.st4{font-size:12px;}
	.st5{font-family:'ArialMT';}
	.st6{fill:none;stroke:#231F20;stroke-width:5;stroke-miterlimit:10;}
	.st7{fill:none;stroke:#231F20;stroke-miterlimit:10;}
	.st8{fill:none;stroke:#231F20;stroke-miterlimit:10;stroke-dasharray:12.4505,6.2253;}
	.st9{fill:none;stroke:#231F20;stroke-miterlimit:10;stroke-dasharray:12.1718,6.0859;}
	.st10{fill:none;stroke:#231F20;stroke-miterlimit:10;stroke-dasharray:9.8274,4.9137;}
	.st11{fill:none;stroke:#231F20;stroke-miterlimit:10;stroke-dasharray:8.2374,4.1187;}
</style>
<g>
	<g>
		<g id="LINE_55_">
			<g>
				<line class="st0" x1="293.1" y1="158.4" x2="349.6" y2="158.4"/>
			</g>
		</g>
		<g id="LINE_54_">
			<g>
				<line class="st0" x1="246.9" y1="203.9" x2="293.1" y2="158.4"/>
			</g>
		</g>
		<g id="LINE_53_">
			<g>
				<line class="st0" x1="246.9" y1="112.8" x2="293.1" y2="158.4"/>
			</g>
		</g>
		<g id="LINE_52_">
			<g>
				<line class="st0" x1="395.9" y1="203.9" x2="349.6" y2="158.4"/>
			</g>
		</g>
		<g id="LINE_51_">
			<g>
				<line class="st0" x1="395.9" y1="112.8" x2="349.6" y2="158.4"/>
			</g>
		</g>
	</g>
</g>
<g>
	<g id="LINE_5_">
		<g id="LINE_16_">
			<g>
				<g>
					<g>
						<line class="st1" x1="208.4" y1="148.3" x2="168.4" y2="148.3"/>
						<g>
							<polygon class="st2" points="206.9,146.1 215.1,148.3 206.9,150.5 							"/>
						</g>
					</g>
				</g>
			</g>
		</g>
	</g>
	<g id="POLYLINE_3_">
		<g id="POLYLINE_4_">
			<g>
				<g>
					<g>
						<polyline class="st1" points="394.5,246.6 206.8,214.5 168.4,214.5 						"/>
						<g>
							<polygon class="st2" points="393.5,244.2 401.1,247.7 392.7,248.5 							"/>
						</g>
					</g>
				</g>
			</g>
		</g>
	</g>
	<g id="POLYLINE_5_">
		<g id="POLYLINE_6_">
			<g>
				<g>
					<g>
						<polyline class="st1" points="426.7,173.6 426.7,52.8 436,52.8 						"/>
						<g>
							<polygon class="st2" points="428.9,172.1 426.7,180.2 424.5,172.1 							"/>
						</g>
					</g>
				</g>
			</g>
		</g>
	</g>
</g>
<g id="MTEXT">
	<g>
		<text transform="matrix(1 0 0 1 249.0323 332.3154)" class="st2 st3 st4">Plan view</text>
	</g>
</g>
<g id="MTEXT_1_">
	<g>
		<text transform="matrix(1 0 0 1 262.0341 67.4409)" class="st2 st5 st4">Road</text>
	</g>
</g>
<g id="MTEXT_2_">
	<g>
		<text transform="matrix(1 0 0 1 59.4825 153.2442)" class="st2 st5 st4">Allotment boundary</text>
	</g>
</g>
<g id="MTEXT_4_">
	<g>
		<text transform="matrix(1 0 0 1 46.1232 217.5465)"><tspan x="0" y="0" class="st2 st5 st4">Building other than an</tspan><tspan x="6" y="14.4" class="st2 st5 st4">associated Class 10 </tspan></text>
	</g>
</g>
<g id="MTEXT_6_">
	<g>
		<text transform="matrix(1 0 0 1 28.704 299.9342)"><tspan x="0" y="0" class="st2 st5 st4">Areas of potential</tspan><tspan x="0" y="14.4" class="st2 st5 st4">fire spread</tspan></text>
	</g>
</g>
<g id="MTEXT_8_">
	<g>
		<text transform="matrix(1 0 0 1 301.3804 131.5968)"><tspan x="0" y="0" class="st2 st5 st4">Class 1</tspan><tspan x="-0.7" y="14.4" class="st2 st5 st4">building</tspan></text>
	</g>
</g>
<g id="MTEXT_10_">
	<g>
		<text transform="matrix(1 0 0 1 440.3964 56.323)"><tspan x="0" y="0" class="st2 st5 st4">Class 10</tspan><tspan x="0" y="14.4" class="st2 st5 st4">building </tspan></text>
	</g>
</g>
<g id="POLYLINE_8_">
	<g>
		<rect x="379.3" y="228" class="st6" width="70.5" height="47.1"/>
	</g>
</g>
<g id="POLYLINE">
	<g id="POLYLINE_10_">
		<g>
			<g>
				<g>
					<polyline class="st7" points="246.9,197.9 246.9,203.9 252.9,203.9 					"/>
					<line class="st8" x1="259.1" y1="203.9" x2="386.8" y2="203.9"/>
					<polyline class="st7" points="389.9,203.9 395.9,203.9 395.9,197.9 					"/>
					<line class="st9" x1="395.9" y1="191.8" x2="395.9" y2="121.9"/>
					<polyline class="st7" points="395.9,118.8 395.9,112.8 389.9,112.8 					"/>
					<line class="st8" x1="383.6" y1="112.8" x2="256" y2="112.8"/>
					<polyline class="st7" points="252.9,112.8 246.9,112.8 246.9,118.8 					"/>
					<line class="st9" x1="246.9" y1="124.9" x2="246.9" y2="194.9"/>
				</g>
			</g>
		</g>
	</g>
</g>
<g id="POLYLINE_1_">
	<g id="POLYLINE_7_">
		<g>
			<g>
				<g>
					<polyline class="st7" points="415.4,197.9 415.4,203.9 421.4,203.9 					"/>
					<line class="st10" x1="426.3" y1="203.9" x2="453.3" y2="203.9"/>
					<polyline class="st7" points="455.8,203.9 461.8,203.9 461.8,197.9 					"/>
					<line class="st11" x1="461.8" y1="193.8" x2="461.8" y2="183.5"/>
					<polyline class="st7" points="461.8,181.5 461.8,175.5 455.8,175.5 					"/>
					<line class="st10" x1="450.9" y1="175.5" x2="423.9" y2="175.5"/>
					<polyline class="st7" points="421.4,175.5 415.4,175.5 415.4,181.5 					"/>
					<line class="st11" x1="415.4" y1="185.6" x2="415.4" y2="195.9"/>
				</g>
			</g>
		</g>
	</g>
</g>
<g id="LINE_6_">
	<g>
		<line class="st7" x1="28.7" y1="95.5" x2="524.4" y2="95.5"/>
	</g>
</g>
<g id="LINE_7_">
	<g>
		<line class="st7" x1="524.4" y1="32.8" x2="28.7" y2="32.8"/>
	</g>
</g>
<g>
	<polyline class="st6" points="217.7,95.5 217.7,308.3 483.4,308.3 483.4,95.5 	"/>
	<line class="st6" x1="28.3" y1="280.2" x2="78.7" y2="280.2"/>
</g>
</svg>
