<?xml version="1.0" encoding="utf-8"?>
<!-- Generator: Adobe Illustrator 25.2.1, SVG Export Plug-In . SVG Version: 6.00 Build 0)  -->
<svg version="1.1" xmlns="http://www.w3.org/2000/svg" xmlns:xlink="http://www.w3.org/1999/xlink" x="0px" y="0px"
	 viewBox="0 0 552.8 387.1" style="enable-background:new 0 0 552.8 387.1;" xml:space="preserve">
<style type="text/css">
	.st0{fill:none;stroke:#231F20;stroke-miterlimit:10;stroke-dasharray:12,12;}
	.st1{fill:none;stroke:#231F20;stroke-width:0.25;stroke-miterlimit:10;}
	.st2{fill:#231F20;}
	.st3{fill:none;stroke:#231F20;stroke-linecap:round;stroke-linejoin:round;stroke-miterlimit:10;}
	.st4{font-family:'ArialMT';}
	.st5{font-size:12px;}
	.st6{fill:none;stroke:#231F20;stroke-width:0.75;stroke-linejoin:bevel;stroke-miterlimit:10;}
</style>
<g id="LINE_x5F_50">
</g>
<g id="LINE_x5F_18_x5F_dashed">
	<g>
		<g id="LINE_9_">
			<line class="st0" x1="375.5" y1="106.9" x2="375.5" y2="28.5"/>
		</g>
		<g>
			<g id="LINE_1_">
				<g>
					<line class="st0" x1="205.6" y1="276.7" x2="366.8" y2="276.7"/>
				</g>
			</g>
			<g id="ARC">
				<g>
					<path class="st0" d="M375.5,28.5c-137.1,0-248.2,111.1-248.2,248.2"/>
				</g>
			</g>
		</g>
	</g>
</g>
<g id="LINE_18">
	<g>
		<g id="LINE_10_">
			<g>
				<line class="st1" x1="375.5" y1="314.4" x2="375.5" y2="358.7"/>
			</g>
		</g>
		<g id="LINE_11_">
			<g>
				<line class="st1" x1="127.3" y1="286" x2="127.3" y2="358.7"/>
			</g>
		</g>
		<g id="LINE_13_">
			<g>
				<line class="st1" x1="384.9" y1="27.5" x2="479" y2="27.5"/>
			</g>
		</g>
	</g>
	<g>
		<g id="LINE_12_">
			<g id="LINE_28_">
				<g>
					<g>
						<g>
							<g>
								<g>
									<line class="st1" x1="366.6" y1="351.7" x2="136.2" y2="351.7"/>
									<g>
										<polygon class="st2" points="364.6,348.8 375.5,351.7 364.6,354.6 										"/>
									</g>
									<g>
										<polygon class="st2" points="138.1,348.8 127.3,351.7 138.1,354.6 										"/>
									</g>
								</g>
							</g>
						</g>
					</g>
				</g>
			</g>
		</g>
		<g id="LINE_14_">
			<g>
				<g>
					<g>
						<g>
							<line class="st1" x1="472" y1="267.8" x2="472" y2="36.4"/>
							<g>
								<polygon class="st2" points="474.9,265.8 472,276.7 469,265.8 								"/>
							</g>
							<g>
								<polygon class="st2" points="474.9,38.3 472,27.5 469,38.3 								"/>
							</g>
						</g>
					</g>
				</g>
			</g>
		</g>
	</g>
	<g>
		<g>
			<g id="LINE">
				<g>
					<line class="st3" x1="33.2" y1="276.7" x2="205.6" y2="276.7"/>
				</g>
			</g>
			<g id="LINE_2_">
				<g>
					<line class="st3" x1="367.5" y1="276.7" x2="518.5" y2="276.7"/>
				</g>
			</g>
			<g id="LINE_3_">
				<g>
					<line class="st3" x1="205.6" y1="276.7" x2="205.6" y2="299.3"/>
				</g>
			</g>
			<g id="LINE_4_">
				<g>
					<line class="st3" x1="205.6" y1="299.3" x2="33.2" y2="299.3"/>
				</g>
			</g>
			<g id="LINE_5_">
				<g>
					<line class="st3" x1="375.5" y1="299.3" x2="518.5" y2="299.3"/>
				</g>
			</g>
			<g id="LINE_6_">
				<g>
					<line class="st3" x1="375.5" y1="299.3" x2="375.5" y2="106.7"/>
				</g>
			</g>
			<g id="LINE_7_">
				<g>
					<line class="st3" x1="367.5" y1="106.7" x2="375.5" y2="106.7"/>
				</g>
			</g>
			<g id="LINE_8_">
				<g>
					<line class="st3" x1="367.5" y1="106.7" x2="367.5" y2="276.7"/>
				</g>
			</g>
		</g>
		<g id="ARC_1_">
			<path class="st3" d="M367.5,106.8c-90.6,4.4-161.9,79.1-161.9,169.9"/>
		</g>
	</g>
	<g>
		<g>
			<g>
				<g>
					<polyline class="st1" points="192.2,140 146.6,114.1 134,114.1 					"/>
					<g>
						<polygon class="st2" points="191.9,136.5 199.9,144.4 189,141.6 						"/>
					</g>
				</g>
			</g>
		</g>
	</g>
</g>
<g id="TEXT_25">
	<g>
		<g id="MTEXT">
			<g>
				<text transform="matrix(1 0 0 1 229.5285 346.104)" class="st2 st4 st5">1200 mm</text>
			</g>
		</g>
		<g id="MTEXT_1_">
			<g>
				<text transform="matrix(0 -1 1 0 467.0293 183.1022)" class="st2 st4 st5">1200 mm</text>
			</g>
		</g>
	</g>
	<g id="MTEXT_2_">
		<g>
			<text transform="matrix(1 0 0 1 66.4217 116.958)" class="st2 st4 st5">Clear space</text>
		</g>
	</g>
	<g>
		<polyline class="st6" points="33.2,273.1 33.2,284 37.9,287.5 28.5,287.5 33.2,291 33.2,302.9 		"/>
		<polyline class="st6" points="518.5,273.1 518.5,284 523.2,287.5 513.7,287.5 518.5,291 518.5,302.9 		"/>
	</g>
</g>
</svg>
