<svg id="_0" data-name="0" xmlns="http://www.w3.org/2000/svg" viewBox="0 0 552.76 282.61"><defs><style>.cls-1,.cls-2,.cls-3,.cls-4,.cls-5,.cls-6,.cls-7{fill:none;stroke:#231f20;stroke-miterlimit:10;}.cls-2{stroke-dasharray:26.6 11.7;}.cls-3{stroke-dasharray:5.32 11.7 26.6 11.7;}.cls-4{stroke-dasharray:12 6;}.cls-5,.cls-6{stroke-linecap:round;}.cls-5{stroke-width:2.83px;}.cls-7{stroke-width:0.25px;}.cls-8,.cls-9{fill:#231f20;}.cls-9{font-size:12px;font-family:ArialMT, Arial;}</style></defs><g id="LINE"><g id="LINE-2" data-name="LINE"><line class="cls-1" x1="28.35" y1="33.35" x2="30.85" y2="33.35"/><line class="cls-2" x1="42.55" y1="33.35" x2="75" y2="33.35"/><line class="cls-3" x1="80.85" y1="33.35" x2="406.96" y2="33.35"/><line class="cls-1" x1="412.81" y1="33.35" x2="415.31" y2="33.35"/></g></g><g id="LINE-3" data-name="LINE"><line class="cls-4" x1="28.35" y1="95.79" x2="389.47" y2="95.79"/></g><g id="LINE-4" data-name="LINE"><line class="cls-5" x1="163.83" y1="77.1" x2="150.87" y2="95.79"/></g><g id="LINE-5" data-name="LINE"><line class="cls-5" x1="190.78" y1="95.79" x2="163.83" y2="77.1"/></g><g id="LINE-6" data-name="LINE"><line class="cls-6" x1="106.76" y1="159.39" x2="240.72" y2="252.29"/></g><g id="LINE-7" data-name="LINE"><line class="cls-6" x1="240.72" y1="252.29" x2="297.79" y2="170"/></g><g id="LINE-8" data-name="LINE"><line class="cls-6" x1="297.79" y1="170" x2="190.78" y2="95.79"/></g><g id="LINE-9" data-name="LINE"><line class="cls-6" x1="167.84" y1="140.81" x2="236.72" y2="188.58"/></g><g id="LINE-10" data-name="LINE"><line class="cls-6" x1="167.84" y1="140.81" x2="106.76" y2="159.39"/></g><g id="LINE-11" data-name="LINE"><line class="cls-6" x1="167.84" y1="140.81" x2="163.83" y2="77.1"/></g><g id="LINE-12" data-name="LINE"><line class="cls-6" x1="236.72" y1="188.58" x2="240.72" y2="252.29"/></g><g id="LINE-13" data-name="LINE"><line class="cls-6" x1="236.72" y1="188.58" x2="297.79" y2="170"/></g><g id="LINE-14" data-name="LINE"><line class="cls-6" x1="150.87" y1="95.79" x2="106.76" y2="159.39"/></g><g id="LINE-15" data-name="LINE"><g id="LINE-16" data-name="LINE"><line class="cls-7" x1="49.28" y1="86.93" x2="49.28" y2="42.21"/><polygon class="cls-8" points="52.19 84.95 49.28 95.79 46.37 84.95 52.19 84.95"/><polygon class="cls-8" points="52.19 44.19 49.28 33.35 46.37 44.19 52.19 44.19"/></g></g><g id="POLYLINE"><g id="POLYLINE-2" data-name="POLYLINE"><polyline class="cls-7" points="180.64 82.63 312.19 82.89 312.19 158.75 322.9 158.75"/><polygon class="cls-8" points="182.62 85.54 171.78 82.61 182.63 79.73 182.62 85.54"/></g></g><g id="MTEXT"><text class="cls-9" transform="translate(420.17 38.19)">Allotment boundary</text></g><g id="MTEXT-2" data-name="MTEXT"><text class="cls-9" transform="translate(165.84 188.58)">Class 1</text></g><g id="MTEXT-3" data-name="MTEXT"><text class="cls-9" transform="translate(61.52 85.83) rotate(-90)">900 mm</text></g><g id="MTEXT-4" data-name="MTEXT"><text class="cls-9" transform="translate(43.91 85.88) rotate(-90)">Setback </text></g><g id="MTEXT-5" data-name="MTEXT"><path class="cls-8" d="M331.9,162.39l-2.28-8.59h1.16l1.31,5.63c.14.59.26,1.18.36,1.76q.33-1.38.39-1.59l1.64-5.8h1.37l1.23,4.35a23,23,0,0,1,.67,3c.11-.55.25-1.17.42-1.87l1.35-5.52h1.14l-2.35,8.59h-1.1l-1.81-6.55c-.15-.54-.24-.88-.27-1-.09.39-.17.73-.25,1l-1.82,6.55Z"/><path class="cls-8" d="M345.2,161.62a3.79,3.79,0,0,1-1.12.7,3.2,3.2,0,0,1-1.17.21,2.26,2.26,0,0,1-1.57-.5,1.65,1.65,0,0,1-.55-1.28,1.8,1.8,0,0,1,.2-.84,1.77,1.77,0,0,1,.55-.6,2.4,2.4,0,0,1,.76-.35,8.38,8.38,0,0,1,.94-.16,9.75,9.75,0,0,0,1.88-.36v-.28a1.13,1.13,0,0,0-.3-.9,1.76,1.76,0,0,0-1.2-.36,1.92,1.92,0,0,0-1.1.26,1.59,1.59,0,0,0-.52.92l-1-.14a2.57,2.57,0,0,1,.46-1.07,2.13,2.13,0,0,1,.93-.63,4.38,4.38,0,0,1,1.42-.21,3.85,3.85,0,0,1,1.29.18,1.71,1.71,0,0,1,.73.47,1.6,1.6,0,0,1,.33.72,5.53,5.53,0,0,1,.05,1v1.41a15.8,15.8,0,0,0,.07,1.86,2.33,2.33,0,0,0,.27.75h-1.1A2.48,2.48,0,0,1,345.2,161.62Zm-.08-2.35a8.38,8.38,0,0,1-1.73.39,5.15,5.15,0,0,0-.92.21.94.94,0,0,0-.41.35.87.87,0,0,0-.15.5.91.91,0,0,0,.32.7,1.37,1.37,0,0,0,.94.28,2.27,2.27,0,0,0,1.08-.26,1.64,1.64,0,0,0,.7-.73,2.62,2.62,0,0,0,.17-1.06Z"/><path class="cls-8" d="M347.79,162.39V153.8h1.06v8.59Z"/><path class="cls-8" d="M350.46,162.39V153.8h1.06v8.59Z"/><path class="cls-8" d="M357.63,162.39l-1.9-6.22h1.09l1,3.59.37,1.33c0-.06.12-.49.32-1.28l1-3.64h1.08l.94,3.61.31,1.18.35-1.2,1.07-3.59h1l-1.95,6.22h-1.1l-1-3.73L360,157.6l-1.26,4.79Z"/><path class="cls-8" d="M365.16,155V153.8h1V155Zm0,7.38v-6.22h1v6.22Z"/><path class="cls-8" d="M370.12,161.45l.15.93a4.08,4.08,0,0,1-.8.09,1.82,1.82,0,0,1-.89-.18,1,1,0,0,1-.44-.48,3.64,3.64,0,0,1-.13-1.24V157h-.77v-.82H368v-1.55l1.05-.63v2.18h1.06V157h-1.06v3.63a2.09,2.09,0,0,0,.05.58.43.43,0,0,0,.19.21.69.69,0,0,0,.36.08Z"/><path class="cls-8" d="M371.15,162.39V153.8h1.05v3.08a2.38,2.38,0,0,1,1.87-.85,2.53,2.53,0,0,1,1.2.27,1.6,1.6,0,0,1,.73.75,3.44,3.44,0,0,1,.22,1.4v3.94h-1.06v-3.94a1.64,1.64,0,0,0-.34-1.16,1.28,1.28,0,0,0-1-.36,1.63,1.63,0,0,0-.88.25,1.35,1.35,0,0,0-.59.66,2.92,2.92,0,0,0-.18,1.14v3.41Z"/><path class="cls-8" d="M377.83,155V153.8h1.05V155Zm0,7.38v-6.22h1.05v6.22Z"/><path class="cls-8" d="M380.49,162.39v-6.22h.95v.88a2.25,2.25,0,0,1,2-1,2.49,2.49,0,0,1,1,.2,1.58,1.58,0,0,1,.71.53,2,2,0,0,1,.33.78,5.77,5.77,0,0,1,.06,1v3.83h-1.06V158.6a2.87,2.87,0,0,0-.12-1,1,1,0,0,0-.44-.51,1.35,1.35,0,0,0-.73-.19,1.71,1.71,0,0,0-1.17.43,2.11,2.11,0,0,0-.49,1.62v3.4Z"/><path class="cls-8" d="M390.36,160.4l1-.09a1.78,1.78,0,0,0,.49,1,1.36,1.36,0,0,0,.93.32,1.68,1.68,0,0,0,.85-.22,1.72,1.72,0,0,0,.6-.6,3.52,3.52,0,0,0,.4-1,5.68,5.68,0,0,0,.15-1.29v-.21a2.43,2.43,0,0,1-.87.81,2.32,2.32,0,0,1-1.18.32,2.41,2.41,0,0,1-1.81-.78,2.82,2.82,0,0,1-.74-2,2.87,2.87,0,0,1,.78-2.1,2.56,2.56,0,0,1,1.93-.8,2.77,2.77,0,0,1,1.53.45,2.87,2.87,0,0,1,1.05,1.29,6.35,6.35,0,0,1,.36,2.42,8,8,0,0,1-.35,2.62,3.11,3.11,0,0,1-1.07,1.49,2.73,2.73,0,0,1-1.65.5,2.26,2.26,0,0,1-2.42-2.13Zm4.32-3.79a2.09,2.09,0,0,0-.48-1.44,1.5,1.5,0,0,0-1.17-.53,1.62,1.62,0,0,0-1.22.57,2.12,2.12,0,0,0-.52,1.49,1.82,1.82,0,0,0,.49,1.33,1.64,1.64,0,0,0,1.23.51,1.56,1.56,0,0,0,1.2-.51A2,2,0,0,0,394.68,156.61Z"/><path class="cls-8" d="M396.88,158.15a7.86,7.86,0,0,1,.31-2.45,3,3,0,0,1,.93-1.43,2.38,2.38,0,0,1,1.56-.51,2.6,2.6,0,0,1,1.21.28,2.27,2.27,0,0,1,.86.8,4.29,4.29,0,0,1,.54,1.28,8.45,8.45,0,0,1,.19,2,7.79,7.79,0,0,1-.31,2.44,3.11,3.11,0,0,1-.93,1.44,2.36,2.36,0,0,1-1.56.5,2.33,2.33,0,0,1-1.95-.89A5.61,5.61,0,0,1,396.88,158.15Zm1.08,0a5.4,5.4,0,0,0,.5,2.82,1.41,1.41,0,0,0,2.44,0,5.34,5.34,0,0,0,.5-2.81,5.4,5.4,0,0,0-.5-2.82,1.47,1.47,0,0,0-1.23-.69,1.34,1.34,0,0,0-1.16.61A5.39,5.39,0,0,0,398,158.15Z"/><path class="cls-8" d="M403.55,158.15a7.82,7.82,0,0,1,.32-2.45,3,3,0,0,1,.93-1.43,2.35,2.35,0,0,1,1.55-.51,2.64,2.64,0,0,1,1.22.28,2.43,2.43,0,0,1,.86.8,4.56,4.56,0,0,1,.53,1.28,8.45,8.45,0,0,1,.19,2,7.79,7.79,0,0,1-.31,2.44,3,3,0,0,1-.93,1.44,2.62,2.62,0,0,1-3.51-.39A5.67,5.67,0,0,1,403.55,158.15Zm1.09,0a5.43,5.43,0,0,0,.49,2.82,1.48,1.48,0,0,0,1.22.7,1.45,1.45,0,0,0,1.22-.71,5.34,5.34,0,0,0,.5-2.81,5.4,5.4,0,0,0-.5-2.82,1.47,1.47,0,0,0-1.23-.69,1.35,1.35,0,0,0-1.16.61A5.5,5.5,0,0,0,404.64,158.15Z"/><path class="cls-8" d="M413.85,162.39v-6.22h.95V157a2.13,2.13,0,0,1,.78-.74,2.21,2.21,0,0,1,1.1-.27,2.09,2.09,0,0,1,1.14.28,1.54,1.54,0,0,1,.62.81,2.22,2.22,0,0,1,1.92-1.09,1.92,1.92,0,0,1,1.43.51,2.2,2.2,0,0,1,.49,1.58v4.27h-1v-3.92a2.77,2.77,0,0,0-.11-.91.82.82,0,0,0-.37-.45,1.19,1.19,0,0,0-.63-.17,1.44,1.44,0,0,0-1.09.44,1.9,1.9,0,0,0-.43,1.39v3.62h-1.06v-4a1.82,1.82,0,0,0-.26-1.06,1,1,0,0,0-.84-.35,1.56,1.56,0,0,0-.82.23,1.31,1.31,0,0,0-.55.69,3.67,3.67,0,0,0-.17,1.3v3.23Z"/><path class="cls-8" d="M423.85,162.39v-6.22h.94V157a2.3,2.3,0,0,1,.78-.74,2.28,2.28,0,0,1,1.11-.27,2,2,0,0,1,1.13.28,1.51,1.51,0,0,1,.63.81,2.22,2.22,0,0,1,1.92-1.09,1.88,1.88,0,0,1,1.42.51,2.2,2.2,0,0,1,.5,1.58v4.27h-1v-3.92a2.83,2.83,0,0,0-.1-.91.86.86,0,0,0-.37-.45,1.2,1.2,0,0,0-.64-.17,1.45,1.45,0,0,0-1.09.44,1.94,1.94,0,0,0-.43,1.39v3.62h-1.05v-4a1.82,1.82,0,0,0-.26-1.06,1,1,0,0,0-.85-.35,1.59,1.59,0,0,0-.82.23,1.41,1.41,0,0,0-.55.69,3.92,3.92,0,0,0-.17,1.3v3.23Z"/><path class="cls-8" d="M436.79,159.28a3.19,3.19,0,0,1,1-2.56,2.89,2.89,0,0,1,1.95-.69,2.79,2.79,0,0,1,2.1.84,3.16,3.16,0,0,1,.82,2.32,4.13,4.13,0,0,1-.36,1.89,2.58,2.58,0,0,1-1.05,1.07,3.11,3.11,0,0,1-1.51.38,2.79,2.79,0,0,1-2.11-.84A3.37,3.37,0,0,1,436.79,159.28Zm1.08,0a2.66,2.66,0,0,0,.52,1.79,1.7,1.7,0,0,0,1.31.59,1.66,1.66,0,0,0,1.31-.6,2.67,2.67,0,0,0,.52-1.82,2.58,2.58,0,0,0-.52-1.75,1.75,1.75,0,0,0-2.62,0A2.62,2.62,0,0,0,437.87,159.28Z"/><path class="cls-8" d="M444.11,162.39V157h-.94v-.82h.94v-.67a2.79,2.79,0,0,1,.11-.93,1.36,1.36,0,0,1,.53-.66,2,2,0,0,1,1.08-.26,5.24,5.24,0,0,1,1,.11l-.16.92a3.34,3.34,0,0,0-.62-.06,1,1,0,0,0-.68.2,1.15,1.15,0,0,0-.2.77v.58h1.22V157h-1.22v5.4Z"/><path class="cls-8" d="M451.49,162.39h-1V153.8h1.05v3.06a2.08,2.08,0,0,1,1.71-.83,2.5,2.5,0,0,1,1.08.23,2.28,2.28,0,0,1,.85.65,3,3,0,0,1,.51,1,4,4,0,0,1,.19,1.26,3.57,3.57,0,0,1-.79,2.48,2.48,2.48,0,0,1-1.9.87,2,2,0,0,1-1.73-.92Zm0-3.16a3.14,3.14,0,0,0,.31,1.62,1.51,1.51,0,0,0,2.54.21,2.71,2.71,0,0,0,.5-1.79,2.81,2.81,0,0,0-.48-1.8,1.48,1.48,0,0,0-2.36,0A2.62,2.62,0,0,0,451.48,159.23Z"/><path class="cls-8" d="M456.8,159.28a3.19,3.19,0,0,1,1-2.56,2.91,2.91,0,0,1,2-.69,2.79,2.79,0,0,1,2.1.84,3.2,3.2,0,0,1,.81,2.32,4.13,4.13,0,0,1-.36,1.89,2.58,2.58,0,0,1-1,1.07,3.1,3.1,0,0,1-1.5.38,2.79,2.79,0,0,1-2.11-.84A3.33,3.33,0,0,1,456.8,159.28Zm1.09,0a2.66,2.66,0,0,0,.52,1.79,1.74,1.74,0,0,0,2.62,0,2.73,2.73,0,0,0,.52-1.82,2.58,2.58,0,0,0-.53-1.75,1.74,1.74,0,0,0-2.61,0A2.62,2.62,0,0,0,457.89,159.28Z"/><path class="cls-8" d="M468,162.39v-.92a2.29,2.29,0,0,1-2,1.06,2.56,2.56,0,0,1-1-.21,1.81,1.81,0,0,1-.71-.53,2,2,0,0,1-.32-.78,5.84,5.84,0,0,1-.06-1v-3.85h1v3.45a6.55,6.55,0,0,0,.06,1.11,1.06,1.06,0,0,0,.43.65,1.28,1.28,0,0,0,.79.24,1.72,1.72,0,0,0,.89-.24,1.34,1.34,0,0,0,.59-.66,3.23,3.23,0,0,0,.18-1.22v-3.33h1.05v6.22Z"/><path class="cls-8" d="M470.54,162.39v-6.22h.95v.88a2.25,2.25,0,0,1,2-1,2.54,2.54,0,0,1,1,.2,1.55,1.55,0,0,1,.7.53,2,2,0,0,1,.33.78,5.77,5.77,0,0,1,.06,1v3.83h-1.06V158.6a2.87,2.87,0,0,0-.12-1,1,1,0,0,0-.44-.51,1.32,1.32,0,0,0-.73-.19,1.67,1.67,0,0,0-1.16.43,2.08,2.08,0,0,0-.49,1.62v3.4Z"/><path class="cls-8" d="M481.25,162.39v-.79a1.92,1.92,0,0,1-1.74.93,2.44,2.44,0,0,1-1.36-.41,2.68,2.68,0,0,1-1-1.15,3.92,3.92,0,0,1-.34-1.69,4.39,4.39,0,0,1,.31-1.69,2.39,2.39,0,0,1,.93-1.16,2.46,2.46,0,0,1,1.39-.4,2,2,0,0,1,1,.23,2.14,2.14,0,0,1,.71.62V153.8h1.05v8.59Zm-3.33-3.11a2.73,2.73,0,0,0,.5,1.79,1.55,1.55,0,0,0,1.19.59,1.52,1.52,0,0,0,1.18-.56,2.65,2.65,0,0,0,.48-1.73,2.89,2.89,0,0,0-.49-1.87,1.51,1.51,0,0,0-1.21-.6,1.48,1.48,0,0,0-1.18.57A2.88,2.88,0,0,0,477.92,159.28Z"/><path class="cls-8" d="M488,161.62a3.83,3.83,0,0,1-1.13.7,3.19,3.19,0,0,1-1.16.21,2.3,2.3,0,0,1-1.58-.5,1.74,1.74,0,0,1,.21-2.72A2.35,2.35,0,0,1,485,159a8.38,8.38,0,0,1,.94-.16,9.59,9.59,0,0,0,1.88-.36c0-.15,0-.24,0-.28a1.13,1.13,0,0,0-.3-.9,1.76,1.76,0,0,0-1.2-.36,1.9,1.9,0,0,0-1.1.26,1.54,1.54,0,0,0-.52.92l-1-.14a2.58,2.58,0,0,1,.47-1.07,2,2,0,0,1,.93-.63,4.36,4.36,0,0,1,1.41-.21,4,4,0,0,1,1.3.18,1.77,1.77,0,0,1,.73.47,1.84,1.84,0,0,1,.33.72,6.77,6.77,0,0,1,.05,1v1.41a13.75,13.75,0,0,0,.07,1.86,2.31,2.31,0,0,0,.26.75h-1.1A2.23,2.23,0,0,1,488,161.62Zm-.09-2.35a8.1,8.1,0,0,1-1.72.39,5.15,5.15,0,0,0-.92.21,1,1,0,0,0-.42.35.94.94,0,0,0-.14.5.88.88,0,0,0,.32.7,1.34,1.34,0,0,0,.93.28,2.28,2.28,0,0,0,1.09-.26,1.67,1.67,0,0,0,.69-.73,2.46,2.46,0,0,0,.17-1.06Z"/><path class="cls-8" d="M490.55,162.39v-6.22h.95v.94a2.6,2.6,0,0,1,.67-.87,1.19,1.19,0,0,1,.68-.21,2,2,0,0,1,1.08.34l-.36,1a1.53,1.53,0,0,0-.77-.22,1,1,0,0,0-.62.2,1.11,1.11,0,0,0-.4.58,4.4,4.4,0,0,0-.17,1.23v3.26Z"/><path class="cls-8" d="M494.51,164.78l-.11-1a2.08,2.08,0,0,0,.6.1,1.13,1.13,0,0,0,.56-.12,1,1,0,0,0,.35-.33,5.68,5.68,0,0,0,.32-.78l.09-.26L494,156.17h1.14l1.29,3.6c.17.46.32.94.46,1.44a13.69,13.69,0,0,1,.43-1.42l1.33-3.62h1.05l-2.36,6.32a11.46,11.46,0,0,1-.6,1.42,2.05,2.05,0,0,1-.64.76,1.53,1.53,0,0,1-.87.24A2,2,0,0,1,494.51,164.78Z"/><path class="cls-8" d="M330.26,176.79v-6.22h.95v.87a2.13,2.13,0,0,1,.78-.74,2.22,2.22,0,0,1,1.1-.28,2.1,2.1,0,0,1,1.14.29,1.55,1.55,0,0,1,.62.8,2.24,2.24,0,0,1,1.92-1.09,1.93,1.93,0,0,1,1.43.52,2.2,2.2,0,0,1,.49,1.58v4.27h-1v-3.92a2.77,2.77,0,0,0-.11-.91.82.82,0,0,0-.37-.45,1.19,1.19,0,0,0-.63-.17,1.44,1.44,0,0,0-1.09.44,1.9,1.9,0,0,0-.43,1.39v3.62H334v-4a1.78,1.78,0,0,0-.26-1.05,1,1,0,0,0-.84-.35,1.56,1.56,0,0,0-.82.23,1.31,1.31,0,0,0-.55.69,3.67,3.67,0,0,0-.17,1.3v3.23Z"/><path class="cls-8" d="M344.34,176.79v-.92a2.29,2.29,0,0,1-2,1.06,2.56,2.56,0,0,1-1-.21,1.71,1.71,0,0,1-.7-.53,2,2,0,0,1-.33-.78,5.84,5.84,0,0,1-.06-1v-3.85h1.05V174a5.37,5.37,0,0,0,.07,1.11,1,1,0,0,0,.42.65,1.28,1.28,0,0,0,.79.24,1.72,1.72,0,0,0,.89-.24,1.34,1.34,0,0,0,.59-.66,3.23,3.23,0,0,0,.18-1.22v-3.33h1v6.22Z"/><path class="cls-8" d="M346.51,174.93l1-.16a1.54,1.54,0,0,0,.49,1,1.75,1.75,0,0,0,1.13.33,1.67,1.67,0,0,0,1.07-.29.89.89,0,0,0,.36-.7.64.64,0,0,0-.32-.56,4.38,4.38,0,0,0-1.07-.36,8.54,8.54,0,0,1-1.61-.51,1.53,1.53,0,0,1-.91-1.42,1.66,1.66,0,0,1,.71-1.36,2,2,0,0,1,.67-.31,3.28,3.28,0,0,1,.91-.13,3.33,3.33,0,0,1,1.28.22,1.72,1.72,0,0,1,.82.57,2.1,2.1,0,0,1,.36,1l-1,.14a1.11,1.11,0,0,0-.4-.75,1.52,1.52,0,0,0-1-.27,1.7,1.7,0,0,0-1,.24.69.69,0,0,0-.31.56.56.56,0,0,0,.13.37.82.82,0,0,0,.4.28l.93.27a13.85,13.85,0,0,1,1.56.49,1.63,1.63,0,0,1,.7.56,1.52,1.52,0,0,1,.25.9,1.73,1.73,0,0,1-.31,1,2,2,0,0,1-.89.72,3.19,3.19,0,0,1-1.31.26,2.91,2.91,0,0,1-1.85-.51A2.35,2.35,0,0,1,346.51,174.93Z"/><path class="cls-8" d="M355.24,175.84l.15.94a4.08,4.08,0,0,1-.8.09,1.82,1.82,0,0,1-.89-.18,1,1,0,0,1-.44-.48,3.64,3.64,0,0,1-.13-1.24v-3.58h-.78v-.82h.78V169l1.05-.63v2.18h1.06v.82h-1.06V175a1.75,1.75,0,0,0,.05.58.46.46,0,0,0,.18.21.74.74,0,0,0,.36.08A3.43,3.43,0,0,0,355.24,175.84Z"/><path class="cls-8" d="M359.6,176.79V168.2h1.06v3.08a2.35,2.35,0,0,1,1.86-.86,2.53,2.53,0,0,1,1.2.28,1.6,1.6,0,0,1,.73.75,3.41,3.41,0,0,1,.22,1.39v3.95h-1.06v-3.95a1.63,1.63,0,0,0-.34-1.15,1.28,1.28,0,0,0-1-.36,1.66,1.66,0,0,0-.88.25,1.4,1.4,0,0,0-.59.66,2.94,2.94,0,0,0-.17,1.14v3.41Z"/><path class="cls-8" d="M370.34,176a4,4,0,0,1-1.13.7,3.2,3.2,0,0,1-1.17.21,2.28,2.28,0,0,1-1.57-.5,1.65,1.65,0,0,1-.55-1.28,1.69,1.69,0,0,1,.21-.84,1.65,1.65,0,0,1,.54-.6,2.51,2.51,0,0,1,.76-.35,8.38,8.38,0,0,1,.94-.16,9.59,9.59,0,0,0,1.88-.36v-.28a1.13,1.13,0,0,0-.3-.9,1.74,1.74,0,0,0-1.2-.36,1.84,1.84,0,0,0-1.1.26,1.59,1.59,0,0,0-.52.92l-1-.14a2.57,2.57,0,0,1,.46-1.07,2.13,2.13,0,0,1,.93-.63,4.37,4.37,0,0,1,1.42-.22,3.82,3.82,0,0,1,1.29.19,1.71,1.71,0,0,1,.73.47,1.6,1.6,0,0,1,.33.72,5.53,5.53,0,0,1,.05,1v1.41a15.8,15.8,0,0,0,.07,1.86,2.6,2.6,0,0,0,.27.75h-1.1A2.23,2.23,0,0,1,370.34,176Zm-.09-2.36a7.7,7.7,0,0,1-1.72.4,4.74,4.74,0,0,0-.92.21,1,1,0,0,0-.42.35.87.87,0,0,0-.15.5.91.91,0,0,0,.32.7,1.37,1.37,0,0,0,.94.28,2.27,2.27,0,0,0,1.08-.26,1.69,1.69,0,0,0,.7-.73,2.62,2.62,0,0,0,.17-1.06Z"/><path class="cls-8" d="M374.68,176.79l-2.37-6.22h1.11l1.34,3.72c.14.4.28.82.4,1.26.09-.33.22-.73.39-1.19l1.38-3.79H378l-2.36,6.22Z"/><path class="cls-8" d="M383.21,174.78l1.09.14a2.61,2.61,0,0,1-1,1.48,2.87,2.87,0,0,1-1.78.53,2.83,2.83,0,0,1-2.16-.84,3.26,3.26,0,0,1-.8-2.36,3.44,3.44,0,0,1,.81-2.44,2.7,2.7,0,0,1,2.09-.87,2.66,2.66,0,0,1,2,.85,3.38,3.38,0,0,1,.79,2.39V174h-4.64a2.4,2.4,0,0,0,.58,1.57,1.72,1.72,0,0,0,1.3.54,1.66,1.66,0,0,0,1-.3A2.08,2.08,0,0,0,383.21,174.78Zm-3.46-1.7h3.47a2.14,2.14,0,0,0-.4-1.18,1.59,1.59,0,0,0-1.3-.61,1.67,1.67,0,0,0-1.23.49A1.89,1.89,0,0,0,379.75,173.08Z"/><path class="cls-8" d="M393,176a3.83,3.83,0,0,1-1.13.7,3.19,3.19,0,0,1-1.16.21,2.29,2.29,0,0,1-1.58-.5,1.65,1.65,0,0,1-.55-1.28,1.69,1.69,0,0,1,.21-.84,1.74,1.74,0,0,1,.54-.6,2.51,2.51,0,0,1,.76-.35,8.38,8.38,0,0,1,.94-.16,9.59,9.59,0,0,0,1.88-.36c0-.15,0-.24,0-.28a1.13,1.13,0,0,0-.3-.9,1.76,1.76,0,0,0-1.2-.36,1.8,1.8,0,0,0-1.1.26,1.6,1.6,0,0,0-.53.92l-1-.14a2.57,2.57,0,0,1,.46-1.07,2.11,2.11,0,0,1,.94-.63,4.26,4.26,0,0,1,1.41-.22,3.82,3.82,0,0,1,1.29.19,1.71,1.71,0,0,1,.73.47,1.6,1.6,0,0,1,.33.72,5.26,5.26,0,0,1,.06,1v1.41a16.75,16.75,0,0,0,.06,1.86,2.6,2.6,0,0,0,.27.75h-1.1A2.23,2.23,0,0,1,393,176Zm-.09-2.36a7.56,7.56,0,0,1-1.72.4,4.93,4.93,0,0,0-.92.21,1,1,0,0,0-.42.35.87.87,0,0,0-.15.5.91.91,0,0,0,.32.7,1.39,1.39,0,0,0,.94.28,2.24,2.24,0,0,0,1.08-.26,1.69,1.69,0,0,0,.7-.73,2.62,2.62,0,0,0,.17-1.06Z"/><path class="cls-8" d="M395.63,176.79v-6.22h.95v.88a2.25,2.25,0,0,1,2-1,2.46,2.46,0,0,1,1,.21,1.58,1.58,0,0,1,.71.53,2,2,0,0,1,.33.78,5.77,5.77,0,0,1,.06,1v3.83h-1.06V173a2.87,2.87,0,0,0-.12-1,1,1,0,0,0-.44-.51,1.35,1.35,0,0,0-.73-.19,1.71,1.71,0,0,0-1.17.43,2.12,2.12,0,0,0-.48,1.62v3.4Z"/><path class="cls-8" d="M405.83,176.79V168.2h5.8v1H407v2.66h4v1h-4v3.9Z"/><path class="cls-8" d="M413.12,176.79V168.2h3.81a5.24,5.24,0,0,1,1.75.23,1.93,1.93,0,0,1,.95.82,2.41,2.41,0,0,1,.36,1.29,2.18,2.18,0,0,1-.59,1.54,3,3,0,0,1-1.83.8,2.67,2.67,0,0,1,.68.43,5.52,5.52,0,0,1,.95,1.14l1.49,2.34h-1.43L418.12,175c-.33-.51-.6-.91-.82-1.18a2.4,2.4,0,0,0-.57-.58,2,2,0,0,0-.52-.23,4.26,4.26,0,0,0-.63,0h-1.32v3.82Zm1.14-4.8h2.44a3.6,3.6,0,0,0,1.22-.16,1.31,1.31,0,0,0,.67-.52,1.39,1.39,0,0,0,.23-.77,1.27,1.27,0,0,0-.45-1,2.06,2.06,0,0,0-1.39-.39h-2.72Z"/><path class="cls-8" d="M421.72,176.79V168.2h1.14v7.57h4.23v1Z"/><path class="cls-8" d="M430.8,173.68a3.16,3.16,0,0,1,1-2.56,2.88,2.88,0,0,1,2-.7,2.76,2.76,0,0,1,2.1.85,3.2,3.2,0,0,1,.81,2.32,4.13,4.13,0,0,1-.36,1.89,2.61,2.61,0,0,1-1,1.07,3.11,3.11,0,0,1-1.51.38,2.79,2.79,0,0,1-2.11-.84A3.33,3.33,0,0,1,430.8,173.68Zm1.09,0a2.66,2.66,0,0,0,.52,1.79,1.68,1.68,0,0,0,1.31.59,1.66,1.66,0,0,0,1.31-.6,2.67,2.67,0,0,0,.52-1.82,2.58,2.58,0,0,0-.52-1.75,1.7,1.7,0,0,0-1.31-.59,1.65,1.65,0,0,0-1.31.59A2.62,2.62,0,0,0,431.89,173.68Z"/><path class="cls-8" d="M438.12,176.79v-5.4h-.93v-.82h.93v-.67a3,3,0,0,1,.11-.93,1.38,1.38,0,0,1,.54-.66,1.94,1.94,0,0,1,1.08-.26,5.24,5.24,0,0,1,1,.11l-.16.92a3.42,3.42,0,0,0-.62-.06,1,1,0,0,0-.68.2,1.15,1.15,0,0,0-.2.77v.58h1.21v.82h-1.21v5.4Z"/><path class="cls-8" d="M449.72,170.3l-1.05.08a2,2,0,0,0-.4-.9,1.39,1.39,0,0,0-1-.45,1.45,1.45,0,0,0-.89.28,2.41,2.41,0,0,0-.78,1.06,5.66,5.66,0,0,0-.3,2,2.31,2.31,0,0,1,.93-.86,2.47,2.47,0,0,1,1.15-.28,2.37,2.37,0,0,1,1.8.77,2.82,2.82,0,0,1,.74,2,3.31,3.31,0,0,1-.35,1.5,2.56,2.56,0,0,1-1,1.07,2.63,2.63,0,0,1-1.38.36,2.7,2.7,0,0,1-2.15-1,4.9,4.9,0,0,1-.83-3.19,5.74,5.74,0,0,1,.92-3.62,2.62,2.62,0,0,1,2.16-1,2.41,2.41,0,0,1,1.66.57A2.44,2.44,0,0,1,449.72,170.3Zm-4.31,3.7a2.51,2.51,0,0,0,.23,1.05,1.8,1.8,0,0,0,.65.76,1.66,1.66,0,0,0,.87.26,1.48,1.48,0,0,0,1.15-.54,2.13,2.13,0,0,0,.48-1.47,2,2,0,0,0-.47-1.4,1.58,1.58,0,0,0-1.2-.51,1.63,1.63,0,0,0-1.21.51A1.85,1.85,0,0,0,445.41,174Z"/><path class="cls-8" d="M450.92,172.55a7.86,7.86,0,0,1,.31-2.45,3,3,0,0,1,.93-1.43,2.4,2.4,0,0,1,1.56-.51,2.57,2.57,0,0,1,1.21.28,2.27,2.27,0,0,1,.86.8,4.29,4.29,0,0,1,.54,1.28,8.45,8.45,0,0,1,.19,2,7.79,7.79,0,0,1-.31,2.44,3.11,3.11,0,0,1-.93,1.44,2.36,2.36,0,0,1-1.56.5,2.33,2.33,0,0,1-2-.89A5.63,5.63,0,0,1,450.92,172.55Zm1.08,0a5.4,5.4,0,0,0,.5,2.82,1.41,1.41,0,0,0,2.44,0,5.34,5.34,0,0,0,.5-2.81,5.4,5.4,0,0,0-.5-2.82,1.47,1.47,0,0,0-1.23-.69,1.34,1.34,0,0,0-1.16.61A5.46,5.46,0,0,0,452,172.55Z"/><path class="cls-8" d="M457.1,176.93l2.49-8.88h.84l-2.49,8.88Z"/><path class="cls-8" d="M466.4,170.3l-1,.08a2,2,0,0,0-.4-.9,1.38,1.38,0,0,0-1.05-.45,1.45,1.45,0,0,0-.89.28,2.41,2.41,0,0,0-.78,1.06,5.66,5.66,0,0,0-.3,2,2.31,2.31,0,0,1,.93-.86,2.48,2.48,0,0,1,1.16-.28,2.36,2.36,0,0,1,1.79.77,2.77,2.77,0,0,1,.74,2,3.19,3.19,0,0,1-.35,1.5,2.61,2.61,0,0,1-.95,1.07,2.87,2.87,0,0,1-3.54-.61,4.9,4.9,0,0,1-.83-3.19,5.74,5.74,0,0,1,.92-3.62,2.65,2.65,0,0,1,2.16-1,2.31,2.31,0,0,1,2.44,2.14Zm-4.31,3.7a2.51,2.51,0,0,0,.23,1.05,1.8,1.8,0,0,0,.65.76,1.67,1.67,0,0,0,.88.26,1.48,1.48,0,0,0,1.14-.54,2.13,2.13,0,0,0,.48-1.47,2,2,0,0,0-.47-1.4,1.58,1.58,0,0,0-1.2-.51,1.63,1.63,0,0,0-1.21.51A1.85,1.85,0,0,0,462.09,174Z"/><path class="cls-8" d="M467.6,172.55a8.17,8.17,0,0,1,.31-2.45,3,3,0,0,1,.94-1.43,2.35,2.35,0,0,1,1.55-.51,2.57,2.57,0,0,1,1.21.28,2.38,2.38,0,0,1,.87.8,4.56,4.56,0,0,1,.53,1.28,8.45,8.45,0,0,1,.19,2,7.79,7.79,0,0,1-.31,2.44,3,3,0,0,1-.93,1.44,2.36,2.36,0,0,1-1.56.5,2.33,2.33,0,0,1-1.95-.89A5.63,5.63,0,0,1,467.6,172.55Zm1.09,0a5.43,5.43,0,0,0,.49,2.82,1.48,1.48,0,0,0,1.22.7,1.45,1.45,0,0,0,1.22-.71,5.34,5.34,0,0,0,.5-2.81,5.4,5.4,0,0,0-.5-2.82,1.47,1.47,0,0,0-1.23-.69,1.35,1.35,0,0,0-1.16.61A5.48,5.48,0,0,0,468.69,172.55Z"/><path class="cls-8" d="M473.78,176.93l2.49-8.88h.84l-2.48,8.88Z"/><path class="cls-8" d="M483.08,170.3l-1.05.08a1.89,1.89,0,0,0-.4-.9,1.38,1.38,0,0,0-1.05-.45,1.45,1.45,0,0,0-.89.28,2.41,2.41,0,0,0-.78,1.06,5.66,5.66,0,0,0-.3,2,2.38,2.38,0,0,1,.93-.86,2.48,2.48,0,0,1,1.16-.28,2.36,2.36,0,0,1,1.79.77,2.77,2.77,0,0,1,.74,2,3.3,3.3,0,0,1-.34,1.5,2.74,2.74,0,0,1-4.5.46,4.9,4.9,0,0,1-.83-3.19,5.74,5.74,0,0,1,.92-3.62,2.65,2.65,0,0,1,2.16-1,2.45,2.45,0,0,1,1.67.57A2.38,2.38,0,0,1,483.08,170.3Zm-4.3,3.7a2.37,2.37,0,0,0,.23,1.05,1.78,1.78,0,0,0,.64.76,1.67,1.67,0,0,0,.88.26,1.5,1.5,0,0,0,1.15-.54,2.13,2.13,0,0,0,.48-1.47,2,2,0,0,0-.48-1.4,1.56,1.56,0,0,0-1.19-.51,1.65,1.65,0,0,0-1.22.51A1.84,1.84,0,0,0,478.78,174Z"/><path class="cls-8" d="M484.28,172.55a7.82,7.82,0,0,1,.32-2.45,3,3,0,0,1,.93-1.43,2.35,2.35,0,0,1,1.55-.51,2.64,2.64,0,0,1,1.22.28,2.43,2.43,0,0,1,.86.8,4.56,4.56,0,0,1,.53,1.28,8.45,8.45,0,0,1,.19,2,7.79,7.79,0,0,1-.31,2.44,3,3,0,0,1-.92,1.44,2.4,2.4,0,0,1-1.57.5,2.36,2.36,0,0,1-1.95-.89A5.69,5.69,0,0,1,484.28,172.55Zm1.09,0a5.43,5.43,0,0,0,.49,2.82,1.42,1.42,0,0,0,2.45,0,5.36,5.36,0,0,0,.49-2.81,5.43,5.43,0,0,0-.49-2.82,1.49,1.49,0,0,0-1.24-.69,1.35,1.35,0,0,0-1.16.61A5.48,5.48,0,0,0,485.37,172.55Z"/></g></svg>