<?xml version="1.0" encoding="utf-8"?>
<!-- Generator: Adobe Illustrator 25.2.1, SVG Export Plug-In . SVG Version: 6.00 Build 0)  -->
<svg version="1.1" id="_x30_" xmlns="http://www.w3.org/2000/svg" xmlns:xlink="http://www.w3.org/1999/xlink" x="0px" y="0px"
	 viewBox="0 0 552.8 541.9" style="enable-background:new 0 0 552.8 541.9;" xml:space="preserve">
<style type="text/css">
	.st0{fill:#231F20;}
	.st1{font-family:'ArialMT';}
	.st2{font-size:12px;}
	.st3{fill:none;stroke:#231F20;stroke-width:0.25;stroke-miterlimit:10;}
	.st4{fill:none;stroke:#231F20;stroke-linecap:round;stroke-miterlimit:10;}
</style>
<g id="MTEXT_5_">
</g>
<g id="MTEXT">
	<g>
		<text transform="matrix(1 0 0 1 138.1709 103.6271)" class="st0 st1 st2">Draw band</text>
	</g>
</g>
<g id="MTEXT_2_">
	<g>
		<text transform="matrix(1 0 0 1 381.8141 170.1245)" class="st0 st1 st2">Tapered skirt </text>
	</g>
</g>
<g id="MTEXT_4_">
	<g>
		<text transform="matrix(1 0 0 1 398.2958 240.8674)" class="st0 st1 st2">Flanged sleeve </text>
	</g>
</g>
<g id="MTEXT_6_">
	<g>
		<text transform="matrix(1 0 0 1 376.6029 394.5273)" class="st0 st1 st2">Pipe penetration </text>
	</g>
</g>
<g id="MTEXT_7_">
	<g>
		<text transform="matrix(1 0 0 1 412.5884 272.0327)" class="st0 st1 st2">Blind rivets</text>
	</g>
</g>
<g id="MTEXT_10_">
	<g>
		<text transform="matrix(1 0 0 1 90.3096 217.1595)"><tspan x="0" y="0" class="st0 st1 st2">Seal with </tspan><tspan x="0" y="14.4" class="st0 st1 st2">recommended </tspan><tspan x="0" y="28.8" class="st0 st1 st2">sealant</tspan></text>
	</g>
</g>
<g id="MTEXT_12_">
	<g>
		<text transform="matrix(1 0 0 1 48.7945 399.2669)" class="st0 st1 st2">Roof sheeting </text>
	</g>
</g>
<g id="MTEXT_13_">
	<g>
		<text transform="matrix(1 0 0 1 168.018 401.7865)" class="st0 st1 st2">Flange</text>
	</g>
</g>
<g>
	<g>
		<g>
			<line class="st3" x1="329.3" y1="390.5" x2="372.3" y2="390.5"/>
			<g>
				<polygon class="st0" points="331.3,393.4 320.4,390.5 331.3,387.6 				"/>
			</g>
		</g>
	</g>
</g>
<g id="POLYLINE_15_">
	<g>
		<g>
			<path class="st3" d="M59.4,435.2"/>
			<g>
				<g>
					<line class="st3" x1="184.9" y1="347.4" x2="185.1" y2="389.3"/>
					<g>
						<polygon class="st0" points="182,349.4 184.9,338.6 187.8,349.4 						"/>
					</g>
				</g>
			</g>
		</g>
	</g>
</g>
<g>
	<g id="SPLINE">
		<g>
			<path class="st4" d="M289,406.9c-6.6-8.5-18.8-10.1-27.4-3.6c-1.3,1-2.5,2.2-3.6,3.6"/>
		</g>
	</g>
	<g id="SPLINE_1_">
		<g>
			<path class="st4" d="M258,406.9c6.6,8.5,18.8,10.1,27.4,3.6c1.3-1,2.5-2.2,3.6-3.6"/>
		</g>
	</g>
	<g id="SPLINE_2_">
		<g>
			<path class="st4" d="M289,406.9c6.6,8.5,18.8,10.1,27.4,3.6c1.3-1,2.5-2.2,3.6-3.6"/>
		</g>
	</g>
	<g id="SPLINE_3_">
		<g>
			<path class="st4" d="M289,99.8c-6.6-8.5-18.8-10.1-27.4-3.6c-1.3,1-2.5,2.2-3.6,3.6"/>
		</g>
	</g>
	<g id="SPLINE_4_">
		<g>
			<path class="st4" d="M289,99.8c6.6,8.5,18.8,10.1,27.4,3.6c1.3-1,2.5-2.2,3.6-3.6"/>
		</g>
	</g>
	<g id="SPLINE_5_">
		<g>
			<path class="st4" d="M319.9,99.8c-6.6-8.5-18.8-10.1-27.4-3.6c-1.3,1-2.5,2.2-3.6,3.6"/>
		</g>
	</g>
	<g id="LINE_6_">
		<g>
			<line class="st4" x1="258" y1="406.9" x2="258" y2="99.8"/>
		</g>
	</g>
	<g id="LINE_7_">
		<g>
			<line class="st4" x1="319.9" y1="406.9" x2="319.9" y2="99.8"/>
		</g>
	</g>
	<g id="LINE_8_">
		<g>
			<line class="st4" x1="326.4" y1="347.4" x2="497.4" y2="347.4"/>
		</g>
	</g>
	<g id="LINE_9_">
		<g>
			<line class="st4" x1="347.8" y1="335.8" x2="435.4" y2="339.8"/>
		</g>
	</g>
	<g id="LINE_10_">
		<g>
			<line class="st4" x1="319.9" y1="248.8" x2="327.6" y2="248.8"/>
		</g>
	</g>
	<g id="LINE_11_">
		<g>
			<line class="st4" x1="327.6" y1="248.8" x2="335.5" y2="343"/>
		</g>
	</g>
	<g id="LINE_12_">
		<g>
			<line class="st4" x1="335.5" y1="343" x2="369.7" y2="343"/>
		</g>
	</g>
	<g id="LINE_13_">
		<g>
			<line class="st4" x1="329.8" y1="274.9" x2="343.8" y2="274.9"/>
		</g>
	</g>
	<g id="LINE_14_">
		<g>
			<line class="st4" x1="343.8" y1="274.9" x2="322.7" y2="179.9"/>
		</g>
	</g>
	<g id="LINE_15_">
		<g>
			<line class="st4" x1="322.7" y1="179.9" x2="322.7" y2="144.5"/>
		</g>
	</g>
	<g id="LINE_16_">
		<g>
			<line class="st4" x1="322.7" y1="144.5" x2="319.9" y2="144.5"/>
		</g>
	</g>
	<g id="LINE_17_">
		<g>
			<line class="st4" x1="358.6" y1="331.2" x2="358.6" y2="352.3"/>
		</g>
	</g>
	<g id="LINE_18_">
		<g>
			<line class="st4" x1="419.4" y1="331.2" x2="419.4" y2="352.3"/>
		</g>
	</g>
	<g id="LINE_19_">
		<g>
			<line class="st4" x1="251.6" y1="347.4" x2="80.5" y2="347.4"/>
		</g>
	</g>
	<g id="LINE_20_">
		<g>
			<line class="st4" x1="230.1" y1="335.8" x2="142.6" y2="339.8"/>
		</g>
	</g>
	<g id="LINE_21_">
		<g>
			<line class="st4" x1="258" y1="248.8" x2="250.4" y2="248.8"/>
		</g>
	</g>
	<g id="LINE_22_">
		<g>
			<line class="st4" x1="250.4" y1="248.8" x2="242.4" y2="343"/>
		</g>
	</g>
	<g id="LINE_23_">
		<g>
			<line class="st4" x1="242.4" y1="343" x2="208.2" y2="343"/>
		</g>
	</g>
	<g id="LINE_24_">
		<g>
			<line class="st4" x1="248.2" y1="274.9" x2="234.1" y2="274.9"/>
		</g>
	</g>
	<g id="LINE_25_">
		<g>
			<line class="st4" x1="234.1" y1="274.9" x2="255.2" y2="179.9"/>
		</g>
	</g>
	<g id="LINE_26_">
		<g>
			<line class="st4" x1="255.2" y1="179.9" x2="255.2" y2="144.5"/>
		</g>
	</g>
	<g id="LINE_27_">
		<g>
			<line class="st4" x1="255.2" y1="144.5" x2="258" y2="144.5"/>
		</g>
	</g>
	<g id="LINE_28_">
		<g>
			<line class="st4" x1="219.4" y1="331.2" x2="219.4" y2="352.3"/>
		</g>
	</g>
	<g id="LINE_29_">
		<g>
			<line class="st4" x1="158.5" y1="331.2" x2="158.5" y2="352.3"/>
		</g>
	</g>
	<g id="LINE_30_">
		<g>
			<line class="st4" x1="328.9" y1="147.2" x2="322.7" y2="147.2"/>
		</g>
	</g>
	<g id="LINE_31_">
		<g>
			<line class="st4" x1="328.9" y1="177.2" x2="322.7" y2="177.2"/>
		</g>
	</g>
	<g id="LINE_32_">
		<g>
			<line class="st4" x1="328.9" y1="177.2" x2="328.9" y2="147.2"/>
		</g>
	</g>
	<g id="LINE_33_">
		<g>
			<line class="st4" x1="255.2" y1="147.2" x2="227" y2="147.2"/>
		</g>
	</g>
	<g id="LINE_34_">
		<g>
			<line class="st4" x1="255.2" y1="177.2" x2="227" y2="177.2"/>
		</g>
	</g>
	<g id="LINE_35_">
		<g>
			<line class="st4" x1="227" y1="177.2" x2="227" y2="147.2"/>
		</g>
	</g>
	<g id="LINE_36_">
		<g>
			<line class="st4" x1="246.4" y1="177.2" x2="246.4" y2="147.2"/>
		</g>
	</g>
	<g id="ELLIPSE">
		<g>
			<path class="st4" d="M236.7,157.6c-2.2,0-4.1,2.1-4.1,4.6c0,2.5,1.8,4.6,4.1,4.6s4.1-2.1,4.1-4.6
				C240.8,159.6,239,157.6,236.7,157.6L236.7,157.6z"/>
		</g>
	</g>
</g>
<g>
	<g>
		<line class="st3" x1="90.3" y1="356.2" x2="90.3" y2="388.4"/>
		<g>
			<polygon class="st0" points="87.4,358.2 90.3,347.4 93.2,358.2 			"/>
		</g>
	</g>
</g>
<g>
	<g>
		<line class="st3" x1="199.1" y1="99.8" x2="240.2" y2="140.9"/>
		<g>
			<polygon class="st0" points="236.7,141.6 246.4,147.2 240.8,137.4 			"/>
		</g>
	</g>
</g>
<g>
	<g>
		<polyline class="st3" points="137.3,338.5 138,236.5 236.2,336.7 		"/>
		<g>
			<polygon class="st0" points="140.2,336.5 137.2,347.4 134.4,336.5 			"/>
		</g>
		<g>
			<polygon class="st0" points="232.8,337.3 242.4,343 236.9,333.2 			"/>
		</g>
	</g>
</g>
<g>
	<g>
		<polyline class="st3" points="365,325.1 419.4,273.1 419.4,322.3 		"/>
		<g>
			<polygon class="st0" points="368.4,325.8 358.6,331.2 364.4,321.6 			"/>
		</g>
		<g>
			<polygon class="st0" points="416.5,320.3 419.4,331.2 422.3,320.3 			"/>
		</g>
	</g>
</g>
<g>
	<g>
		<line class="st3" x1="337.8" y1="295.9" x2="397.1" y2="236.5"/>
		<g>
			<polygon class="st0" points="341.3,296.5 331.5,302.1 337.2,292.4 			"/>
		</g>
	</g>
</g>
<g>
	<g>
		<line class="st3" x1="337.3" y1="211" x2="381.8" y2="166.5"/>
		<g>
			<polygon class="st0" points="340.7,211.7 331,217.3 336.6,207.6 			"/>
		</g>
	</g>
</g>
</svg>
