<?xml version="1.0" encoding="utf-8"?>
<!-- Generator: Adobe Illustrator 25.2.1, SVG Export Plug-In . SVG Version: 6.00 Build 0)  -->
<svg version="1.1" xmlns="http://www.w3.org/2000/svg" xmlns:xlink="http://www.w3.org/1999/xlink" x="0px" y="0px"
	 viewBox="0 0 552.8 377.8" style="enable-background:new 0 0 552.8 377.8;" xml:space="preserve">
<style type="text/css">
	.st0{fill:none;stroke:#231F20;stroke-width:0.25;stroke-miterlimit:10;}
	.st1{fill:#231F20;}
	.st2{fill:none;stroke:#231F20;stroke-width:0.75;stroke-miterlimit:10;}
	.st3{fill:none;stroke:#231F20;stroke-width:0.75;stroke-miterlimit:10;stroke-dasharray:12.2522,6.1261;}
	.st4{fill:none;stroke:#231F20;stroke-width:0.75;stroke-miterlimit:10;stroke-dasharray:14.2966,7.1483;}
	.st5{fill:none;stroke:#231F20;stroke-width:0.75;stroke-miterlimit:10;stroke-dasharray:11.4272,5.7136;}
	.st6{fill:none;stroke:#231F20;stroke-width:0.75;stroke-miterlimit:10;stroke-dasharray:8.2185,4.1093;}
	.st7{fill:none;stroke:#231F20;stroke-width:0.75;stroke-miterlimit:10;stroke-dasharray:11.8962,5.9481;}
	.st8{fill:none;stroke:#231F20;stroke-width:0.75;stroke-miterlimit:10;stroke-dasharray:12.1023,6.0511;}
	.st9{fill:none;stroke:#231F20;stroke-width:0.75;stroke-miterlimit:10;stroke-dasharray:10.8749,5.4374;}
	.st10{fill:none;stroke:#231F20;stroke-linecap:round;stroke-miterlimit:10;}
	.st11{fill:none;stroke:#231F20;stroke-width:0.75;stroke-linecap:round;stroke-miterlimit:10;}
	.st12{fill:none;stroke:#231F20;stroke-width:0.75;stroke-miterlimit:10;stroke-dasharray:12,6;}
	.st13{font-family:'ArialMT';}
	.st14{font-size:12px;}
</style>
<g id="LINE_25">
	<g id="LINE_193_">
		<g>
			<line class="st0" x1="282.9" y1="205.1" x2="294.4" y2="205.1"/>
		</g>
	</g>
</g>
<g id="LINE_18">
	<g>
		<g id="LINE_3_">
			<g>
				<line class="st0" x1="38.6" y1="339.3" x2="47.6" y2="329"/>
			</g>
		</g>
		<g id="LINE_6_">
			<g>
				<line class="st0" x1="38.6" y1="264" x2="47.6" y2="253.7"/>
			</g>
		</g>
	</g>
	<g id="LINE_194_">
		<g id="LINE_206_">
			<g>
				<g>
					<g>
						<g>
							<g>
								<line class="st0" x1="288.5" y1="107.3" x2="288.5" y2="196.2"/>
								<g>
									<polygon class="st1" points="285.6,109.2 288.5,98.4 291.4,109.2 									"/>
								</g>
								<g>
									<polygon class="st1" points="285.6,194.2 288.5,205.1 291.4,194.2 									"/>
								</g>
							</g>
						</g>
					</g>
				</g>
			</g>
		</g>
	</g>
	<g id="LINE_196_">
		<g id="LINE_211_">
			<g>
				<g>
					<g>
						<g>
							<g>
								<line class="st0" x1="42.6" y1="325.8" x2="42.6" y2="268.2"/>
								<g>
									<polygon class="st1" points="45.5,323.8 42.6,334.7 39.7,323.8 									"/>
								</g>
								<g>
									<polygon class="st1" points="45.5,270.2 42.6,259.4 39.7,270.2 									"/>
								</g>
							</g>
						</g>
					</g>
				</g>
			</g>
		</g>
	</g>
	<g>
		<g id="LINE_197_">
			<g>
				<line class="st0" x1="524.4" y1="348.5" x2="507.3" y2="329"/>
			</g>
		</g>
		<g id="LINE_198_">
			<g>
				<line class="st0" x1="524.4" y1="273.3" x2="507.3" y2="253.7"/>
			</g>
		</g>
	</g>
	<g id="LINE_199_">
		<g>
			<g>
				<g>
					<line class="st0" x1="521.4" y1="336.2" x2="521.4" y2="278.7"/>
					<g>
						<polygon class="st1" points="524.3,334.2 521.4,345.1 518.5,334.2 						"/>
					</g>
					<g>
						<polygon class="st1" points="524.3,280.7 521.4,269.8 518.5,280.7 						"/>
					</g>
				</g>
			</g>
		</g>
	</g>
	<g id="LINE_205_">
		<g id="LINE_207_">
			<g>
				<g>
					<g>
						<line class="st0" x1="521.4" y1="276.5" x2="521.4" y2="338.4"/>
					</g>
				</g>
			</g>
		</g>
	</g>
</g>
<g id="line_18_dash">
	<g>
		<g id="LINE_4_">
			<g>
				<g>
					<line class="st2" x1="168.6" y1="190.4" x2="168.6" y2="184.4"/>
					<line class="st3" x1="168.6" y1="178.3" x2="168.6" y2="144.6"/>
					<line class="st2" x1="168.6" y1="141.5" x2="168.6" y2="135.5"/>
				</g>
			</g>
		</g>
		<g id="LINE_23_">
			<g>
				<g>
					<line class="st2" x1="168.6" y1="190.4" x2="174.6" y2="190.4"/>
					<line class="st4" x1="181.7" y1="190.4" x2="221.1" y2="190.4"/>
					<line class="st2" x1="224.6" y1="190.4" x2="230.6" y2="190.4"/>
				</g>
			</g>
		</g>
		<g id="LINE_55_">
			<g>
				<g>
					<line class="st2" x1="134.4" y1="229.6" x2="138.3" y2="225.1"/>
					<line class="st5" x1="142.1" y1="220.8" x2="162.8" y2="197.1"/>
					<line class="st2" x1="164.6" y1="194.9" x2="168.6" y2="190.4"/>
				</g>
			</g>
		</g>
	</g>
	<g id="LINE_95_">
		<g id="LINE_216_">
			<g>
				<g>
					<g>
						<line class="st2" x1="265.1" y1="213.6" x2="263.1" y2="207.9"/>
						<line class="st6" x1="261.7" y1="204.1" x2="258.1" y2="194.4"/>
						<line class="st2" x1="257.4" y1="192.5" x2="255.4" y2="186.9"/>
					</g>
				</g>
			</g>
		</g>
	</g>
	<g>
		<g id="LINE_202_">
			<g id="LINE_220_">
				<g>
					<g>
						<g>
							<line class="st2" x1="51.1" y1="249.7" x2="55.1" y2="245.1"/>
							<line class="st7" x1="59" y1="240.7" x2="162.7" y2="121.9"/>
							<line class="st2" x1="164.6" y1="119.7" x2="168.6" y2="115.2"/>
						</g>
					</g>
				</g>
			</g>
		</g>
		<g id="LINE_203_">
			<g id="LINE_219_">
				<g>
					<g>
						<g>
							<line class="st2" x1="168.6" y1="115.2" x2="174.6" y2="115.2"/>
							<line class="st8" x1="180.6" y1="115.2" x2="377.3" y2="115.2"/>
							<line class="st2" x1="380.3" y1="115.2" x2="386.3" y2="115.2"/>
						</g>
					</g>
				</g>
			</g>
		</g>
		<g id="LINE_204_">
			<g id="LINE_218_">
				<g>
					<g>
						<g>
							<line class="st2" x1="503.8" y1="249.7" x2="499.8" y2="245.1"/>
							<line class="st7" x1="495.9" y1="240.7" x2="392.2" y2="121.9"/>
							<line class="st2" x1="390.3" y1="119.7" x2="386.3" y2="115.2"/>
						</g>
					</g>
				</g>
			</g>
		</g>
	</g>
	<g id="LINE_96_">
		<g id="LINE_215_">
			<g>
				<g>
					<g>
						<line class="st2" x1="347.3" y1="213.2" x2="352.2" y2="209.8"/>
						<line class="st9" x1="356.7" y1="206.7" x2="381.2" y2="189.5"/>
						<line class="st2" x1="383.4" y1="188" x2="388.3" y2="184.6"/>
					</g>
				</g>
			</g>
		</g>
	</g>
</g>
<g id="LINE_10">
	<g id="LINE_84_">
		<g>
			<line class="st10" x1="237.6" y1="229.6" x2="420.5" y2="229.6"/>
		</g>
	</g>
	<g>
		<g id="LINE_46_">
			<g>
				<line class="st11" x1="230.6" y1="190.4" x2="215.9" y2="229.6"/>
			</g>
		</g>
		<g id="LINE_53_">
			<g>
				<line class="st11" x1="230.6" y1="187.4" x2="215.9" y2="226.6"/>
			</g>
		</g>
	</g>
	<g>
		<g id="LINE_61_">
			<g>
				<line class="st11" x1="230.6" y1="101.4" x2="215.9" y2="140.6"/>
			</g>
		</g>
		<g id="LINE_63_">
			<g>
				<line class="st11" x1="230.6" y1="98.4" x2="215.9" y2="137.6"/>
			</g>
		</g>
	</g>
	<g>
		<g id="LINE_11_">
			<g>
				<line class="st11" x1="90.8" y1="249.8" x2="90.8" y2="177.7"/>
			</g>
		</g>
		<g id="LINE_14_">
			<g>
				<line class="st11" x1="89.4" y1="249.8" x2="89.4" y2="179.3"/>
			</g>
		</g>
		<g id="LINE_7_">
			<g>
				<line class="st11" x1="67.4" y1="276.6" x2="90.8" y2="249.8"/>
			</g>
		</g>
		<g id="LINE_13_">
			<g>
				<line class="st11" x1="67.4" y1="275" x2="89.4" y2="249.8"/>
			</g>
		</g>
		<g id="LINE_19_">
			<g>
				<line class="st11" x1="89.4" y1="249.8" x2="90.8" y2="249.8"/>
			</g>
		</g>
	</g>
	<g id="LINE_38_">
		<g>
			<line class="st11" x1="462" y1="247.4" x2="438.6" y2="220.5"/>
		</g>
	</g>
	<g id="LINE_39_">
		<g>
			<line class="st11" x1="438.6" y1="220.5" x2="438.6" y2="148.4"/>
		</g>
	</g>
	<g id="LINE_41_">
		<g>
			<line class="st11" x1="440" y1="220.5" x2="440" y2="150"/>
		</g>
	</g>
	<g>
		<g id="LINE_34_">
			<line class="st11" x1="464.2" y1="249.8" x2="464.2" y2="177.7"/>
		</g>
		<g id="LINE_37_">
			<line class="st11" x1="465.6" y1="249.8" x2="465.6" y2="179.3"/>
		</g>
		<g id="LINE_30_">
			<line class="st11" x1="487.5" y1="276.6" x2="464.2" y2="249.8"/>
		</g>
		<g id="LINE_36_">
			<line class="st11" x1="487.5" y1="275" x2="465.6" y2="249.8"/>
		</g>
		<g id="LINE_42_">
			<line class="st11" x1="465.6" y1="249.8" x2="464.2" y2="249.8"/>
		</g>
	</g>
	<g id="LINE_43_">
		<g>
			<line class="st11" x1="440" y1="220.5" x2="438.6" y2="220.5"/>
		</g>
	</g>
	<g>
		<g id="LINE">
			<g>
				<line class="st10" x1="51.1" y1="189.7" x2="168.6" y2="55.2"/>
			</g>
		</g>
		<g id="LINE_1_">
			<g>
				<line class="st10" x1="51.1" y1="324.9" x2="51.1" y2="189.7"/>
			</g>
		</g>
		<g id="LINE_2_">
			<g>
				<line class="st10" x1="51.1" y1="324.9" x2="503.8" y2="324.9"/>
			</g>
		</g>
		<g id="LINE_22_">
			<g>
				<line class="st10" x1="168.6" y1="55.2" x2="386.3" y2="55.2"/>
			</g>
		</g>
		<g id="LINE_24_">
			<g>
				<line class="st10" x1="503.8" y1="189.7" x2="386.3" y2="55.2"/>
			</g>
		</g>
		<g id="LINE_25_">
			<g>
				<line class="st10" x1="503.8" y1="324.9" x2="503.8" y2="189.7"/>
			</g>
		</g>
		<g id="LINE_26_">
			<g>
				<line class="st10" x1="503.8" y1="324.9" x2="420.5" y2="229.6"/>
			</g>
		</g>
		<g id="LINE_27_">
			<g>
				<line class="st10" x1="386.3" y1="156.1" x2="386.3" y2="55.2"/>
			</g>
		</g>
		<g id="LINE_45_">
			<g>
				<line class="st10" x1="134.4" y1="229.6" x2="215.9" y2="229.6"/>
			</g>
		</g>
		<g id="LINE_47_">
			<g>
				<line class="st10" x1="134.4" y1="229.6" x2="134.4" y2="137.6"/>
			</g>
		</g>
		<g id="LINE_48_">
			<g>
				<line class="st10" x1="215.9" y1="229.6" x2="215.9" y2="137.6"/>
			</g>
		</g>
		<g id="LINE_49_">
			<g>
				<line class="st10" x1="230.6" y1="190.4" x2="230.6" y2="98.4"/>
			</g>
		</g>
		<g id="LINE_50_">
			<g>
				<line class="st10" x1="226.1" y1="187.4" x2="215.9" y2="214.4"/>
			</g>
		</g>
		<g id="LINE_51_">
			<g>
				<line class="st10" x1="226.1" y1="187.4" x2="230.6" y2="187.4"/>
			</g>
		</g>
		<g id="LINE_52_">
			<g>
				<line class="st10" x1="226.1" y1="187.4" x2="226.1" y2="113.6"/>
			</g>
		</g>
		<g id="LINE_54_">
			<g>
				<line class="st10" x1="230.6" y1="190.4" x2="239.2" y2="190.4"/>
			</g>
		</g>
		<g id="LINE_56_">
			<g>
				<line class="st10" x1="134.4" y1="226.6" x2="215.9" y2="226.6"/>
			</g>
		</g>
		<g id="LINE_57_">
			<g>
				<line class="st10" x1="134.4" y1="140.6" x2="215.9" y2="140.6"/>
			</g>
		</g>
		<g id="LINE_58_">
			<g>
				<line class="st10" x1="134.4" y1="137.6" x2="215.9" y2="137.6"/>
			</g>
		</g>
		<g id="LINE_59_">
			<g>
				<line class="st10" x1="211.3" y1="226.6" x2="211.3" y2="140.6"/>
			</g>
		</g>
		<g id="LINE_60_">
			<g>
				<line class="st10" x1="139" y1="226.6" x2="139" y2="140.6"/>
			</g>
		</g>
		<g id="LINE_62_">
			<g>
				<line class="st10" x1="226.1" y1="98.4" x2="212.1" y2="135.5"/>
			</g>
		</g>
		<g id="LINE_64_">
			<g>
				<line class="st10" x1="230.6" y1="98.4" x2="226.1" y2="98.4"/>
			</g>
		</g>
		<g id="LINE_65_">
			<g>
				<line class="st10" x1="136.1" y1="135.5" x2="216.7" y2="135.5"/>
			</g>
		</g>
		<g id="LINE_66_">
			<g>
				<line class="st10" x1="136.1" y1="135.5" x2="134.4" y2="137.6"/>
			</g>
		</g>
		<g id="LINE_67_">
			<g>
				<line class="st10" x1="168.6" y1="135.5" x2="168.6" y2="55.2"/>
			</g>
		</g>
		<g id="LINE_68_">
			<g>
				<line class="st10" x1="162.3" y1="226.6" x2="162.3" y2="140.6"/>
			</g>
		</g>
		<g id="LINE_69_">
			<g>
				<line class="st10" x1="164.5" y1="226.6" x2="164.5" y2="140.6"/>
			</g>
		</g>
		<g id="LINE_70_">
			<g>
				<line class="st10" x1="187.2" y1="226.6" x2="187.2" y2="140.6"/>
			</g>
		</g>
		<g id="LINE_71_">
			<g>
				<line class="st10" x1="189.3" y1="226.6" x2="189.3" y2="140.6"/>
			</g>
		</g>
		<g id="LINE_85_">
			<g>
				<line class="st10" x1="420.5" y1="229.6" x2="420.5" y2="195.5"/>
			</g>
		</g>
		<g id="LINE_86_">
			<g>
				<line class="st10" x1="249.7" y1="156.1" x2="237.6" y2="195.5"/>
			</g>
		</g>
		<g id="LINE_87_">
			<g>
				<line class="st10" x1="237.6" y1="229.6" x2="237.6" y2="195.5"/>
			</g>
		</g>
		<g id="LINE_88_">
			<g>
				<line class="st10" x1="237.6" y1="195.5" x2="420.5" y2="195.5"/>
			</g>
		</g>
		<g id="LINE_89_">
			<g>
				<line class="st10" x1="386.3" y1="156.1" x2="420.5" y2="195.5"/>
			</g>
		</g>
		<g id="LINE_90_">
			<g>
				<line class="st10" x1="249.7" y1="156.1" x2="274.3" y2="156.1"/>
			</g>
		</g>
		<g id="LINE_91_">
			<g>
				<line class="st10" x1="255.4" y1="186.9" x2="381.4" y2="186.9"/>
			</g>
		</g>
		<g id="LINE_92_">
			<g>
				<line class="st10" x1="259.5" y1="164.1" x2="275.9" y2="164.1"/>
			</g>
		</g>
		<g id="LINE_93_">
			<g>
				<line class="st10" x1="259.5" y1="164.1" x2="255.4" y2="186.9"/>
			</g>
		</g>
		<g id="POLYLINE">
			<g>
				<polyline class="st10" points="368.3,164.7 368.5,164.7 368.8,164.8 369.1,164.8 369.4,164.9 369.7,165 370,165 370.4,165.1 
					370.7,165.2 371.1,165.3 371.4,165.3 371.8,165.4 372.1,165.5 372.5,165.6 372.9,165.7 373.2,165.8 373.6,165.9 373.9,166.1 
					374.3,166.2 374.7,166.3 375,166.4 375.4,166.5 375.8,166.7 376.1,166.8 376.4,166.9 376.7,167 377,167.1 377.2,167.2 
					377.5,167.3 377.7,167.4 378,167.5 378.2,167.6 378.5,167.7 378.7,167.8 379,167.9 379.2,168 379.5,168.1 379.8,168.2 
					380,168.3 380.3,168.5 380.6,168.6 380.9,168.7 381.2,168.9 381.5,169 381.7,169.2 382,169.3 382.3,169.4 382.5,169.6 
					382.8,169.7 383,169.8 383.2,169.9 383.4,170 383.6,170.1 383.8,170.2 384,170.3 384.2,170.4 384.4,170.5 384.6,170.6 
					384.7,170.7 384.9,170.8 385.1,170.9 385.3,171 385.4,171.1 385.6,171.2 385.8,171.3 386,171.4 386.2,171.5 386.3,171.6 
					386.5,171.7 386.7,171.8 386.9,172 387.1,172.1 387.3,172.2 387.4,172.3 387.6,172.5 387.8,172.6 388,172.7 388.1,172.8 
					388.3,173 388.5,173.1 388.6,173.2 388.8,173.4 389,173.5 389.2,173.7 389.3,173.8 389.5,174 389.6,174.1 389.8,174.3 
					389.9,174.4 390.1,174.6 390.2,174.7 390.3,174.8 390.4,175 390.5,175.1 390.6,175.3 390.7,175.4 390.8,175.5 390.9,175.7 
					391,175.8 391.1,176 391.2,176.1 391.3,176.3 391.4,176.5 391.5,176.6 391.6,176.8 391.6,177 391.7,177.1 391.8,177.3 
					391.8,177.5 391.9,177.7 391.9,177.8 391.9,178 392,178.2 392,178.4 392,178.5 392,178.7 392,178.9 392,179.1 392,179.2 
					392,179.4 392,179.6 392,179.8 392,179.9 392,180.1 391.9,180.3 391.9,180.5 391.9,180.6 391.8,180.8 391.8,181 391.7,181.1 
					391.7,181.2 391.6,181.4 391.5,181.5 391.5,181.6 391.4,181.8 391.3,181.9 391.2,182 391.1,182.1 391,182.3 390.8,182.4 
					390.7,182.5 390.6,182.7 390.5,182.8 390.3,182.9 390.2,183 390.1,183.1 389.9,183.2 389.8,183.4 389.7,183.5 389.5,183.6 
					389.4,183.7 389.3,183.8 389.1,183.9 389,184 388.9,184.1 388.7,184.2 388.6,184.4 388.5,184.5 388.3,184.6 388.2,184.7 
					388.1,184.7 388,184.8 387.8,184.9 387.7,185 387.6,185.1 387.4,185.1 387.3,185.2 387.1,185.3 387,185.4 386.8,185.4 
					386.6,185.5 386.4,185.6 386.2,185.7 386,185.8 385.8,185.9 385.6,186 385.4,186.1 385.2,186.1 385,186.2 384.8,186.3 
					384.5,186.3 384.3,186.4 384.1,186.4 383.9,186.5 383.6,186.5 383.4,186.5 383.2,186.6 382.9,186.6 382.7,186.7 382.4,186.7 
					382.1,186.7 381.8,186.8 381.4,186.9 				"/>
			</g>
		</g>
		<g id="ARC_1_">
			<g>
				<path class="st10" d="M370.7,165.1c-3.2-0.7-6.4-1-9.6-1"/>
			</g>
		</g>
		<g id="LINE_190_">
			<g>
				<line class="st10" x1="51.1" y1="324.9" x2="134.4" y2="229.6"/>
			</g>
		</g>
		<g id="LINE_200_">
			<g>
				<line class="st10" x1="289.7" y1="156.1" x2="386.3" y2="156.1"/>
			</g>
		</g>
		<g id="LINE_201_">
			<g>
				<line class="st10" x1="286.2" y1="164.1" x2="361.6" y2="164.1"/>
			</g>
		</g>
		<g id="LINE_5_">
			<g>
				<line class="st10" x1="65.3" y1="203.9" x2="118.5" y2="143"/>
			</g>
		</g>
		<g id="LINE_8_">
			<g>
				<line class="st10" x1="67.4" y1="204.5" x2="90.8" y2="177.7"/>
			</g>
		</g>
		<g id="LINE_9_">
			<g>
				<line class="st10" x1="65.3" y1="282" x2="65.3" y2="203.9"/>
			</g>
		</g>
		<g id="LINE_10_">
			<g>
				<line class="st10" x1="67.4" y1="276.6" x2="67.4" y2="204.5"/>
			</g>
		</g>
		<g id="LINE_12_">
			<g>
				<line class="st10" x1="92.9" y1="247.4" x2="92.9" y2="175.2"/>
			</g>
		</g>
		<g id="LINE_17_">
			<g>
				<line class="st10" x1="118.5" y1="221.1" x2="118.5" y2="143"/>
			</g>
		</g>
		<g id="LINE_21_">
			<g>
				<line class="st10" x1="92.9" y1="175.2" x2="116.3" y2="148.4"/>
			</g>
		</g>
		<g id="LINE_28_">
			<g>
				<line class="st10" x1="489.7" y1="203.9" x2="436.5" y2="143"/>
			</g>
		</g>
		<g id="LINE_29_">
			<g>
				<line class="st10" x1="489.7" y1="282" x2="436.5" y2="221.1"/>
			</g>
		</g>
		<g id="LINE_31_">
			<g>
				<line class="st10" x1="487.5" y1="204.5" x2="464.2" y2="177.7"/>
			</g>
		</g>
		<g id="LINE_32_">
			<g>
				<line class="st10" x1="489.7" y1="282" x2="489.7" y2="203.9"/>
			</g>
		</g>
		<g id="LINE_33_">
			<g>
				<line class="st10" x1="487.5" y1="276.6" x2="487.5" y2="204.5"/>
			</g>
		</g>
		<g id="LINE_35_">
			<g>
				<line class="st10" x1="462" y1="247.4" x2="462" y2="175.2"/>
			</g>
		</g>
		<g id="LINE_40_">
			<g>
				<line class="st10" x1="436.5" y1="221.1" x2="436.5" y2="143"/>
			</g>
		</g>
		<g id="LINE_44_">
			<g>
				<line class="st10" x1="462" y1="175.2" x2="438.6" y2="148.4"/>
			</g>
		</g>
		<g id="LINE_72_">
			<g>
				<line class="st10" x1="247.4" y1="59.6" x2="367.6" y2="59.6"/>
			</g>
		</g>
		<g id="LINE_73_">
			<g>
				<line class="st10" x1="250.6" y1="62.7" x2="305.9" y2="62.7"/>
			</g>
		</g>
		<g id="LINE_74_">
			<g>
				<line class="st10" x1="309.1" y1="94.6" x2="309.1" y2="62.7"/>
			</g>
		</g>
		<g id="LINE_75_">
			<g>
				<line class="st10" x1="305.9" y1="94.6" x2="305.9" y2="62.7"/>
			</g>
		</g>
		<g id="LINE_76_">
			<g>
				<line class="st10" x1="367.6" y1="97.8" x2="367.6" y2="59.6"/>
			</g>
		</g>
		<g id="LINE_77_">
			<g>
				<line class="st10" x1="364.5" y1="94.6" x2="364.5" y2="62.7"/>
			</g>
		</g>
		<g id="LINE_78_">
			<g>
				<line class="st10" x1="250.6" y1="94.6" x2="250.6" y2="62.7"/>
			</g>
		</g>
		<g id="LINE_79_">
			<g>
				<line class="st10" x1="247.4" y1="97.8" x2="247.4" y2="59.6"/>
			</g>
		</g>
		<g id="LINE_80_">
			<g>
				<line class="st10" x1="250.6" y1="94.6" x2="305.9" y2="94.6"/>
			</g>
		</g>
		<g id="LINE_81_">
			<g>
				<line class="st10" x1="247.4" y1="97.8" x2="367.6" y2="97.8"/>
			</g>
		</g>
		<g id="LINE_82_">
			<g>
				<line class="st10" x1="309.1" y1="94.6" x2="364.5" y2="94.6"/>
			</g>
		</g>
		<g id="LINE_83_">
			<g>
				<line class="st10" x1="309.1" y1="62.7" x2="364.5" y2="62.7"/>
			</g>
		</g>
		<g id="LINE_189_">
			<g>
				<line class="st10" x1="65.3" y1="282" x2="118.5" y2="221.1"/>
			</g>
		</g>
		<g id="LINE_195_">
			<g>
				<line class="st10" x1="118.5" y1="221.1" x2="118.5" y2="247.8"/>
			</g>
		</g>
		<g id="LINE_178_">
			<g>
				<line class="st10" x1="262.8" y1="195.5" x2="265.6" y2="195.5"/>
			</g>
		</g>
	</g>
	<g>
		<g id="LINE_15_">
			<g>
				<line class="st11" x1="92.9" y1="247.4" x2="116.3" y2="220.5"/>
			</g>
		</g>
		<g id="LINE_16_">
			<g>
				<line class="st11" x1="116.3" y1="220.5" x2="116.3" y2="148.4"/>
			</g>
		</g>
		<g id="LINE_18_">
			<g>
				<line class="st11" x1="114.9" y1="220.5" x2="114.9" y2="150"/>
			</g>
		</g>
		<g id="LINE_20_">
			<g>
				<line class="st11" x1="114.9" y1="220.5" x2="116.3" y2="220.5"/>
			</g>
		</g>
		<g id="LINE_191_">
			<g>
				<line class="st11" x1="92.9" y1="245.8" x2="114.9" y2="220.5"/>
			</g>
		</g>
	</g>
	<g id="LINE_192_">
		<g>
			<line class="st11" x1="462" y1="245.8" x2="440" y2="220.5"/>
		</g>
	</g>
	<polyline class="st12" points="264.5,191.6 337.8,191.6 362.4,164.1 	"/>
	<polyline class="st12" points="337.8,191.6 347.3,213.2 265.1,213.6 264.5,191.6 259.5,164.1 	"/>
</g>
<g id="TEXT_25">
	<g id="MTEXT_1_">
		<g>
			<text transform="matrix(0 -1 1 0 37.9156 315.1816)" class="st1 st13 st14"> 2.0 m</text>
		</g>
	</g>
	<g id="MTEXT_2_">
		<g>
			<text transform="matrix(0 -1 1 0 518.444 319.8652)" class="st1 st13 st14"> 2.0 m</text>
		</g>
	</g>
	<g id="MTEXT">
		<g>
			<text transform="matrix(0 -1 1 0 285.1119 163.3394)" class="st1 st13 st14">&gt; 2.0 m</text>
		</g>
	</g>
	<g id="MTEXT_3_">
		<g>
			<text transform="matrix(1 0 0 1 145.8834 169.3237)" class="st1 st13 st14">A</text>
		</g>
	</g>
	<g id="MTEXT_4_">
		<g>
			<text transform="matrix(1 0 0 1 172.4694 169.3237)" class="st1 st13 st14">B</text>
		</g>
	</g>
	<g id="MTEXT_5_">
		<g>
			<text transform="matrix(1 0 0 1 196.8473 169.3237)" class="st1 st13 st14">B</text>
		</g>
	</g>
	<g id="MTEXT_6_">
		<g>
			<text transform="matrix(1 0 0 1 216.3697 162.5161)" class="st1 st13 st14">C</text>
		</g>
	</g>
	<g id="MTEXT_7_">
		<g>
			<text transform="matrix(1 0 0 1 100.2809 204.1797)" class="st1 st13 st14">D</text>
		</g>
	</g>
	<g id="MTEXT_9_">
		<g>
			<text transform="matrix(1 0 0 1 74.8473 234.3438)" class="st1 st13 st14">D</text>
		</g>
	</g>
	<g id="MTEXT_10_">
		<g>
			<text transform="matrix(1 0 0 1 472.1666 233.2812)" class="st1 st13 st14">D</text>
		</g>
	</g>
	<g id="MTEXT_11_">
		<g>
			<text transform="matrix(1 0 0 1 446.5612 204.2969)" class="st1 st13 st14">D</text>
		</g>
	</g>
</g>
</svg>
