<?xml version="1.0" encoding="utf-8"?>
<!-- Generator: Adobe Illustrator 25.2.1, SVG Export Plug-In . SVG Version: 6.00 Build 0)  -->
<svg version="1.1" id="_x30_" xmlns="http://www.w3.org/2000/svg" xmlns:xlink="http://www.w3.org/1999/xlink" x="0px" y="0px"
	 viewBox="0 0 552.8 402.4" style="enable-background:new 0 0 552.8 402.4;" xml:space="preserve">
<style type="text/css">
	.st0{fill-rule:evenodd;clip-rule:evenodd;fill:none;}
	.st1{clip-path:url(#SVGID_2_);fill:none;stroke:#211F1F;stroke-width:0.5;stroke-linejoin:round;}
	.st2{fill:none;}
	.st3{fill:none;stroke:#1D1D1B;stroke-width:0.25;stroke-miterlimit:10;}
	.st4{fill:#1D1D1B;}
	.st5{font-family:'ArialMT';}
	.st6{font-size:12px;}
	.st7{fill:none;stroke:#1D1D1B;stroke-width:0.75;stroke-miterlimit:10;}
	.st8{fill:none;stroke:#1D1D1B;stroke-width:0.5;stroke-miterlimit:10;stroke-dasharray:6,6,0,0;}
	.st9{fill:none;stroke:#1D1D1B;stroke-miterlimit:10;}
	.st10{fill:url(#SVGID_3_);}
	.st11{fill:url(#SVGID_4_);}
</style>
<pattern  y="635" width="72" height="72" patternUnits="userSpaceOnUse" id="diagonal_cross_hatch_2" viewBox="6.2 -86.2 72 72" style="overflow:visible;">
	<g>
		<rect x="6.2" y="-86.2" class="st0" width="72" height="72"/>
		<g>
			<defs>
				<rect id="SVGID_1_" x="6.2" y="-86.2" width="72" height="72"/>
			</defs>
			<clipPath id="SVGID_2_">
				<use xlink:href="#SVGID_1_"  style="overflow:visible;"/>
			</clipPath>
			<line class="st1" x1="0.2" y1="-74.2" x2="18.2" y2="-92.2"/>
			<line class="st1" x1="0.2" y1="-68.2" x2="24.2" y2="-92.2"/>
			<line class="st1" x1="0.2" y1="-62.2" x2="30.2" y2="-92.2"/>
			<line class="st1" x1="0.2" y1="-56.2" x2="36.2" y2="-92.2"/>
			<line class="st1" x1="0.2" y1="-50.2" x2="42.2" y2="-92.2"/>
			<line class="st1" x1="0.2" y1="-44.2" x2="48.2" y2="-92.2"/>
			<line class="st1" x1="0.2" y1="-38.2" x2="54.2" y2="-92.2"/>
			<line class="st1" x1="0.2" y1="-32.2" x2="60.2" y2="-92.2"/>
			<line class="st1" x1="0.2" y1="-26.2" x2="66.2" y2="-92.2"/>
			<line class="st1" x1="0.2" y1="-20.2" x2="72.2" y2="-92.2"/>
			<line class="st1" x1="0.2" y1="-14.2" x2="78.2" y2="-92.2"/>
			<line class="st1" x1="0.2" y1="-8.2" x2="84.2" y2="-92.2"/>
			<line class="st1" x1="6.2" y1="-8.2" x2="84.2" y2="-86.2"/>
			<line class="st1" x1="12.2" y1="-8.2" x2="84.2" y2="-80.2"/>
			<line class="st1" x1="18.2" y1="-8.2" x2="84.2" y2="-74.2"/>
			<line class="st1" x1="24.2" y1="-8.2" x2="84.2" y2="-68.2"/>
			<line class="st1" x1="30.2" y1="-8.2" x2="84.2" y2="-62.2"/>
			<line class="st1" x1="36.2" y1="-8.2" x2="84.2" y2="-56.2"/>
			<line class="st1" x1="42.2" y1="-8.2" x2="84.2" y2="-50.2"/>
			<line class="st1" x1="48.2" y1="-8.2" x2="84.2" y2="-44.2"/>
			<line class="st1" x1="54.2" y1="-8.2" x2="84.2" y2="-38.2"/>
			<line class="st1" x1="52.2" y1="-0.2" x2="94.2" y2="-42.2"/>
			<line class="st1" x1="58.2" y1="-0.2" x2="94.2" y2="-36.2"/>
			<line class="st1" x1="64.2" y1="-0.2" x2="94.2" y2="-30.2"/>
		</g>
	</g>
</pattern>
<g>
	<path class="st2" d="M218,76.7"/>
</g>
<g>
	<g>
		<line class="st3" x1="275.8" y1="94.9" x2="275.7" y2="61.3"/>
		<g>
			<polygon class="st4" points="278.7,92.9 275.8,103.8 272.9,92.9 			"/>
		</g>
	</g>
</g>
<g>
	<path class="st2" d="M333.6,349.1"/>
</g>
<g>
	<g>
		<line class="st3" x1="279.7" y1="310" x2="279.8" y2="339.1"/>
		<g>
			<polygon class="st4" points="276.8,312 279.7,301.2 282.6,312 			"/>
		</g>
	</g>
</g>
<text transform="matrix(1 0 0 1 231.6009 56.5277)" class="st4 st5 st6">Less than 1.8 m </text>
<rect x="8.8" y="179.5" class="st7" width="215.3" height="146.9"/>
<polyline class="st8" points="8.8,326.4 76.7,252.9 8.8,179.5 "/>
<path class="st9" d="M224.1,179.5"/>
<polyline class="st8" points="224.1,179.5 156.3,252.9 224.1,326.4 "/>
<line class="st8" x1="76.7" y1="252.9" x2="156.3" y2="252.9"/>
<text transform="matrix(1 0 0 1 109.8568 243.9466)" class="st4 st5 st6">1</text>
<g>
	<rect x="162.1" y="96.1" class="st7" width="97.8" height="83.3"/>
	<text transform="matrix(1 0 0 1 199.4124 142.1092)" class="st4 st5 st6">10a</text>
	<pattern  id="SVGID_3_" xlink:href="#diagonal_cross_hatch_2" patternTransform="matrix(0.8309 0 0 0.9778 -1373.3497 -392.6495)">
	</pattern>
	<rect x="252.4" y="96.6" class="st10" width="7.8" height="82.9"/>
	<pattern  id="SVGID_4_" xlink:href="#diagonal_cross_hatch_2" patternTransform="matrix(0.8309 0 0 0.9778 -1332.813 -392.649)">
	</pattern>
	<rect x="292.9" y="96.6" class="st11" width="7.8" height="82.9"/>
</g>
<g>
	<path class="st2" d="M168.1,169.1"/>
</g>
<line class="st7" x1="252.4" y1="96.5" x2="252.4" y2="179.5"/>
<rect x="328.6" y="179.5" transform="matrix(-1 -4.488377e-11 4.488377e-11 -1 872.5684 505.8704)" class="st7" width="215.3" height="146.9"/>
<polyline class="st8" points="543.9,326.4 476.1,252.9 543.9,179.5 "/>
<path class="st9" d="M328.6,179.5"/>
<polyline class="st8" points="328.6,179.5 396.5,252.9 328.6,326.4 "/>
<line class="st8" x1="476.1" y1="252.9" x2="396.5" y2="252.9"/>
<text transform="matrix(1 0 0 1 433.285 243.9466)" class="st4 st5 st6">1</text>
<g>
	<path class="st2" d="M420.4,169.1"/>
</g>
<g>
	
		<rect x="292.9" y="96.1" transform="matrix(-1 -4.489132e-11 4.489132e-11 -1 683.5916 275.5917)" class="st7" width="97.8" height="83.3"/>
	<text transform="matrix(1 0 0 1 334.9891 142.1092)" class="st4 st5 st6">10a</text>
</g>
<line class="st7" x1="300.7" y1="179.5" x2="300.7" y2="96.6"/>
<text transform="matrix(1 0 0 1 226.3691 350.5151)" class="st4 st5 st6">Not less than 1.8 m </text>
<rect x="319.3" y="70.3" class="st2" width="154.3" height="15.7"/>
<text transform="matrix(1 0 0 1 319.3364 78.8946)" class="st5 st6">Wall with a FRL of 60/60/60</text>
<g>
	<g>
		<line class="st3" x1="303.1" y1="89.9" x2="316.2" y2="76.7"/>
		<g>
			<polygon class="st4" points="306.5,90.5 296.8,96.1 302.4,86.4 			"/>
		</g>
	</g>
</g>
<rect x="88.5" y="70.3" class="st2" width="154.3" height="15.7"/>
<text transform="matrix(1 0 0 1 88.4828 78.8946)" class="st5 st6">Wall with a FRL of 60/60/60</text>
<g>
	<g>
		<line class="st3" x1="250" y1="89.9" x2="236.9" y2="76.7"/>
		<g>
			<polygon class="st4" points="250.7,86.4 256.3,96.1 246.6,90.5 			"/>
		</g>
	</g>
</g>
</svg>
