<?xml version="1.0" encoding="utf-8"?>
<!-- Generator: Adobe Illustrator 25.2.1, SVG Export Plug-In . SVG Version: 6.00 Build 0)  -->
<svg version="1.1" id="_x30_" xmlns="http://www.w3.org/2000/svg" xmlns:xlink="http://www.w3.org/1999/xlink" x="0px" y="0px"
	 viewBox="0 0 552.8 402.4" style="enable-background:new 0 0 552.8 402.4;" xml:space="preserve">
<style type="text/css">
	.st0{fill-rule:evenodd;clip-rule:evenodd;fill:none;}
	.st1{clip-path:url(#SVGID_2_);fill:none;stroke:#211F1F;stroke-width:0.5;stroke-linejoin:round;}
	.st2{fill:none;stroke:#231F20;stroke-linecap:round;stroke-miterlimit:10;}
	.st3{fill:none;stroke:#231F20;stroke-miterlimit:10;}
	.st4{fill:none;stroke:#231F20;stroke-width:0.75;stroke-miterlimit:10;}
	.st5{fill:none;stroke:#231F20;stroke-width:0.75;stroke-miterlimit:10;stroke-dasharray:11.6523,5.8261;}
	.st6{fill:none;stroke:#231F20;stroke-width:0.75;stroke-miterlimit:10;stroke-dasharray:12.4158,6.2079;}
	.st7{fill:none;stroke:#231F20;stroke-width:0.75;stroke-miterlimit:10;stroke-dasharray:12.2761,6.1381;}
	.st8{fill:#231F20;}
	.st9{font-family:'ArialMT';}
	.st10{font-size:12px;}
	.st11{fill:none;stroke:#000000;stroke-width:0.25;stroke-linecap:round;stroke-linejoin:round;}
	.st12{fill:none;stroke:#231F20;stroke-width:0.5;stroke-miterlimit:10;}
	.st13{fill:none;stroke:#231F20;stroke-width:0.5;stroke-miterlimit:10;stroke-dasharray:25.451,11.1985;}
	.st14{fill:none;stroke:#231F20;stroke-width:0.5;stroke-miterlimit:10;stroke-dasharray:5.0902,11.1985,25.451,11.1985;}
	.st15{fill:url(#SVGID_3_);}
</style>
<pattern  y="635" width="72" height="72" patternUnits="userSpaceOnUse" id="diagonal_cross_hatch_2" viewBox="6.2 -86.2 72 72" style="overflow:visible;">
	<g>
		<rect x="6.2" y="-86.2" class="st0" width="72" height="72"/>
		<g>
			<defs>
				<rect id="SVGID_1_" x="6.2" y="-86.2" width="72" height="72"/>
			</defs>
			<clipPath id="SVGID_2_">
				<use xlink:href="#SVGID_1_"  style="overflow:visible;"/>
			</clipPath>
			<line class="st1" x1="0.2" y1="-74.2" x2="18.2" y2="-92.2"/>
			<line class="st1" x1="0.2" y1="-68.2" x2="24.2" y2="-92.2"/>
			<line class="st1" x1="0.2" y1="-62.2" x2="30.2" y2="-92.2"/>
			<line class="st1" x1="0.2" y1="-56.2" x2="36.2" y2="-92.2"/>
			<line class="st1" x1="0.2" y1="-50.2" x2="42.2" y2="-92.2"/>
			<line class="st1" x1="0.2" y1="-44.2" x2="48.2" y2="-92.2"/>
			<line class="st1" x1="0.2" y1="-38.2" x2="54.2" y2="-92.2"/>
			<line class="st1" x1="0.2" y1="-32.2" x2="60.2" y2="-92.2"/>
			<line class="st1" x1="0.2" y1="-26.2" x2="66.2" y2="-92.2"/>
			<line class="st1" x1="0.2" y1="-20.2" x2="72.2" y2="-92.2"/>
			<line class="st1" x1="0.2" y1="-14.2" x2="78.2" y2="-92.2"/>
			<line class="st1" x1="0.2" y1="-8.2" x2="84.2" y2="-92.2"/>
			<line class="st1" x1="6.2" y1="-8.2" x2="84.2" y2="-86.2"/>
			<line class="st1" x1="12.2" y1="-8.2" x2="84.2" y2="-80.2"/>
			<line class="st1" x1="18.2" y1="-8.2" x2="84.2" y2="-74.2"/>
			<line class="st1" x1="24.2" y1="-8.2" x2="84.2" y2="-68.2"/>
			<line class="st1" x1="30.2" y1="-8.2" x2="84.2" y2="-62.2"/>
			<line class="st1" x1="36.2" y1="-8.2" x2="84.2" y2="-56.2"/>
			<line class="st1" x1="42.2" y1="-8.2" x2="84.2" y2="-50.2"/>
			<line class="st1" x1="48.2" y1="-8.2" x2="84.2" y2="-44.2"/>
			<line class="st1" x1="54.2" y1="-8.2" x2="84.2" y2="-38.2"/>
			<line class="st1" x1="52.2" y1="-0.2" x2="94.2" y2="-42.2"/>
			<line class="st1" x1="58.2" y1="-0.2" x2="94.2" y2="-36.2"/>
			<line class="st1" x1="64.2" y1="-0.2" x2="94.2" y2="-30.2"/>
		</g>
	</g>
</pattern>
<g>
	<g id="LWPOLYLINE">
		<g>
			<rect x="29.4" y="56" class="st2" width="308.2" height="246.2"/>
		</g>
	</g>
	<g id="LINE_6_">
		<g>
			<line class="st2" x1="489.3" y1="195.8" x2="489.3" y2="56.7"/>
		</g>
	</g>
	<g id="LINE_7_">
		<g>
			<line class="st2" x1="372" y1="56.7" x2="489.3" y2="56.7"/>
		</g>
	</g>
	<g id="LINE_8_">
		<g>
			<line class="st2" x1="372" y1="195.8" x2="372" y2="56.7"/>
		</g>
	</g>
	<g id="LINE_9_">
		<g>
			<line class="st2" x1="372" y1="195.8" x2="489.3" y2="195.8"/>
		</g>
	</g>
	<g id="LINE_11_">
		<g>
			<path class="st2" d="M338,56.7"/>
			<path class="st2" d="M322.6,56.7"/>
		</g>
	</g>
	<g id="LINE_12_">
		<g>
			<line class="st3" x1="322.6" y1="195.8" x2="338" y2="195.8"/>
		</g>
	</g>
	<g id="LINE_25_">
		<g>
			<line class="st2" x1="322.6" y1="195.8" x2="322.6" y2="56.7"/>
		</g>
	</g>
</g>
<g>
	<g id="LINE_1_">
		<g id="LINE_32_">
			<g>
				<g>
					<g>
						<line class="st4" x1="114.2" y1="179.5" x2="120.2" y2="179.5"/>
						<line class="st5" x1="126.1" y1="179.5" x2="245.5" y2="179.5"/>
						<line class="st4" x1="248.4" y1="179.5" x2="254.4" y2="179.5"/>
					</g>
				</g>
			</g>
		</g>
	</g>
	<g id="LINE_2_">
		<g id="LINE_30_">
			<g>
				<g>
					<g>
						<line class="st4" x1="114.2" y1="179.5" x2="110.9" y2="174.5"/>
						<line class="st6" x1="107.4" y1="169.4" x2="35.7" y2="64.2"/>
						<line class="st4" x1="34" y1="61.7" x2="30.6" y2="56.7"/>
					</g>
				</g>
			</g>
		</g>
	</g>
	<g id="LINE_3_">
		<g id="LINE_29_">
			<g>
				<g>
					<g>
						<line class="st4" x1="114.2" y1="179.5" x2="110.9" y2="184.5"/>
						<line class="st7" x1="107.4" y1="189.5" x2="36.9" y2="293.7"/>
						<line class="st4" x1="35.1" y1="296.3" x2="31.8" y2="301.2"/>
					</g>
				</g>
			</g>
		</g>
	</g>
	<g id="LINE_4_">
		<g id="LINE_28_">
			<g>
				<g>
					<g>
						<line class="st4" x1="254.4" y1="179.5" x2="257.8" y2="174.5"/>
						<line class="st6" x1="261.3" y1="169.4" x2="332.9" y2="64.2"/>
						<line class="st4" x1="334.7" y1="61.7" x2="338" y2="56.7"/>
					</g>
				</g>
			</g>
		</g>
	</g>
	<g id="LINE_5_">
		<g id="LINE_27_">
			<g>
				<g>
					<g>
						<line class="st4" x1="254.4" y1="179.5" x2="257.8" y2="184.5"/>
						<line class="st7" x1="261.2" y1="189.5" x2="331.8" y2="293.7"/>
						<line class="st4" x1="333.5" y1="296.3" x2="336.9" y2="301.2"/>
					</g>
				</g>
			</g>
		</g>
	</g>
</g>
<g id="MTEXT_5_">
	<g>
		<text transform="matrix(1 0 0 1 180.1714 131.5799)" class="st8 st9 st10">1</text>
	</g>
</g>
<g id="MTEXT_4_">
	<g>
		<text transform="matrix(1 0 0 1 420.6826 131.58)" class="st8 st9 st10">10a</text>
	</g>
</g>
<g id="MTEXT_3_">
	<g>
		<text transform="matrix(1 0 0 1 279.9584 332.2171)" class="st8 st9 st10">Less than 900 mm</text>
	</g>
</g>
<g>
	<g>
		<g>
			<g>
				<line class="st11" x1="496.3" y1="225.2" x2="436.3" y2="330"/>
				<g>
					<polygon points="492.8,225.5 500.7,217.5 497.8,228.4 					"/>
				</g>
			</g>
		</g>
	</g>
</g>
<g>
	<g>
		<g>
			<g>
				<polyline class="st11" points="368.7,224.1 436.3,330 381.7,330 				"/>
				<g>
					<polygon points="367.3,227.4 363.9,216.7 372.2,224.2 					"/>
				</g>
			</g>
		</g>
	</g>
</g>
<g id="LINE_10_">
	<g>
		<g>
			<g>
				<line class="st12" x1="523.3" y1="385.1" x2="523.3" y2="382.1"/>
				<line class="st13" x1="523.3" y1="368.9" x2="523.3" y2="332.2"/>
				<line class="st14" x1="523.3" y1="325.6" x2="523.3" y2="19.4"/>
				<line class="st12" x1="523.3" y1="12.8" x2="523.3" y2="9.8"/>
			</g>
		</g>
	</g>
</g>
<pattern  id="SVGID_3_" xlink:href="#diagonal_cross_hatch_2" patternTransform="matrix(0.9348 0 0 1.1513 -421.8828 1254.228)">
</pattern>
<rect x="322.6" y="56" class="st15" width="15.5" height="139.8"/>
<g>
	<text transform="matrix(1 0 0 1 278.6207 363.3539)" class="st8 st9 st10">Allotment boundary</text>
</g>
<g>
	<g>
		<line class="st11" x1="386" y1="360.8" x2="514.5" y2="360.8"/>
		<g>
			<polygon points="512.5,363.7 523.3,360.8 512.5,357.9 			"/>
		</g>
	</g>
</g>
<g>
	<text transform="matrix(1 0 0 1 121.661 33.3541)" class="st8 st9 st10">Wall with a FRL  of 60/60/60</text>
</g>
<g>
	<g>
		<polyline class="st11" points="324.1,49.7 305.5,31.2 278.6,31.2 		"/>
		<g>
			<polygon points="324.7,46.3 330.3,56 320.6,50.4 			"/>
		</g>
	</g>
</g>
</svg>
