<svg xmlns="http://www.w3.org/2000/svg" xmlns:xlink="http://www.w3.org/1999/xlink" viewBox="0 0 552.76 337.14"><defs><style>.cls-1,.cls-6,.cls-7,.cls-8,.cls-9{fill:none;}.cls-2,.cls-4,.cls-5{fill:#231f20;}.cls-2,.cls-6,.cls-7,.cls-8,.cls-9{stroke:#231f20;stroke-miterlimit:10;}.cls-2{stroke-width:0.5px;}.cls-3{fill:url(#Masonry_crosshatch);}.cls-4{font-size:12px;font-family:ArialMT, Arial;}.cls-6{stroke-width:0.25px;}.cls-8{stroke-dasharray:11.2 11.2;}.cls-9{stroke-dasharray:13.95 13.95;}</style><pattern id="Masonry_crosshatch" data-name="Masonry crosshatch" width="28.35" height="28.35" patternTransform="translate(69.16 29.01)" patternUnits="userSpaceOnUse" viewBox="0 0 28.35 28.35"><rect class="cls-1" width="28.35" height="28.35"/><line class="cls-2" x1="28.35" y1="28.35" x2="56.69" y2="56.69"/><line class="cls-2" y1="28.35" x2="28.35" y2="56.69"/><line class="cls-2" x1="2.1" y1="25.84" x2="30.45" y2="54.19"/><line class="cls-2" x1="-28.35" y1="28.35" y2="56.69"/><line class="cls-2" x1="-26.24" y1="25.84" x2="2.1" y2="54.19"/><line class="cls-2" x1="28.35" x2="56.69" y2="28.35"/><line class="cls-2" x2="28.35" y2="28.35"/><line class="cls-2" x1="2.1" y1="-2.51" x2="30.45" y2="25.84"/><line class="cls-2" x1="-28.35" y2="28.35"/><line class="cls-2" x1="-26.24" y1="-2.51" x2="2.1" y2="25.84"/><line class="cls-2" x1="28.35" y1="-28.35" x2="56.69"/><line class="cls-2" y1="-28.35" x2="28.35"/><line class="cls-2" x1="-28.35" y1="-28.35"/></pattern></defs><g id="HETCH"><g id="HATCH"><rect class="cls-3" x="204.66" y="96.91" width="8.78" height="168.44"/></g><g id="HATCH-2" data-name="HATCH"><rect class="cls-3" x="326.44" y="178.65" width="8.78" height="86.69"/></g></g><g id="TEXT_25" data-name="TEXT 25"><g id="MTEXT"><text class="cls-4" transform="translate(280.2 40.88)">Distance between buildings </text></g><g id="MTEXT-2" data-name="MTEXT"><path class="cls-5" d="M280.74,292.87l1.8-8.59h6.2l-.21,1h-5l-.56,2.67h4.92l-.21,1h-4.92l-.62,3h5.41l-.21,1Z"/><path class="cls-5" d="M288.19,292.87l2.7-3.16-1.55-3.06h1.17l.53,1.11c.19.41.37.81.53,1.19l1.79-2.3h1.29L292,289.8l1.57,3.07h-1.17l-.62-1.26c-.13-.27-.29-.61-.45-1l-1.85,2.26Z"/><path class="cls-5" d="M297.08,292l-.18.87a2.73,2.73,0,0,1-.73.1,1.56,1.56,0,0,1-1-.31.79.79,0,0,1-.28-.64,6.38,6.38,0,0,1,.15-.94l.75-3.62H295l.17-.82H296l.33-1.53,1.21-.73-.47,2.26h1l-.18.82h-1l-.73,3.44a5.93,5.93,0,0,0-.13.79.36.36,0,0,0,.11.28.49.49,0,0,0,.35.1A2.38,2.38,0,0,0,297.08,292Z"/><path class="cls-5" d="M302.51,290.76l1,.1a3.11,3.11,0,0,1-1,1.46,2.8,2.8,0,0,1-1.9.69,2.5,2.5,0,0,1-1.27-.32,2.06,2.06,0,0,1-.88-.92,3.12,3.12,0,0,1-.3-1.39,4.5,4.5,0,0,1,.47-2,3.31,3.31,0,0,1,1.22-1.42,2.94,2.94,0,0,1,1.62-.47,2.34,2.34,0,0,1,1.78.69,2.58,2.58,0,0,1,.67,1.89,6.28,6.28,0,0,1-.08.94h-4.59c0,.12,0,.23,0,.32a2,2,0,0,0,.4,1.34,1.29,1.29,0,0,0,1,.46,1.91,1.91,0,0,0,1.08-.36A2.37,2.37,0,0,0,302.51,290.76Zm-3.09-1.54h3.5V289a1.69,1.69,0,0,0-.4-1.22,1.33,1.33,0,0,0-1-.42,1.87,1.87,0,0,0-1.24.46A2.94,2.94,0,0,0,299.42,289.22Z"/><path class="cls-5" d="M304.61,292.87l1.3-6.22h.94l-.27,1.27a4.41,4.41,0,0,1,.94-1.06,1.51,1.51,0,0,1,.94-.35,1.82,1.82,0,0,1,.78.23l-.43,1a1,1,0,0,0-.6-.2,1.66,1.66,0,0,0-1.15.62,4.84,4.84,0,0,0-.92,2.24l-.52,2.49Z"/><path class="cls-5" d="M308.61,292.87l1.3-6.22h1l-.23,1.08a5.5,5.5,0,0,1,1.17-.93,2.36,2.36,0,0,1,1.11-.29,1.67,1.67,0,0,1,1.19.41,1.43,1.43,0,0,1,.43,1.1,6.26,6.26,0,0,1-.15,1.09l-.79,3.76h-1.06l.82-3.94a4.89,4.89,0,0,0,.13-.85.64.64,0,0,0-.22-.5.89.89,0,0,0-.62-.2,2.1,2.1,0,0,0-1.45.59,3.77,3.77,0,0,0-.93,2l-.6,2.89Z"/><path class="cls-5" d="M319.47,292.1a3.82,3.82,0,0,1-1.06.69,2.66,2.66,0,0,1-1.09.22,1.93,1.93,0,0,1-1.38-.5,1.7,1.7,0,0,1-.53-1.3,1.73,1.73,0,0,1,.24-.92,1.71,1.71,0,0,1,.63-.65,2.78,2.78,0,0,1,1-.35,12.87,12.87,0,0,1,1.35-.11A5.11,5.11,0,0,0,320,289a2.82,2.82,0,0,0,.12-.72.69.69,0,0,0-.27-.58,1.69,1.69,0,0,0-1.08-.29,1.92,1.92,0,0,0-1.09.29,1.66,1.66,0,0,0-.62.84l-1.07-.09a2.78,2.78,0,0,1,1-1.42,3,3,0,0,1,1.79-.49,2.79,2.79,0,0,1,1.83.55,1.29,1.29,0,0,1,.52,1.07,5.26,5.26,0,0,1-.15,1.15l-.35,1.55a6.41,6.41,0,0,0-.16,1.2,3.74,3.74,0,0,0,.13.84H319.6A4.21,4.21,0,0,1,319.47,292.1Zm.4-2.38a3.36,3.36,0,0,1-.48.14c-.17,0-.45.06-.85.09a7.19,7.19,0,0,0-1.31.21,1.11,1.11,0,0,0-.57.4,1.06,1.06,0,0,0-.2.61,1,1,0,0,0,.31.74,1.26,1.26,0,0,0,.88.28,2,2,0,0,0,1-.28,2,2,0,0,0,.77-.77A4.87,4.87,0,0,0,319.87,289.72Z"/><path class="cls-5" d="M321.87,292.87l1.79-8.59h1.06l-1.79,8.59Z"/><path class="cls-5" d="M329.14,292.87l-.65-6.22h1l.28,2.8.11,1.57c0,.11,0,.35,0,.7.12-.39.22-.7.3-.91s.21-.52.39-.91l1.49-3.25h1.15l.21,3.11c0,.47,0,1.11.06,1.89.19-.52.51-1.25,1-2.18l1.34-2.82h1.06l-3,6.22h-1.11l-.23-3.65c0-.22,0-.67,0-1.32-.16.42-.35.87-.56,1.35l-1.65,3.62Z"/><path class="cls-5" d="M340.81,292.1a3.82,3.82,0,0,1-1.06.69,2.66,2.66,0,0,1-1.09.22,1.93,1.93,0,0,1-1.38-.5,1.7,1.7,0,0,1-.53-1.3,1.82,1.82,0,0,1,.23-.92,1.87,1.87,0,0,1,.63-.65,2.92,2.92,0,0,1,1-.35,12.87,12.87,0,0,1,1.35-.11,5,5,0,0,0,1.43-.21,2.5,2.5,0,0,0,.13-.72.69.69,0,0,0-.27-.58,1.69,1.69,0,0,0-1.08-.29,1.9,1.9,0,0,0-1.09.29,1.66,1.66,0,0,0-.62.84l-1.07-.09a2.78,2.78,0,0,1,1-1.42,3,3,0,0,1,1.79-.49,2.79,2.79,0,0,1,1.83.55,1.31,1.31,0,0,1,.52,1.07,5.26,5.26,0,0,1-.15,1.15l-.35,1.55a6.41,6.41,0,0,0-.16,1.2,3.74,3.74,0,0,0,.13.84h-1.07A4.21,4.21,0,0,1,340.81,292.1Zm.4-2.38a3.36,3.36,0,0,1-.48.14c-.17,0-.45.06-.85.09a7.19,7.19,0,0,0-1.31.21,1.11,1.11,0,0,0-.57.4,1.06,1.06,0,0,0-.2.61,1,1,0,0,0,.31.74,1.26,1.26,0,0,0,.88.28,2,2,0,0,0,1-.28,2,2,0,0,0,.77-.77A4.87,4.87,0,0,0,341.21,289.72Z"/><path class="cls-5" d="M343.21,292.87l1.79-8.59h1.06l-1.79,8.59Z"/><path class="cls-5" d="M345.88,292.87l1.79-8.59h1.06l-1.79,8.59Z"/><path class="cls-5" d="M353.5,292.87l-1.9-6.22h1.09l1,3.59.36,1.34.33-1.29,1-3.64h1.08l.93,3.61.31,1.19.36-1.2,1.07-3.6h1l-1.94,6.22h-1.1l-1-3.72-.24-1.06-1.26,4.78Z"/><path class="cls-5" d="M361,285.5v-1.22h1.06v1.22Zm0,7.37v-6.22h1.06v6.22Z"/><path class="cls-5" d="M366,291.93l.15.93a4.08,4.08,0,0,1-.8.09,1.82,1.82,0,0,1-.89-.18,1,1,0,0,1-.44-.47,3.71,3.71,0,0,1-.13-1.25v-3.58h-.78v-.82h.78v-1.54l1.05-.63v2.17H366v.82h-1.06v3.64a1.83,1.83,0,0,0,.05.58.44.44,0,0,0,.18.2.64.64,0,0,0,.36.08A3.16,3.16,0,0,0,366,291.93Z"/><path class="cls-5" d="M367,292.87v-8.59h1.05v3.09a2.34,2.34,0,0,1,1.87-.86,2.53,2.53,0,0,1,1.2.27,1.6,1.6,0,0,1,.73.75,3.65,3.65,0,0,1,.22,1.4v3.94H371v-3.94a1.61,1.61,0,0,0-.34-1.15,1.28,1.28,0,0,0-1-.36,1.71,1.71,0,0,0-.88.24,1.3,1.3,0,0,0-.59.66,3,3,0,0,0-.18,1.15v3.4Z"/><path class="cls-5" d="M373.7,285.5v-1.22h1.05v1.22Zm0,7.37v-6.22h1.05v6.22Z"/><path class="cls-5" d="M376.36,292.87v-6.22h.95v.88a2.22,2.22,0,0,1,2-1,2.66,2.66,0,0,1,1,.2,1.66,1.66,0,0,1,.71.53,2.3,2.3,0,0,1,.33.78,7.71,7.71,0,0,1,.05,1v3.82h-1.05v-3.78a3,3,0,0,0-.12-1,1.08,1.08,0,0,0-.44-.51,1.45,1.45,0,0,0-.74-.19,1.73,1.73,0,0,0-1.16.43,2.1,2.1,0,0,0-.49,1.62v3.4Z"/><path class="cls-5" d="M390,292.87H389v-6.72a5.4,5.4,0,0,1-1,.73,6.94,6.94,0,0,1-1.11.54v-1a6.26,6.26,0,0,0,1.55-1,4,4,0,0,0,.93-1.15H390Z"/><path class="cls-5" d="M393.34,292.87v-1.2h1.2v1.2Z"/><path class="cls-5" d="M397.7,288.21a2,2,0,0,1-1-.68,1.81,1.81,0,0,1-.32-1.07,2.07,2.07,0,0,1,.68-1.57,2.47,2.47,0,0,1,1.79-.64,2.54,2.54,0,0,1,1.81.65,2.12,2.12,0,0,1,.69,1.59,1.74,1.74,0,0,1-.32,1,1.92,1.92,0,0,1-.95.68,2.35,2.35,0,0,1,1.21.84,2.31,2.31,0,0,1,.41,1.37,2.47,2.47,0,0,1-.78,1.85,3.18,3.18,0,0,1-4.1,0,2.52,2.52,0,0,1-.78-1.88,2.26,2.26,0,0,1,.42-1.4A2.18,2.18,0,0,1,397.7,288.21Zm-.55,2.18a1.82,1.82,0,0,0,.22.88,1.47,1.47,0,0,0,.63.65,1.81,1.81,0,0,0,.91.23,1.73,1.73,0,0,0,1.25-.48,1.81,1.81,0,0,0,0-2.5,1.73,1.73,0,0,0-1.27-.5,1.68,1.68,0,0,0-1.72,1.72Zm.34-4a1.33,1.33,0,0,0,.39,1,1.41,1.41,0,0,0,1,.39,1.38,1.38,0,0,0,1-.38,1.28,1.28,0,0,0,.39-.94,1.3,1.3,0,0,0-.4-1,1.49,1.49,0,0,0-2,0A1.24,1.24,0,0,0,397.49,286.43Z"/><path class="cls-5" d="M406.38,292.87v-6.22h.94v.87a2.27,2.27,0,0,1,.78-.73,2.18,2.18,0,0,1,1.11-.28,2,2,0,0,1,1.13.29,1.52,1.52,0,0,1,.63.8,2.22,2.22,0,0,1,1.92-1.09,1.88,1.88,0,0,1,1.42.51,2.16,2.16,0,0,1,.5,1.58v4.27h-1.05V289a2.87,2.87,0,0,0-.1-.91.94.94,0,0,0-.37-.45,1.19,1.19,0,0,0-.63-.17,1.48,1.48,0,0,0-1.09.44,1.93,1.93,0,0,0-.44,1.4v3.61h-1.05v-4a1.76,1.76,0,0,0-.26-1.05,1,1,0,0,0-.84-.36,1.52,1.52,0,0,0-.83.24,1.28,1.28,0,0,0-.54.68,3.71,3.71,0,0,0-.17,1.3v3.23Z"/><path class="cls-5" d="M420,292.87v-5.4H419v-.82H420V286a3,3,0,0,1,.11-.93,1.36,1.36,0,0,1,.54-.67,1.94,1.94,0,0,1,1.08-.25,5.17,5.17,0,0,1,1,.1l-.16.92a3.42,3.42,0,0,0-.62-.06.91.91,0,0,0-.68.21,1.13,1.13,0,0,0-.2.77v.57h1.21v.82H421v5.4Z"/><path class="cls-5" d="M423,292.87v-6.22h1v.94a2.6,2.6,0,0,1,.67-.87,1.19,1.19,0,0,1,.68-.21,2,2,0,0,1,1.08.34l-.36,1a1.55,1.55,0,0,0-.77-.23,1,1,0,0,0-.62.21,1.12,1.12,0,0,0-.4.57,4.42,4.42,0,0,0-.17,1.24v3.25Z"/><path class="cls-5" d="M426.65,289.76a3.22,3.22,0,0,1,1-2.56,2.9,2.9,0,0,1,2-.69,2.78,2.78,0,0,1,2.09.84,3.18,3.18,0,0,1,.82,2.32,4.13,4.13,0,0,1-.36,1.89,2.52,2.52,0,0,1-1.05,1.07,3,3,0,0,1-1.5.38,2.83,2.83,0,0,1-2.12-.83A3.4,3.4,0,0,1,426.65,289.76Zm1.08,0a2.67,2.67,0,0,0,.52,1.79,1.68,1.68,0,0,0,1.32.6,1.64,1.64,0,0,0,1.3-.6,2.71,2.71,0,0,0,.52-1.82,2.56,2.56,0,0,0-.52-1.75,1.65,1.65,0,0,0-1.3-.6,1.7,1.7,0,0,0-1.32.59A2.69,2.69,0,0,0,427.73,289.76Z"/><path class="cls-5" d="M433.71,292.87v-6.22h1v.87a2.21,2.21,0,0,1,1.88-1,2.07,2.07,0,0,1,1.14.29,1.55,1.55,0,0,1,.62.8,2.23,2.23,0,0,1,1.92-1.09,1.91,1.91,0,0,1,1.43.51,2.2,2.2,0,0,1,.5,1.58v4.27h-1V289A2.81,2.81,0,0,0,441,288a.89.89,0,0,0-.37-.45,1.19,1.19,0,0,0-.63-.17,1.48,1.48,0,0,0-1.09.44,1.92,1.92,0,0,0-.43,1.4v3.61h-1.06v-4a1.69,1.69,0,0,0-.26-1.05,1,1,0,0,0-.84-.36,1.48,1.48,0,0,0-.82.24,1.25,1.25,0,0,0-.55.68,4,4,0,0,0-.17,1.3v3.23Z"/><path class="cls-5" d="M285.05,306.51a4,4,0,0,1-1.13.7,3.18,3.18,0,0,1-1.16.2,2.25,2.25,0,0,1-1.58-.5,1.76,1.76,0,0,1-.34-2.11,1.71,1.71,0,0,1,.55-.61,2.33,2.33,0,0,1,.75-.34,6.55,6.55,0,0,1,.94-.16,9.45,9.45,0,0,0,1.88-.37c0-.14,0-.23,0-.27a1.17,1.17,0,0,0-.3-.91,1.76,1.76,0,0,0-1.2-.36,1.9,1.9,0,0,0-1.1.26,1.6,1.6,0,0,0-.52.93l-1-.14a2.52,2.52,0,0,1,.47-1.07,2,2,0,0,1,.93-.63,4.05,4.05,0,0,1,1.41-.22,3.68,3.68,0,0,1,1.3.19,1.68,1.68,0,0,1,.73.47,1.84,1.84,0,0,1,.33.72,6.67,6.67,0,0,1,0,1v1.41a13.75,13.75,0,0,0,.07,1.86,2.26,2.26,0,0,0,.26.74h-1.1A2.18,2.18,0,0,1,285.05,306.51Zm-.09-2.36a7.43,7.43,0,0,1-1.72.4,3.82,3.82,0,0,0-.92.21,1,1,0,0,0-.42.34,1,1,0,0,0-.14.5.9.9,0,0,0,.32.71,1.4,1.4,0,0,0,.93.28,2.18,2.18,0,0,0,1.09-.27,1.67,1.67,0,0,0,.69-.73,2.44,2.44,0,0,0,.17-1Z"/><path class="cls-5" d="M287.66,307.27v-6.22h.95v.89a2.23,2.23,0,0,1,2-1,2.71,2.71,0,0,1,1,.2,1.63,1.63,0,0,1,.7.53,2,2,0,0,1,.33.78,6,6,0,0,1,.06,1v3.82h-1.05v-3.78a2.93,2.93,0,0,0-.13-1,1,1,0,0,0-.43-.51,1.48,1.48,0,0,0-.74-.19,1.72,1.72,0,0,0-1.16.43,2.1,2.1,0,0,0-.49,1.62v3.4Z"/><path class="cls-5" d="M293.94,304.16a3.22,3.22,0,0,1,1-2.56,2.87,2.87,0,0,1,1.95-.69,2.79,2.79,0,0,1,2.1.84,3.22,3.22,0,0,1,.82,2.32,4.12,4.12,0,0,1-.37,1.89,2.55,2.55,0,0,1-1,1.07,3,3,0,0,1-1.51.38,2.82,2.82,0,0,1-2.11-.83A3.35,3.35,0,0,1,293.94,304.16Zm1.09,0a2.62,2.62,0,0,0,.52,1.79,1.73,1.73,0,0,0,2.62,0,2.71,2.71,0,0,0,.52-1.82,2.56,2.56,0,0,0-.52-1.75,1.67,1.67,0,0,0-1.31-.6,1.7,1.7,0,0,0-1.31.59A2.66,2.66,0,0,0,295,304.16Z"/><path class="cls-5" d="M303.31,306.33l.16.93a4.25,4.25,0,0,1-.8.1,1.81,1.81,0,0,1-.89-.19,1.07,1.07,0,0,1-.45-.47,4,4,0,0,1-.13-1.25v-3.58h-.77v-.82h.77v-1.54l1.05-.63v2.17h1.06v.82h-1.06v3.64a1.73,1.73,0,0,0,.06.58.44.44,0,0,0,.18.2.6.6,0,0,0,.36.08A3,3,0,0,0,303.31,306.33Z"/><path class="cls-5" d="M304.35,307.27v-8.59h1v3.09a2.35,2.35,0,0,1,1.86-.86,2.53,2.53,0,0,1,1.2.27,1.58,1.58,0,0,1,.73.76,3.38,3.38,0,0,1,.22,1.39v3.94h-1.05v-3.94a1.66,1.66,0,0,0-.34-1.15,1.29,1.29,0,0,0-1-.36,1.75,1.75,0,0,0-.89.24,1.33,1.33,0,0,0-.58.66,3,3,0,0,0-.18,1.15v3.4Z"/><path class="cls-5" d="M315.28,305.27l1.09.13a2.67,2.67,0,0,1-1,1.49,3.24,3.24,0,0,1-3.94-.32,3.25,3.25,0,0,1-.8-2.36,3.43,3.43,0,0,1,.81-2.43,2.72,2.72,0,0,1,2.09-.87,2.63,2.63,0,0,1,2,.85,3.36,3.36,0,0,1,.79,2.39v.28h-4.64a2.36,2.36,0,0,0,.58,1.57,1.71,1.71,0,0,0,1.3.55,1.56,1.56,0,0,0,1-.31A2,2,0,0,0,315.28,305.27Zm-3.46-1.71h3.47a2.1,2.1,0,0,0-.4-1.17,1.59,1.59,0,0,0-1.3-.61,1.7,1.7,0,0,0-1.23.48A1.91,1.91,0,0,0,311.82,303.56Z"/><path class="cls-5" d="M317.68,307.27v-6.22h.95V302a2.6,2.6,0,0,1,.67-.87,1.19,1.19,0,0,1,.68-.21,2,2,0,0,1,1.08.34l-.36,1a1.55,1.55,0,0,0-.77-.23,1,1,0,0,0-.63.21,1.17,1.17,0,0,0-.39.57,4.09,4.09,0,0,0-.17,1.24v3.25Z"/><path class="cls-5" d="M326,307.27h-1v-8.59h1.05v3.07a2.1,2.1,0,0,1,1.71-.84,2.65,2.65,0,0,1,1.08.23,2.22,2.22,0,0,1,.85.65,3.32,3.32,0,0,1,.52,1,4.38,4.38,0,0,1,.18,1.27,3.54,3.54,0,0,1-.79,2.47,2.47,2.47,0,0,1-1.9.87,2,2,0,0,1-1.72-.92Zm0-3.15a3.23,3.23,0,0,0,.31,1.61,1.5,1.5,0,0,0,2.54.22,2.71,2.71,0,0,0,.51-1.79,2.77,2.77,0,0,0-.49-1.8,1.46,1.46,0,0,0-1.17-.58,1.5,1.5,0,0,0-1.19.6A2.62,2.62,0,0,0,326,304.12Z"/><path class="cls-5" d="M335.78,307.27v-.91a2.3,2.3,0,0,1-2,1.05,2.53,2.53,0,0,1-1-.21,1.66,1.66,0,0,1-.71-.53,2,2,0,0,1-.32-.78,4.66,4.66,0,0,1-.07-1v-3.86h1.06v3.45a6.77,6.77,0,0,0,.06,1.12,1.16,1.16,0,0,0,.42.65,1.31,1.31,0,0,0,.8.24,1.76,1.76,0,0,0,.89-.25,1.3,1.3,0,0,0,.59-.66,3.23,3.23,0,0,0,.17-1.22v-3.33h1.06v6.22Z"/><path class="cls-5" d="M338.38,299.9v-1.22h1.05v1.22Zm0,7.37v-6.22h1.05v6.22Z"/><path class="cls-5" d="M341,307.27v-8.59h1.06v8.59Z"/><path class="cls-5" d="M347.74,307.27v-.78a1.91,1.91,0,0,1-1.74.92,2.4,2.4,0,0,1-1.37-.41,2.72,2.72,0,0,1-1-1.14,4.11,4.11,0,0,1-.34-1.69,4.54,4.54,0,0,1,.31-1.69,2.41,2.41,0,0,1,2.32-1.57,2,2,0,0,1,1,.24,2,2,0,0,1,.72.62v-3.09h1.05v8.59Zm-3.33-3.1a2.66,2.66,0,0,0,.5,1.78,1.51,1.51,0,0,0,1.19.6,1.48,1.48,0,0,0,1.17-.57,2.56,2.56,0,0,0,.49-1.72,3,3,0,0,0-.49-1.88,1.53,1.53,0,0,0-1.22-.6,1.43,1.43,0,0,0-1.17.58A2.78,2.78,0,0,0,344.41,304.17Z"/><path class="cls-5" d="M350.38,299.9v-1.22h1.06v1.22Zm0,7.37v-6.22h1.06v6.22Z"/><path class="cls-5" d="M353,307.27v-6.22H354v.89a2.23,2.23,0,0,1,2-1,2.71,2.71,0,0,1,1,.2,1.63,1.63,0,0,1,.7.53,2,2,0,0,1,.33.78,6,6,0,0,1,.06,1v3.82H357v-3.78a3,3,0,0,0-.12-1,1,1,0,0,0-.44-.51,1.41,1.41,0,0,0-.73-.19,1.72,1.72,0,0,0-1.16.43,2.1,2.1,0,0,0-.49,1.62v3.4Z"/><path class="cls-5" d="M359.52,307.79l1,.15a.93.93,0,0,0,.36.69,1.72,1.72,0,0,0,1.07.3,1.85,1.85,0,0,0,1.13-.3,1.49,1.49,0,0,0,.54-.82,6.7,6.7,0,0,0,.07-1.35,2.16,2.16,0,0,1-1.72.81,2.35,2.35,0,0,1-2-.92,3.57,3.57,0,0,1-.71-2.22,4.26,4.26,0,0,1,.32-1.65,2.59,2.59,0,0,1,.94-1.16,2.56,2.56,0,0,1,1.44-.41,2.23,2.23,0,0,1,1.81.89v-.75h1v5.38a5.06,5.06,0,0,1-.3,2.06,2.23,2.23,0,0,1-.94,1,3.27,3.27,0,0,1-1.58.35,3,3,0,0,1-1.79-.5A1.72,1.72,0,0,1,359.52,307.79Zm.88-3.74a2.74,2.74,0,0,0,.48,1.79,1.61,1.61,0,0,0,2.44,0,3.31,3.31,0,0,0,0-3.48,1.6,1.6,0,0,0-1.23-.58,1.51,1.51,0,0,0-1.19.57A2.55,2.55,0,0,0,360.4,304.05Z"/></g><g id="MTEXT-3" data-name="MTEXT"><path class="cls-5" d="M375.91,107.42l-3.33-8.59h1.23l2.23,6.24c.18.5.33,1,.46,1.41.13-.47.28-.94.46-1.41l2.32-6.24h1.16l-3.36,8.59Z"/><path class="cls-5" d="M384.92,105.42l1.09.13a2.64,2.64,0,0,1-.95,1.48,3.24,3.24,0,0,1-3.95-.31,3.31,3.31,0,0,1-.8-2.36,3.41,3.41,0,0,1,.81-2.43,2.74,2.74,0,0,1,2.1-.87,2.66,2.66,0,0,1,2,.85,3.39,3.39,0,0,1,.79,2.39c0,.06,0,.15,0,.28H381.4a2.38,2.38,0,0,0,.58,1.57,1.74,1.74,0,0,0,1.3.55,1.62,1.62,0,0,0,1-.31A2,2,0,0,0,384.92,105.42Zm-3.46-1.71h3.47a2.09,2.09,0,0,0-.4-1.18,1.61,1.61,0,0,0-1.3-.6,1.67,1.67,0,0,0-1.22.48A1.92,1.92,0,0,0,381.46,103.71Z"/><path class="cls-5" d="M387.32,107.42V101.2h.95v.94a2.74,2.74,0,0,1,.67-.87,1.19,1.19,0,0,1,.68-.21,2,2,0,0,1,1.08.34l-.36,1a1.43,1.43,0,0,0-.77-.23,1,1,0,0,0-.62.21,1.08,1.08,0,0,0-.4.57,4.4,4.4,0,0,0-.17,1.23v3.26Z"/><path class="cls-5" d="M393.63,106.48l.16.93a4.16,4.16,0,0,1-.8.09,1.82,1.82,0,0,1-.89-.18,1,1,0,0,1-.45-.48,4,4,0,0,1-.12-1.24V102h-.78v-.82h.78V99.66l1-.63v2.17h1.06V102h-1.06v3.64a1.73,1.73,0,0,0,.06.58.49.49,0,0,0,.18.2.74.74,0,0,0,.36.08A3,3,0,0,0,393.63,106.48Z"/><path class="cls-5" d="M394.67,100V98.83h1.06V100Zm0,7.38V101.2h1.06v6.22Z"/><path class="cls-5" d="M401.39,105.14l1,.14a2.69,2.69,0,0,1-.87,1.68,2.56,2.56,0,0,1-1.72.6,2.67,2.67,0,0,1-2-.83,3.4,3.4,0,0,1-.78-2.4,4.35,4.35,0,0,1,.33-1.76,2.35,2.35,0,0,1,1-1.13,3,3,0,0,1,1.49-.38,2.58,2.58,0,0,1,1.65.51,2.35,2.35,0,0,1,.83,1.46l-1,.16a1.71,1.71,0,0,0-.51-1,1.35,1.35,0,0,0-.9-.31,1.65,1.65,0,0,0-1.3.57,2.71,2.71,0,0,0-.5,1.8,2.82,2.82,0,0,0,.48,1.83,1.57,1.57,0,0,0,1.26.57,1.44,1.44,0,0,0,1-.39A1.83,1.83,0,0,0,401.39,105.14Z"/><path class="cls-5" d="M407.39,106.65a3.75,3.75,0,0,1-1.13.71,3.36,3.36,0,0,1-1.16.2,2.21,2.21,0,0,1-1.57-.5,1.64,1.64,0,0,1-.56-1.28,1.68,1.68,0,0,1,.21-.83,1.63,1.63,0,0,1,.55-.61,2.53,2.53,0,0,1,.76-.35,8.61,8.61,0,0,1,.93-.15,10.06,10.06,0,0,0,1.88-.37c0-.14,0-.23,0-.27a1.16,1.16,0,0,0-.3-.91,1.76,1.76,0,0,0-1.2-.36,1.9,1.9,0,0,0-1.1.26,1.62,1.62,0,0,0-.52.93l-1-.15a2.41,2.41,0,0,1,.46-1.06,1.88,1.88,0,0,1,.93-.63,4.09,4.09,0,0,1,1.41-.22,3.64,3.64,0,0,1,1.3.19,1.68,1.68,0,0,1,.73.47,1.6,1.6,0,0,1,.33.72,6.67,6.67,0,0,1,.05,1v1.4a13.75,13.75,0,0,0,.07,1.86,2.31,2.31,0,0,0,.26.75h-1.1A2.17,2.17,0,0,1,407.39,106.65Zm-.09-2.35a8,8,0,0,1-1.72.4,3.82,3.82,0,0,0-.92.21.87.87,0,0,0-.41.34.92.92,0,0,0,.17,1.2,1.35,1.35,0,0,0,.93.29,2.18,2.18,0,0,0,1.09-.27,1.62,1.62,0,0,0,.69-.73,2.44,2.44,0,0,0,.17-1Z"/><path class="cls-5" d="M410,107.42V98.83H411v8.59Z"/><path class="cls-5" d="M416,109.81V101.2h1V102a2.21,2.21,0,0,1,.76-.71,2.1,2.1,0,0,1,1-.24,2.51,2.51,0,0,1,1.41.41,2.56,2.56,0,0,1,.92,1.16,4.48,4.48,0,0,1,0,3.35,2.7,2.7,0,0,1-1,1.18,2.57,2.57,0,0,1-1.38.4,2,2,0,0,1-.94-.22,2.26,2.26,0,0,1-.69-.56v3Zm.95-5.46a2.65,2.65,0,0,0,.49,1.77,1.49,1.49,0,0,0,1.17.58,1.54,1.54,0,0,0,1.21-.6,2.85,2.85,0,0,0,.5-1.84,2.7,2.7,0,0,0-.49-1.78,1.48,1.48,0,0,0-1.17-.6,1.51,1.51,0,0,0-1.19.63A2.8,2.8,0,0,0,417,104.35Z"/><path class="cls-5" d="M422.67,107.42V101.2h.95v.94a2.48,2.48,0,0,1,.67-.87,1.16,1.16,0,0,1,.67-.21,2,2,0,0,1,1.09.34l-.36,1a1.46,1.46,0,0,0-.78-.23,1,1,0,0,0-.62.21,1.12,1.12,0,0,0-.39.57,4.06,4.06,0,0,0-.18,1.23v3.26Z"/><path class="cls-5" d="M426.28,104.31a3.2,3.2,0,0,1,1-2.56,2.91,2.91,0,0,1,2-.69,2.79,2.79,0,0,1,2.1.84,3.2,3.2,0,0,1,.81,2.32,4.13,4.13,0,0,1-.36,1.89,2.52,2.52,0,0,1-1.05,1.07,3,3,0,0,1-1.5.38,2.79,2.79,0,0,1-2.11-.84A3.31,3.31,0,0,1,426.28,104.31Zm1.09,0a2.64,2.64,0,0,0,.52,1.79,1.73,1.73,0,0,0,2.62,0,2.71,2.71,0,0,0,.52-1.82,2.56,2.56,0,0,0-.53-1.75,1.65,1.65,0,0,0-1.3-.6,1.68,1.68,0,0,0-1.31.59A2.64,2.64,0,0,0,427.37,104.31Z"/><path class="cls-5" d="M432,109.84l.2-.9a2.31,2.31,0,0,0,.49.08.58.58,0,0,0,.49-.21,2.31,2.31,0,0,0,.15-1.07V101.2h1.06v6.56a3.06,3.06,0,0,1-.3,1.6,1.4,1.4,0,0,1-1.27.59A3.18,3.18,0,0,1,432,109.84Zm1.33-9.78V98.83h1.06v1.23Z"/><path class="cls-5" d="M440.28,105.42l1.08.13a2.64,2.64,0,0,1-.95,1.48,2.83,2.83,0,0,1-1.78.53,2.87,2.87,0,0,1-2.17-.84,3.31,3.31,0,0,1-.8-2.36,3.41,3.41,0,0,1,.81-2.43,2.74,2.74,0,0,1,2.1-.87,2.66,2.66,0,0,1,2,.85,3.35,3.35,0,0,1,.79,2.39c0,.06,0,.15,0,.28h-4.64a2.44,2.44,0,0,0,.58,1.57,1.74,1.74,0,0,0,1.3.55,1.62,1.62,0,0,0,1-.31A2.06,2.06,0,0,0,440.28,105.42Zm-3.47-1.71h3.48a2.17,2.17,0,0,0-.4-1.18,1.63,1.63,0,0,0-1.31-.6,1.69,1.69,0,0,0-1.22.48A2,2,0,0,0,436.81,103.71Z"/><path class="cls-5" d="M446.75,105.14l1,.14a2.79,2.79,0,0,1-.87,1.68,2.56,2.56,0,0,1-1.72.6,2.71,2.71,0,0,1-2.06-.83,3.44,3.44,0,0,1-.77-2.4,4.35,4.35,0,0,1,.33-1.76,2.3,2.3,0,0,1,1-1.13,2.91,2.91,0,0,1,1.48-.38,2.59,2.59,0,0,1,1.66.51,2.35,2.35,0,0,1,.83,1.46l-1,.16a1.72,1.72,0,0,0-.52-1,1.31,1.31,0,0,0-.9-.31,1.63,1.63,0,0,0-1.29.57,2.71,2.71,0,0,0-.5,1.8,2.82,2.82,0,0,0,.48,1.83,1.57,1.57,0,0,0,1.26.57,1.45,1.45,0,0,0,1-.39A1.83,1.83,0,0,0,446.75,105.14Z"/><path class="cls-5" d="M451,106.48l.15.93a4,4,0,0,1-.79.09,1.79,1.79,0,0,1-.89-.18,1,1,0,0,1-.45-.48,3.88,3.88,0,0,1-.13-1.24V102h-.77v-.82h.77V99.66l1.05-.63v2.17H451V102h-1.06v3.64a1.73,1.73,0,0,0,.06.58.38.38,0,0,0,.18.2.69.69,0,0,0,.36.08A3,3,0,0,0,451,106.48Z"/><path class="cls-5" d="M452,100V98.83h1.05V100Zm0,7.38V101.2h1.05v6.22Z"/><path class="cls-5" d="M454.3,104.31a3.2,3.2,0,0,1,1-2.56,2.87,2.87,0,0,1,1.95-.69,2.79,2.79,0,0,1,2.1.84,3.16,3.16,0,0,1,.82,2.32,4.13,4.13,0,0,1-.36,1.89,2.52,2.52,0,0,1-1,1.07,3,3,0,0,1-1.51.38,2.79,2.79,0,0,1-2.11-.84A3.35,3.35,0,0,1,454.3,104.31Zm1.08,0a2.64,2.64,0,0,0,.52,1.79,1.73,1.73,0,0,0,2.62,0,2.71,2.71,0,0,0,.52-1.82,2.56,2.56,0,0,0-.52-1.75,1.67,1.67,0,0,0-1.31-.6,1.7,1.7,0,0,0-1.31.59A2.64,2.64,0,0,0,455.38,104.31Z"/><path class="cls-5" d="M461.36,107.42V101.2h.95v.88a2.25,2.25,0,0,1,2-1,2.71,2.71,0,0,1,1,.2,1.63,1.63,0,0,1,.7.53,2,2,0,0,1,.33.78,6,6,0,0,1,.06,1v3.82h-1.06v-3.78a3,3,0,0,0-.12-1,1.06,1.06,0,0,0-.43-.51,1.48,1.48,0,0,0-.74-.19,1.72,1.72,0,0,0-1.16.43,2.1,2.1,0,0,0-.49,1.62v3.4Z"/><path class="cls-5" d="M372.93,118.71a3.2,3.2,0,0,1,1-2.56,2.9,2.9,0,0,1,2-.69,2.78,2.78,0,0,1,2.09.84,3.16,3.16,0,0,1,.82,2.32,4.13,4.13,0,0,1-.36,1.89,2.52,2.52,0,0,1-1,1.07,3,3,0,0,1-1.5.38,2.8,2.8,0,0,1-2.12-.84A3.35,3.35,0,0,1,372.93,118.71Zm1.08,0a2.69,2.69,0,0,0,.52,1.79,1.68,1.68,0,0,0,1.32.6,1.65,1.65,0,0,0,1.3-.6,2.71,2.71,0,0,0,.52-1.82,2.56,2.56,0,0,0-.52-1.75,1.67,1.67,0,0,0-1.3-.6,1.7,1.7,0,0,0-1.32.59A2.69,2.69,0,0,0,374,118.71Z"/><path class="cls-5" d="M380.25,121.82v-5.4h-.94v-.82h.94v-.66a2.72,2.72,0,0,1,.11-.93,1.34,1.34,0,0,1,.53-.67,2,2,0,0,1,1.08-.25,5.09,5.09,0,0,1,1,.1l-.16.92a3.34,3.34,0,0,0-.62-.06.92.92,0,0,0-.68.21,1.1,1.1,0,0,0-.2.76v.58h1.22v.82h-1.22v5.4Z"/><path class="cls-5" d="M387.81,121.82l-1.9-6.22H387l1,3.59.37,1.34c0-.07.12-.5.32-1.29l1-3.64h1.08l.93,3.61.31,1.19.36-1.2,1.07-3.6h1l-1.94,6.22h-1.1l-1-3.72-.24-1.07-1.26,4.79Z"/><path class="cls-5" d="M399.39,121.05a3.88,3.88,0,0,1-1.13.71,3.41,3.41,0,0,1-1.16.2,2.24,2.24,0,0,1-1.58-.5,1.64,1.64,0,0,1-.55-1.28,1.77,1.77,0,0,1,.75-1.44,2.78,2.78,0,0,1,.76-.35,8.89,8.89,0,0,1,.94-.15,10.24,10.24,0,0,0,1.88-.37c0-.14,0-.23,0-.27a1.16,1.16,0,0,0-.3-.91,1.76,1.76,0,0,0-1.2-.36,1.87,1.87,0,0,0-1.1.26,1.63,1.63,0,0,0-.53.92l-1-.14a2.66,2.66,0,0,1,.46-1.06,2,2,0,0,1,.94-.63,4,4,0,0,1,1.41-.22,3.58,3.58,0,0,1,1.29.19,1.66,1.66,0,0,1,.74.47,1.7,1.7,0,0,1,.32.72,5.12,5.12,0,0,1,.06,1v1.4a16.75,16.75,0,0,0,.06,1.86,2.6,2.6,0,0,0,.27.75h-1.1A2.17,2.17,0,0,1,399.39,121.05Zm-.09-2.35a8.14,8.14,0,0,1-1.72.4,3.7,3.7,0,0,0-.92.21,1,1,0,0,0-.42.34,1,1,0,0,0,.17,1.2,1.39,1.39,0,0,0,.94.29,2.11,2.11,0,0,0,1.08-.27,1.64,1.64,0,0,0,.7-.73,2.6,2.6,0,0,0,.17-1Z"/><path class="cls-5" d="M402,121.82v-8.59h1v8.59Z"/><path class="cls-5" d="M404.64,121.82v-8.59h1.06v8.59Z"/></g></g><g id="LINE_18" data-name="LINE 18"><g id="LEADER"><polyline class="cls-6" points="269.85 130.85 269.85 37.12 276.38 37.12"/></g><polyline class="cls-6" points="218.99 228.16 266.29 288.9 276.38 288.9"/><polygon class="cls-5" points="217.92 231.51 213.55 221.17 222.5 227.94 217.92 231.51"/><polyline class="cls-6" points="331.77 140.24 359.43 103.5 369.4 103.5"/><polygon class="cls-5" points="335.28 140.41 326.44 147.32 330.64 136.91 335.28 140.41"/><g id="LINE"><line class="cls-7" x1="144.71" y1="54.2" x2="213.43" y2="96.91"/></g><g id="LINE-2" data-name="LINE"><line class="cls-7" x1="75.99" y1="96.91" x2="144.71" y2="54.2"/></g><g id="LINE-3" data-name="LINE"><line class="cls-7" x1="463.71" y1="178.65" x2="394.99" y2="151.28"/></g><g id="LINE-4" data-name="LINE"><line class="cls-7" x1="326.27" y1="178.65" x2="394.99" y2="151.28"/></g><g id="LINE-5" data-name="LINE"><line class="cls-7" x1="326.27" y1="178.65" x2="463.71" y2="178.65"/></g><g id="LINE-6" data-name="LINE"><line class="cls-7" x1="326.27" y1="178.65" x2="326.27" y2="265.35"/></g><g id="LINE-7" data-name="LINE"><line class="cls-7" x1="204.66" y1="265.35" x2="204.66" y2="96.91"/></g><g id="LINE-8" data-name="LINE"><line class="cls-7" x1="213.43" y1="265.35" x2="213.43" y2="96.91"/></g><g id="LINE-9" data-name="LINE"><line class="cls-7" x1="75.99" y1="96.91" x2="75.99" y2="265.35"/></g><g id="LINE-10" data-name="LINE"><line class="cls-7" x1="463.71" y1="178.65" x2="463.71" y2="265.35"/></g><g id="LINE-11" data-name="LINE"><line class="cls-7" x1="213.43" y1="96.91" x2="75.99" y2="96.91"/></g><g id="LINE-12" data-name="LINE"><line class="cls-7" x1="28.35" y1="265.35" x2="524.41" y2="265.35"/></g><g id="LINE-13" data-name="LINE"><line class="cls-7" x1="335.21" y1="265.35" x2="335.21" y2="178.65"/></g><g id="LINE-14" data-name="LINE"><line class="cls-6" x1="317.41" y1="130.85" x2="222.41" y2="130.85"/><polygon class="cls-5" points="315.43 127.95 326.27 130.85 315.43 133.76 315.43 127.95"/><polygon class="cls-5" points="224.39 127.95 213.55 130.85 224.39 133.76 224.39 127.95"/></g></g><g id="LINE_18_dashed"><g id="LINE-15" data-name="LINE"><g id="LINE-16" data-name="LINE"><line class="cls-7" x1="213.43" y1="96.91" x2="219.43" y2="96.91"/><line class="cls-8" x1="230.64" y1="96.91" x2="314.67" y2="96.91"/><line class="cls-7" x1="320.27" y1="96.91" x2="326.27" y2="96.91"/></g></g><g id="LINE-17" data-name="LINE"><g id="LINE-18" data-name="LINE"><line class="cls-7" x1="326.27" y1="178.65" x2="326.27" y2="172.65"/><line class="cls-9" x1="326.27" y1="158.71" x2="326.27" y2="109.88"/><line class="cls-7" x1="326.27" y1="102.91" x2="326.27" y2="96.91"/></g></g></g></svg>