<?xml version="1.0" encoding="utf-8"?>
<!-- Generator: Adobe Illustrator 25.2.1, SVG Export Plug-In . SVG Version: 6.00 Build 0)  -->
<svg version="1.1" id="_x30_" xmlns="http://www.w3.org/2000/svg" xmlns:xlink="http://www.w3.org/1999/xlink" x="0px" y="0px"
	 viewBox="0 0 552.8 437.3" style="enable-background:new 0 0 552.8 437.3;" xml:space="preserve">
<style type="text/css">
	.st0{fill-rule:evenodd;clip-rule:evenodd;fill:none;}
	.st1{clip-path:url(#SVGID_2_);fill:none;stroke:#211F1F;stroke-width:0.5;stroke-linejoin:round;}
	.st2{fill:none;stroke:#1D1D1B;stroke-width:0.25;stroke-miterlimit:10;}
	.st3{fill:#1D1D1B;}
	.st4{font-family:'ArialMT';}
	.st5{font-size:12px;}
	.st6{fill:none;stroke:#231F20;stroke-width:0.5;stroke-miterlimit:10;}
	.st7{fill:none;stroke:#231F20;stroke-width:0.5;stroke-miterlimit:10;stroke-dasharray:25.451,11.1985;}
	.st8{fill:none;stroke:#231F20;stroke-width:0.5;stroke-miterlimit:10;stroke-dasharray:5.0902,11.1985,25.451,11.1985;}
	.st9{fill:none;stroke:#1D1D1B;stroke-miterlimit:10;}
	.st10{fill:#231F20;}
	.st11{fill:none;stroke:#231F20;stroke-miterlimit:10;}
	.st12{fill:none;stroke:#231F20;stroke-miterlimit:10;stroke-dasharray:11.4491,11.4396,0,0;}
	.st13{fill:none;stroke:#231F20;stroke-miterlimit:10;stroke-dasharray:1.016700e-02,0;}
	.st14{fill:none;stroke:#231F20;stroke-miterlimit:10;stroke-dasharray:12.2004,12.1902,1.016700e-02,0;}
	.st15{fill:none;stroke:#231F20;stroke-miterlimit:10;stroke-dasharray:1.005200e-02,0;}
	.st16{fill:none;stroke:#231F20;stroke-miterlimit:10;stroke-dasharray:12.0629,12.0529,1.005200e-02,0;}
	.st17{fill:none;stroke:#231F20;stroke-miterlimit:10;stroke-dasharray:12.063,12.0529,1.005200e-02,0;}
	.st18{fill:none;}
	.st19{fill:url(#SVGID_3_);stroke:#231F20;stroke-miterlimit:10;}
</style>
<pattern  y="657.3" width="72" height="72" patternUnits="userSpaceOnUse" id="diagonal_cross_hatch_2" viewBox="6.2 -86.2 72 72" style="overflow:visible;">
	<g>
		<rect x="6.2" y="-86.2" class="st0" width="72" height="72"/>
		<g>
			<defs>
				<rect id="SVGID_1_" x="6.2" y="-86.2" width="72" height="72"/>
			</defs>
			<clipPath id="SVGID_2_">
				<use xlink:href="#SVGID_1_"  style="overflow:visible;"/>
			</clipPath>
			<line class="st1" x1="0.2" y1="-74.2" x2="18.2" y2="-92.2"/>
			<line class="st1" x1="0.2" y1="-68.2" x2="24.2" y2="-92.2"/>
			<line class="st1" x1="0.2" y1="-62.2" x2="30.2" y2="-92.2"/>
			<line class="st1" x1="0.2" y1="-56.2" x2="36.2" y2="-92.2"/>
			<line class="st1" x1="0.2" y1="-50.2" x2="42.2" y2="-92.2"/>
			<line class="st1" x1="0.2" y1="-44.2" x2="48.2" y2="-92.2"/>
			<line class="st1" x1="0.2" y1="-38.2" x2="54.2" y2="-92.2"/>
			<line class="st1" x1="0.2" y1="-32.2" x2="60.2" y2="-92.2"/>
			<line class="st1" x1="0.2" y1="-26.2" x2="66.2" y2="-92.2"/>
			<line class="st1" x1="0.2" y1="-20.2" x2="72.2" y2="-92.2"/>
			<line class="st1" x1="0.2" y1="-14.2" x2="78.2" y2="-92.2"/>
			<line class="st1" x1="0.2" y1="-8.2" x2="84.2" y2="-92.2"/>
			<line class="st1" x1="6.2" y1="-8.2" x2="84.2" y2="-86.2"/>
			<line class="st1" x1="12.2" y1="-8.2" x2="84.2" y2="-80.2"/>
			<line class="st1" x1="18.2" y1="-8.2" x2="84.2" y2="-74.2"/>
			<line class="st1" x1="24.2" y1="-8.2" x2="84.2" y2="-68.2"/>
			<line class="st1" x1="30.2" y1="-8.2" x2="84.2" y2="-62.2"/>
			<line class="st1" x1="36.2" y1="-8.2" x2="84.2" y2="-56.2"/>
			<line class="st1" x1="42.2" y1="-8.2" x2="84.2" y2="-50.2"/>
			<line class="st1" x1="48.2" y1="-8.2" x2="84.2" y2="-44.2"/>
			<line class="st1" x1="54.2" y1="-8.2" x2="84.2" y2="-38.2"/>
			<line class="st1" x1="52.2" y1="-0.2" x2="94.2" y2="-42.2"/>
			<line class="st1" x1="58.2" y1="-0.2" x2="94.2" y2="-36.2"/>
			<line class="st1" x1="64.2" y1="-0.2" x2="94.2" y2="-30.2"/>
		</g>
	</g>
</pattern>
<g>
	<g>
		<polyline class="st2" points="381.1,47 345,24.3 317.1,24.3 		"/>
		<g>
			<polygon class="st3" points="380.9,43.5 388.5,51.8 377.8,48.4 			"/>
		</g>
	</g>
</g>
<text transform="matrix(1 0 0 1 194.4237 27.9684)" class="st3 st4 st5">Not less than 900 mm </text>
<text transform="matrix(1 0 0 1 243.9035 403.5927)" class="st3 st4 st5">Less than 900 mm </text>
<g>
	<g>
		<polyline class="st2" points="410.9,381.7 402.2,398.7 346.3,399 		"/>
		<g>
			<polygon class="st3" points="407.4,382.1 414.9,373.8 412.6,384.8 			"/>
		</g>
	</g>
</g>
<g id="LINE_33_">
	<g>
		<g>
			<g>
				<line class="st6" x1="425.5" y1="433.3" x2="425.5" y2="430"/>
				<line class="st7" x1="425.5" y1="415.1" x2="425.5" y2="373.8"/>
				<line class="st8" x1="425.5" y1="366.3" x2="425.5" y2="21.5"/>
				<line class="st6" x1="425.5" y1="14" x2="425.5" y2="10.7"/>
			</g>
		</g>
	</g>
</g>
<g>
	<path class="st9" d="M347,100.8"/>
	<text transform="matrix(1 0 0 1 211.2554 118.6146)" class="st10 st4 st5">1</text>
	<g id="POLYLINE_2_">
		<g>
			<rect x="82.2" y="43.3" class="st11" width="264.9" height="211.6"/>
		</g>
	</g>
	<g id="LINE">
		<g id="LINE_17_">
			<g>
				<g>
					<g>
						<line class="st11" x1="154.2" y1="149.1" x2="159.5" y2="149.1"/>
						<line class="st11" x1="169.5" y1="149.1" x2="169.5" y2="149.1"/>
						<line class="st12" x1="169.5" y1="149.1" x2="269.7" y2="149.1"/>
						<line class="st11" x1="269.7" y1="149.1" x2="275" y2="149.1"/>
					</g>
				</g>
			</g>
		</g>
	</g>
	<g id="LINE_1_">
		<g id="LINE_16_">
			<g>
				<g>
					<g>
						<line class="st11" x1="154.2" y1="149.1" x2="151.3" y2="144.7"/>
						<line class="st13" x1="145.2" y1="135.9" x2="145.2" y2="135.9"/>
						<line class="st14" x1="145.2" y1="135.9" x2="85.1" y2="47.6"/>
						<line class="st11" x1="85.1" y1="47.6" x2="82.2" y2="43.3"/>
					</g>
				</g>
			</g>
		</g>
	</g>
	<g id="LINE_2_">
		<g id="LINE_15_">
			<g>
				<g>
					<g>
						<line class="st11" x1="154.2" y1="149.1" x2="151.3" y2="153.4"/>
						<line class="st15" x1="145.3" y1="162.2" x2="145.3" y2="162.2"/>
						<line class="st16" x1="145.3" y1="162.2" x2="86.1" y2="249.6"/>
						<line class="st11" x1="86.1" y1="249.6" x2="83.2" y2="254"/>
					</g>
				</g>
			</g>
		</g>
	</g>
	<g id="LINE_3_">
		<g id="LINE_14_">
			<g>
				<g>
					<g>
						<line class="st11" x1="275" y1="149.1" x2="277.9" y2="144.7"/>
						<line class="st13" x1="283.9" y1="135.9" x2="283.9" y2="135.9"/>
						<line class="st14" x1="283.9" y1="135.9" x2="344.1" y2="47.6"/>
						<line class="st11" x1="344.1" y1="47.6" x2="347" y2="43.3"/>
					</g>
				</g>
			</g>
		</g>
	</g>
	<g id="LINE_4_">
		<g id="LINE_13_">
			<g>
				<g>
					<g>
						<line class="st11" x1="275" y1="149.1" x2="277.9" y2="153.4"/>
						<line class="st15" x1="283.8" y1="162.2" x2="283.8" y2="162.2"/>
						<line class="st17" x1="283.8" y1="162.2" x2="343.1" y2="249.6"/>
						<line class="st11" x1="343.1" y1="249.6" x2="346" y2="254"/>
					</g>
				</g>
			</g>
		</g>
	</g>
</g>
<g id="MTEXT">
	<g>
		<text transform="matrix(1 0 0 1 320.5472 323.9271)" class="st10 st4 st5">10a</text>
	</g>
</g>
<g id="LINE_7_">
	<g>
		<line class="st11" x1="270.8" y1="254.9" x2="388.5" y2="254.9"/>
	</g>
</g>
<g id="LINE_8_">
	<g>
		<line class="st11" x1="402.2" y1="378.2" x2="402.2" y2="254.9"/>
	</g>
</g>
<g id="LINE_9_">
	<g>
		<line class="st11" x1="388.5" y1="254.9" x2="402.2" y2="254.9"/>
	</g>
</g>
<g id="LINE_10_">
	<g>
		<polyline class="st11" points="402.2,254.9 270.8,254.9 270.8,378.2 402.2,378.2 		"/>
	</g>
</g>
<rect x="122.1" y="279" class="st18" width="94.8" height="33.7"/>
<text transform="matrix(1 0 0 1 122.1004 287.5517)"><tspan x="0" y="0" class="st4 st5">Wall with a FRL </tspan><tspan x="0" y="14" class="st4 st5">of 60/60/60</tspan></text>
<rect x="459" y="224.7" class="st18" width="59.6" height="37"/>
<text transform="matrix(1 0 0 1 459.0496 233.2809)"><tspan x="0" y="0" class="st4 st5">Allotment </tspan><tspan x="0" y="14" class="st4 st5">boundary</tspan></text>
<pattern  id="SVGID_3_" xlink:href="#diagonal_cross_hatch_2" patternTransform="matrix(0.9348 0 0 1.1513 -421.8828 1252.3196)">
</pattern>
<rect x="270.8" y="239.8" class="st19" width="76.2" height="15.1"/>
<g>
	<g>
		<line class="st2" x1="261.8" y1="253.6" x2="207.4" y2="281.3"/>
		<g>
			<polygon class="st3" points="258.7,251.9 269.7,249.6 261.4,257.1 			"/>
		</g>
	</g>
</g>
<g>
	<g>
		<line class="st2" x1="456.3" y1="231.1" x2="435.1" y2="231.1"/>
		<g>
			<polygon class="st3" points="437.1,228.2 426.2,231.1 437.1,234 			"/>
		</g>
	</g>
</g>
</svg>
