<?xml version="1.0" encoding="utf-8"?>
<!-- Generator: Adobe Illustrator 25.2.1, SVG Export Plug-In . SVG Version: 6.00 Build 0)  -->
<svg version="1.1" id="_x30_" xmlns="http://www.w3.org/2000/svg" xmlns:xlink="http://www.w3.org/1999/xlink" x="0px" y="0px"
	 viewBox="0 0 552.8 224.1" style="enable-background:new 0 0 552.8 224.1;" xml:space="preserve">
<style type="text/css">
	.st0{fill:#231F20;}
	.st1{font-family:'ArialMT';}
	.st2{font-size:12px;}
	.st3{fill:none;stroke:#231F20;stroke-width:0.25;stroke-miterlimit:10;}
	.st4{fill:none;stroke:#231F20;stroke-linecap:round;stroke-miterlimit:10;}
	.st5{fill:none;stroke:#231F20;stroke-miterlimit:10;}
	.st6{fill:none;stroke:#231F20;stroke-linecap:round;stroke-miterlimit:10;stroke-dasharray:12.4384,12.4384;}
	.st7{fill:none;stroke:#231F20;stroke-linecap:round;stroke-miterlimit:10;stroke-dasharray:13.3274,13.3274;}
	.st8{fill:none;stroke:#231F20;stroke-linecap:round;stroke-miterlimit:10;stroke-dasharray:13.1649,13.1649;}
	.st9{fill:none;stroke:#231F20;stroke-linecap:round;stroke-miterlimit:10;stroke-dasharray:13.3273,13.3273;}
	.st10{fill:none;stroke:#231F20;stroke-miterlimit:10;stroke-dasharray:14.0993,14.0993;}
	.st11{fill:none;stroke:#231F20;stroke-miterlimit:10;stroke-dasharray:10.4719,10.4719;}
	.st12{fill:none;stroke:#231F20;stroke-miterlimit:10;stroke-dasharray:10.472,10.472;}
</style>
<g id="MTEXT">
	<g>
		<text transform="matrix(1 0 0 1 215.4526 92.252)" class="st0 st1 st2">10a</text>
	</g>
</g>
<g id="MTEXT_3_">
	<g>
		<text transform="matrix(1 0 0 1 106.4457 65.2503)" class="st0 st1 st2">1</text>
	</g>
</g>
<g id="MTEXT_1_">
	<g>
		<text transform="matrix(1 0 0 1 123.5294 186.0991)" class="st0 st1 st2">Not less than 1.8 m</text>
	</g>
</g>
<g id="MTEXT_2_">
	<g>
		<text transform="matrix(1 0 0 1 344.4053 77.6578)" class="st0 st1 st2">10a</text>
	</g>
</g>
<g id="MTEXT_7_">
	<g>
		<text transform="matrix(1 0 0 1 453.4122 57.6565)" class="st0 st1 st2">1</text>
	</g>
</g>
<g id="POLYLINE">
	<g>
		<g>
			<g>
				<g>
					<polyline class="st3" points="287.8,116.5 270.8,183.1 232.2,183.1 					"/>
					<g>
						<polygon class="st0" points="284.5,117.7 289.9,107.9 290.1,119.1 						"/>
					</g>
				</g>
			</g>
		</g>
	</g>
</g>
<g>
	<g id="POLYLINE_2_">
		<g>
			<rect x="28.3" y="28.7" class="st4" width="162.7" height="130"/>
		</g>
	</g>
	<g id="LINE_10_">
		<g>
			<line class="st4" x1="261.3" y1="124.1" x2="261.3" y2="50.4"/>
		</g>
	</g>
	<g id="LINE_11_">
		<g>
			<line class="st4" x1="191.1" y1="50.4" x2="261.3" y2="50.4"/>
		</g>
	</g>
	<g id="LINE_12_">
		<g>
			<line class="st4" x1="191.1" y1="124.1" x2="261.3" y2="124.1"/>
		</g>
	</g>
</g>
<g>
	<g id="LINE_13_">
		<g>
			<line class="st5" x1="318.6" y1="109.5" x2="318.6" y2="35.9"/>
		</g>
	</g>
	<g id="LINE_14_">
		<g>
			<line class="st5" x1="388.9" y1="35.9" x2="318.6" y2="35.9"/>
		</g>
	</g>
	<g id="LINE_15_">
		<g>
			<line class="st5" x1="388.9" y1="109.5" x2="318.6" y2="109.5"/>
		</g>
	</g>
	<g id="LINE_16_">
		<g>
			<line class="st5" x1="388.9" y1="28.7" x2="524.4" y2="28.7"/>
		</g>
	</g>
	<g id="LINE_17_">
		<g>
			<line class="st5" x1="524.4" y1="28.7" x2="524.4" y2="128.5"/>
		</g>
	</g>
	<g id="LINE_18_">
		<g>
			<line class="st5" x1="524.4" y1="128.5" x2="388.9" y2="128.5"/>
		</g>
	</g>
	<g id="LINE_19_">
		<g>
			<line class="st5" x1="388.9" y1="128.5" x2="388.9" y2="28.7"/>
		</g>
	</g>
</g>
<g>
	<g id="LINE">
		<g id="LINE_28_">
			<g>
				<g>
					<g>
						<line class="st4" x1="72.6" y1="93.7" x2="78.6" y2="93.7"/>
						<line class="st6" x1="91.1" y1="93.7" x2="134.6" y2="93.7"/>
						<line class="st4" x1="140.8" y1="93.7" x2="146.8" y2="93.7"/>
					</g>
				</g>
			</g>
		</g>
	</g>
	<g id="LINE_1_">
		<g id="LINE_27_">
			<g>
				<g>
					<g>
						<line class="st4" x1="72.6" y1="93.7" x2="69.2" y2="88.7"/>
						<line class="st7" x1="61.7" y1="77.7" x2="35.5" y2="39.1"/>
						<line class="st4" x1="31.7" y1="33.6" x2="28.3" y2="28.7"/>
					</g>
				</g>
			</g>
		</g>
	</g>
	<g id="LINE_2_">
		<g id="LINE_26_">
			<g>
				<g>
					<g>
						<line class="st4" x1="72.6" y1="93.7" x2="69.2" y2="98.6"/>
						<line class="st8" x1="61.9" y1="109.5" x2="36" y2="147.7"/>
						<line class="st4" x1="32.3" y1="153.1" x2="29" y2="158.1"/>
					</g>
				</g>
			</g>
		</g>
	</g>
	<g id="LINE_3_">
		<g id="LINE_25_">
			<g>
				<g>
					<g>
						<line class="st4" x1="146.8" y1="93.7" x2="150.2" y2="88.7"/>
						<line class="st9" x1="157.7" y1="77.7" x2="183.9" y2="39.1"/>
						<line class="st4" x1="187.7" y1="33.6" x2="191.1" y2="28.7"/>
					</g>
				</g>
			</g>
		</g>
	</g>
	<g id="LINE_4_">
		<g id="LINE_24_">
			<g>
				<g>
					<g>
						<line class="st4" x1="146.8" y1="93.7" x2="150.2" y2="98.6"/>
						<line class="st8" x1="157.6" y1="109.5" x2="183.4" y2="147.7"/>
						<line class="st4" x1="187.1" y1="153.1" x2="190.4" y2="158.1"/>
					</g>
				</g>
			</g>
		</g>
	</g>
</g>
<g>
	<g id="LINE_5_">
		<g id="LINE_40_">
			<g>
				<g>
					<g>
						<line class="st5" x1="483.8" y1="78.6" x2="477.8" y2="78.6"/>
						<line class="st10" x1="463.7" y1="78.6" x2="442.5" y2="78.6"/>
						<line class="st5" x1="435.5" y1="78.6" x2="429.5" y2="78.6"/>
					</g>
				</g>
			</g>
		</g>
	</g>
	<g id="LINE_6_">
		<g id="LINE_39_">
			<g>
				<g>
					<g>
						<line class="st5" x1="524.4" y1="28.7" x2="520.6" y2="33.3"/>
						<line class="st11" x1="514" y1="41.4" x2="490.9" y2="69.9"/>
						<line class="st5" x1="487.6" y1="73.9" x2="483.8" y2="78.6"/>
					</g>
				</g>
			</g>
		</g>
	</g>
	<g id="LINE_7_">
		<g id="LINE_38_">
			<g>
				<g>
					<g>
						<line class="st5" x1="483.8" y1="78.6" x2="487.6" y2="83.2"/>
						<line class="st11" x1="494.2" y1="91.4" x2="517.3" y2="119.8"/>
						<line class="st5" x1="520.6" y1="123.8" x2="524.4" y2="128.5"/>
					</g>
				</g>
			</g>
		</g>
	</g>
	<g id="LINE_8_">
		<g id="LINE_37_">
			<g>
				<g>
					<g>
						<line class="st5" x1="388.9" y1="28.7" x2="392.6" y2="33.3"/>
						<line class="st12" x1="399.3" y1="41.4" x2="422.4" y2="69.9"/>
						<line class="st5" x1="425.7" y1="73.9" x2="429.5" y2="78.6"/>
					</g>
				</g>
			</g>
		</g>
	</g>
	<g id="LINE_9_">
		<g id="LINE_36_">
			<g>
				<g>
					<g>
						<line class="st5" x1="429.5" y1="78.6" x2="425.7" y2="83.2"/>
						<line class="st12" x1="419.1" y1="91.4" x2="395.9" y2="119.8"/>
						<line class="st5" x1="392.6" y1="123.8" x2="388.9" y2="128.5"/>
					</g>
				</g>
			</g>
		</g>
	</g>
</g>
</svg>
