<svg id="_0" data-name="0" xmlns="http://www.w3.org/2000/svg" xmlns:xlink="http://www.w3.org/1999/xlink" viewBox="0 0 493.94 303.39"><defs><style>.cls-1,.cls-12,.cls-3,.cls-7,.cls-8,.cls-9{fill:none;}.cls-2{clip-path:url(#clip-path);}.cls-3{stroke:#221f1f;stroke-linejoin:round;stroke-width:0.5px;}.cls-4{fill-rule:evenodd;fill:url(#diagonal_cross_hatch);}.cls-5{fill:url(#diagonal_cross_hatch-3);}.cls-6{fill:url(#diagonal_cross_hatch-5);}.cls-12,.cls-7,.cls-8,.cls-9{stroke:#231f20;stroke-miterlimit:10;}.cls-7,.cls-8{stroke-width:0.75px;}.cls-7{stroke-dasharray:12 6;}.cls-12,.cls-8{stroke-linecap:round;}.cls-9{stroke-width:0.25px;}.cls-10,.cls-11{fill:#231f20;}.cls-11{font-size:12px;font-family:ArialMT, Arial;}</style><clipPath id="clip-path"><rect class="cls-1" width="72" height="72"/></clipPath><pattern id="diagonal_cross_hatch" data-name="diagonal cross hatch" width="72" height="72" patternTransform="translate(296.4 -136.53)" patternUnits="userSpaceOnUse" viewBox="0 0 72 72"><rect class="cls-1" width="72" height="72"/><g class="cls-2"><line class="cls-3" x1="-6" y1="12" x2="12" y2="-6"/><line class="cls-3" x1="-6" y1="18" x2="18" y2="-6"/><line class="cls-3" x1="-6" y1="24" x2="24" y2="-6"/><line class="cls-3" x1="-6" y1="30" x2="30" y2="-6"/><line class="cls-3" x1="-6" y1="36" x2="36" y2="-6"/><line class="cls-3" x1="-6" y1="42" x2="42" y2="-6"/><line class="cls-3" x1="-6" y1="48" x2="48" y2="-6"/><line class="cls-3" x1="-6" y1="54" x2="54" y2="-6"/><line class="cls-3" x1="-6" y1="60" x2="60" y2="-6"/><line class="cls-3" x1="-6" y1="66" x2="66" y2="-6"/><line class="cls-3" x1="-6" y1="72" x2="72" y2="-6"/><line class="cls-3" x1="-6" y1="78" x2="78" y2="-6"/><line class="cls-3" y1="78" x2="78"/><line class="cls-3" x1="6" y1="78" x2="78" y2="6"/><line class="cls-3" x1="12" y1="78" x2="78" y2="12"/><line class="cls-3" x1="18" y1="78" x2="78" y2="18"/><line class="cls-3" x1="24" y1="78" x2="78" y2="24"/><line class="cls-3" x1="30" y1="78" x2="78" y2="30"/><line class="cls-3" x1="36" y1="78" x2="78" y2="36"/><line class="cls-3" x1="42" y1="78" x2="78" y2="42"/><line class="cls-3" x1="48" y1="78" x2="78" y2="48"/><line class="cls-3" x1="46" y1="86" x2="88" y2="44"/><line class="cls-3" x1="52" y1="86" x2="88" y2="50"/><line class="cls-3" x1="58" y1="86" x2="88" y2="56"/></g></pattern><pattern id="diagonal_cross_hatch-3" data-name="diagonal cross hatch" width="72" height="72" patternTransform="translate(387.24 -58.5) scale(1 0.99)" patternUnits="userSpaceOnUse" viewBox="0 0 72 72"><rect class="cls-1" width="72" height="72"/><g class="cls-2"><line class="cls-3" x1="-6" y1="12" x2="12" y2="-6"/><line class="cls-3" x1="-6" y1="18" x2="18" y2="-6"/><line class="cls-3" x1="-6" y1="24" x2="24" y2="-6"/><line class="cls-3" x1="-6" y1="30" x2="30" y2="-6"/><line class="cls-3" x1="-6" y1="36" x2="36" y2="-6"/><line class="cls-3" x1="-6" y1="42" x2="42" y2="-6"/><line class="cls-3" x1="-6" y1="48" x2="48" y2="-6"/><line class="cls-3" x1="-6" y1="54" x2="54" y2="-6"/><line class="cls-3" x1="-6" y1="60" x2="60" y2="-6"/><line class="cls-3" x1="-6" y1="66" x2="66" y2="-6"/><line class="cls-3" x1="-6" y1="72" x2="72" y2="-6"/><line class="cls-3" x1="-6" y1="78" x2="78" y2="-6"/><line class="cls-3" y1="78" x2="78"/><line class="cls-3" x1="6" y1="78" x2="78" y2="6"/><line class="cls-3" x1="12" y1="78" x2="78" y2="12"/><line class="cls-3" x1="18" y1="78" x2="78" y2="18"/><line class="cls-3" x1="24" y1="78" x2="78" y2="24"/><line class="cls-3" x1="30" y1="78" x2="78" y2="30"/><line class="cls-3" x1="36" y1="78" x2="78" y2="36"/><line class="cls-3" x1="42" y1="78" x2="78" y2="42"/><line class="cls-3" x1="48" y1="78" x2="78" y2="48"/><line class="cls-3" x1="46" y1="86" x2="88" y2="44"/><line class="cls-3" x1="52" y1="86" x2="88" y2="50"/><line class="cls-3" x1="58" y1="86" x2="88" y2="56"/></g></pattern><pattern id="diagonal_cross_hatch-5" data-name="diagonal cross hatch" width="72" height="72" patternTransform="translate(385.02 -87.1)" patternUnits="userSpaceOnUse" viewBox="0 0 72 72"><rect class="cls-1" width="72" height="72"/><g class="cls-2"><line class="cls-3" x1="-6" y1="12" x2="12" y2="-6"/><line class="cls-3" x1="-6" y1="18" x2="18" y2="-6"/><line class="cls-3" x1="-6" y1="24" x2="24" y2="-6"/><line class="cls-3" x1="-6" y1="30" x2="30" y2="-6"/><line class="cls-3" x1="-6" y1="36" x2="36" y2="-6"/><line class="cls-3" x1="-6" y1="42" x2="42" y2="-6"/><line class="cls-3" x1="-6" y1="48" x2="48" y2="-6"/><line class="cls-3" x1="-6" y1="54" x2="54" y2="-6"/><line class="cls-3" x1="-6" y1="60" x2="60" y2="-6"/><line class="cls-3" x1="-6" y1="66" x2="66" y2="-6"/><line class="cls-3" x1="-6" y1="72" x2="72" y2="-6"/><line class="cls-3" x1="-6" y1="78" x2="78" y2="-6"/><line class="cls-3" y1="78" x2="78"/><line class="cls-3" x1="6" y1="78" x2="78" y2="6"/><line class="cls-3" x1="12" y1="78" x2="78" y2="12"/><line class="cls-3" x1="18" y1="78" x2="78" y2="18"/><line class="cls-3" x1="24" y1="78" x2="78" y2="24"/><line class="cls-3" x1="30" y1="78" x2="78" y2="30"/><line class="cls-3" x1="36" y1="78" x2="78" y2="36"/><line class="cls-3" x1="42" y1="78" x2="78" y2="42"/><line class="cls-3" x1="48" y1="78" x2="78" y2="48"/><line class="cls-3" x1="46" y1="86" x2="88" y2="44"/><line class="cls-3" x1="52" y1="86" x2="88" y2="50"/><line class="cls-3" x1="58" y1="86" x2="88" y2="56"/></g></pattern></defs><g id="HATCH"><polygon class="cls-4" points="256.55 125.07 256.5 124.89 256.44 124.7 256.36 124.5 256.29 124.29 256.2 124.05 256.1 123.81 256 123.56 255.88 123.3 255.75 123.03 255.61 122.76 255.46 122.48 255.31 122.2 255.14 121.92 254.98 121.64 254.81 121.36 254.64 121.09 254.46 120.81 254.28 120.53 254.08 120.24 253.86 119.94 253.63 119.63 253.38 119.29 253.11 118.93 252.8 118.54 252.44 118.11 251.99 117.62 251.41 117.07 250.7 116.45 249.8 115.73 248.69 114.9 248.06 114.51 269.74 116.28 270.01 119.21 268.96 119.5 268.53 119.49 268.11 119.42 267.71 119.37 267.36 119.33 267.03 119.31 266.72 119.31 266.42 119.31 266.14 119.34 265.86 119.37 265.58 119.41 265.29 119.46 265 119.52 264.7 119.59 264.4 119.67 264.1 119.77 263.8 119.87 263.5 119.99 263.2 120.12 262.9 120.26 262.61 120.42 262.32 120.59 262.04 120.77 261.75 120.96 261.48 121.16 261.21 121.37 260.94 121.6 260.68 121.83 260.42 122.08 260.16 122.33 259.91 122.59 259.66 122.86 259.41 123.13 259.16 123.41 258.91 123.69 258.66 123.97 258.25 124.43 257.81 124.92 257.41 125.32 257.03 125.64 256.77 125.66 256.64 125.33 256.55 125.07"/></g><g id="POLYLINE"><polygon class="cls-5" points="212.72 138.25 212.74 138.5 212.75 138.75 212.76 138.98 212.77 139.21 212.78 139.44 212.79 139.66 212.79 139.87 212.8 140.09 212.8 140.31 212.81 140.53 212.8 140.75 212.8 140.97 212.79 141.18 212.77 141.4 212.74 141.6 212.71 141.81 212.66 142.01 212.61 142.2 212.55 142.39 212.47 142.57 212.39 142.74 212.29 142.9 212.19 143.06 212.07 143.2 211.94 143.33 211.81 143.46 211.66 143.57 211.49 143.68 211.32 143.78 211.13 143.87 210.93 143.96 210.72 144.05 210.49 144.13 210.26 144.22 210.01 144.3 209.75 144.38 209.49 144.46 209.22 144.55 208.94 144.64 208.67 144.73 208.39 144.83 208.11 144.93 207.83 145.03 207.55 145.13 207.27 145.23 206.99 145.32 206.71 145.4 206.43 145.47 206.16 145.53 205.88 145.57 205.6 145.61 205.32 145.64 205.04 145.66 204.83 145.67 200.7 137.27 211.71 128.85 211.85 130 211.98 131.04 212.09 131.97 212.19 132.8 212.28 133.55 212.36 134.22 212.43 134.82 212.49 135.36 212.54 135.85 212.58 136.29 212.61 136.69 212.64 137.06 212.67 137.39 212.69 137.7 212.71 137.98 212.72 138.25"/></g><g id="POLYLINE-2" data-name="POLYLINE"><polygon class="cls-6" points="202.24 145.9 202 145.94 201.77 145.98 201.56 146.03 201.36 146.07 201.17 146.12 201.13 146.13 200.68 146.23 199.97 146.33 199.49 146.24 198.63 145.83 177.51 102.4 176.76 99.76 175.44 95.66 173.19 89.8 169.69 82.39 166.09 76.14 161.74 69.82 151.21 48.08 148.24 34.62 202.24 145.9"/></g><g id="LINE"><line class="cls-7" x1="310.7" y1="189.29" x2="310.7" y2="196.42"/></g><g id="LINE-2" data-name="LINE"><line class="cls-7" x1="310.7" y1="189.29" x2="272.11" y2="115.63"/></g><g id="LINE-3" data-name="LINE"><line class="cls-7" x1="270.31" y1="112.04" x2="237.24" y2="109.34"/></g><g id="LINE-4" data-name="LINE"><line class="cls-7" x1="199.55" y1="134.61" x2="230.89" y2="110.33"/></g><g id="LINE-5" data-name="LINE"><line class="cls-7" x1="240.85" y1="226.09" x2="198.43" y2="138.68"/></g><g id="LINE-6" data-name="LINE"><line class="cls-7" x1="278.98" y1="229.37" x2="241.44" y2="221.07"/></g><g id="LINE-7" data-name="LINE"><line class="cls-7" x1="287.76" y1="225.94" x2="310.7" y2="189.29"/></g><g id="LINE-8" data-name="LINE"><line class="cls-7" x1="285.89" y1="236.04" x2="240.85" y2="226.09"/></g><g id="LINE-9" data-name="LINE"><line class="cls-7" x1="285.89" y1="236.04" x2="302.95" y2="208.8"/></g><g id="LINE-10" data-name="LINE"><line class="cls-7" x1="241.44" y1="221.07" x2="198.73" y2="132.93"/></g><g id="LINE-11" data-name="LINE"><line class="cls-7" x1="241.44" y1="221.07" x2="240.85" y2="226.09"/></g><g id="LINE-12" data-name="LINE"><line class="cls-7" x1="302.95" y1="208.8" x2="310.7" y2="196.42"/></g><g id="LINE-13" data-name="LINE"><line class="cls-8" x1="160.73" y1="216.09" x2="162.96" y2="216.13"/></g><g id="LINE-14" data-name="LINE"><line class="cls-8" x1="161.49" y1="216.13" x2="191.02" y2="130.94"/></g><g id="LINE-15" data-name="LINE"><line class="cls-8" x1="162.96" y1="216.15" x2="191.88" y2="132.72"/></g><g id="LINE-16" data-name="LINE"><line class="cls-8" x1="158.38" y1="220.15" x2="162.2" y2="216.14"/></g><g id="LINE-17" data-name="LINE"><line class="cls-8" x1="156.64" y1="220.41" x2="160.73" y2="216.11"/></g><g id="LINE-18" data-name="LINE"><line class="cls-8" x1="356.75" y1="119.61" x2="275.73" y2="78.81"/></g><g id="LINE-19" data-name="LINE"><line class="cls-8" x1="355.79" y1="120.63" x2="274.8" y2="79.84"/></g><g id="LINE-20" data-name="LINE"><line class="cls-8" x1="356.75" y1="123.37" x2="356.75" y2="119.61"/></g><g id="LINE-21" data-name="LINE"><line class="cls-8" x1="355.79" y1="124.51" x2="355.79" y2="120.63"/></g><g id="LINE-22" data-name="LINE"><line class="cls-8" x1="355.79" y1="124.51" x2="356.93" y2="128.55"/></g><g id="LINE-23" data-name="LINE"><line class="cls-8" x1="356.24" y1="130.91" x2="354.77" y2="125.74"/></g><g id="LINE-24" data-name="LINE"><line class="cls-8" x1="354.77" y1="125.74" x2="356.75" y2="123.37"/></g><g id="LINE-25" data-name="LINE"><line class="cls-8" x1="274.77" y1="223.8" x2="280.17" y2="221.64"/></g><g id="LINE-26" data-name="LINE"><line class="cls-8" x1="279.5" y1="224.28" x2="285.43" y2="221.91"/></g><g id="LINE-27" data-name="LINE"><line class="cls-8" x1="282.54" y1="229.54" x2="288.47" y2="227.17"/></g><g id="LINE-28" data-name="LINE"><line class="cls-8" x1="282.56" y1="234.36" x2="288.47" y2="232"/></g><g id="LINE-29" data-name="LINE"><line class="cls-8" x1="276.02" y1="227.47" x2="280.34" y2="225.74"/></g><g id="LINE-30" data-name="LINE"><line class="cls-8" x1="274.77" y1="223.8" x2="276.02" y2="227.47"/></g><g id="LINE-31" data-name="LINE"><line class="cls-8" x1="280.17" y1="221.64" x2="280.9" y2="223.76"/></g><g id="LINE-32" data-name="LINE"><line class="cls-8" x1="285.43" y1="221.91" x2="288.47" y2="227.17"/></g><g id="LINE-33" data-name="LINE"><line class="cls-8" x1="279.5" y1="224.28" x2="282.54" y2="229.54"/></g><g id="LINE-34" data-name="LINE"><line class="cls-8" x1="281.59" y1="223.43" x2="284.63" y2="228.69"/></g><g id="LINE-35" data-name="LINE"><line class="cls-8" x1="283.6" y1="222.64" x2="286.64" y2="227.9"/></g><g id="LINE-36" data-name="LINE"><line class="cls-8" x1="288.47" y1="227.17" x2="288.47" y2="232"/></g><g id="LINE-37" data-name="LINE"><line class="cls-8" x1="282.56" y1="229.58" x2="282.56" y2="234.36"/></g><g id="LINE-38" data-name="LINE"><line class="cls-8" x1="286.64" y1="227.9" x2="286.64" y2="232.73"/></g><g id="LINE-39" data-name="LINE"><line class="cls-8" x1="284.63" y1="228.69" x2="284.63" y2="233.52"/></g><g id="LINE-40" data-name="LINE"><line class="cls-8" x1="282.56" y1="234.36" x2="278.94" y2="229.31"/></g><g id="LINE-41" data-name="LINE"><line class="cls-8" x1="278.94" y1="229.31" x2="281.76" y2="228.19"/></g><g id="LINE-42" data-name="LINE"><line class="cls-8" x1="278.94" y1="229.31" x2="276.02" y2="227.47"/></g><g id="LINE-43" data-name="LINE"><line class="cls-8" x1="227.89" y1="103.32" x2="234.1" y2="102.59"/></g><g id="LINE-44" data-name="LINE"><line class="cls-8" x1="230.89" y1="115.39" x2="237.24" y2="114.15"/></g><g id="LINE-45" data-name="LINE"><line class="cls-8" x1="231.94" y1="118.59" x2="238.29" y2="117.35"/></g><g id="LINE-46" data-name="LINE"><line class="cls-8" x1="231.94" y1="123.1" x2="238.29" y2="121.86"/></g><g id="LINE-47" data-name="LINE"><line class="cls-8" x1="233.25" y1="124.81" x2="238.38" y2="123.81"/></g><g id="LINE-48" data-name="LINE"><line class="cls-8" x1="234.72" y1="128.06" x2="239.84" y2="127.06"/></g><g id="LINE-49" data-name="LINE"><line class="cls-8" x1="230.89" y1="115.39" x2="231.94" y2="118.59"/></g><g id="LINE-50" data-name="LINE"><line class="cls-8" x1="237.24" y1="114.15" x2="238.29" y2="117.35"/></g><g id="LINE-51" data-name="LINE"><line class="cls-8" x1="238.29" y1="117.35" x2="238.29" y2="121.86"/></g><g id="LINE-52" data-name="LINE"><line class="cls-8" x1="231.94" y1="118.59" x2="231.94" y2="123.1"/></g><g id="LINE-53" data-name="LINE"><line class="cls-8" x1="230.89" y1="115.39" x2="230.89" y2="107.88"/></g><g id="LINE-54" data-name="LINE"><line class="cls-8" x1="237.24" y1="114.15" x2="237.24" y2="107.36"/></g><g id="LINE-55" data-name="LINE"><line class="cls-8" x1="234.1" y1="102.59" x2="237.24" y2="107.36"/></g><g id="LINE-56" data-name="LINE"><line class="cls-8" x1="227.89" y1="103.32" x2="230.89" y2="107.88"/></g><g id="ELLIPSE"><path class="cls-8" d="M264.43,149.17a.76.76,0,1,0,.69.76.73.73,0,0,0-.69-.76Z" transform="translate(-29.98 -29.29)"/></g><g id="POLYLINE-3" data-name="POLYLINE"><g id="POLYLINE-4" data-name="POLYLINE"><polyline class="cls-9" points="190.11 145.29 104.96 176.55 89.97 176.55"/><polygon class="cls-10" points="187.25 143.24 198.43 142.23 189.25 148.7 187.25 143.24"/></g></g><g id="POLYLINE-5" data-name="POLYLINE"><g id="POLYLINE-6" data-name="POLYLINE"><polyline class="cls-9" points="143.14 92.16 97.73 58.49 77.86 58.49"/><polygon class="cls-10" points="143.28 88.65 150.26 97.44 139.82 93.32 143.28 88.65"/></g></g><g id="POLYLINE-7" data-name="POLYLINE"><g id="POLYLINE-8" data-name="POLYLINE"><polyline class="cls-9" points="239.29 95.41 280.16 38.91 289.55 38.91"/><polygon class="cls-10" points="242.81 95.51 234.1 102.59 238.1 92.1 242.81 95.51"/></g></g><g id="POLYLINE-9" data-name="POLYLINE"><g id="POLYLINE-10" data-name="POLYLINE"><polyline class="cls-9" points="235.89 27.54 279.61 5.36 287.34 5.36"/><polygon class="cls-10" points="238.97 29.24 227.99 31.55 236.34 24.05 238.97 29.24"/></g></g><g id="POLYLINE-11" data-name="POLYLINE"><polyline class="cls-9" points="261.49 153.74 367.94 91.5 400.51 91.5"/><polygon class="cls-10" points="264.67 155.25 253.84 158.21 261.73 150.23 264.67 155.25"/></g><g id="LINE-57" data-name="LINE"><g id="LINE-58" data-name="LINE"><line class="cls-9" x1="281.86" y1="209.83" x2="401.06" y2="209.83"/><polygon class="cls-10" points="283.84 212.74 273 209.83 283.84 206.93 283.84 212.74"/></g></g><g id="MTEXT"><text class="cls-11" transform="translate(28.07 62.21)">Roof tile</text></g><g id="MTEXT-2" data-name="MTEXT"><text class="cls-11" transform="translate(295.21 10.3)">Hip tile</text></g><g id="MTEXT-3" data-name="MTEXT"><text class="cls-11" transform="translate(296.39 42.46)">Clout/screw fixing to hip batten</text></g><g id="MTEXT-4" data-name="MTEXT"><text class="cls-11" transform="translate(410.02 96.01)">Hip batten</text></g><g id="MTEXT-5" data-name="MTEXT"><path class="cls-10" d="M440.68,244.32v-8.59h1.13v3.53h4.47v-3.53h1.14v8.59h-1.14v-4h-4.47v4Z" transform="translate(-29.98 -29.29)"/><path class="cls-10" d="M449.18,237v-1.22h1.05V237Zm0,7.37V238.1h1.05v6.22Z" transform="translate(-29.98 -29.29)"/><path class="cls-10" d="M451.84,246.71V238.1h1v.81a2.33,2.33,0,0,1,.77-.71,2.06,2.06,0,0,1,1-.24,2.43,2.43,0,0,1,2.33,1.57,4.51,4.51,0,0,1,0,3.36,2.6,2.6,0,0,1-2.37,1.57,2,2,0,0,1-.95-.22,2.13,2.13,0,0,1-.69-.56v3Zm1-5.46a2.71,2.71,0,0,0,.49,1.77,1.48,1.48,0,0,0,1.18.58,1.5,1.5,0,0,0,1.2-.6,2.77,2.77,0,0,0,.5-1.84,2.72,2.72,0,0,0-.49-1.78,1.44,1.44,0,0,0-1.16-.59,1.54,1.54,0,0,0-1.2.63A2.85,2.85,0,0,0,452.79,241.25Z" transform="translate(-29.98 -29.29)"/><path class="cls-10" d="M461.43,242.47l1-.17a1.44,1.44,0,0,0,.49,1,2.05,2.05,0,0,0,2.2,0,.9.9,0,0,0,.35-.69.65.65,0,0,0-.31-.57,4.87,4.87,0,0,0-1.08-.35,10.76,10.76,0,0,1-1.61-.51,1.58,1.58,0,0,1-.68-.59,1.65,1.65,0,0,1,0-1.61,1.83,1.83,0,0,1,.52-.59,2.1,2.1,0,0,1,.67-.3,3,3,0,0,1,.91-.13,3.63,3.63,0,0,1,1.29.21,1.77,1.77,0,0,1,.82.57,2.34,2.34,0,0,1,.36,1l-1,.14a1.16,1.16,0,0,0-.41-.75,1.47,1.47,0,0,0-.95-.27,1.73,1.73,0,0,0-1,.24.69.69,0,0,0-.31.56.56.56,0,0,0,.13.37,1,1,0,0,0,.4.28l.94.27a13.15,13.15,0,0,1,1.56.49,1.64,1.64,0,0,1,.69.55,1.57,1.57,0,0,1,.25.91,1.79,1.79,0,0,1-.3,1,2.06,2.06,0,0,1-.89.72,3.26,3.26,0,0,1-1.31.25,2.89,2.89,0,0,1-1.85-.5A2.28,2.28,0,0,1,461.43,242.47Z" transform="translate(-29.98 -29.29)"/><path class="cls-10" d="M470.15,243.38l.15.93a4.06,4.06,0,0,1-.79.1,1.75,1.75,0,0,1-.9-.19,1,1,0,0,1-.44-.47,3.71,3.71,0,0,1-.13-1.25v-3.58h-.77v-.82H468v-1.54l1-.63v2.17h1.06v.82h-1.06v3.64a2.2,2.2,0,0,0,.05.58.48.48,0,0,0,.19.21.7.7,0,0,0,.36.07A3,3,0,0,0,470.15,243.38Z" transform="translate(-29.98 -29.29)"/><path class="cls-10" d="M475.24,243.56a4,4,0,0,1-1.13.7,3.18,3.18,0,0,1-1.16.2,2.25,2.25,0,0,1-1.58-.5,1.76,1.76,0,0,1-.34-2.11,1.71,1.71,0,0,1,.55-.61,2.29,2.29,0,0,1,.76-.34,6.12,6.12,0,0,1,.93-.16,8.77,8.77,0,0,0,1.88-.37c0-.14,0-.23,0-.27a1.17,1.17,0,0,0-.3-.91,1.76,1.76,0,0,0-1.2-.36,1.9,1.9,0,0,0-1.1.26,1.6,1.6,0,0,0-.52.93l-1-.14a2.45,2.45,0,0,1,.46-1.07,2,2,0,0,1,.93-.63,4.09,4.09,0,0,1,1.41-.22,3.68,3.68,0,0,1,1.3.19,1.68,1.68,0,0,1,.73.47,1.71,1.71,0,0,1,.33.72,6.67,6.67,0,0,1,.05,1v1.41a13.75,13.75,0,0,0,.07,1.86,2.18,2.18,0,0,0,.26.74h-1.1A2.12,2.12,0,0,1,475.24,243.56Zm-.09-2.36a7.43,7.43,0,0,1-1.72.4,3.82,3.82,0,0,0-.92.21,1,1,0,0,0-.42.34,1,1,0,0,0-.14.5.88.88,0,0,0,.32.71,1.4,1.4,0,0,0,.93.28,2.18,2.18,0,0,0,1.09-.27,1.62,1.62,0,0,0,.69-.73,2.44,2.44,0,0,0,.17-1Z" transform="translate(-29.98 -29.29)"/><path class="cls-10" d="M477.84,244.32V238.1h1V239a2.6,2.6,0,0,1,.67-.87,1.19,1.19,0,0,1,.68-.21,2,2,0,0,1,1.08.34l-.36,1a1.55,1.55,0,0,0-.77-.23,1,1,0,0,0-.62.21,1.11,1.11,0,0,0-.4.58,4.3,4.3,0,0,0-.17,1.23v3.25Z" transform="translate(-29.98 -29.29)"/><path class="cls-10" d="M484.15,243.38l.16.93a4.25,4.25,0,0,1-.8.1,1.71,1.71,0,0,1-.89-.19,1.07,1.07,0,0,1-.45-.47,4,4,0,0,1-.13-1.25v-3.58h-.77v-.82H482v-1.54l1-.63v2.17h1.06v.82h-1.06v3.64a1.73,1.73,0,0,0,.06.58.52.52,0,0,0,.18.21.7.7,0,0,0,.36.07A3,3,0,0,0,484.15,243.38Z" transform="translate(-29.98 -29.29)"/><path class="cls-10" d="M489.44,242.32l1.09.13a2.67,2.67,0,0,1-.95,1.49,3.26,3.26,0,0,1-3.95-.32,3.28,3.28,0,0,1-.8-2.35,3.44,3.44,0,0,1,.81-2.44,2.74,2.74,0,0,1,2.1-.87,2.66,2.66,0,0,1,2,.85,3.36,3.36,0,0,1,.79,2.39c0,.06,0,.16,0,.28h-4.64a2.41,2.41,0,0,0,.58,1.57,1.71,1.71,0,0,0,1.3.55,1.56,1.56,0,0,0,1-.31A1.93,1.93,0,0,0,489.44,242.32ZM486,240.61h3.48a2.1,2.1,0,0,0-.4-1.17,1.61,1.61,0,0,0-1.31-.61,1.69,1.69,0,0,0-1.22.48A2,2,0,0,0,486,240.61Z" transform="translate(-29.98 -29.29)"/><path class="cls-10" d="M491.85,244.32V238.1h.95V239a2.48,2.48,0,0,1,.67-.87,1.16,1.16,0,0,1,.67-.21,2,2,0,0,1,1.09.34l-.37,1a1.49,1.49,0,0,0-.77-.23,1,1,0,0,0-.62.21,1.15,1.15,0,0,0-.39.58,4,4,0,0,0-.18,1.23v3.25Z" transform="translate(-29.98 -29.29)"/><path class="cls-10" d="M499.19,246.71V238.1h1v.81a2.33,2.33,0,0,1,.77-.71,2.06,2.06,0,0,1,1-.24,2.43,2.43,0,0,1,2.33,1.57,4.51,4.51,0,0,1,0,3.36,2.6,2.6,0,0,1-2.37,1.57,2,2,0,0,1-.95-.22,2.13,2.13,0,0,1-.69-.56v3Zm.95-5.46a2.71,2.71,0,0,0,.49,1.77,1.48,1.48,0,0,0,1.18.58,1.5,1.5,0,0,0,1.2-.6,2.77,2.77,0,0,0,.5-1.84,2.72,2.72,0,0,0-.49-1.78,1.44,1.44,0,0,0-1.17-.59,1.53,1.53,0,0,0-1.19.63A2.85,2.85,0,0,0,500.14,241.25Z" transform="translate(-29.98 -29.29)"/><path class="cls-10" d="M505.84,244.32v-8.59h1.05v8.59Z" transform="translate(-29.98 -29.29)"/><path class="cls-10" d="M512.59,243.56a4,4,0,0,1-1.13.7,3.18,3.18,0,0,1-1.16.2,2.24,2.24,0,0,1-1.58-.5,1.64,1.64,0,0,1-.55-1.28,1.68,1.68,0,0,1,.21-.83,1.78,1.78,0,0,1,.54-.61,2.49,2.49,0,0,1,.76-.34,6.55,6.55,0,0,1,.94-.16,8.77,8.77,0,0,0,1.88-.37c0-.14,0-.23,0-.27a1.17,1.17,0,0,0-.3-.91,1.76,1.76,0,0,0-1.2-.36,1.87,1.87,0,0,0-1.1.26,1.66,1.66,0,0,0-.53.93l-1-.14a2.58,2.58,0,0,1,.47-1.07,2,2,0,0,1,.93-.63,4,4,0,0,1,1.41-.22,3.58,3.58,0,0,1,1.29.19,1.66,1.66,0,0,1,.74.47,1.7,1.7,0,0,1,.32.72,5.19,5.19,0,0,1,.06,1v1.41a13.75,13.75,0,0,0,.07,1.86,2.18,2.18,0,0,0,.26.74h-1.1A2.12,2.12,0,0,1,512.59,243.56Zm-.09-2.36a7.56,7.56,0,0,1-1.72.4,3.7,3.7,0,0,0-.92.21,1,1,0,0,0-.42.34,1,1,0,0,0,.18,1.21,1.4,1.4,0,0,0,.93.28,2.11,2.11,0,0,0,1.08-.27,1.64,1.64,0,0,0,.7-.73,2.6,2.6,0,0,0,.17-1Z" transform="translate(-29.98 -29.29)"/><path class="cls-10" d="M517.51,243.38l.15.93a4.25,4.25,0,0,1-.8.1,1.71,1.71,0,0,1-.89-.19,1.07,1.07,0,0,1-.45-.47,4.11,4.11,0,0,1-.12-1.25v-3.58h-.78v-.82h.78v-1.54l1-.63v2.17h1.07v.82h-1.07v3.64a1.73,1.73,0,0,0,.06.58.52.52,0,0,0,.18.21.74.74,0,0,0,.36.07A3.16,3.16,0,0,0,517.51,243.38Z" transform="translate(-29.98 -29.29)"/><path class="cls-10" d="M522.8,242.32l1.09.13a2.68,2.68,0,0,1-1,1.49,3.26,3.26,0,0,1-3.95-.32,3.28,3.28,0,0,1-.8-2.35,3.44,3.44,0,0,1,.81-2.44,2.74,2.74,0,0,1,2.1-.87,2.66,2.66,0,0,1,2,.85,3.36,3.36,0,0,1,.79,2.39v.28h-4.65a2.41,2.41,0,0,0,.58,1.57,1.73,1.73,0,0,0,1.31.55,1.6,1.6,0,0,0,1-.31A2,2,0,0,0,522.8,242.32Zm-3.47-1.71h3.48a2.1,2.1,0,0,0-.4-1.17,1.61,1.61,0,0,0-1.31-.61,1.69,1.69,0,0,0-1.22.48A2,2,0,0,0,519.33,240.61Z" transform="translate(-29.98 -29.29)"/><path class="cls-10" d="M440.51,251.35v-1.22h1.06v1.22Zm0,7.37V252.5h1.06v6.22Z" transform="translate(-29.98 -29.29)"/><path class="cls-10" d="M443.43,258.72v-5.4h-.94v-.82h.94v-.66a2.72,2.72,0,0,1,.11-.93,1.34,1.34,0,0,1,.53-.67,2,2,0,0,1,1.08-.25,5.17,5.17,0,0,1,1,.1L446,251a3.34,3.34,0,0,0-.62-.06.92.92,0,0,0-.68.21,1.13,1.13,0,0,0-.2.77v.57h1.22v.82h-1.22v5.4Z" transform="translate(-29.98 -29.29)"/><path class="cls-10" d="M453.92,258.72v-.91a2.29,2.29,0,0,1-2,1.05,2.48,2.48,0,0,1-1-.21,1.6,1.6,0,0,1-.71-.53,1.84,1.84,0,0,1-.33-.78,5.7,5.7,0,0,1-.06-1V252.5h1.05V256a5.55,5.55,0,0,0,.07,1.12,1.06,1.06,0,0,0,.42.65,1.29,1.29,0,0,0,.8.24,1.69,1.69,0,0,0,.89-.25,1.4,1.4,0,0,0,.59-.66,3.42,3.42,0,0,0,.17-1.21V252.5h1.05v6.22Z" transform="translate(-29.98 -29.29)"/><path class="cls-10" d="M456.09,256.87l1.05-.17a1.4,1.4,0,0,0,.49,1,2.05,2.05,0,0,0,2.2,0,.9.9,0,0,0,.35-.69.67.67,0,0,0-.31-.57,4.87,4.87,0,0,0-1.08-.35,10.37,10.37,0,0,1-1.61-.51,1.52,1.52,0,0,1-.68-.59,1.65,1.65,0,0,1,0-1.61,1.83,1.83,0,0,1,.52-.59,2.1,2.1,0,0,1,.67-.3,3,3,0,0,1,.91-.13,3.63,3.63,0,0,1,1.29.21,1.69,1.69,0,0,1,.81.57,2.21,2.21,0,0,1,.37,1l-1,.14a1.16,1.16,0,0,0-.41-.75,1.49,1.49,0,0,0-.95-.27,1.73,1.73,0,0,0-1,.24.69.69,0,0,0-.31.56.56.56,0,0,0,.13.37.89.89,0,0,0,.4.28l.93.27a12,12,0,0,1,1.56.49,1.61,1.61,0,0,1,.7.55,1.57,1.57,0,0,1,.25.91,1.73,1.73,0,0,1-.31,1,2,2,0,0,1-.88.72,3.27,3.27,0,0,1-1.32.25,2.91,2.91,0,0,1-1.85-.5A2.37,2.37,0,0,1,456.09,256.87Z" transform="translate(-29.98 -29.29)"/><path class="cls-10" d="M466.77,256.72l1.09.14a2.68,2.68,0,0,1-.95,1.48,3.26,3.26,0,0,1-4-.32,3.28,3.28,0,0,1-.8-2.35,3.44,3.44,0,0,1,.81-2.44,2.74,2.74,0,0,1,2.1-.87,2.66,2.66,0,0,1,2,.85,3.36,3.36,0,0,1,.79,2.39c0,.06,0,.16,0,.28h-4.64a2.41,2.41,0,0,0,.58,1.57,1.71,1.71,0,0,0,1.3.55,1.56,1.56,0,0,0,1-.31A1.93,1.93,0,0,0,466.77,256.72Zm-3.46-1.7h3.48a2.11,2.11,0,0,0-.4-1.18,1.61,1.61,0,0,0-1.31-.61,1.69,1.69,0,0,0-1.22.48A2,2,0,0,0,463.31,255Z" transform="translate(-29.98 -29.29)"/><path class="cls-10" d="M473.23,258.72v-.78a1.94,1.94,0,0,1-1.74.92,2.37,2.37,0,0,1-1.37-.41,2.65,2.65,0,0,1-1-1.14,3.92,3.92,0,0,1-.34-1.69,4.35,4.35,0,0,1,.31-1.69,2.41,2.41,0,0,1,.93-1.16,2.49,2.49,0,0,1,1.39-.41,2.05,2.05,0,0,1,1,.24,2.16,2.16,0,0,1,.72.62v-3.09h1v8.59Zm-3.34-3.1a2.69,2.69,0,0,0,.51,1.79,1.52,1.52,0,0,0,1.19.59,1.48,1.48,0,0,0,1.17-.57,2.6,2.6,0,0,0,.48-1.72,2.94,2.94,0,0,0-.49-1.88,1.51,1.51,0,0,0-1.21-.6,1.49,1.49,0,0,0-1.18.58A2.84,2.84,0,0,0,469.89,255.62Z" transform="translate(-29.98 -29.29)"/></g><g id="MTEXT-6" data-name="MTEXT"><text class="cls-11" transform="translate(0 178.25)">Mortar bedding</text></g><g id="LINE-59" data-name="LINE"><line class="cls-12" x1="306.55" y1="214.03" x2="307.21" y2="218.51"/></g><g id="LINE-60" data-name="LINE"><line class="cls-12" x1="253.8" y1="235.5" x2="255.85" y2="240.18"/></g><g id="LINE-61" data-name="LINE"><line class="cls-12" x1="240.85" y1="226.09" x2="229.7" y2="223.62"/></g><g id="LINE-62" data-name="LINE"><line class="cls-12" x1="198.73" y1="132.93" x2="198.43" y2="138.68"/></g><g id="POLYLINE-12" data-name="POLYLINE"><polyline class="cls-12" points="150.79 47.85 161.31 69.6 165.66 75.92 169.26 82.17 172.76 89.58 175.01 95.44 176.34 99.54 177.09 102.18 198.2 145.61 199.06 146.02 199.54 146.11 200.26 146.01 200.7 145.91 201.82 145.68"/><path class="cls-12" d="M231.8,175" transform="translate(-29.98 -29.29)"/></g><g id="LINE-63" data-name="LINE"><line class="cls-12" x1="300.14" y1="285.26" x2="152.52" y2="249.73"/></g><g id="LINE-64" data-name="LINE"><line class="cls-12" x1="301.04" y1="289.6" x2="152.02" y2="252.86"/></g><g id="LINE-65" data-name="LINE"><line class="cls-12" x1="297.39" y1="302.78" x2="155.17" y2="268.55"/></g><g id="LINE-66" data-name="LINE"><line class="cls-12" x1="290.02" y1="274.4" x2="168.8" y2="245.7"/></g><g id="LINE-67" data-name="LINE"><line class="cls-12" x1="287.64" y1="255.34" x2="167.29" y2="228.73"/></g><g id="LINE-68" data-name="LINE"><line class="cls-12" x1="230.59" y1="240.9" x2="213.69" y2="237.17"/></g><g id="LINE-69" data-name="LINE"><line class="cls-12" x1="155.17" y1="268.55" x2="153.81" y2="253.3"/></g><g id="LINE-70" data-name="LINE"><line class="cls-12" x1="164.26" y1="252.56" x2="168.8" y2="245.7"/></g><g id="SPLINE"><path class="cls-12" d="M182.49,279a1.43,1.43,0,0,0-1.72,1.19,1.61,1.61,0,0,0,1.07,1.91l.16,0" transform="translate(-29.98 -29.29)"/></g><g id="LINE-71" data-name="LINE"><line class="cls-12" x1="168.8" y1="245.7" x2="167.29" y2="228.73"/></g><g id="LINE-72" data-name="LINE"><line class="cls-12" x1="154.23" y1="257.96" x2="111.16" y2="247.59"/></g><g id="LINE-73" data-name="LINE"><line class="cls-12" x1="287.64" y1="255.34" x2="353.41" y2="150.27"/></g><g id="LINE-74" data-name="LINE"><line class="cls-12" x1="290.02" y1="274.4" x2="355.23" y2="167.64"/></g><g id="LINE-75" data-name="LINE"><line class="cls-12" x1="300.14" y1="285.26" x2="377.45" y2="159.41"/></g><g id="LINE-76" data-name="LINE"><line class="cls-12" x1="301.04" y1="289.6" x2="379.83" y2="161.48"/></g><g id="LINE-77" data-name="LINE"><line class="cls-12" x1="301.48" y1="301.03" x2="377.58" y2="177.91"/></g><g id="LINE-78" data-name="LINE"><line class="cls-12" x1="290.02" y1="274.4" x2="287.64" y2="255.34"/></g><g id="LINE-79" data-name="LINE"><line class="cls-12" x1="290.02" y1="274.4" x2="292.93" y2="283.52"/></g><g id="LINE-80" data-name="LINE"><line class="cls-12" x1="300.14" y1="285.26" x2="301.04" y2="289.6"/></g><g id="LINE-81" data-name="LINE"><line class="cls-12" x1="301.04" y1="289.6" x2="302.18" y2="297.8"/></g><g id="SPLINE-2" data-name="SPLINE"><path class="cls-12" d="M327.36,332.07a4,4,0,0,0,4.75-3.37,4.84,4.84,0,0,0,.05-1.61" transform="translate(-29.98 -29.29)"/></g><g id="LINE-82" data-name="LINE"><line class="cls-12" x1="355.23" y1="167.64" x2="355.23" y2="150.9"/></g><g id="LINE-83" data-name="LINE"><line class="cls-12" x1="377.58" y1="177.91" x2="377.58" y2="165.14"/></g><g id="LINE-84" data-name="LINE"><line class="cls-12" x1="355.23" y1="167.64" x2="370.39" y2="170.89"/></g><g id="SPLINE-3" data-name="SPLINE"><path class="cls-12" d="M409.81,190.77a1.83,1.83,0,0,0-1-2.26,1.51,1.51,0,0,0-1.42.19" transform="translate(-29.98 -29.29)"/></g><g id="SPLINE-4" data-name="SPLINE"><path class="cls-12" d="M385.21,180.19a1.05,1.05,0,0,0-1-1.1,1,1,0,0,0-.82.47" transform="translate(-29.98 -29.29)"/></g><g id="LINE-85" data-name="LINE"><line class="cls-12" x1="361.5" y1="168.98" x2="381.46" y2="136.3"/></g><g id="LINE-86" data-name="LINE"><line class="cls-12" x1="230.22" y1="103.05" x2="185.09" y2="13.04"/></g><g id="LINE-87" data-name="LINE"><line class="cls-12" x1="198.73" y1="132.93" x2="230.89" y2="108.01"/></g><g id="LINE-88" data-name="LINE"><line class="cls-12" x1="269.27" y1="110.21" x2="237.24" y2="107.59"/></g><g id="LINE-89" data-name="LINE"><line class="cls-12" x1="198.43" y1="138.68" x2="230.89" y2="113.53"/></g><g id="LINE-90" data-name="LINE"><line class="cls-12" x1="272.11" y1="115.63" x2="237.24" y2="112.78"/></g><g id="LINE-91" data-name="LINE"><line class="cls-12" x1="288.34" y1="243.13" x2="231.25" y2="230.51"/></g><g id="LINE-92" data-name="LINE"><line class="cls-12" x1="288.34" y1="243.13" x2="306.55" y2="214.03"/></g><g id="LINE-93" data-name="LINE"><line class="cls-12" x1="289.05" y1="247.51" x2="255.85" y2="240.18"/></g><g id="LINE-94" data-name="LINE"><line class="cls-12" x1="289.05" y1="247.51" x2="307.21" y2="218.51"/></g><g id="LINE-95" data-name="LINE"><line class="cls-12" x1="288.34" y1="243.13" x2="289.05" y2="247.51"/></g><g id="LINE-96" data-name="LINE"><line class="cls-12" x1="235.69" y1="188.71" x2="253.47" y2="180.46"/></g><g id="LINE-97" data-name="LINE"><line class="cls-12" x1="306.55" y1="214.03" x2="276.19" y2="169.92"/></g><g id="LINE-98" data-name="LINE"><line class="cls-12" x1="253.8" y1="235.5" x2="235.69" y2="188.71"/></g><g id="LINE-99" data-name="LINE"><line class="cls-12" x1="258.69" y1="181.4" x2="232.44" y2="123"/></g><g id="LINE-100" data-name="LINE"><line class="cls-12" x1="259.53" y1="193.97" x2="225.32" y2="117.84"/></g><g id="LINE-101" data-name="LINE"><line class="cls-12" x1="251.14" y1="181.54" x2="223.23" y2="119.46"/></g><g id="LINE-102" data-name="LINE"><line class="cls-12" x1="263.89" y1="180.57" x2="237.57" y2="122"/></g><g id="LINE-103" data-name="LINE"><line class="cls-12" x1="258.69" y1="181.4" x2="259.53" y2="193.97"/></g><g id="LINE-104" data-name="LINE"><line class="cls-12" x1="258.69" y1="181.4" x2="263.89" y2="180.57"/></g><g id="LINE-105" data-name="LINE"><line class="cls-12" x1="259.53" y1="193.97" x2="264.34" y2="193.2"/></g><g id="LINE-106" data-name="LINE"><line class="cls-12" x1="263.89" y1="180.57" x2="264.34" y2="193.2"/></g><g id="LINE-107" data-name="LINE"><line class="cls-12" x1="262.05" y1="176.48" x2="276.19" y2="169.92"/></g><g id="LINE-108" data-name="LINE"><line class="cls-12" x1="231.15" y1="235.89" x2="218.91" y2="233.19"/></g><g id="LINE-109" data-name="LINE"><line class="cls-12" x1="191.77" y1="227.21" x2="176.46" y2="223.84"/></g><g id="LINE-110" data-name="LINE"><line class="cls-12" x1="193.38" y1="232.7" x2="171.24" y2="227.82"/></g><g id="SPLINE-5" data-name="SPLINE"><path class="cls-12" d="M248.89,262.48c-5-9.71-16.15-13.12-24.93-7.61a17.58,17.58,0,0,0-2.22,1.63" transform="translate(-29.98 -29.29)"/></g><g id="SPLINE-6" data-name="SPLINE"><path class="cls-12" d="M243.67,266.46c-3.67-7.25-12-9.85-18.52-5.79a12.7,12.7,0,0,0-1.79,1.32" transform="translate(-29.98 -29.29)"/></g><g id="SPLINE-7" data-name="SPLINE"><path class="cls-12" d="M206.44,253.13a18.48,18.48,0,0,0-12.73-9.94" transform="translate(-29.98 -29.29)"/></g><g id="SPLINE-8" data-name="SPLINE"><path class="cls-12" d="M201.21,257.11a13.33,13.33,0,0,0-12.85-7.67" transform="translate(-29.98 -29.29)"/></g><g id="SPLINE-9" data-name="SPLINE"><path class="cls-12" d="M166,244.23c-4.95-9.66-16-13.1-24.8-7.7" transform="translate(-29.98 -29.29)"/></g><g id="SPLINE-10" data-name="SPLINE"><path class="cls-12" d="M160.79,248.21c-3.72-7.31-12.1-9.89-18.7-5.78-.3.19-.6.39-.88.6" transform="translate(-29.98 -29.29)"/></g><g id="LINE-111" data-name="LINE"><line class="cls-12" x1="150.92" y1="223.35" x2="130.81" y2="218.92"/></g><g id="LINE-112" data-name="LINE"><line class="cls-12" x1="149.31" y1="217.86" x2="136.03" y2="214.94"/></g><g id="LINE-113" data-name="LINE"><line class="cls-12" x1="136.03" y1="214.94" x2="168.85" y2="122.89"/></g><g id="LINE-114" data-name="LINE"><line class="cls-12" x1="149.31" y1="217.86" x2="181.63" y2="125.8"/></g><g id="LINE-115" data-name="LINE"><line class="cls-12" x1="176.46" y1="223.84" x2="200.7" y2="145.9"/></g><g id="LINE-116" data-name="LINE"><line class="cls-12" x1="191.77" y1="227.21" x2="222.49" y2="126.74"/></g><g id="SPLINE-11" data-name="SPLINE"><path class="cls-12" d="M217.56,153.15a21.67,21.67,0,0,0-6,1.94" transform="translate(-29.98 -29.29)"/></g><g id="SPLINE-12" data-name="SPLINE"><path class="cls-12" d="M198.83,152.18c-4.87-8.62-15.15-11.25-22.94-5.85-.39.27-.77.55-1.14.86" transform="translate(-29.98 -29.29)"/></g><g id="LINE-117" data-name="LINE"><line class="cls-12" x1="181.63" y1="125.8" x2="168.85" y2="122.89"/></g><g id="SPLINE-13" data-name="SPLINE"><path class="cls-12" d="M201.8,146.26c-6.29-9.46-18.12-11.92-27.08-5.62" transform="translate(-29.98 -29.29)"/></g><g id="LINE-118" data-name="LINE"><line class="cls-12" x1="185.7" y1="119.96" x2="171.82" y2="116.97"/></g><g id="LINE-119" data-name="LINE"><line class="cls-12" x1="171.82" y1="116.97" x2="177.09" y2="102.18"/></g><g id="LINE-120" data-name="LINE"><line class="cls-12" x1="144.74" y1="111.35" x2="161.31" y2="69.6"/></g><g id="LINE-121" data-name="LINE"><line class="cls-12" x1="198.07" y1="145.52" x2="177.09" y2="102.18"/></g><g id="LINE-122" data-name="LINE"><line class="cls-12" x1="161.31" y1="69.6" x2="150.79" y2="47.85"/></g><g id="SPLINE-14" data-name="SPLINE"><path class="cls-12" d="M241.66,157.7c.4,3.27.64,5.21.78,6.6s.19,2.21.23,2.92.07,1.28.08,1.86a9,9,0,0,1-.09,1.74,2.91,2.91,0,0,1-.64,1.41,3.28,3.28,0,0,1-1.35.86c-.58.23-1.31.43-2,.69a21.81,21.81,0,0,1-2.24.75,12.82,12.82,0,0,1-2.26.24c-.79,0-1.65.1-2.32.2s-1.17.25-1.56.33a2.62,2.62,0,0,1-.9.09,2.25,2.25,0,0,1-.61-.22,3.53,3.53,0,0,1-.68-.36" transform="translate(-29.98 -29.29)"/></g><g id="SPLINE-15" data-name="SPLINE"><path class="cls-12" d="M192.31,243a17.08,17.08,0,0,0-13,4.17" transform="translate(-29.98 -29.29)"/></g><g id="LINE-123" data-name="LINE"><line class="cls-12" x1="331.23" y1="170.8" x2="264.94" y2="134.61"/></g><g id="LINE-124" data-name="LINE"><line class="cls-12" x1="269.44" y1="115.41" x2="269.71" y2="118.34"/></g><g id="POLYLINE-13" data-name="POLYLINE"><polyline class="cls-12" points="247.76 113.64 248.39 114.03 249.5 114.86 250.4 115.58 251.11 116.21 251.69 116.75 252.14 117.24 252.5 117.67 252.81 118.06 253.08 118.42 253.34 118.76 253.56 119.07 253.78 119.37 253.98 119.66 254.16 119.94 254.34 120.22 254.51 120.49 254.68 120.77 254.84 121.05 255.01 121.33 255.16 121.62 255.31 121.89 255.45 122.17 255.58 122.44 255.7 122.69 255.81 122.95 255.9 123.19 255.99 123.42 256.06 123.64 256.14 123.84 256.2 124.03 256.25 124.2 256.3 124.35 256.35 124.49 256.39 124.61 256.44 124.69 256.5 124.76 256.57 124.78 256.65 124.78 256.75 124.73 256.88 124.65 257.04 124.52 257.22 124.34 257.42 124.14 257.64 123.91 257.87 123.65 258.11 123.38 258.36 123.1 258.61 122.82 258.86 122.54 259.11 122.26 259.36 121.99 259.61 121.72 259.87 121.46 260.12 121.21 260.38 120.97 260.64 120.73 260.91 120.5 261.18 120.29 261.45 120.09 261.74 119.9 262.02 119.72 262.31 119.55 262.6 119.39 262.9 119.25 263.2 119.12 263.5 119.01 263.8 118.9 264.1 118.81 264.4 118.73 264.7 118.66 264.99 118.59 265.28 118.54 265.56 118.5 265.84 118.47 266.13 118.45 266.42 118.44 266.73 118.44 267.06 118.47 267.42 118.5 267.81 118.56 268.23 118.62 268.66 118.64 269.71 118.34 269.21 118.45"/></g><g id="LINE-125" data-name="LINE"><line class="cls-12" x1="325.59" y1="188.17" x2="336.15" y2="170.91"/></g><g id="LINE-126" data-name="LINE"><line class="cls-12" x1="324.48" y1="181.79" x2="331.23" y2="170.8"/></g><g id="LINE-127" data-name="LINE"><line class="cls-12" x1="346.22" y1="154.61" x2="356.62" y2="137.51"/></g><g id="LINE-128" data-name="LINE"><line class="cls-12" x1="344.99" y1="148.6" x2="351.7" y2="137.4"/></g><g id="LINE-129" data-name="LINE"><line class="cls-12" x1="344.99" y1="148.6" x2="267.45" y2="106.73"/></g><g id="SPLINE-16" data-name="SPLINE"><path class="cls-12" d="M375,177.89c-9,1.31-15.26,10.4-14.08,20.31.08.63.18,1.27.32,1.89" transform="translate(-29.98 -29.29)"/></g><g id="SPLINE-17" data-name="SPLINE"><path class="cls-12" d="M376.2,183.9c-6.12.25-10.9,5.93-10.68,12.7a13.31,13.31,0,0,0,.61,3.6" transform="translate(-29.98 -29.29)"/></g><g id="LINE-130" data-name="LINE"><line class="cls-12" x1="351.7" y1="137.4" x2="271.52" y2="93.35"/></g><g id="LINE-131" data-name="LINE"><line class="cls-12" x1="365.46" y1="115.21" x2="285.34" y2="74.86"/></g><g id="SPLINE-18" data-name="SPLINE"><path class="cls-12" d="M395.44,144.5a15.68,15.68,0,0,0-8.72,4.4" transform="translate(-29.98 -29.29)"/></g><g id="SPLINE-19" data-name="SPLINE"><path class="cls-12" d="M396.67,150.51a11.16,11.16,0,0,0-9.76,7.33" transform="translate(-29.98 -29.29)"/></g><g id="LINE-132" data-name="LINE"><line class="cls-12" x1="264.9" y1="101.87" x2="271.52" y2="93.35"/></g><g id="SPLINE-20" data-name="SPLINE"><path class="cls-12" d="M315.32,104.15a13,13,0,0,0-9.61,3.95" transform="translate(-29.98 -29.29)"/></g><g id="LINE-133" data-name="LINE"><line class="cls-12" x1="262.65" y1="97.57" x2="267.42" y2="91.42"/></g><g id="SPLINE-21" data-name="SPLINE"><path class="cls-12" d="M313.83,98.86c-8.83-.52-16.38,7-16.85,16.73a19.21,19.21,0,0,0,.42,5.13" transform="translate(-29.98 -29.29)"/></g><g id="LINE-134" data-name="LINE"><line class="cls-12" x1="283.86" y1="69.57" x2="235.12" y2="45.03"/></g><g id="SPLINE-22" data-name="SPLINE"><path class="cls-12" d="M385.77,149.92a19.43,19.43,0,0,0-4.09,16.77" transform="translate(-29.98 -29.29)"/></g><g id="LINE-135" data-name="LINE"><path class="cls-12" d="M228.4,168" transform="translate(-29.98 -29.29)"/></g><g id="LINE-136" data-name="LINE"><line class="cls-12" x1="198.73" y1="132.93" x2="149.27" y2="30.83"/></g><g id="LINE-137" data-name="LINE"><line class="cls-12" x1="324.48" y1="181.79" x2="325.59" y2="188.17"/></g><g id="LINE-138" data-name="LINE"><line class="cls-12" x1="272.11" y1="115.63" x2="220.19" y2="16.54"/></g><g id="SPLINE-23" data-name="SPLINE"><path class="cls-12" d="M304.78,109.13a16.38,16.38,0,0,0-3.28,13.51" transform="translate(-29.98 -29.29)"/></g><g id="SPLINE-24" data-name="SPLINE"><path class="cls-12" d="M186.62,249.7a13.06,13.06,0,0,0-5.72,2.94" transform="translate(-29.98 -29.29)"/></g><g id="SPLINE-25" data-name="SPLINE"><path class="cls-12" d="M386.22,160.2a13.54,13.54,0,0,0,.38,6.6" transform="translate(-29.98 -29.29)"/></g><g id="LINE-139" data-name="LINE"><polyline class="cls-12" points="111.23 213.74 111.23 207.24 144.74 117.98"/></g><g id="LINE-140" data-name="LINE"><line class="cls-12" x1="144.74" y1="111.35" x2="144.74" y2="117.98"/></g><g id="LINE-141" data-name="LINE"><line class="cls-12" x1="365.46" y1="115.21" x2="366.69" y2="121.21"/></g><g id="LINE-142" data-name="LINE"><line class="cls-12" x1="283.86" y1="69.57" x2="285.34" y2="74.86"/></g><g id="POLYLINE-14" data-name="POLYLINE"><polyline class="cls-12" points="230.59 240.9 230.84 240.19 231.01 239.55 231.1 238.97 231.14 238.44 231.14 237.97 231.12 237.54 231.09 237.15 231.09 236.78 231.1 236.43 231.12 236.09 231.16 235.76 231.2 235.44 231.25 235.13 231.31 234.8 231.37 234.47 231.42 234.14 231.48 233.78 231.52 233.42 231.55 233.05 231.57 232.66 231.56 232.27 231.54 231.87 231.48 231.46 231.39 231.04 231.28 230.61 231.15 230.17 231 229.72 230.85 229.26 230.69 228.78 230.54 228.28 230.4 227.76 230.28 227.23 230.18 226.68 230.08 226.13 230 225.57 229.91 225.02 229.84 224.49 229.76 223.97 229.68 223.47 229.58 223.01 229.49 222.58 229.38 222.18 229.26 221.79 229.13 221.43 228.99 221.09 228.84 220.77 228.68 220.46 228.5 220.16 228.3 219.88 228.09 219.59 227.87 219.31 227.64 219.03 227.4 218.74 227.14 218.44 226.87 218.12 226.59 217.8 226.31 217.46 226.02 217.1 225.74 216.72 225.47 216.33 225.21 215.93 224.97 215.5 224.76 215.07 224.57 214.61 224.4 214.15 224.25 213.66 224.12 213.16 223.99 212.65 223.85 212.12 223.72 211.58 223.56 211.03 223.4 210.47 223.22 209.9 223.03 209.32 222.82 208.74 222.62 208.16 222.42 207.58 222.22 207.01 222.03 206.45 221.85 205.9 221.67 205.35 221.51 204.82 221.36 204.29 221.22 203.77 221.08 203.25 220.96 202.72 220.84 202.2 220.73 201.67 220.62 201.14 220.52 200.6 220.43 200.06 220.34 199.5 220.26 198.94 220.18 198.37 220.11 197.78 220.04 197.19 219.97 196.59 219.91 195.98 219.85 195.37 219.8 194.76 219.76 194.16 219.72 193.56 219.68 192.98 219.66 192.42 219.64 191.86 219.64 191.32 219.65 190.77 219.67 190.22 219.71 189.67 219.76 189.11 219.84 188.53 219.94 187.93 220.05 187.31 220.17 186.68 220.31 186.05 220.45 185.4 220.58 184.76 220.72 184.11 220.84 183.47 220.94 182.84 221.04 182.22 221.12 181.6 221.18 180.99 221.22 180.4 221.25 179.81 221.27 179.24 221.26 178.67 221.24 178.12 221.19 177.58 221.14 177.06 221.07 176.55 220.98 176.04 220.88 175.56 220.77 175.09 220.65 174.64 220.51 174.2 220.37 173.78 220.23 173.36 220.1 172.96 219.97 172.56 219.87 172.16 219.78 171.77 219.72 171.37 219.69 170.97 219.7 170.57 219.73 170.17 219.78 169.77 219.86 169.37 219.95 168.98 220.06 168.6 220.18 168.23 220.32 167.87 220.47 167.52 220.62 167.17 220.79 166.84 220.97 166.5 221.16 166.17 221.36 165.84 221.57 165.51 221.79 165.18 222.02 164.84 222.26 164.5 222.5 164.16 222.75 163.83 223.01 163.5 223.27 163.18 223.53 162.88 223.78 162.58 224.04 162.28 224.28 161.99 224.51 161.69 224.72 161.37 224.9 161.03 225.06 160.65 225.18 160.24 225.26 159.79 225.31 159.3 225.32 158.77 225.31 158.19 225.28 157.59 225.23 156.95 225.17 156.28 225.1 155.57 225.03 154.84 224.95 154.09 224.88 153.34 224.8 152.57 224.72 151.82 224.65 151.08 224.59 150.36 224.53 149.67 224.47 149.02 224.43 148.41 224.39 147.82 224.36 147.27 224.34 146.74 224.32 146.23 224.32 145.73 224.33 145.25 224.35 144.78 224.38 144.31 224.42 143.86 224.46 143.41 224.51 142.97 224.57 142.55 224.62 142.13 224.68 141.73 224.74 141.34 224.79 140.96 224.85 140.59 224.9 140.23 224.95 139.89 224.99 139.55 225.03 139.23 225.06 138.92 225.08 138.63 225.09 138.34 225.09 138.06 225.09 137.8 225.07 137.55 225.04 137.31 225 137.07 224.94 136.85 224.87 136.63 224.79 136.42 224.7 136.22 224.6 136.02 224.51 135.81 224.41 135.6 224.32 135.39 224.23 135.17 224.15 134.94 224.08 134.71 224.02 134.46 223.96 134.21 223.91 133.96 223.86 133.7 223.81 133.45 223.77 133.19 223.72 132.95 223.68 132.7 223.63 132.46 223.59 132.22 223.54 131.99 223.49 131.75 223.44 131.52 223.39 131.28 223.33 131.05 223.28 130.81 223.22 130.57 223.16 130.32 223.1 130.05 223.03 129.77 222.97 129.47 222.9 129.15 222.84 128.8 222.77 128.44 222.7 128.06 222.63 127.67 222.56 127.27 222.51 126.87 222.45 126.47 222.4 126.08 222.36 125.71 222.32 125.34 222.29 124.98 222.27 124.62 222.25 124.26 222.23 123.9 222.21 123.54 222.19 123.16 222.17 122.78 222.15 122.39 222.13 122 222.12 121.63 222.1 121.27 222.09 120.93 222.08 120.63 222.08 120.35"/></g><g id="POLYLINE-15" data-name="POLYLINE"><polyline class="cls-12" points="264.94 134.61 264.11 134.39 263.38 134.16 262.72 133.9 262.14 133.65 261.62 133.38 261.15 133.12 260.74 132.88 260.36 132.64 260.01 132.43 259.69 132.24 259.39 132.06 259.1 131.9 258.84 131.75 258.58 131.61 258.33 131.47 258.08 131.33 257.83 131.2 257.58 131.07 257.33 130.93 257.07 130.79 256.81 130.64 256.55 130.49 256.28 130.33 256 130.17 255.73 129.99 255.44 129.81 255.16 129.61 254.87 129.41 254.57 129.2 254.27 128.97 253.97 128.75 253.66 128.5 253.35 128.26 253.04 128 252.72 127.74 252.41 127.47 252.1 127.21 251.79 126.94 251.49 126.68 251.19 126.43 250.89 126.18 250.61 125.94 250.32 125.7 250.04 125.47 249.75 125.24 249.46 125.01 249.16 124.79 248.86 124.57 248.54 124.34 248.22 124.12 247.9 123.89 247.57 123.66 247.25 123.42 246.93 123.17 246.62 122.92 246.32 122.65 246.03 122.37 245.75 122.08 245.49 121.78 245.24 121.48 245 121.19 244.78 120.89 244.56 120.61 244.36 120.33 244.17 120.07 243.99 119.82 243.82 119.58 243.65 119.35 243.47 119.12 243.29 118.89 243.11 118.66 242.91 118.43 242.71 118.19 242.49 117.94 242.26 117.69 242.04 117.44 241.82 117.19 241.61 116.94 241.4 116.69 241.21 116.45 241.04 116.22 240.88 115.99 240.72 115.76 240.56 115.53 240.39 115.29 240.2 115.04 239.98 114.78 239.74 114.51 239.45 114.22 239.15 113.92 238.84 113.62 238.55 113.33 238.29 113.06 238.11 112.85"/></g><g id="POLYLINE-16" data-name="POLYLINE"><polyline class="cls-12" points="324.48 181.79 323.71 181.43 322.7 180.91 321.83 180.42 321.09 179.97 320.46 179.56 319.93 179.19 319.48 178.84 319.1 178.53 318.76 178.25 318.48 178.01 318.23 177.78 318 177.57 317.8 177.37 317.62 177.18 317.44 176.99 317.25 176.8 317.06 176.61 316.86 176.4 316.66 176.19 316.46 175.98 316.27 175.77 316.09 175.55 315.93 175.33 315.78 175.12 315.66 174.9 315.55 174.69 315.46 174.47 315.39 174.25 315.31 174.03 315.24 173.8 315.16 173.56 315.08 173.32 314.99 173.06 314.88 172.79 314.77 172.52 314.64 172.25 314.51 171.97 314.36 171.69 314.21 171.43 314.04 171.16 313.87 170.91 313.69 170.66 313.5 170.41 313.31 170.17 313.11 169.93 312.91 169.69 312.7 169.44 312.49 169.18 312.27 168.92 312.05 168.65 311.83 168.37 311.6 168.08 311.37 167.79 311.14 167.5 310.9 167.2 310.66 166.9 310.42 166.61 310.17 166.31 309.92 166.01 309.66 165.7 309.4 165.38 309.13 165.06 308.86 164.72 308.58 164.37 308.3 164.01 308.01 163.64 307.72 163.26 307.43 162.88 307.15 162.51 306.87 162.15 306.6 161.81 306.35 161.48 306.1 161.18 305.87 160.91 305.64 160.65 305.42 160.4 305.19 160.16 304.96 159.92 304.71 159.69 304.45 159.44 304.16 159.19 303.86 158.94 303.54 158.69 303.21 158.43 302.88 158.19 302.54 157.96 302.21 157.74 301.88 157.55 301.57 157.37 301.26 157.22 300.96 157.07 300.67 156.94 300.39 156.81 300.12 156.68 299.85 156.54 299.59 156.4 299.34 156.23 299.09 156.05 298.85 155.86 298.62 155.66 298.39 155.45 298.17 155.24 297.95 155.01 297.73 154.79 297.52 154.57 297.3 154.34 297.09 154.12 296.86 153.89 296.63 153.65 296.38 153.41 296.12 153.16 295.83 152.89 295.52 152.62 295.2 152.34 294.86 152.06 294.51 151.78 294.17 151.5 293.82 151.24 293.47 150.99 293.14 150.75 292.83 150.54 292.53 150.35 292.24 150.17 291.96 150.01 291.68 149.86 291.41 149.71 291.13 149.57 290.85 149.43 290.57 149.29 290.28 149.15 289.98 149.01 289.68 148.87 289.37 148.74 289.06 148.62 288.75 148.52 288.44 148.42 288.12 148.34 287.8 148.26 287.48 148.2 287.16 148.14 286.83 148.08 286.5 148.01 286.17 147.93 285.84 147.84 285.5 147.74 285.16 147.62 284.83 147.5 284.5 147.37 284.18 147.23 283.86 147.1 283.56 146.97 283.28 146.86 283.01 146.75 282.76 146.66 282.51 146.57 282.27 146.48 282.02 146.39 281.77 146.3 281.5 146.2 281.22 146.08 280.91 145.96 280.59 145.82 280.25 145.68 279.9 145.53 279.54 145.38 279.19 145.24 278.85 145.11 278.5 144.98 278.18 144.88 277.86 144.78 277.54 144.68 277.21 144.59 276.87 144.48 276.5 144.37 276.1 144.23 275.66 144.07 275.18 143.88 274.66 143.66 274.12 143.43 273.56 143.18 273 142.91 272.46 142.63 271.92 142.35 271.42 142.06 270.96 141.78 270.53 141.51 270.14 141.24 269.78 140.98 269.45 140.73 269.14 140.5 268.86 140.27 268.59 140.06 268.35 139.87 268.11 139.69 267.89 139.53 267.67 139.37 267.45 139.22 267.24 139.08 267.02 138.94 266.79 138.8 266.54 138.65 266.29 138.51 266.03 138.37 265.77 138.23 265.5 138.1 265.22 137.98 264.95 137.85 264.67 137.75 264.4 137.65 264.12 137.56 263.85 137.47 263.58 137.39 263.31 137.3 263.04 137.2 262.76 137.09 262.49 136.98 262.21 136.84 261.94 136.69 261.65 136.53 261.37 136.37 261.08 136.2 260.79 136.02 260.5 135.84 260.19 135.67 259.89 135.5 259.58 135.34 259.27 135.18 258.96 135.02 258.66 134.86 258.36 134.71 258.06 134.54 257.78 134.38 257.5 134.22 257.23 134.05 256.97 133.88 256.72 133.71 256.47 133.55 256.22 133.38 255.98 133.22 255.74 133.06 255.49 132.9 255.25 132.75 255.01 132.61 254.78 132.47 254.54 132.32 254.31 132.18 254.08 132.03 253.86 131.89 253.64 131.74 253.42 131.59 253.2 131.43 252.99 131.26 252.76 131.09 252.53 130.91 252.29 130.73 252.05 130.54 251.78 130.35 251.51 130.15 251.24 129.94 250.97 129.73 250.69 129.53 250.43 129.33 250.18 129.13 249.95 128.94 249.74 128.76 249.55 128.59 249.37 128.42 249.2 128.26 249.03 128.1 248.87 127.95 248.71 127.8 248.54 127.66 248.36 127.51 248.17 127.36 247.97 127.21 247.78 127.06 247.57 126.91 247.37 126.76 247.16 126.61 246.96 126.47 246.76 126.32 246.56 126.17 246.37 126.02 246.19 125.88 246 125.73 245.83 125.59 245.66 125.45 245.49 125.32 245.33 125.18 245.18 125.06 245.03 124.93 244.89 124.81 244.75 124.68 244.61 124.55 244.47 124.42 244.33 124.29 244.19 124.15 244.04 124.01 243.9 123.87 243.76 123.72 243.63 123.56 243.49 123.41 243.36 123.24 243.24 123.06 243.12 122.88 243.01 122.69 242.9 122.49 242.8 122.28 242.69 122.06 242.6 121.83 242.5 121.59 242.4 121.34 242.31 121.07 242.22 120.74 242.16 120.32 242.12 119.77 242.13 119.04 242.19 118.1 242.24 117.66"/></g><g id="POLYLINE-17" data-name="POLYLINE"><polyline class="cls-12" points="325.59 188.17 325.04 188.08 324.11 187.86 323.36 187.63 322.76 187.38 322.27 187.12 321.88 186.86 321.56 186.59 321.27 186.33 320.99 186.07 320.73 185.82 320.47 185.57 320.22 185.32 319.97 185.08 319.74 184.83 319.5 184.58 319.28 184.34 319.05 184.09 318.83 183.83 318.61 183.57 318.38 183.31 318.17 183.06 317.94 182.8 317.71 182.55 317.48 182.29 317.25 182.05 317.01 181.81 316.77 181.56 316.53 181.33 316.3 181.09 316.07 180.87 315.85 180.65 315.63 180.43 315.44 180.22 315.24 180.01 315.06 179.81 314.87 179.6 314.69 179.39 314.51 179.18 314.32 178.95 314.13 178.72 313.92 178.48 313.71 178.23 313.49 177.98 313.26 177.72 313.03 177.47 312.8 177.21 312.56 176.96 312.33 176.72 312.1 176.49 311.87 176.27 311.64 176.05 311.42 175.84 311.2 175.63 310.99 175.42 310.79 175.21 310.59 174.99 310.4 174.77 310.22 174.54 310.05 174.3 309.89 174.06 309.75 173.82 309.61 173.58 309.49 173.33 309.38 173.09 309.29 172.84 309.21 172.6 309.14 172.36 309.08 172.12 309.04 171.88 308.99 171.64 308.96 171.39 308.92 171.14 308.89 170.89 308.86 170.64 308.82 170.38 308.79 170.12 308.75 169.85 308.7 169.59 308.66 169.33 308.6 169.06 308.54 168.8 308.46 168.53 308.38 168.27 308.27 168.01 308.15 167.76 308.02 167.51 307.86 167.26 307.68 167.02 307.47 166.79 307.25 166.57 307 166.35 306.75 166.14 306.48 165.94 306.21 165.74 305.94 165.55 305.67 165.37 305.41 165.2 305.15 165.03 304.9 164.88 304.65 164.72 304.4 164.57 304.16 164.43 303.92 164.29 303.68 164.16 303.44 164.03 303.2 163.9 302.95 163.77 302.7 163.63 302.43 163.5 302.16 163.36 301.87 163.21 301.57 163.06 301.25 162.89 300.91 162.71 300.57 162.53 300.21 162.34 299.86 162.14 299.51 161.94 299.18 161.75 298.85 161.54 298.54 161.35 298.24 161.15 297.95 160.96 297.68 160.77 297.42 160.57 297.16 160.38 296.91 160.2 296.66 160.01 296.42 159.83 296.17 159.65 295.93 159.47 295.69 159.29 295.44 159.12 295.2 158.95 294.96 158.78 294.71 158.62 294.46 158.46 294.21 158.3 293.95 158.14 293.68 157.97 293.39 157.8 293.1 157.62 292.78 157.43 292.44 157.23 292.07 157.01 291.69 156.77 291.28 156.52 290.87 156.27 290.44 156.01 290.01 155.75 289.58 155.5 289.15 155.24 288.73 155 288.31 154.76 287.91 154.53 287.52 154.31 287.15 154.09 286.79 153.89 286.45 153.7 286.13 153.52 285.84 153.34 285.56 153.18 285.31 153.03 285.07 152.89 284.84 152.75 284.63 152.63 284.43 152.5 284.24 152.39 284.05 152.27 283.87 152.16 283.68 152.06 283.5 151.95 283.31 151.83 283.12 151.72 282.92 151.59 282.71 151.46 282.49 151.32 282.25 151.17 282 151.01 281.74 150.85 281.47 150.68 281.19 150.52 280.89 150.34 280.58 150.17 280.27 150.01 279.94 149.84 279.6 149.66 279.25 149.49 278.89 149.3 278.52 149.11 278.14 148.9 277.76 148.68 277.37 148.45 276.98 148.2 276.58 147.94 276.18 147.68 275.77 147.42 275.37 147.16 274.97 146.9 274.56 146.66 274.17 146.44 273.77 146.22 273.38 146.01 273 145.82 272.62 145.62 272.26 145.44 271.9 145.26 271.54 145.07 271.2 144.88 270.87 144.7 270.55 144.51 270.24 144.33 269.94 144.14 269.65 143.95 269.38 143.76 269.11 143.58 268.86 143.4 268.61 143.21 268.38 143.03 268.16 142.84 267.95 142.65 267.75 142.45 267.57 142.24 267.39 142.03 267.22 141.8 267.06 141.57 266.91 141.32 266.77 141.06 266.64 140.8 266.51 140.53 266.4 140.25 266.29 139.97 266.18 139.68 266.09 139.38 265.99 139.09 265.9 138.8 265.81 138.52 265.72 138.24 265.63 137.97 265.54 137.71 265.45 137.47 265.35 137.23 265.26 137.01 265.17 136.79 265.09 136.58 265.02 136.36 264.96 136.15 264.92 135.92 264.89 135.69 264.88 135.46 264.89 135.23 264.89 135.03 264.91 134.84 264.92 134.69 264.93 134.57 264.94 134.51"/></g><g id="LINE-143" data-name="LINE"><line class="cls-12" x1="260.21" y1="227.96" x2="250.06" y2="190.22"/></g><g id="LINE-144" data-name="LINE"><line class="cls-12" x1="262.33" y1="227.26" x2="252.25" y2="189.8"/></g><g id="LINE-145" data-name="LINE"><line class="cls-12" x1="296.34" y1="216.43" x2="270.72" y2="180.63"/></g><g id="LINE-146" data-name="LINE"><line class="cls-12" x1="294.61" y1="217.95" x2="268.6" y2="181.62"/></g><g id="SPLINE-26" data-name="SPLINE"><path class="cls-12" d="M282.23,219.09a1.11,1.11,0,0,0-1.38-.86,1.24,1.24,0,0,0-.81,1.28" transform="translate(-29.98 -29.29)"/></g><g id="SPLINE-27" data-name="SPLINE"><path class="cls-12" d="M300.7,209.93a1.1,1.1,0,0,0-1.52-.64,1.32,1.32,0,0,0-.6,1.62" transform="translate(-29.98 -29.29)"/></g><g id="SPLINE-28" data-name="SPLINE"><path class="cls-12" d="M290.18,257.25a1.09,1.09,0,0,0,1.6.37,1.32,1.32,0,0,0,.53-1.07" transform="translate(-29.98 -29.29)"/></g><g id="SPLINE-29" data-name="SPLINE"><path class="cls-12" d="M324.59,247.24a1,1,0,0,0,1.57,0,1.33,1.33,0,0,0,.16-1.55" transform="translate(-29.98 -29.29)"/></g><line class="cls-12" x1="198.43" y1="138.68" x2="148.23" y2="34.62"/></svg>