<?xml version="1.0" encoding="utf-8"?>
<!-- Generator: Adobe Illustrator 25.2.1, SVG Export Plug-In . SVG Version: 6.00 Build 0)  -->
<svg version="1.1" id="Layer_1" xmlns="http://www.w3.org/2000/svg" xmlns:xlink="http://www.w3.org/1999/xlink" x="0px" y="0px"
	 viewBox="0 0 552.8 212.6" style="enable-background:new 0 0 552.8 212.6;" xml:space="preserve">
<style type="text/css">
	.st0{fill:none;}
	.st1{fill:none;stroke:#000000;stroke-width:0.25;stroke-miterlimit:10;}
	.st2{font-family:'ArialMT';}
	.st3{font-size:12px;}
	.st4{fill:url(#SVGID_1_);}
	.st5{fill:#FFFFFF;stroke:#000000;stroke-miterlimit:10;}
	.st6{fill:#FFFFFF;}
	.st7{fill:none;stroke:#000000;stroke-miterlimit:10;}
	.st8{fill:none;stroke:#000000;stroke-miterlimit:10;stroke-dasharray:12.0906,12.0906;}
	.st9{fill:none;stroke:#000000;stroke-miterlimit:10;stroke-dasharray:12.0934,12.0934;}
	.st10{fill:#FFFFFF;stroke:#000000;stroke-miterlimit:10;stroke-dasharray:12,12;}
</style>
<pattern  x="63.1" y="123" width="25.5" height="25.5" patternUnits="userSpaceOnUse" id="New_Pattern" viewBox="11.2 -36.7 25.5 25.5" style="overflow:visible;">
	<g>
		<rect x="11.2" y="-36.7" class="st0" width="25.5" height="25.5"/>
		<g>
			<g>
				<line class="st1" x1="25.6" y1="-12.1" x2="37.6" y2="-0.1"/>
				<line class="st1" x1="28.5" y1="-15" x2="40.5" y2="-3"/>
			</g>
		</g>
		<g>
			<g>
				<line class="st1" x1="0.1" y1="-12.1" x2="12.1" y2="-0.1"/>
				<line class="st1" x1="3" y1="-15" x2="15" y2="-3"/>
			</g>
		</g>
		<g>
			<g>
				<line class="st1" x1="44.9" y1="-28.1" x2="32.9" y2="-16.1"/>
				<line class="st1" x1="47.8" y1="-25.2" x2="35.8" y2="-13.2"/>
			</g>
		</g>
		<g>
			<g>
				<line class="st1" x1="19.4" y1="-28.1" x2="7.4" y2="-16.1"/>
				<line class="st1" x1="22.3" y1="-25.2" x2="10.3" y2="-13.2"/>
				<line class="st1" x1="25.2" y1="-22.3" x2="13.2" y2="-10.3"/>
				<line class="st1" x1="28.1" y1="-19.4" x2="16.1" y2="-7.4"/>
			</g>
			<g>
				<line class="st1" x1="19.8" y1="-31.8" x2="31.8" y2="-19.8"/>
				<line class="st1" x1="22.7" y1="-34.7" x2="34.7" y2="-22.7"/>
				<line class="st1" x1="25.6" y1="-37.6" x2="37.6" y2="-25.6"/>
				<line class="st1" x1="28.5" y1="-40.5" x2="40.5" y2="-28.5"/>
			</g>
		</g>
		<g>
			<g>
				<line class="st1" x1="0.1" y1="-37.6" x2="12.1" y2="-25.6"/>
				<line class="st1" x1="3" y1="-40.5" x2="15" y2="-28.5"/>
			</g>
		</g>
		<g>
			<g>
				<line class="st1" x1="25.2" y1="-47.8" x2="13.2" y2="-35.8"/>
				<line class="st1" x1="28.1" y1="-44.9" x2="16.1" y2="-32.9"/>
			</g>
		</g>
	</g>
</pattern>
<text transform="matrix(1 0 0 1 231.0471 127.1284)" class="st2 st3">5.</text>
<g>
	<g>
		<line class="st1" x1="234.6" y1="114.9" x2="234.6" y2="100.4"/>
		<g>
			<polygon points="237.5,102.4 234.6,91.5 231.7,102.4 			"/>
		</g>
	</g>
</g>
<g>
	<pattern  id="SVGID_1_" xlink:href="#New_Pattern" patternTransform="matrix(1 0 0 1 -15.2473 -4.5654)">
	</pattern>
	<polygon class="st4" points="79.1,125.4 79.1,141 142.3,127 142.1,171.9 195.9,172.8 196,118.1 274.1,101.2 314.9,100.7 
		322.3,109.3 322.4,138.2 373.7,138.2 373.4,96.7 392.3,97.4 467.9,77.8 468.1,64.4 366.3,73.2 267.9,80.1 187.3,94.2 129.6,114.1 	
		"/>
	<polyline class="st5" points="300.1,77.8 81.2,124.4 137,90.9 300.1,77.8 	"/>
	<g>
		<g>
			<polygon class="st6" points="300.1,77.8 393.5,58 466.9,64.4 393,82.9 			"/>
			<g>
				<polyline class="st7" points="306.1,78.2 300.1,77.8 306,76.6 				"/>
				<polyline class="st8" points="317.8,74.1 393.5,58 454.9,63.4 				"/>
				<polyline class="st7" points="460.9,63.9 466.9,64.4 461.1,65.9 				"/>
				<polyline class="st9" points="449.4,68.8 393,82.9 312.1,78.5 				"/>
			</g>
		</g>
		<polyline class="st5" points="466.9,64.4 393,82.9 300.1,77.8 		"/>
	</g>
	<polygon class="st5" points="156.6,73.2 156.6,163 181,163 181,100.4 193.5,88 323,88 335.6,100.5 335.6,126.6 360.7,126.6 
		360.7,74.3 	"/>
	<line class="st10" x1="181" y1="100.4" x2="173.8" y2="100.4"/>
	<line class="st10" x1="163.8" y1="100.4" x2="156.6" y2="100.4"/>
	<line class="st10" x1="360.1" y1="100.7" x2="353" y2="100.7"/>
	<line class="st10" x1="342.9" y1="100.7" x2="335.7" y2="100.7"/>
</g>
<text transform="matrix(1 0 0 1 81.2231 94.0563)" class="st2 st3">1.</text>
<text transform="matrix(1 0 0 1 210.5427 141.0348)" class="st2 st3">2.</text>
<text transform="matrix(1 0 0 1 435.2543 42.2074)" class="st2 st3">3.</text>
<text transform="matrix(1 0 0 1 428.4418 108.8952)" class="st2 st3">4.</text>
<g>
	<g>
		<line class="st1" x1="426.8" y1="103.2" x2="398.2" y2="77"/>
		<g>
			<polygon points="401.7,76.2 391.7,71.1 397.7,80.5 			"/>
		</g>
	</g>
</g>
<g>
	<g>
		<line class="st1" x1="431.8" y1="39.4" x2="419" y2="53.2"/>
		<g>
			<polygon points="418.2,49.8 413,59.7 422.5,53.7 			"/>
		</g>
	</g>
</g>
<g>
	<g>
		<line class="st1" x1="206.6" y1="136.9" x2="174.9" y2="136.9"/>
		<g>
			<polygon points="176.9,134 166.1,136.9 176.9,139.8 			"/>
		</g>
	</g>
</g>
<g>
	<g>
		<line class="st1" x1="91" y1="90.9" x2="128.6" y2="103.8"/>
		<g>
			<polygon points="125.8,105.9 137,106.7 127.7,100.4 			"/>
		</g>
	</g>
</g>
</svg>
