<?xml version="1.0" encoding="utf-8"?>
<!-- Generator: Adobe Illustrator 25.2.1, SVG Export Plug-In . SVG Version: 6.00 Build 0)  -->
<svg version="1.1" id="Layer_1" xmlns="http://www.w3.org/2000/svg" xmlns:xlink="http://www.w3.org/1999/xlink" x="0px" y="0px"
	 viewBox="0 0 552.8 212.6" style="enable-background:new 0 0 552.8 212.6;" xml:space="preserve">
<style type="text/css">
	.st0{fill:none;}
	.st1{fill:none;stroke:#000000;stroke-width:0.25;stroke-miterlimit:10;}
	.st2{font-family:'ArialMT';}
	.st3{font-size:12px;}
	.st4{fill:url(#SVGID_1_);}
	.st5{fill:#FFFFFF;stroke:#000000;stroke-miterlimit:10;}
	.st6{fill:#FFFFFF;}
	.st7{fill:none;stroke:#000000;stroke-miterlimit:10;}
	.st8{fill:none;stroke:#000000;stroke-width:0.5;stroke-miterlimit:10;}
	.st9{stroke:#000000;stroke-width:0.5;stroke-miterlimit:10;}
</style>
<pattern  x="63.1" y="402.9" width="25.5" height="25.5" patternUnits="userSpaceOnUse" id="New_Pattern" viewBox="11.2 -36.7 25.5 25.5" style="overflow:visible;">
	<g>
		<rect x="11.2" y="-36.7" class="st0" width="25.5" height="25.5"/>
		<g>
			<g>
				<line class="st1" x1="25.6" y1="-12.1" x2="37.6" y2="-0.1"/>
				<line class="st1" x1="28.5" y1="-15" x2="40.5" y2="-3"/>
			</g>
		</g>
		<g>
			<g>
				<line class="st1" x1="0.1" y1="-12.1" x2="12.1" y2="-0.1"/>
				<line class="st1" x1="3" y1="-15" x2="15" y2="-3"/>
			</g>
		</g>
		<g>
			<g>
				<line class="st1" x1="44.9" y1="-28.1" x2="32.9" y2="-16.1"/>
				<line class="st1" x1="47.8" y1="-25.2" x2="35.8" y2="-13.2"/>
			</g>
		</g>
		<g>
			<g>
				<line class="st1" x1="19.4" y1="-28.1" x2="7.4" y2="-16.1"/>
				<line class="st1" x1="22.3" y1="-25.2" x2="10.3" y2="-13.2"/>
				<line class="st1" x1="25.2" y1="-22.3" x2="13.2" y2="-10.3"/>
				<line class="st1" x1="28.1" y1="-19.4" x2="16.1" y2="-7.4"/>
			</g>
			<g>
				<line class="st1" x1="19.8" y1="-31.8" x2="31.8" y2="-19.8"/>
				<line class="st1" x1="22.7" y1="-34.7" x2="34.7" y2="-22.7"/>
				<line class="st1" x1="25.6" y1="-37.6" x2="37.6" y2="-25.6"/>
				<line class="st1" x1="28.5" y1="-40.5" x2="40.5" y2="-28.5"/>
			</g>
		</g>
		<g>
			<g>
				<line class="st1" x1="0.1" y1="-37.6" x2="12.1" y2="-25.6"/>
				<line class="st1" x1="3" y1="-40.5" x2="15" y2="-28.5"/>
			</g>
		</g>
		<g>
			<g>
				<line class="st1" x1="25.2" y1="-47.8" x2="13.2" y2="-35.8"/>
				<line class="st1" x1="28.1" y1="-44.9" x2="16.1" y2="-32.9"/>
			</g>
		</g>
	</g>
</pattern>
<text transform="matrix(1 0 0 1 90.1271 118.8503)" class="st2 st3">2.</text>
<text transform="matrix(1 0 0 1 336.8382 149.185)" class="st2 st3">7.</text>
<text transform="matrix(1 0 0 1 151.1931 193.6638)" class="st2 st3">4.</text>
<g>
	<g>
		<line class="st1" x1="155.8" y1="181.6" x2="155.8" y2="167.1"/>
		<g>
			<polygon points="158.7,169 155.8,158.2 152.9,169 			"/>
		</g>
	</g>
</g>
<text transform="matrix(1 0 0 1 242.1233 118.8501)" class="st2 st3">5.</text>
<g>
	<g>
		<line class="st1" x1="245.7" y1="106.6" x2="245.7" y2="92.1"/>
		<g>
			<polygon points="248.6,94.1 245.7,83.2 242.8,94.1 			"/>
		</g>
	</g>
</g>
<text transform="matrix(1 0 0 1 121.3594 34.2764)" class="st2 st3">6.</text>
<g>
	<g>
		<line class="st1" x1="130.6" y1="37.2" x2="151" y2="61.9"/>
		<g>
			<polygon points="147.5,62.2 156.7,68.7 152,58.5 			"/>
		</g>
	</g>
</g>
<text transform="matrix(1 0 0 1 280.8406 27.8196)" class="st2 st3">1.</text>
<g>
	<g>
		<line class="st1" x1="284.8" y1="31.7" x2="284.8" y2="44.8"/>
		<g>
			<polygon points="281.8,42.9 284.8,53.7 287.7,42.9 			"/>
		</g>
	</g>
</g>
<pattern  id="SVGID_1_" xlink:href="#New_Pattern" patternTransform="matrix(1 0 0 1 -15.6039 -50.655)">
</pattern>
<polygon class="st4" points="234.2,70.7 234.2,61.2 171,61.2 142.1,94 121.4,94 121.4,162.6 197.8,162.6 197.8,98.6 204.3,91.5 
	234.2,91.4 291.4,91.4 298.8,98.7 298.8,125.7 383,125.7 383,102.1 390.2,95 428.9,95 428.9,73 "/>
<polyline class="st5" points="428.9,82.6 381.4,82.6 369.9,93.8 369.9,114.5 310.1,114.5 310.1,93.8 298.8,82.6 198.4,82.6 
	186.8,94 186.8,150.8 133,150.8 133,92.4 134.6,90.8 134.6,86.4 189,69.4 292.9,71.8 409.7,69.8 428.9,65.4 "/>
<rect x="132.7" y="84.1" class="st6" width="7.9" height="2.7"/>
<g>
	<path class="st5" d="M183.3,92"/>
	<polyline class="st5" points="183.3,92.4 196.8,78.9 300.4,78.5 313.9,92 313.9,110.9 365.8,110.9 365.8,92.4 379.4,78.8 
		428.9,78.8 428.9,53.7 183.3,53.7 156.9,53.7 156.9,68.9 136.7,68.9 136.7,146.9 183.3,146.9 183.3,92 	"/>
</g>
<rect x="428.1" y="54.2" class="st6" width="3.3" height="24"/>
<line class="st7" x1="136.7" y1="92.4" x2="183.3" y2="92.4"/>
<g>
	<line class="st8" x1="176" y1="61.1" x2="428.9" y2="61.1"/>
	<circle class="st9" cx="178.8" cy="62.1" r="1.1"/>
	<circle class="st9" cx="222.6" cy="62.1" r="1.1"/>
	<circle class="st9" cx="266.4" cy="62.1" r="1.1"/>
	<circle class="st9" cx="310.1" cy="62.1" r="1.1"/>
	<circle class="st9" cx="353.9" cy="62.1" r="1.1"/>
	<circle class="st9" cx="397.7" cy="62.1" r="1.1"/>
</g>
<g>
	<circle class="st9" cx="324.1" cy="102.1" r="1.1"/>
	<circle class="st9" cx="355" cy="102.1" r="1.1"/>
	<circle class="st9" cx="339.5" cy="102.1" r="1.1"/>
	<line class="st9" x1="322.2" y1="101" x2="356.7" y2="101"/>
</g>
<g>
	<circle class="st9" cx="144.2" cy="138.3" r="1.1"/>
	<circle class="st9" cx="175.1" cy="138.3" r="1.1"/>
	<circle class="st9" cx="159.6" cy="138.3" r="1.1"/>
	<line class="st9" x1="142.3" y1="137.3" x2="176.8" y2="137.3"/>
</g>
<g>
	<g>
		<line class="st1" x1="340.1" y1="137.6" x2="340.1" y2="119.7"/>
		<g>
			<polygon points="343,121.7 340.1,110.8 337.2,121.7 			"/>
		</g>
	</g>
</g>
<text transform="matrix(1 0 0 1 212.5723 114.3036)" class="st2 st3">3.</text>
<g>
	<g>
		<polyline class="st1" points="196.4,69.5 211.2,110.8 173.7,132.8 		"/>
		<g>
			<polygon points="194.4,72.4 193.5,61.2 199.8,70.4 			"/>
		</g>
		<g>
			<polygon points="173.9,129.3 166,137.3 176.8,134.3 			"/>
		</g>
	</g>
</g>
<g>
	<g>
		<line class="st1" x1="99.2" y1="114.3" x2="148.6" y2="114.3"/>
		<g>
			<polygon points="146.7,117.2 157.5,114.3 146.7,111.4 			"/>
		</g>
	</g>
</g>
</svg>
