<?xml version="1.0" encoding="utf-8"?>
<!-- Generator: Adobe Illustrator 25.2.1, SVG Export Plug-In . SVG Version: 6.00 Build 0)  -->
<svg version="1.1" id="LINE_0.18" xmlns="http://www.w3.org/2000/svg" xmlns:xlink="http://www.w3.org/1999/xlink" x="0px" y="0px"
	 viewBox="0 0 552.8 353.2" style="enable-background:new 0 0 552.8 353.2;" xml:space="preserve">
<style type="text/css">
	.st0{fill-rule:evenodd;clip-rule:evenodd;fill:#C5C7C9;}
	.st1{fill:#231F20;}
	.st2{font-family:'ArialMT';}
	.st3{font-size:12px;}
	.st4{font-family:'Arial-BoldMT';}
	.st5{fill:none;stroke:#231F20;stroke-width:0.25;stroke-miterlimit:10;}
	.st6{fill:none;stroke:#000000;stroke-width:0.6337;stroke-linecap:round;stroke-linejoin:round;stroke-miterlimit:10;}
	.st7{fill:none;stroke:#231F20;stroke-width:0.75;stroke-miterlimit:10;stroke-dasharray:6,6;}
	.st8{fill:none;stroke:#231F20;stroke-linecap:round;stroke-linejoin:round;stroke-miterlimit:10;}
</style>
<g>
	<g id="HATCH">
		<polygon class="st0" points="193.6,59.6 66.4,157.8 66.4,167.1 193.6,68.9 320.7,167.1 320.7,157.8 		"/>
	</g>
	<g id="HATCH_2_">
		<path class="st0" d="M442.9,290.1l4.8,4.8h16.7v-29.6l-8.7-4.8v19.6H307V156.7h-26.5v-20.5l-5.4-4.2v24.6H80.3l-1.2,0.9v137.4
			h18.5l4.8-4.8H442.9z M301.4,280.1H87.8v-59.2h55.1l81.3,59.2h11.3v-4.3h-8.7v-6.3h-8.7v-6.3h-8.7v-6.3h-8.7v-6.3h-8.7v-6.3h-8.7
			v-6.3h-8.7v-6.3h-8.7V225H157v-6.3h-8.7v-6.4H87.8v-46.9h213.6v46.9h-86.5l11.9,8.7h74.6V280.1z"/>
	</g>
	<g id="HATCH_3_">
		<polygon class="st0" points="471.9,269.6 471.9,260.4 307.4,168.8 307.4,177.9 		"/>
	</g>
</g>
<g id="MTEXT">
	<g>
		<text transform="matrix(1 0 0 1 116.9307 38.2982)" class="st1 st2 st3">G</text>
	</g>
</g>
<g id="MTEXT_1_">
	<g>
		<text transform="matrix(1 0 0 1 186.0571 38.2958)" class="st1 st2 st3">2/3</text>
	</g>
</g>
<g id="MTEXT_2_">
	<g>
		<text transform="matrix(1 0 0 1 260.0234 38.2982)" class="st1 st2 st3">G</text>
	</g>
</g>
<g>
	<g id="MTEXT_11_">
		<g>
			<text transform="matrix(1 0 0 1 215.7456 248.057)" class="st1 st2 st3">F</text>
		</g>
	</g>
	<g>
		<g id="MTEXT_3_">
			<g>
				<text transform="matrix(1 0 0 1 40.5146 147.7323)" class="st1 st2 st3">E</text>
			</g>
		</g>
		<g id="MTEXT_4_">
			<g>
				<text transform="matrix(1 0 0 1 40.6147 192.6712)" class="st1 st2 st3">A</text>
			</g>
		</g>
		<g id="MTEXT_5_">
			<g>
				<text transform="matrix(1 0 0 1 55.8076 259.1879)" class="st1 st2 st3">C</text>
			</g>
		</g>
		<g id="MTEXT_6_">
			<g>
				<text transform="matrix(1 0 0 1 114.4243 317.9554)" class="st1 st2 st3">2/3</text>
			</g>
		</g>
		<g id="MTEXT_7_">
			<g>
				<text transform="matrix(1 0 0 1 166.0234 317.9554)" class="st1 st2 st3">1/3</text>
			</g>
		</g>
		<g id="MTEXT_8_">
			<g>
				<text transform="matrix(1 0 0 1 343.416 317.9554)" class="st1 st2 st3">2/3</text>
			</g>
		</g>
		<g id="MTEXT_9_">
			<g>
				<text transform="matrix(1 0 0 1 413.9521 317.9554)" class="st1 st2 st3">1/3</text>
			</g>
		</g>
		<g id="MTEXT_10_">
			<g>
				<text transform="matrix(1 0 0 1 168.9854 272.1967)" class="st1 st2 st3">E</text>
			</g>
		</g>
		<g id="MTEXT_12_">
			<g>
				<text transform="matrix(1 0 0 1 329.1367 140.6039)" class="st1 st2 st3">D</text>
			</g>
		</g>
		<g id="MTEXT_13_">
			<g>
				<text transform="matrix(1 0 0 1 486.7715 271.1967)" class="st1 st2 st3">E</text>
			</g>
		</g>
		<g id="MTEXT_14_">
			<g>
				<text transform="matrix(1 0 0 1 510.5166 257.0033)" class="st1 st2 st3">B</text>
			</g>
		</g>
	</g>
</g>
<g>
	<g id="MTEXT_15_">
		<g>
			<text transform="matrix(1 0 0 1 167.6313 194.1488)" class="st1 st4 st3">Habitable</text>
		</g>
	</g>
	<g id="MTEXT_16_">
		<g>
			<text transform="matrix(1 0 0 1 329.9053 270.1107)" class="st1 st4 st3">Habitable</text>
		</g>
	</g>
	<g id="MTEXT_17_">
		<g>
			<text transform="matrix(1 0 0 1 112.4971 253.1387)"><tspan x="0" y="0" class="st1 st4 st3">Non- </tspan><tspan x="-12.7" y="14.4" class="st1 st4 st3">habitable</tspan></text>
		</g>
	</g>
	<g id="MTEXT_18_">
		<g>
			<text transform="matrix(1 0 0 1 176.9839 147.9515)" class="st1 st4 st3">Attic</text>
		</g>
	</g>
</g>
<g>
	<g id="LINE_17_">
		<line class="st5" x1="112.1" y1="53.5" x2="112.1" y2="40.1"/>
	</g>
	<g id="LINE_18_">
		<line class="st5" x1="131.9" y1="53.5" x2="131.9" y2="40.1"/>
	</g>
	<g id="LINE_20_">
		<line class="st5" x1="131.9" y1="53.5" x2="131.9" y2="40.1"/>
	</g>
	<g id="LINE_21_">
		<line class="st5" x1="255.2" y1="53.5" x2="255.2" y2="40.1"/>
	</g>
	<g id="LINE_23_">
		<line class="st5" x1="255.2" y1="53.5" x2="255.2" y2="40.1"/>
	</g>
	<g id="LINE_24_">
		<line class="st5" x1="275" y1="53.5" x2="275" y2="40.1"/>
	</g>
</g>
<g>
	<g id="LINE_19_">
		<g>
			<g>
				<line class="st5" x1="118.8" y1="42.1" x2="125.2" y2="42.1"/>
				<g>
					<polygon class="st1" points="120.3,44.3 112.1,42.1 120.3,39.9 					"/>
				</g>
				<g>
					<polygon class="st1" points="123.8,44.3 131.9,42.1 123.8,39.9 					"/>
				</g>
			</g>
		</g>
	</g>
	<g id="LINE_22_">
		<g>
			<g>
				<line class="st5" x1="138.5" y1="42.1" x2="248.6" y2="42.1"/>
				<g>
					<polygon class="st1" points="140,44.3 131.9,42.1 140,39.9 					"/>
				</g>
				<g>
					<polygon class="st1" points="247.1,44.3 255.2,42.1 247.1,39.9 					"/>
				</g>
			</g>
		</g>
	</g>
	<g id="LINE_25_">
		<g>
			<g>
				<line class="st5" x1="261.9" y1="42.1" x2="268.3" y2="42.1"/>
				<g>
					<polygon class="st1" points="263.3,44.3 255.2,42.1 263.3,39.9 					"/>
				</g>
				<g>
					<polygon class="st1" points="266.8,44.3 275,42.1 266.8,39.9 					"/>
				</g>
			</g>
		</g>
	</g>
</g>
<g id="LINE_79_">
	<line class="st6" x1="158.8" y1="310" x2="158.8" y2="323.8"/>
</g>
<g id="LINE_85_">
	<line class="st6" x1="397.6" y1="310" x2="397.6" y2="323.8"/>
</g>
<g>
	<g id="LINE_69_">
		<g>
			<line class="st5" x1="53.8" y1="130.9" x2="34.9" y2="130.9"/>
		</g>
	</g>
	<g id="LINE_70_">
		<g>
			<line class="st5" x1="53.8" y1="156.7" x2="34.9" y2="156.7"/>
		</g>
	</g>
	<g id="LINE_72_">
		<g>
			<line class="st5" x1="53.8" y1="165.4" x2="34.9" y2="165.4"/>
		</g>
	</g>
	<g id="LINE_73_">
		<g>
			<line class="st5" x1="53.8" y1="212.3" x2="34.9" y2="212.3"/>
		</g>
	</g>
	<g id="LINE_75_">
		<g>
			<line class="st5" x1="72.3" y1="232.5" x2="60.7" y2="232.5"/>
		</g>
	</g>
	<g id="LINE_76_">
		<g>
			<line class="st5" x1="72.3" y1="280.1" x2="60.7" y2="280.1"/>
		</g>
	</g>
	<g id="LINE_78_">
		<g>
			<line class="st5" x1="87.7" y1="310" x2="87.7" y2="323.8"/>
		</g>
	</g>
	<g id="LINE_81_">
		<g>
			<line class="st5" x1="158.8" y1="310" x2="158.8" y2="323.8"/>
		</g>
	</g>
	<g id="LINE_82_">
		<g>
			<line class="st5" x1="191.8" y1="310" x2="191.8" y2="323.8"/>
		</g>
	</g>
	<g id="LINE_84_">
		<g>
			<line class="st5" x1="306.9" y1="310" x2="306.9" y2="323.8"/>
		</g>
	</g>
	<g id="LINE_87_">
		<g>
			<line class="st5" x1="397.6" y1="310" x2="397.6" y2="323.8"/>
		</g>
	</g>
	<g id="LINE_88_">
		<g>
			<line class="st5" x1="448.6" y1="310" x2="448.6" y2="323.8"/>
		</g>
	</g>
	<g id="LINE_92_">
		<g>
			<line class="st5" x1="327.1" y1="116.8" x2="343.2" y2="116.8"/>
		</g>
	</g>
	<g id="LINE_93_">
		<g>
			<line class="st5" x1="327.1" y1="156.7" x2="343.2" y2="156.7"/>
		</g>
	</g>
	<g id="LINE_95_">
		<g>
			<line class="st5" x1="479.5" y1="256.6" x2="500.3" y2="256.6"/>
		</g>
	</g>
	<g id="LINE_106_">
		<g>
			<line class="st5" x1="479.5" y1="280.1" x2="524" y2="280.1"/>
		</g>
	</g>
	<g id="LINE_107_">
		<g>
			<line class="st5" x1="504" y1="228.2" x2="524" y2="228.2"/>
		</g>
	</g>
</g>
<g>
	<g id="LINE_71_">
		<g>
			<g>
				<line class="st5" x1="37.1" y1="137.5" x2="37.1" y2="150"/>
				<g>
					<polygon class="st1" points="35,139 37.1,130.9 39.3,139 					"/>
				</g>
				<g>
					<polygon class="st1" points="35,148.6 37.1,156.7 39.3,148.6 					"/>
				</g>
			</g>
		</g>
	</g>
	<g id="LINE_74_">
		<g>
			<g>
				<line class="st5" x1="37.1" y1="172" x2="37.1" y2="205.6"/>
				<g>
					<polygon class="st1" points="35,173.5 37.1,165.4 39.3,173.5 					"/>
				</g>
				<g>
					<polygon class="st1" points="35,204.1 37.1,212.3 39.3,204.1 					"/>
				</g>
			</g>
		</g>
	</g>
	<g id="LINE_77_">
		<g>
			<g>
				<line class="st5" x1="68.9" y1="239.2" x2="68.9" y2="273.5"/>
				<g>
					<polygon class="st1" points="66.8,240.6 68.9,232.5 71.1,240.6 					"/>
				</g>
				<g>
					<polygon class="st1" points="66.8,272 68.9,280.1 71.1,272 					"/>
				</g>
			</g>
		</g>
	</g>
	<g id="LINE_80_">
		<g>
			<g>
				<line class="st5" x1="94.8" y1="321.8" x2="152.1" y2="321.8"/>
				<g>
					<polygon class="st1" points="96.3,324 88.1,321.8 96.3,319.6 					"/>
				</g>
				<g>
					<polygon class="st1" points="150.6,324 158.8,321.8 150.6,319.6 					"/>
				</g>
			</g>
		</g>
	</g>
	<g id="LINE_83_">
		<g>
			<g>
				<line class="st5" x1="165.4" y1="321.8" x2="185.3" y2="321.8"/>
				<g>
					<polygon class="st1" points="166.9,324 158.8,321.8 166.9,319.6 					"/>
				</g>
				<g>
					<polygon class="st1" points="183.8,324 192,321.8 183.8,319.6 					"/>
				</g>
			</g>
		</g>
	</g>
	<g id="LINE_86_">
		<g>
			<g>
				<line class="st5" x1="313.7" y1="321.8" x2="390.6" y2="321.8"/>
				<g>
					<polygon class="st1" points="314.9,324 306.8,321.8 314.9,319.6 					"/>
				</g>
				<g>
					<polygon class="st1" points="389.8,324 397.9,321.8 389.8,319.6 					"/>
				</g>
			</g>
		</g>
	</g>
	<g id="LINE_89_">
		<g>
			<g>
				<line class="st5" x1="404.6" y1="321.8" x2="441.5" y2="321.8"/>
				<g>
					<polygon class="st1" points="405.7,324 397.5,321.8 405.7,319.6 					"/>
				</g>
				<g>
					<polygon class="st1" points="440.4,324 448.6,321.8 440.4,319.6 					"/>
				</g>
			</g>
		</g>
	</g>
	<g id="LINE_90_">
		<g>
			<g>
				<line class="st5" x1="180.6" y1="262.9" x2="180.6" y2="273.7"/>
				<g>
					<polygon class="st1" points="178.4,264.4 180.6,256.3 182.8,264.4 					"/>
				</g>
				<g>
					<polygon class="st1" points="178.4,272.2 180.6,280.4 182.8,272.2 					"/>
				</g>
			</g>
		</g>
	</g>
	<g id="LINE_91_">
		<g>
			<g>
				<line class="st5" x1="226.9" y1="227.6" x2="226.9" y2="262.8"/>
				<g>
					<polygon class="st1" points="224.7,229.1 226.9,220.9 229,229.1 					"/>
				</g>
				<g>
					<polygon class="st1" points="224.7,261.3 226.9,269.5 229,261.3 					"/>
				</g>
			</g>
		</g>
	</g>
	<g id="LINE_94_">
		<g>
			<g>
				<line class="st5" x1="341.3" y1="123.4" x2="341.3" y2="150"/>
				<g>
					<polygon class="st1" points="339.1,124.9 341.3,116.8 343.5,124.9 					"/>
				</g>
				<g>
					<polygon class="st1" points="339.1,148.6 341.3,156.7 343.5,148.6 					"/>
				</g>
			</g>
		</g>
	</g>
	<g id="LINE_96_">
		<g>
			<g>
				<line class="st5" x1="498.4" y1="273.5" x2="498.4" y2="263.2"/>
				<g>
					<polygon class="st1" points="500.6,272 498.4,280.1 496.2,272 					"/>
				</g>
				<g>
					<polygon class="st1" points="500.6,264.7 498.4,256.5 496.2,264.7 					"/>
				</g>
			</g>
		</g>
	</g>
	<g id="LINE_108_">
		<g>
			<g>
				<line class="st5" x1="522.1" y1="273.5" x2="522.1" y2="234.8"/>
				<g>
					<polygon class="st1" points="524.3,272 522.1,280.1 520,272 					"/>
				</g>
				<g>
					<polygon class="st1" points="524.3,236.3 522.1,228.2 520,236.3 					"/>
				</g>
			</g>
		</g>
	</g>
</g>
<g>
	<g id="LINE_2_">
		<g>
			<line class="st7" x1="131.9" y1="156.7" x2="131.9" y2="116.8"/>
		</g>
	</g>
	<g id="LINE_4_">
		<g>
			<line class="st7" x1="112.1" y1="156.7" x2="112.1" y2="132.1"/>
		</g>
	</g>
	<g id="LINE_5_">
		<g>
			<line class="st7" x1="113.6" y1="130.9" x2="273.5" y2="130.9"/>
		</g>
	</g>
	<g id="LINE_6_">
		<g>
			<line class="st7" x1="131.9" y1="116.8" x2="255.2" y2="116.8"/>
		</g>
	</g>
	<g id="LINE_11_">
		<g>
			<line class="st7" x1="255.2" y1="156.7" x2="255.2" y2="116.8"/>
		</g>
	</g>
</g>
<g>
	<g id="LINE_40_">
		<g>
			<line class="st7" x1="87.7" y1="232.5" x2="158.8" y2="232.5"/>
		</g>
	</g>
	<g id="LINE_41_">
		<g>
			<line class="st7" x1="158.8" y1="280.1" x2="158.8" y2="232.5"/>
		</g>
	</g>
	<g id="LINE_100_">
		<g>
			<line class="st7" x1="191.8" y1="256.6" x2="87.7" y2="256.6"/>
		</g>
	</g>
	<g id="LINE_101_">
		<g>
			<line class="st7" x1="191.8" y1="256.6" x2="191.8" y2="280.1"/>
		</g>
	</g>
</g>
<g>
	<g id="LINE_102_">
		<g>
			<line class="st7" x1="306.9" y1="256.6" x2="448.6" y2="256.6"/>
		</g>
	</g>
	<g id="LINE_103_">
		<g>
			<line class="st7" x1="448.6" y1="256.6" x2="448.6" y2="280.1"/>
		</g>
	</g>
	<g id="LINE_104_">
		<g>
			<line class="st7" x1="397.6" y1="280.1" x2="397.6" y2="228.2"/>
		</g>
	</g>
	<g id="LINE_105_">
		<g>
			<line class="st7" x1="397.6" y1="228.2" x2="306.9" y2="228.2"/>
		</g>
	</g>
</g>
<g id="LINE_113_">
	<line class="st7" x1="241.3" y1="280.1" x2="148.1" y2="212.3"/>
</g>
<g>
	<g id="LINE_97_">
		<line class="st5" x1="226.7" y1="220.9" x2="156.9" y2="220.9"/>
	</g>
	<g id="LINE_98_">
		<line class="st5" x1="214.8" y1="212.3" x2="148.2" y2="212.3"/>
	</g>
	<g id="LINE_65_">
		<line class="st5" x1="214.8" y1="212.3" x2="226.7" y2="220.9"/>
	</g>
</g>
<g>
	<g id="LINE">
		<g>
			<line class="st8" x1="193.6" y1="69.2" x2="66.4" y2="167.4"/>
		</g>
	</g>
	<g id="LINE_1_">
		<g>
			<line class="st8" x1="193.6" y1="59.9" x2="66.4" y2="158.1"/>
		</g>
	</g>
	<g id="LINE_3_">
		<g>
			<line class="st8" x1="66.4" y1="167.4" x2="66.4" y2="158.1"/>
		</g>
	</g>
	<g id="LINE_7_">
		<g>
			<line class="st8" x1="80.2" y1="156.7" x2="275" y2="156.7"/>
		</g>
	</g>
	<g id="LINE_8_">
		<g>
			<line class="st8" x1="87.7" y1="165.4" x2="301.3" y2="165.4"/>
		</g>
	</g>
	<g id="LINE_9_">
		<g>
			<line class="st8" x1="79.1" y1="157.6" x2="79.1" y2="294.9"/>
		</g>
	</g>
	<g id="LINE_10_">
		<g>
			<line class="st8" x1="87.7" y1="220.9" x2="87.7" y2="280.1"/>
		</g>
	</g>
	<g id="LINE_12_">
		<g>
			<line class="st8" x1="275" y1="156.7" x2="275" y2="132.1"/>
		</g>
	</g>
	<g id="LINE_13_">
		<g>
			<line class="st8" x1="280.4" y1="156.7" x2="280.4" y2="136.2"/>
		</g>
	</g>
	<g id="LINE_14_">
		<g>
			<line class="st8" x1="193.6" y1="69.2" x2="320.7" y2="167.4"/>
		</g>
	</g>
	<g id="LINE_15_">
		<g>
			<line class="st8" x1="193.6" y1="59.9" x2="320.7" y2="158.1"/>
		</g>
	</g>
	<g id="LINE_16_">
		<g>
			<line class="st8" x1="320.7" y1="167.4" x2="320.7" y2="158.1"/>
		</g>
	</g>
	<g id="LINE_26_">
		<g>
			<line class="st8" x1="280.4" y1="156.7" x2="306.9" y2="156.7"/>
		</g>
	</g>
	<g id="LINE_27_">
		<g>
			<line class="st8" x1="301.3" y1="165.4" x2="301.3" y2="212.3"/>
		</g>
	</g>
	<g id="LINE_28_">
		<g>
			<line class="st8" x1="214.8" y1="212.3" x2="301.3" y2="212.3"/>
		</g>
	</g>
	<g id="LINE_29_">
		<g>
			<line class="st8" x1="87.7" y1="220.9" x2="142.8" y2="220.9"/>
		</g>
	</g>
	<g id="LINE_30_">
		<g>
			<line class="st8" x1="87.7" y1="212.3" x2="87.7" y2="165.4"/>
		</g>
	</g>
	<g id="LINE_31_">
		<g>
			<line class="st8" x1="87.7" y1="280.1" x2="301.3" y2="280.1"/>
		</g>
	</g>
	<g id="LINE_32_">
		<g>
			<line class="st8" x1="79.1" y1="294.9" x2="97.6" y2="294.9"/>
		</g>
	</g>
	<g id="LINE_33_">
		<g>
			<line class="st8" x1="102.4" y1="290.1" x2="442.8" y2="290.1"/>
		</g>
	</g>
	<g id="LINE_34_">
		<g>
			<line class="st8" x1="306.9" y1="280.1" x2="455.7" y2="280.1"/>
		</g>
	</g>
	<g id="LINE_35_">
		<g>
			<line class="st8" x1="102.4" y1="290.1" x2="97.6" y2="294.9"/>
		</g>
	</g>
	<g id="LINE_36_">
		<g>
			<line class="st8" x1="464.3" y1="294.9" x2="464.3" y2="265.3"/>
		</g>
	</g>
	<g id="LINE_37_">
		<g>
			<line class="st8" x1="455.7" y1="280.1" x2="455.7" y2="260.5"/>
		</g>
	</g>
	<g id="LINE_38_">
		<g>
			<line class="st8" x1="464.3" y1="294.9" x2="447.6" y2="294.9"/>
		</g>
	</g>
	<g id="LINE_39_">
		<g>
			<line class="st8" x1="442.8" y1="290.1" x2="447.6" y2="294.9"/>
		</g>
	</g>
	<g id="LINE_42_">
		<g>
			<line class="st8" x1="156.9" y1="218.7" x2="148.2" y2="218.7"/>
		</g>
	</g>
	<g id="LINE_43_">
		<g>
			<line class="st8" x1="156.9" y1="218.7" x2="156.9" y2="225"/>
		</g>
	</g>
	<g id="LINE_44_">
		<g>
			<line class="st8" x1="165.6" y1="225" x2="156.9" y2="225"/>
		</g>
	</g>
	<g id="LINE_45_">
		<g>
			<line class="st8" x1="148.2" y1="218.7" x2="148.2" y2="212.3"/>
		</g>
	</g>
	<g id="LINE_46_">
		<g>
			<line class="st8" x1="165.6" y1="225" x2="165.6" y2="231.4"/>
		</g>
	</g>
	<g id="LINE_47_">
		<g>
			<line class="st8" x1="142.8" y1="220.9" x2="224.1" y2="280.1"/>
		</g>
	</g>
	<g id="LINE_48_">
		<g>
			<line class="st8" x1="165.6" y1="231.4" x2="174.3" y2="231.4"/>
		</g>
	</g>
	<g id="LINE_49_">
		<g>
			<line class="st8" x1="174.3" y1="231.4" x2="174.3" y2="237.7"/>
		</g>
	</g>
	<g id="LINE_50_">
		<g>
			<line class="st8" x1="174.3" y1="237.7" x2="183.1" y2="237.7"/>
		</g>
	</g>
	<g id="LINE_51_">
		<g>
			<line class="st8" x1="183.1" y1="237.7" x2="183.1" y2="244.1"/>
		</g>
	</g>
	<g id="LINE_52_">
		<g>
			<line class="st8" x1="183.1" y1="244.1" x2="191.8" y2="244.1"/>
		</g>
	</g>
	<g id="LINE_53_">
		<g>
			<line class="st8" x1="191.8" y1="250.4" x2="200.5" y2="250.4"/>
		</g>
	</g>
	<g id="LINE_54_">
		<g>
			<line class="st8" x1="200.5" y1="250.4" x2="200.5" y2="256.8"/>
		</g>
	</g>
	<g id="LINE_55_">
		<g>
			<line class="st8" x1="200.5" y1="256.8" x2="209.2" y2="256.8"/>
		</g>
	</g>
	<g id="LINE_56_">
		<g>
			<line class="st8" x1="209.2" y1="256.8" x2="209.2" y2="263.1"/>
		</g>
	</g>
	<g id="LINE_57_">
		<g>
			<line class="st8" x1="209.2" y1="263.1" x2="218" y2="263.1"/>
		</g>
	</g>
	<g id="LINE_58_">
		<g>
			<line class="st8" x1="218" y1="263.1" x2="218" y2="269.5"/>
		</g>
	</g>
	<g id="LINE_59_">
		<g>
			<line class="st8" x1="218" y1="269.5" x2="226.7" y2="269.5"/>
		</g>
	</g>
	<g id="LINE_60_">
		<g>
			<line class="st8" x1="226.7" y1="269.5" x2="226.7" y2="275.8"/>
		</g>
	</g>
	<g id="LINE_61_">
		<g>
			<line class="st8" x1="226.7" y1="275.8" x2="235.4" y2="275.8"/>
		</g>
	</g>
	<g id="LINE_62_">
		<g>
			<line class="st8" x1="235.4" y1="275.8" x2="235.4" y2="280.1"/>
		</g>
	</g>
	<g id="LINE_63_">
		<g>
			<line class="st8" x1="191.8" y1="244.1" x2="191.8" y2="250.4"/>
		</g>
	</g>
	<g id="LINE_64_">
		<g>
			<line class="st8" x1="226.7" y1="220.9" x2="301.3" y2="220.9"/>
		</g>
	</g>
	<g id="LINE_66_">
		<g>
			<line class="st8" x1="301.3" y1="280.1" x2="301.3" y2="220.9"/>
		</g>
	</g>
	<g id="LINE_67_">
		<g>
			<line class="st8" x1="471.3" y1="269.2" x2="471.3" y2="260.1"/>
		</g>
	</g>
	<g id="LINE_68_">
		<g>
			<line class="st8" x1="306.9" y1="220.9" x2="345.4" y2="199"/>
		</g>
	</g>
	<g id="LINE_99_">
		<g>
			<line class="st8" x1="148.2" y1="212.3" x2="87.7" y2="212.3"/>
		</g>
	</g>
	<g id="LINE_109_">
		<g>
			<line class="st8" x1="306.9" y1="156.7" x2="306.9" y2="280.1"/>
		</g>
	</g>
	<g id="LINE_111_">
		<g>
			<line class="st8" x1="306.9" y1="177.6" x2="471.3" y2="269.2"/>
		</g>
	</g>
	<g id="LINE_112_">
		<g>
			<line class="st8" x1="306.9" y1="168.4" x2="471.3" y2="260.1"/>
		</g>
	</g>
</g>
</svg>
