<?xml version="1.0" encoding="utf-8"?>
<!-- Generator: Adobe Illustrator 25.2.1, SVG Export Plug-In . SVG Version: 6.00 Build 0)  -->
<svg version="1.1" id="_x30_" xmlns="http://www.w3.org/2000/svg" xmlns:xlink="http://www.w3.org/1999/xlink" x="0px" y="0px"
	 viewBox="0 0 552.8 437.3" style="enable-background:new 0 0 552.8 437.3;" xml:space="preserve">
<style type="text/css">
	.st0{fill-rule:evenodd;clip-rule:evenodd;fill:none;}
	.st1{clip-path:url(#SVGID_2_);fill:none;stroke:#211F1F;stroke-width:0.5;stroke-linejoin:round;}
	.st2{fill:none;stroke:#1D1D1B;stroke-width:0.25;stroke-miterlimit:10;}
	.st3{fill:#1D1D1B;}
	.st4{font-family:'ArialMT';}
	.st5{font-size:12px;}
	.st6{fill:none;stroke:#231F20;stroke-width:0.5;stroke-miterlimit:10;}
	.st7{fill:none;stroke:#231F20;stroke-width:0.5;stroke-miterlimit:10;stroke-dasharray:25.451,11.1985;}
	.st8{fill:none;stroke:#231F20;stroke-width:0.5;stroke-miterlimit:10;stroke-dasharray:5.0902,11.1985,25.451,11.1985;}
	.st9{fill:none;stroke:#1D1D1B;stroke-miterlimit:10;}
	.st10{fill:#231F20;}
	.st11{fill:none;stroke:#231F20;stroke-miterlimit:10;}
	.st12{fill:none;stroke:#231F20;stroke-miterlimit:10;stroke-dasharray:11.4491,11.4396,0,0;}
	.st13{fill:none;stroke:#231F20;stroke-miterlimit:10;stroke-dasharray:1.016700e-02,0;}
	.st14{fill:none;stroke:#231F20;stroke-miterlimit:10;stroke-dasharray:12.2004,12.1902,1.016700e-02,0;}
	.st15{fill:none;stroke:#231F20;stroke-miterlimit:10;stroke-dasharray:1.005200e-02,0;}
	.st16{fill:none;stroke:#231F20;stroke-miterlimit:10;stroke-dasharray:12.0629,12.0529,1.005200e-02,0;}
	.st17{fill:none;stroke:#231F20;stroke-miterlimit:10;stroke-dasharray:12.063,12.0529,1.005200e-02,0;}
	.st18{fill:none;}
	.st19{fill:url(#SVGID_3_);stroke:#231F20;stroke-miterlimit:10;}
</style>
<pattern  y="657.3" width="72" height="72" patternUnits="userSpaceOnUse" id="diagonal_cross_hatch_2" viewBox="6.2 -86.2 72 72" style="overflow:visible;">
	<g>
		<rect x="6.2" y="-86.2" class="st0" width="72" height="72"/>
		<g>
			<defs>
				<rect id="SVGID_1_" x="6.2" y="-86.2" width="72" height="72"/>
			</defs>
			<clipPath id="SVGID_2_">
				<use xlink:href="#SVGID_1_"  style="overflow:visible;"/>
			</clipPath>
			<line class="st1" x1="0.2" y1="-74.2" x2="18.2" y2="-92.2"/>
			<line class="st1" x1="0.2" y1="-68.2" x2="24.2" y2="-92.2"/>
			<line class="st1" x1="0.2" y1="-62.2" x2="30.2" y2="-92.2"/>
			<line class="st1" x1="0.2" y1="-56.2" x2="36.2" y2="-92.2"/>
			<line class="st1" x1="0.2" y1="-50.2" x2="42.2" y2="-92.2"/>
			<line class="st1" x1="0.2" y1="-44.2" x2="48.2" y2="-92.2"/>
			<line class="st1" x1="0.2" y1="-38.2" x2="54.2" y2="-92.2"/>
			<line class="st1" x1="0.2" y1="-32.2" x2="60.2" y2="-92.2"/>
			<line class="st1" x1="0.2" y1="-26.2" x2="66.2" y2="-92.2"/>
			<line class="st1" x1="0.2" y1="-20.2" x2="72.2" y2="-92.2"/>
			<line class="st1" x1="0.2" y1="-14.2" x2="78.2" y2="-92.2"/>
			<line class="st1" x1="0.2" y1="-8.2" x2="84.2" y2="-92.2"/>
			<line class="st1" x1="6.2" y1="-8.2" x2="84.2" y2="-86.2"/>
			<line class="st1" x1="12.2" y1="-8.2" x2="84.2" y2="-80.2"/>
			<line class="st1" x1="18.2" y1="-8.2" x2="84.2" y2="-74.2"/>
			<line class="st1" x1="24.2" y1="-8.2" x2="84.2" y2="-68.2"/>
			<line class="st1" x1="30.2" y1="-8.2" x2="84.2" y2="-62.2"/>
			<line class="st1" x1="36.2" y1="-8.2" x2="84.2" y2="-56.2"/>
			<line class="st1" x1="42.2" y1="-8.2" x2="84.2" y2="-50.2"/>
			<line class="st1" x1="48.2" y1="-8.2" x2="84.2" y2="-44.2"/>
			<line class="st1" x1="54.2" y1="-8.2" x2="84.2" y2="-38.2"/>
			<line class="st1" x1="52.2" y1="-0.2" x2="94.2" y2="-42.2"/>
			<line class="st1" x1="58.2" y1="-0.2" x2="94.2" y2="-36.2"/>
			<line class="st1" x1="64.2" y1="-0.2" x2="94.2" y2="-30.2"/>
		</g>
	</g>
</pattern>
<g>
	<g>
		<polyline class="st2" points="355.1,382.4 348.5,411.4 320.6,411.4 		"/>
		<g>
			<polygon class="st3" points="351.8,383.7 357,373.8 357.5,385 			"/>
		</g>
	</g>
</g>
<text transform="matrix(1 0 0 1 197.9113 415.1128)" class="st3 st4 st5">Not less than 900 mm </text>
<text transform="matrix(1 0 0 1 178.3795 26.1362)" class="st3 st4 st5">Less than 900 mm </text>
<g>
	<g>
		<polyline class="st2" points="229.5,166.3 186.9,139.4 186.9,34.7 		"/>
		<g>
			<polygon class="st3" points="229.4,162.8 237,171 226.3,167.7 			"/>
		</g>
	</g>
</g>
<g>
	<g>
		<polyline class="st2" points="375.9,31.8 363.9,21.2 280.8,21.5 		"/>
		<g>
			<polygon class="st3" points="376.4,28.3 382.6,37.7 372.5,32.7 			"/>
		</g>
	</g>
</g>
<g id="LINE_33_">
	<g>
		<g>
			<g>
				<line class="st6" x1="394.5" y1="433.3" x2="394.5" y2="430"/>
				<line class="st7" x1="394.5" y1="415.1" x2="394.5" y2="373.8"/>
				<line class="st8" x1="394.5" y1="366.3" x2="394.5" y2="21.5"/>
				<line class="st6" x1="394.5" y1="14" x2="394.5" y2="10.7"/>
			</g>
		</g>
	</g>
</g>
<g>
	<path class="st9" d="M314.3,235.6"/>
	<text transform="matrix(1 0 0 1 178.5602 253.4115)" class="st10 st4 st5">1</text>
	<g id="POLYLINE_2_">
		<g>
			<rect x="49.5" y="178.1" class="st11" width="264.9" height="211.6"/>
		</g>
	</g>
	<g id="LINE">
		<g id="LINE_17_">
			<g>
				<g>
					<g>
						<line class="st11" x1="121.5" y1="283.9" x2="126.8" y2="283.9"/>
						<line class="st11" x1="136.8" y1="283.9" x2="136.8" y2="283.9"/>
						<line class="st12" x1="136.8" y1="283.9" x2="237" y2="283.9"/>
						<line class="st11" x1="237" y1="283.9" x2="242.3" y2="283.9"/>
					</g>
				</g>
			</g>
		</g>
	</g>
	<g id="LINE_1_">
		<g id="LINE_16_">
			<g>
				<g>
					<g>
						<line class="st11" x1="121.5" y1="283.9" x2="118.6" y2="279.5"/>
						<line class="st13" x1="112.6" y1="270.7" x2="112.5" y2="270.7"/>
						<line class="st14" x1="112.5" y1="270.7" x2="52.4" y2="182.4"/>
						<line class="st11" x1="52.4" y1="182.4" x2="49.5" y2="178.1"/>
					</g>
				</g>
			</g>
		</g>
	</g>
	<g id="LINE_2_">
		<g id="LINE_15_">
			<g>
				<g>
					<g>
						<line class="st11" x1="121.5" y1="283.9" x2="118.6" y2="288.2"/>
						<line class="st15" x1="112.7" y1="297" x2="112.6" y2="297"/>
						<line class="st16" x1="112.6" y1="297" x2="53.4" y2="384.4"/>
						<line class="st11" x1="53.4" y1="384.4" x2="50.5" y2="388.8"/>
					</g>
				</g>
			</g>
		</g>
	</g>
	<g id="LINE_3_">
		<g id="LINE_14_">
			<g>
				<g>
					<g>
						<line class="st11" x1="242.3" y1="283.9" x2="245.2" y2="279.5"/>
						<line class="st13" x1="251.2" y1="270.7" x2="251.3" y2="270.7"/>
						<line class="st14" x1="251.3" y1="270.7" x2="311.4" y2="182.4"/>
						<line class="st11" x1="311.4" y1="182.4" x2="314.3" y2="178.1"/>
					</g>
				</g>
			</g>
		</g>
	</g>
	<g id="LINE_4_">
		<g id="LINE_13_">
			<g>
				<g>
					<g>
						<line class="st11" x1="242.3" y1="283.9" x2="245.2" y2="288.2"/>
						<line class="st15" x1="251.1" y1="297" x2="251.1" y2="297"/>
						<line class="st17" x1="251.1" y1="297" x2="310.4" y2="384.4"/>
						<line class="st11" x1="310.4" y1="384.4" x2="313.3" y2="388.8"/>
					</g>
				</g>
			</g>
		</g>
	</g>
</g>
<g>
	<g id="MTEXT">
		<g>
			<text transform="matrix(1 0 0 1 289.0322 106.5255)" class="st10 st4 st5">10a</text>
		</g>
	</g>
	<g id="LINE_7_">
		<g>
			<line class="st11" x1="239.3" y1="37.5" x2="357" y2="37.5"/>
		</g>
	</g>
	<g id="LINE_8_">
		<g>
			<line class="st11" x1="370.7" y1="160.8" x2="370.7" y2="37.5"/>
		</g>
	</g>
	<g id="LINE_9_">
		<g>
			<line class="st11" x1="357" y1="37.5" x2="370.7" y2="37.5"/>
		</g>
	</g>
	<g id="LINE_10_">
		<g>
			<polyline class="st11" points="370.7,160.8 239.3,160.8 239.3,37.5 			"/>
		</g>
	</g>
</g>
<rect x="411.3" y="144.4" class="st18" width="94.8" height="33.7"/>
<text transform="matrix(1 0 0 1 411.2607 152.9788)"><tspan x="0" y="0" class="st4 st5">Wall with a FRL </tspan><tspan x="0" y="14" class="st4 st5">of 60/60/60</tspan></text>
<rect x="428" y="224.7" class="st18" width="59.6" height="37"/>
<text transform="matrix(1 0 0 1 428.0496 233.2809)"><tspan x="0" y="0" class="st4 st5">Allotment </tspan><tspan x="0" y="14" class="st4 st5">boundary</tspan></text>
<pattern  id="SVGID_3_" xlink:href="#diagonal_cross_hatch_2" patternTransform="matrix(0.9348 0 0 1.1513 -421.8828 1252.3196)">
</pattern>
<rect x="239.3" y="145.7" class="st19" width="75" height="15.1"/>
<g>
	<g>
		<line class="st2" x1="407.3" y1="152.2" x2="323.2" y2="152.2"/>
		<g>
			<polygon class="st3" points="325.2,149.3 314.3,152.2 325.2,155.1 			"/>
		</g>
	</g>
</g>
<g>
	<g>
		<line class="st2" x1="425.3" y1="231.1" x2="404.1" y2="231.1"/>
		<g>
			<polygon class="st3" points="406.1,228.2 395.2,231.1 406.1,234 			"/>
		</g>
	</g>
</g>
</svg>
