<?xml version="1.0" encoding="utf-8"?>
<!-- Generator: Adobe Illustrator 25.2.1, SVG Export Plug-In . SVG Version: 6.00 Build 0)  -->
<svg version="1.1" xmlns="http://www.w3.org/2000/svg" xmlns:xlink="http://www.w3.org/1999/xlink" x="0px" y="0px"
	 viewBox="0 0 552.8 870" style="enable-background:new 0 0 552.8 870;" xml:space="preserve">
<style type="text/css">
	.st0{fill:none;stroke:#231F20;stroke-miterlimit:10;}
	.st1{font-family:'ArialMT';}
	.st2{font-size:11.6925px;}
	.st3{fill:#231F20;}
	.st4{font-size:12px;}
	.st5{font-family:'Arial-ItalicMT';}
	.st6{fill:none;stroke:#000000;stroke-width:0.5102;stroke-linecap:round;stroke-linejoin:round;stroke-miterlimit:10;}
	.st7{fill:none;stroke:#231F20;stroke-width:0.25;stroke-miterlimit:10;}
	.st8{fill:none;stroke:#231F20;stroke-width:0.75;stroke-linecap:round;stroke-linejoin:round;stroke-miterlimit:10;}
</style>
<g id="LINE_50">
	<g>
		<g id="LWPOLYLINE">
			<g>
				<polyline class="st0" points="523,461.5 391.6,461.5 391.6,136.1 523,136.1 				"/>
			</g>
		</g>
		<g id="LWPOLYLINE_1_">
			<g>
				<polyline class="st0" points="363.8,704.8 363.8,481 207.2,481 207.2,461.5 363.8,461.5 363.8,170.9 302.5,170.9 302.5,160.1 
					282.9,160.1 282.9,145.7 294.3,145.7 523,69.6 				"/>
			</g>
		</g>
		<g id="LWPOLYLINE_2_">
			<g>
				<line class="st0" x1="111.4" y1="840.9" x2="523" y2="840.9"/>
			</g>
		</g>
		<g id="LWPOLYLINE_3_">
			<g>
				<line class="st0" x1="363.8" y1="207.1" x2="391.6" y2="207.1"/>
			</g>
		</g>
		<g id="LWPOLYLINE_7_">
			<g>
				<polyline class="st0" points="391.6,451.9 372.1,451.9 363.8,456.4 				"/>
			</g>
		</g>
		<g id="LWPOLYLINE_8_">
			<g>
				<line class="st0" x1="363.8" y1="528" x2="391.6" y2="528"/>
			</g>
		</g>
		<g id="LWPOLYLINE_9_">
			<g>
				<polyline class="st0" points="363.8,840.9 363.8,732 351.5,711.4 372.1,700.3 391.6,700.3 				"/>
			</g>
		</g>
		<g id="LWPOLYLINE_10_">
			<g>
				<polyline class="st0" points="523,805.5 391.6,805.5 391.6,840.9 				"/>
			</g>
		</g>
		<g id="LWPOLYLINE_11_">
			<g>
				<polyline class="st0" points="523,786.1 391.6,786.1 391.6,481 523,481 				"/>
			</g>
		</g>
	</g>
	<g>
		<text transform="matrix(1 0 0 1 281.387 598.8793)" class="st1 st2">P</text>
		<g>
			<text transform="matrix(1 0 0 1 226.4933 611.4993)"><tspan x="0" y="0" class="st3 st1 st4">(lower storey </tspan><tspan x="72" y="0" class="st3 st5 st4">glazing</tspan><tspan x="110" y="0" class="st3 st1 st4">) </tspan></text>
		</g>
	</g>
	<g id="MTEXT_6_">
		<g>
			<text transform="matrix(1 0 0 1 219.4816 393.7075)"><tspan x="0" y="0" class="st3 st1 st4">Shading projection</tspan><tspan x="0" y="14" class="st3 st1 st4">or device </tspan></text>
		</g>
	</g>
	<g>
		<g id="MTEXT_1_">
			<text transform="matrix(1 0 0 1 269.3293 498.7761)" class="st1 st2">G</text>
		</g>
		<g>
			<text transform="matrix(1 0 0 1 213.6182 512.33)"><tspan x="0" y="0" class="st3 st1 st4">(lower storey </tspan><tspan x="72" y="0" class="st3 st5 st4">glazing</tspan><tspan x="110" y="0" class="st3 st1 st4">) </tspan></text>
		</g>
	</g>
	<g>
		<g id="MTEXT_2_">
			<text transform="matrix(1 0 0 1 58.9074 575.194)" class="st1 st2">H</text>
		</g>
		<g>
			<text transform="matrix(1 0 0 1 31.2322 590.6626)"><tspan x="0" y="0" class="st3 st1 st4">(lower storey </tspan><tspan x="11.7" y="14.4" class="st3 st5 st4">glazing</tspan><tspan x="49.7" y="14.4" class="st3 st1 st4">) </tspan></text>
		</g>
	</g>
	<g>
		<g id="MTEXT_8_">
			<text transform="matrix(1 0 0 1 57.5739 295.9868)" class="st1 st2">H</text>
		</g>
		<g>
			<text transform="matrix(1 0 0 1 28.8909 311.4553)"><tspan x="0" y="0" class="st3 st1 st4">(upper storey </tspan><tspan x="12.7" y="14.4" class="st3 st5 st4">glazing</tspan><tspan x="50.7" y="14.4" class="st3 st1 st4">) </tspan></text>
		</g>
	</g>
	<g>
		<g id="MTEXT_3_">
			<text transform="matrix(1 0 0 1 192.7919 175.8151)" class="st1 st2">G</text>
		</g>
		<g>
			<text transform="matrix(1 0 0 1 135.0966 190.8326)"><tspan x="0" y="0" class="st3 st1 st4">(upper storey </tspan><tspan x="74" y="0" class="st3 st5 st4">glazing</tspan><tspan x="112.1" y="0" class="st3 st1 st4">) </tspan></text>
		</g>
	</g>
	<g id="MTEXT_4_">
		<g>
			<text transform="matrix(1 0 0 1 158.6917 118.2111)"><tspan x="0" y="0" class="st3 st1 st4">Shading projection </tspan><tspan x="0" y="14.4" class="st3 st1 st4">or device </tspan></text>
		</g>
	</g>
	<g>
		<g id="MTEXT_7_">
			<text transform="matrix(1 0 0 1 328.392 38.1653)" class="st1 st2">P</text>
		</g>
		<g>
			<text transform="matrix(1 0 0 1 299.709 53.6339)"><tspan x="0" y="0" class="st3 st1 st4">(upper storey </tspan><tspan x="12.7" y="14.4" class="st3 st5 st4">glazing</tspan><tspan x="50.7" y="14.4" class="st3 st1 st4">) </tspan></text>
		</g>
	</g>
	<g id="LINE_12_">
		<line class="st6" x1="357.2" y1="451.9" x2="212.5" y2="451.9"/>
	</g>
	<g id="LINE_5_">
		<path class="st6" d="M331.2,481"/>
	</g>
	<g>
		<g id="LINE_17_">
			<g>
				<line class="st7" x1="207.2" y1="487.6" x2="207.2" y2="625.3"/>
			</g>
		</g>
		<g id="LINE_15_">
			<g>
				<line class="st7" x1="200.6" y1="481" x2="101.2" y2="481"/>
			</g>
		</g>
		<g id="LINE_14_">
			<g>
				<line class="st7" x1="357.2" y1="700.3" x2="101.2" y2="700.3"/>
			</g>
		</g>
		<g id="LINE_11_">
			<g>
				<line class="st7" x1="206.1" y1="451.9" x2="101.2" y2="451.9"/>
			</g>
		</g>
		<g id="LINE_10_">
			<g>
				<line class="st7" x1="276.3" y1="160.1" x2="101.2" y2="160.1"/>
			</g>
		</g>
		<g id="LINE_8_">
			<g>
				<line class="st7" x1="357.2" y1="207.1" x2="253.5" y2="207.1"/>
			</g>
		</g>
		<g id="LINE_6_">
			<g>
				<line class="st7" x1="357.2" y1="528" x2="326.2" y2="528"/>
			</g>
		</g>
		<g id="LINE_4_">
			<g>
				<line class="st7" x1="282.9" y1="139.1" x2="282.9" y2="118.5"/>
			</g>
		</g>
		<g id="LINE_3_">
			<g>
				<line class="st7" x1="282.9" y1="112.2" x2="282.9" y2="72.1"/>
			</g>
		</g>
		<g id="LINE_2_">
			<g>
				<line class="st7" x1="376" y1="201.8" x2="376" y2="72.1"/>
			</g>
		</g>
	</g>
	<g>
		<g id="LINE_16_">
			<g id="LINE_35_">
				<g>
					<g>
						<g>
							<g>
								<g>
									<line class="st7" x1="216.1" y1="620.3" x2="367.1" y2="620.3"/>
									<g>
										<polygon class="st3" points="218.1,623.2 207.2,620.3 218.1,617.4 										"/>
									</g>
									<g>
										<polygon class="st3" points="365.1,623.2 376,620.3 365.1,617.4 										"/>
									</g>
								</g>
							</g>
						</g>
					</g>
				</g>
			</g>
		</g>
		<g id="LINE_13_">
			<g id="LINE_34_">
				<g>
					<g>
						<g>
							<g>
								<g>
									<line class="st7" x1="106.1" y1="489.9" x2="106.1" y2="691.4"/>
									<g>
										<polygon class="st3" points="103.2,491.9 106.1,481 109.1,491.9 										"/>
									</g>
									<g>
										<polygon class="st3" points="103.2,689.5 106.1,700.3 109.1,689.5 										"/>
									</g>
								</g>
							</g>
						</g>
					</g>
				</g>
			</g>
		</g>
		<g id="LINE_9_">
			<g id="LINE_33_">
				<g>
					<g>
						<g>
							<g>
								<g>
									<line class="st7" x1="106.1" y1="443" x2="106.1" y2="168.9"/>
									<g>
										<polygon class="st3" points="109.1,441.1 106.1,451.9 103.2,441.1 										"/>
									</g>
									<g>
										<polygon class="st3" points="109.1,170.9 106.1,160.1 103.2,170.9 										"/>
									</g>
								</g>
							</g>
						</g>
					</g>
				</g>
			</g>
		</g>
		<g id="LINE_7_">
			<g id="LINE_32_">
				<g>
					<g>
						<g>
							<g>
								<g>
									<line class="st7" x1="258.5" y1="168.9" x2="258.5" y2="198.2"/>
									<g>
										<polygon class="st3" points="255.6,170.9 258.5,160.1 261.4,170.9 										"/>
									</g>
									<g>
										<polygon class="st3" points="255.6,196.2 258.5,207.1 261.4,196.2 										"/>
									</g>
								</g>
							</g>
						</g>
					</g>
				</g>
			</g>
		</g>
		<g id="LINE_18_">
			<g id="LINE_31_">
				<g>
					<g>
						<g>
							<g>
								<g>
									<line class="st7" x1="331.2" y1="489.9" x2="331.2" y2="519.2"/>
									<g>
										<polygon class="st3" points="328.3,491.9 331.2,481 334.1,491.9 										"/>
									</g>
									<g>
										<polygon class="st3" points="328.3,517.2 331.2,528 334.1,517.2 										"/>
									</g>
								</g>
							</g>
						</g>
					</g>
				</g>
			</g>
		</g>
		<g id="LINE_1_">
			<g id="LINE_30_">
				<g>
					<g>
						<g>
							<g>
								<g>
									<line class="st7" x1="291.8" y1="77.1" x2="367.1" y2="77.1"/>
									<g>
										<polygon class="st3" points="293.8,80 282.9,77.1 293.8,74.2 										"/>
									</g>
									<g>
										<polygon class="st3" points="365.1,80 376,77.1 365.1,74.2 										"/>
									</g>
								</g>
							</g>
						</g>
					</g>
				</g>
			</g>
		</g>
	</g>
	<g>
		<g>
			<g>
				<g>
					<g>
						<polyline class="st7" points="322.3,461.1 294.6,405.8 272.1,405.8 						"/>
						<g>
							<polygon class="st3" points="324,458.1 326.2,469.1 318.8,460.7 							"/>
						</g>
					</g>
				</g>
			</g>
		</g>
		<g>
			<g>
				<g>
					<g>
						<polyline class="st7" points="327.4,148.8 295.4,115.1 261.7,115.1 						"/>
						<g>
							<polygon class="st3" points="328.1,145.4 333.5,155.2 323.9,149.4 							"/>
						</g>
					</g>
				</g>
			</g>
		</g>
	</g>
	<g>
		<g id="LWPOLYLINE_12_">
			<line class="st8" x1="207.2" y1="461.5" x2="207.2" y2="339"/>
		</g>
		<g id="CIRCLE">
			<path class="st8" d="M205.6,335.8c0-2.1,1.7-3.8,3.8-3.8c2.1,0,3.8,1.7,3.8,3.8s-1.7,3.8-3.8,3.8
				C207.3,339.7,205.6,337.9,205.6,335.8L205.6,335.8z"/>
		</g>
		<g id="LWPOLYLINE_13_">
			<line class="st8" x1="211.6" y1="461.5" x2="211.6" y2="339"/>
		</g>
	</g>
	<g>
		<g id="LWPOLYLINE_20_">
			<g>
				<line class="st8" x1="379.4" y1="214.4" x2="379.4" y2="444.6"/>
			</g>
		</g>
		<g id="LWPOLYLINE_19_">
			<g>
				<line class="st8" x1="376" y1="214.4" x2="376" y2="444.6"/>
			</g>
		</g>
		<g id="LWPOLYLINE_18_">
			<g>
				<polyline class="st8" points="372.8,207.1 372.8,214.4 382.6,214.4 382.6,207.1 				"/>
			</g>
		</g>
		<g id="LWPOLYLINE_17_">
			<g>
				<polyline class="st8" points="372.8,451.9 372.8,444.6 382.6,444.6 382.6,451.9 				"/>
			</g>
		</g>
		<g id="LWPOLYLINE_16_">
			<g>
				<line class="st8" x1="379.4" y1="535.3" x2="379.4" y2="693"/>
			</g>
		</g>
		<g id="LWPOLYLINE_15_">
			<g>
				<line class="st8" x1="376" y1="535.3" x2="376" y2="693"/>
			</g>
		</g>
		<g id="LWPOLYLINE_14_">
			<g>
				<polyline class="st8" points="372.8,528 372.8,535.3 382.6,535.3 382.6,528 				"/>
			</g>
		</g>
		<g id="LWPOLYLINE_6_">
			<g>
				<polyline class="st8" points="372.8,700.3 372.8,693 382.6,693 382.6,700.3 				"/>
			</g>
		</g>
	</g>
</g>
<g id="SKM_REF">
</g>
</svg>
