<?xml version="1.0" encoding="utf-8"?>
<!-- Generator: Adobe Illustrator 25.2.1, SVG Export Plug-In . SVG Version: 6.00 Build 0)  -->
<svg version="1.1" id="_x30_" xmlns="http://www.w3.org/2000/svg" xmlns:xlink="http://www.w3.org/1999/xlink" x="0px" y="0px"
	 viewBox="0 0 552.8 228.8" style="enable-background:new 0 0 552.8 228.8;" xml:space="preserve">
<style type="text/css">
	.st0{fill-rule:evenodd;clip-rule:evenodd;fill:none;}
	.st1{clip-path:url(#SVGID_2_);fill:none;stroke:#221F1F;stroke-width:0.5;stroke-linejoin:round;}
	.st2{fill:#231F20;}
	.st3{font-family:'ArialMT';}
	.st4{font-size:12px;}
	.st5{fill:none;stroke:#231F20;stroke-linecap:round;stroke-miterlimit:10;}
	.st6{fill:none;stroke:#231F20;stroke-linecap:round;stroke-miterlimit:10;stroke-dasharray:13.0417,13.0417;}
	.st7{fill:none;stroke:#231F20;stroke-linecap:round;stroke-miterlimit:10;stroke-dasharray:13.9671,13.9671;}
	.st8{fill:none;stroke:#231F20;stroke-linecap:round;stroke-miterlimit:10;stroke-dasharray:13.7975,13.7975;}
	.st9{fill:none;stroke:#231F20;stroke-linecap:round;stroke-miterlimit:10;stroke-dasharray:14.8352,14.8352;}
	.st10{fill:none;stroke:#231F20;stroke-linecap:round;stroke-miterlimit:10;stroke-dasharray:10.9954,10.9954;}
	.st11{fill:none;stroke:#231F20;stroke-linecap:round;stroke-miterlimit:10;stroke-dasharray:10.9955,10.9955;}
	.st12{fill:none;stroke:#231F20;stroke-linecap:round;stroke-miterlimit:10;stroke-dasharray:10.9953,10.9953;}
	.st13{fill:url(#SVGID_3_);}
	.st14{fill:url(#SVGID_4_);}
	.st15{fill:none;}
	.st16{fill:none;stroke:#231F20;stroke-width:0.25;stroke-miterlimit:10;}
</style>
<pattern  y="541.1" width="72" height="72" patternUnits="userSpaceOnUse" id="diagonal_cross_hatch" viewBox="6.2 -86.2 72 72" style="overflow:visible;">
	<g>
		<rect x="6.2" y="-86.2" class="st0" width="72" height="72"/>
		<g>
			<defs>
				<rect id="SVGID_1_" x="6.2" y="-86.2" width="72" height="72"/>
			</defs>
			<clipPath id="SVGID_2_">
				<use xlink:href="#SVGID_1_"  style="overflow:visible;"/>
			</clipPath>
			<line class="st1" x1="0.2" y1="-74.2" x2="18.2" y2="-92.2"/>
			<line class="st1" x1="0.2" y1="-68.2" x2="24.2" y2="-92.2"/>
			<line class="st1" x1="0.2" y1="-62.2" x2="30.2" y2="-92.2"/>
			<line class="st1" x1="0.2" y1="-56.2" x2="36.2" y2="-92.2"/>
			<line class="st1" x1="0.2" y1="-50.2" x2="42.2" y2="-92.2"/>
			<line class="st1" x1="0.2" y1="-44.2" x2="48.2" y2="-92.2"/>
			<line class="st1" x1="0.2" y1="-38.2" x2="54.2" y2="-92.2"/>
			<line class="st1" x1="0.2" y1="-32.2" x2="60.2" y2="-92.2"/>
			<line class="st1" x1="0.2" y1="-26.2" x2="66.2" y2="-92.2"/>
			<line class="st1" x1="0.2" y1="-20.2" x2="72.2" y2="-92.2"/>
			<line class="st1" x1="0.2" y1="-14.2" x2="78.2" y2="-92.2"/>
			<line class="st1" x1="0.2" y1="-8.2" x2="84.2" y2="-92.2"/>
			<line class="st1" x1="6.2" y1="-8.2" x2="84.2" y2="-86.2"/>
			<line class="st1" x1="12.2" y1="-8.2" x2="84.2" y2="-80.2"/>
			<line class="st1" x1="18.2" y1="-8.2" x2="84.2" y2="-74.2"/>
			<line class="st1" x1="24.2" y1="-8.2" x2="84.2" y2="-68.2"/>
			<line class="st1" x1="30.2" y1="-8.2" x2="84.2" y2="-62.2"/>
			<line class="st1" x1="36.2" y1="-8.2" x2="84.2" y2="-56.2"/>
			<line class="st1" x1="42.2" y1="-8.2" x2="84.2" y2="-50.2"/>
			<line class="st1" x1="48.2" y1="-8.2" x2="84.2" y2="-44.2"/>
			<line class="st1" x1="54.2" y1="-8.2" x2="84.2" y2="-38.2"/>
			<line class="st1" x1="52.2" y1="-0.2" x2="94.2" y2="-42.2"/>
			<line class="st1" x1="58.2" y1="-0.2" x2="94.2" y2="-36.2"/>
			<line class="st1" x1="64.2" y1="-0.2" x2="94.2" y2="-30.2"/>
		</g>
	</g>
</pattern>
<g id="MTEXT">
	<g>
		<text transform="matrix(1 0 0 1 247.7915 111.2812)" class="st2 st3 st4">10a</text>
	</g>
</g>
<g id="MTEXT_3_">
	<g>
		<text transform="matrix(1 0 0 1 110.7828 92.28)" class="st2 st3 st4">1</text>
	</g>
</g>
<g id="MTEXT_7_">
	<g>
		<text transform="matrix(1 0 0 1 448.8041 86.2796)" class="st2 st3 st4">1</text>
	</g>
</g>
<g id="MTEXT_1_">
	<g>
		<text transform="matrix(1 0 0 1 311.6367 111.2812)" class="st2 st3 st4">10a</text>
	</g>
</g>
<g id="MTEXT_2_">
	<g>
		<text transform="matrix(1 0 0 1 241.1253 193.5013)" class="st2 st3 st4">Less than 900 mm</text>
	</g>
</g>
<g>
	<g id="LINE_11_">
		<g>
			<line class="st5" x1="290.8" y1="146.4" x2="290.8" y2="69.8"/>
		</g>
	</g>
	<g id="LINE_12_">
		<g>
			<line class="st5" x1="226.2" y1="69.8" x2="290.8" y2="69.8"/>
		</g>
	</g>
	<g id="LINE_13_">
		<g>
			<line class="st5" x1="226.2" y1="146.4" x2="226.2" y2="69.8"/>
		</g>
	</g>
	<g id="LINE_14_">
		<g>
			<line class="st5" x1="217.7" y1="146.4" x2="290.8" y2="146.4"/>
		</g>
	</g>
	<g id="LINE_15_">
		<g>
			<line class="st5" x1="290.8" y1="146.4" x2="290.8" y2="69.8"/>
		</g>
	</g>
	<g id="LINE_16_">
		<g>
			<line class="st5" x1="355.4" y1="69.8" x2="290.8" y2="69.8"/>
		</g>
	</g>
	<g id="LINE_17_">
		<g>
			<line class="st5" x1="355.4" y1="146.4" x2="355.4" y2="69.8"/>
		</g>
	</g>
	<g id="LINE_18_">
		<g>
			<line class="st5" x1="363.9" y1="146.4" x2="290.8" y2="146.4"/>
		</g>
	</g>
	<g id="LINE_19_">
		<g>
			<line class="st5" x1="363.9" y1="146.4" x2="363.9" y2="69.8"/>
		</g>
	</g>
	<g id="LINE_20_">
		<g>
			<line class="st5" x1="355.4" y1="69.8" x2="363.9" y2="69.8"/>
		</g>
	</g>
	<g id="LINE_33_">
		<g>
			<line class="st5" x1="226.2" y1="146.4" x2="226.2" y2="69.8"/>
		</g>
	</g>
	<g id="LINE_34_">
		<g>
			<line class="st5" x1="217.7" y1="69.8" x2="226.2" y2="69.8"/>
		</g>
	</g>
	<g id="LINE_47_">
		<g>
			<line class="st5" x1="217.7" y1="146.4" x2="217.7" y2="69.8"/>
		</g>
	</g>
	<g id="POLYLINE_3_">
		<g>
			<rect x="29.6" y="54.9" class="st5" width="169.3" height="135.3"/>
		</g>
	</g>
	<g id="LINE_48_">
		<g>
			<line class="st5" x1="382.7" y1="54.9" x2="523.7" y2="54.9"/>
		</g>
	</g>
	<g id="LINE_49_">
		<g>
			<line class="st5" x1="523.7" y1="54.9" x2="523.7" y2="158.8"/>
		</g>
	</g>
	<g id="LINE_50_">
		<g>
			<line class="st5" x1="523.7" y1="158.8" x2="382.7" y2="158.8"/>
		</g>
	</g>
	<g id="LINE_51_">
		<g>
			<line class="st5" x1="382.7" y1="158.8" x2="382.7" y2="54.9"/>
		</g>
	</g>
</g>
<g>
	<g id="LINE">
		<g id="LINE_101_">
			<g>
				<g>
					<g>
						<line class="st5" x1="75.7" y1="122.6" x2="81.7" y2="122.6"/>
						<line class="st6" x1="94.7" y1="122.6" x2="140.4" y2="122.6"/>
						<line class="st5" x1="146.9" y1="122.6" x2="152.9" y2="122.6"/>
					</g>
				</g>
			</g>
		</g>
	</g>
	<g id="LINE_1_">
		<g id="LINE_100_">
			<g>
				<g>
					<g>
						<line class="st5" x1="75.7" y1="122.6" x2="72.3" y2="117.6"/>
						<line class="st7" x1="64.4" y1="106.1" x2="36.9" y2="65.7"/>
						<line class="st5" x1="33" y1="59.9" x2="29.6" y2="54.9"/>
					</g>
				</g>
			</g>
		</g>
	</g>
	<g id="LINE_2_">
		<g id="LINE_99_">
			<g>
				<g>
					<g>
						<line class="st5" x1="75.7" y1="122.6" x2="72.3" y2="127.6"/>
						<line class="st8" x1="64.6" y1="139" x2="37.5" y2="179"/>
						<line class="st5" x1="33.6" y1="184.7" x2="30.3" y2="189.6"/>
					</g>
				</g>
			</g>
		</g>
	</g>
	<g id="LINE_3_">
		<g id="LINE_98_">
			<g>
				<g>
					<g>
						<line class="st5" x1="152.9" y1="122.6" x2="156.3" y2="117.6"/>
						<line class="st7" x1="164.1" y1="106.1" x2="191.6" y2="65.7"/>
						<line class="st5" x1="195.6" y1="59.9" x2="199" y2="54.9"/>
					</g>
				</g>
			</g>
		</g>
	</g>
	<g id="LINE_4_">
		<g id="LINE_97_">
			<g>
				<g>
					<g>
						<line class="st5" x1="152.9" y1="122.6" x2="156.3" y2="127.6"/>
						<line class="st8" x1="164" y1="139" x2="191.1" y2="179"/>
						<line class="st5" x1="194.9" y1="184.7" x2="198.3" y2="189.6"/>
					</g>
				</g>
			</g>
		</g>
	</g>
</g>
<g>
	<g id="LINE_5_">
		<g id="LINE_96_">
			<g>
				<g>
					<g>
						<line class="st5" x1="481.4" y1="106.9" x2="475.4" y2="106.9"/>
						<line class="st9" x1="460.6" y1="106.9" x2="438.4" y2="106.9"/>
						<line class="st5" x1="430.9" y1="106.9" x2="424.9" y2="106.9"/>
					</g>
				</g>
			</g>
		</g>
	</g>
	<g id="LINE_6_">
		<g id="LINE_95_">
			<g>
				<g>
					<g>
						<line class="st5" x1="523.7" y1="54.9" x2="519.9" y2="59.6"/>
						<line class="st10" x1="513" y1="68.1" x2="488.7" y2="98"/>
						<line class="st5" x1="485.2" y1="102.2" x2="481.4" y2="106.9"/>
					</g>
				</g>
			</g>
		</g>
	</g>
	<g id="LINE_7_">
		<g id="LINE_94_">
			<g>
				<g>
					<g>
						<line class="st5" x1="481.4" y1="106.9" x2="485.2" y2="111.5"/>
						<line class="st11" x1="492.2" y1="120.1" x2="516.5" y2="149.9"/>
						<line class="st5" x1="519.9" y1="154.2" x2="523.7" y2="158.8"/>
					</g>
				</g>
			</g>
		</g>
	</g>
	<g id="LINE_8_">
		<g id="LINE_93_">
			<g>
				<g>
					<g>
						<line class="st5" x1="382.7" y1="54.9" x2="386.4" y2="59.6"/>
						<line class="st12" x1="393.4" y1="68.1" x2="417.7" y2="98"/>
						<line class="st5" x1="421.1" y1="102.2" x2="424.9" y2="106.9"/>
					</g>
				</g>
			</g>
		</g>
	</g>
	<g id="LINE_9_">
		<g id="LINE_92_">
			<g>
				<g>
					<g>
						<line class="st5" x1="424.9" y1="106.9" x2="421.1" y2="111.5"/>
						<line class="st10" x1="414.2" y1="120.1" x2="389.9" y2="149.9"/>
						<line class="st5" x1="386.4" y1="154.2" x2="382.7" y2="158.8"/>
					</g>
				</g>
			</g>
		</g>
	</g>
</g>
<pattern  id="SVGID_3_" xlink:href="#diagonal_cross_hatch" patternTransform="matrix(1 0 0 1 153.4346 -1.4808)">
</pattern>
<rect x="217.7" y="69.8" class="st13" width="8.5" height="76.6"/>
<pattern  id="SVGID_4_" xlink:href="#diagonal_cross_hatch" patternTransform="matrix(1 0 0 1 291.4433 -1.4808)">
</pattern>
<rect x="355.7" y="69.8" class="st14" width="8.5" height="76.6"/>
<rect x="213" y="32.8" class="st15" width="155.6" height="15.7"/>
<text transform="matrix(1 0 0 1 213.026 41.3995)" class="st3 st4">Wall with a FRL of 60/60/60</text>
<g>
	<g>
		<polyline class="st16" points="209.1,156.1 209.1,170 373.3,170 373.3,156.1 		"/>
		<g>
			<polygon class="st2" points="206.2,158.1 209.1,147.2 212,158.1 			"/>
		</g>
		<g>
			<polygon class="st2" points="376.2,158.1 373.3,147.2 370.4,158.1 			"/>
		</g>
	</g>
</g>
<g>
	<path class="st15" d="M359.7,70.1"/>
</g>
<g>
	<g>
		<polyline class="st16" points="221.9,61.6 221.9,51.7 291,51.7 359.7,51.7 359.7,61.3 		"/>
		<g>
			<polygon class="st2" points="224.8,59.6 221.9,70.4 219,59.6 			"/>
		</g>
		<g>
			<polygon class="st2" points="356.8,59.3 359.7,70.1 362.6,59.3 			"/>
		</g>
	</g>
</g>
<line class="st16" x1="291" y1="43.9" x2="291" y2="51.7"/>
<line class="st16" x1="291" y1="170" x2="291" y2="184.7"/>
</svg>
