<?xml version="1.0" encoding="utf-8"?>
<!-- Generator: Adobe Illustrator 25.2.1, SVG Export Plug-In . SVG Version: 6.00 Build 0)  -->
<svg version="1.1" id="_x30_" xmlns="http://www.w3.org/2000/svg" xmlns:xlink="http://www.w3.org/1999/xlink" x="0px" y="0px"
	 viewBox="0 0 552.8 476.1" style="enable-background:new 0 0 552.8 476.1;" xml:space="preserve">
<style type="text/css">
	.st0{fill-rule:evenodd;clip-rule:evenodd;fill:#A09D9D;}
	.st1{fill:#A09D9D;}
	.st2{fill:none;stroke:#000000;stroke-width:0.1285;stroke-linecap:round;stroke-linejoin:round;stroke-miterlimit:10;}
	.st3{fill:none;stroke:#231F20;stroke-miterlimit:10;}
	.st4{fill:none;stroke:#231F20;stroke-width:0.75;stroke-miterlimit:10;}
	.st5{fill:none;stroke:#231F20;stroke-linecap:round;stroke-miterlimit:10;}
	.st6{fill:none;stroke:#231F20;stroke-width:0.75;stroke-linecap:round;stroke-miterlimit:10;}
	.st7{fill:none;stroke:#231F20;stroke-width:0.25;stroke-miterlimit:10;}
	.st8{fill:#231F20;}
	.st9{font-family:'ArialMT';}
	.st10{font-size:12px;}
	.st11{fill:none;stroke:#231F20;stroke-width:0.75;stroke-miterlimit:10;stroke-dasharray:12,6;}
	.st12{fill:none;stroke:#231F20;stroke-linecap:round;stroke-linejoin:round;stroke-miterlimit:10;}
	.st13{fill:#FFFFFF;stroke:#FFFFFF;stroke-miterlimit:10;}
</style>
<g>
	<g id="HATCH">
		<polygon class="st0" points="371.6,145.2 357.1,148.2 357.1,137.3 371.6,132.8 		"/>
	</g>
	<path class="st1" d="M315.8,173c0,0,14.1-3.8,15.6,27.6l5.1,6.9l12.6-3.4c0,0,15.4-31.4,38.9-8l14.4-3c0,0,17.2-36.2,42.6-8.8
		l12-2.5c0,0,14.3-29.2,38.5-7.9l12.9-2.6c0,0,3.4-9.4,7.1-11.2l-3.6-7.5l-74.3,15.3l-14.9-17L315.8,173z"/>
	<polygon class="st1" points="401.7,126.5 411.1,137.4 402.2,139.2 402.5,133.1 401.7,132.6 	"/>
	<polygon class="st1" points="371.6,133.1 371.6,145.2 395.2,140.6 395.2,127.6 396.5,128.6 396.5,125.3 	"/>
</g>
<g id="ELLIPSE_3_">
	<path class="st2" d="M500.6,164.9c-0.9,0-1.7,1.1-1.7,2.5s0.7,2.5,1.7,2.5c0.9,0,1.7-1.1,1.7-2.5
		C502.3,166,501.5,164.9,500.6,164.9L500.6,164.9z"/>
</g>
<g id="POLYLINE_6_">
	<polygon class="st2" points="371.6,145.5 371.6,133.1 396.5,125.3 396.5,128.6 395.2,127.6 395.2,140.6 	"/>
</g>
<g id="POLYLINE_7_">
	<polygon class="st2" points="402.2,139.2 402.2,133 401.7,132.6 401.7,126.5 411.1,137.4 	"/>
</g>
<g>
	<g id="LINE_26_">
		<line class="st3" x1="219.9" y1="315.2" x2="165.9" y2="279.6"/>
	</g>
	<g id="LINE_27_">
		<line class="st3" x1="165.9" y1="279.6" x2="165.9" y2="214.8"/>
	</g>
	<g id="LINE_28_">
		<line class="st3" x1="219.9" y1="315.2" x2="219.9" y2="242.2"/>
	</g>
	<g id="LINE_29_">
		<line class="st3" x1="165.9" y1="214.8" x2="219.9" y2="242.2"/>
	</g>
</g>
<g id="POLYLINE_9_">
	<polyline class="st2" points="335.7,205.8 335.9,206.1 336.2,206.4 336.5,206.7 	"/>
</g>
<g id="LINE_88_">
	<line class="st4" x1="219.9" y1="315.2" x2="221.4" y2="313.4"/>
</g>
<g>
	<g id="LINE_85_">
		<line class="st3" x1="167.5" y1="213" x2="221.4" y2="240.4"/>
	</g>
	<g id="LINE_86_">
		<line class="st3" x1="221.4" y1="313.4" x2="221.4" y2="240.4"/>
	</g>
	<g id="LINE_87_">
		<line class="st5" x1="219.9" y1="242.2" x2="221.4" y2="240.4"/>
	</g>
	<g id="LINE_89_">
		<line class="st5" x1="165.9" y1="214.8" x2="167.5" y2="213"/>
	</g>
</g>
<g>
	<g id="LINE_92_">
		<line class="st6" x1="196.1" y1="184.3" x2="209.5" y2="181.6"/>
	</g>
	<g id="LINE_93_">
		<line class="st6" x1="203.1" y1="189.7" x2="216.5" y2="186.9"/>
	</g>
	<g id="LINE_94_">
		<line class="st6" x1="203.1" y1="189.7" x2="196.1" y2="184.3"/>
	</g>
	<g id="LINE_95_">
		<line class="st6" x1="216.5" y1="186.9" x2="209.5" y2="181.6"/>
	</g>
	<g id="LINE_96_">
		<line class="st6" x1="216.5" y1="186.9" x2="216.5" y2="169.9"/>
	</g>
	<g id="LINE_97_">
		<line class="st6" x1="209.5" y1="181.6" x2="209.5" y2="164.5"/>
	</g>
	<g id="LINE_98_">
		<line class="st6" x1="216.5" y1="169.9" x2="209.5" y2="164.5"/>
	</g>
	<g id="LINE_99_">
		<line class="st6" x1="212.3" y1="183.7" x2="212.3" y2="170.7"/>
	</g>
	<g id="LINE_100_">
		<line class="st6" x1="214.4" y1="185.3" x2="214.4" y2="172.3"/>
	</g>
	<g id="LINE_101_">
		<line class="st6" x1="214.4" y1="172.3" x2="212.3" y2="170.7"/>
	</g>
	<g id="LINE_102_">
		<line class="st6" x1="210.8" y1="165.5" x2="210.8" y2="141.8"/>
	</g>
	<g id="LINE_103_">
		<line class="st6" x1="215.9" y1="169.4" x2="215.9" y2="145.1"/>
	</g>
	<g id="LINE_104_">
		<line class="st6" x1="223.3" y1="143.6" x2="223.3" y2="133.6"/>
	</g>
	<g id="LINE_105_">
		<line class="st6" x1="215.4" y1="135.3" x2="223.3" y2="133.6"/>
	</g>
	<g id="LINE_106_">
		<line class="st6" x1="210.8" y1="141.8" x2="218.1" y2="140.3"/>
	</g>
	<g id="LINE_107_">
		<line class="st6" x1="215.9" y1="145.1" x2="223.3" y2="143.6"/>
	</g>
	<g id="LINE_108_">
		<line class="st6" x1="215.9" y1="145.1" x2="210.8" y2="141.8"/>
	</g>
	<g id="LINE_109_">
		<line class="st6" x1="223.3" y1="143.6" x2="218.1" y2="140.3"/>
	</g>
	<g id="LINE_110_">
		<line class="st6" x1="218.1" y1="140.3" x2="218.1" y2="134.7"/>
	</g>
	<g id="LINE_111_">
		<line class="st6" x1="210.2" y1="132" x2="218.1" y2="130.4"/>
	</g>
	<g id="LINE_112_">
		<line class="st6" x1="223.3" y1="133.6" x2="218.1" y2="130.4"/>
	</g>
	<g id="LINE_113_">
		<line class="st6" x1="215.4" y1="135.3" x2="210.2" y2="132"/>
	</g>
	<g id="ELLIPSE_8_">
		<path class="st6" d="M203.2,185.7c-0.3,0-0.5,0.3-0.5,0.7c0,0.4,0.2,0.7,0.5,0.7s0.5-0.3,0.5-0.7
			C203.7,186,203.5,185.7,203.2,185.7L203.2,185.7z"/>
	</g>
</g>
<g>
	<g id="LINE_114_">
		<line class="st6" x1="381.9" y1="147.4" x2="395.2" y2="144.7"/>
	</g>
	<g id="LINE_115_">
		<line class="st6" x1="388.9" y1="152.8" x2="402.2" y2="150"/>
	</g>
	<g id="LINE_116_">
		<line class="st6" x1="388.9" y1="152.8" x2="381.9" y2="147.4"/>
	</g>
	<g id="LINE_117_">
		<line class="st6" x1="402.2" y1="150" x2="395.2" y2="144.7"/>
	</g>
	<g id="LINE_118_">
		<line class="st6" x1="402.2" y1="150" x2="402.2" y2="133"/>
	</g>
	<g id="LINE_119_">
		<line class="st6" x1="395.2" y1="144.7" x2="395.2" y2="127.6"/>
	</g>
	<g id="LINE_120_">
		<line class="st6" x1="402.2" y1="133" x2="395.2" y2="127.6"/>
	</g>
	<g id="LINE_121_">
		<line class="st6" x1="398" y1="146.8" x2="398" y2="133.8"/>
	</g>
	<g id="LINE_122_">
		<line class="st6" x1="400.1" y1="148.4" x2="400.1" y2="135.4"/>
	</g>
	<g id="LINE_123_">
		<line class="st6" x1="400.1" y1="135.4" x2="398" y2="133.8"/>
	</g>
	<g id="LINE_124_">
		<line class="st6" x1="396.5" y1="128.6" x2="396.5" y2="115.8"/>
	</g>
	<g id="LINE_125_">
		<line class="st6" x1="401.7" y1="132.6" x2="401.7" y2="119"/>
	</g>
	<g id="LINE_126_">
		<line class="st6" x1="409" y1="117.5" x2="409" y2="107.6"/>
	</g>
	<g id="LINE_127_">
		<line class="st6" x1="401.1" y1="109.2" x2="409" y2="107.6"/>
	</g>
	<g id="LINE_128_">
		<line class="st6" x1="396.5" y1="115.8" x2="403.9" y2="114.2"/>
	</g>
	<g id="LINE_129_">
		<line class="st6" x1="401.7" y1="119" x2="409" y2="117.5"/>
	</g>
	<g id="LINE_130_">
		<line class="st6" x1="401.7" y1="119" x2="396.5" y2="115.8"/>
	</g>
	<g id="LINE_131_">
		<line class="st6" x1="409" y1="117.5" x2="403.9" y2="114.2"/>
	</g>
	<g id="LINE_132_">
		<line class="st6" x1="403.9" y1="114.2" x2="403.9" y2="108.6"/>
	</g>
	<g id="LINE_133_">
		<line class="st6" x1="396" y1="105.9" x2="403.9" y2="104.3"/>
	</g>
	<g id="LINE_134_">
		<line class="st6" x1="409" y1="107.6" x2="403.9" y2="104.3"/>
	</g>
	<g id="LINE_135_">
		<line class="st6" x1="401.1" y1="109.2" x2="396" y2="105.9"/>
	</g>
	<g id="ELLIPSE_9_">
		<path class="st6" d="M388.9,148.9c-0.3,0-0.5,0.3-0.5,0.7c0,0.4,0.2,0.7,0.5,0.7c0.3,0,0.5-0.3,0.5-0.7
			C389.4,149.2,389.1,148.9,388.9,148.9L388.9,148.9z"/>
	</g>
</g>
<g id="POLYLINE_12_">
	<g id="POLYLINE_15_">
		<g>
			<g>
				<g>
					<g>
						<g>
							<polyline class="st7" points="178.9,178.2 131.9,141.6 109.4,141.6 							"/>
							<g>
								<polygon class="st8" points="179.1,174.7 185.9,183.7 175.6,179.3 								"/>
							</g>
						</g>
					</g>
				</g>
			</g>
		</g>
	</g>
</g>
<g id="POLYLINE_14_">
	<g id="POLYLINE_13_">
		<g>
			<g>
				<g>
					<g>
						<g>
							<polyline class="st7" points="226.1,125 275.9,63.2 275.9,43.4 							"/>
							<g>
								<polygon class="st8" points="229.6,125.3 220.5,131.9 225.1,121.6 								"/>
							</g>
						</g>
					</g>
				</g>
			</g>
		</g>
	</g>
</g>
<g id="LINE_148_">
	<g id="LINE_150_">
		<g>
			<g>
				<g>
					<g>
						<g>
							<line class="st7" x1="392.6" y1="102.1" x2="275.9" y2="63.2"/>
							<g>
								<polygon class="st8" points="391.7,98.7 401,104.9 389.8,104.2 								"/>
							</g>
						</g>
					</g>
				</g>
			</g>
		</g>
	</g>
</g>
<g id="MTEXT_1_">
	<g>
		<text transform="matrix(1 0 0 1 37.346 145.4956)" class="st8 st9 st10">Ridge batten </text>
	</g>
</g>
<g id="MTEXT_3_">
	<g>
		<text transform="matrix(1 0 0 1 203.0164 38.0896)" class="st8 st9 st10">Ridge clip fixed to ridge batten</text>
	</g>
</g>
<g>
	<g id="LINE_2_">
		<g>
			<line class="st11" x1="256.3" y1="199.1" x2="437.8" y2="161.8"/>
		</g>
	</g>
	<g id="LINE_3_">
		<g>
			<line class="st11" x1="256.3" y1="192.9" x2="215.9" y2="146.7"/>
		</g>
	</g>
	<g id="LINE_4_">
		<g>
			<line class="st11" x1="256.3" y1="199.1" x2="215.9" y2="152.8"/>
		</g>
	</g>
	<g id="LINE_5_">
		<g>
			<line class="st11" x1="210.8" y1="145.6" x2="183.3" y2="154.1"/>
		</g>
	</g>
	<g id="LINE_6_">
		<g>
			<line class="st11" x1="183.3" y1="154.1" x2="183.3" y2="160.2"/>
		</g>
	</g>
	<g id="LINE_7_">
		<g>
			<line class="st11" x1="210.8" y1="151.7" x2="183.3" y2="160.2"/>
		</g>
	</g>
	<g id="LINE_8_">
		<g>
			<line class="st11" x1="446.7" y1="153.8" x2="409" y2="110.6"/>
		</g>
	</g>
	<g id="LINE_9_">
		<line class="st11" x1="446.7" y1="153.8" x2="446.7" y2="159.9"/>
	</g>
	<g id="LINE_1_">
		<g>
			<line class="st11" x1="256.3" y1="192.9" x2="446.7" y2="153.8"/>
		</g>
	</g>
	<line class="st11" x1="224.3" y1="142.6" x2="398" y2="106.2"/>
</g>
<g>
	<g id="LINE_19_">
		<line class="st3" x1="262.1" y1="411.3" x2="275.1" y2="410.6"/>
	</g>
	<g id="LINE_20_">
		<line class="st3" x1="240" y1="447.4" x2="253" y2="446.7"/>
	</g>
	<g id="LINE_31_">
		<line class="st3" x1="296.5" y1="317.5" x2="310.6" y2="313.1"/>
	</g>
	<g>
		<g id="LINE">
			<line class="st3" x1="515.7" y1="160.1" x2="512.1" y2="152.6"/>
		</g>
		<g id="LINE_35_">
			<line class="st3" x1="349.1" y1="204.1" x2="422.9" y2="283.4"/>
		</g>
		<g id="LINE_36_">
			<line class="st3" x1="336.5" y1="206.7" x2="349.1" y2="204.1"/>
		</g>
		<g id="LINE_37_">
			<line class="st3" x1="388.1" y1="196.1" x2="479.1" y2="286.6"/>
		</g>
		<g id="LINE_43_">
			<line class="st3" x1="212.2" y1="215.7" x2="211.4" y2="223.8"/>
		</g>
		<g id="LINE_51_">
			<line class="st3" x1="176.4" y1="185.6" x2="176.7" y2="194.6"/>
		</g>
		<g id="SPLINE_2_">
			<path class="st3" d="M388.1,196.1c-12.3-13.5-29.7-10-38.9,8"/>
		</g>
		<g id="LINE_75_">
			<line class="st3" x1="402.5" y1="193.1" x2="493.4" y2="284.5"/>
		</g>
		<g id="LINE_76_">
			<line class="st3" x1="444.9" y1="184.2" x2="512.9" y2="248.9"/>
		</g>
		<g id="SPLINE_4_">
			<path class="st3" d="M444.9,184.2c-12.1-15-30.3-12.7-40.5,5.2c-0.7,1.2-1.3,2.5-1.9,3.8"/>
		</g>
		<g id="LINE_80_">
			<line class="st3" x1="457.1" y1="181.9" x2="517" y2="237"/>
		</g>
		<g id="LINE_81_">
			<line class="st3" x1="496.4" y1="174.8" x2="523.7" y2="198.8"/>
		</g>
		<g id="SPLINE_5_">
			<path class="st3" d="M496.4,174.8c-12.2-13.7-29.7-10.5-39.3,7.1"/>
		</g>
		<g id="LINE_82_">
			<line class="st3" x1="508.5" y1="171.3" x2="522.2" y2="183"/>
		</g>
		<g id="LINE_83_">
			<line class="st3" x1="336.5" y1="206.7" x2="409.5" y2="285.2"/>
		</g>
		<g>
			<g id="LINE_90_">
				<g>
					<line class="st3" x1="423.9" y1="174.4" x2="509.8" y2="258.3"/>
				</g>
			</g>
			<g id="LINE_91_">
				<g>
					<line class="st3" x1="425.8" y1="174.3" x2="510.5" y2="257"/>
				</g>
			</g>
		</g>
		<g>
			<g id="LINE_136_">
				<line class="st3" x1="301.9" y1="179.6" x2="399.6" y2="286.5"/>
			</g>
			<g id="LINE_137_">
				<line class="st3" x1="297.8" y1="183" x2="393" y2="287.5"/>
			</g>
			<g id="LINE_138_">
				<line class="st3" x1="293.2" y1="183.1" x2="389.7" y2="290.1"/>
			</g>
			<g id="LINE_139_">
				<line class="st3" x1="291.2" y1="185.8" x2="387.1" y2="292.1"/>
			</g>
			<g id="LINE_140_">
				<line class="st3" x1="286.6" y1="186.7" x2="383.5" y2="295"/>
			</g>
			<g id="LINE_141_">
				<line class="st3" x1="286.6" y1="192.8" x2="379.3" y2="298.4"/>
			</g>
			<g id="LINE_143_">
				<line class="st5" x1="286.6" y1="186.7" x2="291.2" y2="185.8"/>
			</g>
			<g>
				<g id="LINE_74_">
					<line class="st3" x1="312.9" y1="181.3" x2="312.9" y2="176.3"/>
				</g>
				<g id="LINE_144_">
					<line class="st5" x1="291.2" y1="185.8" x2="293.2" y2="183.1"/>
				</g>
				<g>
					<g id="LINE_72_">
						<line class="st3" x1="402.2" y1="139.2" x2="411.1" y2="137.4"/>
					</g>
					<g>
						<g id="LINE_60_">
							<line class="st3" x1="437.8" y1="161.8" x2="401.7" y2="120.4"/>
						</g>
						<g id="LINE_61_">
							<line class="st5" x1="437.8" y1="161.8" x2="437.8" y2="167.9"/>
						</g>
						<g id="LINE_62_">
							<line class="st3" x1="437.8" y1="167.9" x2="401.7" y2="126.5"/>
						</g>
						<g id="LINE_65_">
							<line class="st3" x1="396.5" y1="119.2" x2="357.1" y2="131.4"/>
						</g>
						<g id="LINE_67_">
							<line class="st3" x1="396.5" y1="125.3" x2="357.1" y2="137.5"/>
						</g>
						<g id="LINE_70_">
							<line class="st3" x1="371.6" y1="133.1" x2="371.6" y2="145.5"/>
						</g>
						<g>
							<g id="LINE_30_">
								<line class="st3" x1="192.4" y1="309.3" x2="192.4" y2="297"/>
							</g>
							<g>
								<g id="LINE_11_">
									<line class="st3" x1="296.5" y1="317.5" x2="227.3" y2="220.5"/>
								</g>
								<g id="LINE_12_">
									<line class="st3" x1="310.6" y1="313.1" x2="241" y2="217.7"/>
								</g>
								<g id="LINE_13_">
									<line class="st3" x1="296.5" y1="397.5" x2="221.4" y2="284.3"/>
								</g>
								<g id="LINE_14_">
									<line class="st3" x1="240" y1="447.4" x2="192.4" y2="309.3"/>
								</g>
								<g id="LINE_15_">
									<line class="st3" x1="262.1" y1="411.3" x2="221.4" y2="296.9"/>
								</g>
								<g id="LINE_16_">
									<line class="st3" x1="275.1" y1="410.6" x2="237.4" y2="308.3"/>
								</g>
								<g id="LINE_17_">
									<line class="st3" x1="240" y1="447.4" x2="262.1" y2="411.3"/>
								</g>
								<g id="LINE_18_">
									<line class="st3" x1="253" y1="446.7" x2="275.1" y2="410.6"/>
								</g>
								<g id="LINE_21_">
									<line class="st3" x1="158.7" y1="367.7" x2="197.2" y2="323.3"/>
								</g>
								<g id="LINE_22_">
									<line class="st3" x1="155.7" y1="351.7" x2="192.4" y2="309.3"/>
								</g>
								<g id="LINE_23_">
									<line class="st3" x1="168.9" y1="281.6" x2="157" y2="294.3"/>
								</g>
								<g id="LINE_24_">
									<line class="st3" x1="157" y1="273.2" x2="165.9" y2="265.7"/>
								</g>
								<g id="LINE_25_">
									<line class="st3" x1="157.2" y1="283.7" x2="165.9" y2="276.8"/>
								</g>
								<g id="LINE_32_">
									<line class="st3" x1="296.5" y1="317.5" x2="296.5" y2="397.5"/>
								</g>
								<g id="LINE_33_">
									<line class="st3" x1="310.6" y1="313.1" x2="310.6" y2="393"/>
								</g>
								<g id="LINE_34_">
									<line class="st3" x1="296.5" y1="397.5" x2="310.6" y2="393"/>
								</g>
								<g id="LINE_38_">
									<line class="st3" x1="211.4" y1="223.8" x2="298.1" y2="205.9"/>
								</g>
								<g id="LINE_39_">
									<line class="st3" x1="212.2" y1="215.7" x2="292.2" y2="199.2"/>
								</g>
								<g id="LINE_40_">
									<line class="st3" x1="198.7" y1="196.9" x2="422.9" y2="150.8"/>
								</g>
								<g id="LINE_41_">
									<line class="st3" x1="194.5" y1="194" x2="420.1" y2="147.6"/>
								</g>
								<g id="LINE_42_">
									<line class="st3" x1="212.2" y1="215.7" x2="198.7" y2="196.9"/>
								</g>
								<g id="LINE_44_">
									<line class="st5" x1="211.4" y1="223.8" x2="197.8" y2="205"/>
								</g>
								<g id="LINE_45_">
									<line class="st5" x1="198.7" y1="196.9" x2="197.8" y2="205"/>
								</g>
								<g id="LINE_46_">
									<line class="st3" x1="176.4" y1="185.6" x2="209.5" y2="178.8"/>
								</g>
								<g id="LINE_47_">
									<line class="st5" x1="194.5" y1="194" x2="176.4" y2="185.6"/>
								</g>
								<g id="LINE_48_">
									<line class="st3" x1="194.5" y1="194" x2="194" y2="202.5"/>
								</g>
								<g id="LINE_49_">
									<line class="st5" x1="194" y1="202.5" x2="198.2" y2="201.7"/>
								</g>
								<g id="LINE_50_">
									<line class="st3" x1="194" y1="202.5" x2="176.7" y2="194.6"/>
								</g>
								<g id="LINE_52_">
									<line class="st3" x1="176.7" y1="194.6" x2="155.1" y2="212.3"/>
								</g>
								<g id="LINE_53_">
									<line class="st5" x1="157.8" y1="196.2" x2="167.9" y2="187.9"/>
								</g>
								<g id="LINE_54_">
									<line class="st3" x1="159" y1="204.2" x2="167.9" y2="197"/>
								</g>
								<g id="LINE_55_">
									<line class="st5" x1="159" y1="204.2" x2="165" y2="204.1"/>
								</g>
								<g id="LINE_56_">
									<line class="st3" x1="167.9" y1="197" x2="167.9" y2="187.9"/>
								</g>
								<g id="LINE_57_">
									<line class="st3" x1="159" y1="204.2" x2="157.8" y2="196.2"/>
								</g>
								<g id="LINE_58_">
									<line class="st5" x1="167.9" y1="187.9" x2="176.4" y2="186.9"/>
								</g>
								<g id="LINE_59_">
									<line class="st3" x1="192.4" y1="225.6" x2="192.4" y2="201.8"/>
								</g>
								<g id="LINE_63_">
									<line class="st3" x1="437.8" y1="161.8" x2="509.5" y2="147"/>
								</g>
								<g id="LINE_64_">
									<line class="st5" x1="437.8" y1="167.9" x2="512.1" y2="152.6"/>
								</g>
								<g id="LINE_68_">
									<line class="st3" x1="409" y1="116.3" x2="497.5" y2="98.1"/>
								</g>
								<g id="LINE_71_">
									<line class="st3" x1="216.5" y1="177.4" x2="395.2" y2="140.6"/>
								</g>
								<g id="LINE_73_">
									<line class="st3" x1="312.9" y1="181.3" x2="336.5" y2="206.7"/>
								</g>
								<g id="SPLINE_3_">
									<path class="st3" d="M315.1,173c-1.1,0.3-2,1.6-2.2,3.3"/>
								</g>
								<g id="LINE_77_">
									<line class="st3" x1="388.1" y1="196.1" x2="402.5" y2="193.1"/>
								</g>
								<g id="LINE_78_">
									<line class="st3" x1="445.1" y1="184.4" x2="457.1" y2="181.9"/>
								</g>
								<g id="LINE_79_">
									<line class="st3" x1="495.6" y1="174" x2="508.5" y2="171.3"/>
								</g>
								<g id="SPLINE_6_">
									<path class="st5" d="M515.7,160.1c-2.8,3.1-5.2,6.8-7.1,11.2"/>
								</g>
								<g id="POLYLINE_8_">
									<polyline class="st3" points="315.1,173 315.8,173 316.7,172.9 317.4,172.8 318,172.8 318.6,172.8 319,172.9 319.4,173 
										319.8,173.1 320.1,173.2 320.5,173.3 320.8,173.4 321.1,173.5 321.4,173.7 321.7,173.8 322,174 322.3,174.1 322.5,174.3 
										322.8,174.4 323,174.6 323.2,174.8 323.5,175 323.7,175.2 324,175.4 324.2,175.6 324.4,175.9 324.7,176.1 324.9,176.4 
										325.1,176.7 325.4,177 325.6,177.4 325.9,177.7 326.1,178 326.4,178.4 326.7,178.8 326.9,179.1 327.2,179.5 327.4,179.8 
										327.6,180.2 327.8,180.5 328,180.8 328.1,181.1 328.2,181.4 328.3,181.6 328.4,181.9 328.5,182.1 328.6,182.4 328.6,182.7 
										328.7,183 328.8,183.3 328.9,183.6 329,184 329.1,184.4 329.2,184.7 329.3,185.1 329.4,185.5 329.5,185.9 329.6,186.3 
										329.7,186.6 329.7,187 329.8,187.4 329.8,187.8 329.9,188.2 329.9,188.6 330,189 330.1,189.5 330.2,189.9 330.2,190.4 
										330.3,190.9 330.4,191.4 330.5,191.8 330.6,192.3 330.6,192.8 330.7,193.3 330.7,193.8 330.8,194.3 330.8,194.7 
										330.9,195.2 330.9,195.6 330.9,196 330.9,196.3 331,196.6 331,196.9 330.9,197.2 330.9,197.4 330.9,197.7 330.9,197.9 
										330.9,198.1 330.9,198.3 330.9,198.5 330.9,198.7 330.9,198.9 331,199.1 331,199.3 331,199.6 331.1,199.8 331.2,200 
										331.3,200.3 331.4,200.5 331.5,200.8 331.6,201 331.7,201.3 331.9,201.5 332,201.8 332.2,202 332.3,202.2 									"/>
								</g>
								<g id="LINE_84_">
									<line class="st3" x1="167.9" y1="197" x2="174.2" y2="196.6"/>
								</g>
								<g id="LINE_142_">
									<line class="st5" x1="286.6" y1="186.7" x2="286.6" y2="192.8"/>
								</g>
								<g id="LINE_145_">
									<line class="st5" x1="293.2" y1="183.1" x2="297.8" y2="183"/>
								</g>
								<g id="LINE_146_">
									<line class="st5" x1="297.8" y1="183" x2="301.9" y2="179.6"/>
								</g>
								<g id="LINE_147_">
									<line class="st5" x1="301.9" y1="179.6" x2="312.9" y2="181.3"/>
								</g>
							</g>
						</g>
						<line class="st12" x1="357.1" y1="131.4" x2="357.1" y2="148.4"/>
					</g>
				</g>
			</g>
		</g>
	</g>
</g>
<rect x="443" y="248.9" class="st13" width="89.4" height="18.1"/>
<g id="MTEXT_2_">
	<g>
		<text transform="matrix(1 0 0 1 445.071 261.7295)" class="st8 st9 st10">Mortar bedding</text>
	</g>
</g>
<g id="POLYLINE_1_">
	<g id="POLYLINE_2_">
		<g>
			<g>
				<g>
					<g>
						<g>
							<polyline class="st7" points="364.2,199.6 415.2,253.9 443,258.9 							"/>
							<g>
								<polygon class="st8" points="363.5,203 358.2,193.1 367.7,199 								"/>
							</g>
						</g>
					</g>
				</g>
			</g>
		</g>
	</g>
</g>
<path class="st1" d="M330.5,199.8l-17.4-18.5v-5l0.8-1.8l0.9-0.9l2.4-0.2l2.2,0.1l1.7,0.4l2.3,1.4l1.6,2.1l1.6,2.2l1.4,2.6l0.9,2.5
	l0.6,3.5l1,5.6c0,0-0.1,3.8,0,3.9c0.1,0.1-0.2,2.2-0.2,2.2"/>
</svg>
