<svg id="_0" data-name="0" xmlns="http://www.w3.org/2000/svg" viewBox="0 0 552.76 247.61"><defs><style>.cls-1,.cls-2{font-size:12px;fill:#231f20;}.cls-1{font-family:ArialMT, Arial;}.cls-2{font-family:Arial-BoldMT, Arial;font-weight:700;}.cls-3{letter-spacing:-0.06em;}.cls-4{fill:none;stroke:#231f20;stroke-linecap:round;stroke-miterlimit:10;stroke-width:0.75px;}</style></defs><g id="MTEXT"><text class="cls-1" transform="translate(80.73 113.49)">Minimum pitch – 5 degrees</text></g><g id="MTEXT-2" data-name="MTEXT"><text class="cls-1" transform="translate(346.43 113.53)">Minimum pitch – 2 degrees</text></g><g id="MTEXT-3" data-name="MTEXT"><text class="cls-1" transform="translate(80.73 215.79)">Minimum pitch – 2 degrees</text></g><g id="MTEXT-4" data-name="MTEXT"><text class="cls-1" transform="translate(360.9 215.79)">Minimum pitch – 1 degree</text></g><g id="MTEXT-5" data-name="MTEXT"><text class="cls-2" transform="translate(123.01 97.8)">Corrugated</text></g><g id="MTEXT-6" data-name="MTEXT"><text class="cls-2" transform="translate(344.63 97.8)">Close pitched trapezoidal</text></g><g id="MTEXT-7" data-name="MTEXT"><text class="cls-2" transform="translate(122.26 199.9)"><tspan class="cls-3">T</tspan><tspan x="6.67" y="0">rapezoidal</tspan></text></g><g id="MTEXT-8" data-name="MTEXT"><text class="cls-2" transform="translate(373.3 200.06)">Concealed fastened</text></g><g id="LINE"><line class="cls-4" x1="85.33" y1="34.31" x2="57.06" y2="66.71"/></g><g id="LINE-2" data-name="LINE"><line class="cls-4" x1="101.02" y1="34.2" x2="78.63" y2="67.46"/></g><g id="LINE-3" data-name="LINE"><line class="cls-4" x1="115.53" y1="33.91" x2="99.46" y2="66.71"/></g><g id="LINE-4" data-name="LINE"><line class="cls-4" x1="132.18" y1="33.9" x2="122.89" y2="67.46"/></g><g id="LINE-5" data-name="LINE"><line class="cls-4" x1="145.53" y1="35.02" x2="141.89" y2="70.01"/></g><g id="LINE-6" data-name="LINE"><line class="cls-4" x1="150.9" y1="35.05" x2="149.66" y2="69.23"/></g><g id="LINE-7" data-name="LINE"><line class="cls-4" x1="165.43" y1="35.11" x2="170.4" y2="68.93"/></g><g id="LINE-8" data-name="LINE"><line class="cls-4" x1="181.77" y1="34.89" x2="193.55" y2="68.15"/></g><g id="LINE-9" data-name="LINE"><line class="cls-4" x1="197.03" y1="34.24" x2="215.99" y2="68.62"/></g><g id="LINE-10" data-name="LINE"><line class="cls-4" x1="213.33" y1="34.77" x2="239.45" y2="69.4"/></g><g id="LINE-11" data-name="LINE"><line class="cls-4" x1="227.24" y1="33.05" x2="261.66" y2="69.24"/></g><g id="LINE-12" data-name="LINE"><line class="cls-4" x1="222.86" y1="39.04" x2="250.46" y2="72.29"/></g><g id="LINE-13" data-name="LINE"><line class="cls-4" x1="206.78" y1="39.02" x2="228.58" y2="72.97"/></g><g id="LINE-14" data-name="LINE"><line class="cls-4" x1="192.25" y1="40.7" x2="205.9" y2="70.79"/></g><g id="LINE-15" data-name="LINE"><line class="cls-4" x1="175.41" y1="38.38" x2="183.45" y2="69.08"/></g><g id="LINE-16" data-name="LINE"><line class="cls-4" x1="158.84" y1="40.8" x2="160.62" y2="70.48"/></g><g id="LINE-17" data-name="LINE"><line class="cls-4" x1="139.77" y1="42.92" x2="135.17" y2="71.55"/></g><g id="LINE-18" data-name="LINE"><line class="cls-4" x1="125.37" y1="39.7" x2="114.71" y2="71.17"/></g><g id="LINE-19" data-name="LINE"><line class="cls-4" x1="108.06" y1="40.16" x2="91.65" y2="70.43"/></g><g id="LINE-20" data-name="LINE"><line class="cls-4" x1="93.11" y1="39.54" x2="70.45" y2="70.8"/></g><g id="LINE-21" data-name="LINE"><line class="cls-4" x1="75.81" y1="38.97" x2="46.28" y2="70.47"/></g><g id="SPLINE"><path class="cls-4" d="M61.37,73.23a9.38,9.38,0,0,0-11.64,0"/></g><g id="SPLINE-2" data-name="SPLINE"><path class="cls-4" d="M61.37,73.23a7,7,0,0,0,9.73,1.53,7.06,7.06,0,0,0,1.58-1.6"/></g><g id="SPLINE-3" data-name="SPLINE"><path class="cls-4" d="M84.31,73.16a9.36,9.36,0,0,0-11.63,0"/></g><g id="SPLINE-4" data-name="SPLINE"><path class="cls-4" d="M84.31,73.16a7,7,0,0,0,11.31-.06"/></g><g id="SPLINE-5" data-name="SPLINE"><path class="cls-4" d="M107.25,73.1a9.36,9.36,0,0,0-11.63,0"/></g><g id="SPLINE-6" data-name="SPLINE"><path class="cls-4" d="M107.25,73.1A7,7,0,0,0,117,74.63a7.06,7.06,0,0,0,1.58-1.6"/></g><g id="SPLINE-7" data-name="SPLINE"><path class="cls-4" d="M130.19,73a9.36,9.36,0,0,0-11.63,0"/></g><g id="SPLINE-8" data-name="SPLINE"><path class="cls-4" d="M130.19,73A7,7,0,0,0,141.5,73"/></g><g id="SPLINE-9" data-name="SPLINE"><path class="cls-4" d="M153.13,73a9.36,9.36,0,0,0-11.63,0"/></g><g id="SPLINE-10" data-name="SPLINE"><path class="cls-4" d="M153.13,73a7,7,0,0,0,9.73,1.53,6.86,6.86,0,0,0,1.58-1.6"/></g><g id="SPLINE-11" data-name="SPLINE"><path class="cls-4" d="M176.07,72.9a9.36,9.36,0,0,0-11.63,0"/></g><g id="SPLINE-12" data-name="SPLINE"><path class="cls-4" d="M176.07,72.9a7,7,0,0,0,11.31-.06"/></g><g id="SPLINE-13" data-name="SPLINE"><path class="cls-4" d="M199,72.84a9.36,9.36,0,0,0-11.63,0"/></g><g id="SPLINE-14" data-name="SPLINE"><path class="cls-4" d="M199,72.84a7,7,0,0,0,9.73,1.53,6.86,6.86,0,0,0,1.58-1.6"/></g><g id="SPLINE-15" data-name="SPLINE"><path class="cls-4" d="M222,72.77a9.36,9.36,0,0,0-11.63,0"/></g><g id="SPLINE-16" data-name="SPLINE"><path class="cls-4" d="M222,72.77a7,7,0,0,0,11.31-.06"/></g><g id="SPLINE-17" data-name="SPLINE"><path class="cls-4" d="M244.89,72.71a9.36,9.36,0,0,0-11.63,0"/></g><g id="SPLINE-18" data-name="SPLINE"><path class="cls-4" d="M244.89,72.71a7,7,0,0,0,9.73,1.53,6.86,6.86,0,0,0,1.58-1.6"/></g><g id="SPLINE-19" data-name="SPLINE"><path class="cls-4" d="M267.83,72.64a9.36,9.36,0,0,0-11.63,0"/></g><g id="SPLINE-20" data-name="SPLINE"><path class="cls-4" d="M267.83,72.64a7,7,0,0,0,8.45,2.27"/></g><g id="SPLINE-21" data-name="SPLINE"><path class="cls-4" d="M49.73,73.23a6.81,6.81,0,0,1-1.58,1.59,7,7,0,0,1-9.72-1.53s-2.54-2.54-7.53-1.87"/></g><g id="LINE-22" data-name="LINE"><line class="cls-4" x1="30.9" y1="71.42" x2="74.08" y2="30.8"/></g><g id="LINE-23" data-name="LINE"><line class="cls-4" x1="276.28" y1="74.91" x2="234.05" y2="33.86"/></g><g id="SPLINE-22" data-name="SPLINE"><path class="cls-4" d="M108,32.37a6.19,6.19,0,0,0-8.35,0"/></g><g id="SPLINE-23" data-name="SPLINE"><path class="cls-4" d="M108,32.37a4.65,4.65,0,0,0,6.56.35c.12-.11.23-.23.34-.35"/></g><g id="SPLINE-24" data-name="SPLINE"><path class="cls-4" d="M123.21,32.37a6.19,6.19,0,0,0-8.35,0"/></g><g id="SPLINE-25" data-name="SPLINE"><path class="cls-4" d="M123.21,32.37a4.65,4.65,0,0,0,6.56.35c.12-.11.23-.23.34-.35"/></g><g id="SPLINE-26" data-name="SPLINE"><path class="cls-4" d="M138.46,32.37a6.19,6.19,0,0,0-8.35,0"/></g><g id="SPLINE-27" data-name="SPLINE"><path class="cls-4" d="M138.46,32.37a4.64,4.64,0,0,0,6.55.35l.35-.35"/></g><g id="SPLINE-28" data-name="SPLINE"><path class="cls-4" d="M153.71,32.37a6.19,6.19,0,0,0-8.35,0"/></g><g id="SPLINE-29" data-name="SPLINE"><path class="cls-4" d="M153.71,32.37a4.64,4.64,0,0,0,6.55.35l.35-.35"/></g><g id="SPLINE-30" data-name="SPLINE"><path class="cls-4" d="M169,32.37a6.19,6.19,0,0,0-8.35,0"/></g><g id="SPLINE-31" data-name="SPLINE"><path class="cls-4" d="M169,32.37a4.64,4.64,0,0,0,6.55.35l.35-.35"/></g><g id="SPLINE-32" data-name="SPLINE"><path class="cls-4" d="M184.21,32.37a6.19,6.19,0,0,0-8.35,0"/></g><g id="SPLINE-33" data-name="SPLINE"><path class="cls-4" d="M184.21,32.37a4.64,4.64,0,0,0,6.55.35l.35-.35"/></g><g id="SPLINE-34" data-name="SPLINE"><path class="cls-4" d="M199.46,32.37a6.19,6.19,0,0,0-8.35,0"/></g><g id="SPLINE-35" data-name="SPLINE"><path class="cls-4" d="M199.46,32.37a4.64,4.64,0,0,0,6.55.35,3.73,3.73,0,0,0,.34-.35"/></g><g id="SPLINE-36" data-name="SPLINE"><path class="cls-4" d="M214.7,32.37a6.19,6.19,0,0,0-8.35,0"/></g><g id="SPLINE-37" data-name="SPLINE"><path class="cls-4" d="M214.7,32.37a4.65,4.65,0,0,0,6.56.35c.12-.11.23-.23.34-.35"/></g><g id="SPLINE-38" data-name="SPLINE"><path class="cls-4" d="M230,32.37a6.19,6.19,0,0,0-8.35,0"/></g><g id="SPLINE-39" data-name="SPLINE"><path class="cls-4" d="M230,32.37a4.63,4.63,0,0,0,4.1,1.49"/></g><g id="SPLINE-40" data-name="SPLINE"><path class="cls-4" d="M92.71,32.37a6.19,6.19,0,0,0-8.35,0"/></g><g id="SPLINE-41" data-name="SPLINE"><path class="cls-4" d="M92.71,32.37a4.65,4.65,0,0,0,6.56.35c.12-.11.23-.23.34-.35"/></g><g id="SPLINE-42" data-name="SPLINE"><path class="cls-4" d="M77.47,32.37a6.23,6.23,0,0,0-3.39-1.57"/></g><g id="SPLINE-43" data-name="SPLINE"><path class="cls-4" d="M77.47,32.37a4.64,4.64,0,0,0,6.55.35,3.73,3.73,0,0,0,.34-.35"/></g><g id="LINE-24" data-name="LINE"><line class="cls-4" x1="395.17" y1="77.65" x2="407.48" y2="77.65"/></g><g id="LINE-25" data-name="LINE"><line class="cls-4" x1="412.96" y1="68.94" x2="420.25" y2="68.94"/></g><g id="LINE-26" data-name="LINE"><line class="cls-4" x1="425.73" y1="77.65" x2="420.25" y2="68.94"/></g><g id="LINE-27" data-name="LINE"><line class="cls-4" x1="407.48" y1="77.65" x2="412.96" y2="68.94"/></g><g id="LINE-28" data-name="LINE"><line class="cls-4" x1="425.73" y1="77.65" x2="438.04" y2="77.65"/></g><g id="LINE-29" data-name="LINE"><line class="cls-4" x1="443.53" y1="68.94" x2="450.81" y2="68.94"/></g><g id="LINE-30" data-name="LINE"><line class="cls-4" x1="456.3" y1="77.65" x2="450.81" y2="68.94"/></g><g id="LINE-31" data-name="LINE"><line class="cls-4" x1="438.04" y1="77.65" x2="443.53" y2="68.94"/></g><g id="LINE-32" data-name="LINE"><line class="cls-4" x1="456.3" y1="77.65" x2="468.6" y2="77.65"/></g><g id="LINE-33" data-name="LINE"><line class="cls-4" x1="474.09" y1="68.94" x2="481.37" y2="68.94"/></g><g id="LINE-34" data-name="LINE"><line class="cls-4" x1="486.86" y1="77.65" x2="481.37" y2="68.94"/></g><g id="LINE-35" data-name="LINE"><line class="cls-4" x1="468.6" y1="77.65" x2="474.09" y2="68.94"/></g><g id="LINE-36" data-name="LINE"><line class="cls-4" x1="486.86" y1="77.65" x2="499.17" y2="77.65"/></g><g id="LINE-37" data-name="LINE"><line class="cls-4" x1="504.65" y1="68.94" x2="511.94" y2="68.94"/></g><g id="LINE-38" data-name="LINE"><line class="cls-4" x1="517.43" y1="77.65" x2="511.94" y2="68.94"/></g><g id="LINE-39" data-name="LINE"><line class="cls-4" x1="499.17" y1="77.65" x2="504.65" y2="68.94"/></g><g id="LINE-40" data-name="LINE"><line class="cls-4" x1="517.43" y1="77.65" x2="523.92" y2="77.65"/></g><g id="LINE-41" data-name="LINE"><line class="cls-4" x1="364.6" y1="77.65" x2="376.91" y2="77.65"/></g><g id="LINE-42" data-name="LINE"><line class="cls-4" x1="382.4" y1="68.94" x2="389.68" y2="68.94"/></g><g id="LINE-43" data-name="LINE"><line class="cls-4" x1="395.17" y1="77.65" x2="389.68" y2="68.94"/></g><g id="LINE-44" data-name="LINE"><line class="cls-4" x1="376.91" y1="77.65" x2="382.4" y2="68.94"/></g><g id="LINE-45" data-name="LINE"><line class="cls-4" x1="334.04" y1="77.65" x2="346.35" y2="77.65"/></g><g id="LINE-46" data-name="LINE"><line class="cls-4" x1="351.83" y1="68.94" x2="359.12" y2="68.94"/></g><g id="LINE-47" data-name="LINE"><line class="cls-4" x1="364.6" y1="77.65" x2="359.12" y2="68.94"/></g><g id="LINE-48" data-name="LINE"><line class="cls-4" x1="346.35" y1="77.65" x2="351.83" y2="68.94"/></g><g id="LINE-49" data-name="LINE"><line class="cls-4" x1="303.48" y1="77.65" x2="315.78" y2="77.65"/></g><g id="LINE-50" data-name="LINE"><line class="cls-4" x1="321.27" y1="68.94" x2="328.55" y2="68.94"/></g><g id="LINE-51" data-name="LINE"><line class="cls-4" x1="334.04" y1="77.65" x2="328.55" y2="68.94"/></g><g id="LINE-52" data-name="LINE"><line class="cls-4" x1="315.78" y1="77.65" x2="321.27" y2="68.94"/></g><g id="LINE-53" data-name="LINE"><line class="cls-4" x1="290.7" y1="68.94" x2="297.99" y2="68.94"/></g><g id="LINE-54" data-name="LINE"><line class="cls-4" x1="303.48" y1="77.65" x2="297.99" y2="68.94"/></g><g id="LINE-55" data-name="LINE"><line class="cls-4" x1="285.22" y1="77.65" x2="290.7" y2="68.94"/></g><g id="LINE-56" data-name="LINE"><line class="cls-4" x1="297.99" y1="68.94" x2="333.26" y2="29.35"/></g><g id="LINE-57" data-name="LINE"><line class="cls-4" x1="474.09" y1="68.94" x2="450.64" y2="29.35"/></g><g id="LINE-58" data-name="LINE"><line class="cls-4" x1="328.41" y1="29.35" x2="290.7" y2="68.94"/></g><g id="LINE-59" data-name="LINE"><line class="cls-4" x1="337.23" y1="34.77" x2="303.48" y2="77.65"/></g><g id="LINE-60" data-name="LINE"><line class="cls-4" x1="348.78" y1="29.35" x2="321.27" y2="68.94"/></g><g id="LINE-61" data-name="LINE"><line class="cls-4" x1="353.64" y1="29.35" x2="328.55" y2="68.94"/></g><g id="LINE-62" data-name="LINE"><line class="cls-4" x1="357.5" y1="34.77" x2="334.04" y2="77.65"/></g><g id="LINE-63" data-name="LINE"><line class="cls-4" x1="369.15" y1="29.35" x2="351.83" y2="68.94"/></g><g id="LINE-64" data-name="LINE"><line class="cls-4" x1="374.01" y1="29.35" x2="359.12" y2="68.94"/></g><g id="LINE-65" data-name="LINE"><line class="cls-4" x1="377.78" y1="34.77" x2="364.6" y2="77.65"/></g><g id="LINE-66" data-name="LINE"><line class="cls-4" x1="385.95" y1="34.77" x2="376.91" y2="77.65"/></g><g id="LINE-67" data-name="LINE"><line class="cls-4" x1="389.52" y1="29.35" x2="382.4" y2="68.94"/></g><g id="LINE-68" data-name="LINE"><line class="cls-4" x1="394.38" y1="29.35" x2="389.68" y2="68.94"/></g><g id="LINE-69" data-name="LINE"><line class="cls-4" x1="398.06" y1="34.77" x2="395.17" y2="77.65"/></g><g id="LINE-70" data-name="LINE"><line class="cls-4" x1="406.23" y1="34.77" x2="407.48" y2="77.65"/></g><g id="LINE-71" data-name="LINE"><line class="cls-4" x1="409.89" y1="29.35" x2="412.96" y2="68.94"/></g><g id="LINE-72" data-name="LINE"><line class="cls-4" x1="414.75" y1="29.35" x2="420.25" y2="68.94"/></g><g id="LINE-73" data-name="LINE"><line class="cls-4" x1="418.34" y1="34.77" x2="425.73" y2="77.65"/></g><g id="LINE-74" data-name="LINE"><line class="cls-4" x1="426.5" y1="34.77" x2="438.04" y2="77.65"/></g><g id="LINE-75" data-name="LINE"><line class="cls-4" x1="430.27" y1="29.35" x2="443.53" y2="68.94"/></g><g id="LINE-76" data-name="LINE"><line class="cls-4" x1="435.12" y1="29.35" x2="450.81" y2="68.94"/></g><g id="LINE-77" data-name="LINE"><line class="cls-4" x1="446.78" y1="34.77" x2="468.6" y2="77.65"/></g><g id="LINE-78" data-name="LINE"><line class="cls-4" x1="455.49" y1="29.35" x2="481.37" y2="68.94"/></g><g id="LINE-79" data-name="LINE"><line class="cls-4" x1="467.06" y1="34.77" x2="499.17" y2="77.65"/></g><g id="LINE-80" data-name="LINE"><line class="cls-4" x1="471.01" y1="29.35" x2="504.65" y2="68.94"/></g><g id="LINE-81" data-name="LINE"><line class="cls-4" x1="475.86" y1="29.35" x2="511.94" y2="68.94"/></g><g id="LINE-82" data-name="LINE"><line class="cls-4" x1="333.26" y1="29.35" x2="337.23" y2="34.77"/></g><g id="LINE-83" data-name="LINE"><line class="cls-4" x1="337.23" y1="34.77" x2="345.01" y2="34.77"/></g><g id="LINE-84" data-name="LINE"><line class="cls-4" x1="345.01" y1="34.77" x2="348.78" y2="29.35"/></g><g id="LINE-85" data-name="LINE"><line class="cls-4" x1="348.78" y1="29.35" x2="353.64" y2="29.35"/></g><g id="LINE-86" data-name="LINE"><line class="cls-4" x1="353.64" y1="29.35" x2="357.5" y2="34.77"/></g><g id="LINE-87" data-name="LINE"><line class="cls-4" x1="357.5" y1="34.77" x2="366.78" y2="34.77"/></g><g id="LINE-88" data-name="LINE"><line class="cls-4" x1="366.78" y1="34.77" x2="369.15" y2="29.35"/></g><g id="LINE-89" data-name="LINE"><line class="cls-4" x1="369.15" y1="29.35" x2="374.01" y2="29.35"/></g><g id="LINE-90" data-name="LINE"><line class="cls-4" x1="374.01" y1="29.35" x2="377.78" y2="34.77"/></g><g id="LINE-91" data-name="LINE"><line class="cls-4" x1="377.78" y1="34.77" x2="385.95" y2="34.77"/></g><g id="LINE-92" data-name="LINE"><line class="cls-4" x1="385.95" y1="34.77" x2="389.52" y2="29.35"/></g><g id="LINE-93" data-name="LINE"><line class="cls-4" x1="389.52" y1="29.35" x2="394.38" y2="29.35"/></g><g id="LINE-94" data-name="LINE"><line class="cls-4" x1="394.38" y1="29.35" x2="398.06" y2="34.77"/></g><g id="LINE-95" data-name="LINE"><line class="cls-4" x1="398.06" y1="34.77" x2="406.23" y2="34.77"/></g><g id="LINE-96" data-name="LINE"><line class="cls-4" x1="406.23" y1="34.77" x2="409.89" y2="29.35"/></g><g id="LINE-97" data-name="LINE"><line class="cls-4" x1="409.89" y1="29.35" x2="414.75" y2="29.35"/></g><g id="LINE-98" data-name="LINE"><line class="cls-4" x1="414.75" y1="29.35" x2="418.34" y2="34.77"/></g><g id="LINE-99" data-name="LINE"><line class="cls-4" x1="418.34" y1="34.77" x2="426.5" y2="34.77"/></g><g id="LINE-100" data-name="LINE"><line class="cls-4" x1="426.5" y1="34.77" x2="430.27" y2="29.35"/></g><g id="LINE-101" data-name="LINE"><line class="cls-4" x1="430.27" y1="29.35" x2="435.12" y2="29.35"/></g><g id="LINE-102" data-name="LINE"><line class="cls-4" x1="435.12" y1="29.35" x2="437.27" y2="34.77"/></g><g id="LINE-103" data-name="LINE"><line class="cls-4" x1="437.27" y1="34.77" x2="446.78" y2="34.77"/></g><g id="LINE-104" data-name="LINE"><line class="cls-4" x1="446.78" y1="34.77" x2="450.64" y2="29.35"/></g><g id="LINE-105" data-name="LINE"><line class="cls-4" x1="450.64" y1="29.35" x2="455.49" y2="29.35"/></g><g id="LINE-106" data-name="LINE"><line class="cls-4" x1="455.49" y1="29.35" x2="459.03" y2="34.77"/></g><g id="LINE-107" data-name="LINE"><line class="cls-4" x1="459.03" y1="34.77" x2="467.06" y2="34.77"/></g><g id="LINE-108" data-name="LINE"><line class="cls-4" x1="467.06" y1="34.77" x2="471.01" y2="29.35"/></g><g id="LINE-109" data-name="LINE"><line class="cls-4" x1="471.01" y1="29.35" x2="475.86" y2="29.35"/></g><g id="LINE-110" data-name="LINE"><line class="cls-4" x1="475.86" y1="29.35" x2="480.8" y2="34.77"/></g><g id="LINE-111" data-name="LINE"><line class="cls-4" x1="480.8" y1="34.77" x2="483.48" y2="34.77"/></g><g id="LINE-112" data-name="LINE"><line class="cls-4" x1="483.48" y1="34.77" x2="523.92" y2="77.65"/></g><g id="LINE-113" data-name="LINE"><line class="cls-4" x1="333.26" y1="29.35" x2="328.41" y2="29.35"/></g><g id="LINE-114" data-name="LINE"><line class="cls-4" x1="145.66" y1="168.35" x2="155.19" y2="168.35"/></g><g id="LINE-115" data-name="LINE"><line class="cls-4" x1="138.98" y1="175.25" x2="145.66" y2="168.35"/></g><g id="LINE-116" data-name="LINE"><line class="cls-4" x1="155.19" y1="168.35" x2="161.87" y2="175.25"/></g><g id="LINE-117" data-name="LINE"><line class="cls-4" x1="161.87" y1="175.25" x2="171.97" y2="175.25"/></g><g id="LINE-118" data-name="LINE"><line class="cls-4" x1="173.8" y1="173.5" x2="185.72" y2="173.5"/></g><g id="LINE-119" data-name="LINE"><line class="cls-4" x1="185.72" y1="173.5" x2="187.55" y2="175.25"/></g><g id="LINE-120" data-name="LINE"><line class="cls-4" x1="187.55" y1="175.25" x2="197.64" y2="175.25"/></g><g id="LINE-121" data-name="LINE"><line class="cls-4" x1="173.8" y1="173.5" x2="171.97" y2="175.25"/></g><g id="LINE-122" data-name="LINE"><line class="cls-4" x1="204.32" y1="168.35" x2="213.85" y2="168.35"/></g><g id="LINE-123" data-name="LINE"><line class="cls-4" x1="197.64" y1="175.25" x2="204.32" y2="168.35"/></g><g id="LINE-124" data-name="LINE"><line class="cls-4" x1="213.85" y1="168.35" x2="220.53" y2="175.25"/></g><g id="LINE-125" data-name="LINE"><line class="cls-4" x1="220.53" y1="175.25" x2="230.63" y2="175.25"/></g><g id="LINE-126" data-name="LINE"><line class="cls-4" x1="232.46" y1="173.5" x2="244.38" y2="173.5"/></g><g id="LINE-127" data-name="LINE"><line class="cls-4" x1="244.38" y1="173.5" x2="246.21" y2="175.25"/></g><g id="LINE-128" data-name="LINE"><line class="cls-4" x1="246.21" y1="175.25" x2="256.3" y2="175.25"/></g><g id="LINE-129" data-name="LINE"><line class="cls-4" x1="232.46" y1="173.5" x2="230.63" y2="175.25"/></g><g id="LINE-130" data-name="LINE"><line class="cls-4" x1="262.98" y1="168.35" x2="272.51" y2="168.35"/></g><g id="LINE-131" data-name="LINE"><line class="cls-4" x1="256.3" y1="175.25" x2="262.98" y2="168.35"/></g><g id="LINE-132" data-name="LINE"><line class="cls-4" x1="272.51" y1="168.35" x2="279.19" y2="175.25"/></g><g id="LINE-133" data-name="LINE"><line class="cls-4" x1="279.19" y1="175.25" x2="286.74" y2="175.25"/></g><g id="LINE-134" data-name="LINE"><line class="cls-4" x1="87" y1="168.35" x2="96.53" y2="168.35"/></g><g id="LINE-135" data-name="LINE"><line class="cls-4" x1="80.32" y1="175.25" x2="87" y2="168.35"/></g><g id="LINE-136" data-name="LINE"><line class="cls-4" x1="96.53" y1="168.35" x2="103.21" y2="175.25"/></g><g id="LINE-137" data-name="LINE"><line class="cls-4" x1="103.21" y1="175.25" x2="113.31" y2="175.25"/></g><g id="LINE-138" data-name="LINE"><line class="cls-4" x1="115.14" y1="173.5" x2="127.06" y2="173.5"/></g><g id="LINE-139" data-name="LINE"><line class="cls-4" x1="127.06" y1="173.5" x2="128.89" y2="175.25"/></g><g id="LINE-140" data-name="LINE"><line class="cls-4" x1="128.89" y1="175.25" x2="138.98" y2="175.25"/></g><g id="LINE-141" data-name="LINE"><line class="cls-4" x1="115.14" y1="173.5" x2="113.31" y2="175.25"/></g><g id="LINE-142" data-name="LINE"><line class="cls-4" x1="37.88" y1="168.35" x2="44.56" y2="175.25"/></g><g id="LINE-143" data-name="LINE"><line class="cls-4" x1="44.56" y1="175.25" x2="54.65" y2="175.25"/></g><g id="LINE-144" data-name="LINE"><line class="cls-4" x1="56.48" y1="173.5" x2="68.4" y2="173.5"/></g><g id="LINE-145" data-name="LINE"><line class="cls-4" x1="68.4" y1="173.5" x2="70.23" y2="175.25"/></g><g id="LINE-146" data-name="LINE"><line class="cls-4" x1="70.23" y1="175.25" x2="80.32" y2="175.25"/></g><g id="LINE-147" data-name="LINE"><line class="cls-4" x1="56.48" y1="173.5" x2="54.65" y2="175.25"/></g><g id="LINE-148" data-name="LINE"><line class="cls-4" x1="205.02" y1="139.78" x2="220.53" y2="175.25"/></g><g id="LINE-149" data-name="LINE"><line class="cls-4" x1="212.08" y1="139.78" x2="230.63" y2="175.25"/></g><g id="LINE-150" data-name="LINE"><line class="cls-4" x1="140.97" y1="139.78" x2="128.89" y2="175.25"/></g><g id="LINE-151" data-name="LINE"><line class="cls-4" x1="99.98" y1="139.78" x2="70.23" y2="175.25"/></g><g id="LINE-152" data-name="LINE"><line class="cls-4" x1="37.88" y1="168.35" x2="77.19" y2="135.11"/></g><g id="LINE-153" data-name="LINE"><line class="cls-4" x1="262.98" y1="168.35" x2="234.81" y2="135.11"/></g><g id="LINE-154" data-name="LINE"><line class="cls-4" x1="70.52" y1="135.11" x2="28.35" y2="168.35"/></g><g id="LINE-155" data-name="LINE"><line class="cls-4" x1="82.03" y1="139.78" x2="44.56" y2="175.25"/></g><g id="LINE-156" data-name="LINE"><line class="cls-4" x1="89.18" y1="139.78" x2="56.48" y2="173.5"/></g><g id="LINE-157" data-name="LINE"><line class="cls-4" x1="98.88" y1="138.36" x2="68.4" y2="173.5"/></g><g id="LINE-158" data-name="LINE"><line class="cls-4" x1="111.59" y1="135.11" x2="87" y2="168.35"/></g><g id="LINE-159" data-name="LINE"><line class="cls-4" x1="118.26" y1="135.11" x2="96.53" y2="168.35"/></g><g id="LINE-160" data-name="LINE"><line class="cls-4" x1="123.03" y1="139.78" x2="103.21" y2="175.25"/></g><g id="LINE-161" data-name="LINE"><line class="cls-4" x1="130.8" y1="139.78" x2="115.14" y2="173.5"/></g><g id="LINE-162" data-name="LINE"><line class="cls-4" x1="139.77" y1="138.36" x2="127.06" y2="173.5"/></g><g id="LINE-163" data-name="LINE"><line class="cls-4" x1="148.02" y1="139.78" x2="138.98" y2="175.25"/></g><g id="LINE-164" data-name="LINE"><line class="cls-4" x1="152.66" y1="135.11" x2="145.66" y2="168.35"/></g><g id="LINE-165" data-name="LINE"><line class="cls-4" x1="159.34" y1="135.11" x2="155.19" y2="168.35"/></g><g id="LINE-166" data-name="LINE"><line class="cls-4" x1="164.02" y1="139.78" x2="161.87" y2="175.25"/></g><g id="LINE-167" data-name="LINE"><line class="cls-4" x1="172.41" y1="139.78" x2="173.8" y2="173.5"/></g><g id="LINE-168" data-name="LINE"><line class="cls-4" x1="180.87" y1="139.78" x2="185.72" y2="173.5"/></g><g id="LINE-169" data-name="LINE"><line class="cls-4" x1="189.02" y1="139.78" x2="197.64" y2="175.25"/></g><g id="LINE-170" data-name="LINE"><line class="cls-4" x1="193.74" y1="135.11" x2="204.32" y2="168.35"/></g><g id="LINE-171" data-name="LINE"><line class="cls-4" x1="200.41" y1="135.11" x2="213.85" y2="168.35"/></g><g id="LINE-172" data-name="LINE"><line class="cls-4" x1="213.25" y1="138.36" x2="232.46" y2="173.5"/></g><g id="LINE-173" data-name="LINE"><line class="cls-4" x1="222.04" y1="138.36" x2="246.21" y2="175.25"/></g><g id="LINE-174" data-name="LINE"><line class="cls-4" x1="230.02" y1="139.78" x2="256.3" y2="175.25"/></g><g id="LINE-175" data-name="LINE"><line class="cls-4" x1="241.48" y1="135.11" x2="272.51" y2="168.35"/></g><g id="LINE-176" data-name="LINE"><line class="cls-4" x1="251.3" y1="139.78" x2="286.74" y2="175.25"/></g><g id="LINE-177" data-name="LINE"><line class="cls-4" x1="70.52" y1="135.11" x2="77.19" y2="135.11"/></g><g id="LINE-178" data-name="LINE"><line class="cls-4" x1="77.19" y1="135.11" x2="82.03" y2="139.78"/></g><g id="LINE-179" data-name="LINE"><line class="cls-4" x1="82.03" y1="139.78" x2="89.18" y2="139.78"/></g><g id="LINE-180" data-name="LINE"><line class="cls-4" x1="89.18" y1="139.78" x2="90.57" y2="138.36"/></g><g id="LINE-181" data-name="LINE"><line class="cls-4" x1="90.57" y1="138.36" x2="98.88" y2="138.36"/></g><g id="LINE-182" data-name="LINE"><line class="cls-4" x1="98.88" y1="138.36" x2="99.98" y2="139.78"/></g><g id="LINE-183" data-name="LINE"><line class="cls-4" x1="108.13" y1="139.78" x2="111.59" y2="135.11"/></g><g id="LINE-184" data-name="LINE"><line class="cls-4" x1="111.59" y1="135.11" x2="118.26" y2="135.11"/></g><g id="LINE-185" data-name="LINE"><line class="cls-4" x1="118.26" y1="135.11" x2="123.03" y2="139.78"/></g><g id="LINE-186" data-name="LINE"><line class="cls-4" x1="123.03" y1="139.78" x2="130.8" y2="139.78"/></g><g id="LINE-187" data-name="LINE"><line class="cls-4" x1="130.8" y1="139.78" x2="131.46" y2="138.36"/></g><g id="LINE-188" data-name="LINE"><line class="cls-4" x1="131.46" y1="138.36" x2="139.77" y2="138.36"/></g><g id="LINE-189" data-name="LINE"><line class="cls-4" x1="139.77" y1="138.36" x2="140.97" y2="139.78"/></g><g id="LINE-190" data-name="LINE"><line class="cls-4" x1="140.97" y1="139.78" x2="148.02" y2="139.78"/></g><g id="LINE-191" data-name="LINE"><line class="cls-4" x1="148.02" y1="139.78" x2="152.66" y2="135.11"/></g><g id="LINE-192" data-name="LINE"><line class="cls-4" x1="152.66" y1="135.11" x2="159.34" y2="135.11"/></g><g id="LINE-193" data-name="LINE"><line class="cls-4" x1="159.34" y1="135.11" x2="164.02" y2="139.78"/></g><g id="LINE-194" data-name="LINE"><line class="cls-4" x1="164.02" y1="139.78" x2="172.41" y2="139.78"/></g><g id="LINE-195" data-name="LINE"><line class="cls-4" x1="172.41" y1="139.78" x2="172.35" y2="138.36"/></g><g id="LINE-196" data-name="LINE"><line class="cls-4" x1="172.35" y1="138.36" x2="180.66" y2="138.36"/></g><g id="LINE-197" data-name="LINE"><line class="cls-4" x1="180.66" y1="138.36" x2="180.87" y2="139.78"/></g><g id="LINE-198" data-name="LINE"><line class="cls-4" x1="180.87" y1="139.78" x2="189.02" y2="139.78"/></g><g id="LINE-199" data-name="LINE"><line class="cls-4" x1="189.02" y1="139.78" x2="193.74" y2="135.11"/></g><g id="LINE-200" data-name="LINE"><line class="cls-4" x1="193.74" y1="135.11" x2="200.41" y2="135.11"/></g><g id="LINE-201" data-name="LINE"><line class="cls-4" x1="200.41" y1="135.11" x2="205.02" y2="139.78"/></g><g id="LINE-202" data-name="LINE"><line class="cls-4" x1="205.02" y1="139.78" x2="212.08" y2="139.78"/></g><g id="LINE-203" data-name="LINE"><line class="cls-4" x1="212.08" y1="139.78" x2="213.25" y2="138.36"/></g><g id="LINE-204" data-name="LINE"><line class="cls-4" x1="213.25" y1="138.36" x2="222.04" y2="138.36"/></g><g id="LINE-205" data-name="LINE"><line class="cls-4" x1="222.04" y1="138.36" x2="222.97" y2="139.78"/></g><g id="LINE-206" data-name="LINE"><line class="cls-4" x1="222.97" y1="139.78" x2="230.02" y2="139.78"/></g><g id="LINE-207" data-name="LINE"><line class="cls-4" x1="230.02" y1="139.78" x2="234.81" y2="135.11"/></g><g id="LINE-208" data-name="LINE"><line class="cls-4" x1="234.81" y1="135.11" x2="241.48" y2="135.11"/></g><g id="LINE-209" data-name="LINE"><line class="cls-4" x1="241.48" y1="135.11" x2="245.85" y2="139.78"/></g><g id="LINE-210" data-name="LINE"><line class="cls-4" x1="245.85" y1="139.78" x2="251.3" y2="139.78"/></g><g id="LINE-211" data-name="LINE"><line class="cls-4" x1="99.98" y1="139.78" x2="108.13" y2="139.78"/></g><g id="LINE-212" data-name="LINE"><line class="cls-4" x1="28.35" y1="168.35" x2="37.87" y2="168.35"/></g><g id="LINE-213" data-name="LINE"><line class="cls-4" x1="387.66" y1="133.53" x2="367.68" y2="166.03"/></g><g id="LINE-214" data-name="LINE"><line class="cls-4" x1="387.44" y1="135.2" x2="367.68" y2="168.01"/></g><g id="LINE-215" data-name="LINE"><line class="cls-4" x1="387.59" y1="138.78" x2="368.51" y2="172.31"/></g><g id="LINE-216" data-name="LINE"><line class="cls-4" x1="466.41" y1="133.53" x2="486.39" y2="166.03"/></g><g id="LINE-217" data-name="LINE"><line class="cls-4" x1="466.63" y1="135.2" x2="486.39" y2="168.01"/></g><g id="LINE-218" data-name="LINE"><line class="cls-4" x1="466.52" y1="138.7" x2="485.56" y2="172.31"/></g><g id="LINE-219" data-name="LINE"><line class="cls-4" x1="381.47" y1="175.28" x2="390.66" y2="175.28"/></g><g id="LINE-220" data-name="LINE"><line class="cls-4" x1="392.46" y1="176.88" x2="400.95" y2="176.88"/></g><g id="LINE-221" data-name="LINE"><line class="cls-4" x1="390.66" y1="175.28" x2="392.46" y2="176.88"/></g><g id="LINE-222" data-name="LINE"><line class="cls-4" x1="381.47" y1="175.28" x2="379.67" y2="176.88"/></g><g id="LINE-223" data-name="LINE"><line class="cls-4" x1="369.57" y1="176.88" x2="379.67" y2="176.88"/></g><g id="LINE-224" data-name="LINE"><line class="cls-4" x1="402.76" y1="175.28" x2="411.94" y2="175.28"/></g><g id="LINE-225" data-name="LINE"><line class="cls-4" x1="413.74" y1="176.88" x2="423.73" y2="176.88"/></g><g id="LINE-226" data-name="LINE"><line class="cls-4" x1="411.94" y1="175.28" x2="413.74" y2="176.88"/></g><g id="LINE-227" data-name="LINE"><line class="cls-4" x1="402.76" y1="175.28" x2="400.95" y2="176.88"/></g><g id="LINE-228" data-name="LINE"><line class="cls-4" x1="430.29" y1="176.88" x2="438.08" y2="176.88"/></g><g id="LINE-229" data-name="LINE"><line class="cls-4" x1="439.88" y1="175.28" x2="449.06" y2="175.28"/></g><g id="LINE-230" data-name="LINE"><line class="cls-4" x1="450.87" y1="176.88" x2="459.36" y2="176.88"/></g><g id="LINE-231" data-name="LINE"><line class="cls-4" x1="449.06" y1="175.28" x2="450.87" y2="176.88"/></g><g id="LINE-232" data-name="LINE"><line class="cls-4" x1="439.88" y1="175.28" x2="438.08" y2="176.88"/></g><g id="LINE-233" data-name="LINE"><line class="cls-4" x1="461.16" y1="175.28" x2="470.34" y2="175.28"/></g><g id="LINE-234" data-name="LINE"><line class="cls-4" x1="472.15" y1="176.88" x2="484.51" y2="176.88"/></g><g id="LINE-235" data-name="LINE"><line class="cls-4" x1="470.34" y1="175.28" x2="472.15" y2="176.88"/></g><g id="LINE-236" data-name="LINE"><line class="cls-4" x1="461.16" y1="175.28" x2="459.36" y2="176.88"/></g><g id="LINE-237" data-name="LINE"><line class="cls-4" x1="390.66" y1="175.28" x2="403.29" y2="138.45"/></g><g id="LINE-238" data-name="LINE"><line class="cls-4" x1="439.88" y1="175.28" x2="435.42" y2="138.45"/></g><g id="LINE-239" data-name="LINE"><line class="cls-4" x1="397.3" y1="138.45" x2="381.47" y2="175.28"/></g><g id="LINE-240" data-name="LINE"><line class="cls-4" x1="411.19" y1="138.45" x2="402.76" y2="175.28"/></g><g id="LINE-241" data-name="LINE"><line class="cls-4" x1="417.18" y1="138.45" x2="411.94" y2="175.28"/></g><g id="LINE-242" data-name="LINE"><line class="cls-4" x1="441.41" y1="138.45" x2="449.06" y2="175.28"/></g><g id="LINE-243" data-name="LINE"><line class="cls-4" x1="449.31" y1="138.45" x2="461.16" y2="175.28"/></g><g id="LINE-244" data-name="LINE"><line class="cls-4" x1="455.3" y1="138.45" x2="470.34" y2="175.28"/></g><g id="LINE-245" data-name="LINE"><line class="cls-4" x1="397.3" y1="138.45" x2="403.29" y2="138.45"/></g><g id="LINE-246" data-name="LINE"><line class="cls-4" x1="388.49" y1="139.28" x2="396.94" y2="139.28"/></g><g id="LINE-247" data-name="LINE"><line class="cls-4" x1="364.82" y1="167.92" x2="364.82" y2="166.03"/></g><g id="LINE-248" data-name="LINE"><line class="cls-4" x1="367.68" y1="168.01" x2="367.68" y2="166.03"/></g><g id="SPLINE-44" data-name="SPLINE"><path class="cls-4" d="M368.51,175.83a1.05,1.05,0,0,0,1.06,1"/></g><g id="SPLINE-45" data-name="SPLINE"><path class="cls-4" d="M367.68,168a7,7,0,0,0,.83,4.3"/></g><g id="SPLINE-46" data-name="SPLINE"><path class="cls-4" d="M367.68,166a1.43,1.43,0,0,0-2.86,0"/></g><g id="LINE-249" data-name="LINE"><line class="cls-4" x1="368.51" y1="175.83" x2="368.51" y2="172.31"/></g><g id="LINE-250" data-name="LINE"><line class="cls-4" x1="489.25" y1="167.92" x2="489.25" y2="166.03"/></g><g id="LINE-251" data-name="LINE"><line class="cls-4" x1="486.39" y1="168.01" x2="486.39" y2="166.03"/></g><g id="SPLINE-47" data-name="SPLINE"><path class="cls-4" d="M484.51,176.88a1,1,0,0,0,1.05-1"/></g><g id="SPLINE-48" data-name="SPLINE"><path class="cls-4" d="M485.56,172.31a7,7,0,0,0,.83-4.3"/></g><g id="SPLINE-49" data-name="SPLINE"><path class="cls-4" d="M489.25,166a1.43,1.43,0,1,0-2.86,0"/></g><g id="LINE-252" data-name="LINE"><line class="cls-4" x1="485.56" y1="175.83" x2="485.56" y2="172.31"/></g><g id="LINE-253" data-name="LINE"><line class="cls-4" x1="386.46" y1="132.16" x2="364.99" y2="165.36"/></g><g id="LINE-254" data-name="LINE"><line class="cls-4" x1="389.31" y1="139.28" x2="369.06" y2="176.75"/></g><g id="LINE-255" data-name="LINE"><line class="cls-4" x1="387.44" y1="135.2" x2="387.44" y2="138.23"/></g><g id="SPLINE-50" data-name="SPLINE"><path class="cls-4" d="M387.44,138.23a1,1,0,0,0,1.05,1.05"/></g><g id="SPLINE-51" data-name="SPLINE"><path class="cls-4" d="M387.58,133.66a1,1,0,0,0-.22-1.37,1,1,0,0,0-.9-.13"/></g><g id="SPLINE-52" data-name="SPLINE"><path class="cls-4" d="M387.66,133.53a1.9,1.9,0,0,0-.22,1.67"/></g><g id="LINE-256" data-name="LINE"><line class="cls-4" x1="466.63" y1="135.2" x2="466.63" y2="138.23"/></g><g id="SPLINE-53" data-name="SPLINE"><path class="cls-4" d="M465.58,139.28a1,1,0,0,0,1.05-1.05"/></g><g id="SPLINE-54" data-name="SPLINE"><path class="cls-4" d="M467.61,132.16a1,1,0,0,0-1.2,1.37"/></g><g id="SPLINE-55" data-name="SPLINE"><path class="cls-4" d="M466.63,135.2a1.9,1.9,0,0,0-.22-1.67"/></g><g id="LINE-257" data-name="LINE"><line class="cls-4" x1="467.61" y1="132.16" x2="489.01" y2="165.24"/></g><g id="LINE-258" data-name="LINE"><line class="cls-4" x1="465.54" y1="139.28" x2="485.56" y2="175.83"/></g><g id="LINE-259" data-name="LINE"><line class="cls-4" x1="425.61" y1="168.01" x2="425.61" y2="166.03"/></g><g id="SPLINE-56" data-name="SPLINE"><path class="cls-4" d="M423.73,176.88a1,1,0,0,0,1-1"/></g><g id="SPLINE-57" data-name="SPLINE"><path class="cls-4" d="M424.78,172.31a7,7,0,0,0,.83-4.3"/></g><g id="SPLINE-58" data-name="SPLINE"><path class="cls-4" d="M428.41,166a1.4,1.4,0,0,0-2.8-.07V166"/></g><g id="LINE-260" data-name="LINE"><line class="cls-4" x1="424.78" y1="175.83" x2="424.78" y2="172.31"/></g><g id="SPLINE-59" data-name="SPLINE"><path class="cls-4" d="M429.23,175.83a1.05,1.05,0,0,0,1.06,1"/></g><g id="SPLINE-60" data-name="SPLINE"><path class="cls-4" d="M428.41,168a7.07,7.07,0,0,0,.82,4.3"/></g><g id="LINE-261" data-name="LINE"><line class="cls-4" x1="429.23" y1="175.83" x2="429.23" y2="172.31"/></g><g id="LINE-262" data-name="LINE"><line class="cls-4" x1="428.41" y1="166.03" x2="428.41" y2="168.01"/></g><g id="LINE-263" data-name="LINE"><line class="cls-4" x1="426.1" y1="133" x2="425.61" y2="166.03"/></g><g id="LINE-264" data-name="LINE"><line class="cls-4" x1="427.94" y1="133" x2="428.41" y2="166.03"/></g><g id="SPLINE-61" data-name="SPLINE"><path class="cls-4" d="M427.94,133.14a.92.92,0,0,0-.86-1,.94.94,0,0,0-1,.87v.11"/></g><g id="LINE-265" data-name="LINE"><line class="cls-4" x1="428.03" y1="139.28" x2="435.52" y2="139.28"/></g><g id="LINE-266" data-name="LINE"><line class="cls-4" x1="403.01" y1="139.28" x2="411" y2="139.28"/></g><g id="LINE-267" data-name="LINE"><line class="cls-4" x1="417.06" y1="139.28" x2="426" y2="139.28"/></g><g id="LINE-268" data-name="LINE"><line class="cls-4" x1="411.19" y1="138.45" x2="417.18" y2="138.45"/></g><g id="LINE-269" data-name="LINE"><line class="cls-4" x1="435.42" y1="138.45" x2="441.41" y2="138.45"/></g><g id="LINE-270" data-name="LINE"><line class="cls-4" x1="449.31" y1="138.45" x2="455.3" y2="138.45"/></g><g id="LINE-271" data-name="LINE"><line class="cls-4" x1="441.59" y1="139.28" x2="449.58" y2="139.28"/></g><g id="LINE-272" data-name="LINE"><line class="cls-4" x1="455.64" y1="139.28" x2="465.58" y2="139.28"/></g></svg>