<?xml version="1.0" encoding="utf-8"?>
<!-- Generator: Adobe Illustrator 25.2.1, SVG Export Plug-In . SVG Version: 6.00 Build 0)  -->
<svg version="1.1" id="_x30_" xmlns="http://www.w3.org/2000/svg" xmlns:xlink="http://www.w3.org/1999/xlink" x="0px" y="0px"
	 viewBox="0 0 552.8 221.9" style="enable-background:new 0 0 552.8 221.9;" xml:space="preserve">
<style type="text/css">
	.st0{fill:none;}
	.st1{fill:none;stroke:#000000;stroke-width:0.5;stroke-miterlimit:10;}
	.st2{fill-rule:evenodd;clip-rule:evenodd;fill:url(#SVGID_1_);}
	.st3{fill-rule:evenodd;clip-rule:evenodd;fill:url(#SVGID_2_);}
	.st4{fill-rule:evenodd;clip-rule:evenodd;fill:url(#SVGID_3_);}
	.st5{fill:none;stroke:#231F20;stroke-width:0.25;stroke-miterlimit:10;}
	.st6{fill:#231F20;}
	.st7{font-family:'ArialMT';}
	.st8{font-size:12px;}
	.st9{fill:none;stroke:#231F20;stroke-linecap:round;stroke-linejoin:round;stroke-miterlimit:10;}
	.st10{fill:none;stroke:#231F20;stroke-width:0.75;stroke-miterlimit:10;stroke-dasharray:12.1488,6.0643,1.012400e-02,0;}
	.st11{font-family:'Arial-ItalicMT';}
</style>
<pattern  y="536.1" width="90.7" height="90.7" patternUnits="userSpaceOnUse" id="Earth" viewBox="11 -102.8 90.7 90.7" style="overflow:visible;">
	<g>
		<rect x="11" y="-102.8" class="st0" width="90.7" height="90.7"/>
		<g>
			<line class="st1" x1="45.1" y1="-0.4" x2="56.8" y2="-12.2"/>
			<line class="st1" x1="33.7" y1="-12.1" x2="22.4" y2="-0.8"/>
			<line class="st1" x1="67.6" y1="-0.2" x2="79.3" y2="-11.9"/>
			<line class="st1" x1="88.5" y1="-0.2" x2="100.2" y2="-11.9"/>
		</g>
		<g>
			<line class="st1" x1="113" y1="-72.5" x2="101.7" y2="-83.9"/>
			<line class="st1" x1="101.8" y1="-61.2" x2="112.9" y2="-50.1"/>
			<line class="st1" x1="101.4" y1="-38.5" x2="112.5" y2="-27.4"/>
			<line class="st1" x1="100.4" y1="-15.4" x2="111.5" y2="-4.4"/>
		</g>
		<g>
			<line class="st1" x1="29.6" y1="-79.8" x2="18.5" y2="-90.9"/>
			<line class="st1" x1="27.2" y1="-77.4" x2="15.9" y2="-88.7"/>
			<line class="st1" x1="24.8" y1="-75" x2="13.4" y2="-86.3"/>
			<line class="st1" x1="22.3" y1="-72.5" x2="11" y2="-83.9"/>
			<line class="st1" x1="52.3" y1="-83.9" x2="64.1" y2="-95.7"/>
			<line class="st1" x1="49.9" y1="-86.3" x2="61.7" y2="-98.1"/>
			<line class="st1" x1="47.5" y1="-88.7" x2="59.2" y2="-100.4"/>
			<line class="st1" x1="45.1" y1="-91.2" x2="56.8" y2="-102.9"/>
			<line class="st1" x1="34" y1="-84.2" x2="45.1" y2="-73.2"/>
			<line class="st1" x1="36.4" y1="-86.6" x2="47.7" y2="-75.4"/>
			<line class="st1" x1="38.8" y1="-89.1" x2="50.2" y2="-77.7"/>
			<line class="st1" x1="41.3" y1="-91.5" x2="52.6" y2="-80.2"/>
			<line class="st1" x1="33.7" y1="-102.8" x2="22.4" y2="-91.5"/>
			<line class="st1" x1="36.1" y1="-100.3" x2="24.8" y2="-89.1"/>
			<line class="st1" x1="38.5" y1="-97.9" x2="27.2" y2="-86.6"/>
			<line class="st1" x1="40.9" y1="-95.5" x2="29.6" y2="-84.2"/>
			<line class="st1" x1="29.5" y1="-60.9" x2="41.3" y2="-72.7"/>
			<line class="st1" x1="27.1" y1="-63.3" x2="38.9" y2="-75.1"/>
			<line class="st1" x1="24.6" y1="-65.7" x2="36.4" y2="-77.4"/>
			<line class="st1" x1="22.2" y1="-68.1" x2="34" y2="-79.9"/>
			<line class="st1" x1="11.1" y1="-61.2" x2="22.2" y2="-50.1"/>
			<line class="st1" x1="13.5" y1="-63.6" x2="24.8" y2="-52.3"/>
			<line class="st1" x1="16" y1="-66" x2="27.3" y2="-54.7"/>
			<line class="st1" x1="18.4" y1="-68.5" x2="29.7" y2="-57.1"/>
			<line class="st1" x1="74.9" y1="-83.6" x2="86.7" y2="-95.4"/>
			<line class="st1" x1="72.5" y1="-86" x2="84.2" y2="-97.8"/>
			<line class="st1" x1="70" y1="-88.5" x2="81.7" y2="-100.2"/>
			<line class="st1" x1="67.6" y1="-90.9" x2="79.3" y2="-102.6"/>
			<line class="st1" x1="56.5" y1="-84" x2="67.6" y2="-72.9"/>
			<line class="st1" x1="58.9" y1="-86.4" x2="70.2" y2="-75.1"/>
			<line class="st1" x1="61.4" y1="-88.8" x2="72.7" y2="-77.5"/>
			<line class="st1" x1="63.8" y1="-91.2" x2="75.1" y2="-79.9"/>
			<line class="st1" x1="52" y1="-60.6" x2="63.8" y2="-72.4"/>
			<line class="st1" x1="49.6" y1="-63" x2="61.4" y2="-74.8"/>
			<line class="st1" x1="47.2" y1="-65.4" x2="58.9" y2="-77.2"/>
			<line class="st1" x1="44.7" y1="-67.9" x2="56.5" y2="-79.6"/>
			<line class="st1" x1="33.7" y1="-60.9" x2="44.7" y2="-49.9"/>
			<line class="st1" x1="36.1" y1="-63.3" x2="47.4" y2="-52.1"/>
			<line class="st1" x1="38.5" y1="-65.8" x2="49.8" y2="-54.4"/>
			<line class="st1" x1="40.9" y1="-68.2" x2="52.3" y2="-56.9"/>
			<line class="st1" x1="29" y1="-38.1" x2="40.8" y2="-49.9"/>
			<line class="st1" x1="26.6" y1="-40.5" x2="38.4" y2="-52.3"/>
			<line class="st1" x1="24.2" y1="-43" x2="35.9" y2="-54.7"/>
			<line class="st1" x1="21.8" y1="-45.4" x2="33.5" y2="-57.1"/>
			<line class="st1" x1="10.7" y1="-38.5" x2="21.8" y2="-27.4"/>
			<line class="st1" x1="13.1" y1="-40.9" x2="24.4" y2="-29.6"/>
			<line class="st1" x1="15.5" y1="-43.3" x2="26.9" y2="-32"/>
			<line class="st1" x1="17.9" y1="-45.7" x2="29.3" y2="-34.4"/>
			<line class="st1" x1="73.9" y1="-60.6" x2="85.7" y2="-72.4"/>
			<line class="st1" x1="71.5" y1="-63" x2="83.3" y2="-74.8"/>
			<line class="st1" x1="69.1" y1="-65.4" x2="80.8" y2="-77.2"/>
			<line class="st1" x1="66.6" y1="-67.9" x2="78.4" y2="-79.6"/>
			<line class="st1" x1="55.6" y1="-60.9" x2="66.6" y2="-49.9"/>
			<line class="st1" x1="58" y1="-63.3" x2="69.2" y2="-52.1"/>
			<line class="st1" x1="60.4" y1="-65.8" x2="71.7" y2="-54.4"/>
			<line class="st1" x1="62.8" y1="-68.2" x2="74.2" y2="-56.9"/>
			<line class="st1" x1="51" y1="-37.6" x2="62.8" y2="-49.4"/>
			<line class="st1" x1="48.6" y1="-40" x2="60.4" y2="-51.8"/>
			<line class="st1" x1="46.2" y1="-42.4" x2="57.9" y2="-54.1"/>
			<line class="st1" x1="43.8" y1="-44.8" x2="55.5" y2="-56.6"/>
			<line class="st1" x1="32.7" y1="-37.9" x2="43.8" y2="-26.8"/>
			<line class="st1" x1="35.1" y1="-40.3" x2="46.4" y2="-29"/>
			<line class="st1" x1="37.5" y1="-42.8" x2="48.9" y2="-31.4"/>
			<line class="st1" x1="40" y1="-45.2" x2="51.3" y2="-33.9"/>
			<line class="st1" x1="28.1" y1="-15.1" x2="39.8" y2="-26.9"/>
			<line class="st1" x1="25.6" y1="-17.5" x2="37.4" y2="-29.3"/>
			<line class="st1" x1="23.2" y1="-19.9" x2="34.9" y2="-31.7"/>
			<line class="st1" x1="20.8" y1="-22.4" x2="32.5" y2="-34.1"/>
			<line class="st1" x1="9.7" y1="-15.4" x2="20.8" y2="-4.4"/>
			<line class="st1" x1="12.1" y1="-17.9" x2="23.4" y2="-6.6"/>
			<line class="st1" x1="14.5" y1="-20.3" x2="25.9" y2="-8.9"/>
			<line class="st1" x1="17" y1="-22.7" x2="28.3" y2="-11.4"/>
			<line class="st1" x1="95.7" y1="-83.6" x2="107.5" y2="-95.4"/>
			<line class="st1" x1="93.3" y1="-86" x2="105.1" y2="-97.8"/>
			<line class="st1" x1="90.9" y1="-88.5" x2="102.6" y2="-100.2"/>
			<line class="st1" x1="88.5" y1="-90.9" x2="100.2" y2="-102.6"/>
			<line class="st1" x1="77.4" y1="-84" x2="88.5" y2="-72.9"/>
			<line class="st1" x1="79.8" y1="-86.4" x2="91.1" y2="-75.1"/>
			<line class="st1" x1="82.2" y1="-88.8" x2="93.6" y2="-77.5"/>
			<line class="st1" x1="84.6" y1="-91.2" x2="96" y2="-79.9"/>
			<line class="st1" x1="74.4" y1="-38.2" x2="86.1" y2="-49.9"/>
			<line class="st1" x1="71.9" y1="-40.6" x2="83.7" y2="-52.4"/>
			<line class="st1" x1="69.5" y1="-43" x2="81.2" y2="-54.7"/>
			<line class="st1" x1="67.1" y1="-45.4" x2="78.8" y2="-57.2"/>
			<line class="st1" x1="56" y1="-38.5" x2="67.1" y2="-27.4"/>
			<line class="st1" x1="58.4" y1="-40.9" x2="69.7" y2="-29.6"/>
			<line class="st1" x1="60.8" y1="-43.3" x2="72.2" y2="-32"/>
			<line class="st1" x1="63.3" y1="-45.8" x2="74.6" y2="-34.4"/>
			<line class="st1" x1="51.5" y1="-15.1" x2="63.3" y2="-26.9"/>
			<line class="st1" x1="49.1" y1="-17.6" x2="60.9" y2="-29.3"/>
			<line class="st1" x1="46.7" y1="-20" x2="58.4" y2="-31.7"/>
			<line class="st1" x1="44.2" y1="-22.4" x2="56" y2="-34.2"/>
			<line class="st1" x1="33.1" y1="-15.5" x2="44.2" y2="-4.4"/>
			<line class="st1" x1="35.6" y1="-17.9" x2="46.8" y2="-6.6"/>
			<line class="st1" x1="38" y1="-20.3" x2="49.3" y2="-9"/>
			<line class="st1" x1="40.4" y1="-22.8" x2="51.7" y2="-11.4"/>
			<line class="st1" x1="96.6" y1="-60.9" x2="108.4" y2="-72.7"/>
			<line class="st1" x1="94.2" y1="-63.3" x2="106" y2="-75.1"/>
			<line class="st1" x1="91.8" y1="-65.7" x2="103.5" y2="-77.4"/>
			<line class="st1" x1="89.3" y1="-68.1" x2="101.1" y2="-79.9"/>
			<line class="st1" x1="78.2" y1="-61.2" x2="89.3" y2="-50.1"/>
			<line class="st1" x1="80.7" y1="-63.6" x2="91.9" y2="-52.3"/>
			<line class="st1" x1="83.1" y1="-66" x2="94.4" y2="-54.7"/>
			<line class="st1" x1="85.5" y1="-68.5" x2="96.9" y2="-57.1"/>
			<line class="st1" x1="96.7" y1="-38.1" x2="108.5" y2="-49.9"/>
			<line class="st1" x1="94.3" y1="-40.6" x2="106.1" y2="-52.3"/>
			<line class="st1" x1="91.9" y1="-43" x2="103.6" y2="-54.7"/>
			<line class="st1" x1="89.5" y1="-45.4" x2="101.2" y2="-57.2"/>
			<line class="st1" x1="78.4" y1="-38.5" x2="89.5" y2="-27.4"/>
			<line class="st1" x1="80.8" y1="-40.9" x2="92.1" y2="-29.6"/>
			<line class="st1" x1="83.2" y1="-43.3" x2="94.6" y2="-32"/>
			<line class="st1" x1="85.7" y1="-45.8" x2="97" y2="-34.4"/>
			<line class="st1" x1="73.9" y1="-15.1" x2="85.7" y2="-26.9"/>
			<line class="st1" x1="71.5" y1="-17.5" x2="83.3" y2="-29.3"/>
			<line class="st1" x1="69" y1="-20" x2="80.8" y2="-31.7"/>
			<line class="st1" x1="66.6" y1="-22.4" x2="78.4" y2="-34.1"/>
			<line class="st1" x1="55.8" y1="-15.5" x2="66.9" y2="-4.4"/>
			<line class="st1" x1="58.2" y1="-17.9" x2="69.5" y2="-6.6"/>
			<line class="st1" x1="60.7" y1="-20.3" x2="72" y2="-9"/>
			<line class="st1" x1="63.1" y1="-22.8" x2="74.4" y2="-11.4"/>
			<line class="st1" x1="96.7" y1="-15.8" x2="108.5" y2="-27.6"/>
			<line class="st1" x1="94.3" y1="-18.2" x2="106.1" y2="-30"/>
			<line class="st1" x1="91.8" y1="-20.7" x2="103.6" y2="-32.4"/>
			<line class="st1" x1="89.4" y1="-23.1" x2="101.2" y2="-34.8"/>
			<line class="st1" x1="78.6" y1="-16.2" x2="89.7" y2="-5.1"/>
			<line class="st1" x1="81" y1="-18.6" x2="92.3" y2="-7.3"/>
			<line class="st1" x1="83.5" y1="-21" x2="94.8" y2="-9.7"/>
			<line class="st1" x1="85.7" y1="-23.2" x2="97" y2="-11.9"/>
		</g>
		<g>
			<line class="st1" x1="5" y1="-83.6" x2="16.8" y2="-95.4"/>
			<line class="st1" x1="2.6" y1="-86" x2="14.4" y2="-97.8"/>
			<line class="st1" x1="0.2" y1="-88.5" x2="11.9" y2="-100.2"/>
			<line class="st1" x1="5.9" y1="-60.9" x2="17.7" y2="-72.7"/>
			<line class="st1" x1="3.5" y1="-63.3" x2="15.3" y2="-75.1"/>
			<line class="st1" x1="1" y1="-65.7" x2="12.8" y2="-77.4"/>
			<line class="st1" x1="6" y1="-38.1" x2="17.8" y2="-49.9"/>
			<line class="st1" x1="3.6" y1="-40.6" x2="15.4" y2="-52.3"/>
			<line class="st1" x1="1.2" y1="-43" x2="12.9" y2="-54.7"/>
			<line class="st1" x1="6" y1="-15.8" x2="17.8" y2="-27.6"/>
			<line class="st1" x1="3.6" y1="-18.2" x2="15.3" y2="-30"/>
			<line class="st1" x1="1.1" y1="-20.7" x2="12.9" y2="-32.4"/>
		</g>
		<g>
			<line class="st1" x1="100.4" y1="-106.2" x2="111.5" y2="-95.1"/>
		</g>
		<g>
			<line class="st1" x1="9.7" y1="-106.2" x2="20.8" y2="-95.1"/>
			<line class="st1" x1="12.1" y1="-108.6" x2="23.4" y2="-97.3"/>
			<line class="st1" x1="14.5" y1="-111" x2="25.9" y2="-99.7"/>
			<line class="st1" x1="17" y1="-113.4" x2="28.3" y2="-102.1"/>
			<line class="st1" x1="33.1" y1="-106.2" x2="44.2" y2="-95.1"/>
			<line class="st1" x1="35.6" y1="-108.6" x2="46.8" y2="-97.3"/>
			<line class="st1" x1="38" y1="-111" x2="49.3" y2="-99.7"/>
			<line class="st1" x1="40.4" y1="-113.5" x2="51.7" y2="-102.1"/>
			<line class="st1" x1="55.8" y1="-106.2" x2="66.9" y2="-95.1"/>
			<line class="st1" x1="58.2" y1="-108.6" x2="69.5" y2="-97.3"/>
			<line class="st1" x1="60.7" y1="-111" x2="72" y2="-99.7"/>
			<line class="st1" x1="63.1" y1="-113.5" x2="74.4" y2="-102.1"/>
			<line class="st1" x1="78.6" y1="-106.9" x2="89.7" y2="-95.8"/>
			<line class="st1" x1="81" y1="-109.3" x2="92.3" y2="-98"/>
			<line class="st1" x1="83.5" y1="-111.7" x2="94.8" y2="-100.4"/>
			<line class="st1" x1="85.7" y1="-113.9" x2="97" y2="-102.6"/>
		</g>
	</g>
</pattern>
<g>
	<g id="HATCH">
		<pattern  id="SVGID_1_" xlink:href="#Earth" patternTransform="matrix(1 0 0 1 181.1271 -151.2302)">
		</pattern>
		<polygon class="st2" points="132,197.4 132.4,187.7 190.4,187.7 190.8,197.2 		"/>
	</g>
	<g id="HATCH_1_">
		<pattern  id="SVGID_2_" xlink:href="#Earth" patternTransform="matrix(1 0 0 1 181.1271 -151.2302)">
		</pattern>
		<polyline class="st3" points="388.7,141 388.3,141.6 387.9,142.3 387.5,143 387.1,143.7 386.6,144.4 386.2,145.1 385.7,145.8 
			385.2,146.5 384.6,147.2 384.1,147.9 383.5,148.7 383,149.4 382.4,150.1 381.9,150.8 381.3,151.5 380.8,152.3 380.2,153 
			379.7,153.7 379.3,154.4 378.8,155.1 378.4,155.8 378.1,156.6 377.7,157.3 377.4,158 377.1,158.7 376.9,159.4 376.6,160.1 
			376.4,160.7 376.1,161.4 375.9,162 375.6,162.7 375.3,163.3 375,164 374.6,164.7 374.2,165.4 373.7,166.2 373.1,167.1 372.4,168 
			371.7,169 370.9,170.1 370,171.2 369.1,172.4 368.1,173.7 367.2,174.9 366.2,176.2 365.2,177.6 364.2,178.9 363.2,180.2 
			362.2,181.5 361.3,182.8 360.3,184 359.5,185.2 358.6,186.2 357.8,187.2 357.1,188.1 356.3,188.8 355.6,189.5 354.9,190.1 
			354.2,190.7 353.4,191.2 352.6,191.7 351.8,192.1 350.9,192.4 349.9,192.8 348.7,193 347.4,193.2 345.9,193.4 344.2,193.5 
			342.3,193.6 203.2,197.2 203,187.6 276.1,185.9 278.8,185.7 279,185.8 279.2,185.9 279.5,185.9 279.7,186 280,186 280.4,186.1 
			280.7,186.1 281.1,186.1 281.5,186.1 282,186.1 282.4,186.1 282.8,186.1 283.2,186.1 283.6,186.1 284,186.1 284.3,186 284.6,186 
			284.9,186 285.2,185.9 305.2,185 305.6,185 306,185 306.5,185 306.9,185 307.3,185 307.6,185 308,184.9 308.3,184.9 308.6,184.8 
			308.9,184.8 309.1,184.7 309.4,184.7 314.5,184.2 314.8,184.3 315.2,184.3 315.6,184.3 316,184.3 316.4,184.3 316.9,184.3 
			317.3,184.3 317.7,184.3 318.1,184.3 318.4,184.3 318.8,184.3 319.1,184.2 319.4,184.2 319.7,184.1 327,183.7 327.2,183.7 
			327.5,183.8 327.9,183.8 328.2,183.8 328.6,183.9 329,183.9 329.5,183.9 329.9,183.9 330.3,183.9 330.7,183.9 331.1,183.9 
			331.5,183.8 331.8,183.8 332.1,183.8 332.4,183.7 332.7,183.7 333,183.6 337.5,183.6 339.5,183.6 341.2,183.5 342.6,183.3 
			344,183.1 345.1,182.8 346.1,182.5 347,182.1 347.9,181.7 348.6,181.3 349.4,180.8 350.1,180.2 350.8,179.6 351.6,178.9 
			352.3,178.1 353,177.3 353.8,176.3 354.7,175.2 355.6,174.1 356.5,172.9 357.4,171.6 358.4,170.3 359.4,169 360.4,167.6 
			361.4,166.3 362.4,165 363.3,163.7 364.3,162.5 365.2,161.3 366.1,160.2 366.9,159.1 367.6,158.1 368.3,157.1 368.9,156.3 
			369.4,155.5 369.8,154.7 370.2,154.1 370.5,153.4 370.8,152.7 371.1,152.1 371.4,151.5 371.6,150.8 371.8,150.1 372.1,149.4 
			372.4,148.7 372.6,148 372.9,147.3 373.3,146.6 373.6,145.9 374,145.2 374.5,144.5 375,143.8 375.5,143 376,142.3 376.5,141.6 
			377.1,140.9 		"/>
		<pattern  id="SVGID_3_" xlink:href="#Earth" patternTransform="matrix(1 0 0 1 181.1271 -151.2302)">
		</pattern>
		<polyline class="st4" points="375.7,141.5 376.3,140.2 376.9,139 377.5,137.9 378.1,136.8 378.6,135.8 379.1,134.9 379.5,134 
			380,133.2 380.4,132.3 380.8,131.6 381.1,130.8 381.5,130 381.9,129.3 382.2,128.6 382.5,128 382.9,127.3 383.2,126.7 
			383.6,126.2 383.9,125.6 384.3,125.2 384.7,124.7 385,124.3 385.4,123.9 385.8,123.6 386.2,123.2 386.6,122.9 387,122.6 
			387.5,122.3 387.9,122 388.4,121.8 388.8,121.5 389.3,121.3 389.8,121 390.4,120.8 390.9,120.6 391.5,120.4 392.1,120.2 
			392.7,120 393.3,119.8 393.9,119.6 394.5,119.5 395.1,119.3 395.7,119.1 396.2,118.9 396.7,118.8 397.3,118.6 397.7,118.5 
			398.2,118.3 398.7,118.2 399.1,118.1 399.6,118 400,117.9 400.4,117.8 400.8,117.8 401.1,117.7 401.5,117.7 401.8,117.7 
			402.2,117.7 402.5,117.7 402.8,117.8 403.2,117.8 403.5,117.9 403.9,117.9 404.2,118 404.6,118.1 404.9,118.2 405.3,118.2 
			405.7,118.3 406.1,118.3 406.5,118.3 406.9,118.4 407.4,118.4 407.8,118.3 408.3,118.3 408.7,118.3 409.2,118.2 409.7,118.1 
			410.2,118.1 410.8,118 411.3,117.9 411.9,117.8 412.5,117.8 413.2,117.7 413.9,117.7 414.6,117.7 415.4,117.7 416.2,117.7 
			417,117.7 417.8,117.8 418.6,117.8 419.4,117.9 420.2,118 421.1,118.1 421.9,118.2 422.9,118.3 423.9,118.4 425,118.5 
			426.3,118.5 427.6,118.5 429,118.5 430.6,118.5 432.2,118.5 433.8,118.4 435.5,118.3 437.2,118.3 438.9,118.2 440.5,118.1 
			442.2,117.9 443.8,117.8 445.5,117.7 447.1,117.6 448.6,117.5 450.2,117.3 451.7,117.2 453.2,117.1 454.7,116.9 456.2,116.8 
			457.6,116.7 459.1,116.6 460.5,116.5 461.9,116.4 463.3,116.3 464.6,116.2 466,116.1 467.4,116 468.7,116 470.1,115.9 
			471.5,115.8 472.8,115.8 474.2,115.7 475.6,115.7 476.9,115.6 478.2,115.5 479.5,115.5 480.6,115.4 481.6,115.2 482.4,115.1 
			483,114.9 483,125.5 481.7,125.6 480.4,125.6 479,125.7 477.6,125.7 476.3,125.8 474.9,125.8 473.5,125.9 472.2,126 470.8,126 
			469.4,126.1 468.1,126.2 466.7,126.3 465.3,126.4 463.8,126.5 462.4,126.6 461,126.8 459.5,126.9 458,127 456.5,127.1 455,127.3 
			453.4,127.4 451.8,127.5 450.2,127.6 448.6,127.8 447,127.9 445.3,128 443.7,128.1 442,128.2 440.3,128.3 438.6,128.4 437,128.4 
			435.4,128.5 433.8,128.5 432.4,128.5 431.1,128.5 429.8,128.4 428.7,128.3 427.7,128.3 426.7,128.2 425.8,128.1 425,128 
			424.2,127.9 423.4,127.8 422.6,127.7 421.8,127.7 421,127.6 420.2,127.6 419.4,127.6 418.7,127.6 418,127.7 417.3,127.7 
			416.7,127.8 416.1,127.9 415.5,127.9 415,128 414.5,128.1 414,128.2 413.5,128.2 413.1,128.3 412.6,128.3 412.2,128.3 
			411.7,128.3 411.3,128.3 410.9,128.2 410.5,128.2 410.1,128.2 409.7,128.1 409.3,128 409,128 408.6,127.9 408.3,127.8 408,127.8 
			407.6,127.7 407.3,127.7 407,127.6 406.6,127.6 406.3,127.6 405.9,127.7 405.5,127.7 405.2,127.8 404.8,127.8 404.3,127.9 
			403.9,128 403.5,128.1 403,128.3 402.5,128.4 402,128.6 401.5,128.7 401,128.9 400.4,129 399.9,129.2 399.3,129.4 398.7,129.6 
			398.1,129.8 397.5,129.9 396.9,130.1 396.3,130.3 395.7,130.5 395.1,130.8 394.6,131 394.1,131.2 393.6,131.5 393.1,131.7 
			392.7,132 392.2,132.3 391.8,132.6 391.4,132.9 391,133.2 390.6,133.5 390.2,133.9 389.8,134.3 389.4,134.7 389.1,135.1 
			388.7,135.6 388.4,136.1 388,136.7 387.7,137.3 387.3,137.9 387,138.6 386.6,139.3 386.3,140 385.9,140.7 385.6,141.5 		"/>
	</g>
</g>
<g id="LINE_5_">
	<g>
		<line class="st5" x1="351.3" y1="87.7" x2="351.3" y2="18.2"/>
	</g>
</g>
<g id="MTEXT">
	<g>
		<text transform="matrix(1 0 0 1 93.3389 104.0299)" class="st6 st7 st8">Door threshold</text>
	</g>
</g>
<g id="MTEXT_1_">
</g>
<g id="LINE_8_">
	<g>
		<line class="st9" x1="205.2" y1="187" x2="205.2" y2="78.3"/>
	</g>
</g>
<g id="LINE_9_">
	<g>
		<line class="st9" x1="199.7" y1="149.2" x2="79.3" y2="149.2"/>
	</g>
</g>
<g id="LINE_10_">
	<g>
		<line class="st9" x1="199.7" y1="187" x2="199.7" y2="154.6"/>
	</g>
</g>
<g id="LINE_11_">
	<g>
		<line class="st9" x1="199.7" y1="154.6" x2="79.3" y2="154.6"/>
	</g>
</g>
<g id="LINE_12_">
	<g>
		<line class="st9" x1="205.2" y1="187" x2="79.3" y2="187"/>
	</g>
</g>
<g id="LINE_13_">
	<g>
		<line class="st9" x1="199.7" y1="149.2" x2="199.7" y2="80.9"/>
	</g>
</g>
<g id="LINE_14_">
	<g>
		<line class="st9" x1="199.7" y1="80.9" x2="79.3" y2="80.9"/>
	</g>
</g>
<g id="LINE_15_">
	<g>
		<line class="st9" x1="126.4" y1="37.7" x2="126.4" y2="31.8"/>
	</g>
</g>
<g id="LINE_16_">
	<g>
		<line class="st9" x1="126.4" y1="31.8" x2="172.6" y2="36.1"/>
	</g>
</g>
<g id="LINE_17_">
	<g>
		<line class="st9" x1="199.7" y1="80.9" x2="126.4" y2="37.7"/>
	</g>
</g>
<g id="LINE_18_">
	<g>
		<line class="st9" x1="205.2" y1="78.3" x2="126.4" y2="31.8"/>
	</g>
</g>
<g id="LINE_19_">
	<g>
		<line class="st9" x1="205.2" y1="78.3" x2="251.4" y2="82.5"/>
	</g>
</g>
<g id="LINE_20_">
	<g>
		<line class="st9" x1="251.4" y1="82.5" x2="172.6" y2="36.1"/>
	</g>
</g>
<g id="LINE_21_">
	<g>
		<line class="st9" x1="126.4" y1="31.8" x2="79.3" y2="61"/>
	</g>
</g>
<g id="LINE_22_">
	<g>
		<line class="st9" x1="126.4" y1="37.7" x2="79.3" y2="66.9"/>
	</g>
</g>
<g id="LINE_23_">
	<g>
		<line class="st9" x1="205.2" y1="149.2" x2="251.4" y2="149.2"/>
	</g>
</g>
<g id="LINE_24_">
	<g>
		<line class="st9" x1="251.4" y1="82.5" x2="251.4" y2="150.3"/>
	</g>
</g>
<g id="LINE_25_">
	<g>
		<line class="st9" x1="214.8" y1="106.6" x2="214.8" y2="149.2"/>
	</g>
</g>
<g id="LINE_26_">
	<g>
		<line class="st9" x1="228.4" y1="107.8" x2="228.4" y2="149.2"/>
	</g>
</g>
<g id="LINE_27_">
	<g>
		<line class="st9" x1="224.9" y1="110.8" x2="224.9" y2="127"/>
	</g>
</g>
<g id="LINE_28_">
	<g>
		<line class="st9" x1="214.8" y1="106.6" x2="228.4" y2="107.8"/>
	</g>
</g>
<g id="LINE_29_">
	<g>
		<line class="st9" x1="214.8" y1="109.9" x2="224.9" y2="110.8"/>
	</g>
</g>
<g id="CIRCLE">
	<g>
		<path class="st9" d="M223.2,128.1c0-0.7,0.5-1.2,1.2-1.2s1.2,0.5,1.2,1.2c0,0.7-0.5,1.2-1.2,1.2S223.2,128.7,223.2,128.1
			L223.2,128.1z"/>
	</g>
</g>
<g id="LINE_30_">
	<g>
		<line class="st9" x1="224.9" y1="129.1" x2="224.9" y2="149.2"/>
	</g>
</g>
<g id="POLYLINE_28_">
	<g>
		<polyline class="st9" points="205.2,187 298,185.1 301.1,185 		"/>
	</g>
</g>
<g id="LINE_45_">
	<g>
		<line class="st9" x1="272.3" y1="185.7" x2="272.3" y2="180.3"/>
	</g>
</g>
<g id="LINE_46_">
	<g>
		<line class="st9" x1="272.3" y1="180.3" x2="266" y2="180.3"/>
	</g>
</g>
<g id="LINE_47_">
	<g>
		<line class="st9" x1="266" y1="180.3" x2="266" y2="173.7"/>
	</g>
</g>
<g id="LINE_48_">
	<g>
		<line class="st9" x1="266" y1="173.7" x2="259.6" y2="173.7"/>
	</g>
</g>
<g id="LINE_49_">
	<g>
		<line class="st9" x1="259.6" y1="173.7" x2="259.6" y2="167.8"/>
	</g>
</g>
<g id="LINE_50_">
	<g>
		<line class="st9" x1="259.6" y1="167.8" x2="253" y2="167.8"/>
	</g>
</g>
<g id="LINE_51_">
	<g>
		<line class="st9" x1="253" y1="167.8" x2="253" y2="161.6"/>
	</g>
</g>
<g id="LINE_52_">
	<g>
		<line class="st9" x1="253" y1="161.6" x2="246.7" y2="161.6"/>
	</g>
</g>
<g id="LINE_53_">
	<g>
		<line class="st9" x1="246.7" y1="161.6" x2="246.7" y2="155.4"/>
	</g>
</g>
<g id="LINE_54_">
	<g>
		<line class="st9" x1="246.7" y1="155.4" x2="240.1" y2="155.4"/>
	</g>
</g>
<g id="LINE_55_">
	<g>
		<line class="st9" x1="240.1" y1="155.4" x2="240.1" y2="149.2"/>
	</g>
</g>
<g id="LINE_56_">
	<g>
		<line class="st9" x1="246.7" y1="155.4" x2="265" y2="157.3"/>
	</g>
</g>
<g id="LINE_57_">
	<g>
		<line class="st9" x1="290.6" y1="185.3" x2="290.6" y2="182.2"/>
	</g>
</g>
<g id="LINE_58_">
	<g>
		<line class="st9" x1="284.2" y1="181.5" x2="284.2" y2="175.6"/>
	</g>
</g>
<g id="LINE_59_">
	<g>
		<line class="st9" x1="277.9" y1="174.9" x2="277.9" y2="169.8"/>
	</g>
</g>
<g id="LINE_60_">
	<g>
		<line class="st9" x1="271.2" y1="169.1" x2="271.2" y2="163.5"/>
	</g>
</g>
<g id="LINE_61_">
	<g>
		<line class="st9" x1="265" y1="162.9" x2="265" y2="157.3"/>
	</g>
</g>
<g id="LINE_62_">
	<g>
		<line class="st9" x1="258.4" y1="156.6" x2="258.4" y2="151.1"/>
	</g>
</g>
<g id="LINE_63_">
	<g>
		<line class="st9" x1="253" y1="161.6" x2="271.2" y2="163.5"/>
	</g>
</g>
<g id="LINE_64_">
	<g>
		<line class="st9" x1="259.6" y1="167.8" x2="277.9" y2="169.8"/>
	</g>
</g>
<g id="LINE_65_">
	<g>
		<line class="st9" x1="266" y1="173.7" x2="284.2" y2="175.6"/>
	</g>
</g>
<g id="LINE_66_">
	<g>
		<line class="st9" x1="272.3" y1="180.3" x2="290.6" y2="182.2"/>
	</g>
</g>
<g id="LINE_67_">
	<g>
		<line class="st9" x1="240.1" y1="149.2" x2="258.4" y2="151.1"/>
	</g>
</g>
<g id="LINE_68_">
	<g>
		<path class="st9" d="M331.6,184.3"/>
		<path class="st9" d="M308.5,185.2"/>
	</g>
</g>
<g id="LINE_69_">
	<g>
		<path class="st9" d="M342.4,183.5"/>
		<path class="st9" d="M336.5,183.9"/>
	</g>
</g>
<g id="POLYLINE_3_">
	<g>
		<polyline class="st9" points="375.9,140.7 376.5,139.5 377.1,138.3 377.6,137.1 378.2,136.1 378.6,135.1 379.1,134.1 379.5,133.3 
			379.9,132.4 380.3,131.6 380.7,130.8 381,130.1 381.4,129.3 381.7,128.6 382,127.9 382.3,127.2 382.7,126.6 383,126 383.3,125.4 
			383.6,124.9 384,124.4 384.3,124 384.7,123.6 385,123.2 385.4,122.8 385.8,122.5 386.2,122.2 386.5,121.9 386.9,121.6 
			387.4,121.3 387.8,121 388.2,120.8 388.7,120.5 389.2,120.3 389.7,120.1 390.2,119.9 390.7,119.7 391.3,119.5 391.8,119.3 
			392.4,119.1 393,118.9 393.5,118.7 394.1,118.5 394.6,118.4 395.1,118.2 395.6,118 396.1,117.9 396.6,117.7 397,117.6 
			397.5,117.5 397.9,117.3 398.3,117.2 398.7,117.1 399,117.1 399.4,117 399.7,117 400.1,116.9 400.4,116.9 400.7,116.9 401,117 
			401.4,117 401.7,117.1 402,117.1 402.3,117.2 402.6,117.3 403,117.3 403.3,117.4 403.7,117.5 404,117.5 404.4,117.6 404.8,117.6 
			405.2,117.6 405.6,117.6 406,117.6 406.4,117.6 406.9,117.5 407.3,117.5 407.8,117.4 408.3,117.3 408.8,117.3 409.3,117.2 
			409.9,117.1 410.4,117 411.1,117 411.7,117 412.4,116.9 413.1,116.9 413.9,117 414.6,117 415.3,117 416.1,117.1 416.9,117.2 
			417.6,117.3 418.4,117.4 419.3,117.5 420.2,117.6 421.1,117.7 422.2,117.7 423.3,117.8 424.6,117.8 425.9,117.8 427.3,117.8 
			428.8,117.7 430.4,117.7 431.9,117.6 433.5,117.5 435.1,117.4 436.7,117.3 438.2,117.2 439.8,117.1 441.3,117 442.8,116.8 
			444.3,116.7 445.7,116.6 447.2,116.5 448.6,116.3 450,116.2 451.3,116.1 452.7,116 454,115.8 455.4,115.7 456.7,115.6 458,115.5 
			459.3,115.4 460.6,115.4 461.8,115.3 463.1,115.2 464.4,115.2 465.7,115.1 467,115 468.2,115 469.5,114.9 470.8,114.9 472,114.8 
			473.2,114.7 474.2,114.6 475.1,114.5 475.9,114.3 476.5,114.1 		"/>
		<polyline class="st9" points="213.3,186.8 281.8,185.1 284.3,185 284.5,185.1 284.7,185.1 284.9,185.2 285.2,185.2 285.5,185.3 
			285.8,185.3 286.1,185.3 286.5,185.4 286.9,185.4 287.3,185.4 287.7,185.4 288.1,185.4 288.4,185.4 288.8,185.4 289.1,185.3 
			289.5,185.3 289.8,185.3 290,185.2 290.3,185.2 309,184.3 309.4,184.3 309.8,184.3 310.2,184.3 310.6,184.3 311,184.2 
			311.3,184.2 311.6,184.2 311.9,184.2 312.2,184.1 312.5,184.1 312.7,184 312.9,183.9 317.8,183.5 318.1,183.5 318.4,183.5 
			318.8,183.6 319.2,183.6 319.6,183.6 320,183.6 320.3,183.6 320.7,183.6 321.1,183.6 321.4,183.6 321.8,183.5 322.1,183.5 
			322.3,183.4 322.6,183.4 329.4,183 329.7,183 330,183 330.3,183.1 330.6,183.1 331,183.1 331.4,183.1 331.8,183.2 332.2,183.2 
			332.6,183.2 332.9,183.1 333.3,183.1 333.7,183.1 334,183.1 334.3,183 334.6,183 334.8,182.9 335.1,182.9 339.3,182.9 
			341.1,182.8 342.7,182.7 344.1,182.6 345.4,182.3 346.4,182.1 347.4,181.7 348.2,181.4 349,181 349.8,180.5 350.5,180 
			351.1,179.5 351.8,178.8 352.5,178.2 353.2,177.4 353.9,176.5 354.6,175.6 355.4,174.5 356.2,173.4 357.1,172.1 358,170.9 
			358.9,169.6 359.8,168.2 360.7,166.9 361.7,165.5 362.6,164.2 363.5,163 364.4,161.7 365.3,160.6 366.1,159.4 366.9,158.4 
			367.6,157.3 368.2,156.4 368.7,155.5 369.2,154.7 369.6,154 370,153.3 370.3,152.6 370.5,152 370.8,151.4 371,150.7 371.3,150.1 
			371.5,149.4 371.7,148.7 372,148 372.2,147.3 372.5,146.6 372.8,145.9 373.2,145.2 373.5,144.4 374,143.7 374.4,143 374.9,142.3 
			375.4,141.6 375.9,140.9 		"/>
	</g>
</g>
<line class="st10" x1="251.4" y1="149.2" x2="483" y2="149.2"/>
<line class="st10" x1="357.9" y1="116.5" x2="415.4" y2="116.5"/>
<g>
	<g>
		<g>
			<g>
				<line class="st5" x1="363.4" y1="125.3" x2="363.4" y2="140.3"/>
				<g>
					<polygon class="st6" points="360.5,127.2 363.4,116.4 366.3,127.2 					"/>
				</g>
				<g>
					<polygon class="st6" points="360.5,138.3 363.4,149.2 366.3,138.3 					"/>
				</g>
			</g>
		</g>
	</g>
</g>
<rect x="260.2" y="126.9" class="st0" width="107" height="16.3"/>
<text transform="matrix(1 0 0 1 260.1755 135.46)" class="st7 st8">Less than 900 mm</text>
<g id="LINE_34_">
	<g>
		<line class="st5" x1="228.3" y1="102.4" x2="228.3" y2="53"/>
	</g>
</g>
<g id="MTEXT_3_">
	<g>
		<text transform="matrix(1 0 0 1 242.2102 37.6994)"><tspan x="0" y="0" class="st6 st7 st8">Clear distance not</tspan><tspan x="26.3" y="14.4" class="st6 st11 st8">required</tspan></text>
	</g>
</g>
<g>
	<g>
		<g>
			<g>
				<line class="st5" x1="237.1" y1="59.3" x2="342.4" y2="59.3"/>
				<g>
					<polygon class="st6" points="239.1,62.2 228.3,59.3 239.1,56.4 					"/>
				</g>
				<g>
					<polygon class="st6" points="340.4,62.2 351.3,59.3 340.4,56.4 					"/>
				</g>
			</g>
		</g>
	</g>
</g>
<g>
	<g>
		<g>
			<g>
				<polyline class="st5" points="174.6,100 186.4,100 215.5,141.9 				"/>
				<g>
					<polygon class="st6" points="212,141.9 220.6,149.2 216.8,138.6 					"/>
				</g>
			</g>
		</g>
	</g>
</g>
</svg>
