<?xml version="1.0" encoding="utf-8"?>
<!-- Generator: Adobe Illustrator 25.2.1, SVG Export Plug-In . SVG Version: 6.00 Build 0)  -->
<svg version="1.1" id="_x30_" xmlns="http://www.w3.org/2000/svg" xmlns:xlink="http://www.w3.org/1999/xlink" x="0px" y="0px"
	 viewBox="0 0 552.8 402.4" style="enable-background:new 0 0 552.8 402.4;" xml:space="preserve">
<style type="text/css">
	.st0{fill-rule:evenodd;clip-rule:evenodd;fill:none;}
	.st1{clip-path:url(#SVGID_2_);fill:none;stroke:#211F1F;stroke-width:0.5;stroke-linejoin:round;}
	.st2{fill:#231F20;}
	.st3{font-family:'ArialMT';}
	.st4{font-size:12px;}
	.st5{fill:none;stroke:#231F20;stroke-width:0.25;stroke-miterlimit:10;}
	.st6{fill:none;stroke:#231F20;stroke-miterlimit:10;}
	.st7{fill:none;stroke:#231F20;stroke-miterlimit:10;stroke-dasharray:11.3174,11.308,0,0;}
	.st8{fill:none;stroke:#231F20;stroke-miterlimit:10;stroke-dasharray:1.005100e-02,0;}
	.st9{fill:none;stroke:#231F20;stroke-miterlimit:10;stroke-dasharray:12.0609,12.0508,1.005100e-02,0;}
	.st10{fill:none;stroke:#231F20;stroke-miterlimit:10;stroke-dasharray:11.9248,11.9148,0,0;}
	.st11{fill:none;stroke:#231F20;stroke-miterlimit:10;stroke-dasharray:11.9249,11.915,0,0;}
	.st12{fill:none;stroke:#231F20;stroke-width:0.5;stroke-miterlimit:10;}
	.st13{fill:none;stroke:#231F20;stroke-width:0.5;stroke-miterlimit:10;stroke-dasharray:5.0902,11.1985,25.451,11.1985;}
	.st14{fill:url(#SVGID_3_);}
	.st15{fill:none;}
</style>
<pattern  y="635" width="72" height="72" patternUnits="userSpaceOnUse" id="diagonal_cross_hatch_2" viewBox="6.2 -86.2 72 72" style="overflow:visible;">
	<g>
		<rect x="6.2" y="-86.2" class="st0" width="72" height="72"/>
		<g>
			<defs>
				<rect id="SVGID_1_" x="6.2" y="-86.2" width="72" height="72"/>
			</defs>
			<clipPath id="SVGID_2_">
				<use xlink:href="#SVGID_1_"  style="overflow:visible;"/>
			</clipPath>
			<line class="st1" x1="0.2" y1="-74.2" x2="18.2" y2="-92.2"/>
			<line class="st1" x1="0.2" y1="-68.2" x2="24.2" y2="-92.2"/>
			<line class="st1" x1="0.2" y1="-62.2" x2="30.2" y2="-92.2"/>
			<line class="st1" x1="0.2" y1="-56.2" x2="36.2" y2="-92.2"/>
			<line class="st1" x1="0.2" y1="-50.2" x2="42.2" y2="-92.2"/>
			<line class="st1" x1="0.2" y1="-44.2" x2="48.2" y2="-92.2"/>
			<line class="st1" x1="0.2" y1="-38.2" x2="54.2" y2="-92.2"/>
			<line class="st1" x1="0.2" y1="-32.2" x2="60.2" y2="-92.2"/>
			<line class="st1" x1="0.2" y1="-26.2" x2="66.2" y2="-92.2"/>
			<line class="st1" x1="0.2" y1="-20.2" x2="72.2" y2="-92.2"/>
			<line class="st1" x1="0.2" y1="-14.2" x2="78.2" y2="-92.2"/>
			<line class="st1" x1="0.2" y1="-8.2" x2="84.2" y2="-92.2"/>
			<line class="st1" x1="6.2" y1="-8.2" x2="84.2" y2="-86.2"/>
			<line class="st1" x1="12.2" y1="-8.2" x2="84.2" y2="-80.2"/>
			<line class="st1" x1="18.2" y1="-8.2" x2="84.2" y2="-74.2"/>
			<line class="st1" x1="24.2" y1="-8.2" x2="84.2" y2="-68.2"/>
			<line class="st1" x1="30.2" y1="-8.2" x2="84.2" y2="-62.2"/>
			<line class="st1" x1="36.2" y1="-8.2" x2="84.2" y2="-56.2"/>
			<line class="st1" x1="42.2" y1="-8.2" x2="84.2" y2="-50.2"/>
			<line class="st1" x1="48.2" y1="-8.2" x2="84.2" y2="-44.2"/>
			<line class="st1" x1="54.2" y1="-8.2" x2="84.2" y2="-38.2"/>
			<line class="st1" x1="52.2" y1="-0.2" x2="94.2" y2="-42.2"/>
			<line class="st1" x1="58.2" y1="-0.2" x2="94.2" y2="-36.2"/>
			<line class="st1" x1="64.2" y1="-0.2" x2="94.2" y2="-30.2"/>
		</g>
	</g>
</pattern>
<g id="MTEXT">
	<g>
		<text transform="matrix(1 0 0 1 427.7717 135.2312)" class="st2 st3 st4">10a</text>
	</g>
</g>
<g id="MTEXT_2_">
	<g>
		<text transform="matrix(1 0 0 1 173.6882 135.2312)" class="st2 st3 st4">1</text>
	</g>
</g>
<g id="MTEXT_1_">
	<g>
		<text transform="matrix(1 0 0 1 376.0983 314.3542)" class="st2 st3 st4">Less than 900 mm</text>
	</g>
</g>
<g>
	<g id="POLYLINE">
		<g>
			<g>
				<g>
					<g>
						<line class="st5" x1="505.9" y1="208" x2="429.1" y2="301.3"/>
						<g>
							<polygon class="st2" points="502.4,207.7 511.6,201.2 506.9,211.4 							"/>
						</g>
					</g>
				</g>
			</g>
		</g>
	</g>
	<g id="LINE_6_">
		<g>
			<g>
				<g>
					<g>
						<line class="st5" x1="353" y1="208.1" x2="429.1" y2="301.3"/>
						<g>
							<polygon class="st2" points="352,211.4 347.4,201.2 356.5,207.8 							"/>
						</g>
					</g>
				</g>
			</g>
		</g>
	</g>
</g>
<g>
	<g id="POLYLINE_3_">
		<g>
			<rect x="20.4" y="57.5" class="st6" width="309.7" height="247.4"/>
		</g>
	</g>
	<g id="LINE_7_">
		<g>
			<line class="st6" x1="498.1" y1="197.6" x2="498.1" y2="57.5"/>
		</g>
	</g>
	<g id="LINE_8_">
		<g>
			<line class="st6" x1="364.4" y1="57.5" x2="498.1" y2="57.5"/>
		</g>
	</g>
	<g id="LINE_9_">
		<g>
			<line class="st6" x1="379.9" y1="197.6" x2="379.9" y2="57.5"/>
		</g>
	</g>
	<g id="LINE_10_">
		<g>
			<line class="st6" x1="364.4" y1="57.5" x2="379.9" y2="57.5"/>
		</g>
	</g>
	<g id="LINE_11_">
		<g>
			<line class="st6" x1="364.4" y1="197.6" x2="498.1" y2="197.6"/>
		</g>
	</g>
	<g id="LINE_24_">
		<g>
			<line class="st6" x1="364.4" y1="197.6" x2="364.4" y2="57.5"/>
		</g>
	</g>
</g>
<g>
	<g id="LINE">
		<g id="LINE_48_">
			<g>
				<g>
					<g>
						<line class="st6" x1="104.6" y1="181.2" x2="110.8" y2="181.2"/>
						<line class="st6" x1="122.5" y1="181.2" x2="122.6" y2="181.2"/>
						<line class="st7" x1="122.6" y1="181.2" x2="239.7" y2="181.2"/>
						<line class="st6" x1="239.7" y1="181.2" x2="245.9" y2="181.2"/>
					</g>
				</g>
			</g>
		</g>
	</g>
	<g id="LINE_1_">
		<g id="LINE_47_">
			<g>
				<g>
					<g>
						<line class="st6" x1="104.6" y1="181.2" x2="101.1" y2="176.1"/>
						<line class="st8" x1="94.1" y1="165.8" x2="94.1" y2="165.8"/>
						<line class="st9" x1="94.1" y1="165.8" x2="23.9" y2="62.7"/>
						<line class="st6" x1="23.9" y1="62.7" x2="20.4" y2="57.5"/>
					</g>
				</g>
			</g>
		</g>
	</g>
	<g id="LINE_2_">
		<g id="LINE_46_">
			<g>
				<g>
					<g>
						<line class="st6" x1="104.6" y1="181.2" x2="101.2" y2="186.4"/>
						<line class="st6" x1="94.2" y1="196.6" x2="94.2" y2="196.6"/>
						<line class="st10" x1="94.2" y1="196.6" x2="25.1" y2="298.8"/>
						<line class="st6" x1="25.1" y1="298.8" x2="21.6" y2="303.9"/>
					</g>
				</g>
			</g>
		</g>
	</g>
	<g id="LINE_3_">
		<g id="LINE_45_">
			<g>
				<g>
					<g>
						<line class="st6" x1="245.9" y1="181.2" x2="249.4" y2="176.1"/>
						<line class="st8" x1="256.4" y1="165.8" x2="256.4" y2="165.8"/>
						<line class="st9" x1="256.4" y1="165.8" x2="326.6" y2="62.7"/>
						<line class="st6" x1="326.6" y1="62.7" x2="330.1" y2="57.5"/>
					</g>
				</g>
			</g>
		</g>
	</g>
	<g id="LINE_4_">
		<g id="LINE_44_">
			<g>
				<g>
					<g>
						<line class="st6" x1="245.9" y1="181.2" x2="249.3" y2="186.4"/>
						<line class="st6" x1="256.3" y1="196.6" x2="256.3" y2="196.6"/>
						<line class="st11" x1="256.3" y1="196.6" x2="325.5" y2="298.8"/>
						<line class="st6" x1="325.5" y1="298.8" x2="328.9" y2="303.9"/>
					</g>
				</g>
			</g>
		</g>
	</g>
</g>
<g id="LINE_33_">
	<g>
		<g>
			<g>
				<line class="st12" x1="530.3" y1="388.4" x2="530.3" y2="385.4"/>
				<line class="st12" x1="530.3" y1="372.3" x2="530.3" y2="335.9"/>
				<line class="st13" x1="530.3" y1="329.3" x2="530.3" y2="25.4"/>
				<line class="st12" x1="530.3" y1="18.8" x2="530.3" y2="15.9"/>
			</g>
		</g>
	</g>
</g>
<pattern  id="SVGID_3_" xlink:href="#diagonal_cross_hatch_2" patternTransform="matrix(0.9348 0 0 1.1513 -421.8828 1254.228)">
</pattern>
<rect x="364.4" y="57.5" class="st14" width="15.6" height="140.1"/>
<rect x="155.4" y="25" class="st15" width="155.3" height="15.7"/>
<text transform="matrix(1 0 0 1 155.3688 33.6123)" class="st3 st4">Wall with a FRL of 60/60/60</text>
<rect x="339.4" y="345.6" class="st15" width="111.9" height="15.7"/>
<text transform="matrix(1 0 0 1 339.444 354.1595)" class="st3 st4">Allotment boundary</text>
<g>
	<g>
		<line class="st5" x1="447.3" y1="351.1" x2="521.4" y2="351.1"/>
		<g>
			<polygon class="st2" points="519.5,354 530.3,351.1 519.5,348.2 			"/>
		</g>
	</g>
</g>
<g>
	<g>
		<polyline class="st5" points="365.9,51.3 344.5,29.9 304.7,29.9 		"/>
		<g>
			<polygon class="st2" points="366.5,47.8 372.2,57.5 362.4,51.9 			"/>
		</g>
	</g>
</g>
</svg>
