<?xml version="1.0" encoding="utf-8"?>
<!-- Generator: Adobe Illustrator 25.2.1, SVG Export Plug-In . SVG Version: 6.00 Build 0)  -->
<svg version="1.1" id="_x30_" xmlns="http://www.w3.org/2000/svg" xmlns:xlink="http://www.w3.org/1999/xlink" x="0px" y="0px"
	 viewBox="0 0 552.8 437.3" style="enable-background:new 0 0 552.8 437.3;" xml:space="preserve">
<style type="text/css">
	.st0{fill-rule:evenodd;clip-rule:evenodd;fill:none;}
	.st1{clip-path:url(#SVGID_2_);fill:none;stroke:#221F1F;stroke-width:0.5;stroke-linejoin:round;}
	.st2{fill:#231F20;}
	.st3{font-family:'ArialMT';}
	.st4{font-size:12px;}
	.st5{fill:none;stroke:#231F20;stroke-miterlimit:10;stroke-dasharray:5,11,25,11;}
	.st6{fill:none;stroke:#231F20;stroke-width:0.25;stroke-miterlimit:10;}
	.st7{fill:none;stroke:#231F20;stroke-miterlimit:10;}
	.st8{fill:none;stroke:#231F20;stroke-miterlimit:10;stroke-dasharray:11.8165,11.8067,0,0;}
	.st9{fill:none;stroke:#231F20;stroke-miterlimit:10;stroke-dasharray:1.049100e-02,0;}
	.st10{fill:none;stroke:#231F20;stroke-miterlimit:10;stroke-dasharray:12.5897,12.5792,1.049100e-02,0;}
	.st11{fill:none;stroke:#231F20;stroke-miterlimit:10;stroke-dasharray:1.037400e-02,0;}
	.st12{fill:none;stroke:#231F20;stroke-miterlimit:10;stroke-dasharray:12.4484,12.438,1.037400e-02,0;}
	.st13{fill:url(#SVGID_3_);}
	.st14{fill:none;}
</style>
<pattern  y="657.3" width="72" height="72" patternUnits="userSpaceOnUse" id="diagonal_cross_hatch" viewBox="6.2 -86.2 72 72" style="overflow:visible;">
	<g>
		<rect x="6.2" y="-86.2" class="st0" width="72" height="72"/>
		<g>
			<defs>
				<rect id="SVGID_1_" x="6.2" y="-86.2" width="72" height="72"/>
			</defs>
			<clipPath id="SVGID_2_">
				<use xlink:href="#SVGID_1_"  style="overflow:visible;"/>
			</clipPath>
			<line class="st1" x1="0.2" y1="-74.2" x2="18.2" y2="-92.2"/>
			<line class="st1" x1="0.2" y1="-68.2" x2="24.2" y2="-92.2"/>
			<line class="st1" x1="0.2" y1="-62.2" x2="30.2" y2="-92.2"/>
			<line class="st1" x1="0.2" y1="-56.2" x2="36.2" y2="-92.2"/>
			<line class="st1" x1="0.2" y1="-50.2" x2="42.2" y2="-92.2"/>
			<line class="st1" x1="0.2" y1="-44.2" x2="48.2" y2="-92.2"/>
			<line class="st1" x1="0.2" y1="-38.2" x2="54.2" y2="-92.2"/>
			<line class="st1" x1="0.2" y1="-32.2" x2="60.2" y2="-92.2"/>
			<line class="st1" x1="0.2" y1="-26.2" x2="66.2" y2="-92.2"/>
			<line class="st1" x1="0.2" y1="-20.2" x2="72.2" y2="-92.2"/>
			<line class="st1" x1="0.2" y1="-14.2" x2="78.2" y2="-92.2"/>
			<line class="st1" x1="0.2" y1="-8.2" x2="84.2" y2="-92.2"/>
			<line class="st1" x1="6.2" y1="-8.2" x2="84.2" y2="-86.2"/>
			<line class="st1" x1="12.2" y1="-8.2" x2="84.2" y2="-80.2"/>
			<line class="st1" x1="18.2" y1="-8.2" x2="84.2" y2="-74.2"/>
			<line class="st1" x1="24.2" y1="-8.2" x2="84.2" y2="-68.2"/>
			<line class="st1" x1="30.2" y1="-8.2" x2="84.2" y2="-62.2"/>
			<line class="st1" x1="36.2" y1="-8.2" x2="84.2" y2="-56.2"/>
			<line class="st1" x1="42.2" y1="-8.2" x2="84.2" y2="-50.2"/>
			<line class="st1" x1="48.2" y1="-8.2" x2="84.2" y2="-44.2"/>
			<line class="st1" x1="54.2" y1="-8.2" x2="84.2" y2="-38.2"/>
			<line class="st1" x1="52.2" y1="-0.2" x2="94.2" y2="-42.2"/>
			<line class="st1" x1="58.2" y1="-0.2" x2="94.2" y2="-36.2"/>
			<line class="st1" x1="64.2" y1="-0.2" x2="94.2" y2="-30.2"/>
		</g>
	</g>
</pattern>
<g id="MTEXT">
	<g>
		<text transform="matrix(1 0 0 1 397.974 156.206)" class="st2 st3 st4">10a</text>
	</g>
</g>
<g id="MTEXT_2_">
	<g>
		<text transform="matrix(1 0 0 1 182.6339 156.206)" class="st2 st3 st4">1</text>
	</g>
</g>
<g id="MTEXT_1_">
	<g>
		<text transform="matrix(1 0 0 1 264.17 358.0982)" class="st2 st3 st4">Less than 900 mm</text>
	</g>
</g>
<g id="LINE_5_">
	<line class="st5" x1="524.3" y1="401.1" x2="524.3" y2="27.8"/>
</g>
<g id="POLYLINE">
	<g>
		<g>
			<g>
				<g>
					<polyline class="st6" points="500.2,211.2 403.2,355.1 369.1,355.1 					"/>
					<g>
						<polygon class="st2" points="496.7,211.2 505.2,203.9 501.5,214.5 						"/>
					</g>
				</g>
			</g>
		</g>
	</g>
</g>
<g>
	<g id="POLYLINE_2_">
		<g>
			<rect x="28.3" y="77.4" class="st7" width="311.4" height="248.8"/>
		</g>
	</g>
	<g id="LINE_6_">
		<g>
			<line class="st7" x1="474.2" y1="218.2" x2="474.2" y2="77.4"/>
		</g>
	</g>
	<g id="LINE_7_">
		<g>
			<line class="st7" x1="339.7" y1="77.4" x2="474.2" y2="77.4"/>
		</g>
	</g>
	<g id="LINE_8_">
		<g>
			<line class="st7" x1="489.9" y1="218.2" x2="489.9" y2="77.4"/>
		</g>
	</g>
	<g id="LINE_9_">
		<g>
			<line class="st7" x1="474.2" y1="77.4" x2="489.9" y2="77.4"/>
		</g>
	</g>
	<g id="LINE_10_">
		<g>
			<line class="st7" x1="339.7" y1="218.2" x2="489.9" y2="218.2"/>
		</g>
	</g>
</g>
<g>
	<g id="LINE">
		<g id="LINE_45_">
			<g>
				<g>
					<g>
						<line class="st7" x1="113.1" y1="201.7" x2="119.1" y2="201.7"/>
						<line class="st7" x1="130.9" y1="201.7" x2="130.9" y2="201.7"/>
						<line class="st8" x1="130.9" y1="201.7" x2="249" y2="201.7"/>
						<line class="st7" x1="249" y1="201.7" x2="255" y2="201.7"/>
					</g>
				</g>
			</g>
		</g>
	</g>
	<g id="LINE_1_">
		<g id="LINE_44_">
			<g>
				<g>
					<g>
						<line class="st7" x1="113.1" y1="201.7" x2="109.7" y2="196.8"/>
						<line class="st9" x1="102.6" y1="186.4" x2="102.6" y2="186.4"/>
						<line class="st10" x1="102.6" y1="186.4" x2="31.7" y2="82.3"/>
						<line class="st7" x1="31.7" y1="82.3" x2="28.3" y2="77.4"/>
					</g>
				</g>
			</g>
		</g>
	</g>
	<g id="LINE_2_">
		<g id="LINE_43_">
			<g>
				<g>
					<g>
						<line class="st7" x1="113.1" y1="201.7" x2="109.7" y2="206.7"/>
						<line class="st11" x1="102.7" y1="217" x2="102.7" y2="217"/>
						<line class="st12" x1="102.7" y1="217" x2="32.9" y2="320.1"/>
						<line class="st7" x1="32.9" y1="320.1" x2="29.5" y2="325"/>
					</g>
				</g>
			</g>
		</g>
	</g>
	<g id="LINE_3_">
		<g id="LINE_42_">
			<g>
				<g>
					<g>
						<line class="st7" x1="255" y1="201.7" x2="258.4" y2="196.8"/>
						<line class="st9" x1="265.5" y1="186.4" x2="265.5" y2="186.4"/>
						<line class="st10" x1="265.5" y1="186.4" x2="336.4" y2="82.3"/>
						<line class="st7" x1="336.4" y1="82.3" x2="339.7" y2="77.4"/>
					</g>
				</g>
			</g>
		</g>
	</g>
	<g id="LINE_4_">
		<g id="LINE_24_">
			<g>
				<g>
					<g>
						<line class="st7" x1="255" y1="201.7" x2="258.4" y2="206.7"/>
						<line class="st11" x1="265.4" y1="217" x2="265.4" y2="217"/>
						<line class="st12" x1="265.4" y1="217" x2="335.2" y2="320.1"/>
						<line class="st7" x1="335.2" y1="320.1" x2="338.6" y2="325"/>
					</g>
				</g>
			</g>
		</g>
	</g>
</g>
<pattern  id="SVGID_3_" xlink:href="#diagonal_cross_hatch" patternTransform="matrix(1 0 0 1 169.9449 -41.8155)">
</pattern>
<rect x="474.2" y="77.4" class="st13" width="15.7" height="140.9"/>
<rect x="287.9" y="49.5" class="st14" width="152.4" height="15.7"/>
<text transform="matrix(1 0 0 1 287.9108 58.0683)" class="st3 st4">Wall with a FRL of 60/60/60</text>
<rect x="264.2" y="372.7" class="st14" width="110.3" height="15.7"/>
<text transform="matrix(1 0 0 1 264.1699 381.339)" class="st3 st4">Allotment boundary</text>
<g>
	<g>
		<polyline class="st6" points="475.8,71.1 460,55.3 437.1,55.3 		"/>
		<g>
			<polygon class="st2" points="476.4,67.6 482,77.4 472.3,71.7 			"/>
		</g>
	</g>
</g>
<g>
	<g>
		<line class="st6" x1="372" y1="378" x2="515.4" y2="378"/>
		<g>
			<polygon class="st2" points="513.5,380.9 524.3,378 513.5,375.1 			"/>
		</g>
	</g>
</g>
</svg>
