<?xml version="1.0" encoding="utf-8"?>
<!-- Generator: Adobe Illustrator 25.2.1, SVG Export Plug-In . SVG Version: 6.00 Build 0)  -->
<svg version="1.1" id="_x30_" xmlns="http://www.w3.org/2000/svg" xmlns:xlink="http://www.w3.org/1999/xlink" x="0px" y="0px"
	 viewBox="0 0 552.8 402.4" style="enable-background:new 0 0 552.8 402.4;" xml:space="preserve">
<style type="text/css">
	.st0{fill-rule:evenodd;clip-rule:evenodd;fill:none;}
	.st1{clip-path:url(#SVGID_2_);fill:none;stroke:#211F1F;stroke-width:0.5;stroke-linejoin:round;}
	.st2{fill:none;}
	.st3{fill:none;stroke:#1D1D1B;stroke-width:0.75;stroke-miterlimit:10;}
	.st4{fill:none;stroke:#1D1D1B;stroke-width:0.5;stroke-miterlimit:10;stroke-dasharray:6,6,0,0;}
	.st5{fill:none;stroke:#1D1D1B;stroke-miterlimit:10;}
	.st6{fill:#1D1D1B;}
	.st7{font-family:'ArialMT';}
	.st8{font-size:12px;}
	.st9{fill:none;stroke:#1D1D1B;stroke-width:0.25;stroke-miterlimit:10;}
	.st10{fill:url(#SVGID_3_);}
</style>
<pattern  y="635" width="72" height="72" patternUnits="userSpaceOnUse" id="diagonal_cross_hatch_2" viewBox="6.2 -86.2 72 72" style="overflow:visible;">
	<g>
		<rect x="6.2" y="-86.2" class="st0" width="72" height="72"/>
		<g>
			<defs>
				<rect id="SVGID_1_" x="6.2" y="-86.2" width="72" height="72"/>
			</defs>
			<clipPath id="SVGID_2_">
				<use xlink:href="#SVGID_1_"  style="overflow:visible;"/>
			</clipPath>
			<line class="st1" x1="0.2" y1="-74.2" x2="18.2" y2="-92.2"/>
			<line class="st1" x1="0.2" y1="-68.2" x2="24.2" y2="-92.2"/>
			<line class="st1" x1="0.2" y1="-62.2" x2="30.2" y2="-92.2"/>
			<line class="st1" x1="0.2" y1="-56.2" x2="36.2" y2="-92.2"/>
			<line class="st1" x1="0.2" y1="-50.2" x2="42.2" y2="-92.2"/>
			<line class="st1" x1="0.2" y1="-44.2" x2="48.2" y2="-92.2"/>
			<line class="st1" x1="0.2" y1="-38.2" x2="54.2" y2="-92.2"/>
			<line class="st1" x1="0.2" y1="-32.2" x2="60.2" y2="-92.2"/>
			<line class="st1" x1="0.2" y1="-26.2" x2="66.2" y2="-92.2"/>
			<line class="st1" x1="0.2" y1="-20.2" x2="72.2" y2="-92.2"/>
			<line class="st1" x1="0.2" y1="-14.2" x2="78.2" y2="-92.2"/>
			<line class="st1" x1="0.2" y1="-8.2" x2="84.2" y2="-92.2"/>
			<line class="st1" x1="6.2" y1="-8.2" x2="84.2" y2="-86.2"/>
			<line class="st1" x1="12.2" y1="-8.2" x2="84.2" y2="-80.2"/>
			<line class="st1" x1="18.2" y1="-8.2" x2="84.2" y2="-74.2"/>
			<line class="st1" x1="24.2" y1="-8.2" x2="84.2" y2="-68.2"/>
			<line class="st1" x1="30.2" y1="-8.2" x2="84.2" y2="-62.2"/>
			<line class="st1" x1="36.2" y1="-8.2" x2="84.2" y2="-56.2"/>
			<line class="st1" x1="42.2" y1="-8.2" x2="84.2" y2="-50.2"/>
			<line class="st1" x1="48.2" y1="-8.2" x2="84.2" y2="-44.2"/>
			<line class="st1" x1="54.2" y1="-8.2" x2="84.2" y2="-38.2"/>
			<line class="st1" x1="52.2" y1="-0.2" x2="94.2" y2="-42.2"/>
			<line class="st1" x1="58.2" y1="-0.2" x2="94.2" y2="-36.2"/>
			<line class="st1" x1="64.2" y1="-0.2" x2="94.2" y2="-30.2"/>
		</g>
	</g>
</pattern>
<g>
	<path class="st2" d="M276.4,137.1"/>
</g>
<g>
	<path class="st2" d="M276.4,183.7"/>
</g>
<g>
	<rect x="8.9" y="163.4" class="st3" width="215.3" height="146.9"/>
	<polyline class="st4" points="8.9,310.2 76.7,236.8 8.9,163.4 	"/>
	<path class="st5" d="M224.2,163.4"/>
	<polyline class="st4" points="224.2,163.4 156.3,236.8 224.2,310.2 	"/>
	<line class="st4" x1="76.7" y1="236.8" x2="156.3" y2="236.8"/>
	<text transform="matrix(1 0 0 1 110.9027 227.8091)" class="st6 st7 st8">1</text>
</g>
<g>
	<g>
		<rect x="178.6" y="80" class="st3" width="94" height="83.3"/>
		<text transform="matrix(0.9617 0 0 1 213.685 126.936)" class="st6 st7 st8">10a</text>
	</g>
	<g>
		<path class="st2" d="M184.6,152.9"/>
	</g>
</g>
<g>
	
		<rect x="328.6" y="163.4" transform="matrix(-1 -4.488866e-11 4.488866e-11 -1 872.4748 473.5926)" class="st3" width="215.3" height="146.9"/>
	<polyline class="st4" points="543.9,310.2 476,236.8 543.9,163.4 	"/>
	<path class="st5" d="M328.6,163.4"/>
	<polyline class="st4" points="328.6,163.4 396.4,236.8 328.6,310.2 	"/>
	<line class="st4" x1="476" y1="236.8" x2="396.4" y2="236.8"/>
	<text transform="matrix(1 0 0 1 434.2362 227.8091)" class="st6 st7 st8">1</text>
</g>
<g>
	<path class="st2" d="M420.4,232.2"/>
</g>
<g>
	<g>
		
			<rect x="280.1" y="80" transform="matrix(-1 -4.669033e-11 4.669033e-11 -1 654.2452 243.2512)" class="st3" width="94" height="83.3"/>
		<text transform="matrix(1 0 0 1 317.4491 126.936)" class="st6 st7 st8">10a</text>
	</g>
</g>
<g>
	<g>
		<line class="st9" x1="271.8" y1="290.7" x2="271.8" y2="328.3"/>
		<g>
			<polygon class="st6" points="268.9,292.7 271.8,281.8 274.8,292.7 			"/>
		</g>
	</g>
</g>
<g>
	<g>
		<line class="st9" x1="276.4" y1="54.9" x2="276.4" y2="71.3"/>
		<g>
			<polygon class="st6" points="273.5,69.3 276.4,80.2 279.3,69.3 			"/>
		</g>
	</g>
</g>
<text transform="matrix(1 0 0 1 218.4898 346.979)" class="st6 st7 st8">Not less than 1.8 m </text>
<line class="st3" x1="272.6" y1="80" x2="280.1" y2="80"/>
<line class="st3" x1="280.1" y1="163.3" x2="272.6" y2="163.3"/>
<pattern  id="SVGID_3_" xlink:href="#diagonal_cross_hatch_2" patternTransform="matrix(0.8306 0 0 0.9775 -1352.7765 -351.8279)">
</pattern>
<rect x="272.5" y="80.2" class="st10" width="7.8" height="82.9"/>
<rect x="206.6" y="43.2" class="st2" width="200" height="15.7"/>
<text transform="matrix(1 0 0 1 206.6329 51.8348)" class="st7 st8">Wall with a FRL of 60/60/60</text>
</svg>
