<svg xmlns="http://www.w3.org/2000/svg" viewBox="0 0 552.76 425.2"><defs><style>.cls-1,.cls-2,.cls-4,.cls-5{fill:none;stroke:#231f20;stroke-miterlimit:10;}.cls-1{stroke-width:0.75px;stroke-dasharray:2 2;}.cls-2{stroke-dasharray:5 11 25 11;}.cls-3{font-size:12px;font-family:ArialMT, Arial;}.cls-3,.cls-6{fill:#231f20;}.cls-4{stroke-linecap:round;}.cls-5{stroke-width:0.25px;}.cls-7{letter-spacing:-0.06em;}</style></defs><g id="Layer_4" data-name="Layer 4"><line class="cls-1" x1="274.94" y1="237.79" x2="274.94" y2="110.49"/><line class="cls-2" x1="38.45" y1="299.13" x2="38.45" y2="114.38"/><line class="cls-2" x1="507.32" y1="299.13" x2="507.32" y2="114.38"/></g><g id="Layer_6" data-name="Layer 6"><text class="cls-3" transform="translate(44.98 138.93)">Allotment boundary</text><text class="cls-3" transform="translate(398.18 138.93)">Allotment boundary</text><g id="LINE"><line class="cls-4" x1="190.47" y1="299.25" x2="190.47" y2="187.82"/></g><g id="LINE-2" data-name="LINE"><line class="cls-4" x1="62.1" y1="299.25" x2="62.1" y2="187.82"/></g><g id="LINE-3" data-name="LINE"><line class="cls-4" x1="206.44" y1="187.82" x2="206.44" y2="184.47"/></g><g id="LINE-4" data-name="LINE"><line class="cls-4" x1="207.76" y1="184.47" x2="207.76" y2="183.05"/></g><g id="LINE-5" data-name="LINE"><line class="cls-4" x1="206.44" y1="187.82" x2="44.98" y2="187.82"/></g><g id="LINE-6" data-name="LINE"><line class="cls-4" x1="207.76" y1="184.47" x2="43.66" y2="184.47"/></g><g id="LINE-7" data-name="LINE"><line class="cls-4" x1="207.76" y1="183.05" x2="43.66" y2="183.05"/></g><g id="LINE-8" data-name="LINE"><line class="cls-4" x1="203.52" y1="183.05" x2="125.78" y2="147.06"/></g><g id="LINE-9" data-name="LINE"><line class="cls-4" x1="44.98" y1="187.82" x2="44.98" y2="184.47"/></g><g id="LINE-10" data-name="LINE"><line class="cls-4" x1="43.66" y1="184.47" x2="43.66" y2="183.05"/></g><g id="LINE-11" data-name="LINE"><line class="cls-4" x1="47.9" y1="183.05" x2="125.64" y2="147.06"/></g><g id="LINE-12" data-name="LINE"><line class="cls-4" x1="274.33" y1="299.25" x2="274.33" y2="243.25"/></g><g id="LINE-13" data-name="LINE"><line class="cls-4" x1="190.47" y1="237.79" x2="274.94" y2="237.79"/></g><g id="LINE-14" data-name="LINE"><line class="cls-4" x1="190.47" y1="243.25" x2="274.94" y2="243.25"/></g><g id="LINE-15" data-name="LINE"><line class="cls-4" x1="274.94" y1="243.25" x2="274.94" y2="237.79"/></g><g id="LINE-16" data-name="LINE"><line class="cls-4" x1="26.58" y1="299.25" x2="520.92" y2="299.25"/></g><g id="LINE-17" data-name="LINE"><line class="cls-4" x1="414.35" y1="299.25" x2="414.35" y2="187.82"/></g><g id="LINE-18" data-name="LINE"><line class="cls-4" x1="285.98" y1="299.25" x2="285.98" y2="187.82"/></g><g id="LINE-19" data-name="LINE"><line class="cls-4" x1="430.32" y1="187.82" x2="430.32" y2="184.47"/></g><g id="LINE-20" data-name="LINE"><line class="cls-4" x1="431.64" y1="184.47" x2="431.64" y2="183.05"/></g><g id="LINE-21" data-name="LINE"><line class="cls-4" x1="430.32" y1="187.82" x2="268.86" y2="187.82"/></g><g id="LINE-22" data-name="LINE"><line class="cls-4" x1="431.64" y1="184.47" x2="267.54" y2="184.47"/></g><g id="LINE-23" data-name="LINE"><line class="cls-4" x1="431.64" y1="183.05" x2="267.54" y2="183.05"/></g><g id="LINE-24" data-name="LINE"><line class="cls-4" x1="427.4" y1="183.05" x2="349.66" y2="147.06"/></g><g id="LINE-25" data-name="LINE"><line class="cls-4" x1="268.86" y1="187.82" x2="268.86" y2="184.47"/></g><g id="LINE-26" data-name="LINE"><line class="cls-4" x1="267.54" y1="184.47" x2="267.54" y2="183.05"/></g><g id="LINE-27" data-name="LINE"><line class="cls-4" x1="271.78" y1="183.05" x2="349.52" y2="147.06"/></g><g id="LINE-28" data-name="LINE"><line class="cls-4" x1="498.21" y1="299.25" x2="498.21" y2="243.25"/></g><g id="LINE-29" data-name="LINE"><line class="cls-4" x1="414.35" y1="237.79" x2="498.82" y2="237.79"/></g><g id="LINE-30" data-name="LINE"><line class="cls-4" x1="414.35" y1="243.25" x2="498.82" y2="243.25"/></g><g id="LINE-31" data-name="LINE"><line class="cls-4" x1="498.82" y1="243.25" x2="498.82" y2="237.79"/></g><g id="LINE-32" data-name="LINE"><line class="cls-5" x1="257.97" y1="138.93" x2="250.62" y2="138.93"/><polygon class="cls-6" points="255.99 136.03 266.83 138.93 255.99 141.84 255.99 136.03"/></g><g id="LINE-33" data-name="LINE"><line class="cls-5" x1="266.83" y1="144.72" x2="266.83" y2="133.5"/></g><g id="LINE-34" data-name="LINE"><line class="cls-5" x1="274.94" y1="144.72" x2="274.94" y2="133.5"/></g><g id="LINE-35" data-name="LINE"><line class="cls-5" x1="283.8" y1="138.93" x2="291.15" y2="138.93"/><polygon class="cls-6" points="285.78 141.84 274.94 138.93 285.78 136.03 285.78 141.84"/></g><line class="cls-5" x1="266.83" y1="138.93" x2="274.94" y2="138.93"/><g id="POLYLINE"><g id="POLYLINE-2" data-name="POLYLINE"><polyline class="cls-5" points="267.99 125.13 255.51 89.13 243.84 89.13"/><polygon class="cls-6" points="270.08 122.31 270.89 133.5 264.59 124.21 270.08 122.31"/></g></g><g id="MTEXT"><text class="cls-3" transform="translate(164.65 92.47)">Encroachment</text></g><g id="POLYLINE-3" data-name="POLYLINE"><g id="POLYLINE-4" data-name="POLYLINE"><polyline class="cls-5" points="278.99 107.92 294.06 75.07 308.29 75.07"/><polygon class="cls-6" points="282.46 107.33 275.3 115.97 277.18 104.9 282.46 107.33"/></g></g><text class="cls-3" transform="translate(311.5 50.32)"><tspan class="cls-7">V</tspan><tspan x="7.34" y="0">ertical projection of </tspan><tspan x="0" y="14.4">another building on </tspan><tspan x="0" y="28.8">the same allotment </tspan><tspan x="0" y="43.2">other than a building it </tspan><tspan x="0" y="57.6">is associated with</tspan></text><g id="MTEXT-2" data-name="MTEXT"><text class="cls-3" transform="translate(98.96 282.63)">Class 1</text></g><g id="MTEXT-3" data-name="MTEXT"><text class="cls-3" transform="translate(212.75 282.63)">Garage</text></g><g id="MTEXT-4" data-name="MTEXT"><text class="cls-3" transform="translate(323.15 282.78)">Class 1</text></g><g id="MTEXT-5" data-name="MTEXT"><text class="cls-3" transform="translate(436.95 282.78)">Garage</text></g></g></svg>