<svg id="Drawing_Layer" data-name="Drawing Layer" xmlns="http://www.w3.org/2000/svg" xmlns:xlink="http://www.w3.org/1999/xlink" viewBox="0 0 514.82 358.61"><defs><style>.cls-1,.cls-2,.cls-4,.cls-7{fill:none;}.cls-2,.cls-3,.cls-4,.cls-5,.cls-6,.cls-7{stroke:#231f20;}.cls-2{stroke-linejoin:round;}.cls-2,.cls-5,.cls-6{stroke-width:0.5px;}.cls-3,.cls-6{fill:#c0bfbf;}.cls-3,.cls-4,.cls-5,.cls-6,.cls-7{stroke-miterlimit:10;}.cls-5{fill:url(#Diagonal_cross_hatch);}.cls-7{stroke-width:0.25px;}.cls-8,.cls-9{fill:#231f20;}.cls-9{font-size:12px;font-family:ArialMT, Arial;}</style><pattern id="Diagonal_cross_hatch" data-name="Diagonal  cross hatch" width="72" height="72" patternTransform="translate(114.05 13.85)" patternUnits="userSpaceOnUse" viewBox="0 0 72 72"><rect class="cls-1" width="72" height="72"/><line class="cls-2" x1="66" y1="84" x2="84" y2="66"/><line class="cls-2" x1="66" y1="90" x2="90" y2="66"/><line class="cls-2" x1="66" y1="96" x2="96" y2="66"/><line class="cls-2" x1="66" y1="102" x2="102" y2="66"/><line class="cls-2" x1="66" y1="108" x2="108" y2="66"/><line class="cls-2" x1="66" y1="114" x2="114" y2="66"/><line class="cls-2" x1="66" y1="120" x2="120" y2="66"/><line class="cls-2" x1="66" y1="126" x2="126" y2="66"/><line class="cls-2" x1="66" y1="132" x2="132" y2="66"/><line class="cls-2" x1="66" y1="138" x2="138" y2="66"/><line class="cls-2" x1="66" y1="144" x2="144" y2="66"/><line class="cls-2" x1="66" y1="150" x2="150" y2="66"/><line class="cls-2" x1="72" y1="150" x2="150" y2="72"/><line class="cls-2" x1="-6" y1="84" x2="12" y2="66"/><line class="cls-2" x1="-6" y1="90" x2="18" y2="66"/><line class="cls-2" x1="-6" y1="96" x2="24" y2="66"/><line class="cls-2" x1="-6" y1="102" x2="30" y2="66"/><line class="cls-2" x1="-6" y1="108" x2="36" y2="66"/><line class="cls-2" x1="-6" y1="114" x2="42" y2="66"/><line class="cls-2" x1="-6" y1="120" x2="48" y2="66"/><line class="cls-2" x1="-6" y1="126" x2="54" y2="66"/><line class="cls-2" x1="-6" y1="132" x2="60" y2="66"/><line class="cls-2" x1="-6" y1="138" x2="66" y2="66"/><line class="cls-2" x1="-6" y1="144" x2="72" y2="66"/><line class="cls-2" x1="-6" y1="150" x2="78" y2="66"/><line class="cls-2" y1="150" x2="78" y2="72"/><line class="cls-2" x1="-78" y1="144" y2="66"/><line class="cls-2" x1="-78" y1="150" x2="6" y2="66"/><line class="cls-2" x1="-72" y1="150" x2="6" y2="72"/><line class="cls-2" x1="66" y1="12" x2="84" y2="-6"/><line class="cls-2" x1="66" y1="18" x2="90" y2="-6"/><line class="cls-2" x1="66" y1="24" x2="96" y2="-6"/><line class="cls-2" x1="66" y1="30" x2="102" y2="-6"/><line class="cls-2" x1="66" y1="36" x2="108" y2="-6"/><line class="cls-2" x1="66" y1="42" x2="114" y2="-6"/><line class="cls-2" x1="66" y1="48" x2="120" y2="-6"/><line class="cls-2" x1="66" y1="54" x2="126" y2="-6"/><line class="cls-2" x1="66" y1="60" x2="132" y2="-6"/><line class="cls-2" x1="66" y1="66" x2="138" y2="-6"/><line class="cls-2" x1="66" y1="72" x2="144" y2="-6"/><line class="cls-2" x1="66" y1="78" x2="150" y2="-6"/><line class="cls-2" x1="72" y1="78" x2="150"/><line class="cls-2" x1="-6" y1="12" x2="12" y2="-6"/><line class="cls-2" x1="-6" y1="18" x2="18" y2="-6"/><line class="cls-2" x1="-6" y1="24" x2="24" y2="-6"/><line class="cls-2" x1="-6" y1="30" x2="30" y2="-6"/><line class="cls-2" x1="-6" y1="36" x2="36" y2="-6"/><line class="cls-2" x1="-6" y1="42" x2="42" y2="-6"/><line class="cls-2" x1="-6" y1="48" x2="48" y2="-6"/><line class="cls-2" x1="-6" y1="54" x2="54" y2="-6"/><line class="cls-2" x1="-6" y1="60" x2="60" y2="-6"/><line class="cls-2" x1="-6" y1="66" x2="66" y2="-6"/><line class="cls-2" x1="-6" y1="72" x2="72" y2="-6"/><line class="cls-2" x1="-6" y1="78" x2="78" y2="-6"/><line class="cls-2" y1="78" x2="78"/><line class="cls-2" x1="6" y1="78" x2="78" y2="6"/><line class="cls-2" x1="12" y1="78" x2="78" y2="12"/><line class="cls-2" x1="18" y1="78" x2="78" y2="18"/><line class="cls-2" x1="24" y1="78" x2="78" y2="24"/><line class="cls-2" x1="30" y1="78" x2="78" y2="30"/><line class="cls-2" x1="36" y1="78" x2="78" y2="36"/><line class="cls-2" x1="42" y1="78" x2="78" y2="42"/><line class="cls-2" x1="48" y1="78" x2="78" y2="48"/><line class="cls-2" x1="-78" y1="72" y2="-6"/><line class="cls-2" x1="-78" y1="78" x2="6" y2="-6"/><line class="cls-2" x1="-72" y1="78" x2="6"/><line class="cls-2" x1="-66" y1="78" x2="6" y2="6"/><line class="cls-2" x1="-60" y1="78" x2="6" y2="12"/><line class="cls-2" x1="-54" y1="78" x2="6" y2="18"/><line class="cls-2" x1="-48" y1="78" x2="6" y2="24"/><line class="cls-2" x1="-42" y1="78" x2="6" y2="30"/><line class="cls-2" x1="-36" y1="78" x2="6" y2="36"/><line class="cls-2" x1="-30" y1="78" x2="6" y2="42"/><line class="cls-2" x1="-24" y1="78" x2="6" y2="48"/><line class="cls-2" x1="66" x2="144" y2="-78"/><line class="cls-2" x1="66" y1="6" x2="150" y2="-78"/><line class="cls-2" x1="72" y1="6" x2="150" y2="-72"/><line class="cls-2" x1="-6" x2="72" y2="-78"/><line class="cls-2" x1="-6" y1="6" x2="78" y2="-78"/><line class="cls-2" y1="6" x2="78" y2="-72"/><line class="cls-2" x1="6" y1="6" x2="78" y2="-66"/><line class="cls-2" x1="12" y1="6" x2="78" y2="-60"/><line class="cls-2" x1="18" y1="6" x2="78" y2="-54"/><line class="cls-2" x1="24" y1="6" x2="78" y2="-48"/><line class="cls-2" x1="30" y1="6" x2="78" y2="-42"/><line class="cls-2" x1="36" y1="6" x2="78" y2="-36"/><line class="cls-2" x1="42" y1="6" x2="78" y2="-30"/><line class="cls-2" x1="48" y1="6" x2="78" y2="-24"/><line class="cls-2" x1="-78" y2="-78"/><line class="cls-2" x1="-78" y1="6" x2="6" y2="-78"/><line class="cls-2" x1="-72" y1="6" x2="6" y2="-72"/><line class="cls-2" x1="-66" y1="6" x2="6" y2="-66"/><line class="cls-2" x1="-60" y1="6" x2="6" y2="-60"/><line class="cls-2" x1="-54" y1="6" x2="6" y2="-54"/><line class="cls-2" x1="-48" y1="6" x2="6" y2="-48"/><line class="cls-2" x1="-42" y1="6" x2="6" y2="-42"/><line class="cls-2" x1="-36" y1="6" x2="6" y2="-36"/><line class="cls-2" x1="-30" y1="6" x2="6" y2="-30"/><line class="cls-2" x1="-24" y1="6" x2="6" y2="-24"/></pattern></defs><rect class="cls-3" x="243.37" y="0.5" width="27.27" height="256.05"/><rect class="cls-3" x="240.62" y="256.55" width="90.69" height="75.83"/><rect class="cls-4" x="204.42" y="334.86" width="207.3" height="20.03"/><polyline class="cls-4" points="194.87 0.5 194.87 358.11 432.5 358.11"/><rect class="cls-5" x="213.23" y="321.8" width="19.71" height="10.43"/><rect class="cls-6" x="213.23" y="332.22" width="19.71" height="2.64"/><rect class="cls-5" x="213.23" y="308.73" width="19.71" height="10.43"/><rect class="cls-6" x="213.23" y="319.16" width="19.71" height="2.64"/><rect class="cls-5" x="213.23" y="295.67" width="19.71" height="10.43"/><rect class="cls-6" x="213.23" y="306.1" width="19.71" height="2.64"/><rect class="cls-5" x="213.23" y="282.61" width="19.71" height="10.43"/><rect class="cls-6" x="213.23" y="293.03" width="19.71" height="2.64"/><rect class="cls-5" x="213.23" y="269.54" width="19.71" height="10.43"/><rect class="cls-6" x="213.23" y="279.97" width="19.71" height="2.64"/><rect class="cls-5" x="213.23" y="256.48" width="19.71" height="10.43"/><rect class="cls-6" x="213.23" y="266.91" width="19.71" height="2.64"/><rect class="cls-5" x="213.23" y="243.42" width="19.71" height="10.43"/><rect class="cls-6" x="213.23" y="253.84" width="19.71" height="2.64"/><rect class="cls-5" x="213.23" y="230.35" width="19.71" height="10.43"/><rect class="cls-6" x="213.23" y="240.78" width="19.71" height="2.64"/><rect class="cls-5" x="213.23" y="217.29" width="19.71" height="10.43"/><rect class="cls-6" x="213.23" y="227.72" width="19.71" height="2.64"/><rect class="cls-5" x="213.23" y="204.23" width="19.71" height="10.43"/><rect class="cls-6" x="213.23" y="214.65" width="19.71" height="2.64"/><rect class="cls-5" x="213.23" y="191.16" width="19.71" height="10.43"/><rect class="cls-6" x="213.23" y="201.59" width="19.71" height="2.64"/><rect class="cls-5" x="213.23" y="178.1" width="19.71" height="10.43"/><rect class="cls-6" x="213.23" y="188.53" width="19.71" height="2.64"/><rect class="cls-5" x="213.23" y="165.03" width="19.71" height="10.43"/><rect class="cls-6" x="213.23" y="175.46" width="19.71" height="2.64"/><line class="cls-7" x1="204.42" y1="165.03" x2="167.36" y2="165.03"/><line class="cls-7" x1="204.42" y1="258.24" x2="167.36" y2="258.24"/><line class="cls-7" x1="174.3" y1="173.89" x2="174.3" y2="249.38"/><polygon class="cls-8" points="171.4 175.88 174.3 165.03 177.21 175.88 171.4 175.88"/><polygon class="cls-8" points="171.4 247.4 174.3 258.24 177.21 247.4 171.4 247.4"/><line class="cls-7" x1="204.19" y1="277.23" x2="119.28" y2="277.23"/><polygon class="cls-8" points="202.21 274.33 213.05 277.23 202.21 280.14 202.21 274.33"/><line class="cls-7" x1="186.01" y1="339.69" x2="119.28" y2="339.69"/><polygon class="cls-8" points="184.03 336.79 194.87 339.69 184.03 342.6 184.03 336.79"/><polyline class="cls-7" points="174.3 211.64 132.27 170.25 119.28 170.25"/><line class="cls-7" x1="203.73" y1="82.95" x2="234.51" y2="82.95"/><polygon class="cls-8" points="205.71 85.86 194.87 82.95 205.71 80.05 205.71 85.86"/><polygon class="cls-8" points="232.53 85.86 243.37 82.95 232.53 80.05 232.53 85.86"/><line class="cls-7" x1="119.28" y1="82.95" x2="194.87" y2="82.95"/><polyline class="cls-7" points="219.12 82.95 209.45 41.57 119.28 41.57"/><line class="cls-7" x1="340.17" y1="308.73" x2="402.87" y2="308.73"/><polygon class="cls-8" points="342.15 311.64 331.31 308.73 342.15 305.83 342.15 311.64"/><polygon class="cls-8" points="400.89 311.64 411.73 308.73 400.89 305.83 400.89 311.64"/><line class="cls-7" x1="411.73" y1="325" x2="411.73" y2="292.46"/><polyline class="cls-7" points="371.52 308.73 388.92 235.56 420.06 235.56"/><text class="cls-9" transform="translate(328.08 30.15)">Flue</text><text class="cls-9" transform="translate(20.74 343.39)">Non masonry wall</text><text class="cls-9" transform="translate(0 15.42)">Clearance may be<tspan x="0" y="13.94">reduced to 50 mm</tspan><tspan x="0" y="27.88">if the wall is masonry </tspan></text><text class="cls-9" transform="translate(7.84 175.16)">Masonry heat shield<tspan x="0" y="13.94">600 mm above</tspan><tspan x="0" y="27.88">heating appliance</tspan></text><text class="cls-9" transform="translate(2.09 279.77) scale(1.01 1)">90 mm min. masonry<tspan x="0" y="13.94">heat shield</tspan></text><line class="cls-7" x1="279.5" y1="25.57" x2="325.48" y2="25.57"/><polygon class="cls-8" points="281.48 28.47 270.64 25.57 281.48 22.66 281.48 28.47"/><text class="cls-9" transform="translate(125.41 79.21)">400 mm</text><text class="cls-9" transform="translate(125.4 97.61)">min.</text><text class="cls-9" transform="translate(424.79 240.78)">Hearth - 400 mm<tspan x="0" y="13.94">from heating</tspan><tspan x="0" y="27.88">appliance</tspan></text><text class="cls-9" transform="translate(254.35 289.49)">Heating<tspan x="0" y="13.94">appliance</tspan></text></svg>