<?xml version="1.0" encoding="utf-8"?>
<!-- Generator: Adobe Illustrator 25.2.1, SVG Export Plug-In . SVG Version: 6.00 Build 0)  -->
<svg version="1.1" id="_x30_" xmlns="http://www.w3.org/2000/svg" xmlns:xlink="http://www.w3.org/1999/xlink" x="0px" y="0px"
	 viewBox="0 0 552.8 223.8" style="enable-background:new 0 0 552.8 223.8;" xml:space="preserve">
<style type="text/css">
	.st0{fill-rule:evenodd;clip-rule:evenodd;fill:none;}
	.st1{clip-path:url(#SVGID_2_);fill:none;stroke:#221F1F;stroke-width:0.5;stroke-linejoin:round;}
	.st2{fill:#231F20;}
	.st3{font-family:'ArialMT';}
	.st4{font-size:12px;}
	.st5{fill:none;stroke:#231F20;stroke-width:0.25;stroke-miterlimit:10;}
	.st6{fill:none;stroke:#231F20;stroke-linecap:round;stroke-miterlimit:10;}
	.st7{fill:none;stroke:#231F20;stroke-miterlimit:10;}
	.st8{fill:none;stroke:#231F20;stroke-miterlimit:10;stroke-dasharray:12.5947,12.5947;}
	.st9{fill:none;stroke:#231F20;stroke-miterlimit:10;stroke-dasharray:13.4929,13.4929;}
	.st10{fill:none;stroke:#231F20;stroke-miterlimit:10;stroke-dasharray:13.3287,13.3287;}
	.st11{fill:none;stroke:#231F20;stroke-miterlimit:10;stroke-dasharray:13.493,13.493;}
	.st12{fill:none;stroke:#231F20;stroke-miterlimit:10;stroke-dasharray:13.3288,13.3288;}
	.st13{fill:none;stroke:#231F20;stroke-miterlimit:10;stroke-dasharray:14.2895,14.2895;}
	.st14{fill:none;stroke:#231F20;stroke-miterlimit:10;stroke-dasharray:10.6075,10.6075;}
	.st15{fill:none;stroke:#231F20;stroke-miterlimit:10;stroke-dasharray:10.6076,10.6076;}
	.st16{fill:url(#SVGID_3_);}
	.st17{fill:url(#SVGID_4_);}
	.st18{fill:none;}
</style>
<pattern  y="539.4" width="72" height="72" patternUnits="userSpaceOnUse" id="diagonal_cross_hatch" viewBox="6.2 -86.2 72 72" style="overflow:visible;">
	<g>
		<rect x="6.2" y="-86.2" class="st0" width="72" height="72"/>
		<g>
			<defs>
				<rect id="SVGID_1_" x="6.2" y="-86.2" width="72" height="72"/>
			</defs>
			<clipPath id="SVGID_2_">
				<use xlink:href="#SVGID_1_"  style="overflow:visible;"/>
			</clipPath>
			<line class="st1" x1="0.2" y1="-74.2" x2="18.2" y2="-92.2"/>
			<line class="st1" x1="0.2" y1="-68.2" x2="24.2" y2="-92.2"/>
			<line class="st1" x1="0.2" y1="-62.2" x2="30.2" y2="-92.2"/>
			<line class="st1" x1="0.2" y1="-56.2" x2="36.2" y2="-92.2"/>
			<line class="st1" x1="0.2" y1="-50.2" x2="42.2" y2="-92.2"/>
			<line class="st1" x1="0.2" y1="-44.2" x2="48.2" y2="-92.2"/>
			<line class="st1" x1="0.2" y1="-38.2" x2="54.2" y2="-92.2"/>
			<line class="st1" x1="0.2" y1="-32.2" x2="60.2" y2="-92.2"/>
			<line class="st1" x1="0.2" y1="-26.2" x2="66.2" y2="-92.2"/>
			<line class="st1" x1="0.2" y1="-20.2" x2="72.2" y2="-92.2"/>
			<line class="st1" x1="0.2" y1="-14.2" x2="78.2" y2="-92.2"/>
			<line class="st1" x1="0.2" y1="-8.2" x2="84.2" y2="-92.2"/>
			<line class="st1" x1="6.2" y1="-8.2" x2="84.2" y2="-86.2"/>
			<line class="st1" x1="12.2" y1="-8.2" x2="84.2" y2="-80.2"/>
			<line class="st1" x1="18.2" y1="-8.2" x2="84.2" y2="-74.2"/>
			<line class="st1" x1="24.2" y1="-8.2" x2="84.2" y2="-68.2"/>
			<line class="st1" x1="30.2" y1="-8.2" x2="84.2" y2="-62.2"/>
			<line class="st1" x1="36.2" y1="-8.2" x2="84.2" y2="-56.2"/>
			<line class="st1" x1="42.2" y1="-8.2" x2="84.2" y2="-50.2"/>
			<line class="st1" x1="48.2" y1="-8.2" x2="84.2" y2="-44.2"/>
			<line class="st1" x1="54.2" y1="-8.2" x2="84.2" y2="-38.2"/>
			<line class="st1" x1="52.2" y1="-0.2" x2="94.2" y2="-42.2"/>
			<line class="st1" x1="58.2" y1="-0.2" x2="94.2" y2="-36.2"/>
			<line class="st1" x1="64.2" y1="-0.2" x2="94.2" y2="-30.2"/>
		</g>
	</g>
</pattern>
<g id="MTEXT">
	<g>
		<text transform="matrix(1 0 0 1 216.4151 109.3984)" class="st2 st3 st4">10a</text>
	</g>
</g>
<g id="MTEXT_3_">
	<g>
		<text transform="matrix(1 0 0 1 105.0815 82.3967)" class="st2 st3 st4">1</text>
	</g>
</g>
<g id="MTEXT_1_">
	<g>
		<text transform="matrix(1 0 0 1 127.4107 201.5974)" class="st2 st3 st4">Less than 1.8 m</text>
	</g>
</g>
<g id="MTEXT_2_">
	<g>
		<text transform="matrix(1 0 0 1 340.1782 94.7899)" class="st2 st3 st4">10a</text>
	</g>
</g>
<g id="MTEXT_7_">
	<g>
		<text transform="matrix(1 0 0 1 451.8587 75.7887)" class="st2 st3 st4">1</text>
	</g>
</g>
<g id="POLYLINE">
	<g id="POLYLINE_3_">
		<g>
			<g>
				<g>
					<g>
						<g>
							<polyline class="st5" points="287.6,145.3 277.8,199.6 215.8,199.6 							"/>
							<g>
								<polygon class="st2" points="284.4,146.7 289.2,136.5 290.1,147.7 								"/>
							</g>
						</g>
					</g>
				</g>
			</g>
		</g>
	</g>
</g>
<g>
	<g id="POLYLINE_2_">
		<g>
			<rect x="28.3" y="46.3" class="st6" width="164.4" height="131.4"/>
		</g>
	</g>
	<g id="LINE_10_">
		<g>
			<line class="st6" x1="263.8" y1="142.7" x2="263.8" y2="68.3"/>
		</g>
	</g>
	<g id="LINE_11_">
		<g>
			<line class="st6" x1="192.8" y1="68.3" x2="263.8" y2="68.3"/>
		</g>
	</g>
	<g id="LINE_12_">
		<g>
			<line class="st6" x1="272.1" y1="142.7" x2="272.1" y2="68.3"/>
		</g>
	</g>
	<g id="LINE_13_">
		<g>
			<line class="st6" x1="263.8" y1="68.3" x2="272.1" y2="68.3"/>
		</g>
	</g>
	<g id="LINE_14_">
		<g>
			<line class="st6" x1="192.8" y1="142.7" x2="272.1" y2="142.7"/>
		</g>
	</g>
	<g id="LINE_27_">
		<g>
			<line class="st6" x1="316.7" y1="128" x2="316.7" y2="53.6"/>
		</g>
	</g>
	<g id="LINE_28_">
		<g>
			<line class="st6" x1="387.7" y1="53.6" x2="316.7" y2="53.6"/>
		</g>
	</g>
	<g id="LINE_29_">
		<g>
			<line class="st6" x1="308.4" y1="128" x2="308.4" y2="53.6"/>
		</g>
	</g>
	<g id="LINE_30_">
		<g>
			<line class="st6" x1="316.7" y1="53.6" x2="308.4" y2="53.6"/>
		</g>
	</g>
	<g id="LINE_31_">
		<g>
			<line class="st6" x1="387.7" y1="128" x2="308.4" y2="128"/>
		</g>
	</g>
	<g id="LINE_44_">
		<g>
			<line class="st6" x1="387.7" y1="46.3" x2="524.7" y2="46.3"/>
		</g>
	</g>
	<g id="LINE_45_">
		<g>
			<line class="st6" x1="524.7" y1="46.3" x2="524.7" y2="147.2"/>
		</g>
	</g>
	<g id="LINE_46_">
		<g>
			<line class="st6" x1="524.7" y1="147.2" x2="387.7" y2="147.2"/>
		</g>
	</g>
	<g id="LINE_47_">
		<g>
			<line class="st6" x1="387.7" y1="147.2" x2="387.7" y2="46.3"/>
		</g>
	</g>
</g>
<g>
	<g id="LINE">
		<g id="LINE_96_">
			<g>
				<g>
					<g>
						<line class="st7" x1="73.1" y1="112" x2="79.1" y2="112"/>
						<line class="st8" x1="91.7" y1="112" x2="135.8" y2="112"/>
						<line class="st7" x1="142.1" y1="112" x2="148.1" y2="112"/>
					</g>
				</g>
			</g>
		</g>
	</g>
	<g id="LINE_1_">
		<g id="LINE_95_">
			<g>
				<g>
					<g>
						<line class="st7" x1="73.1" y1="112" x2="69.7" y2="107.1"/>
						<line class="st9" x1="62.1" y1="95.9" x2="35.5" y2="56.9"/>
						<line class="st7" x1="31.7" y1="51.3" x2="28.3" y2="46.3"/>
					</g>
				</g>
			</g>
		</g>
	</g>
	<g id="LINE_2_">
		<g id="LINE_94_">
			<g>
				<g>
					<g>
						<line class="st7" x1="73.1" y1="112" x2="69.7" y2="117"/>
						<line class="st10" x1="62.2" y1="128" x2="36.1" y2="166.6"/>
						<line class="st7" x1="32.3" y1="172.2" x2="29" y2="177.1"/>
					</g>
				</g>
			</g>
		</g>
	</g>
	<g id="LINE_3_">
		<g id="LINE_93_">
			<g>
				<g>
					<g>
						<line class="st7" x1="148.1" y1="112" x2="151.4" y2="107.1"/>
						<line class="st11" x1="159" y1="95.9" x2="185.6" y2="56.9"/>
						<line class="st7" x1="189.4" y1="51.3" x2="192.8" y2="46.3"/>
					</g>
				</g>
			</g>
		</g>
	</g>
	<g id="LINE_4_">
		<g id="LINE_92_">
			<g>
				<g>
					<g>
						<line class="st7" x1="148.1" y1="112" x2="151.4" y2="117"/>
						<line class="st12" x1="158.9" y1="128" x2="185.1" y2="166.6"/>
						<line class="st7" x1="188.8" y1="172.2" x2="192.2" y2="177.1"/>
					</g>
				</g>
			</g>
		</g>
	</g>
</g>
<g>
	<g id="LINE_5_">
		<g id="LINE_91_">
			<g>
				<g>
					<g>
						<line class="st7" x1="483.6" y1="96.8" x2="477.6" y2="96.8"/>
						<line class="st13" x1="463.3" y1="96.8" x2="441.9" y2="96.8"/>
						<line class="st7" x1="434.8" y1="96.8" x2="428.8" y2="96.8"/>
					</g>
				</g>
			</g>
		</g>
	</g>
	<g id="LINE_6_">
		<g id="LINE_90_">
			<g>
				<g>
					<g>
						<line class="st7" x1="524.7" y1="46.3" x2="520.9" y2="51"/>
						<line class="st14" x1="514.2" y1="59.2" x2="490.8" y2="88"/>
						<line class="st7" x1="487.4" y1="92.1" x2="483.6" y2="96.8"/>
					</g>
				</g>
			</g>
		</g>
	</g>
	<g id="LINE_7_">
		<g id="LINE_89_">
			<g>
				<g>
					<g>
						<line class="st7" x1="483.6" y1="96.8" x2="487.4" y2="101.4"/>
						<line class="st15" x1="494.1" y1="109.7" x2="517.5" y2="138.4"/>
						<line class="st7" x1="520.9" y1="142.6" x2="524.7" y2="147.2"/>
					</g>
				</g>
			</g>
		</g>
	</g>
	<g id="LINE_8_">
		<g id="LINE_88_">
			<g>
				<g>
					<g>
						<line class="st7" x1="387.7" y1="46.3" x2="391.5" y2="51"/>
						<line class="st14" x1="398.2" y1="59.2" x2="421.6" y2="88"/>
						<line class="st7" x1="425" y1="92.1" x2="428.8" y2="96.8"/>
					</g>
				</g>
			</g>
		</g>
	</g>
	<g id="LINE_9_">
		<g id="LINE_87_">
			<g>
				<g>
					<g>
						<line class="st7" x1="428.8" y1="96.8" x2="425" y2="101.4"/>
						<line class="st15" x1="418.3" y1="109.7" x2="394.8" y2="138.4"/>
						<line class="st7" x1="391.5" y1="142.6" x2="387.7" y2="147.2"/>
					</g>
				</g>
			</g>
		</g>
	</g>
</g>
<pattern  id="SVGID_3_" xlink:href="#diagonal_cross_hatch" patternTransform="matrix(1 0 0 1 237.9449 1.6371)">
</pattern>
<rect x="263.8" y="68.3" class="st16" width="8.3" height="74.4"/>
<pattern  id="SVGID_4_" xlink:href="#diagonal_cross_hatch" patternTransform="matrix(1 0 0 1 282.5746 -13.1112)">
</pattern>
<rect x="308.4" y="53.6" class="st17" width="8.3" height="74.4"/>
<rect x="205.8" y="19.3" class="st18" width="154.1" height="15.7"/>
<text transform="matrix(1 0 0 1 205.7883 27.8468)" class="st3 st4">Wall with a FRL of 60/60/60</text>
<g>
	<g>
		<polyline class="st5" points="272.5,60.8 289.2,33.5 305.8,47.8 		"/>
		<g>
			<polygon class="st2" points="276,60.6 267.9,68.3 271.1,57.6 			"/>
		</g>
		<g>
			<polygon class="st2" points="302.4,48.7 312.6,53.6 306.2,44.3 			"/>
		</g>
	</g>
</g>
</svg>
