<?xml version="1.0" encoding="utf-8"?>
<!-- Generator: Adobe Illustrator 25.1.0, SVG Export Plug-In . SVG Version: 6.00 Build 0)  -->
<svg version="1.1" xmlns="http://www.w3.org/2000/svg" xmlns:xlink="http://www.w3.org/1999/xlink" x="0px" y="0px"
	 viewBox="0 0 552.76 409.53" style="enable-background:new 0 0 552.76 409.53;" xml:space="preserve">
<style type="text/css">
	.st0{fill-rule:evenodd;clip-rule:evenodd;fill:#231F20;}
	.st1{fill:none;stroke:#000000;stroke-width:0.8634;stroke-linecap:round;stroke-linejoin:round;stroke-miterlimit:10;}
	.st2{fill:none;stroke:#231F20;stroke-linecap:round;stroke-linejoin:round;stroke-miterlimit:10;}
	.st3{fill:none;stroke:#231F20;stroke-width:0.75;stroke-linecap:round;stroke-linejoin:round;stroke-miterlimit:10;}
	.st4{fill:none;stroke:#000000;stroke-width:0.75;stroke-linecap:round;stroke-linejoin:round;}
	.st5{fill:none;stroke:#000000;stroke-width:0.75;stroke-linecap:round;stroke-linejoin:round;stroke-dasharray:11.7531,11.7531;}
	.st6{font-family:'ArialMT';}
	.st7{font-size:12px;}
	.st8{font-family:'Arial-ItalicMT';}
	.st9{fill:none;stroke:#231F20;stroke-width:0.25;stroke-linecap:round;stroke-linejoin:round;}
	.st10{fill:#231F20;}
</style>
<g id="HATCH_1_">
</g>
<g id="LINE_35">
</g>
<g id="LINE_25">
</g>
<g id="LINE_18_DESH">
</g>
<g id="TXT25">
</g>
<g id="LINE_18">
	<g id="HATCH_2_">
		<path class="st0" d="M282.64,177.3h5.12V52.61h-5.12V177.3z M282.64,52.61h-5.12V177.3h5.12V52.61z"/>
	</g>
	<g id="LINE_4_">
		<line class="st1" x1="277.52" y1="52.61" x2="277.52" y2="177.3"/>
	</g>
	<g id="LINE_5_">
		<line class="st1" x1="287.76" y1="52.61" x2="287.76" y2="177.3"/>
	</g>
	<g>
		<g id="LINE_8_">
			<line class="st2" x1="424.26" y1="348.78" x2="141.01" y2="348.78"/>
		</g>
		<g>
			<g>
				<g id="LINE">
					<line class="st2" x1="141.01" y1="52.61" x2="376.32" y2="52.61"/>
				</g>
				<g id="LINE_1_">
					<line class="st2" x1="177.54" y1="177.3" x2="387.74" y2="177.3"/>
				</g>
				<g id="LINE_7_">
					<line class="st2" x1="177.54" y1="177.3" x2="177.54" y2="348.78"/>
				</g>
				<g id="LINE_9_">
					<line class="st2" x1="177.54" y1="324.48" x2="141.01" y2="324.48"/>
				</g>
				<g id="LINE_10_">
					<line class="st2" x1="387.74" y1="177.3" x2="387.74" y2="348.78"/>
				</g>
				<g id="LINE_11_">
					<line class="st2" x1="387.74" y1="324.48" x2="424.26" y2="324.48"/>
				</g>
				<g id="LINE_2_">
					<line class="st2" x1="282.64" y1="29.36" x2="282.64" y2="205"/>
				</g>
			</g>
			<g id="LINE_3_">
				<line class="st2" x1="282.64" y1="226.61" x2="282.64" y2="348.78"/>
			</g>
			<g id="LINE_12_">
				<line class="st2" x1="280.43" y1="177.3" x2="280.43" y2="205.23"/>
			</g>
			<g id="LINE_13_">
				<line class="st2" x1="280.43" y1="226.38" x2="280.43" y2="348.78"/>
			</g>
		</g>
	</g>
	<g id="CIRCLE">
		<path class="st3" d="M270.83,215.81c0-5.97,4.84-10.8,10.81-10.8c5.97,0,10.8,4.84,10.8,10.8c0,5.97-4.84,10.81-10.8,10.81
			C275.67,226.61,270.83,221.78,270.83,215.81L270.83,215.81z"/>
	</g>
	<g id="LINE_6_">
		<g>
			<g>
				<line class="st4" x1="141.01" y1="29.36" x2="147.01" y2="29.36"/>
				<line class="st5" x1="158.77" y1="29.36" x2="364.45" y2="29.36"/>
				<line class="st4" x1="370.32" y1="29.36" x2="376.32" y2="29.36"/>
			</g>
		</g>
	</g>
	<g id="MTEXT">
		<text transform="matrix(1 0 0 1 177.5395 123.5715)" class="st6 st7">Class 1</text>
	</g>
	<g id="MTEXT_1_">
		<text transform="matrix(1 0 0 1 347.7247 123.5715)" class="st6 st7">Class 1</text>
	</g>
	<g id="MTEXT_2_">
		<text transform="matrix(1 0 0 1 392.1099 38.0412)"><tspan x="0" y="0" class="st6 st7">Provide </tspan><tspan x="44.02" y="0" class="st8 st7">non-combustible</tspan><tspan x="0" y="14.4" class="st6 st7">separation in eaves</tspan></text>
	</g>
	<g id="MTEXT_3_">
		<text transform="matrix(1 0 0 1 290.6202 245.9287)" class="st6 st7">Class 10a</text>
	</g>
	<g id="MTEXT_5_">
		<text transform="matrix(1 0 0 1 184.4474 245.9287)" class="st6 st7">Class 10a</text>
	</g>
	<g id="MTEXT_6_">
		<text transform="matrix(1 0 0 1 184.4477 275.0437)"><tspan x="0" y="0" class="st6 st7">Carport / </tspan><tspan x="0" y="14.4" class="st6 st7">verandah with</tspan><tspan x="0" y="28.8" class="st8 st7">non-combustible </tspan><tspan x="0" y="43.2" class="st6 st7">ceiling</tspan></text>
	</g>
	<g id="MTEXT_7_">
		<text transform="matrix(1 0 0 1 278.3249 220.5271)" class="st6 st7">1</text>
	</g>
	<g id="MTEXT_8_">
		<text transform="matrix(1 0 0 1 28.8732 159.0788)"><tspan x="0" y="0" class="st6 st7">Roof space separation </tspan><tspan x="0" y="14.4" class="st6 st7">to be clad with </tspan><tspan x="0" y="28.8" class="st8 st7">non-combustible</tspan><tspan x="0" y="43.2" class="st6 st7">material on both sides</tspan></text>
	</g>
	<g id="MTEXT_9_">
		<text transform="matrix(1 0 0 1 139.5866 365.6043)"><tspan x="0" y="0" class="st6 st7">If under main roof, provide roof separation</tspan><tspan x="0" y="14.4" class="st6 st7">at 1 from ceiling to underside of </tspan><tspan x="170.76" y="14.4" class="st8 st7">non-combustible </tspan><tspan x="262.14" y="14.4" class="st6 st7">roof cladding</tspan></text>
	</g>
	<g id="MTEXT_10_">
		<text transform="matrix(1 0 0 1 290.62 275.0437)"><tspan x="0" y="0" class="st6 st7">Carport / </tspan><tspan x="0" y="14.4" class="st6 st7">verandah with</tspan><tspan x="0" y="28.8" class="st8 st7">non-combustible </tspan><tspan x="0" y="43.2" class="st6 st7">ceiling</tspan></text>
	</g>
	<text transform="matrix(1 0 0 1 95.2058 365.6043)" class="st6 st7">NOTE:</text>
	<g id="LEADER">
		<g>
			<g>
				<line class="st9" x1="290.91" y1="40.72" x2="389.32" y2="40.72"/>
				<g>
					<polygon class="st10" points="292.4,42.9 284.27,40.72 292.4,38.54 					"/>
				</g>
			</g>
		</g>
	</g>
	<g id="LEADER_1_">
		<g>
			<g>
				<line class="st9" x1="272.15" y1="199.66" x2="153.13" y2="199.66"/>
				<g>
					<polygon class="st10" points="270.67,197.48 278.8,199.66 270.67,201.84 					"/>
				</g>
			</g>
		</g>
	</g>
</g>
</svg>
