<?xml version="1.0" encoding="utf-8"?>
<!-- Generator: Adobe Illustrator 25.2.1, SVG Export Plug-In . SVG Version: 6.00 Build 0)  -->
<svg version="1.1" id="_x30_" xmlns="http://www.w3.org/2000/svg" xmlns:xlink="http://www.w3.org/1999/xlink" x="0px" y="0px"
	 viewBox="0 0 552.8 221.9" style="enable-background:new 0 0 552.8 221.9;" xml:space="preserve">
<style type="text/css">
	.st0{fill:none;}
	.st1{fill:none;stroke:#000000;stroke-width:0.5;stroke-miterlimit:10;}
	.st2{fill-rule:evenodd;clip-rule:evenodd;fill:url(#SVGID_1_);}
	.st3{fill-rule:evenodd;clip-rule:evenodd;fill:url(#SVGID_2_);}
	.st4{fill-rule:evenodd;clip-rule:evenodd;fill:#231F20;}
	.st5{fill:none;stroke:#ADADAD;stroke-width:0.6358;stroke-linecap:round;stroke-linejoin:round;stroke-miterlimit:10;}
	.st6{fill:none;stroke:#231F20;stroke-width:0.75;stroke-miterlimit:10;}
	.st7{fill:none;stroke:#231F20;stroke-width:0.75;stroke-miterlimit:10;stroke-dasharray:11.9247,5.9524,0,0;}
	.st8{fill:none;stroke:#231F20;stroke-width:0.25;stroke-miterlimit:10;}
	.st9{fill:#231F20;}
	.st10{font-family:'ArialMT';}
	.st11{font-size:12px;}
	.st12{font-family:'Arial-BoldMT';}
	.st13{fill:none;stroke:#231F20;stroke-linecap:round;stroke-linejoin:round;stroke-miterlimit:10;}
	.st14{fill:none;stroke:#231F20;stroke-miterlimit:10;}
</style>
<pattern  y="536.1" width="90.7" height="90.7" patternUnits="userSpaceOnUse" id="Earth" viewBox="11 -102.8 90.7 90.7" style="overflow:visible;">
	<g>
		<rect x="11" y="-102.8" class="st0" width="90.7" height="90.7"/>
		<g>
			<line class="st1" x1="45.1" y1="-0.4" x2="56.8" y2="-12.2"/>
			<line class="st1" x1="33.7" y1="-12.1" x2="22.4" y2="-0.8"/>
			<line class="st1" x1="67.6" y1="-0.2" x2="79.3" y2="-11.9"/>
			<line class="st1" x1="88.5" y1="-0.2" x2="100.2" y2="-11.9"/>
		</g>
		<g>
			<line class="st1" x1="113" y1="-72.5" x2="101.7" y2="-83.9"/>
			<line class="st1" x1="101.8" y1="-61.2" x2="112.9" y2="-50.1"/>
			<line class="st1" x1="101.4" y1="-38.5" x2="112.5" y2="-27.4"/>
			<line class="st1" x1="100.4" y1="-15.4" x2="111.5" y2="-4.4"/>
		</g>
		<g>
			<line class="st1" x1="29.6" y1="-79.8" x2="18.5" y2="-90.9"/>
			<line class="st1" x1="27.2" y1="-77.4" x2="15.9" y2="-88.7"/>
			<line class="st1" x1="24.8" y1="-75" x2="13.4" y2="-86.3"/>
			<line class="st1" x1="22.3" y1="-72.5" x2="11" y2="-83.9"/>
			<line class="st1" x1="52.3" y1="-83.9" x2="64.1" y2="-95.7"/>
			<line class="st1" x1="49.9" y1="-86.3" x2="61.7" y2="-98.1"/>
			<line class="st1" x1="47.5" y1="-88.7" x2="59.2" y2="-100.4"/>
			<line class="st1" x1="45.1" y1="-91.2" x2="56.8" y2="-102.9"/>
			<line class="st1" x1="34" y1="-84.2" x2="45.1" y2="-73.2"/>
			<line class="st1" x1="36.4" y1="-86.6" x2="47.7" y2="-75.4"/>
			<line class="st1" x1="38.8" y1="-89.1" x2="50.2" y2="-77.7"/>
			<line class="st1" x1="41.3" y1="-91.5" x2="52.6" y2="-80.2"/>
			<line class="st1" x1="33.7" y1="-102.8" x2="22.4" y2="-91.5"/>
			<line class="st1" x1="36.1" y1="-100.3" x2="24.8" y2="-89.1"/>
			<line class="st1" x1="38.5" y1="-97.9" x2="27.2" y2="-86.6"/>
			<line class="st1" x1="40.9" y1="-95.5" x2="29.6" y2="-84.2"/>
			<line class="st1" x1="29.5" y1="-60.9" x2="41.3" y2="-72.7"/>
			<line class="st1" x1="27.1" y1="-63.3" x2="38.9" y2="-75.1"/>
			<line class="st1" x1="24.6" y1="-65.7" x2="36.4" y2="-77.4"/>
			<line class="st1" x1="22.2" y1="-68.1" x2="34" y2="-79.9"/>
			<line class="st1" x1="11.1" y1="-61.2" x2="22.2" y2="-50.1"/>
			<line class="st1" x1="13.5" y1="-63.6" x2="24.8" y2="-52.3"/>
			<line class="st1" x1="16" y1="-66" x2="27.3" y2="-54.7"/>
			<line class="st1" x1="18.4" y1="-68.5" x2="29.7" y2="-57.1"/>
			<line class="st1" x1="74.9" y1="-83.6" x2="86.7" y2="-95.4"/>
			<line class="st1" x1="72.5" y1="-86" x2="84.2" y2="-97.8"/>
			<line class="st1" x1="70" y1="-88.5" x2="81.7" y2="-100.2"/>
			<line class="st1" x1="67.6" y1="-90.9" x2="79.3" y2="-102.6"/>
			<line class="st1" x1="56.5" y1="-84" x2="67.6" y2="-72.9"/>
			<line class="st1" x1="58.9" y1="-86.4" x2="70.2" y2="-75.1"/>
			<line class="st1" x1="61.4" y1="-88.8" x2="72.7" y2="-77.5"/>
			<line class="st1" x1="63.8" y1="-91.2" x2="75.1" y2="-79.9"/>
			<line class="st1" x1="52" y1="-60.6" x2="63.8" y2="-72.4"/>
			<line class="st1" x1="49.6" y1="-63" x2="61.4" y2="-74.8"/>
			<line class="st1" x1="47.2" y1="-65.4" x2="58.9" y2="-77.2"/>
			<line class="st1" x1="44.7" y1="-67.9" x2="56.5" y2="-79.6"/>
			<line class="st1" x1="33.7" y1="-60.9" x2="44.7" y2="-49.9"/>
			<line class="st1" x1="36.1" y1="-63.3" x2="47.4" y2="-52.1"/>
			<line class="st1" x1="38.5" y1="-65.8" x2="49.8" y2="-54.4"/>
			<line class="st1" x1="40.9" y1="-68.2" x2="52.3" y2="-56.9"/>
			<line class="st1" x1="29" y1="-38.1" x2="40.8" y2="-49.9"/>
			<line class="st1" x1="26.6" y1="-40.5" x2="38.4" y2="-52.3"/>
			<line class="st1" x1="24.2" y1="-43" x2="35.9" y2="-54.7"/>
			<line class="st1" x1="21.8" y1="-45.4" x2="33.5" y2="-57.1"/>
			<line class="st1" x1="10.7" y1="-38.5" x2="21.8" y2="-27.4"/>
			<line class="st1" x1="13.1" y1="-40.9" x2="24.4" y2="-29.6"/>
			<line class="st1" x1="15.5" y1="-43.3" x2="26.9" y2="-32"/>
			<line class="st1" x1="17.9" y1="-45.7" x2="29.3" y2="-34.4"/>
			<line class="st1" x1="73.9" y1="-60.6" x2="85.7" y2="-72.4"/>
			<line class="st1" x1="71.5" y1="-63" x2="83.3" y2="-74.8"/>
			<line class="st1" x1="69.1" y1="-65.4" x2="80.8" y2="-77.2"/>
			<line class="st1" x1="66.6" y1="-67.9" x2="78.4" y2="-79.6"/>
			<line class="st1" x1="55.6" y1="-60.9" x2="66.6" y2="-49.9"/>
			<line class="st1" x1="58" y1="-63.3" x2="69.2" y2="-52.1"/>
			<line class="st1" x1="60.4" y1="-65.8" x2="71.7" y2="-54.4"/>
			<line class="st1" x1="62.8" y1="-68.2" x2="74.2" y2="-56.9"/>
			<line class="st1" x1="51" y1="-37.6" x2="62.8" y2="-49.4"/>
			<line class="st1" x1="48.6" y1="-40" x2="60.4" y2="-51.8"/>
			<line class="st1" x1="46.2" y1="-42.4" x2="57.9" y2="-54.1"/>
			<line class="st1" x1="43.8" y1="-44.8" x2="55.5" y2="-56.6"/>
			<line class="st1" x1="32.7" y1="-37.9" x2="43.8" y2="-26.8"/>
			<line class="st1" x1="35.1" y1="-40.3" x2="46.4" y2="-29"/>
			<line class="st1" x1="37.5" y1="-42.8" x2="48.9" y2="-31.4"/>
			<line class="st1" x1="40" y1="-45.2" x2="51.3" y2="-33.9"/>
			<line class="st1" x1="28.1" y1="-15.1" x2="39.8" y2="-26.9"/>
			<line class="st1" x1="25.6" y1="-17.5" x2="37.4" y2="-29.3"/>
			<line class="st1" x1="23.2" y1="-19.9" x2="34.9" y2="-31.7"/>
			<line class="st1" x1="20.8" y1="-22.4" x2="32.5" y2="-34.1"/>
			<line class="st1" x1="9.7" y1="-15.4" x2="20.8" y2="-4.4"/>
			<line class="st1" x1="12.1" y1="-17.9" x2="23.4" y2="-6.6"/>
			<line class="st1" x1="14.5" y1="-20.3" x2="25.9" y2="-8.9"/>
			<line class="st1" x1="17" y1="-22.7" x2="28.3" y2="-11.4"/>
			<line class="st1" x1="95.7" y1="-83.6" x2="107.5" y2="-95.4"/>
			<line class="st1" x1="93.3" y1="-86" x2="105.1" y2="-97.8"/>
			<line class="st1" x1="90.9" y1="-88.5" x2="102.6" y2="-100.2"/>
			<line class="st1" x1="88.5" y1="-90.9" x2="100.2" y2="-102.6"/>
			<line class="st1" x1="77.4" y1="-84" x2="88.5" y2="-72.9"/>
			<line class="st1" x1="79.8" y1="-86.4" x2="91.1" y2="-75.1"/>
			<line class="st1" x1="82.2" y1="-88.8" x2="93.6" y2="-77.5"/>
			<line class="st1" x1="84.6" y1="-91.2" x2="96" y2="-79.9"/>
			<line class="st1" x1="74.4" y1="-38.2" x2="86.1" y2="-49.9"/>
			<line class="st1" x1="71.9" y1="-40.6" x2="83.7" y2="-52.4"/>
			<line class="st1" x1="69.5" y1="-43" x2="81.2" y2="-54.7"/>
			<line class="st1" x1="67.1" y1="-45.4" x2="78.8" y2="-57.2"/>
			<line class="st1" x1="56" y1="-38.5" x2="67.1" y2="-27.4"/>
			<line class="st1" x1="58.4" y1="-40.9" x2="69.7" y2="-29.6"/>
			<line class="st1" x1="60.8" y1="-43.3" x2="72.2" y2="-32"/>
			<line class="st1" x1="63.3" y1="-45.8" x2="74.6" y2="-34.4"/>
			<line class="st1" x1="51.5" y1="-15.1" x2="63.3" y2="-26.9"/>
			<line class="st1" x1="49.1" y1="-17.6" x2="60.9" y2="-29.3"/>
			<line class="st1" x1="46.7" y1="-20" x2="58.4" y2="-31.7"/>
			<line class="st1" x1="44.2" y1="-22.4" x2="56" y2="-34.2"/>
			<line class="st1" x1="33.1" y1="-15.5" x2="44.2" y2="-4.4"/>
			<line class="st1" x1="35.6" y1="-17.9" x2="46.8" y2="-6.6"/>
			<line class="st1" x1="38" y1="-20.3" x2="49.3" y2="-9"/>
			<line class="st1" x1="40.4" y1="-22.8" x2="51.7" y2="-11.4"/>
			<line class="st1" x1="96.6" y1="-60.9" x2="108.4" y2="-72.7"/>
			<line class="st1" x1="94.2" y1="-63.3" x2="106" y2="-75.1"/>
			<line class="st1" x1="91.8" y1="-65.7" x2="103.5" y2="-77.4"/>
			<line class="st1" x1="89.3" y1="-68.1" x2="101.1" y2="-79.9"/>
			<line class="st1" x1="78.2" y1="-61.2" x2="89.3" y2="-50.1"/>
			<line class="st1" x1="80.7" y1="-63.6" x2="91.9" y2="-52.3"/>
			<line class="st1" x1="83.1" y1="-66" x2="94.4" y2="-54.7"/>
			<line class="st1" x1="85.5" y1="-68.5" x2="96.9" y2="-57.1"/>
			<line class="st1" x1="96.7" y1="-38.1" x2="108.5" y2="-49.9"/>
			<line class="st1" x1="94.3" y1="-40.6" x2="106.1" y2="-52.3"/>
			<line class="st1" x1="91.9" y1="-43" x2="103.6" y2="-54.7"/>
			<line class="st1" x1="89.5" y1="-45.4" x2="101.2" y2="-57.2"/>
			<line class="st1" x1="78.4" y1="-38.5" x2="89.5" y2="-27.4"/>
			<line class="st1" x1="80.8" y1="-40.9" x2="92.1" y2="-29.6"/>
			<line class="st1" x1="83.2" y1="-43.3" x2="94.6" y2="-32"/>
			<line class="st1" x1="85.7" y1="-45.8" x2="97" y2="-34.4"/>
			<line class="st1" x1="73.9" y1="-15.1" x2="85.7" y2="-26.9"/>
			<line class="st1" x1="71.5" y1="-17.5" x2="83.3" y2="-29.3"/>
			<line class="st1" x1="69" y1="-20" x2="80.8" y2="-31.7"/>
			<line class="st1" x1="66.6" y1="-22.4" x2="78.4" y2="-34.1"/>
			<line class="st1" x1="55.8" y1="-15.5" x2="66.9" y2="-4.4"/>
			<line class="st1" x1="58.2" y1="-17.9" x2="69.5" y2="-6.6"/>
			<line class="st1" x1="60.7" y1="-20.3" x2="72" y2="-9"/>
			<line class="st1" x1="63.1" y1="-22.8" x2="74.4" y2="-11.4"/>
			<line class="st1" x1="96.7" y1="-15.8" x2="108.5" y2="-27.6"/>
			<line class="st1" x1="94.3" y1="-18.2" x2="106.1" y2="-30"/>
			<line class="st1" x1="91.8" y1="-20.7" x2="103.6" y2="-32.4"/>
			<line class="st1" x1="89.4" y1="-23.1" x2="101.2" y2="-34.8"/>
			<line class="st1" x1="78.6" y1="-16.2" x2="89.7" y2="-5.1"/>
			<line class="st1" x1="81" y1="-18.6" x2="92.3" y2="-7.3"/>
			<line class="st1" x1="83.5" y1="-21" x2="94.8" y2="-9.7"/>
			<line class="st1" x1="85.7" y1="-23.2" x2="97" y2="-11.9"/>
		</g>
		<g>
			<line class="st1" x1="5" y1="-83.6" x2="16.8" y2="-95.4"/>
			<line class="st1" x1="2.6" y1="-86" x2="14.4" y2="-97.8"/>
			<line class="st1" x1="0.2" y1="-88.5" x2="11.9" y2="-100.2"/>
			<line class="st1" x1="5.9" y1="-60.9" x2="17.7" y2="-72.7"/>
			<line class="st1" x1="3.5" y1="-63.3" x2="15.3" y2="-75.1"/>
			<line class="st1" x1="1" y1="-65.7" x2="12.8" y2="-77.4"/>
			<line class="st1" x1="6" y1="-38.1" x2="17.8" y2="-49.9"/>
			<line class="st1" x1="3.6" y1="-40.6" x2="15.4" y2="-52.3"/>
			<line class="st1" x1="1.2" y1="-43" x2="12.9" y2="-54.7"/>
			<line class="st1" x1="6" y1="-15.8" x2="17.8" y2="-27.6"/>
			<line class="st1" x1="3.6" y1="-18.2" x2="15.3" y2="-30"/>
			<line class="st1" x1="1.1" y1="-20.7" x2="12.9" y2="-32.4"/>
		</g>
		<g>
			<line class="st1" x1="100.4" y1="-106.2" x2="111.5" y2="-95.1"/>
		</g>
		<g>
			<line class="st1" x1="9.7" y1="-106.2" x2="20.8" y2="-95.1"/>
			<line class="st1" x1="12.1" y1="-108.6" x2="23.4" y2="-97.3"/>
			<line class="st1" x1="14.5" y1="-111" x2="25.9" y2="-99.7"/>
			<line class="st1" x1="17" y1="-113.4" x2="28.3" y2="-102.1"/>
			<line class="st1" x1="33.1" y1="-106.2" x2="44.2" y2="-95.1"/>
			<line class="st1" x1="35.6" y1="-108.6" x2="46.8" y2="-97.3"/>
			<line class="st1" x1="38" y1="-111" x2="49.3" y2="-99.7"/>
			<line class="st1" x1="40.4" y1="-113.5" x2="51.7" y2="-102.1"/>
			<line class="st1" x1="55.8" y1="-106.2" x2="66.9" y2="-95.1"/>
			<line class="st1" x1="58.2" y1="-108.6" x2="69.5" y2="-97.3"/>
			<line class="st1" x1="60.7" y1="-111" x2="72" y2="-99.7"/>
			<line class="st1" x1="63.1" y1="-113.5" x2="74.4" y2="-102.1"/>
			<line class="st1" x1="78.6" y1="-106.9" x2="89.7" y2="-95.8"/>
			<line class="st1" x1="81" y1="-109.3" x2="92.3" y2="-98"/>
			<line class="st1" x1="83.5" y1="-111.7" x2="94.8" y2="-100.4"/>
			<line class="st1" x1="85.7" y1="-113.9" x2="97" y2="-102.6"/>
		</g>
	</g>
</pattern>
<g>
	<g id="HATCH">
		<pattern  id="SVGID_1_" xlink:href="#Earth" patternTransform="matrix(1 0 0 1 181.1271 -151.2302)">
		</pattern>
		<polygon class="st2" points="81,194.4 81.5,184.7 148.7,184.7 149.1,194.2 		"/>
	</g>
	<g id="HATCH_1_">
		<pattern  id="SVGID_2_" xlink:href="#Earth" patternTransform="matrix(1 0 0 1 181.1271 -151.2302)">
		</pattern>
		<polygon class="st3" points="383.5,129.6 382.9,130.3 382.4,131 381.8,131.7 381.3,132.4 380.8,133.1 380.2,133.8 379.7,134.5 
			379.2,135.2 378.7,135.9 378.3,136.6 377.8,137.3 377.4,138 376.9,138.6 376.5,139.3 376,140 375.5,140.7 375,141.4 374.4,142.1 
			373.9,142.8 373.3,143.5 372.7,144.2 372,144.9 371.4,145.7 370.8,146.4 370.1,147.1 369.5,147.8 368.8,148.5 368.2,149.3 
			367.6,150 367,150.7 366.5,151.4 366,152.1 365.5,152.8 365.1,153.6 364.7,154.3 364.3,155 364,155.7 363.7,156.4 363.4,157.1 
			363.1,157.7 362.8,158.4 362.6,159 362.2,159.7 361.9,160.3 361.5,161 361.1,161.7 360.6,162.4 360,163.2 359.3,164.1 358.5,165 
			357.7,166 356.7,167.1 355.7,168.2 354.7,169.4 353.6,170.7 352.4,171.9 351.3,173.2 350.1,174.6 349,175.9 347.8,177.2 
			346.7,178.5 345.6,179.8 344.5,181 343.5,182.2 342.5,183.2 341.6,184.2 340.8,185.1 339.9,185.8 339.1,186.5 338.2,187.1 
			337.4,187.7 336.5,188.2 335.6,188.7 334.7,189.1 333.6,189.4 332.4,189.8 331.1,190 329.6,190.2 327.9,190.4 325.9,190.5 
			323.6,190.6 162.5,194.2 162.3,184.6 247,182.9 250.1,182.7 250.3,182.8 250.6,182.9 250.8,182.9 251.2,183 251.5,183 
			251.9,183.1 252.3,183.1 252.8,183.1 253.2,183.1 253.7,183.1 254.2,183.1 254.7,183.1 255.2,183.1 255.6,183.1 256.1,183.1 
			256.5,183 256.8,183 257.2,183 257.5,182.9 280.6,182 281.1,182 281.6,182 282.1,182 282.6,182 283,182 283.5,182 283.9,181.9 
			284.2,181.9 284.6,181.8 284.9,181.8 285.2,181.7 285.5,181.7 291.4,181.2 291.8,181.3 292.2,181.3 292.7,181.3 293.2,181.3 
			293.7,181.3 294.2,181.3 294.6,181.3 295.1,181.3 295.6,181.3 296,181.3 296.4,181.3 296.8,181.2 297.1,181.2 297.4,181.1 
			305.9,180.7 306.2,180.7 306.5,180.8 306.9,180.8 307.3,180.8 307.8,180.9 308.3,180.9 308.8,180.9 309.3,180.9 309.7,180.9 
			310.2,180.9 310.7,180.9 311.1,180.8 311.5,180.8 311.9,180.8 312.2,180.7 312.5,180.7 312.8,180.6 318.1,180.6 320.3,180.6 
			322.3,180.5 324,180.3 325.6,180.1 326.9,179.8 328.1,179.5 329.1,179.1 330.1,178.7 331,178.3 331.9,177.8 332.7,177.2 
			333.5,176.6 334.4,175.9 335.2,175.1 336.1,174.3 337,173.3 338,172.2 339,171.1 340.1,169.9 341.2,168.6 342.3,167.3 343.4,166 
			344.6,164.6 345.7,163.3 346.9,162 348,160.7 349.1,159.5 350.2,158.3 351.2,157.2 352.1,156.1 353,155.1 353.8,154.1 
			354.5,153.3 355,152.5 355.5,151.7 356,151.1 356.4,150.4 356.7,149.7 357,149.1 357.3,148.5 357.6,147.8 357.9,147.1 
			358.1,146.4 358.5,145.7 358.8,145 359.1,144.3 359.5,143.6 359.9,142.9 360.4,142.2 360.9,141.5 361.5,140.8 362.1,140 
			362.7,139.3 363.3,138.6 363.9,137.9 364.6,137.2 365.2,136.4 365.9,135.7 366.5,135 367.1,134.3 367.7,133.6 368.3,132.8 
			368.9,132.1 369.4,131.4 370,130.8 370.4,130.1 370.9,129.4 371.4,128.7 371.8,128 372.3,127.3 372.7,126.7 373.2,126 
			373.7,125.3 374.2,124.6 374.7,123.9 375.2,123.1 375.8,122.4 376.3,121.7 376.8,121 377.4,120.3 377.9,119.7 378.5,119 
			379,118.4 379.5,117.7 380.1,117 380.6,116.4 381.1,115.7 381.7,115 382.2,114.2 382.8,113.5 383.3,112.8 383.8,112 384.3,111.3 
			384.8,110.5 385.3,109.8 385.7,109.2 386.2,108.5 386.5,108 386.9,107.4 387.2,106.8 387.5,106.3 387.8,105.8 388.1,105.3 
			388.3,104.8 388.5,104.3 388.7,103.9 388.9,103.4 389.1,102.9 389.3,102.3 389.5,101.8 389.8,101.3 390.2,100.7 390.6,100.1 
			391.1,99.4 391.7,98.7 392.3,98 392.9,97.1 393.6,96.3 394.4,95.3 395.2,94.2 396,93.1 396.8,91.8 397.6,90.6 398.4,89.2 
			399.2,87.9 400,86.6 400.8,85.3 401.5,84.1 402.2,83 402.9,81.9 403.5,80.9 404,80 404.5,79.1 405,78.3 405.5,77.5 406,76.7 
			406.4,75.9 406.8,75.2 407.2,74.4 407.6,73.7 408,73.1 408.4,72.4 408.8,71.8 409.2,71.3 409.6,70.8 410.1,70.3 410.5,69.8 
			410.9,69.4 411.4,69.1 411.8,68.7 412.3,68.4 412.8,68 413.2,67.7 413.7,67.4 414.2,67.2 414.8,66.9 415.3,66.6 415.9,66.4 
			416.5,66.2 417.1,65.9 417.7,65.7 418.4,65.5 419.1,65.3 419.8,65.1 420.5,64.9 421.2,64.8 421.9,64.6 422.6,64.4 423.2,64.2 
			423.9,64.1 424.5,63.9 425.1,63.7 425.6,63.6 426.2,63.4 426.7,63.3 427.3,63.2 427.7,63.1 428.2,63 428.7,62.9 429.1,62.9 
			429.6,62.8 430,62.8 430.4,62.8 430.8,62.8 431.2,62.8 431.6,62.9 431.9,62.9 432.3,63 432.7,63.1 433.1,63.1 433.5,63.2 
			434,63.3 434.4,63.3 434.8,63.4 435.3,63.4 435.8,63.5 436.3,63.5 436.8,63.5 437.3,63.5 437.8,63.4 438.4,63.4 438.9,63.3 
			439.5,63.3 440.1,63.2 440.7,63.1 441.4,63 442,63 442.8,62.9 443.6,62.9 444.4,62.8 445.2,62.8 446.1,62.8 447,62.8 447.9,62.8 
			448.8,62.9 449.8,63 450.7,63 451.7,63.1 452.6,63.2 453.7,63.3 454.8,63.4 456,63.5 457.3,63.6 458.7,63.6 460.2,63.7 
			461.9,63.7 463.7,63.6 465.5,63.6 467.4,63.5 469.4,63.5 471.3,63.4 473.3,63.3 475.2,63.2 477.1,63.1 479,62.9 480.9,62.8 
			482.8,62.7 484.6,62.6 486.4,62.5 488.2,62.3 489.9,62.2 491.6,62.1 493.3,61.9 495,61.8 496.7,61.7 498.3,61.6 499.9,61.5 
			501.6,61.4 503.1,61.3 504.7,61.2 506.3,61.2 507.9,61.1 509.5,61 511.1,61 512.6,60.9 514.2,60.9 515.8,60.8 517.4,60.7 
			518.9,60.7 520.3,60.6 521.6,60.5 522.7,60.3 523.7,60.2 524.4,60 524.4,70.6 522.9,70.7 521.4,70.7 519.8,70.8 518.2,70.9 
			516.6,70.9 515,71 513.5,71 511.9,71.1 510.3,71.2 508.7,71.2 507.1,71.3 505.5,71.4 503.9,71.5 502.2,71.6 500.6,71.8 
			498.9,71.9 497.2,72 495.5,72.1 493.7,72.3 491.9,72.4 490.1,72.5 488.3,72.6 486.5,72.8 484.6,72.9 482.7,73 480.8,73.1 
			478.8,73.2 476.9,73.3 474.9,73.4 473,73.5 471.1,73.5 469.2,73.6 467.5,73.6 465.8,73.6 464.2,73.6 462.8,73.5 461.5,73.5 
			460.3,73.4 459.2,73.3 458.2,73.2 457.2,73.1 456.2,73 455.3,72.9 454.4,72.8 453.5,72.8 452.5,72.8 451.6,72.7 450.8,72.7 
			449.9,72.8 449.1,72.8 448.3,72.8 447.6,72.9 446.9,73 446.3,73.1 445.6,73.1 445,73.2 444.5,73.3 443.9,73.3 443.4,73.4 
			442.9,73.4 442.3,73.4 441.8,73.4 441.3,73.4 440.9,73.4 440.4,73.3 439.9,73.3 439.5,73.2 439.1,73.1 438.7,73.1 438.3,73 
			437.9,72.9 437.5,72.9 437.1,72.8 436.7,72.8 436.3,72.7 435.9,72.7 435.5,72.7 435.1,72.8 434.7,72.8 434.2,72.9 433.8,72.9 
			433.3,73 432.8,73.1 432.3,73.3 431.7,73.4 431.2,73.5 430.6,73.7 430,73.8 429.4,74 428.8,74.2 428.1,74.3 427.4,74.5 
			426.7,74.7 426,74.9 425.3,75.1 424.6,75.3 423.9,75.5 423.3,75.7 422.6,75.9 422,76.1 421.4,76.3 420.9,76.6 420.3,76.8 
			419.8,77.1 419.3,77.4 418.8,77.7 418.3,78 417.8,78.3 417.4,78.6 416.9,79 416.5,79.4 416,79.8 415.6,80.2 415.2,80.7 
			414.8,81.2 414.4,81.8 414,82.4 413.6,83 413.2,83.7 412.8,84.4 412.4,85.1 412,85.9 411.5,86.6 411.1,87.4 410.6,88.2 
			410.1,89.1 409.6,89.9 409,90.9 408.4,91.9 407.8,92.9 407.1,94.1 406.4,95.3 405.6,96.5 404.8,97.9 404,99.2 403.1,100.5 
			402.3,101.8 401.5,103 400.7,104.2 399.9,105.2 399.2,106.2 398.5,107.1 397.8,107.9 397.2,108.7 396.7,109.4 396.2,110 
			395.7,110.6 395.4,111.2 395.1,111.8 394.8,112.3 394.6,112.8 394.4,113.3 394.2,113.8 394,114.3 393.8,114.8 393.6,115.3 
			393.4,115.8 393.1,116.3 392.8,116.8 392.4,117.3 392.1,117.9 391.7,118.5 391.3,119.1 390.8,119.8 390.4,120.5 389.9,121.2 
			389.4,122 388.8,122.7 388.3,123.4 387.8,124.2 387.2,124.9 386.7,125.6 386.2,126.3 385.6,127 385.1,127.6 384.5,128.3 384,129 
					"/>
	</g>
</g>
<g>
	<g id="HATCH_8_">
		<polygon class="st4" points="289.1,170.1 279.2,171.1 261.8,172 247.8,173.3 247.8,172.8 247.8,171.9 247.9,170.9 247.9,170.6 
			248.6,170.5 249.3,170.5 249.9,170.5 250.7,170.5 251.4,170.4 252.2,170.4 253,170.3 253.8,170.3 254.6,170.3 255.5,170.2 
			256.3,170.2 257.2,170.1 258.1,170.1 258.9,170.1 259.8,170 260.7,170 261.6,169.9 262.4,169.8 263.3,169.8 264.1,169.7 
			265,169.6 265.9,169.6 266.7,169.5 267.6,169.4 268.5,169.3 269.4,169.3 270.3,169.2 271.2,169.1 272.1,169.1 273,169 
			273.8,168.9 274.7,168.9 275.6,168.8 276.5,168.7 277.4,168.7 278.3,168.6 279.2,168.5 280.1,168.5 281.1,168.4 282.1,168.3 
			283.2,168.2 284.3,168.2 285.4,168.1 286.6,168 287.7,167.9 288.8,167.8 289.9,167.7 291,167.6 292,167.5 292.9,167.4 
			293.8,167.4 294.7,167.3 295.5,167.2 296.3,167.1 297.1,167 297.8,166.9 298.6,166.8 299.3,166.7 300,166.6 300.6,166.5 
			301.2,166.4 301.8,166.2 302.2,166.1 311.9,166.1 311.9,153.5 317.3,153.2 318.4,166.7 316.5,167.2 316.1,169.1 302.6,169.3 		"/>
	</g>
	<g id="HATCH_9_">
		<polygon class="st4" points="308.2,123.5 308.3,123.8 308.4,124.1 308.5,124.4 308.6,124.6 308.8,124.9 308.9,125 308.6,125.1 
			308,125.5 307.6,125.8 307.3,126.2 307.1,126.7 307,127.2 306.9,127.8 306.9,128.4 306.8,129.2 306.8,130.3 306.9,132.1 
			306.9,133 302.1,133 302.3,132.8 302.4,132.6 302.5,132.5 302.6,132.3 302.6,132 302.7,131.8 302.8,131.5 302.8,131.3 302.9,131 
			302.9,130.7 302.9,130.4 303,130.1 303,129.8 303,129.5 303,129.1 303,128.8 303,128.5 303,128.2 303,127.9 303,127.6 
			302.9,127.3 302.9,126.9 302.9,126.6 302.9,126.3 302.9,126 302.8,125.7 302.8,125.5 302.8,125.2 302.8,124.9 302.8,124.6 
			302.7,124.4 302.7,124.1 302.7,123.9 302.7,123.6 302.7,123.3 302.7,123.1 302.7,122.8 302.6,122.6 302.6,122.3 302.6,122 
			302.6,121.7 302.5,121.5 302.5,121.2 302.5,121 302.5,120.7 302.5,120.5 302.4,120.3 302.4,120.1 302.4,119.9 302.4,119.7 
			302.3,119.5 302.3,119.3 302.3,119.2 302.2,119 302.2,118.9 302.1,118.8 302,118.7 301.9,118.6 301.8,118.5 301.7,118.5 
			301.6,118.4 301.6,118.4 302.6,118.1 303.5,118 304.3,117.8 305.1,117.7 305.8,117.5 306.5,117.4 307.1,117.2 307.3,117.1 
			307.4,117.4 307.5,117.9 307.6,118.3 307.7,118.8 307.7,119.3 307.8,119.8 307.8,120.3 307.9,120.8 307.9,121.3 307.9,121.7 
			308,122.1 308,122.5 308.1,122.9 308.1,123.2 		"/>
	</g>
	<g id="HATCH_10_">
		<polygon class="st4" points="260.9,175.6 260.9,176.1 260.9,176.6 260.8,177.1 260.8,177.5 260.7,178 260.7,178.4 260.6,178.8 
			260.5,179.1 260.4,179.5 260.4,179.8 260.2,180.1 260.1,180.3 260,180.6 259.9,180.8 259.7,181 259.6,181.1 259.4,181.2 
			259.2,181.3 259,181.4 259,181.4 258.7,181.4 258.2,181.4 257.8,181.3 257.5,181.3 257.3,181.2 257.1,181.1 256.9,181 
			256.7,180.9 256.5,180.7 256.4,180.6 256.3,180.4 256.1,180.2 256,179.9 255.9,179.7 255.8,179.4 255.7,179.1 255.6,178.8 
			255.5,178.5 255.4,178.1 255.3,177.7 255.2,177.3 255.1,176.8 255,176.2 255,175.6 254.9,175 254.9,174.2 254.8,173.4 
			254.8,172.6 261.1,172.1 261.1,172.1 261.1,172.9 261.1,173.5 261,174.1 261,174.6 		"/>
	</g>
	<g id="HATCH_11_">
		<polygon class="st4" points="282.2,172.2 282.2,171.3 282.2,170.8 287.8,170.3 287.7,171 287.7,172.1 287.8,173.4 288,174.8 
			288.2,176.2 288.2,176.4 288.1,176.8 288.1,177.3 288,177.7 287.9,178 287.8,178.4 287.8,178.7 287.6,179 287.5,179.2 
			287.4,179.5 287.3,179.7 287.1,179.8 287,180 286.8,180.1 286.6,180.2 286.4,180.3 286.4,180.3 286.1,180.3 285.6,180.2 
			285.2,180.2 284.9,180.1 284.7,180.1 284.5,180 284.3,179.9 284.1,179.8 284,179.6 283.8,179.5 283.7,179.3 283.5,179 
			283.4,178.8 283.3,178.5 283.2,178.3 283.1,178 283,177.7 282.9,177.3 282.8,177 282.7,176.6 282.6,176.1 282.5,175.7 
			282.4,175.1 282.4,174.5 282.3,173.9 282.3,173.1 		"/>
	</g>
</g>
<g id="LINE_2_">
	<line class="st5" x1="479.2" y1="61.6" x2="480.9" y2="61.6"/>
</g>
<g id="LINE_1_">
	<g id="LINE_75_">
		<g>
			<g>
				<g>
					<line class="st6" x1="332.5" y1="179.6" x2="338.5" y2="179.6"/>
					<line class="st6" x1="344.4" y1="179.6" x2="344.4" y2="179.6"/>
					<line class="st7" x1="344.4" y1="179.6" x2="487.5" y2="179.6"/>
					<line class="st6" x1="487.5" y1="179.6" x2="493.5" y2="179.6"/>
				</g>
			</g>
		</g>
	</g>
</g>
<g id="LINE_4_">
	<g>
		<line class="st8" x1="177.4" y1="131.1" x2="177.4" y2="78.8"/>
	</g>
</g>
<g id="LINE_5_">
	<g>
		<line class="st8" x1="327.3" y1="102.7" x2="327.3" y2="46.8"/>
	</g>
</g>
<g id="LINE_6_">
	<g id="LINE_78_">
		<g>
			<g>
				<g>
					<g>
						<g>
							<line class="st8" x1="186.2" y1="85.1" x2="318.4" y2="85.1"/>
							<g>
								<polygon class="st9" points="188.2,88 177.4,85.1 188.2,82.2 								"/>
							</g>
							<g>
								<polygon class="st9" points="316.4,88 327.3,85.1 316.4,82.2 								"/>
							</g>
						</g>
					</g>
				</g>
			</g>
		</g>
	</g>
</g>
<g id="MTEXT">
	<g>
		<text transform="matrix(1 0 0 1 44.0889 137.0299)" class="st9 st10 st11">Door threshold</text>
	</g>
</g>
<g id="MTEXT_1_">
</g>
<g id="MTEXT_2_">
	<g>
		<text transform="matrix(1 0 0 1 189.3633 65.1761)"><tspan x="0" y="0" class="st9 st10 st11">Clear distance of not less</tspan><tspan x="44" y="14.4" class="st9 st10 st11">than 4 m</tspan></text>
	</g>
</g>
<g>
	<g id="MTEXT_3_">
		<g>
			<text transform="matrix(0 -1 1 0 454.2043 143.929)" class="st9 st10 st11">900 mm</text>
		</g>
	</g>
	<g id="MTEXT_4_">
		<g>
			<text transform="matrix(0 -1 1 0 436.0881 149.4134)" class="st9 st10 st11">More than </text>
		</g>
	</g>
</g>
<g id="MTEXT_6_">
	<text transform="matrix(0.9962 -8.716000e-02 8.716000e-02 0.9962 256.2624 157.8804)" class="st12 st11">FIRE</text>
</g>
<g id="LINE_8_">
	<g>
		<line class="st13" x1="154.2" y1="183.6" x2="154.2" y2="107.3"/>
	</g>
</g>
<g id="LINE_9_">
	<g>
		<line class="st13" x1="148.7" y1="178.2" x2="28.3" y2="178.2"/>
	</g>
</g>
<g id="LINE_11_">
	<g>
		<line class="st13" x1="154.2" y1="183.6" x2="28.3" y2="183.6"/>
	</g>
</g>
<g id="LINE_12_">
	<g>
		<line class="st13" x1="154.2" y1="184" x2="28.3" y2="184"/>
	</g>
</g>
<g id="LINE_13_">
	<g>
		<line class="st13" x1="148.7" y1="178.2" x2="148.7" y2="109.9"/>
	</g>
</g>
<g id="LINE_14_">
	<g>
		<line class="st13" x1="148.7" y1="109.9" x2="28.3" y2="109.9"/>
	</g>
</g>
<g id="LINE_15_">
	<g>
		<line class="st13" x1="75.4" y1="66.7" x2="75.4" y2="60.8"/>
	</g>
</g>
<g id="LINE_16_">
	<g>
		<line class="st13" x1="75.4" y1="60.8" x2="121.6" y2="65.1"/>
	</g>
</g>
<g id="LINE_17_">
	<g>
		<line class="st13" x1="148.7" y1="109.9" x2="75.4" y2="66.7"/>
	</g>
</g>
<g id="LINE_18_">
	<g>
		<line class="st13" x1="154.2" y1="107.3" x2="75.4" y2="60.8"/>
	</g>
</g>
<g id="LINE_19_">
	<g>
		<line class="st13" x1="154.2" y1="107.3" x2="200.4" y2="111.5"/>
	</g>
</g>
<g id="LINE_20_">
	<g>
		<line class="st13" x1="200.4" y1="111.5" x2="121.6" y2="65.1"/>
	</g>
</g>
<g id="LINE_21_">
	<g>
		<line class="st13" x1="75.4" y1="60.8" x2="28.3" y2="90"/>
	</g>
</g>
<g id="LINE_22_">
	<g>
		<line class="st13" x1="75.4" y1="66.7" x2="28.3" y2="95.9"/>
	</g>
</g>
<g id="LINE_23_">
	<g>
		<path class="st13" d="M200.4,178.2"/>
		<path class="st13" d="M177.4,178.2"/>
		<path class="st13" d="M163.8,178.2"/>
		<path class="st13" d="M154.2,178.2"/>
	</g>
</g>
<g id="LINE_3_">
	<g>
		<polyline class="st13" points="154.2,183.6 163.8,183.6 177.4,183.6 200.4,183.1 		"/>
	</g>
</g>
<g id="LINE_24_">
	<g>
		<line class="st13" x1="200.4" y1="111.5" x2="200.4" y2="183.6"/>
	</g>
</g>
<g id="LINE_25_">
	<g>
		<line class="st13" x1="163.8" y1="135.6" x2="163.8" y2="183.6"/>
	</g>
</g>
<g id="LINE_26_">
	<g>
		<line class="st13" x1="177.4" y1="136.8" x2="177.4" y2="183.6"/>
	</g>
</g>
<g id="LINE_27_">
	<g>
		<line class="st13" x1="173.9" y1="139.8" x2="173.9" y2="156"/>
	</g>
</g>
<g id="LINE_28_">
	<g>
		<line class="st13" x1="163.8" y1="135.6" x2="177.4" y2="136.8"/>
	</g>
</g>
<g id="LINE_29_">
	<g>
		<line class="st13" x1="163.8" y1="138.9" x2="173.9" y2="139.8"/>
	</g>
</g>
<g id="CIRCLE">
	<g>
		<path class="st13" d="M172.2,157.1c0-0.7,0.5-1.2,1.2-1.2s1.2,0.5,1.2,1.2c0,0.7-0.5,1.2-1.2,1.2S172.2,157.7,172.2,157.1
			L172.2,157.1z"/>
	</g>
</g>
<g id="LINE_30_">
	<g>
		<line class="st13" x1="173.9" y1="158.1" x2="173.9" y2="183.6"/>
	</g>
</g>
<g id="SPLINE">
	<g>
		<path class="st13" d="M233.3,144.9c4.8,0,4.9-0.2,5-0.7c0-0.5,0-1.4,0-2.7c0-1.3-0.1-3-0.1-4.7c-0.1-1.7-0.2-3.4-0.3-5.1
			s-0.3-3.4-0.4-4.4c-0.1-1-0.2-1.2-0.5-1.3c-0.2-0.2-0.6-0.3-1.1-0.3c-0.5,0-1,0-1.6-0.1c-0.6,0-1.4,0-1.8,0
			c-0.4,0.1-0.5,0.2-0.6,0.9c0,0.6,0,1.7,0,3.2c0,1.5,0.1,3.4,0.2,5.3c0,1.9,0.1,3.8,0.1,5.4c0,1.5,0.1,2.6,0.2,3.3
			C232.6,144.3,232.8,144.6,233.3,144.9z"/>
	</g>
</g>
<g id="SPLINE_1_">
	<g>
		<path class="st13" d="M247.8,143.8c16.8-1.7,25.1-2.2,31.2-2.5c6.1-0.3,10-0.6,12.5-0.8c2.5-0.2,3.7-0.5,4.5-0.7
			c0.7-0.3,1.1-0.6,1.2-1.1c0.2-0.4,0.2-1-0.1-4.5c-0.2-3.5-0.7-10.1-1.1-13.7c-0.4-3.6-0.6-4.1-0.9-4.6c-0.3-0.5-0.6-0.8-1.1-1
			c-0.5-0.2-1.1-0.3-2.1-0.3c-1,0-2.4,0-6.9,0.4c-4.5,0.4-12.1,1.2-17.8,2c-5.7,0.7-9.4,1.4-12.6,2.1c-3.2,0.7-5.9,1.3-7.5,1.8
			c-1.6,0.5-2.1,1-2.5,1.5c-0.4,0.5-0.7,1-0.9,1.6c-0.2,0.6-0.4,1.3-0.6,4.4c-0.1,3-0.2,8.4-0.2,11.3c0,2.9,0.1,3.4,0.2,3.7
			c0.2,0.3,0.4,0.5,0.8,0.6c0.4,0.1,1,0.1,1.6,0.2C246.3,143.9,246.9,143.9,247.8,143.8z"/>
	</g>
</g>
<g id="POLYLINE_10_">
	<g>
		<polyline class="st13" points="299,134.2 299.6,138.9 300,143.8 300,147.8 299.6,153.5 299.2,158.2 299,158.8 		"/>
	</g>
</g>
<g id="SPLINE_2_">
	<g>
		<path class="st13" d="M300.2,158.8c-2.9,0-4.7,0.2-6.5,0.3c-1.9,0.1-3.8,0.3-5.8,0.4c-2,0.1-4,0.3-6.5,0.5
			c-2.5,0.2-5.5,0.4-8.1,0.6c-2.6,0.2-5,0.4-7.3,0.6c-2.4,0.2-4.9,0.4-7.2,0.6c-2.3,0.2-4.5,0.3-6.6,0.4c-2.1,0.1-4,0.3-5.5,0.4
			c-1.5,0.1-2.6,0.1-3.5,0c-0.9,0-1.6-0.1-2.1-0.4c-0.5-0.3-0.8-0.8-1.1-1.6c-0.3-0.7-0.5-1.7-0.8-2.9c-0.2-1.2-0.5-2.6-0.6-4.2
			c-0.1-1.6-0.2-3.3-0.2-5.5c0-2.2,0-5,0-7.7c0.1-2.6,0.2-5.2,0.3-7.2c0.1-2,0.3-3.6,0.5-5.2c0.2-1.6,0.6-3.2,0.9-4.5
			c0.4-1.3,0.8-2.2,1.5-3.1c0.7-0.9,1.7-1.7,2.9-2.4c1.2-0.7,2.7-1.3,4.4-1.8c1.7-0.6,3.7-1.2,5.9-1.8c2.2-0.5,4.6-1,7.1-1.4
			c2.4-0.4,4.9-0.8,7.1-1.1c2.3-0.3,4.4-0.6,6.6-0.8c2.1-0.2,4.2-0.5,6.1-0.6c1.9-0.1,3.5-0.2,5.2-0.1c1.7,0,3.6,0.2,5.3,0.3
			c1.7,0.2,3.4,0.4,4.9,0.8c1.6,0.4,3,1,4.4,1.7c1.4,0.7,2.7,1.4,3.7,2.2c1,0.7,1.6,1.5,1.9,2.6c0.3,1.1,0.4,2.6,0.5,3.8
			c0.1,1.2,0.2,2.1,0.5,2.9c0.2,0.7,0.6,1.3,2.5,2.5"/>
	</g>
</g>
<g id="SPLINE_3_">
	<g>
		<path class="st13" d="M310.9,126.9c2.3,1.8,2.8,3.6,3.2,5.6c0.5,2,0.9,4.2,1.2,6.3c0.4,2.2,0.6,4.3,0.9,6.5
			c0.2,2.2,0.5,4.4,1.1,8.2"/>
	</g>
</g>
<g id="LINE_31_">
	<g>
		<line class="st13" x1="302" y1="133.5" x2="305" y2="161.4"/>
	</g>
</g>
<g id="LINE_32_">
	<g>
		<line class="st13" x1="303.1" y1="161.4" x2="307.8" y2="161.4"/>
	</g>
</g>
<g id="LINE_33_">
	<g>
		<line class="st13" x1="302.1" y1="133.4" x2="306.9" y2="133.4"/>
	</g>
</g>
<g id="POLYLINE_11_">
	<g>
		<polyline class="st13" points="287.6,102.5 287.4,105.3 287.2,110.3 		"/>
	</g>
</g>
<g id="POLYLINE_12_">
	<g>
		<polyline class="st13" points="243.2,162.6 243.3,163.5 243.4,164.3 243.5,164.9 243.6,165.4 243.8,165.8 244,166.1 244.2,166.3 
			244.4,166.5 244.6,166.7 244.9,166.9 245.1,167 245.4,167.2 245.7,167.3 246,167.4 246.3,167.5 246.6,167.5 247,167.6 
			247.4,167.7 247.7,167.7 248.1,167.8 248.6,167.8 249,167.8 249.4,167.8 249.8,167.9 250.2,167.9 250.6,167.9 251,167.9 
			251.4,167.9 251.8,167.8 252.1,167.8 252.5,167.7 252.8,167.7 253.1,167.6 253.3,167.5 253.6,167.4 253.8,167.3 254,167.1 
			254.1,167 254.3,166.8 254.4,166.6 254.5,166.4 254.6,166.1 254.7,165.9 254.8,165.6 254.9,165.3 254.9,165 254.9,164.7 
			255,164.4 255,164 255,163.6 255.1,163.2 255.1,162.6 255.1,162.1 255.1,162 		"/>
	</g>
</g>
<g id="POLYLINE_13_">
	<g>
		<polyline class="st13" points="300.2,158.8 300.9,159.2 301.5,159.6 302,160 302.4,160.4 302.7,160.7 302.9,161.1 303.1,161.4 
			303.3,161.8 303.4,162.1 303.5,162.4 303.6,162.8 303.7,163.1 303.8,163.4 303.8,163.7 303.9,164 303.9,164.3 303.9,164.6 
			303.9,164.8 303.8,165.1 303.7,165.4 303.5,165.6 303.3,165.8 303.1,166 302.7,166.2 302.3,166.4 301.8,166.6 301.2,166.7 
			300.6,166.8 300,167 299.3,167.1 298.6,167.2 297.8,167.3 297.1,167.4 296.3,167.5 295.5,167.5 294.7,167.6 293.8,167.7 
			292.9,167.8 292,167.9 291,168 289.9,168.1 288.8,168.2 287.7,168.2 286.6,168.3 285.4,168.4 284.3,168.5 283.2,168.6 
			282.1,168.7 281.1,168.8 280.1,168.8 279.2,168.9 278.3,169 277.4,169 276.5,169.1 275.6,169.2 274.7,169.2 273.8,169.3 
			273,169.4 272.1,169.4 271.2,169.5 270.3,169.6 269.4,169.6 268.5,169.7 267.6,169.8 266.7,169.8 265.9,169.9 265,170 
			264.1,170.1 263.3,170.1 262.4,170.2 261.6,170.3 260.7,170.3 259.8,170.4 258.9,170.4 258.1,170.5 257.2,170.5 256.3,170.5 
			255.5,170.6 254.6,170.6 253.8,170.7 253,170.7 252.2,170.7 251.4,170.8 250.7,170.8 249.9,170.9 249.3,170.9 248.6,170.9 
			248,170.9 247.4,170.9 246.9,170.9 246.3,170.9 245.9,170.9 245.4,170.9 245,170.8 244.6,170.8 244.2,170.7 243.8,170.7 
			243.4,170.7 243.1,170.6 242.7,170.5 242.4,170.5 242.1,170.4 241.8,170.3 241.6,170.1 241.4,170 241.2,169.8 241,169.7 
			240.8,169.5 240.7,169.3 240.6,169 240.4,168.8 240.3,168.6 240.2,168.4 240,168.1 239.9,167.9 239.8,167.7 239.7,167.5 
			239.6,167.2 239.5,167 239.4,166.8 239.4,166.5 239.3,166.3 239.3,166 239.2,165.8 239.2,165.5 239.2,165.3 239.2,165.1 
			239.2,164.8 239.2,164.6 239.2,164.4 239.2,164.2 239.2,164 239.2,163.8 239.2,163.7 239.2,163.5 239.2,163.4 239.3,163.3 
			239.4,163.1 239.5,163 239.7,162.8 240.1,162.6 240.5,162.3 241,162.1 		"/>
	</g>
</g>
<g id="POLYLINE_14_">
	<g>
		<polyline class="st13" points="293.8,159.1 293.8,160 293.7,161 293.6,161.8 293.5,162.4 293.3,162.9 293.2,163.3 293,163.6 
			292.8,163.8 292.5,164 292.3,164.2 292.1,164.4 291.8,164.5 291.6,164.6 291.3,164.8 291,164.9 290.7,164.9 290.4,165 290,165.1 
			289.6,165.2 289.2,165.2 288.8,165.2 288.4,165.3 288,165.3 287.6,165.3 287.2,165.4 286.8,165.4 286.3,165.4 285.9,165.4 
			285.6,165.4 285.2,165.3 284.8,165.3 284.5,165.2 284.2,165.2 283.9,165.1 283.6,165 283.4,164.9 283.2,164.8 283,164.6 
			282.8,164.4 282.7,164.3 282.5,164.1 282.4,163.9 282.3,163.6 282.2,163.4 282.2,163.1 282.1,162.8 282.1,162.5 282,162.2 
			282,161.9 282,161.5 281.9,161.1 281.9,160.6 281.9,160.1 281.9,160 		"/>
	</g>
</g>
<g id="POLYLINE_15_">
	<g>
		<polyline class="st13" points="287.8,170.6 287.7,171.3 287.7,172.1 287.7,172.8 287.8,173.5 287.8,174.1 287.9,174.6 288,175.2 
			288.1,175.7 288.1,176.2 288.2,176.6 288.3,177.1 288.4,177.5 288.5,177.9 288.6,178.2 288.7,178.5 288.8,178.8 288.9,179.1 
			289,179.3 289.2,179.5 289.3,179.7 289.4,179.9 289.6,180 289.8,180.1 290,180.2 290.2,180.3 290.5,180.4 290.8,180.4 
			291.1,180.5 291.4,180.5 291.8,180.5 292.2,180.5 292.7,180.6 293.2,180.6 293.7,180.6 294.2,180.6 294.6,180.6 295.1,180.6 
			295.6,180.6 296,180.6 296.4,180.5 296.8,180.5 297.1,180.4 297.4,180.4 297.7,180.3 298,180.3 298.3,180.2 298.5,180.1 
			298.7,180.1 299,180 299.1,179.9 299.3,179.8 299.5,179.7 299.7,179.5 299.8,179.3 299.9,179.1 300.1,178.9 300.2,178.7 
			300.3,178.4 300.4,178 300.5,177.7 300.5,177.3 300.6,176.9 300.7,176.5 300.7,176.1 300.8,175.6 300.8,175.2 300.8,174.7 
			300.9,174.2 300.9,173.7 300.9,173.2 301,172.6 301,172.1 301,171.4 301.1,170.7 301.1,169.8 301.1,169.8 		"/>
	</g>
</g>
<g id="POLYLINE_16_">
	<g>
		<polyline class="st13" points="254.8,173 254.8,173.7 254.9,174.6 254.9,175.3 255,176 255,176.6 255.1,177.1 255.2,177.6 
			255.3,178.1 255.4,178.5 255.5,178.8 255.6,179.1 255.7,179.5 255.8,179.7 255.9,180 256,180.3 256.1,180.5 256.3,180.7 
			256.4,180.9 256.5,181.1 256.7,181.3 256.9,181.4 257.1,181.5 257.3,181.6 257.5,181.6 257.8,181.7 258.2,181.7 258.7,181.8 
			259,181.8 		"/>
	</g>
</g>
<g id="POLYLINE_17_">
	<g>
		<polyline class="st13" points="282.2,171.2 282.2,171.6 282.2,172.6 282.3,173.5 282.3,174.2 282.4,174.9 282.4,175.5 282.5,176 
			282.6,176.5 282.7,176.9 282.8,177.3 282.9,177.7 283,178 283.1,178.3 283.2,178.6 283.3,178.9 283.4,179.2 283.5,179.4 
			283.7,179.6 283.8,179.8 284,180 284.1,180.1 284.3,180.3 284.5,180.4 284.7,180.4 284.9,180.5 285.2,180.6 285.6,180.6 
			286.1,180.6 286.4,180.7 		"/>
	</g>
</g>
<g id="POLYLINE_18_">
	<g>
		<polyline class="st13" points="294.7,170.2 294.7,171 294.7,171.9 294.8,172.8 294.8,173.5 294.9,174.2 295,174.8 295,175.3 
			295.1,175.8 295.2,176.3 295.3,176.7 295.4,177 295.5,177.4 295.6,177.7 295.7,178 295.8,178.2 295.9,178.5 296.1,178.7 
			296.2,178.9 296.3,179.1 296.5,179.3 296.6,179.5 296.8,179.6 297,179.7 297.2,179.8 297.5,179.8 297.8,179.9 298.1,179.9 
			298.6,180 298.9,180 		"/>
	</g>
</g>
<g id="POLYLINE_19_">
	<g>
		<polyline class="st13" points="275.2,171.7 275.2,172 275.2,172.8 275.2,173.5 275.3,174.2 275.3,174.7 275.4,175.3 275.5,175.8 
			275.5,176.4 275.6,176.8 275.7,177.3 275.8,177.7 275.9,178.2 276,178.5 276.1,178.9 276.2,179.2 276.3,179.5 276.4,179.8 
			276.5,180 276.6,180.2 276.8,180.4 276.9,180.5 277.1,180.7 277.3,180.8 277.5,180.9 277.7,181 278,181 278.2,181.1 278.6,181.1 
			278.9,181.2 279.3,181.2 279.7,181.2 280.2,181.2 280.6,181.3 281.1,181.3 281.6,181.3 282.1,181.3 282.6,181.3 283,181.2 
			283.5,181.2 283.9,181.2 284.2,181.2 284.6,181.1 284.9,181.1 285.2,181 285.5,180.9 285.7,180.9 286,180.8 286.2,180.7 
			286.4,180.7 286.6,180.6 286.8,180.5 287,180.3 287.1,180.2 287.3,180 287.4,179.8 287.5,179.6 287.6,179.3 287.8,179 
			287.8,178.7 287.9,178.4 288,178 288.1,177.6 288.1,177.2 288.2,176.8 288.2,176.5 		"/>
	</g>
</g>
<g id="LINE_34_">
	<g>
		<line class="st13" x1="302.2" y1="166.4" x2="311.9" y2="166.4"/>
	</g>
</g>
<g id="LINE_35_">
	<g>
		<line class="st13" x1="311.9" y1="166.4" x2="311.9" y2="153.9"/>
	</g>
</g>
<g id="LINE_36_">
	<g>
		<line class="st13" x1="311.9" y1="153.9" x2="317.3" y2="153.5"/>
	</g>
</g>
<g id="LINE_37_">
	<g>
		<line class="st13" x1="317.3" y1="153.5" x2="318.4" y2="167.1"/>
	</g>
</g>
<g id="LINE_38_">
	<g>
		<line class="st13" x1="318.4" y1="167.1" x2="316.5" y2="167.6"/>
	</g>
</g>
<g id="LINE_39_">
	<g>
		<line class="st13" x1="316.5" y1="167.6" x2="316.1" y2="169.4"/>
	</g>
</g>
<g id="LINE_40_">
	<g>
		<line class="st13" x1="316.1" y1="169.4" x2="302.6" y2="169.7"/>
	</g>
</g>
<g id="LINE_41_">
	<g>
		<line class="st13" x1="302.6" y1="169.7" x2="289.1" y2="170.5"/>
	</g>
</g>
<g id="LINE_42_">
	<g>
		<line class="st13" x1="289.1" y1="170.5" x2="279.2" y2="171.4"/>
	</g>
</g>
<g id="LINE_43_">
	<g>
		<line class="st13" x1="279.2" y1="171.4" x2="261.8" y2="172.4"/>
	</g>
</g>
<g id="LINE_44_">
	<g>
		<line class="st13" x1="261.8" y1="172.4" x2="247.8" y2="173.6"/>
	</g>
</g>
<g id="POLYLINE_20_">
	<g>
		<polyline class="st13" points="247.9,170.9 247.9,171.3 247.8,172.3 247.8,173.1 247.8,173.9 247.8,174.6 247.9,175.3 
			247.9,175.9 248,176.4 248.1,177 248.1,177.5 248.2,178 248.3,178.4 248.4,178.9 248.5,179.3 248.6,179.7 248.7,180 248.8,180.3 
			248.9,180.6 249,180.9 249.1,181.1 249.2,181.3 249.4,181.5 249.5,181.7 249.7,181.8 249.9,181.9 250.1,182 250.3,182.1 
			250.6,182.1 250.8,182.2 251.2,182.2 251.5,182.3 251.9,182.3 252.3,182.3 252.8,182.4 253.2,182.4 253.7,182.4 254.2,182.4 
			254.7,182.4 255.2,182.4 255.6,182.4 256.1,182.3 256.5,182.3 256.8,182.3 257.2,182.2 257.5,182.2 257.8,182.1 258.1,182.1 
			258.3,182 258.6,181.9 258.8,181.9 259,181.8 259.2,181.7 259.4,181.6 259.6,181.5 259.7,181.3 259.9,181.1 260,180.9 
			260.1,180.7 260.2,180.4 260.4,180.2 260.4,179.8 260.5,179.5 260.6,179.1 260.7,178.7 260.7,178.3 260.8,177.9 260.8,177.4 
			260.9,176.9 260.9,176.5 260.9,176 261,175.5 261,174.9 261,174.4 261.1,173.9 261.1,173.2 261.1,172.5 261.1,172.4 		"/>
	</g>
</g>
<g id="POLYLINE_21_">
	<g>
		<polyline class="st13" points="309.8,169.6 309.8,170.5 309.8,171.5 309.9,172.3 309.9,173.1 310,173.8 310.1,174.4 310.1,174.9 
			310.2,175.4 310.3,175.8 310.4,176.2 310.5,176.6 310.6,176.9 310.7,177.2 310.8,177.5 310.9,177.8 311,178 311.2,178.3 
			311.3,178.5 311.4,178.7 311.6,178.9 311.7,179 311.9,179.1 312.1,179.2 312.3,179.3 312.6,179.4 312.9,179.4 313.2,179.5 
			313.7,179.5 314,179.6 		"/>
	</g>
</g>
<g id="POLYLINE_22_">
	<g>
		<polyline class="st13" points="302.9,169.7 302.9,170 302.8,170.9 302.8,171.7 302.8,172.4 302.9,173 302.9,173.6 303,174.2 
			303.1,174.7 303.2,175.2 303.2,175.7 303.3,176.2 303.4,176.6 303.5,177 303.6,177.4 303.7,177.8 303.8,178.1 303.9,178.4 
			304,178.6 304.1,178.9 304.3,179.1 304.4,179.3 304.5,179.4 304.7,179.6 304.9,179.7 305.1,179.8 305.3,179.8 305.6,179.9 
			305.9,180 306.2,180 306.5,180 306.9,180.1 307.3,180.1 307.8,180.1 308.3,180.1 308.8,180.2 309.3,180.2 309.7,180.2 
			310.2,180.1 310.7,180.1 311.1,180.1 311.5,180.1 311.9,180 312.2,180 312.5,179.9 312.8,179.9 313.1,179.8 313.4,179.8 
			313.6,179.7 313.8,179.6 314.1,179.5 314.2,179.5 314.4,179.4 314.6,179.2 314.8,179.1 314.9,178.9 315,178.7 315.2,178.5 
			315.3,178.2 315.4,177.9 315.5,177.6 315.6,177.3 315.6,176.9 315.7,176.5 315.8,176.1 315.8,175.6 315.9,175.2 315.9,174.7 
			315.9,174.2 316,173.7 316,173.2 316,172.7 316.1,172.2 316.1,171.6 316.1,171 316.2,170.2 316.2,169.3 316.2,169.2 		"/>
	</g>
</g>
<g id="POLYLINE_23_">
	<g>
		<polyline class="st13" points="253.5,107.8 253.5,108.3 253.6,109.5 253.6,110.6 253.7,111.5 253.7,112.4 253.7,113.4 
			253.8,114.7 253.8,114.7 		"/>
	</g>
</g>
<g id="POLYLINE_24_">
	<g>
		<polyline class="st13" points="245.5,116.8 245.3,116.1 245.1,115.5 244.9,114.9 244.9,114.4 244.9,113.9 244.9,113.4 244.9,113 
			245,112.7 245,112.3 245,112 245.1,111.7 245.1,111.4 245.2,111.1 245.3,110.9 245.3,110.7 245.4,110.5 245.6,110.3 245.7,110.1 
			245.8,110 246,109.8 246.2,109.7 246.5,109.6 246.7,109.4 247,109.3 247.4,109.2 247.8,109.1 248.2,108.9 248.8,108.8 
			249.6,108.6 250.5,108.4 251.6,108.2 253,107.9 254.6,107.6 256.4,107.3 258.3,107 260.4,106.6 262.6,106.3 264.8,105.9 
			266.9,105.5 269.1,105.2 271.1,104.9 273.1,104.5 274.9,104.3 276.7,104 278.3,103.7 279.8,103.5 281.3,103.3 282.6,103.1 
			283.8,103 284.9,102.8 285.9,102.7 286.9,102.6 287.7,102.5 288.5,102.4 289.2,102.3 289.9,102.3 290.5,102.2 291.1,102.2 
			291.7,102.1 292.2,102.1 292.7,102.1 293.2,102.1 293.6,102.2 294,102.2 294.5,102.3 294.8,102.5 295.2,102.6 295.5,102.8 
			295.8,103 296.1,103.3 296.4,103.6 296.7,103.9 296.9,104.2 297.1,104.5 297.3,104.9 297.4,105.3 297.6,105.8 297.7,106.2 
			297.8,106.7 297.9,107.3 298,107.8 298.1,108.5 298.1,109.1 298.2,109.8 298.2,110.6 298.2,111.5 298.2,111.6 		"/>
	</g>
</g>
<g id="POLYLINE_25_">
	<g>
		<polyline class="st13" points="297.1,134.3 297.6,134.3 298.5,134.2 299.3,134.2 300,134.1 300.5,134 301,133.9 301.3,133.8 
			301.6,133.7 301.8,133.6 302,133.5 302.2,133.3 302.3,133.2 302.4,133 302.5,132.8 302.6,132.6 302.6,132.4 302.7,132.1 
			302.8,131.9 302.8,131.6 302.9,131.3 302.9,131 302.9,130.7 303,130.4 303,130.1 303,129.8 303,129.5 303,129.2 303,128.9 
			303,128.5 303,128.2 303,127.9 302.9,127.6 302.9,127.3 302.9,127 302.9,126.7 302.9,126.4 302.8,126.1 302.8,125.8 302.8,125.5 
			302.8,125.3 302.8,125 302.7,124.7 302.7,124.5 302.7,124.2 302.7,124 302.7,123.7 302.7,123.4 302.7,123.2 302.6,122.9 
			302.6,122.6 302.6,122.4 302.6,122.1 302.5,121.8 302.5,121.6 302.5,121.3 302.5,121.1 302.5,120.8 302.4,120.6 302.4,120.4 
			302.4,120.2 302.4,120 302.3,119.8 302.3,119.7 302.3,119.5 302.2,119.4 302.2,119.3 302.1,119.2 302,119.1 301.9,119 
			301.8,118.9 301.7,118.8 301.6,118.7 301.5,118.7 301.4,118.6 301.2,118.6 301.1,118.5 300.9,118.5 300.7,118.5 300.5,118.4 
			300.3,118.4 300.1,118.4 299.9,118.3 299.7,118.3 299.4,118.3 299.2,118.2 298.9,118.2 298.7,118.2 298.4,118.2 298.1,118.1 
			297.8,118.1 297.5,118.1 297.1,118.1 296.7,118.2 296.2,118.2 295.8,118.2 		"/>
	</g>
</g>
<g id="POLYLINE_26_">
	<g>
		<polyline class="st13" points="301.6,118.7 302.6,118.5 303.5,118.3 304.3,118.2 305.1,118 305.8,117.9 306.5,117.7 307.1,117.6 
			307.3,117.5 		"/>
	</g>
</g>
<g id="POLYLINE_27_">
	<g>
		<polyline class="st13" points="307.8,161.4 307.4,152 307.2,144.7 307,139.2 306.9,135.3 306.9,132.5 306.8,130.7 306.8,129.5 
			306.9,128.8 306.9,128.1 307,127.6 307.1,127.1 307.3,126.6 307.6,126.2 308,125.8 308.6,125.5 308.9,125.4 		"/>
	</g>
</g>
<g id="POLYLINE_28_">
	<g>
		<polyline class="st13" points="154.2,184 247,182.1 250.1,182 		"/>
	</g>
</g>
<g id="LINE_68_">
	<g>
		<line class="st13" x1="257.5" y1="182.2" x2="280.6" y2="181.3"/>
	</g>
</g>
<g id="LINE_69_">
	<g>
		<line class="st13" x1="285.5" y1="180.9" x2="291.4" y2="180.5"/>
	</g>
</g>
<g id="LINE_70_">
	<g>
		<line class="st13" x1="297.4" y1="180.4" x2="305.9" y2="180"/>
	</g>
</g>
<g id="LINE_71_">
	<g>
		<line class="st13" x1="318.1" y1="179.9" x2="312.8" y2="179.9"/>
	</g>
</g>
<g id="POLYLINE_3_">
	<g>
		<polyline class="st13" points="162.3,183.8 247,182.1 250.1,182 250.3,182.1 250.6,182.1 250.8,182.2 251.2,182.2 251.5,182.3 
			251.9,182.3 252.3,182.3 252.8,182.4 253.2,182.4 253.7,182.4 254.2,182.4 254.7,182.4 255.2,182.4 255.6,182.4 256.1,182.3 
			256.5,182.3 256.8,182.3 257.2,182.2 257.5,182.2 280.6,181.3 281.1,181.3 281.6,181.3 282.1,181.3 282.6,181.3 283,181.2 
			283.5,181.2 283.9,181.2 284.2,181.2 284.6,181.1 284.9,181.1 285.2,181 285.5,180.9 291.4,180.5 291.8,180.5 292.2,180.5 
			292.7,180.6 293.2,180.6 293.7,180.6 294.2,180.6 294.6,180.6 295.1,180.6 295.6,180.6 296,180.6 296.4,180.5 296.8,180.5 
			297.1,180.4 297.4,180.4 305.9,180 306.2,180 306.5,180 306.9,180.1 307.3,180.1 307.8,180.1 308.3,180.1 308.8,180.2 
			309.3,180.2 309.7,180.2 310.2,180.1 310.7,180.1 311.1,180.1 311.5,180.1 311.9,180 312.2,180 312.5,179.9 312.8,179.9 
			318.1,179.9 320.3,179.8 322.3,179.7 324,179.6 325.6,179.3 326.9,179.1 328.1,178.7 329.1,178.4 330.1,178 331,177.5 331.9,177 
			332.7,176.5 333.5,175.8 334.4,175.2 335.2,174.4 336.1,173.5 337,172.6 338,171.5 339,170.4 340.1,169.1 341.2,167.9 
			342.3,166.6 343.4,165.2 344.6,163.9 345.7,162.5 346.9,161.2 348,160 349.1,158.7 350.2,157.6 351.2,156.4 352.1,155.4 
			353,154.3 353.8,153.4 354.5,152.5 355,151.7 355.5,151 356,150.3 356.4,149.6 356.7,149 357,148.4 357.3,147.7 357.6,147.1 
			357.9,146.4 358.1,145.7 358.5,145 358.8,144.3 359.1,143.6 359.5,142.9 359.9,142.2 360.4,141.4 360.9,140.7 361.5,140 
			362.1,139.3 362.7,138.6 363.3,137.9 363.9,137.1 364.6,136.4 365.2,135.7 365.9,135 366.5,134.3 367.1,133.5 367.7,132.8 
			368.3,132.1 368.9,131.4 369.4,130.7 370,130 370.4,129.3 370.9,128.6 371.4,128 371.8,127.3 372.3,126.6 372.7,125.9 
			373.2,125.2 373.7,124.5 374.2,123.8 374.7,123.1 375.2,122.4 375.8,121.7 376.3,121 376.8,120.3 377.4,119.6 377.9,118.9 
			378.5,118.3 379,117.6 379.5,117 380.1,116.3 380.6,115.6 381.1,114.9 381.7,114.2 382.2,113.5 382.8,112.8 383.3,112 
			383.8,111.3 384.3,110.5 384.8,109.8 385.3,109.1 385.7,108.4 386.2,107.8 386.5,107.2 386.9,106.6 387.2,106.1 387.5,105.6 
			387.8,105.1 388.1,104.6 388.3,104.1 388.5,103.6 388.7,103.1 388.9,102.6 389.1,102.1 389.3,101.6 389.5,101.1 389.8,100.5 
			390.2,99.9 390.6,99.3 391.1,98.7 391.7,98 392.3,97.2 392.9,96.4 393.6,95.5 394.4,94.5 395.2,93.5 396,92.3 396.8,91.1 
			397.6,89.8 398.4,88.5 399.2,87.2 400,85.9 400.8,84.6 401.5,83.4 402.2,82.3 402.9,81.2 403.5,80.2 404,79.3 404.5,78.4 
			405,77.5 405.5,76.7 406,75.9 406.4,75.2 406.8,74.4 407.2,73.7 407.6,73 408,72.3 408.4,71.7 408.8,71.1 409.2,70.5 409.6,70 
			410.1,69.5 410.5,69.1 410.9,68.7 411.4,68.3 411.8,68 412.3,67.6 412.8,67.3 413.2,67 413.7,66.7 414.2,66.4 414.8,66.2 
			415.3,65.9 415.9,65.7 416.5,65.4 417.1,65.2 417.7,65 418.4,64.8 419.1,64.6 419.8,64.4 420.5,64.2 421.2,64 421.9,63.8 
			422.6,63.7 423.2,63.5 423.9,63.3 424.5,63.2 425.1,63 425.6,62.8 426.2,62.7 426.7,62.6 427.3,62.5 427.7,62.4 428.2,62.3 
			428.7,62.2 429.1,62.1 429.6,62.1 430,62.1 430.4,62.1 430.8,62.1 431.2,62.1 431.6,62.1 431.9,62.2 432.3,62.3 432.7,62.3 
			433.1,62.4 433.5,62.5 434,62.5 434.4,62.6 434.8,62.6 435.3,62.7 435.8,62.7 436.3,62.7 436.8,62.7 437.3,62.7 437.8,62.7 
			438.4,62.7 438.9,62.6 439.5,62.5 440.1,62.5 440.7,62.4 441.4,62.3 442,62.2 442.8,62.2 443.6,62.1 444.4,62.1 445.2,62.1 
			446.1,62.1 447,62.1 447.9,62.1 448.8,62.2 449.8,62.2 450.7,62.3 451.7,62.4 452.6,62.5 453.7,62.6 454.8,62.7 456,62.8 
			457.3,62.9 458.7,62.9 460.2,62.9 461.9,62.9 463.7,62.9 465.5,62.9 467.4,62.8 469.4,62.7 471.3,62.6 473.3,62.5 475.2,62.4 
			477.1,62.3 479,62.2 480.9,62.1 482.8,62 484.6,61.8 486.4,61.7 488.2,61.6 489.9,61.5 491.6,61.3 493.3,61.2 495,61.1 496.7,61 
			498.3,60.9 499.9,60.8 501.6,60.7 503.1,60.6 504.7,60.5 506.3,60.4 507.9,60.3 509.5,60.3 511.1,60.2 512.6,60.2 514.2,60.1 
			515.8,60.1 517.4,60 518.9,59.9 520.3,59.8 521.6,59.7 522.7,59.6 523.7,59.4 524.4,59.2 		"/>
	</g>
</g>
<g>
	<g>
		<g>
			<g>
				<line class="st8" x1="440.8" y1="170" x2="440.7" y2="71.2"/>
				<g>
					<polygon class="st9" points="443.7,168 440.8,178.8 437.8,168 					"/>
				</g>
				<g>
					<polygon class="st9" points="443.6,73.2 440.7,62.4 437.8,73.2 					"/>
				</g>
			</g>
		</g>
	</g>
</g>
<g>
	<g>
		<g>
			<g>
				<polyline class="st8" points="122.8,133.8 134.7,133.8 164.2,176.3 				"/>
				<g>
					<polygon class="st9" points="160.7,176.3 169.2,183.6 165.4,173 					"/>
				</g>
			</g>
		</g>
	</g>
</g>
<path class="st14" d="M103,159.6"/>
</svg>
