<?xml version="1.0" encoding="utf-8"?>
<!-- Generator: Adobe Illustrator 25.2.1, SVG Export Plug-In . SVG Version: 6.00 Build 0)  -->
<svg version="1.1" id="_x30_" xmlns="http://www.w3.org/2000/svg" xmlns:xlink="http://www.w3.org/1999/xlink" x="0px" y="0px"
	 viewBox="0 0 552.8 221.1" style="enable-background:new 0 0 552.8 221.1;" xml:space="preserve">
<style type="text/css">
	.st0{fill:none;stroke:#231F20;stroke-width:0.25;stroke-miterlimit:10;}
	.st1{fill:#231F20;}
	.st2{font-family:'ArialMT';}
	.st3{font-size:12px;}
	.st4{fill:none;stroke:#231F20;stroke-miterlimit:10;}
	.st5{fill:none;stroke:#231F20;stroke-miterlimit:10;stroke-dasharray:12.9445,12.9445;}
	.st6{fill:none;stroke:#231F20;stroke-miterlimit:10;stroke-dasharray:13.8637,13.8637;}
	.st7{fill:none;stroke:#231F20;stroke-miterlimit:10;stroke-dasharray:13.6955,13.6955;}
	.st8{fill:none;stroke:#231F20;stroke-miterlimit:10;stroke-dasharray:14.7159,14.7159;}
	.st9{fill:none;stroke:#231F20;stroke-miterlimit:10;stroke-dasharray:10.9109,10.9109;}
	.st10{fill:none;stroke:#231F20;stroke-miterlimit:10;stroke-dasharray:10.9111,10.9111;}
</style>
<g>
	<g>
		<polyline class="st0" points="209.3,135.1 209.3,149 370.3,149 370.3,135.1 		"/>
		<g>
			<polygon class="st1" points="206.4,137.1 209.3,126.2 212.2,137.1 			"/>
		</g>
		<g>
			<polygon class="st1" points="373.2,137.1 370.3,126.2 367.4,137.1 			"/>
		</g>
	</g>
</g>
<line class="st0" x1="289.6" y1="149" x2="289.6" y2="163.7"/>
<g id="MTEXT_1_">
	<g>
		<text transform="matrix(1 0 0 1 235.4302 174.8019)" class="st1 st2 st3">Not less than 900 mm</text>
	</g>
</g>
<g id="MTEXT_2_">
	<g>
		<text transform="matrix(1 0 0 1 313.1088 96.8664)" class="st1 st2 st3">10a</text>
	</g>
</g>
<g id="MTEXT_3_">
	<g>
		<text transform="matrix(1 0 0 1 448.897 79.8238)" class="st1 st2 st3">1</text>
	</g>
</g>
<g id="MTEXT_7_">
	<g>
		<text transform="matrix(1 0 0 1 103.8753 79.8238)" class="st1 st2 st3">1</text>
	</g>
</g>
<g id="POLYLINE_3_">
	<g>
		<rect x="27.3" y="40.4" class="st4" width="168.3" height="134.4"/>
	</g>
</g>
<g id="LINE_13_">
	<g>
		<line class="st4" x1="383.2" y1="40.4" x2="523.4" y2="40.4"/>
	</g>
</g>
<g id="LINE_14_">
	<g>
		<line class="st4" x1="523.4" y1="40.4" x2="523.4" y2="143.6"/>
	</g>
</g>
<g id="LINE_15_">
	<g>
		<line class="st4" x1="523.4" y1="143.6" x2="383.2" y2="143.6"/>
	</g>
</g>
<g id="LINE_16_">
	<g>
		<line class="st4" x1="383.2" y1="143.6" x2="383.2" y2="40.4"/>
	</g>
</g>
<g>
	<g id="LINE">
		<g id="LINE_40_">
			<g>
				<g>
					<g>
						<line class="st4" x1="73.1" y1="107.6" x2="79.1" y2="107.6"/>
						<line class="st5" x1="92.1" y1="107.6" x2="137.4" y2="107.6"/>
						<line class="st4" x1="143.8" y1="107.6" x2="149.8" y2="107.6"/>
					</g>
				</g>
			</g>
		</g>
	</g>
	<g id="LINE_1_">
		<g id="LINE_39_">
			<g>
				<g>
					<g>
						<line class="st4" x1="73.1" y1="107.6" x2="69.7" y2="102.6"/>
						<line class="st6" x1="61.9" y1="91.2" x2="34.6" y2="51.1"/>
						<line class="st4" x1="30.7" y1="45.3" x2="27.3" y2="40.4"/>
					</g>
				</g>
			</g>
		</g>
	</g>
	<g id="LINE_2_">
		<g id="LINE_38_">
			<g>
				<g>
					<g>
						<line class="st4" x1="73.1" y1="107.6" x2="69.8" y2="112.6"/>
						<line class="st7" x1="62.1" y1="123.9" x2="35.2" y2="163.6"/>
						<line class="st4" x1="31.4" y1="169.3" x2="28" y2="174.2"/>
					</g>
				</g>
			</g>
		</g>
	</g>
	<g id="LINE_3_">
		<g id="LINE_37_">
			<g>
				<g>
					<g>
						<line class="st4" x1="149.8" y1="107.6" x2="153.2" y2="102.6"/>
						<line class="st6" x1="161" y1="91.2" x2="188.3" y2="51.1"/>
						<line class="st4" x1="192.2" y1="45.3" x2="195.6" y2="40.4"/>
					</g>
				</g>
			</g>
		</g>
	</g>
	<g id="LINE_4_">
		<g id="LINE_36_">
			<g>
				<g>
					<g>
						<line class="st4" x1="149.8" y1="107.6" x2="153.2" y2="112.6"/>
						<line class="st7" x1="160.9" y1="123.9" x2="187.8" y2="163.6"/>
						<line class="st4" x1="191.6" y1="169.3" x2="195" y2="174.2"/>
					</g>
				</g>
			</g>
		</g>
	</g>
</g>
<g>
	<g id="LINE_5_">
		<g id="LINE_35_">
			<g>
				<g>
					<g>
						<line class="st4" x1="481.4" y1="92" x2="475.4" y2="92"/>
						<line class="st8" x1="460.7" y1="92" x2="438.6" y2="92"/>
						<line class="st4" x1="431.3" y1="92" x2="425.3" y2="92"/>
					</g>
				</g>
			</g>
		</g>
	</g>
	<g id="LINE_6_">
		<g id="LINE_34_">
			<g>
				<g>
					<g>
						<line class="st4" x1="523.4" y1="40.4" x2="519.6" y2="45"/>
						<line class="st9" x1="512.7" y1="53.5" x2="488.6" y2="83.1"/>
						<line class="st4" x1="485.2" y1="87.3" x2="481.4" y2="92"/>
					</g>
				</g>
			</g>
		</g>
	</g>
	<g id="LINE_7_">
		<g id="LINE_33_">
			<g>
				<g>
					<g>
						<line class="st4" x1="481.4" y1="92" x2="485.2" y2="96.6"/>
						<line class="st9" x1="492.1" y1="105.1" x2="516.2" y2="134.7"/>
						<line class="st4" x1="519.6" y1="139" x2="523.4" y2="143.6"/>
					</g>
				</g>
			</g>
		</g>
	</g>
	<g id="LINE_8_">
		<g id="LINE_32_">
			<g>
				<g>
					<g>
						<line class="st4" x1="383.2" y1="40.4" x2="387" y2="45"/>
						<line class="st10" x1="393.9" y1="53.5" x2="418" y2="83.1"/>
						<line class="st4" x1="421.5" y1="87.3" x2="425.3" y2="92"/>
					</g>
				</g>
			</g>
		</g>
	</g>
	<g id="LINE_9_">
		<g id="LINE_31_">
			<g>
				<g>
					<g>
						<line class="st4" x1="425.3" y1="92" x2="421.5" y2="96.6"/>
						<line class="st10" x1="414.6" y1="105.1" x2="390.5" y2="134.7"/>
						<line class="st4" x1="387" y1="139" x2="383.2" y2="143.6"/>
					</g>
				</g>
			</g>
		</g>
	</g>
</g>
<rect x="289.9" y="60.5" class="st4" width="66.4" height="66.4"/>
<g id="MTEXT_4_">
	<g>
		<text transform="matrix(1 0 0 1 246.6851 96.8664)" class="st1 st2 st3">10a</text>
	</g>
</g>
<rect x="223.5" y="60.5" class="st4" width="66.4" height="66.4"/>
</svg>
