<?xml version="1.0" encoding="utf-8"?>
<!-- Generator: Adobe Illustrator 25.2.1, SVG Export Plug-In . SVG Version: 6.00 Build 0)  -->
<svg version="1.1" id="_x30_" xmlns="http://www.w3.org/2000/svg" xmlns:xlink="http://www.w3.org/1999/xlink" x="0px" y="0px"
	 viewBox="0 0 552.8 210.5" style="enable-background:new 0 0 552.8 210.5;" xml:space="preserve">
<style type="text/css">
	.st0{font-family:'ArialMT';}
	.st1{font-size:15.0619px;}
	.st2{fill:#231F20;}
	.st3{font-family:'Arial-BoldMT';}
	.st4{font-size:12.3738px;}
	.st5{font-size:12px;}
	.st6{fill:none;stroke:#231F20;stroke-linecap:round;stroke-miterlimit:10;}
	.st7{fill:none;stroke:#231F20;stroke-width:0.75;stroke-miterlimit:10;}
	.st8{fill:none;stroke:#231F20;stroke-width:0.25;stroke-miterlimit:10;}
</style>
<g id="MTEXT">
</g>
<g id="MTEXT_1_">
	<text transform="matrix(1 0 0 1 296.9446 170.832)" class="st0 st1">          </text>
</g>
<g>
	<text transform="matrix(1 0 0 1 341.9771 151.7841)" class="st2 st3 st4">Note:</text>
</g>
<g>
	<text transform="matrix(1 0 0 1 377.3691 151.6253)"><tspan x="0" y="0" class="st2 st0 st5">End span is also the end of </tspan><tspan x="0" y="14.4" class="st2 st0 st5">sheets where they overlap </tspan><tspan x="0" y="28.8" class="st2 st0 st5">with an adjoining sheet.</tspan></text>
</g>
<g id="MTEXT_3_">
	<g>
		<text transform="matrix(1 0 0 1 28.3465 114.8559)" class="st2 st0 st5">End span</text>
	</g>
</g>
<g id="MTEXT_4_">
	<g>
		<text transform="matrix(1 0 0 1 279.1634 37.4921)" class="st2 st0 st5">End span</text>
	</g>
</g>
<g id="MTEXT_5_">
</g>
<g id="MTEXT_6_">
	<g>
		<text transform="matrix(1 0 0 1 28.3465 58.3897)"><tspan x="0" y="0" class="st2 st0 st5">Internal span (may be over one </tspan><tspan x="0" y="14.4" class="st2 st0 st5">or more support battens) </tspan></text>
	</g>
</g>
<g id="LINE_1_">
	<line class="st6" x1="383.9" y1="56.5" x2="451.7" y2="35.2"/>
</g>
<g>
	<g id="LINE_2_">
		<line class="st7" x1="401.4" y1="69.4" x2="408.5" y2="55.6"/>
	</g>
	<g id="LINE_3_">
		<line class="st7" x1="411.8" y1="66.1" x2="398.1" y2="58.9"/>
	</g>
	<g id="LINE_4_">
		<line class="st7" x1="319.6" y1="95.1" x2="326.7" y2="81.4"/>
	</g>
	<g id="LINE_5_">
		<line class="st7" x1="330" y1="91.8" x2="316.3" y2="84.6"/>
	</g>
	<g id="LINE_6_">
		<line class="st7" x1="241.9" y1="119.5" x2="249" y2="105.8"/>
	</g>
	<g id="LINE_7_">
		<line class="st7" x1="252.3" y1="116.3" x2="238.6" y2="109"/>
	</g>
	<g id="LINE_8_">
		<line class="st7" x1="169.1" y1="142.4" x2="176.2" y2="128.7"/>
	</g>
	<g id="LINE_9_">
		<line class="st7" x1="179.4" y1="139.1" x2="165.8" y2="131.9"/>
	</g>
	<g id="LINE_10_">
		<line class="st7" x1="96" y1="165.4" x2="103.1" y2="151.6"/>
	</g>
	<g id="LINE_11_">
		<line class="st7" x1="106.4" y1="162.1" x2="92.7" y2="154.9"/>
	</g>
</g>
<g id="LINE_12_">
	<g>
		<line class="st8" x1="100.5" y1="143.5" x2="96.2" y2="129.9"/>
	</g>
</g>
<g id="LINE_13_">
	<g>
		<line class="st8" x1="163.2" y1="123.8" x2="159" y2="110.2"/>
	</g>
</g>
<g id="LINE_14_">
	<g id="LINE_42_">
		<g>
			<g>
				<g>
					<line class="st8" x1="104.7" y1="133.9" x2="154.7" y2="118.3"/>
					<g>
						<polygon class="st2" points="106.8,135.6 98.4,135.9 105.5,131.4 						"/>
					</g>
					<g>
						<polygon class="st2" points="154,120.9 161.1,116.4 152.7,116.7 						"/>
					</g>
				</g>
			</g>
		</g>
	</g>
</g>
<g id="LINE_15_">
	<g>
		<line class="st8" x1="163.2" y1="123.8" x2="159" y2="110.2"/>
	</g>
</g>
<g id="LINE_16_">
	<g>
		<line class="st8" x1="324.1" y1="73.2" x2="319.9" y2="59.7"/>
	</g>
</g>
<g id="LINE_17_">
	<g id="LINE_39_">
		<g>
			<g>
				<g>
					<line class="st8" x1="167.4" y1="114.4" x2="314.5" y2="68.1"/>
					<g>
						<polygon class="st2" points="169.5,116 161.1,116.4 168.2,111.8 						"/>
					</g>
					<g>
						<polygon class="st2" points="313.8,70.7 320.9,66.2 312.5,66.5 						"/>
					</g>
				</g>
			</g>
		</g>
	</g>
</g>
<g id="LINE_18_">
	<g>
		<line class="st8" x1="324.1" y1="73.2" x2="319.9" y2="59.7"/>
	</g>
</g>
<g id="LINE_19_">
	<g>
		<line class="st8" x1="395.6" y1="50.8" x2="391.3" y2="37.2"/>
	</g>
</g>
<g id="LINE_20_">
	<g id="LINE_36_">
		<g>
			<g>
				<g>
					<line class="st8" x1="328.3" y1="63.7" x2="387.1" y2="45.2"/>
					<g>
						<polygon class="st2" points="330.4,65.3 322,65.7 329.1,61.2 						"/>
					</g>
					<g>
						<polygon class="st2" points="386.4,47.7 393.5,43.2 385,43.6 						"/>
					</g>
				</g>
			</g>
		</g>
	</g>
</g>
<g id="POLYLINE_6_">
	<g>
		<polyline class="st8" points="355.4,55.2 344.3,33.8 332.9,33.8 		"/>
	</g>
</g>
<g id="POLYLINE_8_">
	<g>
		<polyline class="st8" points="240.7,91.3 221.6,70.2 165.1,70.2 		"/>
	</g>
</g>
<g id="POLYLINE_10_">
	<g>
		<polyline class="st8" points="129.7,126.1 100.3,111.3 82.8,111.3 		"/>
	</g>
</g>
<g>
	<g id="LINE">
		<g>
			<line class="st6" x1="84.4" y1="157.5" x2="430.9" y2="48.6"/>
		</g>
	</g>
	<g id="LINE_23_">
		<g>
			<line class="st6" x1="401.4" y1="69.4" x2="398.1" y2="58.9"/>
		</g>
	</g>
	<g id="LINE_24_">
		<g>
			<line class="st6" x1="411.8" y1="66.1" x2="408.5" y2="55.6"/>
		</g>
	</g>
	<g id="LINE_27_">
		<g>
			<line class="st6" x1="319.6" y1="95.1" x2="316.3" y2="84.6"/>
		</g>
	</g>
	<g id="LINE_28_">
		<g>
			<line class="st6" x1="330" y1="91.8" x2="326.7" y2="81.4"/>
		</g>
	</g>
	<g id="LINE_29_">
		<g>
			<line class="st6" x1="241.9" y1="119.5" x2="238.6" y2="109"/>
		</g>
	</g>
	<g id="LINE_30_">
		<g>
			<line class="st6" x1="252.3" y1="116.3" x2="249" y2="105.8"/>
		</g>
	</g>
	<g id="LINE_31_">
		<g>
			<line class="st6" x1="169.1" y1="142.4" x2="165.8" y2="131.9"/>
		</g>
	</g>
	<g id="LINE_32_">
		<g>
			<line class="st6" x1="179.4" y1="139.1" x2="176.2" y2="128.7"/>
		</g>
	</g>
	<g id="LINE_33_">
		<g>
			<line class="st6" x1="96" y1="165.4" x2="92.7" y2="154.9"/>
		</g>
	</g>
	<g id="LINE_34_">
		<g>
			<line class="st6" x1="106.4" y1="162.1" x2="103.1" y2="151.6"/>
		</g>
	</g>
	<g id="LINE_22_">
		<g>
			<polyline class="st6" points="93.7,181.8 441.5,72.5 437,58.2 89.2,167.5 93.7,181.8 			"/>
		</g>
	</g>
</g>
</svg>
