<?xml version="1.0" encoding="utf-8"?>
<!-- Generator: Adobe Illustrator 25.2.1, SVG Export Plug-In . SVG Version: 6.00 Build 0)  -->
<svg version="1.1" id="_x30_" xmlns="http://www.w3.org/2000/svg" xmlns:xlink="http://www.w3.org/1999/xlink" x="0px" y="0px"
	 viewBox="0 0 552.8 205.8" style="enable-background:new 0 0 552.8 205.8;" xml:space="preserve">
<style type="text/css">
	.st0{fill-rule:evenodd;clip-rule:evenodd;fill:none;}
	.st1{clip-path:url(#SVGID_2_);fill:none;stroke:#221F1F;stroke-width:0.5;stroke-linejoin:round;}
	.st2{fill:#231F20;}
	.st3{font-family:'ArialMT';}
	.st4{font-size:12px;}
	.st5{fill:none;stroke:#231F20;stroke-linecap:round;stroke-miterlimit:10;}
	.st6{fill:none;stroke:#231F20;stroke-linecap:round;stroke-miterlimit:10;stroke-dasharray:10.4962,10.4962;}
	.st7{fill:none;stroke:#231F20;stroke-linecap:round;stroke-miterlimit:10;stroke-dasharray:11.2277,11.2277;}
	.st8{fill:none;stroke:#231F20;stroke-linecap:round;stroke-miterlimit:10;stroke-dasharray:11.0938,11.0938;}
	.st9{fill:none;stroke:#231F20;stroke-linecap:round;stroke-miterlimit:10;stroke-dasharray:10.1107,10.1107;}
	.st10{fill:none;stroke:#231F20;stroke-linecap:round;stroke-miterlimit:10;stroke-dasharray:12.429,12.429;}
	.st11{fill:none;stroke:#231F20;stroke-linecap:round;stroke-miterlimit:10;stroke-dasharray:12.4291,12.4291;}
	.st12{fill:none;stroke:#231F20;stroke-linecap:round;stroke-miterlimit:10;stroke-dasharray:12.4293,12.4293;}
	.st13{fill:none;stroke:#231F20;stroke-linecap:round;stroke-miterlimit:10;stroke-dasharray:12.4294,12.4294;}
	.st14{fill:none;}
	.st15{fill:url(#SVGID_3_);}
	.st16{fill:none;stroke:#000000;stroke-width:0.25;stroke-miterlimit:10;}
</style>
<pattern  y="528.1" width="72" height="72" patternUnits="userSpaceOnUse" id="diagonal_cross_hatch" viewBox="6.2 -86.2 72 72" style="overflow:visible;">
	<g>
		<rect x="6.2" y="-86.2" class="st0" width="72" height="72"/>
		<g>
			<defs>
				<rect id="SVGID_1_" x="6.2" y="-86.2" width="72" height="72"/>
			</defs>
			<clipPath id="SVGID_2_">
				<use xlink:href="#SVGID_1_"  style="overflow:visible;"/>
			</clipPath>
			<line class="st1" x1="0.2" y1="-74.2" x2="18.2" y2="-92.2"/>
			<line class="st1" x1="0.2" y1="-68.2" x2="24.2" y2="-92.2"/>
			<line class="st1" x1="0.2" y1="-62.2" x2="30.2" y2="-92.2"/>
			<line class="st1" x1="0.2" y1="-56.2" x2="36.2" y2="-92.2"/>
			<line class="st1" x1="0.2" y1="-50.2" x2="42.2" y2="-92.2"/>
			<line class="st1" x1="0.2" y1="-44.2" x2="48.2" y2="-92.2"/>
			<line class="st1" x1="0.2" y1="-38.2" x2="54.2" y2="-92.2"/>
			<line class="st1" x1="0.2" y1="-32.2" x2="60.2" y2="-92.2"/>
			<line class="st1" x1="0.2" y1="-26.2" x2="66.2" y2="-92.2"/>
			<line class="st1" x1="0.2" y1="-20.2" x2="72.2" y2="-92.2"/>
			<line class="st1" x1="0.2" y1="-14.2" x2="78.2" y2="-92.2"/>
			<line class="st1" x1="0.2" y1="-8.2" x2="84.2" y2="-92.2"/>
			<line class="st1" x1="6.2" y1="-8.2" x2="84.2" y2="-86.2"/>
			<line class="st1" x1="12.2" y1="-8.2" x2="84.2" y2="-80.2"/>
			<line class="st1" x1="18.2" y1="-8.2" x2="84.2" y2="-74.2"/>
			<line class="st1" x1="24.2" y1="-8.2" x2="84.2" y2="-68.2"/>
			<line class="st1" x1="30.2" y1="-8.2" x2="84.2" y2="-62.2"/>
			<line class="st1" x1="36.2" y1="-8.2" x2="84.2" y2="-56.2"/>
			<line class="st1" x1="42.2" y1="-8.2" x2="84.2" y2="-50.2"/>
			<line class="st1" x1="48.2" y1="-8.2" x2="84.2" y2="-44.2"/>
			<line class="st1" x1="54.2" y1="-8.2" x2="84.2" y2="-38.2"/>
			<line class="st1" x1="52.2" y1="-0.2" x2="94.2" y2="-42.2"/>
			<line class="st1" x1="58.2" y1="-0.2" x2="94.2" y2="-36.2"/>
			<line class="st1" x1="64.2" y1="-0.2" x2="94.2" y2="-30.2"/>
		</g>
	</g>
</pattern>
<g id="MTEXT">
	<g>
		<text transform="matrix(1 0 0 1 322.9512 90.0371)" class="st2 st3 st4">10a</text>
	</g>
</g>
<g id="MTEXT_1_">
	<g>
		<text transform="matrix(1 0 0 1 242.3145 90.0371)" class="st2 st3 st4">10a</text>
	</g>
</g>
<g id="MTEXT_2_">
	<g>
		<text transform="matrix(1 0 0 1 118.9801 72.0356)" class="st2 st3 st4">1</text>
	</g>
</g>
<g id="MTEXT_5_">
	<g>
		<text transform="matrix(1 0 0 1 443.0005 72.0355)" class="st2 st3 st4">1</text>
	</g>
</g>
<g>
	<g id="POLYLINE">
		<g>
			<rect x="28.3" y="27.1" class="st5" width="187.5" height="149.8"/>
		</g>
	</g>
	<g id="LINE_11_">
		<g>
			<line class="st5" x1="296.8" y1="43.6" x2="368.3" y2="43.6"/>
		</g>
	</g>
	<g id="LINE_12_">
		<g>
			<line class="st5" x1="296.8" y1="128.4" x2="296.8" y2="43.6"/>
		</g>
	</g>
	<g id="LINE_13_">
		<g>
			<line class="st5" x1="287.3" y1="128.4" x2="368.3" y2="128.4"/>
		</g>
	</g>
	<g id="LINE_16_">
		<g>
			<line class="st5" x1="287.3" y1="43.6" x2="296.8" y2="43.6"/>
		</g>
	</g>
	<g id="LINE_29_">
		<g>
			<line class="st5" x1="287.3" y1="128.4" x2="287.3" y2="43.6"/>
		</g>
	</g>
	<g id="LINE_30_">
		<g>
			<line class="st5" x1="215.8" y1="43.6" x2="287.3" y2="43.6"/>
		</g>
	</g>
	<g id="LINE_31_">
		<g>
			<line class="st5" x1="215.8" y1="128.4" x2="287.3" y2="128.4"/>
		</g>
	</g>
	<g id="LINE_32_">
		<g>
			<line class="st5" x1="287.3" y1="128.4" x2="287.3" y2="43.6"/>
		</g>
	</g>
	<g id="LINE_34_">
		<g>
			<line class="st5" x1="368.3" y1="27.1" x2="524.5" y2="27.1"/>
		</g>
	</g>
	<g id="LINE_35_">
		<g>
			<line class="st5" x1="524.5" y1="27.1" x2="524.5" y2="142.1"/>
		</g>
	</g>
	<g id="LINE_36_">
		<g>
			<line class="st5" x1="524.5" y1="142.1" x2="368.3" y2="142.1"/>
		</g>
	</g>
	<g id="LINE_37_">
		<g>
			<line class="st5" x1="368.3" y1="142.1" x2="368.3" y2="27.1"/>
		</g>
	</g>
</g>
<g>
	<g id="LINE">
		<g id="LINE_68_">
			<g>
				<g>
					<g>
						<line class="st5" x1="79.3" y1="102" x2="85.3" y2="102"/>
						<line class="st6" x1="95.8" y1="102" x2="153.6" y2="102"/>
						<line class="st5" x1="158.8" y1="102" x2="164.8" y2="102"/>
					</g>
				</g>
			</g>
		</g>
	</g>
	<g id="LINE_1_">
		<g id="LINE_67_">
			<g>
				<g>
					<g>
						<line class="st5" x1="79.3" y1="102" x2="76" y2="97.1"/>
						<line class="st7" x1="69.6" y1="87.8" x2="34.9" y2="36.7"/>
						<line class="st5" x1="31.7" y1="32.1" x2="28.3" y2="27.1"/>
					</g>
				</g>
			</g>
		</g>
	</g>
	<g id="LINE_2_">
		<g id="LINE_66_">
			<g>
				<g>
					<g>
						<line class="st5" x1="79.3" y1="102" x2="76" y2="107"/>
						<line class="st8" x1="69.8" y1="116.2" x2="35.5" y2="166.7"/>
						<line class="st5" x1="32.4" y1="171.3" x2="29.1" y2="176.3"/>
					</g>
				</g>
			</g>
		</g>
	</g>
	<g id="LINE_3_">
		<g id="LINE_65_">
			<g>
				<g>
					<g>
						<line class="st5" x1="164.8" y1="102" x2="168.2" y2="97.1"/>
						<line class="st7" x1="174.5" y1="87.8" x2="209.3" y2="36.7"/>
						<line class="st5" x1="212.4" y1="32.1" x2="215.8" y2="27.1"/>
					</g>
				</g>
			</g>
		</g>
	</g>
	<g id="LINE_4_">
		<g id="LINE_64_">
			<g>
				<g>
					<g>
						<line class="st5" x1="164.8" y1="102" x2="168.2" y2="107"/>
						<line class="st8" x1="174.4" y1="116.2" x2="208.6" y2="166.7"/>
						<line class="st5" x1="211.7" y1="171.3" x2="215.1" y2="176.3"/>
					</g>
				</g>
			</g>
		</g>
	</g>
</g>
<g>
	<g id="LINE_5_">
		<g id="LINE_63_">
			<g>
				<g>
					<g>
						<line class="st5" x1="477.7" y1="84.6" x2="471.7" y2="84.6"/>
						<line class="st9" x1="461.5" y1="84.6" x2="426.2" y2="84.6"/>
						<line class="st5" x1="421.1" y1="84.6" x2="415.1" y2="84.6"/>
					</g>
				</g>
			</g>
		</g>
	</g>
	<g id="LINE_6_">
		<g id="LINE_62_">
			<g>
				<g>
					<g>
						<line class="st5" x1="524.5" y1="27.1" x2="520.7" y2="31.8"/>
						<line class="st10" x1="512.8" y1="41.4" x2="485.4" y2="75.2"/>
						<line class="st5" x1="481.4" y1="80" x2="477.7" y2="84.6"/>
					</g>
				</g>
			</g>
		</g>
	</g>
	<g id="LINE_7_">
		<g id="LINE_61_">
			<g>
				<g>
					<g>
						<line class="st5" x1="477.7" y1="84.6" x2="481.4" y2="89.3"/>
						<line class="st11" x1="489.3" y1="98.9" x2="516.8" y2="132.7"/>
						<line class="st5" x1="520.7" y1="137.5" x2="524.5" y2="142.1"/>
					</g>
				</g>
			</g>
		</g>
	</g>
	<g id="LINE_8_">
		<g id="LINE_60_">
			<g>
				<g>
					<g>
						<line class="st5" x1="368.3" y1="27.1" x2="372.1" y2="31.8"/>
						<line class="st12" x1="379.9" y1="41.4" x2="407.4" y2="75.2"/>
						<line class="st5" x1="411.3" y1="80" x2="415.1" y2="84.6"/>
					</g>
				</g>
			</g>
		</g>
	</g>
	<g id="LINE_9_">
		<g id="LINE_59_">
			<g>
				<g>
					<g>
						<line class="st5" x1="415.1" y1="84.6" x2="411.3" y2="89.3"/>
						<line class="st13" x1="403.5" y1="98.9" x2="376" y2="132.7"/>
						<line class="st5" x1="372.1" y1="137.5" x2="368.3" y2="142.1"/>
					</g>
				</g>
			</g>
		</g>
	</g>
</g>
<rect x="246.4" y="165.4" class="st14" width="200" height="15.7"/>
<text transform="matrix(1 0 0 1 246.3967 174.009)" class="st3 st4">Wall with a FRL of 60/60/60</text>
<pattern  id="SVGID_3_" xlink:href="#diagonal_cross_hatch" patternTransform="matrix(1 0 0 1 192.0046 -27.2772)">
</pattern>
<rect x="287.3" y="43.6" class="st15" width="9.4" height="84.8"/>
<g>
	<line x1="292.1" y1="128.4" x2="292.1" y2="161.6"/>
	<g>
		<line class="st16" x1="292.1" y1="137.3" x2="292.1" y2="161.6"/>
		<g>
			<polygon points="289.1,139.3 292.1,128.4 295,139.3 			"/>
		</g>
	</g>
</g>
</svg>
