<?xml version="1.0" encoding="utf-8"?>
<!-- Generator: Adobe Illustrator 25.2.1, SVG Export Plug-In . SVG Version: 6.00 Build 0)  -->
<svg version="1.1" id="_x30_" xmlns="http://www.w3.org/2000/svg" xmlns:xlink="http://www.w3.org/1999/xlink" x="0px" y="0px"
	 viewBox="0 0 552.8 402.4" style="enable-background:new 0 0 552.8 402.4;" xml:space="preserve">
<style type="text/css">
	.st0{fill:#231F20;}
	.st1{font-family:'ArialMT';}
	.st2{font-size:12px;}
	.st3{fill:none;stroke:#231F20;stroke-width:0.25;stroke-miterlimit:10;}
	.st4{fill:none;stroke:#231F20;stroke-linecap:round;stroke-miterlimit:10;}
	.st5{fill:none;stroke:#231F20;stroke-linecap:round;stroke-miterlimit:10;stroke-dasharray:12.9223,12.9223,0,0;}
	.st6{fill:none;stroke:#231F20;stroke-linecap:round;stroke-miterlimit:10;stroke-dasharray:11.2716,11.2716,0,0;}
	.st7{fill:none;stroke:#231F20;stroke-linecap:round;stroke-miterlimit:10;stroke-dasharray:11.1437,11.1437,0,0;}
	.st8{fill:none;stroke:#231F20;stroke-linecap:round;stroke-miterlimit:10;stroke-dasharray:11.1436,11.1436,0,0;}
	.st9{fill:none;stroke:#231F20;stroke-width:0.5;stroke-miterlimit:10;}
	.st10{fill:none;stroke:#231F20;stroke-width:0.5;stroke-miterlimit:10;stroke-dasharray:25.451,11.1985;}
	.st11{fill:none;stroke:#231F20;stroke-width:0.5;stroke-miterlimit:10;stroke-dasharray:5.0902,11.1985,25.451,11.1985;}
	.st12{fill:none;}
</style>
<g id="MTEXT">
	<g>
		<text transform="matrix(1 0 0 1 435.6853 116.9378)" class="st0 st1 st2">10a</text>
	</g>
</g>
<g id="MTEXT_3_">
	<g>
		<text transform="matrix(1 0 0 1 167.7839 116.9378)" class="st0 st1 st2">1</text>
	</g>
</g>
<g id="MTEXT_1_">
	<g>
		<text transform="matrix(1 0 0 1 262.8424 326.0207)" class="st0 st1 st2">Not less than 900 mm</text>
	</g>
</g>
<g id="MTEXT_2_">
	<g>
		<text transform="matrix(1 0 0 1 394.1733 244.4995)" class="st0 st1 st2">Less than 900 mm</text>
	</g>
</g>
<g id="POLYLINE">
	<g id="POLYLINE_5_">
		<g>
			<g>
				<g>
					<g>
						<g>
							<line class="st3" x1="354.7" y1="171.7" x2="354.7" y2="314"/>
							<g>
								<polygon class="st0" points="351.8,173.6 354.7,162.8 357.6,173.6 								"/>
							</g>
						</g>
					</g>
				</g>
			</g>
		</g>
	</g>
</g>
<g>
	<g id="POLYLINE_4_">
		<g>
			<rect x="13.2" y="39.4" class="st4" width="309" height="246.9"/>
		</g>
	</g>
	<g id="LINE_6_">
		<g>
			<line class="st4" x1="505.4" y1="179.2" x2="505.4" y2="39.4"/>
		</g>
	</g>
	<g id="LINE_7_">
		<g>
			<line class="st4" x1="387.5" y1="39.4" x2="505.4" y2="39.4"/>
		</g>
	</g>
	<g id="LINE_8_">
		<g>
			<line class="st4" x1="387.5" y1="179.2" x2="387.5" y2="39.4"/>
		</g>
	</g>
	<g id="LINE_9_">
		<g>
			<line class="st4" x1="387.5" y1="179.2" x2="505.4" y2="179.2"/>
		</g>
	</g>
</g>
<g>
	<g id="LINE">
		<g id="LINE_19_">
			<g>
				<g>
					<g>
						<line class="st4" x1="97.3" y1="162.8" x2="103.9" y2="162.8"/>
						<line class="st5" x1="118" y1="162.8" x2="231.6" y2="162.8"/>
						<line class="st4" x1="231.6" y1="162.8" x2="238.2" y2="162.8"/>
					</g>
				</g>
			</g>
		</g>
	</g>
	<g id="LINE_1_">
		<g id="LINE_18_">
			<g>
				<g>
					<g>
						<line class="st4" x1="97.3" y1="162.8" x2="93.6" y2="157.3"/>
						<line class="st6" x1="86.6" y1="147.1" x2="16.9" y2="44.8"/>
						<line class="st4" x1="16.9" y1="44.8" x2="13.2" y2="39.4"/>
					</g>
				</g>
			</g>
		</g>
	</g>
	<g id="LINE_2_">
		<g id="LINE_17_">
			<g>
				<g>
					<g>
						<line class="st4" x1="97.3" y1="162.8" x2="93.6" y2="168.2"/>
						<line class="st7" x1="86.7" y1="178.4" x2="18.1" y2="279.7"/>
						<line class="st4" x1="18.1" y1="279.7" x2="14.4" y2="285.2"/>
					</g>
				</g>
			</g>
		</g>
	</g>
	<g id="LINE_3_">
		<g id="LINE_16_">
			<g>
				<g>
					<g>
						<line class="st4" x1="238.2" y1="162.8" x2="241.9" y2="157.3"/>
						<line class="st6" x1="248.8" y1="147.1" x2="318.5" y2="44.8"/>
						<line class="st4" x1="318.5" y1="44.8" x2="322.2" y2="39.4"/>
					</g>
				</g>
			</g>
		</g>
	</g>
	<g id="LINE_4_">
		<g id="LINE_15_">
			<g>
				<g>
					<g>
						<line class="st4" x1="238.2" y1="162.8" x2="241.9" y2="168.2"/>
						<line class="st8" x1="248.7" y1="178.4" x2="317.4" y2="279.7"/>
						<line class="st4" x1="317.4" y1="279.7" x2="321" y2="285.2"/>
					</g>
				</g>
			</g>
		</g>
	</g>
</g>
<g id="LINE_33_">
	<g>
		<g>
			<g>
				<line class="st9" x1="541" y1="401.7" x2="541" y2="398.6"/>
				<line class="st10" x1="541" y1="384.4" x2="541" y2="345.1"/>
				<line class="st11" x1="541" y1="338" x2="541" y2="10.2"/>
				<line class="st9" x1="541" y1="3.2" x2="541" y2="0"/>
			</g>
		</g>
	</g>
</g>
<rect x="329.9" y="360.3" class="st12" width="160.2" height="15.7"/>
<text transform="matrix(1 0 0 1 329.8628 368.9242)" class="st1 st2">Allotment boundary</text>
<g>
	<g>
		<line class="st3" x1="519.2" y1="186.5" x2="496.2" y2="240.4"/>
		<g>
			<polygon class="st0" points="515.7,187.2 522.7,178.4 521.1,189.5 			"/>
		</g>
	</g>
</g>
<g>
	<g>
		<line class="st3" x1="440" y1="368.2" x2="532.1" y2="368.2"/>
		<g>
			<polygon class="st0" points="530.2,371.1 541,368.2 530.2,365.3 			"/>
		</g>
	</g>
</g>
</svg>
