<?xml version="1.0" encoding="utf-8"?>
<!-- Generator: Adobe Illustrator 25.2.1, SVG Export Plug-In . SVG Version: 6.00 Build 0)  -->
<svg version="1.1" id="_x30_" xmlns="http://www.w3.org/2000/svg" xmlns:xlink="http://www.w3.org/1999/xlink" x="0px" y="0px"
	 viewBox="0 0 552.8 487" style="enable-background:new 0 0 552.8 487;" xml:space="preserve">
<style type="text/css">
	.st0{fill-rule:evenodd;clip-rule:evenodd;fill:none;}
	.st1{clip-path:url(#SVGID_2_);fill:none;stroke:#221F1F;stroke-width:0.5;stroke-linejoin:round;}
	.st2{fill-rule:evenodd;clip-rule:evenodd;fill:url(#SVGID_3_);}
	.st3{fill:none;stroke:#231F20;stroke-miterlimit:10;}
	.st4{fill:none;stroke:#231F20;stroke-miterlimit:10;stroke-dasharray:21.7709,9.5792;}
	.st5{fill:none;stroke:#231F20;stroke-miterlimit:10;stroke-dasharray:4.3542,9.5792,21.7709,9.5792;}
	.st6{fill:none;stroke:#231F20;stroke-width:0.75;stroke-miterlimit:10;}
	.st7{fill:none;stroke:#231F20;stroke-width:0.25;stroke-miterlimit:10;}
	.st8{fill:#231F20;}
	.st9{font-family:'ArialMT';}
	.st10{font-size:12px;}
	.st11{font-family:'Arial-ItalicMT';}
	.st12{font-size:13.6286px;}
	.st13{font-family:'Arial-BoldMT';}
	.st14{fill:none;stroke:#231F20;stroke-linecap:round;stroke-miterlimit:10;}
	.st15{fill:none;stroke:#231F20;stroke-linecap:round;stroke-linejoin:round;stroke-miterlimit:10;}
	.st16{fill:none;stroke:#231F20;stroke-width:0.75;stroke-linejoin:bevel;stroke-miterlimit:10;}
	.st17{fill:none;stroke:#231F20;stroke-width:0.75;stroke-linecap:round;stroke-miterlimit:10;}
</style>
<pattern  y="668.7" width="72" height="72" patternUnits="userSpaceOnUse" id="diagonal_cross_hatch" viewBox="6.2 -86.2 72 72" style="overflow:visible;">
	<g>
		<rect x="6.2" y="-86.2" class="st0" width="72" height="72"/>
		<g>
			<defs>
				<rect id="SVGID_1_" x="6.2" y="-86.2" width="72" height="72"/>
			</defs>
			<clipPath id="SVGID_2_">
				<use xlink:href="#SVGID_1_"  style="overflow:visible;"/>
			</clipPath>
			<line class="st1" x1="0.2" y1="-74.2" x2="18.2" y2="-92.2"/>
			<line class="st1" x1="0.2" y1="-68.2" x2="24.2" y2="-92.2"/>
			<line class="st1" x1="0.2" y1="-62.2" x2="30.2" y2="-92.2"/>
			<line class="st1" x1="0.2" y1="-56.2" x2="36.2" y2="-92.2"/>
			<line class="st1" x1="0.2" y1="-50.2" x2="42.2" y2="-92.2"/>
			<line class="st1" x1="0.2" y1="-44.2" x2="48.2" y2="-92.2"/>
			<line class="st1" x1="0.2" y1="-38.2" x2="54.2" y2="-92.2"/>
			<line class="st1" x1="0.2" y1="-32.2" x2="60.2" y2="-92.2"/>
			<line class="st1" x1="0.2" y1="-26.2" x2="66.2" y2="-92.2"/>
			<line class="st1" x1="0.2" y1="-20.2" x2="72.2" y2="-92.2"/>
			<line class="st1" x1="0.2" y1="-14.2" x2="78.2" y2="-92.2"/>
			<line class="st1" x1="0.2" y1="-8.2" x2="84.2" y2="-92.2"/>
			<line class="st1" x1="6.2" y1="-8.2" x2="84.2" y2="-86.2"/>
			<line class="st1" x1="12.2" y1="-8.2" x2="84.2" y2="-80.2"/>
			<line class="st1" x1="18.2" y1="-8.2" x2="84.2" y2="-74.2"/>
			<line class="st1" x1="24.2" y1="-8.2" x2="84.2" y2="-68.2"/>
			<line class="st1" x1="30.2" y1="-8.2" x2="84.2" y2="-62.2"/>
			<line class="st1" x1="36.2" y1="-8.2" x2="84.2" y2="-56.2"/>
			<line class="st1" x1="42.2" y1="-8.2" x2="84.2" y2="-50.2"/>
			<line class="st1" x1="48.2" y1="-8.2" x2="84.2" y2="-44.2"/>
			<line class="st1" x1="54.2" y1="-8.2" x2="84.2" y2="-38.2"/>
			<line class="st1" x1="52.2" y1="-0.2" x2="94.2" y2="-42.2"/>
			<line class="st1" x1="58.2" y1="-0.2" x2="94.2" y2="-36.2"/>
			<line class="st1" x1="64.2" y1="-0.2" x2="94.2" y2="-30.2"/>
		</g>
	</g>
</pattern>
<g id="HATCH">
	<pattern  id="SVGID_3_" xlink:href="#diagonal_cross_hatch" patternTransform="matrix(1 0 0 1 250.8136 -52.8786)">
	</pattern>
	<polygon class="st2" points="389.6,387 387.3,387 387.3,379.8 387.3,284.2 389.6,284.2 	"/>
</g>
<g id="LINE_32_">
	<g id="LINE_56_">
		<g>
			<g>
				<g>
					<line class="st3" x1="458.4" y1="202.3" x2="458.4" y2="199.8"/>
					<line class="st4" x1="458.4" y1="190.2" x2="458.4" y2="163.6"/>
					<line class="st5" x1="458.4" y1="158.8" x2="458.4" y2="73.1"/>
					<line class="st3" x1="458.4" y1="68.3" x2="458.4" y2="65.8"/>
				</g>
			</g>
		</g>
	</g>
</g>
<g>
	<g id="LINE_58_">
		<line class="st6" x1="146.6" y1="358.5" x2="139.7" y2="376.3"/>
	</g>
	<g id="LINE_59_">
		<line class="st6" x1="146.6" y1="376.3" x2="139.7" y2="358.5"/>
	</g>
</g>
<g>
	<g id="LINE_60_">
		<line class="st6" x1="146.6" y1="284.9" x2="139.7" y2="302.6"/>
	</g>
	<g id="LINE_61_">
		<line class="st6" x1="146.6" y1="302.6" x2="139.7" y2="284.9"/>
	</g>
</g>
<g>
	<g id="LINE_77_">
		<line class="st6" x1="360.5" y1="358.5" x2="367.4" y2="376.3"/>
	</g>
	<g id="LINE_78_">
		<line class="st6" x1="360.5" y1="376.3" x2="367.4" y2="358.5"/>
	</g>
</g>
<g>
	<g id="LINE_79_">
		<g>
			<line class="st6" x1="360.5" y1="284.9" x2="367.4" y2="302.6"/>
		</g>
	</g>
	<g id="LINE_80_">
		<g>
			<line class="st6" x1="360.5" y1="302.6" x2="367.4" y2="284.9"/>
		</g>
	</g>
</g>
<g>
	<g id="LINE_105_">
		<line class="st6" x1="375.5" y1="372.9" x2="387.5" y2="380.5"/>
	</g>
	<g id="LINE_106_">
		<line class="st6" x1="375.5" y1="380.5" x2="387.5" y2="372.9"/>
	</g>
</g>
<g>
	<g id="LINE_107_">
		<line class="st6" x1="375.5" y1="284.9" x2="387.5" y2="292.5"/>
	</g>
	<g id="LINE_108_">
		<line class="st6" x1="375.5" y1="292.5" x2="387.5" y2="284.9"/>
	</g>
</g>
<g>
	<g id="LINE_111_">
		<line class="st6" x1="118" y1="358.5" x2="111.2" y2="376.3"/>
	</g>
	<g id="LINE_112_">
		<line class="st6" x1="118" y1="376.3" x2="111.2" y2="358.5"/>
	</g>
</g>
<g>
	<g id="LINE_113_">
		<line class="st6" x1="118" y1="284.9" x2="111.2" y2="302.6"/>
	</g>
	<g id="LINE_114_">
		<line class="st6" x1="118" y1="302.6" x2="111.2" y2="284.9"/>
	</g>
</g>
<g>
	<g id="POLYLINE_2_">
		<g id="POLYLINE_14_">
			<g>
				<g>
					<g>
						<g>
							<g>
								<polyline class="st7" points="394.5,72.1 394.5,33.2 406.3,33.2 								"/>
								<g>
									<polygon class="st8" points="397.4,70.1 394.5,81 391.6,70.1 									"/>
								</g>
							</g>
						</g>
					</g>
				</g>
			</g>
		</g>
	</g>
	<g id="POLYLINE_4_">
		<g id="POLYLINE_12_">
			<g>
				<g>
					<g>
						<g>
							<g>
								<polyline class="st7" points="319.7,58.4 307.7,51.5 296.1,51.5 								"/>
								<g>
									<polygon class="st8" points="319.4,54.9 327.4,62.8 316.5,59.9 									"/>
								</g>
							</g>
						</g>
					</g>
				</g>
			</g>
		</g>
	</g>
	<g id="LINE_126_">
		<g id="LINE_54_">
			<g>
				<g>
					<g>
						<g>
							<g>
								<line class="st7" x1="399.9" y1="312.2" x2="427.4" y2="312.2"/>
								<g>
									<polygon class="st8" points="401.9,315.1 391,312.2 401.9,309.3 									"/>
								</g>
							</g>
						</g>
					</g>
				</g>
			</g>
		</g>
	</g>
	<g id="POLYLINE_7_">
		<g id="POLYLINE_10_">
			<g>
				<g>
					<g>
						<g>
							<g>
								<polyline class="st7" points="327.9,268.5 320.1,256 308.7,256 								"/>
								<g>
									<polygon class="st8" points="329.3,265.2 332.7,275.9 324.4,268.3 									"/>
								</g>
							</g>
						</g>
					</g>
				</g>
			</g>
		</g>
	</g>
	<g id="POLYLINE_9_">
		<g id="POLYLINE_8_">
			<g>
				<g>
					<g>
						<g>
							<g>
								<polyline class="st7" points="351.3,388.6 339.8,414.1 328,414.1 								"/>
								<g>
									<polygon class="st8" points="347.9,389.2 354.9,380.5 353.2,391.6 									"/>
								</g>
							</g>
						</g>
					</g>
				</g>
			</g>
		</g>
	</g>
	<g id="POLYLINE_11_">
		<g id="POLYLINE_6_">
			<g>
				<g>
					<g>
						<g>
							<g>
								<polyline class="st7" points="78.7,268.5 70.8,256 59.5,256 								"/>
								<g>
									<polygon class="st8" points="80.1,265.2 83.4,275.9 75.2,268.3 									"/>
								</g>
							</g>
						</g>
					</g>
				</g>
			</g>
		</g>
	</g>
	<g id="POLYLINE_13_">
		<g id="POLYLINE_5_">
			<g>
				<g>
					<g>
						<g>
							<g>
								<polyline class="st7" points="102.1,388.6 90.6,414.1 79.7,414.1 								"/>
								<g>
									<polygon class="st8" points="98.6,389.2 105.7,380.5 103.9,391.6 									"/>
								</g>
							</g>
						</g>
					</g>
				</g>
			</g>
		</g>
	</g>
	<g id="LINE_127_">
		<g id="LINE_55_">
			<g>
				<g>
					<g>
						<g>
							<g>
								<line class="st7" x1="141.1" y1="312.3" x2="163.3" y2="312.3"/>
								<g>
									<polygon class="st8" points="143.1,315.2 132.3,312.3 143.1,309.4 									"/>
								</g>
							</g>
						</g>
					</g>
				</g>
			</g>
		</g>
	</g>
</g>
<g id="MTEXT_1_">
	<g>
		<text transform="matrix(0 -1 1 0 473.001 183.0663)" class="st8 st9 st10">Boundary line</text>
	</g>
</g>
<g>
	<g id="MTEXT">
		<g>
			<text transform="matrix(1 0 0 1 202.9092 141.6176)" class="st8 st9 st10">Dwelling</text>
		</g>
	</g>
	<g id="MTEXT_3_">
		<g>
			<text transform="matrix(1 0 0 1 359.3984 152.9774)" class="st8 st9 st10">Carport</text>
		</g>
	</g>
</g>
<g id="MTEXT_4_">
</g>
<g>
	<g id="MTEXT_2_">
		<g>
			<text transform="matrix(1 0 0 1 194.0347 54.9838)" class="st8 st9 st10">Detail (see below)</text>
		</g>
	</g>
	<g id="MTEXT_5_">
		<g>
			<text transform="matrix(1 0 0 1 411.833 38.8114)"><tspan x="0" y="0" class="st8 st11 st10">Non-combustible </tspan><tspan x="0" y="14.4" class="st8 st9 st10">roof cladding</tspan></text>
		</g>
	</g>
</g>
<g id="MTEXT_6_">
	<g>
		<text transform="matrix(1 0 0 1 407.1289 405.1747)" class="st8 st9 st10">Carport</text>
	</g>
</g>
<g>
	<g id="MTEXT_7_">
		<g>
			<text transform="matrix(1 0 0 1 277.5986 259.2343)" class="st8 st9 st10">Roof</text>
		</g>
	</g>
	<g id="MTEXT_9_">
		<g>
			<text transform="matrix(1 0 0 1 277.9766 402.1991)"><tspan x="0" y="0" class="st8 st9 st10">Ceiling to </tspan><tspan x="0" y="14.4" class="st8 st9 st10">dwelling </tspan></text>
		</g>
	</g>
	<g id="MTEXT_11_">
		<g>
			<text transform="matrix(1 0 0 1 433.8525 317.2587)"><tspan x="0" y="0" class="st8 st11 st10">Non-combustible </tspan><tspan x="0" y="14.4" class="st8 st9 st10">lining</tspan></text>
		</g>
	</g>
</g>
<g id="MTEXT_12_">
	<g>
		<text transform="matrix(1 0 0 1 157.877 405.1747)" class="st8 st9 st10">Carport</text>
	</g>
</g>
<g id="MTEXT_14_">
</g>
<g id="MTEXT_16_">
</g>
<g id="MTEXT_17_">
	<text transform="matrix(0.98 0 0 1 233.563 332.9296)" class="st9 st12"> </text>
</g>
<g>
	<g id="MTEXT_13_">
		<g>
			<text transform="matrix(1 0 0 1 28.3462 259.2343)" class="st8 st9 st10">Roof</text>
		</g>
	</g>
	<g id="MTEXT_15_">
		<g>
			<text transform="matrix(1 0 0 1 28.7241 402.1991)"><tspan x="0" y="0" class="st8 st9 st10">Ceiling to </tspan><tspan x="0" y="14.4" class="st8 st9 st10">dwelling </tspan></text>
		</g>
	</g>
	<g id="MTEXT_18_">
		<g>
			<text transform="matrix(1 0 0 1 162.6519 317.4228)" class="st8 st9 st10"> </text>
			<text transform="matrix(1 0 0 1 168.6145 316.4228)"><tspan x="0" y="0" class="st8 st9 st10">Infill of  </tspan><tspan x="0" y="14.4" class="st8 st11 st10">non-combustible </tspan><tspan x="0" y="28.8" class="st8 st9 st10">material</tspan></text>
		</g>
	</g>
</g>
<g>
	<g id="MTEXT_19_">
		<g>
			<text transform="matrix(1 0 0 1 240.705 215.0951)" class="st8 st13 st10">(a) Elevation</text>
		</g>
	</g>
	<g id="MTEXT_20_">
		<g>
			<text transform="matrix(1 0 0 1 328.9527 454.5663)" class="st8 st13 st10">(c) Detail – option 2</text>
		</g>
	</g>
	<g id="MTEXT_21_">
		<g>
			<text transform="matrix(1 0 0 1 74.437 454.5663)" class="st8 st13 st10">(b) Detail – option 1</text>
		</g>
	</g>
</g>
<g>
	<g id="LINE_115_">
		<g>
			<line class="st14" x1="136.9" y1="182.5" x2="437.8" y2="182.5"/>
		</g>
	</g>
	<g id="LINE_116_">
		<g>
			<line class="st14" x1="105.4" y1="192.5" x2="136.9" y2="192.5"/>
		</g>
	</g>
	<g id="LINE_117_">
		<g>
			<line class="st14" x1="488.1" y1="192.5" x2="437.8" y2="192.5"/>
		</g>
	</g>
	<g id="LINE_128_">
		<g>
			<line class="st14" x1="206.2" y1="68.7" x2="368.5" y2="68.7"/>
		</g>
	</g>
	<g id="LINE_129_">
		<g>
			<line class="st14" x1="136.9" y1="101.4" x2="333.7" y2="101.4"/>
		</g>
	</g>
	<g id="LINE_130_">
		<g>
			<line class="st14" x1="136.9" y1="192.5" x2="136.9" y2="101.4"/>
		</g>
	</g>
	<g id="LINE_131_">
		<g>
			<line class="st14" x1="127.1" y1="106.1" x2="206.2" y2="68.7"/>
		</g>
	</g>
	<g id="LINE_132_">
		<g>
			<line class="st14" x1="136.9" y1="111.6" x2="127.1" y2="111.6"/>
		</g>
	</g>
	<g id="LINE_133_">
		<g>
			<line class="st14" x1="127.1" y1="111.6" x2="127.1" y2="106.1"/>
		</g>
	</g>
	<g id="LINE_134_">
		<g>
			<line class="st14" x1="437.8" y1="192.5" x2="437.8" y2="111.6"/>
		</g>
	</g>
	<g id="LINE_135_">
		<g>
			<line class="st14" x1="447.6" y1="106.1" x2="368.5" y2="68.7"/>
		</g>
	</g>
	<g id="LINE_136_">
		<g>
			<line class="st14" x1="437.8" y1="111.6" x2="447.6" y2="111.6"/>
		</g>
	</g>
	<g id="LINE_137_">
		<g>
			<line class="st14" x1="447.6" y1="111.6" x2="447.6" y2="106.1"/>
		</g>
	</g>
	<g id="LINE_138_">
		<g>
			<line class="st14" x1="333.7" y1="182.5" x2="333.7" y2="68.7"/>
		</g>
	</g>
	<g id="LINE_139_">
		<g>
			<line class="st14" x1="337.3" y1="182.5" x2="337.3" y2="68.7"/>
		</g>
	</g>
</g>
<g>
	<g id="POLYLINE">
		<polygon class="st15" points="389.8,387.7 387.5,387.7 387.5,380.5 387.5,284.9 389.8,284.9 		"/>
	</g>
	<g id="POLYLINE_1_">
		<polygon class="st15" points="389.8,387.7 387.5,387.7 387.5,380.5 387.5,284.9 389.8,284.9 		"/>
	</g>
	<g id="LINE_16_">
		<line class="st15" x1="440.3" y1="278.1" x2="442.8" y2="278.1"/>
	</g>
	<g id="LINE_17_">
		<line class="st15" x1="451.5" y1="278.1" x2="454" y2="278.1"/>
	</g>
	<g id="LINE_18_">
		<line class="st15" x1="462.8" y1="278.1" x2="465.2" y2="278.1"/>
	</g>
	<g id="LINE_19_">
		<line class="st15" x1="429.1" y1="278.1" x2="431.5" y2="278.1"/>
	</g>
	<g id="LINE_20_">
		<line class="st15" x1="417.9" y1="278.1" x2="420.3" y2="278.1"/>
	</g>
	<g id="LINE_21_">
		<line class="st15" x1="406.6" y1="278.1" x2="409.1" y2="278.1"/>
	</g>
	<g id="LINE_22_">
		<line class="st15" x1="395.4" y1="278.1" x2="397.9" y2="278.1"/>
	</g>
	<g id="LINE_23_">
		<line class="st15" x1="384.2" y1="278.1" x2="386.6" y2="278.1"/>
	</g>
	<g id="LINE_24_">
		<line class="st15" x1="373" y1="278.1" x2="375.4" y2="278.1"/>
	</g>
	<g id="LINE_25_">
		<line class="st15" x1="361.8" y1="278.1" x2="364.2" y2="278.1"/>
	</g>
	<g id="LINE_26_">
		<line class="st15" x1="350.5" y1="278.1" x2="353" y2="278.1"/>
	</g>
	<g id="LINE_27_">
		<line class="st15" x1="339.3" y1="278.1" x2="341.7" y2="278.1"/>
	</g>
	<g id="LINE_28_">
		<line class="st15" x1="328.1" y1="278.1" x2="330.5" y2="278.1"/>
	</g>
	<g id="LINE_29_">
		<line class="st15" x1="316.9" y1="278.1" x2="319.3" y2="278.1"/>
	</g>
	<g id="LINE_30_">
		<line class="st15" x1="305.6" y1="278.1" x2="308.1" y2="278.1"/>
	</g>
	<g id="LINE_31_">
		<line class="st15" x1="294.4" y1="278.1" x2="296.9" y2="278.1"/>
	</g>
	<g id="SPLINE_17_">
		<path class="st15" d="M462.8,278.1c-1.2-2.5-4.2-3.4-6.6-2.2c-0.9,0.5-1.7,1.2-2.2,2.2"/>
	</g>
	<g id="SPLINE_18_">
		<path class="st15" d="M451.5,278.1c-1.2-2.5-4.2-3.4-6.6-2.2c-0.9,0.5-1.7,1.2-2.2,2.2"/>
	</g>
	<g id="SPLINE_19_">
		<path class="st15" d="M440.3,278.1c-1.2-2.5-4.2-3.4-6.6-2.2c-0.9,0.5-1.7,1.2-2.2,2.2"/>
	</g>
	<g id="SPLINE_20_">
		<path class="st15" d="M429.1,278.1c-1.2-2.5-4.2-3.4-6.6-2.2c-0.9,0.5-1.7,1.2-2.2,2.2"/>
	</g>
	<g id="SPLINE_21_">
		<path class="st15" d="M417.9,278.1c-1.2-2.5-4.2-3.4-6.6-2.2c-0.9,0.5-1.7,1.2-2.2,2.2"/>
	</g>
	<g id="SPLINE_22_">
		<path class="st15" d="M406.6,278.1c-1.2-2.5-4.2-3.4-6.6-2.2c-0.9,0.5-1.7,1.2-2.2,2.2"/>
	</g>
	<g id="SPLINE_23_">
		<path class="st15" d="M395.4,278.1c-1.2-2.5-4.2-3.4-6.6-2.2c-0.9,0.5-1.7,1.2-2.2,2.2"/>
	</g>
	<g id="SPLINE_24_">
		<path class="st15" d="M384.2,278.1c-1.2-2.5-4.2-3.4-6.6-2.2c-0.9,0.5-1.7,1.2-2.2,2.2"/>
	</g>
	<g id="SPLINE_25_">
		<path class="st15" d="M373,278.1c-1.2-2.5-4.2-3.4-6.6-2.2c-0.9,0.5-1.7,1.2-2.2,2.2"/>
	</g>
	<g id="SPLINE_26_">
		<path class="st15" d="M361.8,278.1c-1.2-2.5-4.2-3.4-6.6-2.2c-0.9,0.5-1.7,1.2-2.2,2.2"/>
	</g>
	<g id="SPLINE_27_">
		<path class="st15" d="M350.5,278.1c-1.2-2.5-4.2-3.4-6.6-2.2c-0.9,0.5-1.7,1.2-2.2,2.2"/>
	</g>
	<g id="SPLINE_28_">
		<path class="st15" d="M339.3,278.1c-1.2-2.5-4.2-3.4-6.6-2.2c-0.9,0.5-1.7,1.2-2.2,2.2"/>
	</g>
	<g id="SPLINE_29_">
		<path class="st15" d="M328.1,278.1c-1.2-2.5-4.2-3.4-6.6-2.2c-0.9,0.5-1.7,1.2-2.2,2.2"/>
	</g>
	<g id="SPLINE_30_">
		<path class="st15" d="M316.9,278.1c-1.2-2.5-4.2-3.4-6.6-2.2c-0.9,0.5-1.7,1.2-2.2,2.2"/>
	</g>
	<g id="SPLINE_31_">
		<path class="st15" d="M305.6,278.1c-1.2-2.5-4.2-3.4-6.6-2.2c-0.9,0.5-1.7,1.2-2.2,2.2"/>
	</g>
	<g id="SPLINE_32_">
		<path class="st15" d="M294.4,278.1c-1.2-2.5-4.2-3.4-6.6-2.2c-0.1,0-0.1,0.1-0.2,0.1"/>
	</g>
	<g id="SPLINE_33_">
		<path class="st15" d="M468.1,275.6c-1.3,0.4-2.3,1.3-2.9,2.5"/>
	</g>
	<g id="LINE_81_">
		<line class="st15" x1="368.8" y1="393.5" x2="387.5" y2="393.5"/>
	</g>
	<g id="LINE_82_">
		<line class="st15" x1="368.8" y1="395" x2="387.5" y2="395"/>
	</g>
	<g id="LINE_83_">
		<line class="st15" x1="368.8" y1="408" x2="387.5" y2="408"/>
	</g>
	<g id="LINE_84_">
		<line class="st15" x1="368.8" y1="409.5" x2="387.5" y2="409.5"/>
	</g>
	<g id="LINE_123_">
		<line class="st15" x1="367.3" y1="378.3" x2="289.7" y2="378.3"/>
	</g>
	<g id="LINE_124_">
		<line class="st15" x1="367.3" y1="380.1" x2="284.2" y2="380.1"/>
	</g>
	<g id="LINE_125_">
		<line class="st15" x1="367.3" y1="380.1" x2="367.3" y2="378.3"/>
	</g>
	<g id="MTEXT_8_">
	</g>
	<g id="MTEXT_10_">
	</g>
	<g id="LINE_146_">
		<line class="st15" x1="287.6" y1="279" x2="468.1" y2="279"/>
	</g>
	<g id="LINE_147_">
		<line class="st15" x1="287.6" y1="284.9" x2="468.1" y2="284.9"/>
	</g>
	<g id="LINE_148_">
		<line class="st15" x1="368.8" y1="380.5" x2="368.8" y2="417"/>
	</g>
	<g id="LINE_149_">
		<line class="st15" x1="387.5" y1="417" x2="387.5" y2="380.5"/>
	</g>
	<g id="LINE_150_">
		<line class="st15" x1="360.5" y1="302.6" x2="367.4" y2="302.6"/>
	</g>
	<g id="LINE_151_">
		<line class="st15" x1="360.5" y1="302.6" x2="360.5" y2="284.9"/>
	</g>
	<g id="LINE_152_">
		<line class="st15" x1="367.4" y1="302.6" x2="367.4" y2="284.9"/>
	</g>
	<g id="POLYLINE_16_">
		<rect x="360.5" y="284.9" class="st15" width="6.9" height="17.7"/>
	</g>
	<g id="POLYLINE_17_">
		<rect x="360.5" y="358.5" class="st15" width="6.9" height="17.7"/>
	</g>
	<g id="LINE_153_">
		<line class="st15" x1="360.5" y1="358.5" x2="360.5" y2="302.6"/>
	</g>
	<g id="LINE_154_">
		<line class="st15" x1="367.4" y1="302.6" x2="367.4" y2="358.5"/>
	</g>
	<g id="LINE_155_">
		<line class="st15" x1="368.8" y1="380.5" x2="387.5" y2="380.5"/>
	</g>
	<g id="LINE_156_">
		<line class="st15" x1="387.5" y1="380.5" x2="387.5" y2="284.9"/>
	</g>
	<g id="LINE_157_">
		<line class="st15" x1="375.5" y1="380.5" x2="375.5" y2="372.9"/>
	</g>
	<g id="LINE_158_">
		<line class="st15" x1="375.5" y1="372.9" x2="387.5" y2="372.9"/>
	</g>
	<g id="LINE_159_">
		<line class="st15" x1="375.5" y1="292.5" x2="375.5" y2="284.9"/>
	</g>
	<g id="LINE_160_">
		<line class="st15" x1="375.5" y1="284.9" x2="387.5" y2="284.9"/>
	</g>
	<g id="LINE_161_">
		<line class="st15" x1="375.5" y1="292.5" x2="387.5" y2="292.5"/>
	</g>
	<g id="LINE_162_">
		<line class="st15" x1="375.5" y1="372.9" x2="375.5" y2="292.5"/>
	</g>
	<g id="LINE_163_">
		<path class="st15" d="M386.6,317.9"/>
		<path class="st15" d="M386.6,420.7"/>
	</g>
	<g id="LINE_164_">
		<line class="st15" x1="387.5" y1="387.7" x2="389.8" y2="387.7"/>
	</g>
</g>
<g>
	<g id="LINE_122_">
		<line class="st15" x1="118" y1="380.1" x2="118" y2="378.3"/>
	</g>
	<g>
		<g id="LINE_168_">
			<line class="st15" x1="146.6" y1="376.3" x2="139.7" y2="376.3"/>
		</g>
		<g>
			<g id="LINE">
				<line class="st15" x1="191.1" y1="278.1" x2="193.5" y2="278.1"/>
			</g>
			<g id="LINE_1_">
				<line class="st15" x1="202.3" y1="278.1" x2="204.7" y2="278.1"/>
			</g>
			<g id="LINE_2_">
				<line class="st15" x1="213.5" y1="278.1" x2="215.9" y2="278.1"/>
			</g>
			<g id="LINE_3_">
				<line class="st15" x1="179.8" y1="278.1" x2="182.3" y2="278.1"/>
			</g>
			<g id="LINE_4_">
				<line class="st15" x1="168.6" y1="278.1" x2="171.1" y2="278.1"/>
			</g>
			<g id="LINE_5_">
				<line class="st15" x1="157.4" y1="278.1" x2="159.8" y2="278.1"/>
			</g>
			<g id="LINE_6_">
				<line class="st15" x1="146.2" y1="278.1" x2="148.6" y2="278.1"/>
			</g>
			<g id="LINE_7_">
				<line class="st15" x1="134.9" y1="278.1" x2="137.4" y2="278.1"/>
			</g>
			<g id="LINE_8_">
				<line class="st15" x1="123.7" y1="278.1" x2="126.2" y2="278.1"/>
			</g>
			<g id="LINE_9_">
				<line class="st15" x1="112.5" y1="278.1" x2="114.9" y2="278.1"/>
			</g>
			<g id="LINE_10_">
				<line class="st15" x1="101.3" y1="278.1" x2="103.7" y2="278.1"/>
			</g>
			<g id="LINE_11_">
				<line class="st15" x1="90.1" y1="278.1" x2="92.5" y2="278.1"/>
			</g>
			<g id="LINE_12_">
				<line class="st15" x1="78.8" y1="278.1" x2="81.3" y2="278.1"/>
			</g>
			<g id="LINE_13_">
				<line class="st15" x1="67.6" y1="278.1" x2="70" y2="278.1"/>
			</g>
			<g id="LINE_14_">
				<line class="st15" x1="56.4" y1="278.1" x2="58.8" y2="278.1"/>
			</g>
			<g id="LINE_15_">
				<line class="st15" x1="45.2" y1="278.1" x2="47.6" y2="278.1"/>
			</g>
			<g id="SPLINE">
				<path class="st15" d="M213.5,278.1c-1.2-2.5-4.2-3.4-6.6-2.2c-0.9,0.5-1.7,1.2-2.2,2.2"/>
			</g>
			<g id="SPLINE_1_">
				<path class="st15" d="M202.3,278.1c-1.2-2.5-4.2-3.4-6.6-2.2c-0.9,0.5-1.7,1.2-2.2,2.2"/>
			</g>
			<g id="SPLINE_2_">
				<path class="st15" d="M191.1,278.1c-1.2-2.5-4.2-3.4-6.6-2.2c-0.9,0.5-1.7,1.2-2.2,2.2"/>
			</g>
			<g id="SPLINE_3_">
				<path class="st15" d="M179.8,278.1c-1.2-2.5-4.2-3.4-6.6-2.2c-0.9,0.5-1.7,1.2-2.2,2.2"/>
			</g>
			<g id="SPLINE_4_">
				<path class="st15" d="M168.6,278.1c-1.2-2.5-4.2-3.4-6.6-2.2c-0.9,0.5-1.7,1.2-2.2,2.2"/>
			</g>
			<g id="SPLINE_5_">
				<path class="st15" d="M157.4,278.1c-1.2-2.5-4.2-3.4-6.6-2.2c-0.9,0.5-1.7,1.2-2.2,2.2"/>
			</g>
			<g id="SPLINE_6_">
				<path class="st15" d="M146.2,278.1c-1.2-2.5-4.2-3.4-6.6-2.2c-0.9,0.5-1.7,1.2-2.2,2.2"/>
			</g>
			<g id="SPLINE_7_">
				<path class="st15" d="M134.9,278.1c-1.2-2.5-4.2-3.4-6.6-2.2c-0.9,0.5-1.7,1.2-2.2,2.2"/>
			</g>
			<g id="SPLINE_8_">
				<path class="st15" d="M123.7,278.1c-1.2-2.5-4.2-3.4-6.6-2.2c-0.9,0.5-1.7,1.2-2.2,2.2"/>
			</g>
			<g id="SPLINE_9_">
				<path class="st15" d="M112.5,278.1c-1.2-2.5-4.2-3.4-6.6-2.2c-0.9,0.5-1.7,1.2-2.2,2.2"/>
			</g>
			<g id="SPLINE_10_">
				<path class="st15" d="M101.3,278.1c-1.2-2.5-4.2-3.4-6.6-2.2c-0.9,0.5-1.7,1.2-2.2,2.2"/>
			</g>
			<g id="SPLINE_11_">
				<path class="st15" d="M90.1,278.1c-1.2-2.5-4.2-3.4-6.6-2.2c-0.9,0.5-1.7,1.2-2.2,2.2"/>
			</g>
			<g id="SPLINE_12_">
				<path class="st15" d="M78.8,278.1c-1.2-2.5-4.2-3.4-6.6-2.2c-0.9,0.5-1.7,1.2-2.2,2.2"/>
			</g>
			<g id="SPLINE_13_">
				<path class="st15" d="M67.6,278.1c-1.2-2.5-4.2-3.4-6.6-2.2c-0.9,0.5-1.7,1.2-2.2,2.2"/>
			</g>
			<g id="SPLINE_14_">
				<path class="st15" d="M56.4,278.1c-1.2-2.5-4.2-3.4-6.6-2.2c-0.9,0.5-1.7,1.2-2.2,2.2"/>
			</g>
			<g id="SPLINE_15_">
				<path class="st15" d="M45.2,278.1c-1.2-2.5-4.2-3.4-6.6-2.2c-0.1,0-0.1,0.1-0.2,0.1"/>
			</g>
			<g id="SPLINE_16_">
				<path class="st15" d="M218.8,275.6c-1.3,0.4-2.3,1.3-2.9,2.5"/>
			</g>
			<g id="LINE_33_">
				<line class="st15" x1="119.6" y1="335.6" x2="138.2" y2="335.6"/>
			</g>
			<g id="LINE_34_">
				<line class="st15" x1="119.6" y1="337" x2="138.2" y2="337"/>
			</g>
			<g id="LINE_35_">
				<line class="st15" x1="119.6" y1="321.1" x2="138.2" y2="321.1"/>
			</g>
			<g id="LINE_36_">
				<line class="st15" x1="119.6" y1="322.6" x2="138.2" y2="322.6"/>
			</g>
			<g id="LINE_37_">
				<line class="st15" x1="119.6" y1="306.6" x2="138.2" y2="306.6"/>
			</g>
			<g id="LINE_38_">
				<line class="st15" x1="119.6" y1="308.1" x2="138.2" y2="308.1"/>
			</g>
			<g id="LINE_39_">
				<line class="st15" x1="119.6" y1="292.1" x2="138.2" y2="292.1"/>
			</g>
			<g id="LINE_40_">
				<line class="st15" x1="119.6" y1="293.6" x2="138.2" y2="293.6"/>
			</g>
			<g id="LINE_41_">
				<line class="st15" x1="119.6" y1="350.1" x2="138.2" y2="350.1"/>
			</g>
			<g id="LINE_42_">
				<line class="st15" x1="119.6" y1="351.5" x2="138.2" y2="351.5"/>
			</g>
			<g id="LINE_43_">
				<line class="st15" x1="119.6" y1="364.6" x2="138.2" y2="364.6"/>
			</g>
			<g id="LINE_44_">
				<line class="st15" x1="119.6" y1="366" x2="138.2" y2="366"/>
			</g>
			<g id="LINE_45_">
				<line class="st15" x1="119.6" y1="379.1" x2="138.2" y2="379.1"/>
			</g>
			<g id="LINE_46_">
				<line class="st15" x1="119.6" y1="380.5" x2="138.2" y2="380.5"/>
			</g>
			<g id="LINE_47_">
				<line class="st15" x1="119.6" y1="393.5" x2="138.2" y2="393.5"/>
			</g>
			<g id="LINE_48_">
				<line class="st15" x1="119.6" y1="395" x2="138.2" y2="395"/>
			</g>
			<g id="LINE_49_">
				<line class="st15" x1="119.6" y1="408" x2="138.2" y2="408"/>
			</g>
			<g id="LINE_50_">
				<line class="st15" x1="119.6" y1="409.5" x2="138.2" y2="409.5"/>
			</g>
			<g id="LINE_120_">
				<line class="st15" x1="118" y1="378.3" x2="40.4" y2="378.3"/>
			</g>
			<g id="LINE_121_">
				<line class="st15" x1="118" y1="380.1" x2="34.2" y2="380.1"/>
			</g>
			<g id="LINE_140_">
				<line class="st15" x1="38.4" y1="279" x2="218.8" y2="279"/>
			</g>
			<g id="LINE_141_">
				<line class="st15" x1="38.4" y1="284.9" x2="218.8" y2="284.9"/>
			</g>
			<g id="LINE_142_">
				<line class="st15" x1="119.6" y1="417" x2="119.6" y2="375.6"/>
			</g>
			<g id="LINE_143_">
				<line class="st15" x1="119.6" y1="284.9" x2="119.6" y2="417"/>
			</g>
			<g id="LINE_144_">
				<line class="st15" x1="138.2" y1="417" x2="138.2" y2="284.9"/>
			</g>
			<g id="LINE_145_">
				<line class="st15" x1="146.6" y1="302.6" x2="139.7" y2="302.6"/>
			</g>
			<g id="LINE_165_">
				<line class="st15" x1="118" y1="376.3" x2="118" y2="284.9"/>
			</g>
			<g id="LINE_166_">
				<line class="st15" x1="139.7" y1="376.3" x2="139.7" y2="284.9"/>
			</g>
			<g id="LINE_167_">
				<line class="st15" x1="146.6" y1="376.3" x2="146.6" y2="284.9"/>
			</g>
			<g id="LINE_170_">
				<line class="st15" x1="139.7" y1="358.5" x2="146.6" y2="358.5"/>
			</g>
			<g id="LINE_172_">
				<line class="st15" x1="118" y1="302.6" x2="111.2" y2="302.6"/>
			</g>
			<g id="LINE_173_">
				<line class="st15" x1="111.2" y1="376.3" x2="111.2" y2="284.9"/>
			</g>
			<g id="LINE_174_">
				<line class="st15" x1="118" y1="376.3" x2="111.2" y2="376.3"/>
			</g>
			<g id="LINE_176_">
				<line class="st15" x1="111.2" y1="358.5" x2="118" y2="358.5"/>
			</g>
		</g>
	</g>
</g>
<g>
	<polyline class="st16" points="114.7,417.7 127.8,417.7 129.8,412.8 129.8,422.6 131.8,417.7 143.2,417.7 	"/>
	<polyline class="st16" points="218.7,274.9 218.7,280 223.6,282 213.8,282 218.7,284.1 218.7,289.4 	"/>
	<polyline class="st16" points="38.4,274.9 38.4,280 43.3,282 33.4,282 38.4,284.1 38.4,289.4 	"/>
	<polyline class="st16" points="35.7,371.2 35.7,376.3 40.6,378.4 30.8,378.4 35.7,380.4 35.7,385.7 	"/>
</g>
<g>
	<polyline class="st16" points="363.6,417.7 376.7,417.7 378.7,412.8 378.7,422.6 380.8,417.7 392.1,417.7 	"/>
	<polyline class="st16" points="287.4,274.9 287.4,280 292.3,282 282.4,282 287.4,284.1 287.4,289.4 	"/>
	<polyline class="st16" points="468.5,274.9 468.5,280 473.4,282 463.5,282 468.5,284.1 468.5,289.4 	"/>
	<polyline class="st16" points="284.2,370.9 284.2,376 289.1,378.1 279.2,378.1 284.2,380.1 284.2,385.4 	"/>
</g>
<g id="LINE_118_">
	<g>
		<line class="st17" x1="325.7" y1="110.8" x2="325.7" y2="68.5"/>
	</g>
</g>
<g id="LINE_119_">
	<g>
		<line class="st17" x1="345.9" y1="110.8" x2="345.9" y2="68.5"/>
	</g>
</g>
<g id="SPLINE_34_">
	<g>
		<path class="st17" d="M345.9,68.5c0-5.7-4.5-10.3-10.1-10.3c-5.6,0-10.1,4.6-10.1,10.3"/>
	</g>
</g>
<g id="SPLINE_35_">
	<g>
		<path class="st17" d="M325.7,110.8c0,5.7,4.5,10.3,10.1,10.3c5.6,0,10.1-4.6,10.1-10.3"/>
	</g>
</g>
</svg>
