<?xml version="1.0" encoding="utf-8"?>
<!-- Generator: Adobe Illustrator 25.2.1, SVG Export Plug-In . SVG Version: 6.00 Build 0)  -->
<svg version="1.1" id="_x30_" xmlns="http://www.w3.org/2000/svg" xmlns:xlink="http://www.w3.org/1999/xlink" x="0px" y="0px"
	 viewBox="0 0 552.8 588.7" style="enable-background:new 0 0 552.8 588.7;" xml:space="preserve">
<style type="text/css">
	.st0{fill:none;stroke:#000000;stroke-width:0.75;stroke-linecap:round;stroke-linejoin:round;stroke-miterlimit:10;}
	.st1{fill:none;stroke:#231F20;stroke-width:0.75;stroke-linecap:round;stroke-linejoin:round;stroke-miterlimit:10;}
	.st2{fill:none;stroke:#000000;stroke-width:0.75;stroke-linecap:round;stroke-linejoin:bevel;stroke-miterlimit:10;}
	.st3{fill:none;stroke:#231F20;stroke-width:0.25;stroke-linecap:round;stroke-linejoin:round;}
	.st4{fill:#231F20;}
	.st5{fill:none;stroke:#231F20;stroke-linecap:round;stroke-linejoin:round;stroke-miterlimit:10;}
	.st6{font-family:'ArialMT';}
	.st7{font-size:11px;}
	.st8{fill:none;stroke:#231F20;stroke-width:1.5;stroke-linecap:round;stroke-linejoin:round;stroke-miterlimit:10;}
	
		.st9{fill:none;stroke:#231F20;stroke-linecap:round;stroke-linejoin:round;stroke-miterlimit:10;stroke-dasharray:79.8431,39.9215;}
	.st10{fill:none;stroke:#231F20;stroke-width:0.25;stroke-linecap:round;stroke-linejoin:round;stroke-miterlimit:10;}
	.st11{fill:none;stroke:#000000;stroke-width:0.25;stroke-miterlimit:10;}
	.st12{fill:none;stroke:#000000;stroke-width:0.25;stroke-linecap:round;stroke-linejoin:round;stroke-miterlimit:10;}
	.st13{fill:none;stroke:#000000;stroke-width:0.5;stroke-miterlimit:10;}
	.st14{fill:none;stroke:#000000;stroke-width:0.5;stroke-miterlimit:10;stroke-dasharray:6.2079,6.2079;}
	.st15{fill:none;stroke:#000000;stroke-width:0.5;stroke-miterlimit:10;stroke-dasharray:4.8779,4.8779;}
	.st16{fill:none;stroke:#000000;stroke-width:0.5;stroke-miterlimit:10;stroke-dasharray:7.7299,7.7299;}
	.st17{fill:none;stroke:#000000;stroke-width:0.5;stroke-miterlimit:10;stroke-dasharray:6.0281,6.0281;}
	.st18{fill:none;stroke:#000000;stroke-width:0.5;stroke-miterlimit:10;stroke-dasharray:6.0815,6.0815;}
	.st19{fill:none;stroke:#000000;stroke-width:0.5;stroke-miterlimit:10;stroke-dasharray:6.3118,6.3118;}
	.st20{fill:none;stroke:#000000;stroke-width:0.5;stroke-miterlimit:10;stroke-dasharray:3.1647;}
	.st21{fill:none;stroke:#000000;stroke-width:0.5;stroke-miterlimit:10;stroke-dasharray:3.6246,3.6246;}
</style>
<g>
	<g id="LINE_103_">
		<line class="st0" x1="143.3" y1="423.3" x2="146.4" y2="401.1"/>
	</g>
	<g id="LINE_104_">
		<line class="st0" x1="143.3" y1="401.1" x2="146.4" y2="423.3"/>
	</g>
</g>
<g>
	<g id="LINE_260_">
		<line class="st1" x1="162.5" y1="230.1" x2="147.2" y2="219.2"/>
	</g>
	<g id="LINE_261_">
		<line class="st1" x1="147.2" y1="230.1" x2="162.5" y2="219.2"/>
	</g>
</g>
<g>
	<g id="POLYLINE_14_">
		<polyline class="st2" points="61.2,134 115.9,134 117.8,130.5 119.4,138 121.7,134 		"/>
	</g>
	<g id="LINE_268_">
		<line class="st2" x1="121.7" y1="134" x2="166.3" y2="134"/>
	</g>
	<g id="POLYLINE_15_">
		<polyline class="st2" points="61.2,140.9 115.9,140.9 117.8,137.4 119.4,144.9 121.7,140.9 		"/>
	</g>
	<g id="LINE_269_">
		<line class="st2" x1="121.7" y1="140.9" x2="166.3" y2="140.9"/>
	</g>
</g>
<g id="LINE_300_">
	<g>
		<g>
			<line class="st3" x1="169.6" y1="61.4" x2="202.8" y2="61.4"/>
			<g>
				<polygon class="st4" points="171.1,63.6 163,61.4 171.1,59.3 				"/>
			</g>
		</g>
	</g>
</g>
<g>
	<g id="POLYLINE_11_">
		<polyline class="st5" points="373.3,284.5 397.1,284.5 397.1,222.4 505.5,222.4 505.5,284.5 524.4,284.5 		"/>
	</g>
	<g id="POLYLINE_12_">
		<polyline class="st5" points="373.3,298.4 412.4,298.4 412.4,236.4 490.2,236.4 490.2,298.4 524.4,298.4 		"/>
	</g>
	<g id="LINE_262_">
		<line class="st5" x1="419.3" y1="298.4" x2="419.3" y2="242.7"/>
	</g>
	<g id="LINE_263_">
		<line class="st5" x1="419.3" y1="242.7" x2="483.3" y2="242.7"/>
	</g>
	<g id="LINE_264_">
		<line class="st5" x1="483.3" y1="242.7" x2="483.3" y2="298.4"/>
	</g>
	<g id="LINE_265_">
		<line class="st5" x1="419.3" y1="298.4" x2="483.3" y2="298.4"/>
	</g>
	<g id="POLYLINE_13_">
		<polyline class="st5" points="387.7,298.4 387.7,344.3 514.9,344.3 514.9,298.4 		"/>
	</g>
</g>
<g id="MTEXT_1_">
	<text transform="matrix(1 0 0 1 428.3497 266.3445)"><tspan x="0" y="0" class="st6 st7">Insert fire</tspan><tspan x="9.8" y="13.2" class="st6 st7">place</tspan></text>
</g>
<g id="MTEXT_4_">
	<text transform="matrix(1 0 0 1 367.6941 368.5896)" class="st6 st7">Hearth</text>
</g>
<g id="MTEXT_8_">
	<text transform="matrix(1 0 0 1 294.6942 212.7481)"><tspan x="0" y="0" class="st6 st7">50mm clearances</tspan><tspan x="0" y="13.2" class="st6 st7">between flue/insert</tspan><tspan x="0" y="26.4" class="st6 st7">fire place and </tspan><tspan x="0" y="39.6" class="st6 st7">adjoining material</tspan></text>
</g>
<g id="LINE_309_">
	<g>
		<g>
			<line class="st3" x1="408.5" y1="249.3" x2="386.4" y2="249.3"/>
			<g>
				<polygon class="st4" points="407,247.1 415.1,249.3 407,251.5 				"/>
			</g>
		</g>
	</g>
</g>
<g id="LINE_312_">
	<g>
		<g>
			<polyline class="st3" points="456.8,341 456.8,365.8 404.4,365.8 			"/>
			<g>
				<polygon class="st4" points="454.6,342.5 456.8,334.3 459,342.5 				"/>
			</g>
		</g>
	</g>
</g>
<g id="MTEXT_9_">
	<text transform="matrix(1 0 0 1 208.5564 198.4337)" class="st6 st7">Stack flashing</text>
</g>
<g id="MTEXT_10_">
	<text transform="matrix(1 0 0 1 208.2116 64.7764)" class="st6 st7">Chimney</text>
</g>
<g id="MTEXT_11_">
	<text transform="matrix(1 0 0 1 209.3308 211.3174)" class="st6 st7">Weephole</text>
</g>
<g id="MTEXT_12_">
	<text transform="matrix(1 0 0 1 209.5964 224.669)" class="st6 st7">Apron flashing</text>
</g>
<g id="MTEXT_13_">
	<text transform="matrix(1 0 0 1 113.9545 201.1259)" class="st6 st7">20</text>
</g>
<g id="MTEXT_15_">
	<text transform="matrix(1 0 0 1 105.4034 257.0981)"><tspan x="0" y="0" class="st6 st7">50 </tspan><tspan x="0" y="13.2" class="st6 st7">min.</tspan></text>
</g>
<g id="MTEXT_16_">
	<text transform="matrix(1 0 0 1 210.9284 267.1392)" class="st6 st7">Flashing</text>
</g>
<g id="MTEXT_17_">
	<text transform="matrix(1 0 0 1 209.5964 303.7867)" class="st6 st7">Angle lintel</text>
</g>
<g id="MTEXT_21_">
	<text transform="matrix(1 0 0 1 209.8327 335.2218)"><tspan x="0" y="0" class="st6 st7">Top plate to be  </tspan><tspan x="0" y="13.2" class="st6 st7">cut away at flue  </tspan><tspan x="0" y="26.4" class="st6 st7">(metal joining  </tspan><tspan x="0" y="39.6" class="st6 st7">plate over)</tspan></text>
</g>
<g id="MTEXT_22_">
	<text transform="matrix(1 0 0 1 177.8565 431.4244)" class="st6 st7">20</text>
</g>
<g id="MTEXT_23_">
	<text transform="matrix(1 0 0 1 208.531 458.8658)" class="st6 st7">Brick header course</text>
</g>
<g id="MTEXT_24_">
	<text transform="matrix(1 0 0 1 209.3591 478.1675)" class="st6 st7">Arched lintel</text>
</g>
<g id="MTEXT_26_">
	<text transform="matrix(1 0 0 1 208.8279 495.7632)" class="st6 st7">40mm thick mortar bed</text>
</g>
<g id="MTEXT_28_">
	<text transform="matrix(1 0 0 1 207.907 513.5138)"><tspan x="0" y="0" class="st6 st7">Tiled hearth on 20mm</tspan><tspan x="0" y="13.2" class="st6 st7">thick mortar bed</tspan></text>
</g>
<g id="MTEXT_29_">
	<text transform="matrix(1 0 0 1 102.237 368.5287)" class="st6 st7">400</text>
</g>
<g id="MTEXT_30_">
	<text transform="matrix(0 -1 1 0 38.0297 237.6678)" class="st6 st7">No portion of roof within 3600 mm</text>
</g>
<g>
	<g id="LINE_10_">
		<line class="st5" x1="177.3" y1="244.7" x2="208.4" y2="238.4"/>
	</g>
	<g id="LINE_11_">
		<line class="st5" x1="176.7" y1="242.2" x2="207.8" y2="235.9"/>
	</g>
	<g id="LINE_12_">
		<line class="st5" x1="176.1" y1="239.7" x2="207.2" y2="233.4"/>
	</g>
	<g id="LINE_13_">
		<line class="st5" x1="176.1" y1="239.7" x2="177.3" y2="244.7"/>
	</g>
	<g id="LINE_14_">
		<line class="st5" x1="139.8" y1="284.8" x2="139.8" y2="269.8"/>
	</g>
	<g id="LINE_15_">
		<line class="st5" x1="139.8" y1="269.8" x2="206" y2="241.7"/>
	</g>
	<g id="LINE_17_">
		<line class="st5" x1="147.2" y1="282.9" x2="147.2" y2="269"/>
	</g>
	<g id="LINE_18_">
		<line class="st5" x1="147.2" y1="269" x2="162.5" y2="269"/>
	</g>
	<g id="LINE_19_">
		<line class="st5" x1="162.5" y1="282.9" x2="162.5" y2="269"/>
	</g>
	<g id="LINE_20_">
		<line class="st5" x1="147.2" y1="282.9" x2="162.5" y2="282.9"/>
	</g>
	<g id="LINE_21_">
		<line class="st5" x1="132.8" y1="284.8" x2="211.3" y2="284.8"/>
	</g>
	<g id="LINE_22_">
		<line class="st5" x1="162.6" y1="273.4" x2="211.3" y2="273.4"/>
	</g>
	<g id="LINE_23_">
		<line class="st5" x1="190.1" y1="242.1" x2="191.6" y2="245.3"/>
	</g>
	<g id="LINE_24_">
		<line class="st8" x1="164.2" y1="254.5" x2="164.2" y2="235"/>
	</g>
	<g id="LINE_25_">
		<line class="st5" x1="191.6" y1="245.3" x2="192.6" y2="247.4"/>
	</g>
	<g id="LINE_26_">
		<line class="st5" x1="185.9" y1="247.6" x2="187" y2="249.8"/>
	</g>
	<g id="LINE_27_">
		<line class="st5" x1="162.6" y1="257.3" x2="191.5" y2="245"/>
	</g>
	<g id="LINE_28_">
		<line class="st8" x1="164.2" y1="254.5" x2="187.4" y2="244.7"/>
	</g>
	<g id="LINE_29_">
		<line class="st8" x1="186.4" y1="242.9" x2="187.4" y2="244.7"/>
	</g>
	<g id="LINE_30_">
		<line class="st5" x1="177.4" y1="251" x2="178.5" y2="253.4"/>
	</g>
	<g id="LINE_31_">
		<line class="st5" x1="171.8" y1="253.4" x2="172.9" y2="255.8"/>
	</g>
	<g id="LINE_32_">
		<line class="st5" x1="172.9" y1="255.8" x2="178.5" y2="253.4"/>
	</g>
	<g id="LINE_33_">
		<line class="st5" x1="187" y1="249.8" x2="192.6" y2="247.4"/>
	</g>
	<g id="LINE_34_">
		<line class="st5" x1="162.5" y1="286.1" x2="211.3" y2="286.1"/>
	</g>
	<g id="SPLINE">
		<path class="st5" d="M170.9,287.5c-3.6,0-6.6,2.5-6.9,5.7"/>
	</g>
	<g id="SPLINE_1_">
		<path class="st5" d="M170.9,286.2c-4.3,0-7.9,3-8.3,6.9"/>
	</g>
	<g id="LINE_35_">
		<line class="st5" x1="162.6" y1="293.1" x2="164" y2="293.2"/>
	</g>
	<g id="LINE_36_">
		<line class="st5" x1="170.9" y1="286.2" x2="170.9" y2="287.5"/>
	</g>
	<g id="LINE_37_">
		<line class="st5" x1="162.6" y1="257.3" x2="163.8" y2="259.6"/>
	</g>
	<g id="LINE_38_">
		<line class="st5" x1="162.8" y1="546.4" x2="162.8" y2="464.7"/>
	</g>
	<g id="LINE_39_">
		<line class="st5" x1="147.5" y1="548.9" x2="147.5" y2="461.2"/>
	</g>
	<g id="LINE_40_">
		<line class="st5" x1="147.5" y1="530" x2="162.8" y2="530"/>
	</g>
	<g id="LINE_41_">
		<line class="st5" x1="147.5" y1="531.3" x2="162.8" y2="531.3"/>
	</g>
	<g id="LINE_42_">
		<line class="st5" x1="147.5" y1="519.1" x2="162.8" y2="519.1"/>
	</g>
	<g id="LINE_43_">
		<line class="st5" x1="147.5" y1="520.4" x2="162.8" y2="520.4"/>
	</g>
	<g id="LINE_44_">
		<line class="st5" x1="147.5" y1="508.2" x2="162.8" y2="508.2"/>
	</g>
	<g id="LINE_45_">
		<line class="st5" x1="147.5" y1="509.5" x2="162.8" y2="509.5"/>
	</g>
	<g id="LINE_46_">
		<line class="st5" x1="147.5" y1="497.4" x2="162.8" y2="497.4"/>
	</g>
	<g id="LINE_47_">
		<line class="st5" x1="147.5" y1="498.6" x2="162.8" y2="498.6"/>
	</g>
	<g id="LINE_48_">
		<line class="st5" x1="147.5" y1="486.5" x2="162.8" y2="486.5"/>
	</g>
	<g id="LINE_49_">
		<line class="st5" x1="147.5" y1="487.7" x2="162.8" y2="487.7"/>
	</g>
	<g id="LINE_50_">
		<line class="st5" x1="147.5" y1="475.6" x2="162.8" y2="475.6"/>
	</g>
	<g id="LINE_51_">
		<line class="st5" x1="147.5" y1="476.8" x2="162.8" y2="476.8"/>
	</g>
	<g id="LINE_52_">
		<line class="st5" x1="147.5" y1="464.7" x2="165.6" y2="464.7"/>
	</g>
	<g id="LINE_53_">
		<line class="st5" x1="147.5" y1="466" x2="162.8" y2="466"/>
	</g>
	<g id="LINE_54_">
		<line class="st5" x1="147.5" y1="540.9" x2="162.8" y2="540.9"/>
	</g>
	<g id="LINE_55_">
		<line class="st5" x1="147.5" y1="542.2" x2="162.8" y2="542.2"/>
	</g>
	<g id="LINE_56_">
		<line class="st5" x1="82.8" y1="560.3" x2="82.8" y2="140.9"/>
	</g>
	<g id="LINE_57_">
		<line class="st5" x1="67.6" y1="560.3" x2="67.6" y2="140.9"/>
	</g>
	<g id="LINE_58_">
		<line class="st5" x1="67.6" y1="530" x2="82.8" y2="530"/>
	</g>
	<g id="LINE_59_">
		<line class="st5" x1="67.6" y1="531.3" x2="82.8" y2="531.3"/>
	</g>
	<g id="LINE_60_">
		<line class="st5" x1="67.6" y1="519.1" x2="82.8" y2="519.1"/>
	</g>
	<g id="LINE_61_">
		<line class="st5" x1="67.6" y1="520.4" x2="82.8" y2="520.4"/>
	</g>
	<g id="LINE_62_">
		<line class="st5" x1="67.6" y1="508.2" x2="82.8" y2="508.2"/>
	</g>
	<g id="LINE_63_">
		<line class="st5" x1="67.6" y1="509.5" x2="82.8" y2="509.5"/>
	</g>
	<g id="LINE_64_">
		<line class="st5" x1="67.6" y1="497.4" x2="82.8" y2="497.4"/>
	</g>
	<g id="LINE_65_">
		<line class="st5" x1="67.6" y1="498.6" x2="82.8" y2="498.6"/>
	</g>
	<g id="LINE_66_">
		<line class="st5" x1="67.6" y1="486.5" x2="82.8" y2="486.5"/>
	</g>
	<g id="LINE_67_">
		<line class="st5" x1="67.6" y1="487.7" x2="82.8" y2="487.7"/>
	</g>
	<g id="LINE_68_">
		<line class="st5" x1="67.6" y1="475.6" x2="82.8" y2="475.6"/>
	</g>
	<g id="LINE_69_">
		<line class="st5" x1="67.6" y1="476.8" x2="82.8" y2="476.8"/>
	</g>
	<g id="LINE_70_">
		<line class="st5" x1="67.6" y1="464.7" x2="82.8" y2="464.7"/>
	</g>
	<g id="LINE_71_">
		<line class="st5" x1="67.6" y1="466" x2="82.8" y2="466"/>
	</g>
	<g id="LINE_72_">
		<line class="st5" x1="67.6" y1="540.9" x2="82.8" y2="540.9"/>
	</g>
	<g id="LINE_73_">
		<line class="st5" x1="67.6" y1="542.2" x2="82.8" y2="542.2"/>
	</g>
	<g id="LINE_74_">
		<line class="st5" x1="132.8" y1="440.4" x2="132.8" y2="154.2"/>
	</g>
	<g id="LINE_75_">
		<line class="st5" x1="94.6" y1="546.4" x2="94.6" y2="470.8"/>
	</g>
	<g id="LINE_76_">
		<line class="st5" x1="102.7" y1="463.4" x2="147.5" y2="463.4"/>
	</g>
	<g id="LINE_77_">
		<line class="st5" x1="94.6" y1="470.8" x2="102.7" y2="463.4"/>
	</g>
	<g id="LINE_78_">
		<line class="st5" x1="137" y1="460.5" x2="165.6" y2="460.5"/>
	</g>
	<g id="LINE_79_">
		<line class="st5" x1="137" y1="450.9" x2="165.6" y2="450.9"/>
	</g>
	<g id="LINE_80_">
		<line class="st5" x1="165.6" y1="464.7" x2="165.6" y2="450.9"/>
	</g>
	<g id="POLYLINE">
		<polyline class="st5" points="137.1,449.6 136.8,455 137.2,457.4 137,460.5 		"/>
	</g>
	<g id="LINE_81_">
		<line class="st5" x1="100.2" y1="465.7" x2="100.2" y2="440.4"/>
	</g>
	<g id="LINE_82_">
		<line class="st5" x1="96.7" y1="440.4" x2="132.8" y2="440.4"/>
	</g>
	<g id="LINE_83_">
		<line class="st5" x1="96.7" y1="440.4" x2="96.7" y2="154.2"/>
	</g>
	<g id="LINE_84_">
		<line class="st5" x1="159.9" y1="460.5" x2="161.4" y2="464.7"/>
	</g>
	<g id="LINE_85_">
		<line class="st5" x1="129.5" y1="440.4" x2="133.8" y2="463"/>
	</g>
	<g id="LINE_86_">
		<line class="st5" x1="136.4" y1="463" x2="137.4" y2="461.2"/>
	</g>
	<g id="POLYLINE_1_">
		<polyline class="st5" points="137.4,462.2 157.4,462.2 158.3,464.7 		"/>
	</g>
	<g id="LINE_87_">
		<line class="st5" x1="133.8" y1="463" x2="136.4" y2="463"/>
	</g>
	<g id="LINE_88_">
		<line class="st5" x1="147.2" y1="438.7" x2="162.5" y2="438.7"/>
	</g>
	<g id="LINE_89_">
		<line class="st5" x1="147.2" y1="440" x2="162.5" y2="440"/>
	</g>
	<g id="LINE_90_">
		<line class="st5" x1="147.2" y1="427.8" x2="162.5" y2="427.8"/>
	</g>
	<g id="LINE_91_">
		<line class="st5" x1="147.2" y1="429.1" x2="162.5" y2="429.1"/>
	</g>
	<g id="LINE_92_">
		<line class="st5" x1="147.2" y1="416.9" x2="162.5" y2="416.9"/>
	</g>
	<g id="LINE_93_">
		<line class="st5" x1="147.2" y1="418.2" x2="162.5" y2="418.2"/>
	</g>
	<g id="LINE_94_">
		<line class="st5" x1="147.2" y1="406" x2="162.5" y2="406"/>
	</g>
	<g id="LINE_95_">
		<line class="st5" x1="147.2" y1="407.3" x2="162.5" y2="407.3"/>
	</g>
	<g id="LINE_96_">
		<line class="st5" x1="147.2" y1="395.1" x2="162.5" y2="395.1"/>
	</g>
	<g id="LINE_97_">
		<line class="st5" x1="147.2" y1="396.4" x2="162.5" y2="396.4"/>
	</g>
	<g id="LINE_98_">
		<line class="st5" x1="147.2" y1="384.2" x2="162.5" y2="384.2"/>
	</g>
	<g id="LINE_99_">
		<line class="st5" x1="147.2" y1="385.5" x2="162.5" y2="385.5"/>
	</g>
	<g id="LINE_100_">
		<line class="st5" x1="147.2" y1="449.6" x2="162.5" y2="449.6"/>
	</g>
	<g id="LINE_101_">
		<line class="st5" x1="162.5" y1="450.9" x2="162.5" y2="287.5"/>
	</g>
	<g id="LINE_102_">
		<line class="st5" x1="147.2" y1="450.9" x2="147.2" y2="287.5"/>
	</g>
	<g id="POLYLINE_2_">
		<polyline class="st5" points="137.1,438.7 136.8,444.1 137.2,446.5 137,449.6 		"/>
	</g>
	<g id="POLYLINE_3_">
		<polyline class="st5" points="137,429.1 136.8,433.3 137.2,435.6 137,438.7 		"/>
	</g>
	<g id="POLYLINE_4_">
		<rect x="142.7" y="401.1" class="st9" width="4.5" height="22.2"/>
	</g>
	<g id="LINE_105_">
		<line class="st5" x1="96.7" y1="337.2" x2="132.8" y2="337.2"/>
	</g>
	<g id="LINE_106_">
		<line class="st5" x1="96.7" y1="282.1" x2="132.8" y2="282.1"/>
	</g>
	<g id="LINE_107_">
		<line class="st5" x1="96.7" y1="154.2" x2="132.8" y2="154.2"/>
	</g>
	<g id="LINE_113_">
		<line class="st5" x1="147.2" y1="287.5" x2="162.5" y2="287.5"/>
	</g>
	<g id="LINE_114_">
		<line class="st5" x1="144.4" y1="251.9" x2="144.4" y2="230.1"/>
	</g>
	<g id="LINE_115_">
		<line class="st5" x1="159.7" y1="251.9" x2="159.7" y2="230.1"/>
	</g>
	<g id="LINE_121_">
		<line class="st5" x1="162" y1="235.6" x2="162.6" y2="235.6"/>
	</g>
	<g>
		<g>
			<g id="LINE_116_">
				<line class="st5" x1="162.6" y1="235.6" x2="162.6" y2="254.6"/>
			</g>
			<g id="LINE_117_">
				<line class="st5" x1="162.6" y1="254.6" x2="150.1" y2="254.6"/>
			</g>
			<g id="LINE_118_">
				<line class="st5" x1="150.1" y1="254.6" x2="150.1" y2="254"/>
			</g>
			<g id="LINE_119_">
				<line class="st5" x1="150.8" y1="253.4" x2="159.9" y2="253.4"/>
			</g>
			<g id="LINE_120_">
				<line class="st5" x1="161.3" y1="252.1" x2="161.3" y2="236.2"/>
			</g>
			<g id="SPLINE_2_">
				<path class="st5" d="M150.8,253.4c-0.4,0-0.7,0.3-0.7,0.6"/>
			</g>
			<g id="SPLINE_3_">
				<path class="st5" d="M159.9,253.4c0.8,0,1.4-0.6,1.4-1.3"/>
			</g>
		</g>
		<g id="SPLINE_4_">
			<path class="st5" d="M162,235.6c-0.4,0-0.7,0.3-0.7,0.6"/>
		</g>
	</g>
	<g id="LINE_122_">
		<line class="st5" x1="144.4" y1="231.4" x2="132.8" y2="231.4"/>
	</g>
	<g id="LINE_123_">
		<line class="st5" x1="147.2" y1="228.2" x2="132.8" y2="228.2"/>
	</g>
	<g id="LINE_124_">
		<line class="st5" x1="147.2" y1="230.1" x2="147.2" y2="140.9"/>
	</g>
	<g id="LINE_125_">
		<line class="st5" x1="162.5" y1="230.1" x2="162.5" y2="140.9"/>
	</g>
	<g id="LINE_129_">
		<line class="st5" x1="147.2" y1="220.5" x2="162.5" y2="220.5"/>
	</g>
	<g id="LINE_130_">
		<line class="st5" x1="147.2" y1="219.2" x2="162.5" y2="219.2"/>
	</g>
	<g id="LINE_131_">
		<line class="st5" x1="144.4" y1="230.1" x2="162.5" y2="230.1"/>
	</g>
	<g id="LINE_132_">
		<line class="st5" x1="144.4" y1="231.4" x2="159.7" y2="231.4"/>
	</g>
	<g id="LINE_133_">
		<line class="st5" x1="144.4" y1="251.9" x2="159.7" y2="251.9"/>
	</g>
	<g id="LINE_140_">
		<line class="st5" x1="100.2" y1="154.2" x2="100.2" y2="140.9"/>
	</g>
	<g id="LINE_141_">
		<line class="st5" x1="129.4" y1="154.2" x2="129.4" y2="140.9"/>
	</g>
	<g id="LINE_142_">
		<line class="st5" x1="100.2" y1="59.8" x2="129.4" y2="59.8"/>
	</g>
	<g id="LINE_143_">
		<line class="st5" x1="100.2" y1="94.4" x2="129.4" y2="94.4"/>
	</g>
	<g id="LINE_147_">
		<line class="st5" x1="129.4" y1="66.5" x2="162.5" y2="66.5"/>
	</g>
	<g id="LINE_148_">
		<line class="st5" x1="67.6" y1="66.5" x2="100.2" y2="66.5"/>
	</g>
	<g id="LINE_150_">
		<line class="st5" x1="67.6" y1="56.3" x2="93.8" y2="53.6"/>
	</g>
	<g id="LINE_151_">
		<line class="st5" x1="93.8" y1="62.9" x2="93.8" y2="34.7"/>
	</g>
	<g id="LINE_152_">
		<line class="st5" x1="99.7" y1="62.9" x2="82.8" y2="62.9"/>
	</g>
	<g id="LINE_153_">
		<line class="st5" x1="95.9" y1="48.8" x2="95.9" y2="35.9"/>
	</g>
	<g id="LINE_154_">
		<line class="st5" x1="95.9" y1="48.8" x2="133.7" y2="48.8"/>
	</g>
	<g id="POLYLINE_9_">
		<polyline class="st5" points="93.7,34.7 89.4,34.7 86.1,37.8 		"/>
	</g>
	<g id="SPLINE_5_">
		<path class="st5" d="M135.7,34.7c-13-6.9-29.1-6.9-42.1,0"/>
	</g>
	<g id="LINE_156_">
		<line class="st5" x1="162" y1="66.5" x2="129.4" y2="66.5"/>
	</g>
	<g id="LINE_157_">
		<line class="st5" x1="162.5" y1="56.4" x2="135.8" y2="53.6"/>
	</g>
	<g id="LINE_158_">
		<line class="st5" x1="135.8" y1="62.9" x2="135.8" y2="34.7"/>
	</g>
	<g id="LINE_159_">
		<line class="st5" x1="129.8" y1="62.9" x2="146.7" y2="62.9"/>
	</g>
	<g id="LINE_160_">
		<line class="st5" x1="133.7" y1="48.8" x2="133.7" y2="35.9"/>
	</g>
	<g id="POLYLINE_10_">
		<polyline class="st5" points="135.7,34.7 140.1,34.7 143.4,37.8 		"/>
	</g>
	<g id="LINE_161_">
		<line class="st5" x1="100.2" y1="134" x2="100.2" y2="59.8"/>
	</g>
	<g id="LINE_162_">
		<line class="st5" x1="129.4" y1="134" x2="129.4" y2="59.8"/>
	</g>
	<g id="LINE_163_">
		<line class="st5" x1="153.5" y1="230.7" x2="162.5" y2="230.7"/>
	</g>
	<g id="LINE_164_">
		<line class="st8" x1="162.5" y1="230.7" x2="166.9" y2="240.4"/>
	</g>
	<g id="LINE_165_">
		<line class="st5" x1="144.4" y1="242.3" x2="159.7" y2="242.3"/>
	</g>
	<g id="LINE_166_">
		<line class="st5" x1="144.4" y1="241" x2="159.7" y2="241"/>
	</g>
	<g id="LINE_168_">
		<line class="st5" x1="137" y1="429.1" x2="147.2" y2="429.1"/>
	</g>
	<g id="LINE_169_">
		<line class="st5" x1="137" y1="438.7" x2="147.2" y2="438.7"/>
	</g>
	<g id="LINE_170_">
		<line class="st5" x1="137" y1="440" x2="147.2" y2="440"/>
	</g>
	<g id="LINE_171_">
		<line class="st5" x1="137" y1="449.6" x2="147.2" y2="449.6"/>
	</g>
	<g id="LINE_172_">
		<line class="st5" x1="147.2" y1="373.4" x2="162.5" y2="373.4"/>
	</g>
	<g id="LINE_173_">
		<line class="st5" x1="147.2" y1="374.6" x2="162.5" y2="374.6"/>
	</g>
	<g id="LINE_174_">
		<line class="st5" x1="147.2" y1="362.5" x2="162.5" y2="362.5"/>
	</g>
	<g id="LINE_175_">
		<line class="st5" x1="147.2" y1="363.7" x2="162.5" y2="363.7"/>
	</g>
	<g id="LINE_176_">
		<line class="st5" x1="147.2" y1="351.6" x2="162.5" y2="351.6"/>
	</g>
	<g id="LINE_177_">
		<line class="st5" x1="147.2" y1="352.8" x2="162.5" y2="352.8"/>
	</g>
	<g id="LINE_178_">
		<line class="st5" x1="147.2" y1="340.7" x2="162.5" y2="340.7"/>
	</g>
	<g id="LINE_179_">
		<line class="st5" x1="147.2" y1="342" x2="162.5" y2="342"/>
	</g>
	<g id="LINE_180_">
		<line class="st5" x1="147.2" y1="329.8" x2="162.5" y2="329.8"/>
	</g>
	<g id="LINE_181_">
		<line class="st5" x1="147.2" y1="331.1" x2="162.5" y2="331.1"/>
	</g>
	<g id="LINE_182_">
		<line class="st5" x1="147.2" y1="318.9" x2="162.5" y2="318.9"/>
	</g>
	<g id="LINE_183_">
		<line class="st5" x1="147.2" y1="320.2" x2="162.5" y2="320.2"/>
	</g>
	<g id="LINE_184_">
		<line class="st5" x1="147.2" y1="308" x2="162.5" y2="308"/>
	</g>
	<g id="LINE_185_">
		<line class="st5" x1="147.2" y1="309.3" x2="162.5" y2="309.3"/>
	</g>
	<g id="LINE_186_">
		<line class="st5" x1="147.2" y1="297.1" x2="162.5" y2="297.1"/>
	</g>
	<g id="LINE_187_">
		<line class="st5" x1="147.2" y1="298.4" x2="162.5" y2="298.4"/>
	</g>
	<g id="LINE_188_">
		<line class="st5" x1="67.6" y1="453.8" x2="82.8" y2="453.8"/>
	</g>
	<g id="LINE_189_">
		<line class="st5" x1="67.6" y1="455.1" x2="82.8" y2="455.1"/>
	</g>
	<g id="LINE_190_">
		<line class="st5" x1="67.6" y1="442.9" x2="82.8" y2="442.9"/>
	</g>
	<g id="LINE_191_">
		<line class="st5" x1="67.6" y1="444.2" x2="82.8" y2="444.2"/>
	</g>
	<g id="LINE_192_">
		<line class="st5" x1="67.6" y1="432" x2="82.8" y2="432"/>
	</g>
	<g id="LINE_193_">
		<line class="st5" x1="67.6" y1="433.3" x2="82.8" y2="433.3"/>
	</g>
	<g id="LINE_194_">
		<line class="st5" x1="67.6" y1="421.1" x2="82.8" y2="421.1"/>
	</g>
	<g id="LINE_195_">
		<line class="st5" x1="67.6" y1="422.4" x2="82.8" y2="422.4"/>
	</g>
	<g id="LINE_196_">
		<line class="st5" x1="67.6" y1="410.2" x2="82.8" y2="410.2"/>
	</g>
	<g id="LINE_197_">
		<line class="st5" x1="67.6" y1="411.5" x2="82.8" y2="411.5"/>
	</g>
	<g id="LINE_198_">
		<line class="st5" x1="67.6" y1="399.3" x2="82.8" y2="399.3"/>
	</g>
	<g id="LINE_199_">
		<line class="st5" x1="67.6" y1="400.6" x2="82.8" y2="400.6"/>
	</g>
	<g id="LINE_200_">
		<line class="st5" x1="67.6" y1="388.5" x2="82.8" y2="388.5"/>
	</g>
	<g id="LINE_201_">
		<line class="st5" x1="67.6" y1="389.7" x2="82.8" y2="389.7"/>
	</g>
	<g id="LINE_202_">
		<line class="st5" x1="67.6" y1="377.6" x2="82.8" y2="377.6"/>
	</g>
	<g id="LINE_203_">
		<line class="st5" x1="67.6" y1="378.8" x2="82.8" y2="378.8"/>
	</g>
	<g id="LINE_204_">
		<line class="st5" x1="67.6" y1="366.7" x2="82.8" y2="366.7"/>
	</g>
	<g id="LINE_205_">
		<line class="st5" x1="67.6" y1="367.9" x2="82.8" y2="367.9"/>
	</g>
	<g id="LINE_206_">
		<line class="st5" x1="67.6" y1="355.8" x2="82.8" y2="355.8"/>
	</g>
	<g id="LINE_207_">
		<line class="st5" x1="67.6" y1="357.1" x2="82.8" y2="357.1"/>
	</g>
	<g id="LINE_208_">
		<line class="st5" x1="67.6" y1="344.9" x2="82.8" y2="344.9"/>
	</g>
	<g id="LINE_209_">
		<line class="st5" x1="67.6" y1="346.2" x2="82.8" y2="346.2"/>
	</g>
	<g id="LINE_210_">
		<line class="st5" x1="67.6" y1="334" x2="82.8" y2="334"/>
	</g>
	<g id="LINE_211_">
		<line class="st5" x1="67.6" y1="335.3" x2="82.8" y2="335.3"/>
	</g>
	<g id="LINE_212_">
		<line class="st5" x1="67.6" y1="323.1" x2="82.8" y2="323.1"/>
	</g>
	<g id="LINE_213_">
		<line class="st5" x1="67.6" y1="324.4" x2="82.8" y2="324.4"/>
	</g>
	<g id="LINE_214_">
		<line class="st5" x1="67.6" y1="312.2" x2="82.8" y2="312.2"/>
	</g>
	<g id="LINE_215_">
		<line class="st5" x1="67.6" y1="313.5" x2="82.8" y2="313.5"/>
	</g>
	<g id="LINE_216_">
		<line class="st5" x1="67.6" y1="301.3" x2="82.8" y2="301.3"/>
	</g>
	<g id="LINE_217_">
		<line class="st5" x1="67.6" y1="302.6" x2="82.8" y2="302.6"/>
	</g>
	<g id="LINE_218_">
		<line class="st5" x1="67.6" y1="290.5" x2="82.8" y2="290.5"/>
	</g>
	<g id="LINE_219_">
		<line class="st5" x1="67.6" y1="291.7" x2="82.8" y2="291.7"/>
	</g>
	<g id="LINE_220_">
		<line class="st5" x1="67.6" y1="279.6" x2="82.8" y2="279.6"/>
	</g>
	<g id="LINE_221_">
		<line class="st5" x1="67.6" y1="280.8" x2="82.8" y2="280.8"/>
	</g>
	<g id="LINE_222_">
		<line class="st5" x1="67.6" y1="268.7" x2="82.8" y2="268.7"/>
	</g>
	<g id="LINE_223_">
		<line class="st5" x1="67.6" y1="269.9" x2="82.8" y2="269.9"/>
	</g>
	<g id="LINE_224_">
		<line class="st5" x1="67.6" y1="257.8" x2="82.8" y2="257.8"/>
	</g>
	<g id="LINE_225_">
		<line class="st5" x1="67.6" y1="259" x2="82.8" y2="259"/>
	</g>
	<g id="LINE_226_">
		<line class="st5" x1="67.6" y1="246.9" x2="82.8" y2="246.9"/>
	</g>
	<g id="LINE_227_">
		<line class="st5" x1="67.6" y1="248.2" x2="82.8" y2="248.2"/>
	</g>
	<g id="LINE_228_">
		<line class="st5" x1="67.6" y1="236" x2="82.8" y2="236"/>
	</g>
	<g id="LINE_229_">
		<line class="st5" x1="67.6" y1="237.3" x2="82.8" y2="237.3"/>
	</g>
	<g id="LINE_230_">
		<line class="st5" x1="67.6" y1="225.1" x2="82.8" y2="225.1"/>
	</g>
	<g id="LINE_231_">
		<line class="st5" x1="67.6" y1="226.4" x2="82.8" y2="226.4"/>
	</g>
	<g id="LINE_232_">
		<line class="st5" x1="67.6" y1="214.2" x2="82.8" y2="214.2"/>
	</g>
	<g id="LINE_233_">
		<line class="st5" x1="67.6" y1="215.5" x2="82.8" y2="215.5"/>
	</g>
	<g id="LINE_234_">
		<line class="st5" x1="67.6" y1="203.3" x2="82.8" y2="203.3"/>
	</g>
	<g id="LINE_235_">
		<line class="st5" x1="67.6" y1="204.6" x2="82.8" y2="204.6"/>
	</g>
	<g id="LINE_236_">
		<line class="st5" x1="67.6" y1="192.4" x2="82.8" y2="192.4"/>
	</g>
	<g id="LINE_237_">
		<line class="st5" x1="67.6" y1="193.7" x2="82.8" y2="193.7"/>
	</g>
	<g id="LINE_238_">
		<line class="st5" x1="67.6" y1="181.6" x2="82.8" y2="181.6"/>
	</g>
	<g id="LINE_239_">
		<line class="st5" x1="67.6" y1="182.8" x2="82.8" y2="182.8"/>
	</g>
	<g id="LINE_240_">
		<line class="st5" x1="67.6" y1="170.7" x2="82.8" y2="170.7"/>
	</g>
	<g id="LINE_241_">
		<line class="st5" x1="67.6" y1="171.9" x2="82.8" y2="171.9"/>
	</g>
	<g id="LINE_242_">
		<line class="st5" x1="67.6" y1="159.8" x2="82.8" y2="159.8"/>
	</g>
	<g id="LINE_243_">
		<line class="st5" x1="67.6" y1="161" x2="82.8" y2="161"/>
	</g>
	<g id="LINE_244_">
		<line class="st5" x1="67.6" y1="148.9" x2="82.8" y2="148.9"/>
	</g>
	<g id="LINE_245_">
		<line class="st5" x1="67.6" y1="150.2" x2="82.8" y2="150.2"/>
	</g>
	<g id="LINE_246_">
		<line class="st5" x1="147.2" y1="209.6" x2="162.5" y2="209.6"/>
	</g>
	<g id="LINE_247_">
		<line class="st5" x1="147.2" y1="208.3" x2="162.5" y2="208.3"/>
	</g>
	<g id="LINE_248_">
		<line class="st5" x1="147.2" y1="198.7" x2="162.5" y2="198.7"/>
	</g>
	<g id="LINE_249_">
		<line class="st5" x1="147.2" y1="197.4" x2="162.5" y2="197.4"/>
	</g>
	<g id="LINE_250_">
		<line class="st5" x1="147.2" y1="187.8" x2="162.5" y2="187.8"/>
	</g>
	<g id="LINE_251_">
		<line class="st5" x1="147.2" y1="186.6" x2="162.5" y2="186.6"/>
	</g>
	<g id="LINE_252_">
		<line class="st5" x1="147.2" y1="176.9" x2="162.5" y2="176.9"/>
	</g>
	<g id="LINE_253_">
		<line class="st5" x1="147.2" y1="175.7" x2="162.5" y2="175.7"/>
	</g>
	<g id="LINE_254_">
		<line class="st5" x1="147.2" y1="166" x2="162.5" y2="166"/>
	</g>
	<g id="LINE_255_">
		<line class="st5" x1="147.2" y1="164.8" x2="162.5" y2="164.8"/>
	</g>
	<g id="LINE_256_">
		<line class="st5" x1="147.2" y1="155.2" x2="162.5" y2="155.2"/>
	</g>
	<g id="LINE_257_">
		<line class="st5" x1="147.2" y1="153.9" x2="162.5" y2="153.9"/>
	</g>
	<g id="LINE_258_">
		<line class="st5" x1="147.2" y1="144.3" x2="162.5" y2="144.3"/>
	</g>
	<g id="LINE_259_">
		<line class="st5" x1="147.2" y1="143" x2="162.5" y2="143"/>
	</g>
	<g id="LINE_266_">
		<line class="st5" x1="142.7" y1="416.5" x2="132.8" y2="416.5"/>
	</g>
	<g id="LINE_345_">
		<line class="st5" x1="91.8" y1="546.4" x2="219.9" y2="546.4"/>
	</g>
	<g id="LINE_346_">
		<line class="st5" x1="147.5" y1="548.9" x2="219.9" y2="548.9"/>
	</g>
	<g id="LINE_347_">
		<line class="st5" x1="86.2" y1="551.4" x2="219.9" y2="551.4"/>
	</g>
	<g id="LINE_348_">
		<line class="st5" x1="86.2" y1="551.4" x2="91.8" y2="546.4"/>
	</g>
	<g id="LINE_349_">
		<line class="st5" x1="86.2" y1="551.4" x2="86.2" y2="560.3"/>
	</g>
	<g id="LINE_350_">
		<line class="st5" x1="94.6" y1="537.5" x2="147.5" y2="537.5"/>
	</g>
	<g id="LINE_351_">
		<line class="st5" x1="147.5" y1="548.9" x2="147.5" y2="546.4"/>
	</g>
	<g id="LINE_352_">
		<line class="st5" x1="172.5" y1="548.9" x2="172.5" y2="546.4"/>
	</g>
	<g id="LINE_353_">
		<line class="st5" x1="197.5" y1="548.9" x2="197.5" y2="546.4"/>
	</g>
	<g id="LINE_16_">
		<line class="st5" x1="162.6" y1="272.7" x2="211.3" y2="252"/>
		<line class="st5" x1="139.8" y1="282.4" x2="147.1" y2="279.3"/>
	</g>
</g>
<g>
	<g id="LINE">
		<line class="st10" x1="139.8" y1="267.7" x2="139.8" y2="252.6"/>
	</g>
	<g id="LINE_1_">
		<line class="st10" x1="132.8" y1="260.1" x2="139.8" y2="260.1"/>
	</g>
	<g id="LINE_2_">
		<line class="st10" x1="144.4" y1="218.7" x2="144.4" y2="196.7"/>
	</g>
	<g id="LINE_3_">
		<line class="st10" x1="144.4" y1="204" x2="147.2" y2="204"/>
	</g>
	<g id="LINE_4_">
		<line class="st11" x1="61.2" y1="253.6" x2="27.9" y2="253.6"/>
	</g>
	<g id="LINE_5_">
		<line class="st11" x1="61.2" y1="56.3" x2="27.9" y2="56.3"/>
	</g>
	<g id="LINE_6_">
		<g>
			<g>
				<line class="st3" x1="146.4" y1="260.1" x2="154.4" y2="260.1"/>
				<g>
					<polygon class="st4" points="147.9,262.3 139.8,260.1 147.9,257.9 					"/>
				</g>
			</g>
		</g>
	</g>
	<g id="LINE_7_">
		<g>
			<g>
				<line class="st3" x1="171.9" y1="433.9" x2="184.7" y2="433.9"/>
				<g>
					<polygon class="st4" points="173.4,436.1 165.3,433.9 173.4,431.7 					"/>
				</g>
			</g>
		</g>
	</g>
	<g id="LINE_8_">
		<line class="st12" x1="165.3" y1="444.3" x2="165.3" y2="426.6"/>
	</g>
	<g id="LINE_9_">
		<line class="st12" x1="162.5" y1="433.9" x2="165.3" y2="433.9"/>
	</g>
	<g id="LINE_267_">
		<g>
			<g>
				<line class="st3" x1="153.8" y1="204" x2="159.9" y2="204"/>
				<g>
					<polygon class="st4" points="155.3,206.2 147.2,204 155.3,201.9 					"/>
				</g>
			</g>
		</g>
	</g>
	<g id="LINE_277_">
		<g>
			<g>
				<line class="st3" x1="137.8" y1="204.1" x2="111.7" y2="204.1"/>
				<g>
					<polygon class="st4" points="136.3,201.9 144.4,204 136.3,206.2 					"/>
				</g>
			</g>
		</g>
	</g>
	<g id="LINE_284_">
		<g>
			<g>
				<line class="st3" x1="155.8" y1="433.9" x2="150.2" y2="433.9"/>
				<g>
					<polygon class="st4" points="154.4,431.7 162.5,433.9 154.4,436.1 					"/>
				</g>
			</g>
		</g>
	</g>
	<g id="LINE_289_">
		<g>
			<g>
				<line class="st3" x1="172.7" y1="455.7" x2="202.8" y2="455.7"/>
				<g>
					<polygon class="st4" points="174.2,457.9 166,455.7 174.2,453.6 					"/>
				</g>
			</g>
		</g>
	</g>
	<g id="LINE_296_">
		<g>
			<g>
				<line class="st3" x1="211.8" y1="539.4" x2="211.8" y2="530.4"/>
				<g>
					<polygon class="st4" points="214,537.9 211.8,546.1 209.6,537.9 					"/>
				</g>
			</g>
		</g>
	</g>
	<g id="LINE_301_">
		<g>
			<g>
				<line class="st3" x1="126.2" y1="260.1" x2="104.8" y2="260.1"/>
				<g>
					<polygon class="st4" points="124.7,257.9 132.8,260.1 124.7,262.3 					"/>
				</g>
			</g>
		</g>
	</g>
	<g id="LINE_304_">
		<g>
			<g>
				<line class="st3" x1="44" y1="247.2" x2="44" y2="63"/>
				<g>
					<polygon class="st4" points="46.2,245.7 44,253.8 41.8,245.7 					"/>
				</g>
				<g>
					<polygon class="st4" points="46.2,64.5 44,56.4 41.8,64.5 					"/>
				</g>
			</g>
		</g>
	</g>
	<g id="LINE_318_">
		<g>
			<g>
				<polyline class="st3" points="205.2,260.6 180.2,260.6 177.8,256.6 				"/>
				<g>
					<polygon class="st4" points="180.5,256.8 174.4,250.9 176.7,259 					"/>
				</g>
			</g>
		</g>
	</g>
	<g id="LINE_322_">
		<g>
			<g>
				<polyline class="st3" points="206.1,300.4 183.9,300.4 160.1,260.9 				"/>
				<g>
					<polygon class="st4" points="162.7,261.1 156.6,255.2 159,263.3 					"/>
				</g>
			</g>
		</g>
	</g>
	<g id="LINE_326_">
		<g>
			<g>
				<polyline class="st3" points="206.1,332.9 137.6,332.9 137.6,293 				"/>
				<g>
					<polygon class="st4" points="139.8,294.5 137.6,286.3 135.4,294.5 					"/>
				</g>
			</g>
		</g>
	</g>
	<g id="LINE_332_">
		<g>
			<g>
				<line class="st3" x1="89.5" y1="371.7" x2="126.2" y2="371.7"/>
				<g>
					<polygon class="st4" points="91,373.9 82.8,371.7 91,369.6 					"/>
				</g>
				<g>
					<polygon class="st4" points="124.7,373.9 132.8,371.7 124.7,369.6 					"/>
				</g>
			</g>
		</g>
	</g>
	<g id="LINE_336_">
		<g>
			<g>
				<polyline class="st3" points="170.6,232.4 192,221 206.1,221 				"/>
				<g>
					<polygon class="st4" points="172.9,233.7 164.7,235.6 170.9,229.8 					"/>
				</g>
			</g>
		</g>
	</g>
	<g id="LINE_339_">
		<g>
			<g>
				<polyline class="st3" points="168.2,219.9 189.6,208.4 206.1,208.4 				"/>
				<g>
					<polygon class="st4" points="170.6,221.1 162.4,223.1 168.5,217.3 					"/>
				</g>
			</g>
		</g>
	</g>
	<g id="LINE_342_">
		<g>
			<g>
				<polyline class="st3" points="141.4,224.5 186.5,196.1 206.1,196.1 				"/>
				<g>
					<polygon class="st4" points="143.8,225.6 135.8,228.1 141.5,221.9 					"/>
				</g>
			</g>
		</g>
	</g>
	<g id="LINE_327_">
		<g>
			<g>
				<polyline class="st3" points="168.2,469.1 181,476 202.8,476 				"/>
				<g>
					<polygon class="st4" points="168.5,471.8 162.4,466 170.6,467.9 					"/>
				</g>
			</g>
		</g>
	</g>
	<g id="LINE_294_">
		<g>
			<g>
				<polyline class="st3" points="202.8,491.9 119.6,491.9 119.6,536.5 				"/>
				<g>
					<polygon class="st4" points="117.4,535 119.6,543.1 121.8,535 					"/>
				</g>
			</g>
		</g>
	</g>
</g>
<g>
	<g>
		<g id="LINE_134_">
			<g>
				<g>
					<line class="st13" x1="162.5" y1="134" x2="162.5" y2="131"/>
					<line class="st14" x1="162.5" y1="124.8" x2="162.5" y2="103"/>
					<line class="st13" x1="162.5" y1="99.9" x2="162.5" y2="96.9"/>
				</g>
			</g>
		</g>
		<g id="POLYLINE_5_">
			<g>
				<g>
					<polyline class="st13" points="162.5,96.9 162.1,96.9 157.9,96.9 157.9,93.9 					"/>
					<line class="st15" x1="157.9" y1="89.1" x2="157.9" y2="72"/>
					<line class="st13" x1="157.9" y1="69.5" x2="157.9" y2="66.5"/>
				</g>
			</g>
		</g>
		<g id="LINE_135_">
			<g>
				<g>
					<line class="st13" x1="147.9" y1="134" x2="147.9" y2="131"/>
					<line class="st14" x1="147.9" y1="124.8" x2="147.9" y2="103"/>
					<line class="st13" x1="147.9" y1="99.9" x2="147.9" y2="96.9"/>
				</g>
			</g>
		</g>
		<g id="POLYLINE_6_">
			<g>
				<g>
					<polyline class="st13" points="147.9,96.9 147.5,96.9 143.3,96.9 143.3,93.9 					"/>
					<line class="st15" x1="143.3" y1="89.1" x2="143.3" y2="72"/>
					<line class="st13" x1="143.3" y1="69.5" x2="143.3" y2="66.5"/>
				</g>
			</g>
		</g>
		<g id="LINE_136_">
			<g>
				<g>
					<line class="st13" x1="82.2" y1="134" x2="82.2" y2="131"/>
					<line class="st14" x1="82.2" y1="124.8" x2="82.2" y2="103"/>
					<line class="st13" x1="82.2" y1="99.9" x2="82.2" y2="96.9"/>
				</g>
			</g>
		</g>
		<g id="POLYLINE_7_">
			<g>
				<g>
					<polyline class="st13" points="82.2,96.9 82.6,96.9 86.7,96.9 86.7,93.9 					"/>
					<line class="st15" x1="86.7" y1="89.1" x2="86.7" y2="72"/>
					<line class="st13" x1="86.7" y1="69.5" x2="86.7" y2="66.5"/>
				</g>
			</g>
		</g>
		<g id="LINE_137_">
			<g>
				<g>
					<line class="st13" x1="67.6" y1="134" x2="67.6" y2="131"/>
					<line class="st14" x1="67.6" y1="124.8" x2="67.6" y2="103"/>
					<line class="st13" x1="67.6" y1="99.9" x2="67.6" y2="96.9"/>
				</g>
			</g>
		</g>
		<g id="POLYLINE_8_">
			<g>
				<g>
					<polyline class="st13" points="67.6,96.9 68,96.9 72.1,96.9 72.1,93.9 					"/>
					<line class="st15" x1="72.1" y1="89.1" x2="72.1" y2="72"/>
					<line class="st13" x1="72.1" y1="69.5" x2="72.1" y2="66.5"/>
				</g>
			</g>
		</g>
		<g>
			<g id="LINE_108_">
				<g>
					<g>
						<line class="st13" x1="100.2" y1="434.3" x2="103.2" y2="434.3"/>
						<line class="st16" x1="110.9" y1="434.3" x2="122.5" y2="434.3"/>
						<line class="st13" x1="126.4" y1="434.3" x2="129.4" y2="434.3"/>
					</g>
				</g>
			</g>
			<g id="LINE_109_">
				<g>
					<g>
						<line class="st13" x1="100.2" y1="331.1" x2="103.2" y2="331.1"/>
						<line class="st16" x1="110.9" y1="331.1" x2="122.5" y2="331.1"/>
						<line class="st13" x1="126.4" y1="331.1" x2="129.4" y2="331.1"/>
					</g>
				</g>
			</g>
			<g id="LINE_110_">
				<g>
					<g>
						<line class="st13" x1="100.2" y1="276" x2="103.2" y2="276"/>
						<line class="st16" x1="110.9" y1="276" x2="122.5" y2="276"/>
						<line class="st13" x1="126.4" y1="276" x2="129.4" y2="276"/>
					</g>
				</g>
			</g>
			<g id="LINE_111_">
				<g>
					<g>
						<line class="st13" x1="96.7" y1="160.8" x2="99.7" y2="160.8"/>
						<line class="st17" x1="105.7" y1="160.8" x2="126.8" y2="160.8"/>
						<line class="st13" x1="129.8" y1="160.8" x2="132.8" y2="160.8"/>
					</g>
				</g>
			</g>
			<g id="LINE_112_">
				<g>
					<g>
						<line class="st13" x1="129.4" y1="440.4" x2="129.4" y2="437.4"/>
						<line class="st18" x1="129.4" y1="431.3" x2="129.4" y2="166.8"/>
						<line class="st13" x1="129.4" y1="163.8" x2="129.4" y2="160.8"/>
					</g>
				</g>
			</g>
			<g id="LINE_126_">
				<g>
					<g>
						<line class="st13" x1="132.8" y1="228.2" x2="129.8" y2="228.2"/>
						<line class="st19" x1="123.5" y1="228.2" x2="114.1" y2="228.2"/>
						<line class="st13" x1="110.9" y1="228.2" x2="107.9" y2="228.2"/>
					</g>
				</g>
			</g>
			<g id="LINE_127_">
				<g>
					<g>
						<line class="st13" x1="132.8" y1="231.4" x2="129.8" y2="231.4"/>
						<line class="st19" x1="123.5" y1="231.4" x2="114.1" y2="231.4"/>
						<line class="st13" x1="110.9" y1="231.4" x2="107.9" y2="231.4"/>
					</g>
				</g>
			</g>
			<g id="LINE_128_">
				<g>
					<line class="st20" x1="107.9" y1="228.2" x2="107.9" y2="231.4"/>
				</g>
			</g>
			<g id="LINE_138_">
				<g>
					<g>
						<line class="st13" x1="100.2" y1="440.4" x2="100.2" y2="437.4"/>
						<line class="st18" x1="100.2" y1="431.3" x2="100.2" y2="166.8"/>
						<line class="st13" x1="100.2" y1="163.8" x2="100.2" y2="160.8"/>
					</g>
				</g>
			</g>
		</g>
		<g id="LINE_139_">
			<g>
				<g>
					<line class="st13" x1="100.2" y1="88.1" x2="103.2" y2="88.1"/>
					<line class="st16" x1="110.9" y1="88.1" x2="122.5" y2="88.1"/>
					<line class="st13" x1="126.4" y1="88.1" x2="129.4" y2="88.1"/>
				</g>
			</g>
		</g>
		<g id="LINE_144_">
			<g>
				<g>
					<line class="st13" x1="67.6" y1="66.5" x2="67.6" y2="63.5"/>
					<line class="st13" x1="67.6" y1="59.3" x2="67.6" y2="56.3"/>
				</g>
			</g>
		</g>
		<g id="LINE_145_">
			<g>
				<g>
					<line class="st13" x1="162.5" y1="66.5" x2="162.5" y2="63.5"/>
					<line class="st13" x1="162.5" y1="59.4" x2="162.5" y2="56.4"/>
				</g>
			</g>
		</g>
		<g id="LINE_146_">
			<g>
				<g>
					<line class="st13" x1="82.8" y1="62.9" x2="82.8" y2="59.9"/>
					<line class="st13" x1="82.8" y1="57.7" x2="82.8" y2="54.7"/>
				</g>
			</g>
		</g>
		<g id="LINE_149_">
			<g>
				<g>
					<line class="st13" x1="100.2" y1="66.5" x2="103.2" y2="66.5"/>
					<line class="st16" x1="110.9" y1="66.5" x2="122.5" y2="66.5"/>
					<line class="st13" x1="126.4" y1="66.5" x2="129.4" y2="66.5"/>
				</g>
			</g>
		</g>
		<g id="LINE_155_">
			<g>
				<g>
					<line class="st13" x1="146.7" y1="62.9" x2="146.7" y2="59.9"/>
					<line class="st13" x1="146.7" y1="57.7" x2="146.7" y2="54.7"/>
				</g>
			</g>
		</g>
	</g>
	<g>
		<g>
			<line class="st13" x1="147.1" y1="279.3" x2="149.9" y2="278.1"/>
			<line class="st21" x1="153.2" y1="276.7" x2="158.2" y2="274.6"/>
			<line class="st13" x1="159.9" y1="273.9" x2="162.6" y2="272.7"/>
		</g>
	</g>
</g>
</svg>
