<?xml version="1.0" encoding="utf-8"?>
<!-- Generator: Adobe Illustrator 25.2.1, SVG Export Plug-In . SVG Version: 6.00 Build 0)  -->
<svg version="1.1" id="_x30_" xmlns="http://www.w3.org/2000/svg" xmlns:xlink="http://www.w3.org/1999/xlink" x="0px" y="0px"
	 viewBox="0 0 552.8 394.1" style="enable-background:new 0 0 552.8 394.1;" xml:space="preserve">
<style type="text/css">
	.st0{fill:none;}
	.st1{fill:none;stroke:#231F20;stroke-width:0.75;stroke-miterlimit:10;}
	.st2{fill:url(#SVGID_1_);}
	.st3{fill:none;stroke:#231F20;stroke-width:0.25;stroke-miterlimit:10;}
	.st4{fill:#231F20;}
	.st5{font-family:'ArialMT';}
	.st6{font-size:12px;}
	.st7{fill:none;stroke:#231F20;stroke-linecap:round;stroke-linejoin:round;stroke-miterlimit:10;}
	.st8{fill:none;stroke:#231F20;stroke-width:0.75;stroke-miterlimit:10;stroke-dasharray:1.034900e-02,0;}
	.st9{fill:none;stroke:#231F20;stroke-width:0.75;stroke-miterlimit:10;stroke-dasharray:12.4189,6.1991,1.034900e-02,0;}
</style>
<pattern  y="621.7" width="141.7" height="133.5" patternUnits="userSpaceOnUse" id="Brick" viewBox="28.7 -143.1 141.7 133.5" style="overflow:visible;">
	<g>
		<rect x="28.7" y="-143.1" class="st0" width="141.7" height="133.5"/>
		<g>
			<rect x="170.5" y="-13.7" class="st1" width="28.3" height="13.4"/>
		</g>
		<g>
			<rect x="28.7" y="-13.7" class="st1" width="28.3" height="13.4"/>
			<rect x="57.1" y="-13.7" class="st1" width="28.3" height="13.4"/>
			<rect x="85.4" y="-13.7" class="st1" width="28.3" height="13.4"/>
			<rect x="113.8" y="-13.7" class="st1" width="28.3" height="13.4"/>
			<rect x="142.1" y="-13.7" class="st1" width="28.3" height="13.4"/>
		</g>
		<g>
			<rect x="0.4" y="-13.7" class="st1" width="28.3" height="13.4"/>
		</g>
		<g>
			<rect x="170.5" y="-147.3" class="st1" width="28.3" height="13.4"/>
			<rect x="156.3" y="-133.9" class="st1" width="28.3" height="13.4"/>
			<rect x="170.5" y="-120.5" class="st1" width="28.3" height="13.4"/>
			<rect x="156.3" y="-107.2" class="st1" width="28.3" height="13.4"/>
			<rect x="170.5" y="-93.8" class="st1" width="28.3" height="13.4"/>
			<rect x="156.3" y="-80.4" class="st1" width="28.3" height="13.4"/>
			<rect x="170.5" y="-67.1" class="st1" width="28.3" height="13.4"/>
			<rect x="156.3" y="-53.7" class="st1" width="28.3" height="13.4"/>
			<rect x="170.5" y="-40.3" class="st1" width="28.3" height="13.4"/>
			<rect x="156.3" y="-27" class="st1" width="28.3" height="13.4"/>
		</g>
		<g>
			<rect x="28.7" y="-147.3" class="st1" width="28.3" height="13.4"/>
			<rect x="57.1" y="-147.3" class="st1" width="28.3" height="13.4"/>
			<rect x="85.4" y="-147.3" class="st1" width="28.3" height="13.4"/>
			<rect x="113.8" y="-147.3" class="st1" width="28.3" height="13.4"/>
			<rect x="142.1" y="-147.3" class="st1" width="28.3" height="13.4"/>
			<rect x="14.5" y="-133.9" class="st1" width="28.3" height="13.4"/>
			<rect x="42.9" y="-133.9" class="st1" width="28.3" height="13.4"/>
			<rect x="71.2" y="-133.9" class="st1" width="28.3" height="13.4"/>
			<rect x="99.6" y="-133.9" class="st1" width="28.3" height="13.4"/>
			<rect x="127.9" y="-133.9" class="st1" width="28.3" height="13.4"/>
			<rect x="28.7" y="-120.5" class="st1" width="28.3" height="13.4"/>
			<rect x="57.1" y="-120.5" class="st1" width="28.3" height="13.4"/>
			<rect x="85.4" y="-120.5" class="st1" width="28.3" height="13.4"/>
			<rect x="113.8" y="-120.5" class="st1" width="28.3" height="13.4"/>
			<rect x="142.1" y="-120.5" class="st1" width="28.3" height="13.4"/>
			<rect x="14.5" y="-107.2" class="st1" width="28.3" height="13.4"/>
			<rect x="42.9" y="-107.2" class="st1" width="28.3" height="13.4"/>
			<rect x="71.2" y="-107.2" class="st1" width="28.3" height="13.4"/>
			<rect x="99.6" y="-107.2" class="st1" width="28.3" height="13.4"/>
			<rect x="127.9" y="-107.2" class="st1" width="28.3" height="13.4"/>
			<rect x="28.7" y="-93.8" class="st1" width="28.3" height="13.4"/>
			<rect x="57.1" y="-93.8" class="st1" width="28.3" height="13.4"/>
			<rect x="85.4" y="-93.8" class="st1" width="28.3" height="13.4"/>
			<rect x="113.8" y="-93.8" class="st1" width="28.3" height="13.4"/>
			<rect x="142.1" y="-93.8" class="st1" width="28.3" height="13.4"/>
			<rect x="14.5" y="-80.4" class="st1" width="28.3" height="13.4"/>
			<rect x="42.9" y="-80.4" class="st1" width="28.3" height="13.4"/>
			<rect x="71.2" y="-80.4" class="st1" width="28.3" height="13.4"/>
			<rect x="99.6" y="-80.4" class="st1" width="28.3" height="13.4"/>
			<rect x="127.9" y="-80.4" class="st1" width="28.3" height="13.4"/>
			<rect x="28.7" y="-67.1" class="st1" width="28.3" height="13.4"/>
			<rect x="57.1" y="-67.1" class="st1" width="28.3" height="13.4"/>
			<rect x="85.4" y="-67.1" class="st1" width="28.3" height="13.4"/>
			<rect x="113.8" y="-67.1" class="st1" width="28.3" height="13.4"/>
			<rect x="142.1" y="-67.1" class="st1" width="28.3" height="13.4"/>
			<rect x="14.5" y="-53.7" class="st1" width="28.3" height="13.4"/>
			<rect x="42.9" y="-53.7" class="st1" width="28.3" height="13.4"/>
			<rect x="71.2" y="-53.7" class="st1" width="28.3" height="13.4"/>
			<rect x="99.6" y="-53.7" class="st1" width="28.3" height="13.4"/>
			<rect x="127.9" y="-53.7" class="st1" width="28.3" height="13.4"/>
			<rect x="28.7" y="-40.3" class="st1" width="28.3" height="13.4"/>
			<rect x="57.1" y="-40.3" class="st1" width="28.3" height="13.4"/>
			<rect x="85.4" y="-40.3" class="st1" width="28.3" height="13.4"/>
			<rect x="113.8" y="-40.3" class="st1" width="28.3" height="13.4"/>
			<rect x="142.1" y="-40.3" class="st1" width="28.3" height="13.4"/>
			<rect x="14.5" y="-27" class="st1" width="28.3" height="13.4"/>
			<rect x="42.9" y="-27" class="st1" width="28.3" height="13.4"/>
			<rect x="71.2" y="-27" class="st1" width="28.3" height="13.4"/>
			<rect x="99.6" y="-27" class="st1" width="28.3" height="13.4"/>
			<rect x="127.9" y="-27" class="st1" width="28.3" height="13.4"/>
		</g>
		<g>
			<rect x="0.4" y="-147.3" class="st1" width="28.3" height="13.4"/>
			<rect x="0.4" y="-120.5" class="st1" width="28.3" height="13.4"/>
			<rect x="0.4" y="-93.8" class="st1" width="28.3" height="13.4"/>
			<rect x="0.4" y="-67.1" class="st1" width="28.3" height="13.4"/>
			<rect x="0.4" y="-40.3" class="st1" width="28.3" height="13.4"/>
		</g>
	</g>
</pattern>
<pattern  id="SVGID_1_" xlink:href="#Brick" patternTransform="matrix(0.8131 0 0 0.8131 -997.1964 -1642.8066)">
</pattern>
<polygon class="st2" points="190,239.5 156.1,250.5 156.1,121.2 190,121.2 "/>
<g id="LINE_4_">
	<g id="LINE_21_">
		<g>
			<g>
				<g>
					<g>
						<g>
							<line class="st3" x1="199.1" y1="102" x2="325.1" y2="102"/>
							<g>
								<polygon class="st4" points="201,104.9 190.2,102 201,99.1 								"/>
							</g>
							<g>
								<polygon class="st4" points="323.1,104.9 334,102 323.1,99.1 								"/>
							</g>
						</g>
					</g>
				</g>
			</g>
		</g>
	</g>
</g>
<g id="LINE_5_">
	<g id="LINE_16_">
		<g>
			<g>
				<g>
					<g>
						<g>
							<line class="st3" x1="133" y1="103.6" x2="133" y2="112.3"/>
							<g>
								<polygon class="st4" points="130.1,110.3 133,121.1 136,110.3 								"/>
							</g>
						</g>
					</g>
				</g>
			</g>
		</g>
	</g>
</g>
<g id="POLYLINE_4_">
	<g id="POLYLINE_2_">
		<g>
			<g>
				<g>
					<g>
						<g>
							<polyline class="st3" points="168.6,113.1 153.6,80 100.2,80 							"/>
							<g>
								<polygon class="st4" points="170.4,110.1 172.2,121.1 165.1,112.5 								"/>
							</g>
						</g>
					</g>
				</g>
			</g>
		</g>
	</g>
</g>
<g id="MTEXT">
</g>
<g id="MTEXT_1_">
</g>
<g id="MTEXT_2_">
</g>
<g id="MTEXT_3_">
	<g>
		<text transform="matrix(1 0 0 1 28.5371 39.0807)"><tspan x="0" y="0" class="st4 st5 st6">Chimney termination height – </tspan><tspan x="0" y="14.4" class="st4 st5 st6">300 mm min. above the </tspan><tspan x="0" y="28.8" class="st4 st5 st6">highest part of the building </tspan><tspan x="0" y="43.2" class="st4 st5 st6">within 3.6 m   </tspan></text>
	</g>
</g>
<g>
	<g id="MTEXT_4_">
		<g>
			<text transform="matrix(1 0 0 1 197.2354 177.3903)" class="st4 st5 st6">Chimney</text>
		</g>
	</g>
	<g id="MTEXT_5_">
		<g>
			<text transform="matrix(1 0 0 1 402.6172 160.0934)" class="st4 st5 st6">Roof line</text>
		</g>
	</g>
</g>
<g id="MTEXT_6_">
	<g>
		<text transform="matrix(1 0 0 1 247.0132 99.2971)" class="st4 st5 st6">3.6 m</text>
	</g>
</g>
<g>
	<g id="MTEXT_7_">
		<g>
			<text transform="matrix(0 -1 1 0 144.123 196.5065)" class="st4 st5 st6">min.</text>
		</g>
	</g>
	<g id="MTEXT_8_">
		<g>
			<text transform="matrix(0 -1 1 0 129.0801 206.2575)" class="st4 st5 st6">300 mm</text>
		</g>
	</g>
</g>
<g>
	<g id="LINE_6_">
		<g>
			<line class="st7" x1="65.6" y1="365.8" x2="524.4" y2="365.8"/>
		</g>
	</g>
	<g id="LINE_7_">
		<g>
			<line class="st7" x1="92.5" y1="365.8" x2="92.5" y2="272.4"/>
		</g>
	</g>
	<g id="LINE_8_">
		<g>
			<line class="st7" x1="489.1" y1="365.8" x2="489.1" y2="230.4"/>
		</g>
	</g>
	<g id="LINE_9_">
		<g>
			<line class="st7" x1="489.1" y1="230.4" x2="357.8" y2="134.4"/>
		</g>
	</g>
	<g id="LINE_10_">
		<g>
			<line class="st7" x1="213.3" y1="231.4" x2="357.8" y2="134.4"/>
		</g>
	</g>
	<g id="LINE_11_">
		<g>
			<line class="st7" x1="92.5" y1="272.4" x2="213.3" y2="231.4"/>
		</g>
	</g>
	<g id="LINE_12_">
		<g>
			<line class="st7" x1="190.2" y1="239.2" x2="190.2" y2="121.1"/>
		</g>
	</g>
	<g id="LINE_13_">
		<g>
			<line class="st7" x1="190.2" y1="121.1" x2="155.9" y2="121.1"/>
		</g>
	</g>
	<g id="LINE_14_">
		<g>
			<line class="st7" x1="155.9" y1="121.1" x2="155.9" y2="250.9"/>
		</g>
	</g>
</g>
<g id="LINE">
	<g id="LINE_20_">
		<g>
			<g>
				<g>
					<line class="st1" x1="127.1" y1="150.4" x2="133.1" y2="150.4"/>
					<line class="st8" x1="139.3" y1="150.4" x2="139.3" y2="150.4"/>
					<line class="st9" x1="139.3" y1="150.4" x2="344.2" y2="150.4"/>
					<line class="st1" x1="344.2" y1="150.4" x2="350.2" y2="150.4"/>
				</g>
			</g>
		</g>
	</g>
</g>
<g id="LINE_1_">
	<line class="st3" x1="151.9" y1="121.1" x2="127.1" y2="121.1"/>
</g>
<g id="LINE_2_">
	<line class="st3" x1="190.2" y1="114.2" x2="190.2" y2="96.8"/>
</g>
<g id="LINE_3_">
	<line class="st3" x1="334" y1="143.4" x2="334" y2="96.8"/>
</g>
<line class="st3" x1="133" y1="121.1" x2="133" y2="150.4"/>
<g>
	<g>
		<g>
			<g>
				<g>
					<line class="st3" x1="133" y1="206.3" x2="133.1" y2="159.2"/>
					<g>
						<polygon class="st4" points="136,161.2 133.1,150.4 130.2,161.2 						"/>
					</g>
				</g>
			</g>
		</g>
	</g>
</g>
</svg>
