<?xml version="1.0" encoding="utf-8"?>
<!-- Generator: Adobe Illustrator 25.2.1, SVG Export Plug-In . SVG Version: 6.00 Build 0)  -->
<svg version="1.1" id="_x30_" xmlns="http://www.w3.org/2000/svg" xmlns:xlink="http://www.w3.org/1999/xlink" x="0px" y="0px"
	 viewBox="0 0 552.8 419.5" style="enable-background:new 0 0 552.8 419.5;" xml:space="preserve">
<style type="text/css">
	.st0{fill:none;stroke:#231F20;stroke-width:0.25;stroke-miterlimit:10;}
	.st1{fill:#231F20;}
	.st2{fill:none;stroke:#231F20;stroke-width:0.75;stroke-linecap:round;stroke-linejoin:round;stroke-miterlimit:10;}
	.st3{font-family:'ArialMT';}
	.st4{font-size:12px;}
	.st5{fill:none;stroke:#000000;stroke-width:0.7971;stroke-linecap:round;stroke-linejoin:round;stroke-miterlimit:10;}
	.st6{fill:none;stroke:#231F20;stroke-linecap:round;stroke-linejoin:round;stroke-miterlimit:10;}
</style>
<g id="POLYLINE">
	<g>
		<g>
			<polyline class="st0" points="226.6,306.8 199.3,300 199.3,387.8 172.9,387.8 			"/>
			<g>
				<polygon class="st1" points="225.7,304.4 233.1,308.5 224.7,308.6 				"/>
			</g>
		</g>
	</g>
</g>
<g id="POLYLINE_2_">
	<g>
		<g>
			<polyline class="st0" points="244,213.4 110.2,89.9 67.2,89.9 			"/>
			<g>
				<polygon class="st1" points="244.4,210.8 248.9,218 241.4,214 				"/>
			</g>
		</g>
	</g>
</g>
<g id="LINE_31_">
	<g>
		<g>
			<polyline class="st0" points="355.2,160.5 428.6,48 443.2,48 			"/>
			<g>
				<polygon class="st1" points="357.9,160.5 351.6,166.1 354.2,158.1 				"/>
			</g>
		</g>
	</g>
</g>
<g>
	<g id="LINE_54_">
		<line class="st2" x1="395.8" y1="84.9" x2="378.2" y2="90.6"/>
	</g>
	<g id="LINE_55_">
		<line class="st2" x1="344.6" y1="130.7" x2="291.9" y2="149.5"/>
	</g>
	<g id="LINE_63_">
		<line class="st2" x1="318" y1="83.9" x2="318" y2="110.1"/>
	</g>
	<g id="LINE_64_">
		<line class="st2" x1="374.4" y1="83.8" x2="374.4" y2="91.8"/>
	</g>
	<g id="LINE_65_">
		<line class="st2" x1="404.5" y1="85.7" x2="404.5" y2="105.1"/>
	</g>
	<g id="LINE_66_">
		<line class="st2" x1="318" y1="143.9" x2="318" y2="169.1"/>
	</g>
	<g id="LINE_67_">
		<line class="st2" x1="288.1" y1="123.4" x2="288.1" y2="150.9"/>
	</g>
	<g id="LINE_69_">
		<line class="st2" x1="344.6" y1="105.1" x2="344.6" y2="130.7"/>
	</g>
	<g id="LINE_72_">
		<line class="st2" x1="290.7" y1="83.2" x2="290.7" y2="88.2"/>
	</g>
	<g id="LINE_73_">
		<line class="st2" x1="288.1" y1="83.2" x2="288.1" y2="89"/>
	</g>
	<g id="LINE_75_">
		<line class="st2" x1="310.3" y1="82.5" x2="290.7" y2="88.2"/>
	</g>
	<g id="LINE_77_">
		<line class="st2" x1="374.4" y1="91.8" x2="321.7" y2="108.9"/>
	</g>
	<g id="LINE_126_">
		<line class="st2" x1="321.7" y1="82.8" x2="321.7" y2="108.9"/>
	</g>
	<g id="LINE_129_">
		<line class="st2" x1="291.9" y1="122.2" x2="291.9" y2="149.5"/>
	</g>
	<g id="LINE_130_">
		<line class="st2" x1="348.3" y1="103.9" x2="348.3" y2="127.9"/>
	</g>
	<g id="LINE_131_">
		<line class="st2" x1="321.7" y1="142.5" x2="321.7" y2="168"/>
	</g>
	<g id="LINE_139_">
		<line class="st2" x1="350" y1="132.4" x2="321.7" y2="142.5"/>
	</g>
	<g id="LINE_144_">
		<line class="st2" x1="334.5" y1="79" x2="321.7" y2="82.8"/>
	</g>
	<g id="LINE_146_">
		<line class="st2" x1="404.5" y1="85.7" x2="348.3" y2="103.9"/>
	</g>
	<g id="LINE_150_">
		<line class="st2" x1="378.2" y1="81.5" x2="378.2" y2="90.6"/>
	</g>
	<g id="LINE_155_">
		<line class="st2" x1="344.6" y1="105.1" x2="291.9" y2="122.2"/>
	</g>
	<g>
		<g id="LINE_56_">
			<line class="st2" x1="190.1" y1="83.9" x2="187.4" y2="84.7"/>
		</g>
		<g id="LINE_57_">
			<line class="st2" x1="183.6" y1="82.7" x2="183.6" y2="85.8"/>
		</g>
		<g id="LINE_58_">
			<line class="st2" x1="183.6" y1="123.1" x2="183.6" y2="153.7"/>
		</g>
		<g id="LINE_59_">
			<line class="st2" x1="183.6" y1="191.9" x2="183.6" y2="214"/>
		</g>
		<g id="LINE_61_">
			<line class="st2" x1="221.6" y1="145" x2="221.6" y2="174.7"/>
		</g>
		<g id="LINE_62_">
			<line class="st2" x1="259.2" y1="101" x2="259.2" y2="129.2"/>
		</g>
		<g id="LINE_68_">
			<line class="st2" x1="259.2" y1="164.9" x2="259.2" y2="191.9"/>
		</g>
		<g id="LINE_71_">
			<line class="st2" x1="288.1" y1="89" x2="225.3" y2="107.3"/>
		</g>
		<g id="LINE_74_">
			<line class="st2" x1="221.6" y1="89.1" x2="221.6" y2="108.4"/>
		</g>
		<g id="LINE_76_">
			<line class="st2" x1="259.2" y1="129.2" x2="187.4" y2="152.4"/>
		</g>
		<g id="LINE_78_">
			<line class="st2" x1="318" y1="110.1" x2="262.9" y2="128"/>
		</g>
		<g id="LINE_80_">
			<line class="st2" x1="288.1" y1="150.9" x2="225.3" y2="173.3"/>
		</g>
		<g id="LINE_122_">
			<line class="st2" x1="187.4" y1="122" x2="187.4" y2="152.4"/>
		</g>
		<g id="LINE_123_">
			<line class="st2" x1="225.3" y1="88.6" x2="225.3" y2="107.3"/>
		</g>
		<g id="LINE_124_">
			<line class="st2" x1="187.4" y1="81.9" x2="187.4" y2="84.7"/>
		</g>
		<g id="LINE_127_">
			<line class="st2" x1="262.9" y1="99.9" x2="262.9" y2="128"/>
		</g>
		<g id="LINE_128_">
			<line class="st2" x1="225.3" y1="143.8" x2="225.3" y2="173.3"/>
		</g>
		<g id="LINE_132_">
			<line class="st2" x1="262.9" y1="163.6" x2="262.9" y2="191"/>
		</g>
		<g id="LINE_133_">
			<line class="st2" x1="187.4" y1="190.6" x2="187.4" y2="214.5"/>
		</g>
		<g id="LINE_151_">
			<line class="st2" x1="259.2" y1="101" x2="187.4" y2="122"/>
		</g>
		<g id="LINE_152_">
			<line class="st2" x1="318" y1="83.9" x2="262.9" y2="99.9"/>
		</g>
		<g>
			<g id="LINE_34_">
				<line class="st2" x1="140.9" y1="81.6" x2="140.9" y2="98.3"/>
			</g>
			<g id="LINE_35_">
				<line class="st2" x1="72.4" y1="323.7" x2="94" y2="329.5"/>
			</g>
			<g id="LINE_36_">
				<line class="st2" x1="140.9" y1="98.3" x2="115.4" y2="95.7"/>
			</g>
			<g id="LINE_37_">
				<line class="st2" x1="72.4" y1="291.7" x2="140.9" y2="308.3"/>
			</g>
			<g id="LINE_38_">
				<line class="st2" x1="72.4" y1="295.4" x2="94" y2="300.7"/>
			</g>
			<g id="LINE_39_">
				<line class="st2" x1="72.4" y1="259" x2="94" y2="263.7"/>
			</g>
			<g id="LINE_40_">
				<line class="st2" x1="72.4" y1="262.3" x2="140.9" y2="277.5"/>
			</g>
			<g id="LINE_41_">
				<line class="st2" x1="72.4" y1="224.6" x2="140.9" y2="238.1"/>
			</g>
			<g id="LINE_42_">
				<line class="st2" x1="72.4" y1="228.4" x2="94" y2="232.7"/>
			</g>
			<g id="LINE_43_">
				<line class="st2" x1="88.5" y1="194.5" x2="94" y2="195.4"/>
			</g>
			<g id="LINE_44_">
				<line class="st2" x1="97.7" y1="330.5" x2="140.9" y2="342"/>
			</g>
			<g id="LINE_45_">
				<line class="st2" x1="97.7" y1="301.6" x2="140.9" y2="312.2"/>
			</g>
			<g id="LINE_46_">
				<line class="st2" x1="97.7" y1="264.6" x2="140.9" y2="274"/>
			</g>
			<g id="LINE_47_">
				<line class="st2" x1="94" y1="300.7" x2="94" y2="329.5"/>
			</g>
			<g id="LINE_48_">
				<line class="st2" x1="94" y1="232.7" x2="94" y2="263.7"/>
			</g>
			<g id="LINE_49_">
				<line class="st2" x1="97.7" y1="233.4" x2="140.9" y2="242"/>
			</g>
			<g id="LINE_50_">
				<line class="st2" x1="94" y1="164.1" x2="94" y2="195.4"/>
			</g>
			<g id="LINE_51_">
				<line class="st2" x1="94.4" y1="160.6" x2="140.9" y2="167.5"/>
			</g>
			<g id="LINE_52_">
				<line class="st2" x1="97.7" y1="196.1" x2="140.9" y2="203.5"/>
			</g>
			<g id="LINE_53_">
				<line class="st2" x1="102" y1="127.1" x2="140.9" y2="132"/>
			</g>
			<g id="LINE_60_">
				<line class="st2" x1="183.6" y1="153.7" x2="140.9" y2="167.5"/>
			</g>
			<g id="LINE_70_">
				<line class="st2" x1="221.6" y1="108.4" x2="140.9" y2="132"/>
			</g>
			<g id="LINE_79_">
				<line class="st2" x1="221.6" y1="174.7" x2="140.9" y2="203.5"/>
			</g>
			<g id="LINE_81_">
				<line class="st2" x1="140.9" y1="101.9" x2="140.9" y2="132"/>
			</g>
			<g id="LINE_82_">
				<line class="st2" x1="140.9" y1="135.5" x2="140.9" y2="167.5"/>
			</g>
			<g id="LINE_83_">
				<line class="st2" x1="140.9" y1="171.2" x2="140.9" y2="203.5"/>
			</g>
			<g id="LINE_84_">
				<line class="st2" x1="140.9" y1="207.2" x2="140.9" y2="238.1"/>
			</g>
			<g id="LINE_85_">
				<line class="st2" x1="140.9" y1="242" x2="140.9" y2="274"/>
			</g>
			<g id="LINE_86_">
				<line class="st2" x1="140.9" y1="277.5" x2="140.9" y2="308.3"/>
			</g>
			<g id="LINE_87_">
				<line class="st2" x1="140.9" y1="312.2" x2="140.9" y2="342"/>
			</g>
			<g id="LINE_89_">
				<line class="st2" x1="154.4" y1="302.2" x2="140.9" y2="308.3"/>
			</g>
			<g id="LINE_90_">
				<line class="st2" x1="156.2" y1="305.2" x2="140.9" y2="312.2"/>
			</g>
			<g id="LINE_91_">
				<line class="st2" x1="182.5" y1="322" x2="140.9" y2="342"/>
			</g>
			<g id="LINE_113_">
				<line class="st2" x1="153.9" y1="236.9" x2="140.9" y2="242"/>
			</g>
			<g id="LINE_114_">
				<line class="st2" x1="146.7" y1="275.4" x2="140.9" y2="277.5"/>
			</g>
			<g id="LINE_115_">
				<line class="st2" x1="146.7" y1="272" x2="140.9" y2="274"/>
			</g>
			<g id="LINE_116_">
				<line class="st2" x1="181.8" y1="222.3" x2="140.9" y2="238.1"/>
			</g>
			<g id="LINE_119_">
				<line class="st2" x1="97.7" y1="301.6" x2="97.7" y2="330.5"/>
			</g>
			<g id="LINE_120_">
				<line class="st2" x1="97.7" y1="233.4" x2="97.7" y2="264.6"/>
			</g>
			<g id="LINE_121_">
				<line class="st2" x1="97.7" y1="164.6" x2="97.7" y2="196.1"/>
			</g>
			<g>
				<g id="LINE_93_">
					<line class="st2" x1="226.4" y1="336.9" x2="224.1" y2="338"/>
				</g>
				<g>
					<g id="LINE_88_">
						<line class="st2" x1="140.9" y1="346.1" x2="140.9" y2="353.1"/>
					</g>
					<g id="LINE_92_">
						<line class="st2" x1="217.5" y1="337.4" x2="192.5" y2="350.2"/>
					</g>
					<g id="LINE_94_">
						<line class="st2" x1="302" y1="357.7" x2="261.8" y2="380.8"/>
					</g>
					<g id="LINE_95_">
						<line class="st2" x1="306" y1="358.9" x2="290.7" y2="367.8"/>
					</g>
					<g id="LINE_96_">
						<line class="st2" x1="183.6" y1="331.2" x2="183.6" y2="350.4"/>
					</g>
					<g id="LINE_97_">
						<line class="st2" x1="224.1" y1="338" x2="224.1" y2="352.7"/>
					</g>
					<g id="LINE_98_">
						<line class="st2" x1="261.8" y1="351.9" x2="261.8" y2="380.8"/>
					</g>
					<g id="LINE_99_">
						<line class="st2" x1="288.1" y1="369.3" x2="288.1" y2="387.8"/>
					</g>
					<g id="LINE_100_">
						<line class="st2" x1="290.7" y1="367.8" x2="290.7" y2="387.4"/>
					</g>
					<g id="LINE_101_">
						<line class="st2" x1="320.6" y1="380.8" x2="320.6" y2="390.6"/>
					</g>
					<g id="LINE_102_">
						<line class="st2" x1="339.2" y1="366.4" x2="305.5" y2="385.8"/>
					</g>
					<g id="LINE_103_">
						<line class="st2" x1="343.5" y1="367.4" x2="320.6" y2="380.8"/>
					</g>
					<g id="LINE_104_">
						<line class="st2" x1="375.1" y1="376" x2="354.5" y2="387.9"/>
					</g>
					<g id="LINE_105_">
						<line class="st2" x1="378" y1="377.9" x2="358.1" y2="389.5"/>
					</g>
					<g id="LINE_106_">
						<line class="st2" x1="261.6" y1="348.1" x2="225.6" y2="366.5"/>
					</g>
					<g id="LINE_107_">
						<line class="st2" x1="266.8" y1="349.3" x2="261.8" y2="351.9"/>
					</g>
					<g id="LINE_108_">
						<line class="st2" x1="220.4" y1="339.9" x2="199.9" y2="350.5"/>
					</g>
					<g id="LINE_109_">
						<line class="st2" x1="258.1" y1="353.8" x2="224.2" y2="371.2"/>
					</g>
					<g id="LINE_110_">
						<line class="st2" x1="258.1" y1="383" x2="252.6" y2="386.1"/>
					</g>
					<g id="LINE_111_">
						<line class="st2" x1="288.1" y1="369.3" x2="258.7" y2="386.3"/>
					</g>
					<g id="LINE_112_">
						<line class="st2" x1="316.8" y1="382.9" x2="307.6" y2="388.3"/>
					</g>
					<g id="LINE_117_">
						<line class="st2" x1="72.4" y1="327.8" x2="140.9" y2="346.1"/>
					</g>
					<g id="LINE_118_">
						<line class="st2" x1="183.8" y1="325.5" x2="140.9" y2="346.1"/>
					</g>
					<g id="LINE_134_">
						<line class="st2" x1="187.4" y1="330.3" x2="187.4" y2="350"/>
					</g>
					<g id="LINE_135_">
						<line class="st2" x1="220.4" y1="339.9" x2="220.4" y2="352.3"/>
					</g>
					<g id="LINE_136_">
						<line class="st2" x1="258.1" y1="353.8" x2="258.1" y2="383"/>
					</g>
					<g id="LINE_137_">
						<line class="st2" x1="316.8" y1="382.9" x2="316.8" y2="390.6"/>
					</g>
				</g>
			</g>
			<g id="LINE_138_">
				<line class="st2" x1="86.1" y1="197.6" x2="140.9" y2="207.1"/>
			</g>
			<g id="LINE_140_">
				<line class="st2" x1="183.6" y1="191.9" x2="140.9" y2="207.2"/>
			</g>
			<g id="LINE_141_">
				<line class="st2" x1="140.9" y1="101.8" x2="112.8" y2="98.9"/>
			</g>
			<g id="LINE_142_">
				<line class="st2" x1="184.6" y1="89.2" x2="140.9" y2="101.9"/>
			</g>
			<g id="LINE_143_">
				<line class="st2" x1="101.6" y1="130.6" x2="140.9" y2="135.5"/>
			</g>
			<g id="LINE_145_">
				<line class="st2" x1="90.5" y1="163.5" x2="94" y2="164.1"/>
			</g>
			<g id="LINE_147_">
				<line class="st2" x1="97.7" y1="164.6" x2="140.9" y2="171"/>
			</g>
			<g id="LINE_148_">
				<line class="st2" x1="183.6" y1="123.1" x2="140.9" y2="135.6"/>
			</g>
			<g id="LINE_149_">
				<line class="st2" x1="183.6" y1="85.8" x2="140.9" y2="98.3"/>
			</g>
			<g id="LINE_153_">
				<line class="st2" x1="221.6" y1="145" x2="140.9" y2="171.2"/>
			</g>
		</g>
		<g id="LINE_154_">
			<line class="st2" x1="288.1" y1="123.4" x2="225.3" y2="143.8"/>
		</g>
		<g id="LINE_156_">
			<line class="st2" x1="259.2" y1="164.9" x2="187.4" y2="190.6"/>
		</g>
		<g id="LINE_157_">
			<line class="st2" x1="318" y1="143.9" x2="262.9" y2="163.6"/>
		</g>
	</g>
</g>
<g id="MTEXT_1_">
	<text transform="matrix(1 0 0 1 448.8655 51.1902)"><tspan x="0" y="0" class="st3 st4">Anticapillary </tspan><tspan x="0" y="14.4" class="st3 st4">break</tspan></text>
</g>
<g id="MTEXT_6_">
	<text transform="matrix(1 0 0 1 28.3464 37.1524)"><tspan x="0" y="0" class="st3 st4">Bituminous coated </tspan><tspan x="0" y="14.4" class="st3 st4">or soft zinc over </tspan><tspan x="0" y="28.8" class="st3 st4">flashing stepped and </tspan><tspan x="0" y="43.2" class="st3 st4">tapered to follow fall </tspan><tspan x="0" y="57.6" class="st3 st4">of roof</tspan></text>
</g>
<g id="MTEXT_7_">
	<text transform="matrix(1 0 0 1 28.3463 390.8814)" class="st3 st4">Fasten at 500 mm centres</text>
</g>
<g id="LINE_192_">
	<line class="st5" x1="146.7" y1="260.1" x2="146.7" y2="296.7"/>
</g>
<g id="SPLINE_5_">
	<path class="st5" d="M146.7,296.7c0,1.4,0.9,2.5,2.3,2.8"/>
</g>
<g>
	<g id="LINE">
		<line class="st6" x1="240.4" y1="316.2" x2="462.9" y2="170.1"/>
	</g>
	<g id="LINE_1_">
		<line class="st6" x1="459.3" y1="255.2" x2="335.2" y2="354.3"/>
	</g>
	<g id="LINE_2_">
		<line class="st6" x1="461.4" y1="256.2" x2="338.3" y2="355"/>
	</g>
	<g id="LINE_3_">
		<line class="st6" x1="462" y1="258.6" x2="348.8" y2="350.1"/>
	</g>
	<g id="LINE_4_">
		<line class="st6" x1="462.5" y1="263.2" x2="354.2" y2="351"/>
	</g>
	<g id="LINE_5_">
		<line class="st6" x1="459.4" y1="227.4" x2="300.1" y2="347"/>
	</g>
	<g id="LINE_6_">
		<line class="st6" x1="460.7" y1="229.5" x2="303.7" y2="347.9"/>
	</g>
	<g id="LINE_7_">
		<line class="st6" x1="461.7" y1="231.2" x2="314.1" y2="343"/>
	</g>
	<g id="LINE_8_">
		<line class="st6" x1="461.9" y1="235.5" x2="320.2" y2="344"/>
	</g>
	<g id="LINE_9_">
		<line class="st6" x1="458.1" y1="204.6" x2="268.3" y2="339.4"/>
	</g>
	<g id="LINE_10_">
		<line class="st6" x1="461.6" y1="205.3" x2="272.7" y2="340.5"/>
	</g>
	<g id="LINE_11_">
		<line class="st6" x1="461.8" y1="207.4" x2="283.1" y2="335.6"/>
	</g>
	<g id="LINE_12_">
		<line class="st6" x1="462.8" y1="210.8" x2="289.1" y2="336.7"/>
	</g>
	<g id="LINE_13_">
		<line class="st6" x1="233.7" y1="318.5" x2="228.5" y2="322"/>
	</g>
	<g id="LINE_14_">
		<line class="st6" x1="228.7" y1="317.4" x2="223.2" y2="321.1"/>
	</g>
	<g id="LINE_15_">
		<line class="st6" x1="224.8" y1="316.5" x2="211.1" y2="325.8"/>
	</g>
	<g id="LINE_16_">
		<line class="st6" x1="216.7" y1="314.7" x2="203.1" y2="323.9"/>
	</g>
	<g id="LINE_17_">
		<line class="st6" x1="199.8" y1="310.9" x2="194.8" y2="314"/>
	</g>
	<g id="LINE_18_">
		<line class="st6" x1="194.8" y1="309.8" x2="189.4" y2="313.1"/>
	</g>
	<g id="LINE_19_">
		<line class="st6" x1="191.5" y1="309" x2="177.4" y2="317.7"/>
	</g>
	<g id="LINE_20_">
		<line class="st6" x1="183.4" y1="307.2" x2="169.4" y2="315.8"/>
	</g>
	<g id="LINE_21_">
		<line class="st6" x1="165.5" y1="303.2" x2="161.1" y2="306"/>
	</g>
	<g id="LINE_22_">
		<line class="st6" x1="462.9" y1="172.2" x2="241.7" y2="318"/>
	</g>
	<g id="LINE_23_">
		<line class="st6" x1="242.6" y1="328" x2="236.9" y2="331.9"/>
	</g>
	<g id="LINE_24_">
		<line class="st6" x1="464" y1="185.6" x2="254.7" y2="328.6"/>
	</g>
	<g id="LINE_25_">
		<line class="st6" x1="463.1" y1="189.4" x2="260" y2="329.6"/>
	</g>
	<g id="LINE_26_">
		<line class="st6" x1="236.6" y1="307.3" x2="235" y2="311.8"/>
	</g>
	<g id="LINE_27_">
		<line class="st6" x1="360.8" y1="227.4" x2="359.5" y2="231"/>
	</g>
	<g id="LINE_28_">
		<line class="st6" x1="453.9" y1="167.3" x2="452.7" y2="170.6"/>
	</g>
	<g id="LINE_29_">
		<line class="st6" x1="162.1" y1="302.5" x2="157.4" y2="305.3"/>
	</g>
	<g id="ELLIPSE">
		<path class="st6" d="M455.5,168.9c0-1-1-1.7-2.2-1.7c-1.2,0-2.2,0.8-2.2,1.7c0,1,1,1.7,2.2,1.7
			C454.5,170.7,455.5,169.9,455.5,168.9L455.5,168.9z"/>
	</g>
	<g id="LINE_32_">
		<line class="st6" x1="360.7" y1="227.5" x2="359.5" y2="230.9"/>
	</g>
	<g id="ELLIPSE_1_">
		<path class="st6" d="M362.6,229.2c0-1.1-1.1-1.9-2.4-1.9c-1.4,0-2.4,0.9-2.4,1.9c0,1.1,1.1,1.9,2.4,1.9
			C361.5,231.1,362.6,230.3,362.6,229.2L362.6,229.2z"/>
	</g>
	<g id="LINE_33_">
		<line class="st6" x1="236.4" y1="307.9" x2="235.2" y2="311.2"/>
	</g>
	<g id="ELLIPSE_2_">
		<path class="st6" d="M238.7,309.5c0-1.3-1.3-2.3-2.9-2.3s-2.9,1-2.9,2.3s1.3,2.3,2.9,2.3S238.7,310.8,238.7,309.5L238.7,309.5z"/>
	</g>
	<g id="LINE_158_">
		<line class="st6" x1="148.7" y1="299.4" x2="379.2" y2="167.8"/>
	</g>
	<g id="LINE_159_">
		<line class="st6" x1="406.2" y1="150.4" x2="146.9" y2="297.9"/>
	</g>
	<g id="LINE_160_">
		<line class="st6" x1="464.6" y1="89.4" x2="353.9" y2="132.5"/>
	</g>
	<g id="LINE_161_">
		<line class="st6" x1="464.6" y1="91.2" x2="355.1" y2="134.6"/>
	</g>
	<g id="LINE_162_">
		<line class="st6" x1="412.7" y1="375.5" x2="185.3" y2="324.5"/>
	</g>
	<g id="LINE_163_">
		<line class="st6" x1="414.7" y1="373" x2="185.3" y2="321.5"/>
	</g>
	<g id="LINE_164_">
		<line class="st6" x1="412" y1="369" x2="365.3" y2="358.5"/>
	</g>
	<g id="LINE_165_">
		<line class="st6" x1="412.9" y1="366.5" x2="367.1" y2="356.2"/>
	</g>
	<g id="LINE_166_">
		<line class="st6" x1="416.2" y1="364.1" x2="369.5" y2="353.6"/>
	</g>
	<g id="LINE_167_">
		<line class="st6" x1="412.7" y1="360.1" x2="372.6" y2="351.1"/>
	</g>
	<g id="LINE_168_">
		<line class="st6" x1="407.5" y1="355.8" x2="375.9" y2="348.7"/>
	</g>
	<g id="LINE_169_">
		<line class="st6" x1="409.5" y1="353" x2="378.9" y2="346.2"/>
	</g>
	<g id="LINE_170_">
		<line class="st6" x1="411.1" y1="350.2" x2="382" y2="343.7"/>
	</g>
	<g id="LINE_171_">
		<line class="st6" x1="412.7" y1="347.4" x2="386.2" y2="341.5"/>
	</g>
	<g id="LINE_172_">
		<line class="st6" x1="419.7" y1="344.5" x2="391.1" y2="339.4"/>
	</g>
	<g id="LINE_173_">
		<line class="st6" x1="422.2" y1="342.1" x2="394.1" y2="336.9"/>
	</g>
	<g id="LINE_174_">
		<line class="st6" x1="419.9" y1="338.5" x2="395.5" y2="334"/>
	</g>
	<g id="LINE_175_">
		<line class="st6" x1="425.2" y1="335.9" x2="396.8" y2="331.2"/>
	</g>
	<g id="LINE_176_">
		<line class="st6" x1="433.9" y1="334.6" x2="399" y2="328.5"/>
	</g>
	<g id="LINE_177_">
		<line class="st6" x1="454.8" y1="336.6" x2="402.3" y2="326.1"/>
	</g>
	<g id="LINE_178_">
		<line class="st6" x1="454.8" y1="333.4" x2="405.7" y2="323.7"/>
	</g>
	<g id="LINE_179_">
		<line class="st6" x1="357.6" y1="354.1" x2="345.9" y2="351.4"/>
	</g>
	<g id="LINE_180_">
		<line class="st6" x1="361.5" y1="357.6" x2="342" y2="353.3"/>
	</g>
	<g id="LINE_181_">
		<line class="st6" x1="322.9" y1="346.3" x2="312.2" y2="343.9"/>
	</g>
	<g id="LINE_182_">
		<line class="st6" x1="327.3" y1="350" x2="308.4" y2="345.7"/>
	</g>
	<g id="LINE_183_">
		<line class="st6" x1="292" y1="339.3" x2="280.6" y2="336.8"/>
	</g>
	<g id="LINE_184_">
		<line class="st6" x1="295.7" y1="342.9" x2="276.7" y2="338.6"/>
	</g>
	<g id="LINE_185_">
		<line class="st6" x1="262.7" y1="332.8" x2="250.9" y2="330.1"/>
	</g>
	<g id="LINE_186_">
		<line class="st6" x1="265.5" y1="336.1" x2="246.5" y2="331.8"/>
	</g>
	<g id="LINE_187_">
		<line class="st6" x1="231.7" y1="325.8" x2="218.6" y2="322.9"/>
	</g>
	<g id="LINE_188_">
		<line class="st6" x1="234.5" y1="329.1" x2="214.2" y2="324.6"/>
	</g>
	<g id="LINE_189_">
		<line class="st6" x1="198.4" y1="318.3" x2="185.3" y2="315.4"/>
	</g>
	<g id="LINE_190_">
		<line class="st6" x1="201.2" y1="321.7" x2="185.3" y2="318.1"/>
	</g>
	<g id="LINE_191_">
		<line class="st6" x1="182.3" y1="242.6" x2="146.7" y2="260.1"/>
	</g>
	<g id="SPLINE">
		<path class="st6" d="M151.4,236.1c23.7,8.6,49.5,9,73.5,1.3"/>
	</g>
	<g id="SPLINE_1_">
		<path class="st6" d="M224.9,237.3c21.5-6.4,42.4-14.8,62.4-24.9"/>
	</g>
	<g id="SPLINE_2_">
		<path class="st6" d="M182,216.4c11,8.7,25,12.9,39,11.7"/>
	</g>
	<g id="SPLINE_3_">
		<path class="st6" d="M169.7,241.1c8.3-5.4,13.1-14.9,12.2-24.8"/>
	</g>
	<g id="SPLINE_4_">
		<path class="st6" d="M220.9,228c23-0.1,45.7-5.4,66.3-15.6"/>
	</g>
	<g id="LINE_193_">
		<line class="st6" x1="235.7" y1="319" x2="148.9" y2="299.5"/>
	</g>
	<g id="LINE_194_">
		<line class="st6" x1="338.3" y1="355" x2="331.5" y2="353.4"/>
	</g>
	<g id="LINE_195_">
		<line class="st6" x1="364.2" y1="360.1" x2="354.2" y2="351"/>
	</g>
	<g id="LINE_196_">
		<line class="st6" x1="338.3" y1="355" x2="348.8" y2="350.1"/>
	</g>
	<g id="LINE_197_">
		<line class="st6" x1="303.7" y1="347.9" x2="300.1" y2="347"/>
	</g>
	<g id="LINE_198_">
		<line class="st6" x1="303.7" y1="347.9" x2="314.1" y2="343"/>
	</g>
	<g id="LINE_199_">
		<line class="st6" x1="289.1" y1="336.7" x2="283.1" y2="335.6"/>
	</g>
	<g id="LINE_200_">
		<line class="st6" x1="300.1" y1="347" x2="289.1" y2="336.7"/>
	</g>
	<g id="LINE_201_">
		<line class="st6" x1="272.7" y1="340.5" x2="283.1" y2="335.6"/>
	</g>
	<g id="LINE_202_">
		<line class="st6" x1="320.2" y1="344" x2="314.1" y2="343"/>
	</g>
	<g id="LINE_203_">
		<line class="st6" x1="331.5" y1="353.4" x2="320.2" y2="344"/>
	</g>
	<g id="LINE_204_">
		<line class="st6" x1="354.2" y1="351" x2="348.8" y2="350.1"/>
	</g>
	<g id="LINE_205_">
		<line class="st6" x1="272.7" y1="340.5" x2="268.3" y2="339.4"/>
	</g>
	<g id="LINE_206_">
		<line class="st6" x1="260" y1="329.6" x2="254.7" y2="328.6"/>
	</g>
	<g id="LINE_207_">
		<line class="st6" x1="242.7" y1="333.3" x2="254.7" y2="328.6"/>
	</g>
	<g id="LINE_208_">
		<line class="st6" x1="242.7" y1="333.3" x2="236.9" y2="331.9"/>
	</g>
	<g id="LINE_209_">
		<line class="st6" x1="268.3" y1="339.4" x2="260" y2="329.6"/>
	</g>
	<g id="LINE_210_">
		<line class="st6" x1="228.5" y1="322" x2="223.2" y2="321.1"/>
	</g>
	<g id="LINE_211_">
		<line class="st6" x1="211.1" y1="325.8" x2="223.2" y2="321.1"/>
	</g>
	<g id="LINE_212_">
		<line class="st6" x1="236.9" y1="331.9" x2="228.5" y2="322"/>
	</g>
	<g id="LINE_213_">
		<line class="st6" x1="194.8" y1="314" x2="189.4" y2="313.1"/>
	</g>
	<g id="LINE_214_">
		<line class="st6" x1="177.4" y1="317.7" x2="189.4" y2="313.1"/>
	</g>
	<g id="LINE_215_">
		<line class="st6" x1="203.1" y1="323.9" x2="194.8" y2="314"/>
	</g>
	<g id="LINE_216_">
		<line class="st6" x1="211.1" y1="325.8" x2="203.1" y2="323.9"/>
	</g>
	<g id="LINE_217_">
		<line class="st6" x1="161.1" y1="306" x2="157.4" y2="305.3"/>
	</g>
	<g id="LINE_218_">
		<line class="st6" x1="169.4" y1="315.8" x2="161.1" y2="306"/>
	</g>
	<g id="LINE_219_">
		<line class="st6" x1="177.4" y1="317.7" x2="169.4" y2="315.8"/>
	</g>
	<g id="LINE_220_">
		<line class="st6" x1="243.6" y1="329.6" x2="237.5" y2="320.2"/>
	</g>
	<g id="SPLINE_6_">
		<path class="st6" d="M237.5,320.2c-0.4-0.6-1.1-1.1-1.8-1.2"/>
	</g>
	<g id="LINE_221_">
		<line class="st6" x1="463.1" y1="181.5" x2="243.6" y2="329.6"/>
	</g>
	<g id="LINE_222_">
		<line class="st6" x1="351.6" y1="176.4" x2="287.3" y2="212.4"/>
	</g>
	<g id="SPLINE_7_">
		<path class="st6" d="M364.2,360.1c4.3-6.4,6.8-8,9-9.5c2.2-1.5,4-3.1,5.7-4.5c1.6-1.4,3-2.6,4.7-3.5c1.6-0.9,3.5-1.4,5.2-2.1
			c1.7-0.7,3.3-1.6,4.4-2.5c1-0.9,1.5-1.9,2.1-3.3c0.6-1.4,1.3-3.3,2.4-4.8c1.2-1.5,2.8-2.5,4.6-3.8c1.8-1.3,3.8-2.7,5.9-4.1
			c2.1-1.4,4.3-2.7,6.2-3.9c1.9-1.3,3.5-2.5,5.2-3.7c1.7-1.2,3.4-2.4,4.4-3.8c1-1.4,1.4-2.9,1.9-4.1c0.5-1.2,1.2-2,2.2-2.7
			c1-0.7,2.3-1.3,3.5-2.3c1.3-0.9,2.5-2.2,4.1-3.6s3.6-2.9,5.5-4.3c2-1.4,3.9-2.8,5.4-4c1.4-1.3,2.4-2.5,3.6-3.7
			c1.2-1.2,2.7-2.3,4.4-3.7c1.7-1.5,3.8-3.3,7.3-5.3"/>
	</g>
	<g id="LINE_223_">
		<line class="st6" x1="351.6" y1="178" x2="351.6" y2="135.4"/>
	</g>
	<g id="LINE_224_">
		<line class="st6" x1="349" y1="130.5" x2="463.8" y2="87.6"/>
	</g>
	<g id="LINE_225_">
		<line class="st6" x1="464" y1="115" x2="351.6" y2="178"/>
	</g>
	<g id="LINE_226_">
		<line class="st6" x1="351.6" y1="135.4" x2="349" y2="130.5"/>
	</g>
	<g id="LINE_227_">
		<line class="st6" x1="151.4" y1="236.1" x2="181.4" y2="224.3"/>
	</g>
	<g id="LINE_228_">
		<line class="st6" x1="189.2" y1="221.2" x2="351.6" y2="157.5"/>
	</g>
	<g id="LINE_229_">
		<line class="st6" x1="457.9" y1="388.8" x2="187.5" y2="328.1"/>
	</g>
	<g id="LINE_230_">
		<line class="st6" x1="185.3" y1="314.7" x2="185.3" y2="325.3"/>
	</g>
	<g id="SPLINE_8_">
		<path class="st6" d="M185.3,325.3c0,1.4,0.9,2.5,2.3,2.8"/>
	</g>
	<g id="LINE_231_">
		<line class="st6" x1="460.2" y1="323.4" x2="417.7" y2="315.7"/>
	</g>
</g>
</svg>
