<?xml version="1.0" encoding="utf-8"?>
<!-- Generator: Adobe Illustrator 25.2.1, SVG Export Plug-In . SVG Version: 6.00 Build 0)  -->
<svg version="1.1" xmlns="http://www.w3.org/2000/svg" xmlns:xlink="http://www.w3.org/1999/xlink" x="0px" y="0px"
	 viewBox="0 0 552.8 386.4" style="enable-background:new 0 0 552.8 386.4;" xml:space="preserve">
<style type="text/css">
	.st0{fill:none;stroke:#000000;stroke-width:0.8832;stroke-linecap:round;stroke-linejoin:round;stroke-miterlimit:10;}
	.st1{fill:none;stroke:#231F20;stroke-width:0.75;stroke-miterlimit:10;}
	.st2{fill:none;stroke:#231F20;stroke-width:0.75;stroke-miterlimit:10;stroke-dasharray:7.5132,3.7566;}
	.st3{fill:none;stroke:#231F20;stroke-width:0.75;stroke-miterlimit:10;stroke-dasharray:12.1632,6.0816;}
	.st4{fill:none;stroke:#231F20;stroke-width:0.75;stroke-miterlimit:10;stroke-dasharray:11.7545,5.8772;}
	.st5{fill:none;stroke:#231F20;stroke-width:0.75;stroke-miterlimit:10;stroke-dasharray:11.9529,5.9764;}
	.st6{fill:none;stroke:#231F20;stroke-width:0.75;stroke-miterlimit:10;stroke-dasharray:12.3906,6.1953;}
	.st7{fill:none;stroke:#231F20;stroke-width:0.75;stroke-miterlimit:10;stroke-dasharray:11.8496,5.9248;}
	.st8{fill:none;stroke:#231F20;stroke-width:0.75;stroke-miterlimit:10;stroke-dasharray:12.9891,6.4946;}
	.st9{fill:none;stroke:#231F20;stroke-width:0.75;stroke-miterlimit:10;stroke-dasharray:12.518,6.259;}
	.st10{fill:none;stroke:#231F20;stroke-linecap:round;stroke-linejoin:round;stroke-miterlimit:10;}
	.st11{fill:none;stroke:#231F20;stroke-width:0.25;stroke-miterlimit:10;}
	.st12{fill:#231F20;}
	.st13{font-family:'ArialMT';}
	.st14{font-size:12px;}
</style>
<g id="LINE_25">
	<g id="LINE_5_">
		<line class="st0" x1="523.6" y1="112.8" x2="523.6" y2="114.3"/>
	</g>
</g>
<g id="LINE_18_DESH">
	<g>
		<g id="LINE_57_">
			<g>
				<g>
					<line class="st1" x1="503.7" y1="101.2" x2="503.7" y2="107.2"/>
					<line class="st2" x1="503.7" y1="110.9" x2="503.7" y2="120.3"/>
					<line class="st1" x1="503.7" y1="122.2" x2="503.7" y2="128.2"/>
				</g>
			</g>
		</g>
		<g>
			<g>
				<g id="LINE_120_">
					<g>
						<g>
							<line class="st1" x1="332.7" y1="205.8" x2="337.8" y2="202.6"/>
							<line class="st3" x1="343" y1="199.5" x2="496.2" y2="106"/>
							<line class="st1" x1="498.8" y1="104.4" x2="503.9" y2="101.3"/>
						</g>
					</g>
				</g>
				<g id="LINE_119_">
					<g>
						<g>
							<line class="st1" x1="61.7" y1="209.7" x2="67.3" y2="207.5"/>
							<line class="st4" x1="72.7" y1="205.3" x2="266.7" y2="128.3"/>
							<line class="st1" x1="269.4" y1="127.3" x2="275" y2="125.1"/>
						</g>
					</g>
				</g>
				<g id="LINE_118_">
					<g>
						<g>
							<line class="st1" x1="503.7" y1="170.3" x2="497.8" y2="169.1"/>
							<line class="st5" x1="491.9" y1="168" x2="283.8" y2="126.8"/>
							<line class="st1" x1="280.9" y1="126.2" x2="275" y2="125.1"/>
						</g>
					</g>
				</g>
				<g id="LINE_117_">
					<g>
						<g>
							<line class="st1" x1="61.7" y1="131.6" x2="67.4" y2="129.9"/>
							<line class="st6" x1="73.4" y1="128.1" x2="266.2" y2="70.2"/>
							<line class="st1" x1="269.2" y1="69.3" x2="274.9" y2="67.6"/>
						</g>
					</g>
				</g>
				<g id="LINE_116_">
					<g>
						<g>
							<line class="st1" x1="274.9" y1="67.6" x2="280.9" y2="68.5"/>
							<line class="st7" x1="286.7" y1="69.3" x2="494.8" y2="99.9"/>
							<line class="st1" x1="497.7" y1="100.3" x2="503.7" y2="101.2"/>
						</g>
					</g>
				</g>
				<g id="LINE_115_">
					<g>
						<g>
							<line class="st1" x1="274.9" y1="67.6" x2="274.9" y2="73.6"/>
							<line class="st8" x1="274.9" y1="80.1" x2="275" y2="115.8"/>
							<line class="st1" x1="275" y1="119.1" x2="275" y2="125.1"/>
						</g>
					</g>
				</g>
				<g id="LINE_114_">
					<g>
						<g>
							<line class="st1" x1="274.9" y1="67.6" x2="280.6" y2="65.5"/>
							<line class="st9" x1="286.4" y1="63.4" x2="371.8" y2="32.5"/>
							<line class="st1" x1="374.7" y1="31.4" x2="380.3" y2="29.3"/>
						</g>
					</g>
				</g>
			</g>
		</g>
	</g>
</g>
<g id="LINE_50">
	<g>
		<g id="LINE">
			<g>
				<line class="st10" x1="167.6" y1="87.4" x2="380.3" y2="29.3"/>
			</g>
		</g>
		<g id="LINE_1_">
			<g>
				<line class="st10" x1="380.3" y1="29.3" x2="523.6" y2="112.8"/>
			</g>
		</g>
		<g id="LINE_2_">
			<g>
				<line class="st10" x1="167.6" y1="87.4" x2="360.6" y2="225.7"/>
			</g>
		</g>
		<g id="LINE_3_">
			<g>
				<line class="st10" x1="360.6" y1="225.7" x2="523.6" y2="112.8"/>
			</g>
		</g>
		<g id="LINE_4_">
			<g>
				<line class="st10" x1="360.6" y1="228.2" x2="523.6" y2="114.3"/>
			</g>
		</g>
		<g id="LINE_8_">
			<g>
				<line class="st10" x1="360.6" y1="225.7" x2="360.6" y2="228.2"/>
			</g>
		</g>
		<g id="LINE_9_">
			<g>
				<line class="st10" x1="360.6" y1="228.2" x2="167.6" y2="89.5"/>
			</g>
		</g>
		<g id="LINE_10_">
			<g>
				<line class="st10" x1="167.6" y1="87.4" x2="167.6" y2="89.5"/>
			</g>
		</g>
		<g id="LINE_11_">
			<g>
				<line class="st10" x1="167.6" y1="87.4" x2="48.4" y2="134.9"/>
			</g>
		</g>
		<g id="LINE_13_">
			<g>
				<line class="st10" x1="332.7" y1="312" x2="61.7" y2="209.7"/>
			</g>
		</g>
		<g id="LINE_15_">
			<g>
				<line class="st10" x1="49" y1="136.7" x2="167.6" y2="89.5"/>
			</g>
		</g>
		<g id="LINE_16_">
			<g>
				<line class="st10" x1="48.4" y1="134.9" x2="49" y2="136.7"/>
			</g>
		</g>
		<g id="LINE_24_">
			<g>
				<line class="st10" x1="61.7" y1="131.6" x2="61.7" y2="209.7"/>
			</g>
		</g>
		<g id="LINE_26_">
			<g>
				<line class="st10" x1="332.7" y1="208.2" x2="332.7" y2="312"/>
			</g>
		</g>
		<g id="LINE_27_">
			<g>
				<line class="st10" x1="332.7" y1="312" x2="503.7" y2="170.3"/>
			</g>
		</g>
		<g id="LINE_28_">
			<g>
				<line class="st10" x1="503.7" y1="128.2" x2="503.7" y2="170.3"/>
			</g>
		</g>
		<g id="LINE_17_">
			<g>
				<line class="st10" x1="271.2" y1="116.7" x2="296" y2="107.3"/>
			</g>
		</g>
		<g id="LINE_18_">
			<g>
				<line class="st10" x1="300.6" y1="136.9" x2="324.5" y2="126.4"/>
			</g>
		</g>
		<g id="LINE_19_">
			<g>
				<line class="st10" x1="296" y1="107.3" x2="324.5" y2="126.4"/>
			</g>
		</g>
		<g id="LINE_20_">
			<g>
				<line class="st10" x1="271.2" y1="116.7" x2="300.6" y2="136.9"/>
			</g>
		</g>
		<g id="LINE_21_">
			<g>
				<line class="st10" x1="141.5" y1="213.7" x2="219.9" y2="240.7"/>
			</g>
		</g>
		<g id="LINE_22_">
			<g>
				<line class="st10" x1="141.5" y1="167.9" x2="219.9" y2="190.3"/>
			</g>
		</g>
		<line class="st10" x1="219.9" y1="190.3" x2="219.9" y2="240.7"/>
		<g id="LINE_32_">
			<g>
				<line class="st10" x1="141.5" y1="167.9" x2="141.5" y2="213.7"/>
			</g>
		</g>
	</g>
</g>
<g id="LINE_18">
	<g>
		<g id="LINE_42_">
			<g id="LINE_25_">
				<g>
					<g>
						<g>
							<line class="st11" x1="67.9" y1="248.8" x2="326.5" y2="346.4"/>
							<g>
								<polygon class="st12" points="68.5,251.3 61.7,246.4 70.1,247.2 								"/>
							</g>
							<g>
								<polygon class="st12" points="324.3,347.9 332.7,348.7 325.9,343.8 								"/>
							</g>
						</g>
					</g>
				</g>
			</g>
		</g>
		<g id="LINE_41_">
			<g id="LINE_23_">
				<g>
					<g>
						<g>
							<line class="st11" x1="337.8" y1="344.5" x2="498.6" y2="211.2"/>
							<g>
								<polygon class="st12" points="340.4,345.2 332.7,348.7 337.6,341.9 								"/>
							</g>
							<g>
								<polygon class="st12" points="498.8,213.9 503.7,207 496,210.5 								"/>
							</g>
						</g>
					</g>
				</g>
			</g>
		</g>
	</g>
	<g>
		<g id="LINE_40_">
			<g>
				<line class="st11" x1="61.7" y1="223.9" x2="61.7" y2="255.7"/>
			</g>
		</g>
		<g id="LINE_39_">
			<g>
				<line class="st11" x1="332.7" y1="326.2" x2="332.7" y2="358.1"/>
			</g>
		</g>
		<g id="LINE_38_">
			<g>
				<line class="st11" x1="503.7" y1="184.4" x2="503.7" y2="216.3"/>
			</g>
		</g>
	</g>
	<g>
		<g>
			<g>
				<polyline class="st11" points="137.9,162.4 91.5,92.1 78.3,92.1 				"/>
				<g>
					<polygon class="st12" points="138.9,159.9 141.5,167.9 135.2,162.3 					"/>
				</g>
			</g>
		</g>
		<g>
			<g>
				<polyline class="st11" points="282.2,105.2 242.1,45.8 225.7,45.8 				"/>
				<g>
					<polygon class="st12" points="283.1,102.8 285.9,110.7 279.5,105.2 					"/>
				</g>
			</g>
		</g>
	</g>
</g>
<g id="TXT25">
	<g>
		<g id="MTEXT">
			<g>
				<text transform="matrix(1 0 0 1 28.9678 94.8069)" class="st12 st13 st14">Window</text>
			</g>
		</g>
		<g id="MTEXT_1_">
			<g>
				<text transform="matrix(1 0 0 1 167.1387 48.6907)" class="st12 st13 st14">Roof light</text>
			</g>
		</g>
	</g>
	<g>
		<text transform="matrix(0.9273 0.3742 -0.3742 0.9273 177.9085 285.1924)" class="st12 st13 st14">10 m</text>
	</g>
	<g>
		<text transform="matrix(0.7657 -0.6432 0.6432 0.7657 418.9335 272.2155)" class="st12 st13 st14">10 m</text>
	</g>
</g>
</svg>
