<?xml version="1.0" encoding="utf-8"?>
<!-- Generator: Adobe Illustrator 25.1.0, SVG Export Plug-In . SVG Version: 6.00 Build 0)  -->
<svg version="1.1" xmlns="http://www.w3.org/2000/svg" xmlns:xlink="http://www.w3.org/1999/xlink" x="0px" y="0px"
	 viewBox="0 0 552.76 301.98" style="enable-background:new 0 0 552.76 301.98;" xml:space="preserve">
<style type="text/css">
	.st0{fill:none;}
	.st1{fill:none;stroke:#231F20;stroke-width:0.5;stroke-miterlimit:10;}
	.st2{fill-rule:evenodd;clip-rule:evenodd;fill:none;}
	.st3{clip-path:url(#SVGID_2_);fill:none;stroke:#221F1F;stroke-width:0.5;stroke-linejoin:round;}
	.st4{fill:none;stroke:#231F20;stroke-miterlimit:10;}
	.st5{fill:none;stroke:#231F20;stroke-linecap:round;stroke-miterlimit:10;}
	.st6{fill-rule:evenodd;clip-rule:evenodd;fill:url(#SVGID_3_);}
	.st7{fill:url(#SVGID_4_);}
	.st8{fill-rule:evenodd;clip-rule:evenodd;fill:url(#SVGID_5_);}
	.st9{fill:url(#SVGID_6_);}
	.st10{fill-rule:evenodd;clip-rule:evenodd;fill:url(#SVGID_7_);}
	.st11{fill:url(#SVGID_8_);}
	.st12{fill:url(#SVGID_9_);}
	.st13{fill:none;stroke:#231F20;stroke-width:0.75;stroke-miterlimit:10;}
	.st14{fill:none;stroke:#231F20;stroke-width:0.75;stroke-miterlimit:10;stroke-dasharray:10.9064,10.9064;}
	.st15{fill:none;stroke:#231F20;stroke-width:0.75;stroke-miterlimit:10;stroke-dasharray:11.7044,11.7044;}
	.st16{fill:none;stroke:#231F20;stroke-width:0.75;stroke-miterlimit:10;stroke-dasharray:11.2727,11.2727;}
	.st17{fill:#FFFFFF;}
	.st18{fill:#231F20;}
	.st19{font-family:'ArialMT';}
	.st20{font-size:12px;}
	.st21{font-family:'Arial-ItalicMT';}
	.st22{font-size:10.6997px;}
	.st23{fill:none;stroke:#000000;stroke-width:0.3737;stroke-linecap:round;stroke-linejoin:round;stroke-miterlimit:10;}
	.st24{fill:none;stroke:#231F20;stroke-width:0.25;stroke-miterlimit:10;}
	.st25{display:none;}
</style>
<pattern  y="580.62" width="100" height="100" patternUnits="userSpaceOnUse" id="Horizontal" viewBox="0 -100.25 100 100" style="overflow:visible;">
	<g>
		<rect y="-100.25" class="st0" width="100" height="100"/>
		<g>
			<line class="st1" x1="0" y1="-0.25" x2="100" y2="-0.25"/>
		</g>
		<g>
			<line class="st1" x1="0" y1="-100.25" x2="100" y2="-100.25"/>
			<line class="st1" x1="0" y1="-93.58" x2="100" y2="-93.58"/>
			<line class="st1" x1="0" y1="-86.83" x2="100" y2="-86.83"/>
			<line class="st1" x1="0" y1="-80.17" x2="100" y2="-80.17"/>
			<line class="st1" x1="0" y1="-73.42" x2="100" y2="-73.42"/>
			<line class="st1" x1="0" y1="-66.75" x2="100" y2="-66.75"/>
			<line class="st1" x1="0" y1="-60" x2="100" y2="-60"/>
			<line class="st1" x1="0" y1="-53.33" x2="100" y2="-53.33"/>
			<line class="st1" x1="0" y1="-46.58" x2="100" y2="-46.58"/>
			<line class="st1" x1="0" y1="-39.92" x2="100" y2="-39.92"/>
			<line class="st1" x1="0" y1="-33.17" x2="100" y2="-33.17"/>
			<line class="st1" x1="0" y1="-26.5" x2="100" y2="-26.5"/>
			<line class="st1" x1="0" y1="-19.75" x2="100" y2="-19.75"/>
			<line class="st1" x1="0" y1="-13.08" x2="100" y2="-13.08"/>
			<line class="st1" x1="0" y1="-6.33" x2="100" y2="-6.33"/>
		</g>
	</g>
</pattern>
<pattern  y="580.62" width="72" height="72" patternUnits="userSpaceOnUse" id="diagonal_cross_hatch" viewBox="6.18 -86.18 72 72" style="overflow:visible;">
	<g>
		<rect x="6.18" y="-86.18" class="st2" width="72" height="72"/>
		<g>
			<defs>
				<rect id="SVGID_1_" x="6.18" y="-86.18" width="72" height="72"/>
			</defs>
			<clipPath id="SVGID_2_">
				<use xlink:href="#SVGID_1_"  style="overflow:visible;"/>
			</clipPath>
			<line class="st3" x1="0.18" y1="-74.18" x2="18.18" y2="-92.18"/>
			<line class="st3" x1="0.18" y1="-68.18" x2="24.18" y2="-92.18"/>
			<line class="st3" x1="0.18" y1="-62.18" x2="30.18" y2="-92.18"/>
			<line class="st3" x1="0.18" y1="-56.18" x2="36.18" y2="-92.18"/>
			<line class="st3" x1="0.18" y1="-50.18" x2="42.18" y2="-92.18"/>
			<line class="st3" x1="0.18" y1="-44.18" x2="48.18" y2="-92.18"/>
			<line class="st3" x1="0.18" y1="-38.18" x2="54.18" y2="-92.18"/>
			<line class="st3" x1="0.18" y1="-32.18" x2="60.18" y2="-92.18"/>
			<line class="st3" x1="0.18" y1="-26.18" x2="66.18" y2="-92.18"/>
			<line class="st3" x1="0.18" y1="-20.18" x2="72.18" y2="-92.18"/>
			<line class="st3" x1="0.18" y1="-14.18" x2="78.18" y2="-92.18"/>
			<line class="st3" x1="0.18" y1="-8.18" x2="84.18" y2="-92.18"/>
			<line class="st3" x1="6.18" y1="-8.18" x2="84.18" y2="-86.18"/>
			<line class="st3" x1="12.18" y1="-8.18" x2="84.18" y2="-80.18"/>
			<line class="st3" x1="18.18" y1="-8.18" x2="84.18" y2="-74.18"/>
			<line class="st3" x1="24.18" y1="-8.18" x2="84.18" y2="-68.18"/>
			<line class="st3" x1="30.18" y1="-8.18" x2="84.18" y2="-62.18"/>
			<line class="st3" x1="36.18" y1="-8.18" x2="84.18" y2="-56.18"/>
			<line class="st3" x1="42.18" y1="-8.18" x2="84.18" y2="-50.18"/>
			<line class="st3" x1="48.18" y1="-8.18" x2="84.18" y2="-44.18"/>
			<line class="st3" x1="54.18" y1="-8.18" x2="84.18" y2="-38.18"/>
			<line class="st3" x1="52.18" y1="-0.18" x2="94.18" y2="-42.18"/>
			<line class="st3" x1="58.18" y1="-0.18" x2="94.18" y2="-36.18"/>
			<line class="st3" x1="64.18" y1="-0.18" x2="94.18" y2="-30.18"/>
		</g>
	</g>
</pattern>
<g id="LINE_25">
	<g>
		<g id="LINE">
			<g>
				<line class="st4" x1="304.22" y1="256.15" x2="514.32" y2="256.15"/>
			</g>
		</g>
		<g id="LINE_1_">
			<g>
				<line class="st4" x1="386.8" y1="256.15" x2="386.8" y2="169.05"/>
			</g>
		</g>
		<g id="LINE_2_">
			<g>
				<line class="st4" x1="359.78" y1="169.05" x2="483.05" y2="169.05"/>
			</g>
		</g>
		<g id="LINE_3_">
			<g>
				<line class="st4" x1="359.78" y1="164.88" x2="483.05" y2="164.88"/>
			</g>
		</g>
		<g id="LINE_4_">
			<g>
				<line class="st4" x1="359.78" y1="160.72" x2="483.05" y2="160.72"/>
			</g>
		</g>
		<g id="LINE_5_">
			<g>
				<line class="st4" x1="386.8" y1="160.72" x2="386.8" y2="81.62"/>
			</g>
		</g>
		<g id="LINE_6_">
			<g>
				<line class="st4" x1="359.78" y1="81.62" x2="386.8" y2="81.62"/>
			</g>
		</g>
		<g id="LINE_7_">
			<g>
				<line class="st4" x1="386.8" y1="81.62" x2="483.05" y2="160.72"/>
			</g>
		</g>
		<g id="LINE_22_">
			<g>
				<line class="st4" x1="483.05" y1="160.72" x2="483.05" y2="256.15"/>
			</g>
		</g>
		<g id="LINE_23_">
			<g>
				<line class="st4" x1="433.05" y1="160.72" x2="433.05" y2="119.63"/>
			</g>
		</g>
	</g>
	<g>
		<g id="LINE_8_">
			<g>
				<line class="st5" x1="197.89" y1="256.15" x2="57.14" y2="256.15"/>
			</g>
		</g>
		<g id="LINE_9_">
			<g>
				<line class="st5" x1="131.59" y1="251.98" x2="57.14" y2="251.98"/>
			</g>
		</g>
		<g id="LINE_10_">
			<g>
				<line class="st5" x1="197.89" y1="266.21" x2="197.89" y2="68.64"/>
			</g>
		</g>
		<g id="LINE_11_">
			<g>
				<line class="st5" x1="193.72" y1="135.55" x2="193.72" y2="68.64"/>
			</g>
		</g>
		<g id="LINE_12_">
			<g>
				<line class="st5" x1="131.59" y1="135.55" x2="193.72" y2="135.55"/>
			</g>
		</g>
		<g id="LINE_13_">
			<g>
				<line class="st5" x1="135.76" y1="139.72" x2="197.89" y2="139.72"/>
			</g>
		</g>
		<g id="LINE_14_">
			<g>
				<line class="st5" x1="135.76" y1="256.15" x2="135.76" y2="139.72"/>
			</g>
		</g>
		<g id="LINE_15_">
			<g>
				<line class="st5" x1="131.59" y1="251.98" x2="131.59" y2="135.55"/>
			</g>
		</g>
		<g id="LINE_18_">
			<g>
				<line class="st5" x1="193.72" y1="76.89" x2="197.89" y2="76.89"/>
			</g>
		</g>
		<g id="LINE_25_">
			<g>
				<line class="st5" x1="160.35" y1="139.72" x2="160.35" y2="135.55"/>
			</g>
		</g>
	</g>
	<g id="HATCH_2_">
		<pattern  id="SVGID_3_" xlink:href="#Horizontal" patternTransform="matrix(1 0 0 1 168.9109 103.6642)">
		</pattern>
		<polygon class="st6" points="386.8,160.72 433.05,160.72 433.05,119.63 386.8,81.62 		"/>
		<pattern  id="SVGID_4_" xlink:href="#Horizontal" patternTransform="matrix(1 0 0 1 168.9109 103.6642)">
		</pattern>
		<path class="st7" d="M392.81,160.72V86.56 M398.82,160.72V91.5 M404.84,160.72V96.45 M410.85,160.72v-59.33 M416.86,160.72v-54.39
			 M422.88,160.72v-49.45 M428.89,160.72v-44.51 M433.05,154.7H386.8 M433.05,148.69H386.8 M433.05,142.68H386.8 M433.05,136.67
			H386.8 M433.05,130.65H386.8 M433.05,124.64H386.8 M431.83,118.63H386.8 M424.51,112.61H386.8 M417.19,106.6h-30.4 M409.88,100.59
			H386.8 M402.56,94.57H386.8 M395.24,88.56h-8.44 M387.93,82.55h-1.13"/>
	</g>
	<rect x="433.05" y="169.05" class="st2" width="50" height="87.1"/>
	<g id="HATCH_4_">
		<pattern  id="SVGID_5_" xlink:href="#diagonal_cross_hatch" patternTransform="matrix(1 0 0 1 297.0986 -34.1967)">
		</pattern>
		<polygon class="st8" points="197.89,76.89 193.72,76.89 193.72,135.55 160.35,135.55 160.35,139.72 197.89,139.72 		"/>
		<pattern  id="SVGID_6_" xlink:href="#diagonal_cross_hatch" patternTransform="matrix(1 0 0 1 297.0986 -34.1967)">
		</pattern>
		<path class="st9" d="M193.72,79.14l2.24-2.24 M193.72,85.94l4.17-4.17 M193.72,92.74l4.17-4.17 M193.72,99.54l4.17-4.17
			 M160.35,139.72l4.17-4.17 M193.72,106.35l4.17-4.17 M167.15,139.72l4.17-4.17 M173.96,139.72l4.17-4.17 M180.76,139.72l4.17-4.17
			 M187.56,139.72l4.17-4.17 M193.72,113.15l4.17-4.17 M193.72,119.95l4.17-4.17 M193.72,126.76l4.17-4.17 M193.72,133.56l4.17-4.17
			 M194.37,139.72l3.52-3.52 M167.15,139.72l-4.17-4.17 M173.96,139.72l-4.17-4.17 M180.76,139.72l-4.17-4.17 M187.56,139.72
			l-4.17-4.17 M194.37,139.72l-4.17-4.17 M197.89,136.43l-4.17-4.17 M197.89,129.63l-4.17-4.17 M197.89,122.83l-4.17-4.17
			 M197.89,116.03l-4.17-4.17 M197.89,109.22l-4.17-4.17 M197.89,102.42l-4.17-4.17 M197.89,95.62l-4.17-4.17 M197.89,88.81
			l-4.17-4.17 M197.89,82.01l-4.17-4.17"/>
	</g>
	<g>
		<g id="HATCH_3_">
			<pattern  id="SVGID_7_" xlink:href="#diagonal_cross_hatch" patternTransform="matrix(1 0 0 1 297.661 -75.0094)">
			</pattern>
			<polygon class="st10" points="433.62,160.54 483.61,160.54 433.62,119.45 			"/>
			<pattern  id="SVGID_8_" xlink:href="#diagonal_cross_hatch" patternTransform="matrix(1 0 0 1 297.661 -75.0094)">
			</pattern>
			<path class="st11" d="M433.62,119.72l0.15-0.15 M433.62,124.82l2.95-2.95 M433.62,129.92l5.75-5.75 M433.62,135.03l8.55-8.55
				 M433.62,140.13l11.35-11.35 M433.62,145.23l14.15-14.15 M433.62,150.33l16.95-16.95 M433.62,155.43l19.75-19.75 M433.62,160.54
				l22.55-22.55 M433.62,160.54l22.55-22.55 M438.72,160.54l20.25-20.25 M443.82,160.54l17.95-17.95 M448.92,160.54l15.65-15.65
				 M454.02,160.54l13.34-13.34 M459.13,160.54l11.04-11.04 M464.23,160.54l8.74-8.74 M469.33,160.54l6.44-6.44 M474.43,160.54
				l4.14-4.14 M479.54,160.54l1.84-1.84"/>
		</g>
		<pattern  id="SVGID_9_" xlink:href="#diagonal_cross_hatch" patternTransform="matrix(1 0 0 1 297.661 -75.0094)">
		</pattern>
		<rect x="433.78" y="168.87" class="st12" width="49.83" height="87.1"/>
	</g>
	<g>
		<g id="LINE_16_">
			<g id="LINE_36_">
				<g>
					<g>
						<g>
							<line class="st13" x1="135.76" y1="256.15" x2="138.58" y2="250.85"/>
							<line class="st14" x1="143.72" y1="241.23" x2="192.49" y2="149.82"/>
							<line class="st13" x1="195.06" y1="145.01" x2="197.89" y2="139.72"/>
						</g>
					</g>
				</g>
			</g>
		</g>
		<g>
			<g id="LINE_17_">
				<g id="LINE_35_">
					<g>
						<g>
							<g>
								<line class="st13" x1="197.89" y1="266.21" x2="191.89" y2="266.21"/>
								<line class="st15" x1="180.18" y1="266.21" x2="68.99" y2="266.21"/>
								<line class="st13" x1="63.14" y1="266.21" x2="57.14" y2="266.21"/>
							</g>
						</g>
					</g>
				</g>
			</g>
			<g id="LINE_24_">
				<g id="LINE_34_">
					<g>
						<g>
							<g>
								<line class="st13" x1="133.68" y1="273.63" x2="133.68" y2="267.63"/>
								<line class="st16" x1="133.68" y1="256.36" x2="133.68" y2="149.27"/>
								<line class="st13" x1="133.68" y1="143.63" x2="133.68" y2="137.63"/>
							</g>
						</g>
					</g>
				</g>
			</g>
			<g id="LINE_26_">
				<g id="LINE_29_">
					<g>
						<g>
							<g>
								<line class="st13" x1="160.35" y1="137.63" x2="154.35" y2="137.63"/>
								<line class="st13" x1="139.68" y1="137.63" x2="133.68" y2="137.63"/>
							</g>
						</g>
					</g>
				</g>
			</g>
		</g>
	</g>
	<rect x="392.09" y="241.12" class="st17" width="54.25" height="12.17"/>
	<g id="MTEXT_5_">
		<g>
			<text transform="matrix(0 -1 1 0 224.7519 225.3706)" class="st18 st19 st20">Allotment boundary</text>
		</g>
	</g>
	<g id="MTEXT_6_">
		<g>
			<text transform="matrix(1 0 0 1 155.2632 40.6152)" class="st18 st19 st20">2000 mm</text>
		</g>
	</g>
	<g id="MTEXT_11_">
		<g>
			<text transform="matrix(1 0 0 1 433.1982 39.6152)" class="st18 st19 st20">2000 mm</text>
		</g>
	</g>
	<g>
		<g id="MTEXT">
			<g>
				<text transform="matrix(1 0 0 1 140.1509 247.5488)" class="st18 st19 st20">Class 10a</text>
			</g>
		</g>
		<g id="MTEXT_1_">
			<g>
				<text transform="matrix(1 0 0 1 74.3403 248.8153)" class="st18 st19 st20">Class 1</text>
			</g>
		</g>
		<g id="MTEXT_2_">
			<g>
				<text transform="matrix(1 0 0 1 51.2007 185.0478)" class="st18 st19 st20">No ceiling</text>
			</g>
		</g>
		<g id="MTEXT_3_">
			<g>
				<text transform="matrix(1 0 0 1 45.1724 141.2907)"><tspan x="0" y="0" class="st18 st19 st20">Roof space </tspan><tspan x="4.66" y="14.4" class="st18 st19 st20">separation</tspan></text>
			</g>
		</g>
		<g id="MTEXT_4_">
			<g>
				<text transform="matrix(1 0 0 1 46.8324 48.3352)"><tspan x="0" y="0" class="st18 st21 st20">Fire-resisting </tspan><tspan x="12.65" y="14.4" class="st18 st19 st20">walls up to </tspan><tspan x="3.3" y="28.8" class="st18 st19 st20">underside of</tspan><tspan x="-18.7" y="43.2" class="st18 st21 st20">non-combustible</tspan><tspan x="0.63" y="57.6" class="st18 st19 st20">roof cladding</tspan></text>
			</g>
			<text transform="matrix(1 0 0 1 176.3924 48.3352)" class="st19 st22"> </text>
			<text transform="matrix(1 0 0 1 176.3924 78.7399)" class="st19 st22"> </text>
		</g>
		<g id="MTEXT_9_">
			<g>
				<text transform="matrix(1 0 0 1 325.2204 251.9818)" class="st18 st19 st20">Class 1</text>
			</g>
		</g>
		<g id="MTEXT_10_">
			<g>
				<text transform="matrix(1 0 0 1 391.6341 251.5488)" class="st18 st19 st20">Class 10a</text>
			</g>
		</g>
		<g>
			<text transform="matrix(1 0 0 1 282.1689 136.8017)"><tspan x="0" y="0" class="st18 st21 st20">Fire-resisting </tspan><tspan x="12.65" y="14.4" class="st18 st19 st20">walls up to </tspan><tspan x="3.3" y="28.8" class="st18 st19 st20">underside of</tspan><tspan x="-18.7" y="43.2" class="st18 st21 st20">non-combustible</tspan><tspan x="0.63" y="57.6" class="st18 st19 st20">roof cladding</tspan></text>
		</g>
		<g>
			<text transform="matrix(1 0 0 1 290.8118 54.7033)"><tspan x="0" y="0" class="st18 st19 st20">Roof space </tspan><tspan x="4.66" y="14.4" class="st18 st19 st20">separation</tspan></text>
		</g>
	</g>
	<path class="st23" d="M355.42,65.71"/>
	<path class="st23" d="M362.43,65.71"/>
	<g>
		<g>
			<g>
				<line class="st24" x1="444.3" y1="134.8" x2="355.42" y2="134.8"/>
				<g>
					<polygon class="st18" points="442.82,132.62 450.95,134.8 442.82,136.98 					"/>
				</g>
			</g>
		</g>
		<g>
			<g>
				<line class="st24" x1="383.45" y1="113.55" x2="362.43" y2="65.71"/>
				<g>
					<polygon class="st18" points="384.85,111.31 386.12,119.63 380.86,113.06 					"/>
				</g>
			</g>
		</g>
		<g>
			<g>
				<polyline class="st24" points="392.8,100.04 362.43,65.71 355.42,65.71 				"/>
				<g>
					<polygon class="st18" points="393.45,97.48 397.21,105.01 390.19,100.37 					"/>
				</g>
			</g>
		</g>
	</g>
	<g>
		<g id="LINE_19_">
			<g>
				<line class="st24" x1="197.89" y1="66.27" x2="197.89" y2="45.13"/>
			</g>
		</g>
		<g id="LINE_20_">
			<g>
				<line class="st24" x1="160.35" y1="66.27" x2="160.35" y2="45.13"/>
			</g>
		</g>
		<g id="LINE_30_">
			<g>
				<line class="st24" x1="483.05" y1="153.36" x2="483.05" y2="45.13"/>
			</g>
		</g>
		<g id="LINE_31_">
			<g>
				<line class="st24" x1="433.05" y1="112.28" x2="433.05" y2="45.13"/>
			</g>
		</g>
	</g>
	<g>
		<g id="LINE_21_">
			<g id="LINE_61_">
				<g>
					<g>
						<g>
							<line class="st24" x1="191.19" y1="48.06" x2="167.05" y2="48.06"/>
							<g>
								<polygon class="st18" points="189.71,45.88 197.84,48.06 189.71,50.24 								"/>
							</g>
							<g>
								<polygon class="st18" points="168.53,45.88 160.4,48.06 168.53,50.24 								"/>
							</g>
						</g>
					</g>
				</g>
			</g>
		</g>
		<g id="LINE_32_">
			<g id="LINE_60_">
				<g>
					<g>
						<g>
							<line class="st24" x1="476.41" y1="48.06" x2="439.7" y2="48.06"/>
							<g>
								<polygon class="st18" points="474.92,45.88 483.05,48.06 474.92,50.24 								"/>
							</g>
							<g>
								<polygon class="st18" points="441.18,45.88 433.05,48.06 441.18,50.24 								"/>
							</g>
						</g>
					</g>
				</g>
			</g>
		</g>
	</g>
	<g id="LINE_33_">
		<path class="st23" d="M193.72,103.43"/>
		<path class="st23" d="M108.46,103.43"/>
	</g>
	<g>
		<g>
			<g>
				<line class="st24" x1="124.95" y1="152" x2="108.46" y2="152"/>
				<g>
					<polygon class="st18" points="123.46,149.82 131.59,152 123.46,154.18 					"/>
				</g>
			</g>
		</g>
		<g>
			<g>
				<line class="st24" x1="168.67" y1="182.02" x2="108.46" y2="182.02"/>
				<g>
					<polygon class="st18" points="167.18,179.84 175.31,182.02 167.18,184.2 					"/>
				</g>
			</g>
		</g>
		<g>
			<g>
				<polyline class="st24" points="204.95,111.97 222.69,111.97 222.69,117.28 				"/>
				<g>
					<polygon class="st18" points="206.44,114.15 198.3,111.97 206.44,109.79 					"/>
				</g>
			</g>
		</g>
		<g>
			<g>
				<polyline class="st24" points="204.99,235.65 222.73,235.65 222.73,229.62 				"/>
				<g>
					<polygon class="st18" points="206.48,237.83 198.35,235.65 206.48,233.48 					"/>
				</g>
			</g>
		</g>
		<g>
			<g>
				<line class="st24" x1="187.08" y1="103.43" x2="119.53" y2="103.43"/>
				<g>
					<polygon class="st18" points="185.59,101.25 193.72,103.43 185.59,105.61 					"/>
				</g>
			</g>
		</g>
		<g>
			<g>
				<line class="st24" x1="158.39" y1="130.46" x2="135.77" y2="103.43"/>
				<g>
					<polygon class="st18" points="159.11,127.92 162.66,135.55 155.77,130.71 					"/>
				</g>
			</g>
		</g>
	</g>
	<path class="st23" d="M135.77,103.43"/>
</g>
<g id="LINE_18" class="st25">
</g>
</svg>
