<?xml version="1.0" encoding="utf-8"?>
<!-- Generator: Adobe Illustrator 25.2.1, SVG Export Plug-In . SVG Version: 6.00 Build 0)  -->
<svg version="1.1" id="Layer_1" xmlns="http://www.w3.org/2000/svg" xmlns:xlink="http://www.w3.org/1999/xlink" x="0px" y="0px"
	 viewBox="0 0 552.8 212.6" style="enable-background:new 0 0 552.8 212.6;" xml:space="preserve">
<style type="text/css">
	.st0{fill:none;}
	.st1{fill:none;stroke:#000000;stroke-width:0.25;stroke-miterlimit:10;}
	.st2{fill:url(#SVGID_1_);}
	.st3{fill:url(#SVGID_2_);}
	.st4{fill:#FFFFFF;stroke:#000000;stroke-width:0.75;stroke-miterlimit:10;}
	.st5{fill:#FFFFFF;}
	.st6{fill:#FFFFFF;stroke:#000000;stroke-miterlimit:10;}
	.st7{fill:none;stroke:#000000;stroke-width:0.5;stroke-miterlimit:10;}
	.st8{stroke:#000000;stroke-width:0.5;stroke-miterlimit:10;}
	.st9{font-family:'ArialMT';}
	.st10{font-size:12px;}
</style>
<pattern  x="63.1" y="664.1" width="25.5" height="25.5" patternUnits="userSpaceOnUse" id="New_Pattern" viewBox="11.2 -36.7 25.5 25.5" style="overflow:visible;">
	<g>
		<rect x="11.2" y="-36.7" class="st0" width="25.5" height="25.5"/>
		<g>
			<g>
				<line class="st1" x1="25.6" y1="-12.1" x2="37.6" y2="-0.1"/>
				<line class="st1" x1="28.5" y1="-15" x2="40.5" y2="-3"/>
			</g>
		</g>
		<g>
			<g>
				<line class="st1" x1="0.1" y1="-12.1" x2="12.1" y2="-0.1"/>
				<line class="st1" x1="3" y1="-15" x2="15" y2="-3"/>
			</g>
		</g>
		<g>
			<g>
				<line class="st1" x1="44.9" y1="-28.1" x2="32.9" y2="-16.1"/>
				<line class="st1" x1="47.8" y1="-25.2" x2="35.8" y2="-13.2"/>
			</g>
		</g>
		<g>
			<g>
				<line class="st1" x1="19.4" y1="-28.1" x2="7.4" y2="-16.1"/>
				<line class="st1" x1="22.3" y1="-25.2" x2="10.3" y2="-13.2"/>
				<line class="st1" x1="25.2" y1="-22.3" x2="13.2" y2="-10.3"/>
				<line class="st1" x1="28.1" y1="-19.4" x2="16.1" y2="-7.4"/>
			</g>
			<g>
				<line class="st1" x1="19.8" y1="-31.8" x2="31.8" y2="-19.8"/>
				<line class="st1" x1="22.7" y1="-34.7" x2="34.7" y2="-22.7"/>
				<line class="st1" x1="25.6" y1="-37.6" x2="37.6" y2="-25.6"/>
				<line class="st1" x1="28.5" y1="-40.5" x2="40.5" y2="-28.5"/>
			</g>
		</g>
		<g>
			<g>
				<line class="st1" x1="0.1" y1="-37.6" x2="12.1" y2="-25.6"/>
				<line class="st1" x1="3" y1="-40.5" x2="15" y2="-28.5"/>
			</g>
		</g>
		<g>
			<g>
				<line class="st1" x1="25.2" y1="-47.8" x2="13.2" y2="-35.8"/>
				<line class="st1" x1="28.1" y1="-44.9" x2="16.1" y2="-32.9"/>
			</g>
		</g>
	</g>
</pattern>
<pattern  id="SVGID_1_" xlink:href="#New_Pattern" patternTransform="matrix(1 0 0 1 -16.2953 -34.2413)">
</pattern>
<polygon class="st2" points="274.7,71.9 274.7,83.4 323.8,83.4 339.9,99.4 386.6,99.4 400.6,85.5 437.2,85.5 437.2,62.4 274.7,62.4 
	"/>
<pattern  id="SVGID_2_" xlink:href="#New_Pattern" patternTransform="matrix(1 0 0 1 -16.2953 -34.2413)">
</pattern>
<polygon class="st3" points="137.5,97.2 137.5,165.8 214,165.8 214,100.1 230.8,83.3 250.3,83.3 250.3,64.4 187.1,64.4 158.3,97.2 
	"/>
<line class="st4" x1="437" y1="58.5" x2="437" y2="71.9"/>
<rect x="436.5" y="58" class="st5" width="1.8" height="14.3"/>
<polyline class="st4" points="437.2,71.9 392.8,71.7 377.1,87.6 346.2,87.6 330.1,71.7 218.7,71.7 200.4,90 200.4,151.7 
	150.8,151.7 150.8,90 167.8,90 191.2,66.8 230.8,58.5 351.6,58.5 437,58.5 "/>
<rect x="150" y="88.9" class="st5" width="5.6" height="1.6"/>
<polyline class="st6" points="437.2,68.9 392.1,68.9 376.2,84.7 347.2,84.7 331.5,69 217.6,69 197.6,89 197.6,148.6 153.9,148.6 
	153.9,66.8 170.2,66.8 170.2,51.5 437.2,51.5 "/>
<g>
	<line class="st7" x1="184.3" y1="56.3" x2="437.2" y2="56.3"/>
	<circle class="st8" cx="187.1" cy="57.4" r="1.1"/>
	<circle class="st8" cx="230.9" cy="57.4" r="1.1"/>
	<circle class="st8" cx="274.7" cy="57.4" r="1.1"/>
	<circle class="st8" cx="318.5" cy="57.4" r="1.1"/>
	<circle class="st8" cx="362.2" cy="57.4" r="1.1"/>
	<circle class="st8" cx="406" cy="57.4" r="1.1"/>
</g>
<g>
	<circle class="st8" cx="346.2" cy="76.7" r="1.1"/>
	<circle class="st8" cx="377.1" cy="76.7" r="1.1"/>
	<circle class="st8" cx="361.7" cy="76.7" r="1.1"/>
	<line class="st8" x1="344.4" y1="75.6" x2="378.8" y2="75.6"/>
</g>
<g>
	<circle class="st8" cx="160.3" cy="139.3" r="1.1"/>
	<circle class="st8" cx="191.2" cy="139.3" r="1.1"/>
	<circle class="st8" cx="175.7" cy="139.3" r="1.1"/>
	<line class="st8" x1="158.4" y1="138.2" x2="192.9" y2="138.2"/>
</g>
<text transform="matrix(1 0 0 1 280.0891 25.192)" class="st9 st10">1.</text>
<text transform="matrix(1 0 0 1 108.4616 119.9457)" class="st9 st10">2.</text>
<text transform="matrix(1 0 0 1 227.0399 119.9462)" class="st9 st10">3.</text>
<text transform="matrix(1 0 0 1 170.068 196.3373)" class="st9 st10">4.</text>
<text transform="matrix(1 0 0 1 258.5725 107.2965)" class="st9 st10">5.</text>
<text transform="matrix(1 0 0 1 134.3938 31.9843)" class="st9 st10">6.</text>
<text transform="matrix(1 0 0 1 358.4329 124.3847)" class="st9 st10">7.</text>
<g>
	<g>
		<line class="st1" x1="361.7" y1="111.8" x2="361.7" y2="93.9"/>
		<g>
			<polygon points="364.6,95.9 361.7,85 358.7,95.9 			"/>
		</g>
	</g>
</g>
<g>
	<g>
		<line class="st1" x1="174.7" y1="184.3" x2="174.7" y2="169.7"/>
		<g>
			<polygon points="177.6,171.7 174.7,160.9 171.7,171.7 			"/>
		</g>
	</g>
</g>
<g>
	<g>
		<line class="st1" x1="262.2" y1="95.1" x2="262.2" y2="80.5"/>
		<g>
			<polygon points="265.1,82.5 262.2,71.7 259.3,82.5 			"/>
		</g>
	</g>
</g>
<g>
	<g>
		<polyline class="st1" points="205.4,64.6 225.1,114.9 187.6,134.2 		"/>
		<g>
			<polygon points="203.4,67.5 202.2,56.3 208.8,65.3 			"/>
		</g>
		<g>
			<polygon points="188,130.7 179.7,138.2 190.6,135.8 			"/>
		</g>
	</g>
</g>
<g>
	<g>
		<line class="st1" x1="144.2" y1="35.3" x2="164.6" y2="60"/>
		<g>
			<polygon points="161.1,60.3 170.2,66.8 165.5,56.6 			"/>
		</g>
	</g>
</g>
<g>
	<g>
		<line class="st1" x1="284" y1="29.1" x2="284" y2="42.2"/>
		<g>
			<polygon points="281.1,40.2 284,51.1 286.9,40.2 			"/>
		</g>
	</g>
</g>
<g>
	<g>
		<line class="st1" x1="118.5" y1="115.4" x2="167.9" y2="115.4"/>
		<g>
			<polygon points="166,118.3 176.8,115.4 166,112.5 			"/>
		</g>
	</g>
</g>
</svg>
