<svg id="Drawing_Layer" data-name="Drawing Layer" xmlns="http://www.w3.org/2000/svg" viewBox="0 0 552.76 425.2"><defs><style>.cls-1,.cls-6,.cls-7{fill:#231f20;}.cls-2,.cls-3,.cls-4,.cls-5{fill:none;}.cls-2,.cls-3,.cls-4,.cls-5,.cls-7{stroke:#231f20;stroke-miterlimit:10;}.cls-3,.cls-4{stroke-width:0.75px;}.cls-4{stroke-dasharray:13.41 6.71;}.cls-5,.cls-7{stroke-width:0.25px;}.cls-6{font-size:12px;font-family:ArialMT, Arial;}</style></defs><path class="cls-1" d="M73.05,233.74l37.42,18.71V329.4L73.05,310.14v-76.4m-1-1.62v78.63L111.47,331V251.83L72.05,232.12Z"/><path class="cls-1" d="M374.68,110.76l37.72,18.5-7.56,4.11L375.3,118.6l-.45-.22-.45.22L111.47,250.71,74.25,232.1l6.45-3.35,28.21,14.1.45.22.44-.22,107.72-53.62,1.75-.87-1.73-.91-27-14.24,7.91-4,28.83,15.09.45.24.46-.23,146.5-73.59m0-1.12L227.73,183.46l-29.28-15.33-10.11,5.05,28.74,15.15L109.36,242,80.69,227.62l-8.64,4.5,39.42,19.71L374.85,119.49l30,15,9.72-5.29-39.91-19.57Z"/><line class="cls-2" x1="188.89" y1="173.18" x2="188.89" y2="202.64"/><path class="cls-1" d="M413.59,130.86l.3,76.57-8.24,4V135l7.94-4.17m1-1.65-9.93,5.21v78.66l10.24-5-.31-78.84Z"/><path class="cls-1" d="M373.85,121.11l.07,76.58L112.47,329.42v-77L373.85,121.11m1-1.62L111.47,251.83V331L374.92,198.3l-.07-78.81Z"/><path class="cls-2" d="M374.23,198l30.7,14.69Z"/><polygon class="cls-2" points="154.13 249.87 183.95 235.06 183.95 274.44 154.13 289.19 154.13 249.87"/><polyline class="cls-2" points="154.13 279.74 173.67 269.83 173.67 240.16"/><line class="cls-2" x1="183.95" y1="274.44" x2="173.67" y2="269.83"/><line class="cls-3" x1="230.69" y1="191.54" x2="230.69" y2="197.54"/><line class="cls-4" x1="230.69" y1="204.24" x2="230.69" y2="261.24"/><line class="cls-3" x1="230.69" y1="264.59" x2="230.69" y2="270.59"/><line class="cls-5" x1="183.95" y1="233.18" x2="183.95" y2="194.91"/><line class="cls-5" x1="153.56" y1="248.21" x2="153.56" y2="209.99"/><line class="cls-5" x1="161.48" y1="209.5" x2="176.03" y2="202.21"/><polygon class="cls-1" points="164.55 211.21 153.56 213.46 161.95 206.01 164.55 211.21"/><polygon class="cls-1" points="175.56 205.7 183.95 198.25 172.96 200.5 175.56 205.7"/><line class="cls-5" x1="185.17" y1="234.06" x2="194.08" y2="230.18"/><polyline class="cls-5" points="185.6 274.07 188.89 272.64 194.51 270.2"/><line class="cls-5" x1="189.63" y1="240.98" x2="189.63" y2="263.46"/><polygon class="cls-1" points="186.72 242.96 189.63 232.12 192.53 242.96 186.72 242.96"/><polygon class="cls-1" points="186.72 261.48 189.63 272.32 192.53 261.48 186.72 261.48"/><text class="cls-6" transform="translate(191.06 255.48)">900</text><text class="cls-6" transform="translate(156.3 206.87) rotate(-26.93)">600</text><line class="cls-5" x1="68.59" y1="223.39" x2="180.96" y2="167.62"/><polygon class="cls-1" points="71.65 225.11 60.65 227.33 69.07 219.91 71.65 225.11"/><polygon class="cls-1" points="180.47 171.1 188.89 163.68 177.89 165.9 180.47 171.1"/><line class="cls-5" x1="69.09" y1="232.12" x2="50.47" y2="222.51"/><line class="cls-5" x1="197.59" y1="167.92" x2="178.98" y2="158.31"/><text class="cls-6" transform="matrix(0.9, -0.43, 0.43, 0.9, 109.2, 198.3)">3500</text><line class="cls-7" x1="375.84" y1="108.94" x2="394.39" y2="100.03"/><line class="cls-7" x1="415.85" y1="128.4" x2="434.4" y2="119.49"/><line class="cls-1" x1="385.11" y1="104.48" x2="424.65" y2="124.18"/><line class="cls-5" x1="393.04" y1="108.43" x2="416.72" y2="120.23"/><polygon class="cls-1" points="393.52 111.92 385.11 104.48 396.11 106.71 393.52 111.92"/><polygon class="cls-1" points="413.66 121.94 424.65 124.18 416.25 116.74 413.66 121.94"/><text class="cls-6" transform="matrix(0.88, 0.48, -0.48, 0.88, 398.3, 103.6)">2000</text><line class="cls-7" x1="415.85" y1="129.21" x2="434.4" y2="129.21"/><line class="cls-7" x1="415.85" y1="207.9" x2="434.4" y2="207.9"/><line class="cls-5" x1="425.13" y1="138.07" x2="425.13" y2="199.04"/><polygon class="cls-1" points="422.22 140.05 425.13 129.21 428.03 140.05 422.22 140.05"/><polygon class="cls-1" points="422.22 197.06 425.13 207.9 428.03 197.06 422.22 197.06"/><text class="cls-6" transform="translate(429.9 164.35)">Height as for <tspan x="0" y="14.4">Diagram (a)</tspan></text><text class="cls-6" transform="translate(243.32 103.66)">Returns allowable in <tspan x="0" y="14.4">either direction</tspan></text><text class="cls-6" transform="translate(314.57 269.83)">Fixing points and articulation joints,<tspan x="0" y="14.4">where required, to be located within</tspan><tspan x="0" y="28.8">300 mm of return walls. </tspan></text><line class="cls-5" x1="220.17" y1="169.52" x2="250.24" y2="119.49"/><polygon class="cls-1" points="223.69 169.32 215.61 177.11 218.71 166.32 223.69 169.32"/><polyline class="cls-5" points="370.73 166.45 331.88 256.79 238.76 214.72"/><polygon class="cls-1" points="367.27 167.12 374.23 158.31 372.61 169.42 367.27 167.12"/><polygon class="cls-1" points="241.77 212.89 230.69 211.07 239.38 218.19 241.77 212.89"/><text class="cls-6" transform="translate(194.08 321.63)">Maximum size <tspan x="0" y="14.4">opening</tspan></text><line class="cls-5" x1="173.96" y1="289.12" x2="191.06" y2="312.64"/><polygon class="cls-1" points="172.78 292.43 168.75 281.96 177.48 289.02 172.78 292.43"/></svg>