<?xml version="1.0" encoding="utf-8"?>
<!-- Generator: Adobe Illustrator 25.2.1, SVG Export Plug-In . SVG Version: 6.00 Build 0)  -->
<svg version="1.1" id="_x30_" xmlns="http://www.w3.org/2000/svg" xmlns:xlink="http://www.w3.org/1999/xlink" x="0px" y="0px"
	 viewBox="0 0 552.8 402.4" style="enable-background:new 0 0 552.8 402.4;" xml:space="preserve">
<style type="text/css">
	.st0{fill:#231F20;}
	.st1{font-family:'ArialMT';}
	.st2{font-size:12px;}
	.st3{fill:none;stroke:#231F20;stroke-width:0.25;stroke-miterlimit:10;}
	.st4{fill:none;stroke:#231F20;stroke-miterlimit:10;}
	.st5{fill:none;stroke:#231F20;stroke-miterlimit:10;stroke-dasharray:11.4491,11.4396,0,0;}
	.st6{fill:none;stroke:#231F20;stroke-miterlimit:10;stroke-dasharray:1.016700e-02,0;}
	.st7{fill:none;stroke:#231F20;stroke-miterlimit:10;stroke-dasharray:12.2004,12.1902,1.016700e-02,0;}
	.st8{fill:none;stroke:#231F20;stroke-miterlimit:10;stroke-dasharray:1.005200e-02,0;}
	.st9{fill:none;stroke:#231F20;stroke-miterlimit:10;stroke-dasharray:12.0629,12.0529,1.005200e-02,0;}
	.st10{fill:none;stroke:#231F20;stroke-miterlimit:10;stroke-dasharray:12.063,12.0529,1.005200e-02,0;}
	.st11{fill:none;stroke:#231F20;stroke-width:0.5;stroke-miterlimit:10;}
	.st12{fill:none;stroke:#231F20;stroke-width:0.5;stroke-miterlimit:10;stroke-dasharray:25.451,11.1985;}
	.st13{fill:none;stroke:#231F20;stroke-width:0.5;stroke-miterlimit:10;stroke-dasharray:5.0902,11.1985,25.451,11.1985;}
	.st14{fill:none;}
</style>
<g id="MTEXT">
	<g>
		<text transform="matrix(1 0 0 1 393.81 106.5531)" class="st0 st1 st2">10a</text>
	</g>
</g>
<g id="MTEXT_2_">
	<g>
		<text transform="matrix(1 0 0 1 183.8922 121.2845)" class="st0 st1 st2">1</text>
	</g>
</g>
<g id="MTEXT_1_">
	<g>
		<text transform="matrix(1 0 0 1 303.4194 316.9673)" class="st0 st1 st2">Not less than 900 mm</text>
	</g>
</g>
<g id="POLYLINE">
	<g id="POLYLINE_4_">
		<g>
			<g>
				<g>
					<g>
						<g>
							<polyline class="st3" points="497.4,140.2 452.9,314 423,314 							"/>
							<g>
								<polygon class="st0" points="494.1,141.4 499.6,131.6 499.7,142.9 								"/>
							</g>
						</g>
					</g>
				</g>
			</g>
		</g>
	</g>
</g>
<g>
	<g>
		<g id="LINE_6_">
			<g>
				<line class="st4" x1="469.1" y1="169.1" x2="469.1" y2="32.2"/>
			</g>
		</g>
		<g id="LINE_7_">
			<g>
				<line class="st4" x1="338.5" y1="32.2" x2="469.1" y2="32.2"/>
			</g>
		</g>
		<g id="LINE_8_">
			<g>
				<line class="st4" x1="338.5" y1="169.1" x2="469.1" y2="169.1"/>
			</g>
		</g>
	</g>
	<g id="POLYLINE_2_">
		<g>
			<rect x="36" y="32.2" class="st4" width="302.5" height="241.7"/>
		</g>
	</g>
</g>
<g>
	<g id="LINE">
		<g id="LINE_17_">
			<g>
				<g>
					<g>
						<line class="st4" x1="118.3" y1="153.1" x2="124.3" y2="153.1"/>
						<line class="st4" x1="135.7" y1="153.1" x2="135.7" y2="153.1"/>
						<line class="st5" x1="135.7" y1="153.1" x2="250.2" y2="153.1"/>
						<line class="st4" x1="250.2" y1="153.1" x2="256.2" y2="153.1"/>
					</g>
				</g>
			</g>
		</g>
	</g>
	<g id="LINE_1_">
		<g id="LINE_16_">
			<g>
				<g>
					<g>
						<line class="st4" x1="118.3" y1="153.1" x2="114.9" y2="148.1"/>
						<line class="st6" x1="108" y1="138" x2="108" y2="138"/>
						<line class="st7" x1="108" y1="138" x2="39.3" y2="37.2"/>
						<line class="st4" x1="39.3" y1="37.2" x2="36" y2="32.2"/>
					</g>
				</g>
			</g>
		</g>
	</g>
	<g id="LINE_2_">
		<g id="LINE_15_">
			<g>
				<g>
					<g>
						<line class="st4" x1="118.3" y1="153.1" x2="114.9" y2="158.1"/>
						<line class="st8" x1="108.1" y1="168" x2="108.1" y2="168"/>
						<line class="st9" x1="108.1" y1="168" x2="40.5" y2="267.9"/>
						<line class="st4" x1="40.5" y1="267.9" x2="37.1" y2="272.9"/>
					</g>
				</g>
			</g>
		</g>
	</g>
	<g id="LINE_3_">
		<g id="LINE_14_">
			<g>
				<g>
					<g>
						<line class="st4" x1="256.2" y1="153.1" x2="259.6" y2="148.1"/>
						<line class="st6" x1="266.4" y1="138" x2="266.4" y2="138"/>
						<line class="st7" x1="266.4" y1="138" x2="335.1" y2="37.2"/>
						<line class="st4" x1="335.1" y1="37.2" x2="338.5" y2="32.2"/>
					</g>
				</g>
			</g>
		</g>
	</g>
	<g id="LINE_4_">
		<g id="LINE_13_">
			<g>
				<g>
					<g>
						<line class="st4" x1="256.2" y1="153.1" x2="259.6" y2="158.1"/>
						<line class="st8" x1="266.3" y1="168" x2="266.3" y2="168"/>
						<line class="st10" x1="266.3" y1="168" x2="334" y2="267.9"/>
						<line class="st4" x1="334" y1="267.9" x2="337.3" y2="272.9"/>
					</g>
				</g>
			</g>
		</g>
	</g>
</g>
<g id="LINE_5_">
	<g>
		<g>
			<g>
				<line class="st11" x1="523.6" y1="388.2" x2="523.6" y2="385.2"/>
				<line class="st12" x1="523.6" y1="371.9" x2="523.6" y2="335.1"/>
				<line class="st13" x1="523.6" y1="328.5" x2="523.6" y2="21.6"/>
				<line class="st11" x1="523.6" y1="14.9" x2="523.6" y2="12"/>
			</g>
		</g>
	</g>
</g>
<rect x="317.7" y="358" class="st14" width="118.6" height="15.7"/>
<text transform="matrix(1 0 0 1 317.7121 366.6015)" class="st1 st2">Allotment boundary</text>
<g>
	<line x1="423" y1="363.7" x2="523.6" y2="363.7"/>
	<g>
		<line class="st3" x1="423" y1="363.7" x2="514.7" y2="363.7"/>
		<g>
			<polygon class="st0" points="512.8,366.6 523.6,363.7 512.8,360.8 			"/>
		</g>
	</g>
</g>
</svg>
