<?xml version="1.0" encoding="utf-8"?>
<!-- Generator: Adobe Illustrator 25.2.1, SVG Export Plug-In . SVG Version: 6.00 Build 0)  -->
<svg version="1.1" id="_x30_" xmlns="http://www.w3.org/2000/svg" xmlns:xlink="http://www.w3.org/1999/xlink" x="0px" y="0px"
	 viewBox="0 0 552.8 270.5" style="enable-background:new 0 0 552.8 270.5;" xml:space="preserve">
<style type="text/css">
	.st0{fill:none;stroke:#231F20;stroke-width:0.75;stroke-miterlimit:10;}
	.st1{fill:none;stroke:#231F20;stroke-linecap:round;stroke-miterlimit:10;}
	.st2{fill:none;stroke:#231F20;stroke-linecap:round;stroke-miterlimit:10;stroke-dasharray:9.699,4.8495,0,0;}
	.st3{fill:none;stroke:#231F20;stroke-width:0.75;stroke-linecap:round;stroke-miterlimit:10;}
	.st4{fill:none;stroke:#231F20;stroke-width:0.25;stroke-miterlimit:10;}
	.st5{fill:#231F20;}
	.st6{font-family:'Arial-BoldMT';}
	.st7{font-size:12px;}
	.st8{fill:none;stroke:#231F20;stroke-linecap:round;stroke-miterlimit:10;stroke-dasharray:9.6989,4.8414,0,0;}
	.st9{font-family:'ArialMT';}
	.st10{fill:none;stroke:#231F20;stroke-width:0.75;stroke-linejoin:bevel;stroke-miterlimit:10;}
</style>
<g>
	<g id="LINE_80_">
		<g>
			<line class="st0" x1="175.8" y1="152.9" x2="187.7" y2="146.8"/>
		</g>
	</g>
	<g id="LINE_81_">
		<g>
			<line class="st0" x1="187.7" y1="152.9" x2="175.8" y2="146.8"/>
		</g>
	</g>
</g>
<g>
	<g id="LINE_78_">
		<g>
			<line class="st0" x1="219.9" y1="94.1" x2="242.1" y2="81.5"/>
		</g>
	</g>
	<g id="LINE_79_">
		<g>
			<line class="st0" x1="242.1" y1="94.1" x2="219.9" y2="81.5"/>
		</g>
	</g>
</g>
<g>
	<g id="LINE_82_">
		<g>
			<line class="st0" x1="175.8" y1="143.6" x2="187.7" y2="129.1"/>
		</g>
	</g>
	<g id="LINE_83_">
		<g>
			<line class="st0" x1="187.7" y1="143.6" x2="175.8" y2="129.1"/>
		</g>
	</g>
</g>
<g>
	<g id="LINE_84_">
		<g>
			<line class="st0" x1="204.5" y1="76" x2="215.9" y2="63.9"/>
		</g>
	</g>
	<g id="LINE_85_">
		<g>
			<line class="st0" x1="218.4" y1="71.4" x2="202" y2="68.5"/>
		</g>
	</g>
</g>
<g>
	<g id="LINE_86_">
		<g>
			<line class="st0" x1="66.5" y1="121.9" x2="77.9" y2="109.7"/>
		</g>
	</g>
	<g id="LINE_87_">
		<g>
			<line class="st0" x1="80.4" y1="117.2" x2="64" y2="114.3"/>
		</g>
	</g>
</g>
<g>
	<g id="LINE_98_">
		<line class="st0" x1="480.1" y1="94.1" x2="502.2" y2="81.5"/>
	</g>
	<g id="LINE_99_">
		<line class="st0" x1="502.2" y1="94.1" x2="480.1" y2="81.5"/>
	</g>
</g>
<g>
	<g id="LINE_100_">
		<g>
			<line class="st0" x1="464.7" y1="76" x2="476.1" y2="63.9"/>
		</g>
	</g>
	<g id="LINE_101_">
		<g>
			<line class="st0" x1="478.6" y1="71.4" x2="462.2" y2="68.5"/>
		</g>
	</g>
</g>
<g>
	<g id="LINE_102_">
		<line class="st0" x1="326.6" y1="121.9" x2="338.1" y2="109.7"/>
	</g>
	<g id="LINE_103_">
		<line class="st0" x1="340.6" y1="117.2" x2="324.1" y2="114.3"/>
	</g>
</g>
<g id="LINE_115_">
	<g>
		<line class="st0" x1="480.1" y1="143.6" x2="465.3" y2="129.1"/>
	</g>
</g>
<g>
	<g id="LINE_1_">
		<g id="LINE_152_">
			<g>
				<g>
					<g>
						<line class="st1" x1="322.5" y1="143.6" x2="328.2" y2="141.7"/>
						<line class="st2" x1="332.8" y1="140.1" x2="360.4" y2="131"/>
						<line class="st1" x1="360.4" y1="131" x2="366.1" y2="129.1"/>
					</g>
				</g>
			</g>
		</g>
	</g>
	<g id="LINE_6_">
		<g>
			<line class="st1" x1="310.6" y1="135.4" x2="310.6" y2="121"/>
		</g>
	</g>
	<g id="LINE_7_">
		<g>
			<line class="st1" x1="296.7" y1="137.3" x2="308.7" y2="137.3"/>
		</g>
	</g>
	<g id="LINE_8_">
		<g>
			<line class="st1" x1="289.5" y1="121.3" x2="290.7" y2="131.9"/>
		</g>
	</g>
	<g id="LINE_9_">
		<g>
			<line class="st1" x1="288.5" y1="121.3" x2="289.5" y2="121.3"/>
		</g>
	</g>
	<g id="SPLINE_2_">
		<g>
			<path class="st1" d="M290.7,131.9c0.3,3.1,2.9,5.4,6,5.4"/>
		</g>
	</g>
	<g id="SPLINE_3_">
		<g>
			<path class="st1" d="M308.7,137.3c1,0,1.9-0.8,1.9-1.9"/>
		</g>
	</g>
	<g id="LINE_43_">
		<g>
			<line class="st1" x1="480.1" y1="209" x2="480.1" y2="81.5"/>
		</g>
	</g>
	<g id="LINE_44_">
		<g>
			<line class="st1" x1="502.2" y1="209" x2="502.2" y2="81.5"/>
		</g>
	</g>
	<g id="LINE_45_">
		<g>
			<line class="st1" x1="480.1" y1="81.5" x2="502.2" y2="81.5"/>
		</g>
	</g>
	<g id="LINE_46_">
		<g>
			<line class="st1" x1="480.1" y1="94.1" x2="502.2" y2="94.1"/>
		</g>
	</g>
	<g id="LINE_47_">
		<g>
			<line class="st1" x1="480.1" y1="153.3" x2="480.1" y2="129.5"/>
		</g>
	</g>
	<g id="LINE_48_">
		<g>
			<line class="st1" x1="463.4" y1="153.3" x2="463.4" y2="146.8"/>
		</g>
	</g>
	<g id="LINE_49_">
		<g>
			<line class="st1" x1="315.2" y1="143.6" x2="480.1" y2="143.6"/>
		</g>
	</g>
	<g id="LINE_50_">
		<g>
			<line class="st1" x1="315.2" y1="146.8" x2="475.7" y2="146.8"/>
		</g>
	</g>
	<g id="LINE_51_">
		<g>
			<line class="st1" x1="463.4" y1="153.3" x2="475.7" y2="153.3"/>
		</g>
	</g>
	<g id="LINE_52_">
		<g>
			<line class="st1" x1="318.4" y1="129.1" x2="480.1" y2="129.1"/>
		</g>
	</g>
	<g id="LINE_53_">
		<g>
			<line class="st1" x1="465.3" y1="143.6" x2="465.3" y2="129.1"/>
		</g>
	</g>
	<g id="LINE_54_">
		<g>
			<line class="st1" x1="311.9" y1="151.8" x2="311.9" y2="118.4"/>
		</g>
	</g>
	<g id="LINE_55_">
		<g>
			<line class="st1" x1="318.4" y1="151.8" x2="318.4" y2="146.8"/>
		</g>
	</g>
	<g id="LINE_56_">
		<g>
			<line class="st1" x1="311.9" y1="151.8" x2="318.4" y2="151.8"/>
		</g>
	</g>
	<g id="LINE_57_">
		<g>
			<line class="st1" x1="315.2" y1="146.8" x2="315.2" y2="143.6"/>
		</g>
	</g>
	<g id="LINE_58_">
		<g>
			<line class="st1" x1="318.4" y1="143.6" x2="318.4" y2="116.2"/>
		</g>
	</g>
	<g id="LINE_59_">
		<g>
			<line class="st1" x1="366.1" y1="129.1" x2="480.1" y2="91.2"/>
		</g>
	</g>
	<g id="LINE_60_">
		<g>
			<line class="st1" x1="502.2" y1="83.9" x2="518.2" y2="78.6"/>
		</g>
	</g>
	<g id="LINE_61_">
		<g>
			<line class="st1" x1="318.4" y1="124.6" x2="518.2" y2="58.3"/>
		</g>
	</g>
	<g id="LINE_62_">
		<g>
			<line class="st1" x1="302.1" y1="115.3" x2="518.2" y2="43.6"/>
		</g>
	</g>
	<g id="LINE_63_">
		<g>
			<line class="st1" x1="302.1" y1="121.6" x2="518.2" y2="49.9"/>
		</g>
	</g>
	<g id="LINE_64_">
		<g>
			<line class="st1" x1="302.1" y1="121.6" x2="302.1" y2="115.3"/>
		</g>
	</g>
	<g id="LINE_65_">
		<g>
			<line class="st1" x1="464.7" y1="76" x2="462.2" y2="68.5"/>
		</g>
	</g>
	<g id="LINE_66_">
		<g>
			<line class="st1" x1="478.6" y1="71.4" x2="476.1" y2="63.9"/>
		</g>
	</g>
	<g id="LINE_67_">
		<g>
			<line class="st1" x1="326.6" y1="121.9" x2="324.1" y2="114.3"/>
		</g>
	</g>
	<g id="LINE_68_">
		<g>
			<line class="st1" x1="340.6" y1="117.2" x2="338.1" y2="109.7"/>
		</g>
	</g>
	<g id="LINE_69_">
		<g>
			<line class="st1" x1="476.4" y1="144.3" x2="472.6" y2="191.3"/>
		</g>
	</g>
	<g id="LINE_70_">
		<g>
			<line class="st1" x1="472.6" y1="191.3" x2="475.9" y2="191.4"/>
		</g>
	</g>
	<g id="LINE_71_">
		<g>
			<line class="st1" x1="479.7" y1="144.5" x2="475.9" y2="191.4"/>
		</g>
	</g>
	<g id="LINE_72_">
		<g>
			<line class="st1" x1="476.4" y1="144.3" x2="479.7" y2="144.5"/>
		</g>
	</g>
	<g id="LINE_73_">
		<g>
			<line class="st1" x1="476.4" y1="185" x2="474.5" y2="209"/>
		</g>
	</g>
	<g id="LINE_74_">
		<g>
			<line class="st1" x1="479.7" y1="185.2" x2="477.8" y2="209"/>
		</g>
	</g>
	<g id="LINE_75_">
		<g>
			<line class="st1" x1="476.4" y1="185" x2="479.7" y2="185.2"/>
		</g>
	</g>
	<g id="LINE_76_">
		<g>
			<line class="st1" x1="472.5" y1="146.8" x2="472.5" y2="143.6"/>
		</g>
	</g>
	<g id="LINE_77_">
		<g>
			<line class="st1" x1="475.7" y1="153.3" x2="475.7" y2="146.8"/>
		</g>
	</g>
	<g id="LINE_114_">
		<g>
			<line class="st3" x1="465.3" y1="143.6" x2="480.1" y2="129.1"/>
		</g>
	</g>
	<g id="LINE_116_">
		<g>
			<line class="st3" x1="463.4" y1="153.3" x2="475.7" y2="146.8"/>
		</g>
	</g>
</g>
<g id="LINE_117_">
	<g>
		<line class="st0" x1="475.7" y1="153.3" x2="463.4" y2="146.8"/>
	</g>
</g>
<g>
	<g id="POLYLINE_6_">
		<g id="POLYLINE_13_">
			<g>
				<g>
					<g>
						<g>
							<g>
								<polyline class="st4" points="425.2,155.3 420.8,171.7 399.2,171.7 								"/>
								<g>
									<polygon class="st5" points="421.8,156.5 427.5,146.8 427.5,158 									"/>
								</g>
							</g>
						</g>
					</g>
				</g>
			</g>
		</g>
	</g>
	<g id="POLYLINE_8_">
		<g id="POLYLINE_11_">
			<g>
				<g>
					<g>
						<g>
							<g>
								<polyline class="st4" points="463.6,161.7 453.2,194 422.5,194 								"/>
								<g>
									<polygon class="st5" points="460.3,162.7 466.4,153.3 465.8,164.5 									"/>
								</g>
							</g>
						</g>
					</g>
				</g>
			</g>
		</g>
	</g>
	<g id="POLYLINE_10_">
		<g id="POLYLINE_9_">
			<g>
				<g>
					<g>
						<g>
							<g>
								<polyline class="st4" points="353.3,125.9 373.6,103.3 373.6,34.1 388.1,34.1 								"/>
								<g>
									<polygon class="st5" points="356.8,126.3 347.4,132.5 352.5,122.5 									"/>
								</g>
							</g>
						</g>
					</g>
				</g>
			</g>
		</g>
	</g>
	<g id="POLYLINE_12_">
		<g id="POLYLINE_7_">
			<g>
				<g>
					<g>
						<g>
							<g>
								<polyline class="st4" points="325.8,133.2 342,121 342,80.5 330.3,80.5 								"/>
								<g>
									<polygon class="st5" points="329.2,134.4 318.8,138.6 325.7,129.7 									"/>
								</g>
							</g>
						</g>
					</g>
				</g>
			</g>
		</g>
	</g>
</g>
<g id="POLYLINE">
	<g id="POLYLINE_18_">
		<g>
			<g>
				<g>
					<g>
						<g>
							<polyline class="st4" points="154.9,155.8 150.6,171.7 139.1,171.7 							"/>
							<g>
								<polygon class="st5" points="151.6,157 157.2,147.2 157.2,158.5 								"/>
							</g>
						</g>
					</g>
				</g>
			</g>
		</g>
	</g>
</g>
<g id="POLYLINE_2_">
	<g id="POLYLINE_17_">
		<g>
			<g>
				<g>
					<g>
						<g>
							<polyline class="st4" points="178.6,161.9 173,194 162.4,194 							"/>
							<g>
								<polygon class="st5" points="175.4,163.4 180.1,153.2 181.1,164.4 								"/>
							</g>
						</g>
					</g>
				</g>
			</g>
		</g>
	</g>
</g>
<g id="POLYLINE_4_">
	<g id="POLYLINE_15_">
		<g>
			<g>
				<g>
					<g>
						<g>
							<polyline class="st4" points="170.7,85.3 166.8,37.4 171.4,37.4 							"/>
							<g>
								<polygon class="st5" points="173.4,83.1 171.4,94.1 167.7,83.6 								"/>
							</g>
						</g>
					</g>
				</g>
			</g>
		</g>
	</g>
</g>
<g id="POLYLINE_14_">
	<g id="POLYLINE_5_">
		<g>
			<g>
				<g>
					<g>
						<g>
							<polyline class="st4" points="65.3,133.5 81.8,121 81.8,80.5 69.2,80.5 							"/>
							<g>
								<polygon class="st5" points="68.7,134.6 58.3,138.9 65.2,130 								"/>
							</g>
						</g>
					</g>
				</g>
			</g>
		</g>
	</g>
</g>
<g id="POLYLINE_16_">
	<g id="POLYLINE_3_">
		<g>
			<g>
				<g>
					<g>
						<g>
							<polyline class="st4" points="94.2,123.9 130.6,75.7 130.6,51.7 118.4,51.7 							"/>
							<g>
								<polygon class="st5" points="97.7,124.1 88.8,131 93.1,120.6 								"/>
							</g>
						</g>
					</g>
				</g>
			</g>
		</g>
	</g>
</g>
<g id="MTEXT_3_">
	<g>
		<text transform="matrix(1 0 0 1 55.942 241.1978)" class="st5 st6 st7">(a) Masonry-veneer construction</text>
	</g>
</g>
<g id="MTEXT_9_">
	<g>
		<text transform="matrix(1 0 0 1 315.2139 241.1978)" class="st5 st6 st7">(b) Clad frame construction</text>
	</g>
</g>
<g>
	<g id="LINE">
		<g id="LINE_153_">
			<g>
				<g>
					<g>
						<line class="st1" x1="62.3" y1="143.6" x2="68" y2="141.7"/>
						<line class="st1" x1="72.6" y1="140.1" x2="72.6" y2="140.1"/>
						<line class="st8" x1="72.6" y1="140.1" x2="100.3" y2="131"/>
						<line class="st1" x1="100.3" y1="131" x2="105.9" y2="129.1"/>
					</g>
				</g>
			</g>
		</g>
	</g>
	<g id="LINE_2_">
		<g>
			<line class="st1" x1="50.4" y1="135.4" x2="50.4" y2="121"/>
		</g>
	</g>
	<g id="LINE_3_">
		<g>
			<line class="st1" x1="36.5" y1="137.3" x2="48.5" y2="137.3"/>
		</g>
	</g>
	<g id="LINE_4_">
		<g>
			<line class="st1" x1="29.3" y1="121.3" x2="30.5" y2="131.9"/>
		</g>
	</g>
	<g id="LINE_5_">
		<g>
			<line class="st1" x1="28.3" y1="121.3" x2="29.3" y2="121.3"/>
		</g>
	</g>
	<g id="SPLINE">
		<g>
			<path class="st1" d="M30.5,131.9c0.3,3.1,2.9,5.4,6,5.4"/>
		</g>
	</g>
	<g id="SPLINE_1_">
		<g>
			<path class="st1" d="M48.5,137.3c1,0,1.9-0.8,1.9-1.9"/>
		</g>
	</g>
	<g id="LINE_10_">
		<g>
			<line class="st1" x1="219.9" y1="209" x2="219.9" y2="81.5"/>
		</g>
	</g>
	<g id="LINE_11_">
		<g>
			<line class="st1" x1="242.1" y1="209" x2="242.1" y2="81.5"/>
		</g>
	</g>
	<g id="LINE_12_">
		<g>
			<line class="st1" x1="219.9" y1="81.5" x2="242.1" y2="81.5"/>
		</g>
	</g>
	<g id="LINE_13_">
		<g>
			<line class="st1" x1="219.9" y1="94.1" x2="242.1" y2="94.1"/>
		</g>
	</g>
	<g id="LINE_14_">
		<g>
			<line class="st1" x1="187.7" y1="140.3" x2="209.9" y2="140.3"/>
		</g>
	</g>
	<g id="LINE_15_">
		<g>
			<line class="st1" x1="187.7" y1="209" x2="187.7" y2="129.1"/>
		</g>
	</g>
	<g id="LINE_16_">
		<g>
			<line class="st1" x1="209.9" y1="209" x2="209.9" y2="140.3"/>
		</g>
	</g>
	<g id="LINE_17_">
		<g>
			<line class="st1" x1="175.8" y1="152.9" x2="175.8" y2="146.8"/>
		</g>
	</g>
	<g id="LINE_18_">
		<g>
			<line class="st1" x1="55.1" y1="143.6" x2="187.7" y2="143.6"/>
		</g>
	</g>
	<g id="LINE_19_">
		<g>
			<line class="st1" x1="55.1" y1="146.8" x2="187.7" y2="146.8"/>
		</g>
	</g>
	<g id="LINE_20_">
		<g>
			<line class="st1" x1="175.8" y1="152.9" x2="187.7" y2="152.9"/>
		</g>
	</g>
	<g id="LINE_21_">
		<g>
			<line class="st1" x1="58.3" y1="129.1" x2="166.3" y2="129.1"/>
		</g>
	</g>
	<g id="LINE_22_">
		<g>
			<line class="st1" x1="175.8" y1="129.1" x2="187.7" y2="129.1"/>
		</g>
	</g>
	<g id="LINE_23_">
		<g>
			<line class="st1" x1="166.3" y1="140" x2="166.3" y2="93.9"/>
		</g>
	</g>
	<g id="LINE_24_">
		<g>
			<line class="st1" x1="166.3" y1="140" x2="175.3" y2="140"/>
		</g>
	</g>
	<g id="LINE_25_">
		<g>
			<line class="st1" x1="175.8" y1="143.6" x2="175.8" y2="93.9"/>
		</g>
	</g>
	<g id="LINE_26_">
		<g>
			<line class="st1" x1="51.7" y1="151.8" x2="51.7" y2="118.4"/>
		</g>
	</g>
	<g id="LINE_27_">
		<g>
			<line class="st1" x1="58.3" y1="151.8" x2="58.3" y2="146.8"/>
		</g>
	</g>
	<g id="LINE_28_">
		<g>
			<line class="st1" x1="51.7" y1="151.8" x2="58.3" y2="151.8"/>
		</g>
	</g>
	<g id="LINE_29_">
		<g>
			<line class="st1" x1="55.1" y1="146.8" x2="55.1" y2="143.6"/>
		</g>
	</g>
	<g id="LINE_30_">
		<g>
			<line class="st1" x1="58.3" y1="143.6" x2="58.3" y2="116.2"/>
		</g>
	</g>
	<g id="LINE_31_">
		<g>
			<line class="st1" x1="175.8" y1="105.9" x2="219.9" y2="91.2"/>
		</g>
	</g>
	<g id="LINE_32_">
		<g>
			<line class="st1" x1="166.3" y1="93.9" x2="175.8" y2="93.9"/>
		</g>
	</g>
	<g id="LINE_33_">
		<g>
			<line class="st1" x1="105.9" y1="129.1" x2="166.3" y2="109"/>
		</g>
	</g>
	<g id="LINE_34_">
		<g>
			<line class="st1" x1="242.1" y1="83.9" x2="258" y2="78.6"/>
		</g>
	</g>
	<g id="LINE_35_">
		<g>
			<line class="st1" x1="58.3" y1="124.6" x2="258" y2="58.3"/>
		</g>
	</g>
	<g id="LINE_36_">
		<g>
			<line class="st1" x1="42" y1="115.3" x2="258" y2="43.6"/>
		</g>
	</g>
	<g id="LINE_37_">
		<g>
			<line class="st1" x1="42" y1="121.6" x2="258" y2="49.9"/>
		</g>
	</g>
	<g id="LINE_38_">
		<g>
			<line class="st1" x1="42" y1="121.6" x2="42" y2="115.3"/>
		</g>
	</g>
	<g id="LINE_39_">
		<g>
			<line class="st1" x1="204.5" y1="76" x2="202" y2="68.5"/>
		</g>
	</g>
	<g id="LINE_40_">
		<g>
			<line class="st1" x1="218.4" y1="71.4" x2="215.9" y2="63.9"/>
		</g>
	</g>
	<g id="LINE_41_">
		<g>
			<line class="st1" x1="66.5" y1="121.9" x2="64" y2="114.3"/>
		</g>
	</g>
	<g id="LINE_42_">
		<g>
			<line class="st1" x1="80.4" y1="117.2" x2="77.9" y2="109.7"/>
		</g>
	</g>
	<g id="CIRCLE">
		<g>
			<path class="st1" d="M172.5,101.3c0-0.2,0.2-0.4,0.4-0.4c0.2,0,0.4,0.2,0.4,0.4c0,0.2-0.2,0.4-0.4,0.4
				C172.7,101.6,172.5,101.5,172.5,101.3L172.5,101.3z"/>
		</g>
	</g>
	<g id="CIRCLE_1_">
		<g>
			<path class="st1" d="M168.7,97.4c0-0.2,0.2-0.4,0.4-0.4s0.4,0.2,0.4,0.4c0,0.2-0.2,0.4-0.4,0.4S168.7,97.7,168.7,97.4L168.7,97.4
				z"/>
		</g>
	</g>
	<g id="CIRCLE_2_">
		<g>
			<path class="st1" d="M172.5,136.3c0-0.2,0.2-0.4,0.4-0.4c0.2,0,0.4,0.2,0.4,0.4c0,0.2-0.2,0.4-0.4,0.4
				C172.7,136.7,172.5,136.5,172.5,136.3L172.5,136.3z"/>
		</g>
	</g>
	<g id="CIRCLE_3_">
		<g>
			<path class="st1" d="M168.7,132.5c0-0.2,0.2-0.4,0.4-0.4s0.4,0.2,0.4,0.4c0,0.2-0.2,0.4-0.4,0.4S168.7,132.7,168.7,132.5
				L168.7,132.5z"/>
		</g>
	</g>
	<g id="LINE_118_">
		<g>
			<line class="st1" x1="187.7" y1="154.3" x2="209.9" y2="154.3"/>
		</g>
	</g>
	<g id="LINE_119_">
		<g>
			<line class="st1" x1="187.7" y1="156.2" x2="209.9" y2="156.2"/>
		</g>
	</g>
	<g id="LINE_120_">
		<g>
			<line class="st1" x1="187.7" y1="170.8" x2="209.9" y2="170.8"/>
		</g>
	</g>
	<g id="LINE_121_">
		<g>
			<line class="st1" x1="187.7" y1="172.6" x2="209.9" y2="172.6"/>
		</g>
	</g>
	<g id="LINE_122_">
		<g>
			<line class="st1" x1="187.7" y1="187.2" x2="209.9" y2="187.2"/>
		</g>
	</g>
	<g id="LINE_123_">
		<g>
			<line class="st1" x1="187.7" y1="189.1" x2="209.9" y2="189.1"/>
		</g>
	</g>
	<g id="LINE_124_">
		<g>
			<line class="st1" x1="187.7" y1="203.6" x2="209.9" y2="203.6"/>
		</g>
	</g>
	<g id="LINE_125_">
		<g>
			<line class="st1" x1="187.7" y1="205.5" x2="209.9" y2="205.5"/>
		</g>
	</g>
	<g id="MTEXT_10_">
	</g>
</g>
<g>
	<g id="MTEXT">
		<g>
			<text transform="matrix(1 0 0 1 174.3453 42.4517)" class="st5 st9 st7">Hanger</text>
		</g>
	</g>
	<g id="MTEXT_1_">
		<g>
			<text transform="matrix(1 0 0 1 34.817 174.6724)" class="st5 st9 st7">Soffit / eaves lining</text>
		</g>
	</g>
	<g id="MTEXT_2_">
		<g>
			<text transform="matrix(1 0 0 1 36.2614 196.8062)" class="st5 st9 st7">Weather / storm mould</text>
		</g>
	</g>
	<g id="MTEXT_11_">
		<g>
			<text transform="matrix(1 0 0 1 36.2145 40.5799)"><tspan x="0" y="0" class="st5 st9 st7">Trimmer nailed </tspan><tspan x="0" y="14.4" class="st5 st9 st7">to side of rafter </tspan></text>
		</g>
	</g>
	<g id="MTEXT_12_">
		<g>
			<text transform="matrix(1 0 0 1 31.7096 82.5523)" class="st5 st9 st7">Fascia</text>
		</g>
	</g>
</g>
<g>
	<g id="MTEXT_6_">
		<g>
			<text transform="matrix(1 0 0 1 291.8658 82.5523)" class="st5 st9 st7">Fascia</text>
		</g>
	</g>
	<g id="MTEXT_7_">
		<g>
			<text transform="matrix(1 0 0 1 294.9723 174.6724)" class="st5 st9 st7">Soffit / eaves lining</text>
		</g>
	</g>
	<g id="MTEXT_8_">
		<g>
			<text transform="matrix(1 0 0 1 296.4166 196.8062)" class="st5 st9 st7">Weather / storm mould</text>
		</g>
	</g>
	<g id="MTEXT_4_">
		<g>
			<text transform="matrix(1 0 0 1 392.449 37.8924)"><tspan x="0" y="0" class="st5 st9 st7">Trimmer nailed </tspan><tspan x="0" y="14.4" class="st5 st9 st7">to side of rafter </tspan></text>
		</g>
	</g>
</g>
<polyline class="st10" points="258.5,39.8 258.5,62.6 264.4,65.9 252.6,65.9 258.5,69.1 258.5,83.9 "/>
<polyline class="st10" points="518.2,40.6 518.2,63.3 524,66.6 512.3,66.6 518.2,69.9 518.2,84.6 "/>
<polyline class="st10" points="508.5,209 492.3,209 489,214.8 489,203.1 485.7,209 471,209 "/>
<polyline class="st10" points="246.6,209.3 217.4,209.3 214.1,215.2 214.1,203.4 210.8,209.3 184.6,209.3 "/>
</svg>
