<?xml version="1.0" encoding="utf-8"?>
<!-- Generator: Adobe Illustrator 25.2.1, SVG Export Plug-In . SVG Version: 6.00 Build 0)  -->
<svg version="1.1" id="_x30_" xmlns="http://www.w3.org/2000/svg" xmlns:xlink="http://www.w3.org/1999/xlink" x="0px" y="0px"
	 viewBox="0 0 552.8 402.4" style="enable-background:new 0 0 552.8 402.4;" xml:space="preserve">
<style type="text/css">
	.st0{fill-rule:evenodd;clip-rule:evenodd;fill:none;}
	.st1{clip-path:url(#SVGID_2_);fill:none;stroke:#211F1F;stroke-width:0.5;stroke-linejoin:round;}
	.st2{fill:none;stroke:#1D1D1B;stroke-width:0.25;stroke-miterlimit:10;}
	.st3{fill:#1D1D1B;}
	.st4{font-family:'ArialMT';}
	.st5{font-size:12px;}
	.st6{fill:none;stroke:#1D1D1B;stroke-width:0.75;stroke-miterlimit:10;}
	.st7{fill:none;stroke:#1D1D1B;stroke-width:0.5;stroke-miterlimit:10;stroke-dasharray:6,6,0,0;}
	.st8{fill:none;stroke:#1D1D1B;stroke-miterlimit:10;}
	.st9{fill:none;}
	.st10{fill:url(#SVGID_3_);}
	.st11{fill:url(#SVGID_4_);}
</style>
<pattern  y="635" width="72" height="72" patternUnits="userSpaceOnUse" id="diagonal_cross_hatch_2" viewBox="6.2 -86.2 72 72" style="overflow:visible;">
	<g>
		<rect x="6.2" y="-86.2" class="st0" width="72" height="72"/>
		<g>
			<defs>
				<rect id="SVGID_1_" x="6.2" y="-86.2" width="72" height="72"/>
			</defs>
			<clipPath id="SVGID_2_">
				<use xlink:href="#SVGID_1_"  style="overflow:visible;"/>
			</clipPath>
			<line class="st1" x1="0.2" y1="-74.2" x2="18.2" y2="-92.2"/>
			<line class="st1" x1="0.2" y1="-68.2" x2="24.2" y2="-92.2"/>
			<line class="st1" x1="0.2" y1="-62.2" x2="30.2" y2="-92.2"/>
			<line class="st1" x1="0.2" y1="-56.2" x2="36.2" y2="-92.2"/>
			<line class="st1" x1="0.2" y1="-50.2" x2="42.2" y2="-92.2"/>
			<line class="st1" x1="0.2" y1="-44.2" x2="48.2" y2="-92.2"/>
			<line class="st1" x1="0.2" y1="-38.2" x2="54.2" y2="-92.2"/>
			<line class="st1" x1="0.2" y1="-32.2" x2="60.2" y2="-92.2"/>
			<line class="st1" x1="0.2" y1="-26.2" x2="66.2" y2="-92.2"/>
			<line class="st1" x1="0.2" y1="-20.2" x2="72.2" y2="-92.2"/>
			<line class="st1" x1="0.2" y1="-14.2" x2="78.2" y2="-92.2"/>
			<line class="st1" x1="0.2" y1="-8.2" x2="84.2" y2="-92.2"/>
			<line class="st1" x1="6.2" y1="-8.2" x2="84.2" y2="-86.2"/>
			<line class="st1" x1="12.2" y1="-8.2" x2="84.2" y2="-80.2"/>
			<line class="st1" x1="18.2" y1="-8.2" x2="84.2" y2="-74.2"/>
			<line class="st1" x1="24.2" y1="-8.2" x2="84.2" y2="-68.2"/>
			<line class="st1" x1="30.2" y1="-8.2" x2="84.2" y2="-62.2"/>
			<line class="st1" x1="36.2" y1="-8.2" x2="84.2" y2="-56.2"/>
			<line class="st1" x1="42.2" y1="-8.2" x2="84.2" y2="-50.2"/>
			<line class="st1" x1="48.2" y1="-8.2" x2="84.2" y2="-44.2"/>
			<line class="st1" x1="54.2" y1="-8.2" x2="84.2" y2="-38.2"/>
			<line class="st1" x1="52.2" y1="-0.2" x2="94.2" y2="-42.2"/>
			<line class="st1" x1="58.2" y1="-0.2" x2="94.2" y2="-36.2"/>
			<line class="st1" x1="64.2" y1="-0.2" x2="94.2" y2="-30.2"/>
		</g>
	</g>
</pattern>
<g>
	<g>
		<line class="st2" x1="276.4" y1="88.2" x2="276.4" y2="62.8"/>
		<g>
			<polygon class="st3" points="279.3,86.2 276.4,97.1 273.5,86.2 			"/>
		</g>
	</g>
</g>
<text transform="matrix(1 0 0 1 222.6135 59.4625)" class="st3 st4 st5">Not less than 1.8 m </text>
<g>
	<rect x="21.8" y="75.7" class="st6" width="204.8" height="139.8"/>
	<polyline class="st7" points="21.8,215.5 86.4,145.6 21.8,75.7 	"/>
	<path class="st8" d="M226.7,75.7"/>
	<polyline class="st7" points="226.7,75.7 162.1,145.6 226.7,215.5 	"/>
	<line class="st7" x1="86.4" y1="145.6" x2="162.1" y2="145.6"/>
	<text transform="matrix(1 0 0 1 120.8107 137.0884)" class="st3 st4 st5">1</text>
</g>
<g>
	<rect x="167.6" y="234.1" class="st6" width="93" height="79.3"/>
	<text transform="matrix(1 0 0 1 201.3508 278.7535)" class="st3 st4 st5">10a</text>
</g>
<g>
	<path class="st9" d="M173.3,303.5"/>
</g>
<line class="st6" x1="167.6" y1="241.6" x2="226.7" y2="241.6"/>
<g>
	
		<rect x="326.1" y="75.7" transform="matrix(-1 -4.489665e-11 4.489665e-11 -1 857.0103 291.281)" class="st6" width="204.8" height="139.8"/>
	<polyline class="st7" points="530.9,215.5 466.4,145.6 530.9,75.7 	"/>
	<path class="st8" d="M326.1,75.7"/>
	<polyline class="st7" points="326.1,75.7 390.6,145.6 326.1,215.5 	"/>
	<line class="st7" x1="466.4" y1="145.6" x2="390.6" y2="145.6"/>
	<text transform="matrix(1 0 0 1 428.5051 137.0884)" class="st3 st4 st5">1</text>
</g>
<g>
	<path class="st9" d="M413.4,141.3"/>
</g>
<g>
	
		<rect x="292.1" y="234.1" transform="matrix(-1 -4.485979e-11 4.485979e-11 -1 677.2269 547.5914)" class="st6" width="93" height="79.3"/>
	<text transform="matrix(1 0 0 1 330.3322 278.7535)" class="st3 st4 st5">10a</text>
</g>
<line class="st6" x1="385.1" y1="241.6" x2="326.1" y2="241.6"/>
<g>
	<g>
		<line class="st2" x1="276.4" y1="295.8" x2="276.4" y2="331.2"/>
		<g>
			<polygon class="st3" points="273.5,297.8 276.4,287 279.3,297.8 			"/>
		</g>
	</g>
</g>
<text transform="matrix(1 0 0 1 232.677 342.9761)" class="st3 st4 st5">Less than 1.8 m </text>
<text transform="matrix(1 0 0 1 425.0963 228.4721)" class="st3 st4 st5">Less than 900 mm </text>
<text transform="matrix(1 0 0 1 31.8332 228.472)" class="st3 st4 st5">Less than 900 mm </text>
<g>
	<g>
		<line class="st2" x1="169.1" y1="225.2" x2="132.3" y2="225.3"/>
		<g>
			<polygon class="st3" points="167.2,222.3 178,225.2 167.2,228.1 			"/>
		</g>
	</g>
</g>
<g>
	<g>
		<line class="st2" x1="420.5" y1="225.2" x2="383.6" y2="225.3"/>
		<g>
			<polygon class="st3" points="385.6,222.4 374.8,225.3 385.6,228.2 			"/>
		</g>
	</g>
</g>
<pattern  id="SVGID_3_" xlink:href="#diagonal_cross_hatch_2" patternTransform="matrix(0.7904 0 0 0.9302 -1652.6106 -651.6088)">
</pattern>
<rect x="326.1" y="234.6" class="st10" width="59" height="7.1"/>
<pattern  id="SVGID_4_" xlink:href="#diagonal_cross_hatch_2" patternTransform="matrix(0.7904 0 0 0.9302 -1691.1753 -651.9736)">
</pattern>
<rect x="167.6" y="234.1" class="st11" width="59" height="7.5"/>
<rect x="60.2" y="258" class="st9" width="92" height="32.8"/>
<text transform="matrix(1 0 0 1 60.1949 266.5538)"><tspan x="0" y="0" class="st4 st5">Wall with a FRL </tspan><tspan x="0" y="14.4" class="st4 st5">of 60/60/60</tspan></text>
<line class="st6" x1="226.7" y1="234.1" x2="226.7" y2="241.6"/>
<line class="st6" x1="326.1" y1="234.6" x2="326.1" y2="241.6"/>
<g>
	<g>
		<line class="st2" x1="161.4" y1="244.1" x2="143.3" y2="262.2"/>
		<g>
			<polygon class="st3" points="157.9,243.5 167.6,237.9 162,247.6 			"/>
		</g>
	</g>
</g>
<rect x="412" y="258.6" class="st9" width="92" height="32.8"/>
<text transform="matrix(1 0 0 1 411.9877 267.2032)"><tspan x="0" y="0" class="st4 st5">Wall with a FRL </tspan><tspan x="0" y="14.4" class="st4 st5">of 60/60/60</tspan></text>
<g>
	<g>
		<line class="st2" x1="391.4" y1="244.8" x2="409.4" y2="262.9"/>
		<g>
			<polygon class="st3" points="390.7,248.3 385.1,238.5 394.8,244.1 			"/>
		</g>
	</g>
</g>
</svg>
