<?xml version="1.0" encoding="utf-8"?>
<!-- Generator: Adobe Illustrator 25.2.1, SVG Export Plug-In . SVG Version: 6.00 Build 0)  -->
<svg version="1.1" id="_x30_" xmlns="http://www.w3.org/2000/svg" xmlns:xlink="http://www.w3.org/1999/xlink" x="0px" y="0px"
	 viewBox="0 0 552.8 536.7" style="enable-background:new 0 0 552.8 536.7;" xml:space="preserve">
<style type="text/css">
	.st0{fill:none;stroke:#231F20;stroke-width:0.75;stroke-miterlimit:10;}
	.st1{fill:none;stroke:#231F20;stroke-miterlimit:10;}
	.st2{fill:none;stroke:#231F20;stroke-width:1.5;stroke-miterlimit:10;stroke-dasharray:5,11,25,11;}
	.st3{fill:none;stroke:#231F20;stroke-width:0.25;stroke-miterlimit:10;}
	.st4{fill:#231F20;}
	.st5{font-family:'ArialMT';}
	.st6{font-size:12px;}
	.st7{font-family:'Arial-ItalicMT';}
	.st8{font-family:'Arial-BoldMT';}
	.st9{fill:none;stroke:#231F20;stroke-width:0.75;stroke-linecap:square;stroke-linejoin:bevel;stroke-miterlimit:10;}
</style>
<g>
	<g id="LINE_10_">
		<g>
			<line class="st0" x1="436.8" y1="127.1" x2="417.6" y2="127.1"/>
		</g>
	</g>
	<g id="LINE_11_">
		<g>
			<line class="st0" x1="436.8" y1="121.7" x2="417.6" y2="121.7"/>
		</g>
	</g>
	<g id="LINE_12_">
		<g>
			<line class="st0" x1="436.8" y1="132.5" x2="417.6" y2="132.5"/>
		</g>
	</g>
	<g id="LINE_13_">
		<g>
			<line class="st0" x1="436.8" y1="137.9" x2="417.6" y2="137.9"/>
		</g>
	</g>
	<g id="LINE_14_">
		<g>
			<line class="st0" x1="436.8" y1="143.4" x2="417.6" y2="143.4"/>
		</g>
	</g>
	<g id="LINE_15_">
		<g>
			<line class="st0" x1="436.8" y1="148.8" x2="417.6" y2="148.8"/>
		</g>
	</g>
	<g id="LINE_16_">
		<g>
			<line class="st0" x1="436.8" y1="154.2" x2="417.6" y2="154.2"/>
		</g>
	</g>
	<g id="LINE_17_">
		<g>
			<line class="st0" x1="436.8" y1="159.6" x2="417.6" y2="159.6"/>
		</g>
	</g>
	<g id="LINE_18_">
		<g>
			<line class="st0" x1="436.8" y1="165" x2="417.6" y2="165"/>
		</g>
	</g>
	<g id="LINE_19_">
		<g>
			<line class="st0" x1="436.8" y1="170.5" x2="417.6" y2="170.5"/>
		</g>
	</g>
	<g id="LINE_20_">
		<g>
			<line class="st0" x1="436.8" y1="175.9" x2="417.6" y2="175.9"/>
		</g>
	</g>
	<g id="LINE_21_">
		<g>
			<line class="st0" x1="436.8" y1="181.3" x2="417.6" y2="181.3"/>
		</g>
	</g>
	<g id="LINE_22_">
		<g>
			<line class="st0" x1="436.8" y1="186.7" x2="417.6" y2="186.7"/>
		</g>
	</g>
	<g id="LINE_23_">
		<g>
			<line class="st0" x1="436.8" y1="192.2" x2="417.6" y2="192.2"/>
		</g>
	</g>
	<g id="LINE_24_">
		<g>
			<line class="st0" x1="436.8" y1="197.6" x2="417.6" y2="197.6"/>
		</g>
	</g>
	<g id="LINE_25_">
		<g>
			<line class="st0" x1="436.8" y1="203" x2="417.6" y2="203"/>
		</g>
	</g>
	<g id="LINE_26_">
		<g>
			<line class="st0" x1="436.8" y1="208.4" x2="417.6" y2="208.4"/>
		</g>
	</g>
	<g id="LINE_27_">
		<g>
			<line class="st0" x1="436.8" y1="213.8" x2="417.6" y2="213.8"/>
		</g>
	</g>
	<g id="LINE_28_">
		<g>
			<line class="st0" x1="436.8" y1="219.3" x2="417.6" y2="219.3"/>
		</g>
	</g>
	<g id="LINE_29_">
		<g>
			<line class="st0" x1="436.8" y1="224.7" x2="417.6" y2="224.7"/>
		</g>
	</g>
	<g id="LINE_30_">
		<g>
			<line class="st0" x1="436.8" y1="230.1" x2="417.6" y2="230.1"/>
		</g>
	</g>
	<g id="LINE_31_">
		<g>
			<line class="st0" x1="436.8" y1="235.5" x2="417.6" y2="235.5"/>
		</g>
	</g>
	<g id="LINE_32_">
		<g>
			<line class="st0" x1="436.8" y1="240.9" x2="417.6" y2="240.9"/>
		</g>
	</g>
	<g id="LINE_33_">
		<g>
			<line class="st0" x1="436.8" y1="246.4" x2="417.6" y2="246.4"/>
		</g>
	</g>
	<g id="LINE_34_">
		<g>
			<line class="st0" x1="436.8" y1="251.8" x2="417.6" y2="251.8"/>
		</g>
	</g>
	<g id="LINE_35_">
		<g>
			<line class="st0" x1="436.8" y1="257.2" x2="417.6" y2="257.2"/>
		</g>
	</g>
	<g id="LINE_36_">
		<g>
			<line class="st0" x1="436.8" y1="262.6" x2="417.6" y2="262.6"/>
		</g>
	</g>
	<g id="LINE_37_">
		<g>
			<line class="st0" x1="436.8" y1="268.1" x2="417.6" y2="268.1"/>
		</g>
	</g>
	<g id="LINE_38_">
		<g>
			<line class="st0" x1="436.8" y1="273.5" x2="417.6" y2="273.5"/>
		</g>
	</g>
	<g id="LINE_39_">
		<g>
			<line class="st0" x1="436.8" y1="278.9" x2="417.6" y2="278.9"/>
		</g>
	</g>
	<g id="LINE_40_">
		<g>
			<line class="st0" x1="436.8" y1="284.3" x2="417.6" y2="284.3"/>
		</g>
	</g>
	<g id="LINE_41_">
		<g>
			<line class="st0" x1="436.8" y1="289.7" x2="417.6" y2="289.7"/>
		</g>
	</g>
	<g id="LINE_42_">
		<g>
			<line class="st0" x1="436.8" y1="295.2" x2="417.6" y2="295.2"/>
		</g>
	</g>
	<g id="LINE_43_">
		<g>
			<line class="st0" x1="436.8" y1="300.6" x2="417.6" y2="300.6"/>
		</g>
	</g>
	<g id="LINE_44_">
		<g>
			<line class="st0" x1="436.8" y1="306" x2="417.6" y2="306"/>
		</g>
	</g>
	<g id="LINE_45_">
		<g>
			<line class="st0" x1="436.8" y1="311.4" x2="417.6" y2="311.4"/>
		</g>
	</g>
	<g id="LINE_46_">
		<g>
			<line class="st0" x1="436.8" y1="316.9" x2="417.6" y2="316.9"/>
		</g>
	</g>
	<g id="LINE_47_">
		<g>
			<line class="st0" x1="436.8" y1="322.3" x2="417.6" y2="322.3"/>
		</g>
	</g>
	<g id="LINE_48_">
		<g>
			<line class="st0" x1="436.8" y1="327.7" x2="417.6" y2="327.7"/>
		</g>
	</g>
	<g id="LINE_49_">
		<g>
			<line class="st0" x1="436.8" y1="333.1" x2="417.6" y2="333.1"/>
		</g>
	</g>
	<g id="LINE_50_">
		<g>
			<line class="st0" x1="436.8" y1="338.5" x2="417.6" y2="338.5"/>
		</g>
	</g>
	<g id="LINE_51_">
		<g>
			<line class="st0" x1="436.8" y1="344" x2="417.6" y2="344"/>
		</g>
	</g>
	<g id="LINE_52_">
		<g>
			<line class="st0" x1="436.8" y1="349.4" x2="417.6" y2="349.4"/>
		</g>
	</g>
	<g id="LINE_53_">
		<g>
			<line class="st0" x1="436.8" y1="354.8" x2="417.6" y2="354.8"/>
		</g>
	</g>
	<g id="LINE_54_">
		<g>
			<line class="st0" x1="436.8" y1="360.2" x2="417.6" y2="360.2"/>
		</g>
	</g>
	<g id="LINE_55_">
		<g>
			<line class="st0" x1="436.8" y1="365.6" x2="417.6" y2="365.6"/>
		</g>
	</g>
	<g id="LINE_56_">
		<g>
			<line class="st0" x1="436.8" y1="371.1" x2="417.6" y2="371.1"/>
		</g>
	</g>
	<g id="LINE_57_">
		<g>
			<line class="st0" x1="436.8" y1="376.5" x2="417.6" y2="376.5"/>
		</g>
	</g>
	<g id="LINE_58_">
		<g>
			<line class="st0" x1="436.8" y1="381.9" x2="417.6" y2="381.9"/>
		</g>
	</g>
	<g id="LINE_59_">
		<g>
			<line class="st0" x1="436.8" y1="387.3" x2="417.6" y2="387.3"/>
		</g>
	</g>
	<g id="LINE_60_">
		<g>
			<line class="st0" x1="436.8" y1="392.8" x2="417.6" y2="392.8"/>
		</g>
	</g>
	<g id="LINE_61_">
		<g>
			<line class="st0" x1="436.8" y1="398.2" x2="417.6" y2="398.2"/>
		</g>
	</g>
	<g id="LINE_62_">
		<g>
			<line class="st0" x1="436.8" y1="403.6" x2="417.6" y2="403.6"/>
		</g>
	</g>
	<g id="LINE_63_">
		<g>
			<line class="st0" x1="436.8" y1="409" x2="417.6" y2="409"/>
		</g>
	</g>
	<g id="LINE_64_">
		<g>
			<line class="st0" x1="436.8" y1="414.4" x2="417.6" y2="414.4"/>
		</g>
	</g>
	<g id="LINE_65_">
		<g>
			<line class="st0" x1="436.8" y1="419.9" x2="417.6" y2="419.9"/>
		</g>
	</g>
	<g id="LINE_66_">
		<g>
			<line class="st0" x1="436.8" y1="425.3" x2="417.6" y2="425.3"/>
		</g>
	</g>
	<g id="LINE_67_">
		<g>
			<line class="st0" x1="436.8" y1="430.7" x2="417.6" y2="430.7"/>
		</g>
	</g>
	<g id="LINE_68_">
		<g>
			<line class="st0" x1="436.8" y1="436.1" x2="417.6" y2="436.1"/>
		</g>
	</g>
	<g id="LINE_69_">
		<g>
			<line class="st0" x1="436.8" y1="441.6" x2="417.6" y2="441.6"/>
		</g>
	</g>
	<g id="LINE_70_">
		<g>
			<line class="st0" x1="436.8" y1="447" x2="417.6" y2="447"/>
		</g>
	</g>
	<g id="LINE_71_">
		<g>
			<line class="st0" x1="436.8" y1="452.4" x2="417.6" y2="452.4"/>
		</g>
	</g>
	<g id="LINE_72_">
		<g>
			<line class="st0" x1="436.8" y1="457.8" x2="417.6" y2="457.8"/>
		</g>
	</g>
	<g id="LINE_73_">
		<g>
			<line class="st0" x1="436.8" y1="463.2" x2="417.6" y2="463.2"/>
		</g>
	</g>
	<g id="LINE_74_">
		<g>
			<line class="st0" x1="436.8" y1="468.7" x2="417.6" y2="468.7"/>
		</g>
	</g>
	<g id="LINE_75_">
		<g>
			<line class="st0" x1="436.8" y1="474.1" x2="417.6" y2="474.1"/>
		</g>
	</g>
	<g id="LINE_76_">
		<g>
			<line class="st0" x1="436.8" y1="479.5" x2="417.6" y2="479.5"/>
		</g>
	</g>
</g>
<g>
	<g id="LINE_77_">
		<g>
			<line class="st1" x1="436.8" y1="119.4" x2="46.2" y2="119.4"/>
		</g>
	</g>
	<g id="LINE_78_">
		<g>
			<line class="st1" x1="399.9" y1="129.7" x2="35.8" y2="129.7"/>
		</g>
	</g>
	<g id="LINE_79_">
		<g>
			<line class="st1" x1="399.9" y1="120.2" x2="399.9" y2="483.1"/>
		</g>
	</g>
	<g id="LINE_80_">
		<g>
			<line class="st1" x1="412.8" y1="119.4" x2="412.8" y2="483.1"/>
		</g>
	</g>
	<g id="LINE_81_">
		<g>
			<line class="st1" x1="417.6" y1="119.4" x2="417.6" y2="480.5"/>
		</g>
	</g>
	<g id="LINE_82_">
		<g>
			<line class="st1" x1="436.8" y1="119.4" x2="436.8" y2="483.1"/>
		</g>
	</g>
</g>
<g id="LINE_83_">
	<g>
		<line class="st2" x1="457.1" y1="506.8" x2="457.1" y2="29.8"/>
	</g>
</g>
<g id="SPLINE">
	<g id="SPLINE_2_">
		<g>
			<g>
				<g>
					<g>
						<g>
							<path class="st3" d="M448.2,50.6c-32.8,2.9-58.2,22.1-61.6,60"/>
							<g>
								<polygon class="st4" points="446.1,47.9 457.1,50.2 446.4,53.7 								"/>
							</g>
							<g>
								<polygon class="st4" points="383.9,108.5 386.3,119.4 389.7,108.8 								"/>
							</g>
						</g>
					</g>
				</g>
			</g>
		</g>
	</g>
</g>
<g id="POLYLINE_2_">
	<g id="POLYLINE_3_">
		<g>
			<g>
				<g>
					<g>
						<g>
							<polyline class="st3" points="234.1,138.1 215.3,199.7 182.8,199.7 							"/>
							<g>
								<polygon class="st4" points="230.7,139.2 236.7,129.7 236.3,140.9 								"/>
							</g>
						</g>
					</g>
				</g>
			</g>
		</g>
	</g>
</g>
<g id="MTEXT">
</g>
<g id="MTEXT_1_">
</g>
<g id="MTEXT_2_">
	<g>
		<text transform="matrix(1 0 0 1 59.3468 202.9931)"><tspan x="0" y="0" class="st4 st5 st6">No protection </tspan><tspan x="74.7" y="0" class="st4 st7 st6">required </tspan><tspan x="0" y="14.4" class="st4 st5 st6">for this wall or any </tspan><tspan x="0" y="28.8" class="st4 st5 st6">opening in this wall  </tspan></text>
		<text transform="matrix(1 0 0 1 184.9786 202.9931)" class="st4 st5 st6"> </text>
	</g>
</g>
<g id="MTEXT_3_">
	<g>
		<text transform="matrix(1 0 0 1 196.0402 369.854)" class="st4 st8 st6">Class 1</text>
	</g>
</g>
<g id="MTEXT_4_">
</g>
<g id="MTEXT_5_">
	<g>
		<text transform="matrix(1 0 0 1 472.6979 362.4198)"><tspan x="0" y="0" class="st4 st5 st6">Allotment </tspan><tspan x="0" y="14.4" class="st4 st5 st6">boundary </tspan></text>
	</g>
</g>
<g id="MTEXT_6_">
	<g>
		<text transform="matrix(0.7164 -0.6977 0.7164 0.6977 392.2523 68.4374)" class="st4 st5 st6">90°</text>
	</g>
</g>
<polyline class="st9" points="386.8,483.1 414.6,483.1 417.6,479 417.6,487.2 420.6,483.1 448.4,483.1 "/>
<polyline class="st9" points="28.3,137.4 39.8,126 39,121 44.8,126.8 44,121.7 55.7,110.1 "/>
</svg>
