<?xml version="1.0" encoding="utf-8"?>
<!-- Generator: Adobe Illustrator 25.2.1, SVG Export Plug-In . SVG Version: 6.00 Build 0)  -->
<svg version="1.1" xmlns="http://www.w3.org/2000/svg" xmlns:xlink="http://www.w3.org/1999/xlink" x="0px" y="0px"
	 viewBox="0 0 552.8 466.4" style="enable-background:new 0 0 552.8 466.4;" xml:space="preserve">
<style type="text/css">
	.st0{fill-rule:evenodd;clip-rule:evenodd;fill:#BBBDBF;}
	.st1{fill:none;stroke:#929497;stroke-linecap:round;stroke-linejoin:round;stroke-miterlimit:10;}
	.st2{fill:none;stroke:#000000;stroke-width:1.1522;stroke-linecap:round;stroke-linejoin:round;stroke-miterlimit:10;}
	.st3{fill:#231F20;}
	.st4{font-family:'Arial-BoldMT';}
	.st5{font-size:12px;}
	.st6{fill:#929497;}
	.st7{font-family:'ArialMT';}
	.st8{font-size:9px;}
	.st9{fill:none;stroke:#000000;stroke-width:0;stroke-linecap:round;stroke-linejoin:round;stroke-miterlimit:10;}
	.st10{fill:none;stroke:#A8A8A8;stroke-width:0;stroke-linecap:round;stroke-linejoin:round;stroke-miterlimit:10;}
	.st11{fill-rule:evenodd;clip-rule:evenodd;fill:#231F20;}
	.st12{fill:none;stroke:#231F20;stroke-width:3;stroke-miterlimit:10;}
	.st13{fill-rule:evenodd;clip-rule:evenodd;fill:#929497;}
	.st14{fill:none;stroke:#929497;stroke-width:3;stroke-miterlimit:10;}
	.st15{fill:none;stroke:#231F20;stroke-width:4;stroke-linecap:round;stroke-linejoin:round;stroke-miterlimit:10;}
</style>
<g id="Fills">
</g>
<g id="Dividing_lines">
</g>
<g id="Text">
</g>
<g id="Dots">
</g>
<g id="Arcs">
</g>
<g id="Cardinal_axes">
	<g>
		<g id="HATCH_1_">
			<polygon class="st0" points="175.2,305.1 173.9,302.4 172.6,299.7 171.5,296.9 277.2,253.1 277.9,252.8 277.6,253.5 233.8,359.3 
				231,358.1 228.3,356.8 225.6,355.5 222.9,354.1 220.3,352.6 217.7,351.1 215.1,349.5 212.6,347.8 210.2,346 207.8,344.2 
				205.4,342.4 203.1,340.4 200.8,338.5 198.6,336.4 196.4,334.3 194.3,332.1 192.3,329.9 190.3,327.7 188.4,325.3 186.5,323 
				184.7,320.6 182.9,318.1 181.3,315.6 179.7,313 178.1,310.4 176.6,307.8 			"/>
		</g>
		<g id="HATCH_2_">
			<polyline class="st0" points="278.2,252.1 322,146.4 324.8,147.6 327.5,148.8 330.2,150.2 332.9,151.6 335.5,153.1 338.1,154.6 
				340.7,156.2 343.2,157.9 345.6,159.6 348,161.4 350.4,163.3 352.7,165.2 355,167.2 357.2,169.3 359.4,171.4 361.5,173.5 
				363.5,175.7 365.5,178 367.4,180.3 369.3,182.7 371.1,185.1 372.9,187.6 374.5,190.1 376.1,192.6 377.7,195.2 379.2,197.9 
				380.6,200.5 381.9,203.2 383.2,206 384.3,208.7 278.6,252.5 			"/>
		</g>
	</g>
	<g>
		<g id="HATCH">
			<polygon class="st0" points="322,359.3 278.2,253.5 277.9,252.8 278.6,253.1 384.3,296.9 383.2,299.7 381.9,302.4 380.6,305.1 
				379.2,307.8 377.7,310.4 376.1,313 374.5,315.6 372.9,318.1 371.1,320.6 369.3,323 367.4,325.3 365.5,327.7 363.5,329.9 
				361.5,332.1 359.4,334.3 357.2,336.4 355,338.5 352.7,340.4 350.4,342.4 348,344.2 345.6,346 343.2,347.8 340.7,349.5 
				338.1,351.1 335.5,352.6 332.9,354.1 330.2,355.5 327.5,356.8 324.8,358.1 			"/>
		</g>
		<g id="HATCH_3_">
			<polygon class="st0" points="178.1,195.2 184.7,185.1 192.3,175.7 200.8,167.2 210.2,159.6 220.3,153.1 231,147.6 233.9,146.5 
				277.6,252.1 277.9,252.8 277.2,252.5 171.6,208.8 172.6,206 			"/>
		</g>
	</g>
	<g>
		<g id="LINE_18_">
			<line class="st1" x1="154.2" y1="304.1" x2="401.3" y2="201.7"/>
		</g>
		<g id="LINE_17_">
			<line class="st1" x1="329.2" y1="376.7" x2="226.8" y2="129.5"/>
		</g>
	</g>
	<g>
		<g id="LINE_19_">
			<line class="st2" x1="226.5" y1="376.9" x2="328.9" y2="129.6"/>
		</g>
		<g id="LINE_16_">
			<line class="st2" x1="401.6" y1="304.1" x2="154.3" y2="201.6"/>
		</g>
	</g>
	<g>
		<line class="st1" x1="359.4" y1="171.4" x2="383.8" y2="146.9"/>
		<line class="st1" x1="196.4" y1="171.4" x2="171.6" y2="146.5"/>
		<line class="st1" x1="359.4" y1="334.3" x2="384.3" y2="359.3"/>
		<line class="st1" x1="196.4" y1="334.3" x2="171.1" y2="359.6"/>
	</g>
	<g id="TEXT">
		<g>
			<text transform="matrix(1 0 0 1 229.0324 37.0687)" class="st3 st4 st5">NORTH SECTOR</text>
		</g>
	</g>
	<g id="TEXT_1_">
		<g>
			<text transform="matrix(1 0 0 1 362.7278 142.3447)" class="st6 st4 st5">NORTH EAST SECTOR</text>
		</g>
	</g>
	<g id="TEXT_2_">
		<g>
			<text transform="matrix(1 0 0 1 439.472 257.1335)" class="st3 st4 st5">EAST SECTOR</text>
		</g>
	</g>
	<g id="TEXT_3_">
		<g>
			<text transform="matrix(1 0 0 1 229.3637 421.6615)" class="st3 st4 st5">SOUTH SECTOR</text>
		</g>
	</g>
	<g id="TEXT_4_">
		<g>
			<text transform="matrix(1 0 0 1 67.3099 372.9173)" class="st6 st4 st5">SOUTH WEST SECTOR</text>
		</g>
	</g>
	<g id="TEXT_5_">
		<g>
			<text transform="matrix(1 0 0 1 28.6461 257.1335)" class="st3 st4 st5">WEST SECTOR</text>
		</g>
	</g>
	<g id="TEXT_6_">
		<g>
			<text transform="matrix(1 0 0 1 71.3686 142.3447)" class="st6 st4 st5">NORTH WEST SECTOR</text>
		</g>
	</g>
	<g id="TEXT_7_">
		<text transform="matrix(0.3827 -0.9239 0.9239 0.3827 334.5077 124.3946)" class="st7 st8">NNE ( 22.5°)</text>
	</g>
	<g id="TEXT_8_">
		<g>
			<text transform="matrix(1 0 0 1 368.2064 372.9173)" class="st6 st4 st5">SOUTH EAST SECTOR</text>
		</g>
	</g>
	<g id="TEXT_9_">
		<g>
			<text transform="matrix(0 -1 1 0 280.7181 108.0367)" class="st7 st8"> True North ( 0°) </text>
		</g>
	</g>
	<g id="TEXT_10_">
		<text transform="matrix(0.9239 -0.3827 0.3827 0.9239 408.9387 202.1407)" class="st6 st7 st8">ENE ( 67.5°)</text>
	</g>
	<g id="TEXT_11_">
		<text transform="matrix(0.9239 0.3827 -0.3827 0.9239 406.6774 310.1282)" class="st7 st8">ESE ( 112.5°)</text>
	</g>
	<g id="TEXT_12_">
		<text transform="matrix(0.3827 0.9239 -0.9239 0.3827 329.1617 384.3663)" class="st6 st7 st8">SSE ( 157.5°)</text>
	</g>
	<g id="TEXT_13_">
		<text transform="matrix(0.3827 -0.9239 0.9239 0.3827 204.1081 438.0054)" class="st7 st8">SSW ( 202.5°)</text>
	</g>
	<g id="TEXT_14_">
		<text transform="matrix(0.9239 -0.3827 0.3827 0.9239 93.0597 332.6821)" class="st6 st7 st8">WSW ( 247.5°)</text>
	</g>
	<g id="TEXT_15_">
		<text transform="matrix(0.9239 0.3827 -0.3827 0.9239 91.0389 178.0733)" class="st7 st8">WNW ( 292.5°)</text>
	</g>
	<g id="TEXT_16_">
		<text transform="matrix(0.3827 0.9239 -0.9239 0.3827 198.9062 69.7459)" class="st6 st7 st8">NNW ( 337.5°)</text>
	</g>
	<g id="CIRCLE_15_">
		<path class="st9" d="M165.9,291.6c0-1.9,1.5-3.5,3.5-3.5s3.5,1.5,3.5,3.5c0,1.9-1.5,3.5-3.5,3.5S165.9,293.5,165.9,291.6
			L165.9,291.6z"/>
	</g>
	<g id="CIRCLE_14_">
		<path class="st10" d="M225.1,357c0-1.9,1.5-3.5,3.5-3.5c1.9,0,3.5,1.5,3.5,3.5s-1.5,3.5-3.5,3.5
			C226.7,360.4,225.1,358.9,225.1,357L225.1,357z"/>
	</g>
	<g id="CIRCLE_13_">
		<path class="st9" d="M313.2,361.4c0-1.9,1.5-3.5,3.5-3.5c1.9,0,3.5,1.5,3.5,3.5s-1.5,3.5-3.5,3.5
			C314.8,364.8,313.2,363.3,313.2,361.4L313.2,361.4z"/>
	</g>
	<g id="CIRCLE_12_">
		<path class="st10" d="M378.6,302.2c0-1.9,1.5-3.5,3.5-3.5c1.9,0,3.5,1.5,3.5,3.5s-1.5,3.5-3.5,3.5
			C380.1,305.6,378.6,304.1,378.6,302.2L378.6,302.2z"/>
	</g>
	<g id="CIRCLE_11_">
		<path class="st9" d="M383,214.1c0-1.9,1.5-3.5,3.5-3.5s3.5,1.5,3.5,3.5s-1.5,3.5-3.5,3.5S383,216,383,214.1L383,214.1z"/>
	</g>
	<g id="CIRCLE_10_">
		<path class="st10" d="M323.8,148.7c0-1.9,1.5-3.5,3.5-3.5s3.5,1.5,3.5,3.5s-1.5,3.5-3.5,3.5S323.8,150.6,323.8,148.7L323.8,148.7z
			"/>
	</g>
	<g id="CIRCLE_9_">
		<path class="st9" d="M235.7,144.3c0-1.9,1.5-3.5,3.5-3.5s3.5,1.5,3.5,3.5s-1.5,3.5-3.5,3.5S235.7,146.2,235.7,144.3L235.7,144.3z"
			/>
	</g>
	<g id="CIRCLE_8_">
		<path class="st10" d="M170.3,203.5c0-1.9,1.5-3.5,3.5-3.5c1.9,0,3.5,1.5,3.5,3.5c0,1.9-1.5,3.5-3.5,3.5
			C171.8,207,170.3,205.4,170.3,203.5L170.3,203.5z"/>
	</g>
	<g>
		<g id="HATCH_19_">
			<polygon class="st11" points="172.8,291.6 172.8,291.2 172.8,290.9 172.7,290.5 172.5,290.2 172.4,289.9 172.2,289.6 
				171.9,289.3 171.7,289 171.4,288.8 171.1,288.6 170.8,288.4 170.4,288.3 170.1,288.2 169.7,288.2 169.4,288.1 169,288.2 
				168.7,288.2 168.3,288.3 168,288.4 167.6,288.6 167.3,288.8 167.1,289 166.8,289.3 166.6,289.6 166.4,289.9 166.2,290.2 
				166.1,290.5 166,290.9 165.9,291.2 165.9,291.6 165.9,292 166,292.3 166.1,292.7 166.2,293 166.4,293.3 166.6,293.6 166.8,293.9 
				167.1,294.2 167.3,294.4 167.6,294.6 168,294.8 168.3,294.9 168.7,295 169,295 169.4,295.1 169.7,295 170.1,295 170.4,294.9 
				170.8,294.8 171.1,294.6 171.4,294.4 171.7,294.2 171.9,293.9 172.2,293.6 172.4,293.3 172.5,293 172.7,292.7 172.8,292.3 
				172.8,292 			"/>
		</g>
		<polyline class="st12" points="161.2,214.8 170.8,210.6 175,220.2 		"/>
		<g id="ARC_15_">
			<path class="st2" d="M171.5,208.7c-10.5,25.3-11.6,53.5-3.2,79.6"/>
		</g>
	</g>
	<g>
		<g id="HATCH_18_">
			<polygon class="st13" points="232,357 232,356.6 232,356.3 231.9,355.9 231.7,355.6 231.6,355.3 231.4,355 231.1,354.7 
				230.9,354.4 230.6,354.2 230.3,354 230,353.8 229.6,353.7 229.3,353.6 228.9,353.6 228.6,353.5 228.2,353.6 227.9,353.6 
				227.5,353.7 227.2,353.8 226.8,354 226.5,354.2 226.3,354.4 226,354.7 225.8,355 225.6,355.3 225.4,355.6 225.3,355.9 
				225.2,356.3 225.1,356.6 225.1,357 225.1,357.4 225.2,357.7 225.3,358.1 225.4,358.4 225.6,358.7 225.8,359 226,359.3 
				226.3,359.6 226.5,359.8 226.8,360 227.2,360.1 227.5,360.3 227.9,360.4 228.2,360.4 228.6,360.4 228.9,360.4 229.3,360.4 
				229.6,360.3 230,360.1 230.3,360 230.6,359.8 230.9,359.6 231.1,359.3 231.4,359 231.6,358.7 231.7,358.4 231.9,358.1 232,357.7 
				232,357.4 			"/>
		</g>
		<polyline class="st14" points="168.6,308.5 172.4,298.8 182.1,302.5 		"/>
		<g id="ARC_14_">
			<path class="st1" d="M171.5,296.9c10.5,25.3,29.6,46.1,54,58.5"/>
		</g>
	</g>
	<g>
		<g id="HATCH_17_">
			<polygon class="st11" points="320.1,361.4 320.1,361 320.1,360.6 320,360.3 319.8,360 319.7,359.6 319.5,359.3 319.2,359.1 
				319,358.8 318.7,358.6 318.4,358.4 318.1,358.2 317.7,358.1 317.4,358 317,357.9 316.7,357.9 316.3,357.9 316,358 315.6,358.1 
				315.3,358.2 314.9,358.4 314.6,358.6 314.4,358.8 314.1,359.1 313.9,359.3 313.7,359.6 313.5,360 313.4,360.3 313.3,360.6 
				313.2,361 313.2,361.4 313.2,361.7 313.3,362.1 313.4,362.4 313.5,362.8 313.7,363.1 313.9,363.4 314.1,363.7 314.4,363.9 
				314.6,364.2 314.9,364.4 315.3,364.5 315.6,364.7 316,364.7 316.3,364.8 316.7,364.8 317,364.8 317.4,364.7 317.7,364.7 
				318.1,364.5 318.4,364.4 318.7,364.2 319,363.9 319.2,363.7 319.5,363.4 319.7,363.1 319.8,362.8 320,362.4 320.1,362.1 
				320.1,361.7 			"/>
		</g>
		<polyline class="st12" points="239.9,369.5 235.7,359.9 245.2,355.7 		"/>
		<g id="ARC_13_">
			<path class="st2" d="M233.8,359.3c25.3,10.5,53.5,11.6,79.6,3.2"/>
		</g>
	</g>
	<g>
		<g id="HATCH_16_">
			<polygon class="st13" points="385.5,302.2 385.5,301.8 385.4,301.4 385.3,301.1 385.2,300.8 385.1,300.4 384.9,300.1 
				384.6,299.8 384.4,299.6 384.1,299.4 383.8,299.2 383.5,299 383.1,298.9 382.8,298.8 382.4,298.7 382.1,298.7 381.7,298.7 
				381.3,298.8 381,298.9 380.7,299 380.3,299.2 380,299.4 379.7,299.6 379.5,299.8 379.3,300.1 379.1,300.4 378.9,300.8 
				378.8,301.1 378.7,301.4 378.6,301.8 378.6,302.2 378.6,302.5 378.7,302.9 378.8,303.2 378.9,303.6 379.1,303.9 379.3,304.2 
				379.5,304.5 379.7,304.7 380,305 380.3,305.2 380.7,305.3 381,305.5 381.3,305.5 381.7,305.6 382.1,305.6 382.4,305.6 
				382.8,305.5 383.1,305.5 383.5,305.3 383.8,305.2 384.1,305 384.4,304.7 384.6,304.5 384.9,304.2 385.1,303.9 385.2,303.6 
				385.3,303.2 385.4,302.9 385.5,302.5 			"/>
		</g>
		<polyline class="st14" points="333.5,362.5 323.7,358.7 327.5,349 		"/>
		<g id="ARC_12_">
			<path class="st1" d="M322,359.3c25.3-10.5,46.1-29.6,58.5-54"/>
		</g>
	</g>
	<g>
		<g id="HATCH_15_">
			<polygon class="st11" points="389.9,214.1 389.9,213.7 389.8,213.3 389.7,213 389.6,212.7 389.4,212.3 389.2,212 389,211.8 
				388.7,211.5 388.5,211.3 388.2,211.1 387.8,210.9 387.5,210.8 387.2,210.7 386.8,210.6 386.4,210.6 386.1,210.6 385.7,210.7 
				385.4,210.8 385,210.9 384.7,211.1 384.4,211.3 384.1,211.5 383.9,211.8 383.6,212 383.4,212.3 383.3,212.7 383.1,213 
				383.1,213.3 383,213.7 383,214.1 383,214.4 383.1,214.8 383.1,215.1 383.3,215.5 383.4,215.8 383.6,216.1 383.9,216.4 
				384.1,216.6 384.4,216.9 384.7,217.1 385,217.2 385.4,217.4 385.7,217.4 386.1,217.5 386.4,217.5 386.8,217.5 387.2,217.4 
				387.5,217.4 387.8,217.2 388.2,217.1 388.5,216.9 388.7,216.6 389,216.4 389.2,216.1 389.4,215.8 389.6,215.5 389.7,215.1 
				389.8,214.8 389.9,214.4 			"/>
		</g>
		<polyline class="st12" points="394.7,291.2 385.1,295.4 380.9,285.9 		"/>
		<g id="ARC_11_">
			<path class="st2" d="M384.3,296.9c10.5-25.3,11.6-53.5,3.2-79.6"/>
		</g>
	</g>
	<g>
		<g id="HATCH_14_">
			<polygon class="st13" points="330.7,148.7 330.7,148.3 330.6,148 330.5,147.6 330.4,147.3 330.2,146.9 330,146.6 329.8,146.4 
				329.5,146.1 329.3,145.9 329,145.7 328.6,145.5 328.3,145.4 327.9,145.3 327.6,145.2 327.2,145.2 326.9,145.2 326.5,145.3 
				326.2,145.4 325.8,145.5 325.5,145.7 325.2,145.9 324.9,146.1 324.7,146.4 324.4,146.6 324.2,146.9 324.1,147.3 323.9,147.6 
				323.8,148 323.8,148.3 323.8,148.7 323.8,149 323.8,149.4 323.9,149.7 324.1,150.1 324.2,150.4 324.4,150.7 324.7,151 
				324.9,151.2 325.2,151.5 325.5,151.7 325.8,151.8 326.2,152 326.5,152.1 326.9,152.1 327.2,152.1 327.6,152.1 327.9,152.1 
				328.3,152 328.6,151.8 329,151.7 329.3,151.5 329.5,151.2 329.8,151 330,150.7 330.2,150.4 330.4,150.1 330.5,149.7 330.6,149.4 
				330.7,149 			"/>
		</g>
		<polyline class="st14" points="387.5,197.4 383.7,207.2 374,203.4 		"/>
		<g id="ARC_10_">
			<path class="st1" d="M384.3,208.7c-10.5-25.3-29.6-46.1-54-58.5"/>
		</g>
	</g>
	<g>
		<g id="HATCH_13_">
			<polygon class="st11" points="242.6,144.3 242.6,143.9 242.5,143.6 242.4,143.2 242.3,142.9 242.1,142.6 241.9,142.3 241.7,142 
				241.4,141.7 241.2,141.5 240.9,141.3 240.5,141.1 240.2,141 239.9,140.9 239.5,140.9 239.1,140.8 238.8,140.9 238.4,140.9 
				238.1,141 237.7,141.1 237.4,141.3 237.1,141.5 236.8,141.7 236.6,142 236.3,142.3 236.1,142.6 236,142.9 235.8,143.2 
				235.8,143.6 235.7,143.9 235.7,144.3 235.7,144.7 235.8,145 235.8,145.4 236,145.7 236.1,146 236.3,146.3 236.6,146.6 
				236.8,146.9 237.1,147.1 237.4,147.3 237.7,147.5 238.1,147.6 238.4,147.7 238.8,147.7 239.1,147.8 239.5,147.7 239.9,147.7 
				240.2,147.6 240.5,147.5 240.9,147.3 241.2,147.1 241.4,146.9 241.7,146.6 241.9,146.3 242.1,146 242.3,145.7 242.4,145.4 
				242.5,145 242.6,144.7 			"/>
		</g>
		<polyline class="st12" points="316.3,136.2 320.5,145.8 310.9,150 		"/>
		<g id="ARC_9_">
			<path class="st2" d="M322,146.4c-25.3-10.5-53.5-11.6-79.6-3.2"/>
		</g>
	</g>
	<g>
		<g id="HATCH_12_">
			<polygon class="st13" points="177.2,203.5 177.2,203.1 177.1,202.8 177,202.4 176.9,202.1 176.7,201.8 176.5,201.5 176.3,201.2 
				176.1,200.9 175.8,200.7 175.5,200.5 175.2,200.3 174.8,200.2 174.5,200.1 174.1,200.1 173.7,200 173.4,200.1 173,200.1 
				172.7,200.2 172.3,200.3 172,200.5 171.7,200.7 171.4,200.9 171.2,201.2 170.9,201.5 170.8,201.8 170.6,202.1 170.5,202.4 
				170.4,202.8 170.3,203.1 170.3,203.5 170.3,203.9 170.4,204.2 170.5,204.6 170.6,204.9 170.8,205.2 170.9,205.5 171.2,205.8 
				171.4,206.1 171.7,206.3 172,206.5 172.3,206.7 172.7,206.8 173,206.9 173.4,206.9 173.7,207 174.1,206.9 174.5,206.9 
				174.8,206.8 175.2,206.7 175.5,206.5 175.8,206.3 176.1,206.1 176.3,205.8 176.5,205.5 176.7,205.2 176.9,204.9 177,204.6 
				177.1,204.2 177.2,203.9 			"/>
		</g>
		<polyline class="st14" points="222.2,143.5 232,147.2 228.2,157 		"/>
		<g id="ARC_8_">
			<path class="st1" d="M233.8,146.4c-25.3,10.5-46.1,29.6-58.5,54"/>
		</g>
	</g>
	<g>
		<g id="LINE_8_">
			<line class="st15" x1="277.9" y1="403.9" x2="277.9" y2="111.6"/>
		</g>
		<g id="LINE_9_">
			<line class="st15" x1="428.4" y1="252.8" x2="127.1" y2="252.8"/>
		</g>
	</g>
</g>
</svg>
