<svg id="Drawing_Layer" data-name="Drawing Layer" xmlns="http://www.w3.org/2000/svg" viewBox="0 0 552.76 425.2"><defs><style>.cls-1,.cls-3{fill:none;}.cls-1,.cls-3,.cls-5{stroke:#231f20;stroke-miterlimit:10;}.cls-1{stroke-width:0.25px;}.cls-2,.cls-6,.cls-7,.cls-8,.cls-9{fill:#231f20;}.cls-4,.cls-5{fill:#fff;}.cls-6,.cls-7,.cls-8,.cls-9{font-size:12px;font-family:ArialMT, Arial;}.cls-6{letter-spacing:-0.06em;}.cls-8{letter-spacing:-0.02em;}.cls-9{letter-spacing:-0.04em;}</style></defs><line class="cls-1" x1="168.57" y1="135.53" x2="89.1" y2="179.56"/><polygon class="cls-2" points="165.43 133.95 176.32 131.23 168.25 139.03 165.43 133.95"/><polygon class="cls-2" points="89.42 176.06 81.35 183.85 92.24 181.14 89.42 176.06"/><line class="cls-3" x1="316.46" y1="260.3" x2="413.32" y2="206.63"/><line class="cls-3" x1="148.83" y1="353.17" x2="243.14" y2="300.92"/><line class="cls-1" x1="155.83" y1="169.37" x2="174.04" y2="179.54"/><polygon class="cls-2" points="170.89 181.11 181.78 183.85 173.72 176.03 170.89 181.11"/><line class="cls-1" x1="193.9" y1="190.15" x2="213.43" y2="201.05"/><polygon class="cls-2" points="194.21 193.65 186.16 185.83 197.04 188.58 194.21 193.65"/><line class="cls-1" x1="391.58" y1="56.41" x2="385.62" y2="59.71"/><polygon class="cls-2" points="390.01 55.62 395.45 54.26 391.42 58.16 390.01 55.62"/><polygon class="cls-2" points="385.78 57.96 381.74 61.86 387.19 60.5 385.78 57.96"/><line class="cls-1" x1="379.49" y1="60.66" x2="387.44" y2="65.09"/><line class="cls-1" x1="393.34" y1="53.08" x2="401.29" y2="57.52"/><line class="cls-1" x1="74.64" y1="180.42" x2="126.61" y2="209.43"/><line class="cls-1" x1="168.79" y1="127.22" x2="220.77" y2="156.23"/><polygon class="cls-4" points="297.59 265.34 295.81 121.62 309.16 129.4 311.38 273.56 297.59 265.34"/><path class="cls-2" d="M296.32,122.49l12.34,7.2,2.2,143-12.78-7.62-1.76-142.56m-1-1.75,1.79,144.88,14.8,8.83-2.24-145.34-14.35-8.37Z"/><polygon class="cls-5" points="300.19 154.6 246.83 184.15 238.58 188.99 237.51 158.1 299.85 123.39 300.19 154.6"/><polygon class="cls-4" points="122.68 361.2 122.43 216.59 136.7 224.88 137.3 370.04 122.68 361.2"/><path class="cls-2" d="M122.93,217.46l13.27,7.71.6,144-13.63-8.24-.24-143.45m-1-1.74.25,145.76,15.62,9.44-.6-146.32-15.27-8.88Z"/><polygon class="cls-4" points="122.94 215.73 405.05 59.44 419.12 67.75 414.61 70.31 405.05 64.98 143.06 210.77 151.61 215.9 137.2 224.02 122.94 215.73"/><path class="cls-2" d="M405,60l13.08,7.73-3.52,2-9.06-5.06-.49-.27-.48.27-261,145.23-1.51.84,1.48.89,7.07,4.24-13.42,7.56L124,215.74,405,60m0-1.15L121.93,215.72l15.27,8.88,15.41-8.69-8.55-5.12,261-145.23,9.56,5.33,5.5-3.14-15.06-8.89Z"/><polygon class="cls-4" points="137.7 224.89 152.1 216.77 152.02 362.42 138.3 370.07 137.7 224.89"/><path class="cls-2" d="M151.6,217.62l-.08,144.51-12.72,7.1-.6-144,13.4-7.56m1-1.71L137.2,224.6l.6,146.32,14.72-8.2.09-146.81Z"/><polygon class="cls-2" points="217.5 163.23 231.88 155.26 245.83 163.74 231.78 171.55 217.5 163.23"/><path class="cls-2" d="M231.87,155.84l13,7.88L231.79,171l-13.28-7.73,13.36-7.4m0-1.16-15.41,8.54,15.3,8.9,15.05-8.36-14.94-9.08Z"/><polygon class="cls-4" points="224.06 311.18 222.48 167.29 231.28 172.41 233.5 316.77 224.06 311.18"/><path class="cls-2" d="M223,168.16l7.79,4.54L233,315.88l-8.44-5L223,168.16m-1-1.75,1.59,145L234,317.65l-2.23-145.53L222,166.41Z"/><polygon class="cls-4" points="232.28 172.42 246.34 164.6 249.09 308.7 234.5 316.63 232.28 172.42"/><path class="cls-2" d="M245.86,165.44l2.73,143L235,315.8l-2.21-143.09,13.08-7.27m1-1.68-15.05,8.36L234,317.47,249.6,309l-2.77-145.23Z"/><polygon class="cls-4" points="396.73 215.84 395.27 70.94 404.51 76.49 406.06 221.23 396.73 215.84"/><path class="cls-2" d="M395.78,71.83,404,76.77l1.53,143.59-8.33-4.81L395.78,71.83m-1-1.77,1.47,146.07,10.34,6L405,76.2l-10.25-6.14Z"/><polygon class="cls-4" points="405.51 76.5 419.63 68.6 421.42 213.51 407.06 221.27 405.51 76.5"/><path class="cls-2" d="M419.14,69.45l1.77,143.76-13.36,7.23L406,76.79l13.12-7.34m1-1.7L405,76.2l1.56,145.91,15.35-8.31-1.81-146Z"/><line class="cls-1" x1="96.77" y1="237.54" x2="96.77" y2="367.26"/><polygon class="cls-2" points="93.86 239.52 96.77 228.68 99.67 239.52 93.86 239.52"/><polygon class="cls-2" points="93.86 365.28 96.77 376.12 99.67 365.28 93.86 365.28"/><line class="cls-1" x1="81" y1="237.48" x2="115.15" y2="219.09"/><line class="cls-1" x1="81.88" y1="384.37" x2="115.15" y2="365.93"/><line class="cls-1" x1="414.12" y1="57.64" x2="421.98" y2="62.08"/><polygon class="cls-2" points="414.27 59.39 410.27 55.46 415.7 56.86 414.27 59.39"/><polygon class="cls-2" points="420.41 62.86 425.84 64.26 421.84 60.33 420.41 62.86"/><line class="cls-1" x1="422.55" y1="66.08" x2="432.85" y2="60.37"/><line class="cls-1" x1="406.98" y1="57.28" x2="417.28" y2="51.57"/><text class="cls-6" transform="translate(422.55 58.06)">A</text><text class="cls-7" transform="translate(380.47 55.3)">B</text><text class="cls-8" transform="translate(165.94 173.65)">T</text><text class="cls-7" transform="translate(118.85 156.23)">S</text><text class="cls-7" transform="translate(81 308.99)">H</text><polygon class="cls-2" points="121.92 215.68 137.2 224.6 152.6 215.91 137.67 206.95 121.92 215.68"/><polygon class="cls-2" points="390 67.2 405.01 76.2 420.11 67.75 405.05 58.86 390 67.2"/><polygon class="cls-2" points="295.38 120.21 309.76 112.24 323.71 120.72 309.66 128.53 295.38 120.21"/><path class="cls-2" d="M309.75,112.82l13,7.88L309.67,128l-13.28-7.73,13.36-7.4m0-1.16-15.41,8.54,15.29,8.91,15.06-8.37-14.94-9.08Z"/><polygon class="cls-4" points="310.16 129.4 324.22 121.58 326.97 265.68 312.38 273.62 310.16 129.4"/><path class="cls-2" d="M323.74,122.42l2.73,143-13.6,7.4-2.21-143.09,13.08-7.27m1-1.68-15.06,8.37,2.24,145.34L327.48,266l-2.77-145.23Z"/><text class="cls-7" transform="translate(356.32 333.46)">Piers each side of door opening</text><polyline class="cls-1" points="325.91 276.91 353.74 329.35 249.47 315.04"/><polygon class="cls-2" points="324.27 280.02 321.76 269.08 329.4 277.3 324.27 280.02"/><polygon class="cls-2" points="251.82 312.43 240.69 313.84 251.03 318.19 251.82 312.43"/><text class="cls-7" transform="translate(65.63 174.19)">C</text><text class="cls-9" transform="translate(68.78 179.04)">L</text><text class="cls-7" transform="translate(161.49 120.38)">C</text><text class="cls-9" transform="translate(164.65 125.23)">L</text></svg>