<?xml version="1.0" encoding="utf-8"?>
<!-- Generator: Adobe Illustrator 25.2.1, SVG Export Plug-In . SVG Version: 6.00 Build 0)  -->
<svg version="1.1" id="_x30_" xmlns="http://www.w3.org/2000/svg" xmlns:xlink="http://www.w3.org/1999/xlink" x="0px" y="0px"
	 viewBox="0 0 552.8 437.3" style="enable-background:new 0 0 552.8 437.3;" xml:space="preserve">
<style type="text/css">
	.st0{fill-rule:evenodd;clip-rule:evenodd;fill:none;}
	.st1{clip-path:url(#SVGID_2_);fill:none;stroke:#211F1F;stroke-width:0.5;stroke-linejoin:round;}
	.st2{fill:none;stroke:#1D1D1B;stroke-miterlimit:10;}
	.st3{fill:none;stroke:#1D1D1B;stroke-width:0.25;stroke-miterlimit:10;}
	.st4{fill:#1D1D1B;}
	.st5{font-family:'ArialMT';}
	.st6{font-size:12px;}
	.st7{fill:none;stroke:#231F20;stroke-width:0.5;stroke-miterlimit:10;}
	.st8{fill:none;stroke:#231F20;stroke-width:0.5;stroke-miterlimit:10;stroke-dasharray:25.451,11.1985;}
	.st9{fill:none;stroke:#231F20;stroke-width:0.5;stroke-miterlimit:10;stroke-dasharray:5.0902,11.1985,25.451,11.1985;}
	.st10{fill:#231F20;}
	.st11{fill:none;stroke:#231F20;stroke-miterlimit:10;}
	.st12{fill:none;stroke:#231F20;stroke-miterlimit:10;stroke-dasharray:11.4491,11.4396,0,0;}
	.st13{fill:none;stroke:#231F20;stroke-miterlimit:10;stroke-dasharray:1.016700e-02,0;}
	.st14{fill:none;stroke:#231F20;stroke-miterlimit:10;stroke-dasharray:12.2004,12.1902,1.016700e-02,0;}
	.st15{fill:none;stroke:#231F20;stroke-miterlimit:10;stroke-dasharray:1.005200e-02,0;}
	.st16{fill:none;stroke:#231F20;stroke-miterlimit:10;stroke-dasharray:12.0629,12.0529,1.005200e-02,0;}
	.st17{fill:none;stroke:#231F20;stroke-miterlimit:10;stroke-dasharray:12.063,12.0529,1.005200e-02,0;}
	.st18{fill:none;}
	.st19{fill:url(#SVGID_3_);}
</style>
<pattern  y="657.3" width="72" height="72" patternUnits="userSpaceOnUse" id="diagonal_cross_hatch_2" viewBox="6.2 -86.2 72 72" style="overflow:visible;">
	<g>
		<rect x="6.2" y="-86.2" class="st0" width="72" height="72"/>
		<g>
			<defs>
				<rect id="SVGID_1_" x="6.2" y="-86.2" width="72" height="72"/>
			</defs>
			<clipPath id="SVGID_2_">
				<use xlink:href="#SVGID_1_"  style="overflow:visible;"/>
			</clipPath>
			<line class="st1" x1="0.2" y1="-74.2" x2="18.2" y2="-92.2"/>
			<line class="st1" x1="0.2" y1="-68.2" x2="24.2" y2="-92.2"/>
			<line class="st1" x1="0.2" y1="-62.2" x2="30.2" y2="-92.2"/>
			<line class="st1" x1="0.2" y1="-56.2" x2="36.2" y2="-92.2"/>
			<line class="st1" x1="0.2" y1="-50.2" x2="42.2" y2="-92.2"/>
			<line class="st1" x1="0.2" y1="-44.2" x2="48.2" y2="-92.2"/>
			<line class="st1" x1="0.2" y1="-38.2" x2="54.2" y2="-92.2"/>
			<line class="st1" x1="0.2" y1="-32.2" x2="60.2" y2="-92.2"/>
			<line class="st1" x1="0.2" y1="-26.2" x2="66.2" y2="-92.2"/>
			<line class="st1" x1="0.2" y1="-20.2" x2="72.2" y2="-92.2"/>
			<line class="st1" x1="0.2" y1="-14.2" x2="78.2" y2="-92.2"/>
			<line class="st1" x1="0.2" y1="-8.2" x2="84.2" y2="-92.2"/>
			<line class="st1" x1="6.2" y1="-8.2" x2="84.2" y2="-86.2"/>
			<line class="st1" x1="12.2" y1="-8.2" x2="84.2" y2="-80.2"/>
			<line class="st1" x1="18.2" y1="-8.2" x2="84.2" y2="-74.2"/>
			<line class="st1" x1="24.2" y1="-8.2" x2="84.2" y2="-68.2"/>
			<line class="st1" x1="30.2" y1="-8.2" x2="84.2" y2="-62.2"/>
			<line class="st1" x1="36.2" y1="-8.2" x2="84.2" y2="-56.2"/>
			<line class="st1" x1="42.2" y1="-8.2" x2="84.2" y2="-50.2"/>
			<line class="st1" x1="48.2" y1="-8.2" x2="84.2" y2="-44.2"/>
			<line class="st1" x1="54.2" y1="-8.2" x2="84.2" y2="-38.2"/>
			<line class="st1" x1="52.2" y1="-0.2" x2="94.2" y2="-42.2"/>
			<line class="st1" x1="58.2" y1="-0.2" x2="94.2" y2="-36.2"/>
			<line class="st1" x1="64.2" y1="-0.2" x2="94.2" y2="-30.2"/>
		</g>
	</g>
</pattern>
<path class="st2" d="M351.8,93.1"/>
<g>
	<g>
		<polyline class="st3" points="382.2,37.8 370.4,25.6 342.5,25.6 		"/>
		<g>
			<polygon class="st4" points="382.9,34.4 388.3,44.2 378.7,38.4 			"/>
		</g>
	</g>
</g>
<text transform="matrix(1 0 0 1 219.7515 29.0794)" class="st4 st5 st6">Not less than 900 mm </text>
<text transform="matrix(1 0 0 1 245.5854 386.6727)" class="st4 st5 st6">Less than 900 mm </text>
<g>
	<g>
		<polyline class="st3" points="433.3,374.4 425,383.7 350.8,383.7 		"/>
		<g>
			<polygon class="st4" points="429.9,374 439.3,367.9 434.2,377.9 			"/>
		</g>
	</g>
</g>
<g id="LINE_33_">
	<g>
		<g>
			<g>
				<line class="st7" x1="448.5" y1="430.3" x2="448.5" y2="427"/>
				<line class="st8" x1="448.5" y1="412.1" x2="448.5" y2="370.8"/>
				<line class="st9" x1="448.5" y1="363.3" x2="448.5" y2="18.5"/>
				<line class="st7" x1="448.5" y1="11" x2="448.5" y2="7.7"/>
			</g>
		</g>
	</g>
</g>
<text transform="matrix(1 0 0 1 216.0591 110.8987)" class="st10 st5 st6">1</text>
<g id="POLYLINE_2_">
	<g>
		<rect x="87" y="35.6" class="st11" width="264.9" height="211.6"/>
	</g>
</g>
<g id="LINE">
	<g id="LINE_17_">
		<g>
			<g>
				<g>
					<line class="st11" x1="159" y1="141.4" x2="164.3" y2="141.4"/>
					<line class="st11" x1="174.3" y1="141.4" x2="174.3" y2="141.4"/>
					<line class="st12" x1="174.3" y1="141.4" x2="274.5" y2="141.4"/>
					<line class="st11" x1="274.5" y1="141.4" x2="279.8" y2="141.4"/>
				</g>
			</g>
		</g>
	</g>
</g>
<g id="LINE_1_">
	<g id="LINE_16_">
		<g>
			<g>
				<g>
					<line class="st11" x1="159" y1="141.4" x2="156.1" y2="137"/>
					<line class="st13" x1="150" y1="128.2" x2="150" y2="128.2"/>
					<line class="st14" x1="150" y1="128.2" x2="89.9" y2="39.9"/>
					<line class="st11" x1="89.9" y1="39.9" x2="87" y2="35.6"/>
				</g>
			</g>
		</g>
	</g>
</g>
<g id="LINE_2_">
	<g id="LINE_15_">
		<g>
			<g>
				<g>
					<line class="st11" x1="159" y1="141.4" x2="156.1" y2="145.7"/>
					<line class="st15" x1="150.2" y1="154.5" x2="150.1" y2="154.5"/>
					<line class="st16" x1="150.1" y1="154.5" x2="90.9" y2="241.9"/>
					<line class="st11" x1="90.9" y1="241.9" x2="88" y2="246.3"/>
				</g>
			</g>
		</g>
	</g>
</g>
<g id="LINE_3_">
	<g id="LINE_14_">
		<g>
			<g>
				<g>
					<line class="st11" x1="279.8" y1="141.4" x2="282.7" y2="137"/>
					<line class="st13" x1="288.7" y1="128.2" x2="288.7" y2="128.2"/>
					<line class="st14" x1="288.7" y1="128.2" x2="348.9" y2="39.9"/>
					<line class="st11" x1="348.9" y1="39.9" x2="351.8" y2="35.6"/>
				</g>
			</g>
		</g>
	</g>
</g>
<g id="LINE_4_">
	<g id="LINE_13_">
		<g>
			<g>
				<g>
					<line class="st11" x1="279.8" y1="141.4" x2="282.7" y2="145.7"/>
					<line class="st15" x1="288.6" y1="154.5" x2="288.6" y2="154.5"/>
					<line class="st17" x1="288.6" y1="154.5" x2="347.9" y2="241.9"/>
					<line class="st11" x1="347.9" y1="241.9" x2="350.8" y2="246.3"/>
				</g>
			</g>
		</g>
	</g>
</g>
<g>
	<g id="MTEXT">
		<g>
			<text transform="matrix(1 0 0 1 347.0322 316.1922)" class="st10 st5 st6">10a</text>
		</g>
	</g>
	<g id="LINE_6_">
		<g>
			<line class="st11" x1="415" y1="370.5" x2="415" y2="247.2"/>
		</g>
	</g>
	<g id="LINE_7_">
		<g>
			<line class="st11" x1="297.3" y1="247.2" x2="415" y2="247.2"/>
		</g>
	</g>
	<g id="LINE_8_">
		<g>
			<line class="st11" x1="428.7" y1="370.5" x2="428.7" y2="247.2"/>
		</g>
	</g>
	<g id="LINE_9_">
		<g>
			<line class="st11" x1="415" y1="247.2" x2="428.7" y2="247.2"/>
		</g>
	</g>
	<g id="LINE_10_">
		<g>
			<polyline class="st11" points="428.7,370.5 297.3,370.5 297.3,247.2 			"/>
		</g>
	</g>
</g>
<rect x="119.8" y="261.5" class="st18" width="153.1" height="15.7"/>
<text transform="matrix(1 0 0 1 119.7892 270.0824)" class="st5 st6">Wall with a FRL of 60/60/60</text>
<rect x="245.5" y="404.3" class="st18" width="160.2" height="15.7"/>
<text transform="matrix(1 0 0 1 245.5477 412.8472)" class="st5 st6">Allotment boundary</text>
<pattern  id="SVGID_3_" xlink:href="#diagonal_cross_hatch_2" patternTransform="matrix(0.9348 0 0 1.1513 -421.8828 1252.3196)">
</pattern>
<rect x="415" y="247.1" class="st19" width="13.7" height="123.3"/>
<g>
	<g>
		<line class="st3" x1="269" y1="265.9" x2="406.2" y2="265.9"/>
		<g>
			<polygon class="st4" points="404.2,268.8 415,265.9 404.2,262.9 			"/>
		</g>
	</g>
</g>
<g>
	<g>
		<line class="st3" x1="439.6" y1="409.6" x2="351.8" y2="409.6"/>
		<g>
			<polygon class="st4" points="437.6,406.7 448.5,409.6 437.6,412.5 			"/>
		</g>
	</g>
</g>
</svg>
