<?xml version="1.0" encoding="utf-8"?>
<!-- Generator: Adobe Illustrator 25.2.1, SVG Export Plug-In . SVG Version: 6.00 Build 0)  -->
<svg version="1.1" id="_x30_" xmlns="http://www.w3.org/2000/svg" xmlns:xlink="http://www.w3.org/1999/xlink" x="0px" y="0px"
	 viewBox="0 0 552.8 235.2" style="enable-background:new 0 0 552.8 235.2;" xml:space="preserve">
<style type="text/css">
	.st0{fill:#231F20;}
	.st1{font-family:'Arial-BoldMT';}
	.st2{font-size:12px;}
	.st3{fill:none;stroke:#231F20;stroke-miterlimit:10;}
</style>
<g>
	<g id="POLYLINE">
	</g>
	<g id="POLYLINE_1_">
	</g>
	<g id="POLYLINE_2_">
	</g>
	<g id="POLYLINE_3_">
	</g>
	<g id="POLYLINE_4_">
	</g>
</g>
<g id="MTEXT">
	<g>
		<text transform="matrix(1 0 0 1 92.9671 71.4603)" class="st0 st1 st2">4</text>
	</g>
</g>
<g id="MTEXT_1_">
	<g>
		<text transform="matrix(1 0 0 1 211.9746 71.4603)" class="st0 st1 st2">5</text>
	</g>
</g>
<g id="MTEXT_3_">
	<g>
		<text transform="matrix(1 0 0 1 262.9778 154.4655)" class="st0 st1 st2">2</text>
	</g>
</g>
<g id="MTEXT_5_">
	<g>
		<text transform="matrix(1 0 0 1 404.9868 154.4655)" class="st0 st1 st2">3</text>
	</g>
</g>
<g id="MTEXT_7_">
	<g>
		<text transform="matrix(1 0 0 1 124.9691 154.4655)" class="st0 st1 st2">1</text>
	</g>
</g>
<g>
	<g id="LINE">
		<line class="st3" x1="404.7" y1="100.9" x2="511.7" y2="206.9"/>
	</g>
	<g id="LINE_1_">
		<line class="st3" x1="389.7" y1="100.9" x2="493.6" y2="206.9"/>
	</g>
	<g id="LINE_2_">
		<line class="st3" x1="359.9" y1="100.9" x2="397.6" y2="141.9"/>
	</g>
	<g id="LINE_3_">
		<line class="st3" x1="345" y1="100.9" x2="397.6" y2="160"/>
	</g>
	<g id="LINE_4_">
		<line class="st3" x1="415" y1="160.8" x2="457.4" y2="206.9"/>
	</g>
	<g id="LINE_5_">
		<line class="st3" x1="418.9" y1="147.2" x2="475.5" y2="206.9"/>
	</g>
	<g id="LINE_6_">
		<line class="st3" x1="398.3" y1="160.8" x2="439.2" y2="206.9"/>
	</g>
	<g id="LINE_7_">
		<line class="st3" x1="99.1" y1="200.5" x2="104.6" y2="200.5"/>
	</g>
	<g id="LINE_8_">
		<line class="st3" x1="95.2" y1="206.9" x2="99.1" y2="200.5"/>
	</g>
	<g id="LINE_9_">
		<line class="st3" x1="107.3" y1="206.9" x2="104.6" y2="200.5"/>
	</g>
	<g id="LINE_10_">
		<line class="st3" x1="113.1" y1="206.9" x2="117" y2="200.5"/>
	</g>
	<g id="LINE_11_">
		<line class="st3" x1="125.4" y1="206.9" x2="122.7" y2="200.5"/>
	</g>
	<g id="LINE_12_">
		<line class="st3" x1="117" y1="200.5" x2="122.7" y2="200.5"/>
	</g>
	<g id="LINE_13_">
		<line class="st3" x1="107.3" y1="206.9" x2="113.1" y2="206.9"/>
	</g>
	<g id="LINE_14_">
		<line class="st3" x1="89.4" y1="206.9" x2="95.2" y2="206.9"/>
	</g>
	<g id="LINE_15_">
		<line class="st3" x1="81.3" y1="200.5" x2="86.7" y2="200.5"/>
	</g>
	<g id="LINE_16_">
		<line class="st3" x1="77.4" y1="206.9" x2="81.3" y2="200.5"/>
	</g>
	<g id="LINE_17_">
		<line class="st3" x1="89.4" y1="206.9" x2="86.7" y2="200.5"/>
	</g>
	<g id="LINE_18_">
		<line class="st3" x1="131.2" y1="206.9" x2="135.1" y2="200.5"/>
	</g>
	<g id="LINE_19_">
		<line class="st3" x1="143.5" y1="206.9" x2="140.8" y2="200.5"/>
	</g>
	<g id="LINE_20_">
		<line class="st3" x1="135.1" y1="200.5" x2="140.8" y2="200.5"/>
	</g>
	<g id="LINE_21_">
		<line class="st3" x1="125.4" y1="206.9" x2="131.2" y2="206.9"/>
	</g>
	<g id="LINE_22_">
		<line class="st3" x1="149.3" y1="206.9" x2="153.2" y2="200.5"/>
	</g>
	<g id="LINE_23_">
		<line class="st3" x1="161.6" y1="206.9" x2="159" y2="200.5"/>
	</g>
	<g id="LINE_24_">
		<line class="st3" x1="153.2" y1="200.5" x2="159" y2="200.5"/>
	</g>
	<g id="LINE_25_">
		<line class="st3" x1="143.5" y1="206.9" x2="149.3" y2="206.9"/>
	</g>
	<g id="LINE_26_">
		<line class="st3" x1="167.4" y1="206.9" x2="171.4" y2="200.5"/>
	</g>
	<g id="LINE_27_">
		<line class="st3" x1="179.8" y1="206.9" x2="177.1" y2="200.5"/>
	</g>
	<g id="LINE_28_">
		<line class="st3" x1="171.4" y1="200.5" x2="177.1" y2="200.5"/>
	</g>
	<g id="LINE_29_">
		<line class="st3" x1="161.6" y1="206.9" x2="167.4" y2="206.9"/>
	</g>
	<g id="LINE_30_">
		<line class="st3" x1="185.5" y1="206.9" x2="189.5" y2="200.5"/>
	</g>
	<g id="LINE_31_">
		<line class="st3" x1="197.9" y1="206.9" x2="195.2" y2="200.5"/>
	</g>
	<g id="LINE_32_">
		<line class="st3" x1="189.5" y1="200.5" x2="195.2" y2="200.5"/>
	</g>
	<g id="LINE_33_">
		<line class="st3" x1="179.8" y1="206.9" x2="185.5" y2="206.9"/>
	</g>
	<g id="LINE_34_">
		<line class="st3" x1="203.7" y1="206.9" x2="207.6" y2="200.5"/>
	</g>
	<g id="LINE_35_">
		<line class="st3" x1="216" y1="206.9" x2="213.3" y2="200.5"/>
	</g>
	<g id="LINE_36_">
		<line class="st3" x1="207.6" y1="200.5" x2="213.3" y2="200.5"/>
	</g>
	<g id="LINE_37_">
		<line class="st3" x1="197.9" y1="206.9" x2="203.7" y2="206.9"/>
	</g>
	<g id="LINE_38_">
		<line class="st3" x1="221.8" y1="206.9" x2="225.7" y2="200.5"/>
	</g>
	<g id="LINE_39_">
		<line class="st3" x1="234.1" y1="206.9" x2="231.4" y2="200.5"/>
	</g>
	<g id="LINE_40_">
		<line class="st3" x1="225.7" y1="200.5" x2="231.4" y2="200.5"/>
	</g>
	<g id="LINE_41_">
		<line class="st3" x1="216" y1="206.9" x2="221.8" y2="206.9"/>
	</g>
	<g id="LINE_42_">
		<line class="st3" x1="239.9" y1="206.9" x2="243.8" y2="200.5"/>
	</g>
	<g id="LINE_43_">
		<line class="st3" x1="252.2" y1="206.9" x2="249.6" y2="200.5"/>
	</g>
	<g id="LINE_44_">
		<line class="st3" x1="243.8" y1="200.5" x2="249.6" y2="200.5"/>
	</g>
	<g id="LINE_45_">
		<line class="st3" x1="234.1" y1="206.9" x2="239.9" y2="206.9"/>
	</g>
	<g id="LINE_46_">
		<line class="st3" x1="258" y1="206.9" x2="262" y2="200.5"/>
	</g>
	<g id="LINE_47_">
		<line class="st3" x1="270.4" y1="206.9" x2="267.7" y2="200.5"/>
	</g>
	<g id="LINE_48_">
		<line class="st3" x1="262" y1="200.5" x2="267.7" y2="200.5"/>
	</g>
	<g id="LINE_49_">
		<line class="st3" x1="252.2" y1="206.9" x2="258" y2="206.9"/>
	</g>
	<g id="LINE_50_">
		<line class="st3" x1="276.2" y1="206.9" x2="280.1" y2="200.5"/>
	</g>
	<g id="LINE_51_">
		<line class="st3" x1="288.5" y1="206.9" x2="285.8" y2="200.5"/>
	</g>
	<g id="LINE_52_">
		<line class="st3" x1="280.1" y1="200.5" x2="285.8" y2="200.5"/>
	</g>
	<g id="LINE_53_">
		<line class="st3" x1="270.4" y1="206.9" x2="276.2" y2="206.9"/>
	</g>
	<g id="LINE_54_">
		<line class="st3" x1="294.3" y1="206.9" x2="298.2" y2="200.5"/>
	</g>
	<g id="LINE_55_">
		<line class="st3" x1="306.6" y1="206.9" x2="303.9" y2="200.5"/>
	</g>
	<g id="LINE_56_">
		<line class="st3" x1="298.2" y1="200.5" x2="303.9" y2="200.5"/>
	</g>
	<g id="LINE_57_">
		<line class="st3" x1="288.5" y1="206.9" x2="294.3" y2="206.9"/>
	</g>
	<g id="LINE_58_">
		<line class="st3" x1="312.4" y1="206.9" x2="316.3" y2="200.5"/>
	</g>
	<g id="LINE_59_">
		<line class="st3" x1="324.7" y1="206.9" x2="322" y2="200.5"/>
	</g>
	<g id="LINE_60_">
		<line class="st3" x1="316.3" y1="200.5" x2="322" y2="200.5"/>
	</g>
	<g id="LINE_61_">
		<line class="st3" x1="306.6" y1="206.9" x2="312.4" y2="206.9"/>
	</g>
	<g id="LINE_62_">
		<line class="st3" x1="330.5" y1="206.9" x2="334.4" y2="200.5"/>
	</g>
	<g id="LINE_63_">
		<line class="st3" x1="342.8" y1="206.9" x2="340.2" y2="200.5"/>
	</g>
	<g id="LINE_64_">
		<line class="st3" x1="334.4" y1="200.5" x2="340.2" y2="200.5"/>
	</g>
	<g id="LINE_65_">
		<line class="st3" x1="324.7" y1="206.9" x2="330.5" y2="206.9"/>
	</g>
	<g id="LINE_66_">
		<line class="st3" x1="51.7" y1="116.1" x2="55" y2="110.6"/>
	</g>
	<g id="LINE_67_">
		<line class="st3" x1="55" y1="110.6" x2="59.7" y2="110.6"/>
	</g>
	<g id="LINE_68_">
		<line class="st3" x1="59.7" y1="110.6" x2="61.3" y2="116.1"/>
	</g>
	<g id="LINE_69_">
		<line class="st3" x1="61.3" y1="116.1" x2="66.9" y2="116.1"/>
	</g>
	<g id="LINE_70_">
		<line class="st3" x1="66.9" y1="116.1" x2="70.2" y2="110.6"/>
	</g>
	<g id="LINE_71_">
		<line class="st3" x1="70.2" y1="110.6" x2="74.8" y2="110.6"/>
	</g>
	<g id="LINE_72_">
		<line class="st3" x1="74.8" y1="110.6" x2="76.6" y2="116.1"/>
	</g>
	<g id="LINE_73_">
		<line class="st3" x1="76.6" y1="116.1" x2="82" y2="116.1"/>
	</g>
	<g id="LINE_74_">
		<line class="st3" x1="82" y1="116.1" x2="85.3" y2="110.6"/>
	</g>
	<g id="LINE_75_">
		<line class="st3" x1="85.3" y1="110.6" x2="90.2" y2="110.6"/>
	</g>
	<g id="LINE_76_">
		<line class="st3" x1="90.2" y1="110.6" x2="92.1" y2="116.1"/>
	</g>
	<g id="LINE_77_">
		<line class="st3" x1="92.1" y1="116.1" x2="97.4" y2="116.1"/>
	</g>
	<g id="LINE_78_">
		<line class="st3" x1="97.4" y1="116.1" x2="100.7" y2="110.6"/>
	</g>
	<g id="LINE_79_">
		<line class="st3" x1="100.7" y1="110.6" x2="105.5" y2="110.6"/>
	</g>
	<g id="LINE_80_">
		<line class="st3" x1="105.5" y1="110.6" x2="107.7" y2="116.1"/>
	</g>
	<g id="LINE_81_">
		<line class="st3" x1="107.7" y1="116.1" x2="112.7" y2="116.1"/>
	</g>
	<g id="LINE_82_">
		<line class="st3" x1="112.7" y1="116.1" x2="116" y2="110.6"/>
	</g>
	<g id="LINE_83_">
		<line class="st3" x1="116" y1="110.6" x2="120.9" y2="110.6"/>
	</g>
	<g id="LINE_84_">
		<line class="st3" x1="120.9" y1="110.6" x2="123.2" y2="116.1"/>
	</g>
	<g id="LINE_85_">
		<line class="st3" x1="123.2" y1="116.1" x2="128.1" y2="116.1"/>
	</g>
	<g id="LINE_86_">
		<line class="st3" x1="128.1" y1="116.1" x2="131.4" y2="110.6"/>
	</g>
	<g id="LINE_87_">
		<line class="st3" x1="131.4" y1="110.6" x2="136.2" y2="110.6"/>
	</g>
	<g id="LINE_88_">
		<line class="st3" x1="136.2" y1="110.6" x2="138.7" y2="116.1"/>
	</g>
	<g id="LINE_89_">
		<line class="st3" x1="138.7" y1="116.1" x2="143.5" y2="116.1"/>
	</g>
	<g id="LINE_90_">
		<line class="st3" x1="143.5" y1="116.1" x2="146.7" y2="110.6"/>
	</g>
	<g id="LINE_91_">
		<line class="st3" x1="146.7" y1="110.6" x2="151.6" y2="110.6"/>
	</g>
	<g id="LINE_92_">
		<line class="st3" x1="151.6" y1="110.6" x2="154.2" y2="116.1"/>
	</g>
	<g id="LINE_93_">
		<line class="st3" x1="154.2" y1="116.1" x2="158.8" y2="116.1"/>
	</g>
	<g id="LINE_94_">
		<line class="st3" x1="158.8" y1="116.1" x2="162.1" y2="110.6"/>
	</g>
	<g id="LINE_95_">
		<line class="st3" x1="162.1" y1="110.6" x2="167" y2="110.6"/>
	</g>
	<g id="LINE_96_">
		<line class="st3" x1="167" y1="110.6" x2="169.8" y2="116.1"/>
	</g>
	<g id="LINE_97_">
		<line class="st3" x1="169.8" y1="116.1" x2="174.2" y2="116.1"/>
	</g>
	<g id="LINE_98_">
		<line class="st3" x1="174.2" y1="116.1" x2="177.5" y2="110.6"/>
	</g>
	<g id="LINE_99_">
		<line class="st3" x1="348.6" y1="206.9" x2="352.6" y2="200.5"/>
	</g>
	<g id="LINE_100_">
		<line class="st3" x1="361" y1="206.9" x2="358.3" y2="200.5"/>
	</g>
	<g id="LINE_101_">
		<line class="st3" x1="352.6" y1="200.5" x2="358.3" y2="200.5"/>
	</g>
	<g id="LINE_102_">
		<line class="st3" x1="342.8" y1="206.9" x2="348.6" y2="206.9"/>
	</g>
	<g id="LINE_103_">
		<line class="st3" x1="366.8" y1="206.9" x2="370.7" y2="200.5"/>
	</g>
	<g id="LINE_104_">
		<line class="st3" x1="379.1" y1="206.9" x2="376.4" y2="200.5"/>
	</g>
	<g id="LINE_105_">
		<line class="st3" x1="370.7" y1="200.5" x2="376.4" y2="200.5"/>
	</g>
	<g id="LINE_106_">
		<line class="st3" x1="361" y1="206.9" x2="366.8" y2="206.9"/>
	</g>
	<g id="LINE_107_">
		<line class="st3" x1="384.9" y1="206.9" x2="388.8" y2="200.5"/>
	</g>
	<g id="LINE_108_">
		<line class="st3" x1="397.2" y1="206.9" x2="394.5" y2="200.5"/>
	</g>
	<g id="LINE_109_">
		<line class="st3" x1="388.8" y1="200.5" x2="394.5" y2="200.5"/>
	</g>
	<g id="LINE_110_">
		<line class="st3" x1="379.1" y1="206.9" x2="384.9" y2="206.9"/>
	</g>
	<g id="LINE_111_">
		<line class="st3" x1="403" y1="206.9" x2="406.9" y2="200.5"/>
	</g>
	<g id="LINE_112_">
		<line class="st3" x1="415.3" y1="206.9" x2="412.6" y2="200.5"/>
	</g>
	<g id="LINE_113_">
		<line class="st3" x1="406.9" y1="200.5" x2="412.6" y2="200.5"/>
	</g>
	<g id="LINE_114_">
		<line class="st3" x1="397.2" y1="206.9" x2="403" y2="206.9"/>
	</g>
	<g id="LINE_115_">
		<line class="st3" x1="421.1" y1="206.9" x2="425" y2="200.5"/>
	</g>
	<g id="LINE_116_">
		<line class="st3" x1="433.4" y1="206.9" x2="430.8" y2="200.5"/>
	</g>
	<g id="LINE_117_">
		<line class="st3" x1="425" y1="200.5" x2="430.8" y2="200.5"/>
	</g>
	<g id="LINE_118_">
		<line class="st3" x1="415.3" y1="206.9" x2="421.1" y2="206.9"/>
	</g>
	<g id="LINE_119_">
		<line class="st3" x1="439.2" y1="206.9" x2="443.2" y2="200.5"/>
	</g>
	<g id="LINE_120_">
		<line class="st3" x1="451.6" y1="206.9" x2="448.9" y2="200.5"/>
	</g>
	<g id="LINE_121_">
		<line class="st3" x1="443.2" y1="200.5" x2="448.9" y2="200.5"/>
	</g>
	<g id="LINE_122_">
		<line class="st3" x1="433.4" y1="206.9" x2="439.2" y2="206.9"/>
	</g>
	<g id="LINE_123_">
		<line class="st3" x1="457.4" y1="206.9" x2="461.3" y2="200.5"/>
	</g>
	<g id="LINE_124_">
		<line class="st3" x1="469.7" y1="206.9" x2="467" y2="200.5"/>
	</g>
	<g id="LINE_125_">
		<line class="st3" x1="461.3" y1="200.5" x2="467" y2="200.5"/>
	</g>
	<g id="LINE_126_">
		<line class="st3" x1="451.6" y1="206.9" x2="457.4" y2="206.9"/>
	</g>
	<g id="LINE_127_">
		<line class="st3" x1="475.5" y1="206.9" x2="479.4" y2="200.5"/>
	</g>
	<g id="LINE_128_">
		<line class="st3" x1="487.8" y1="206.9" x2="485.1" y2="200.5"/>
	</g>
	<g id="LINE_129_">
		<line class="st3" x1="479.4" y1="200.5" x2="485.1" y2="200.5"/>
	</g>
	<g id="LINE_130_">
		<line class="st3" x1="469.7" y1="206.9" x2="475.5" y2="206.9"/>
	</g>
	<g id="LINE_131_">
		<line class="st3" x1="493.6" y1="206.9" x2="497.5" y2="200.5"/>
	</g>
	<g id="LINE_132_">
		<line class="st3" x1="505.9" y1="206.9" x2="503.2" y2="200.5"/>
	</g>
	<g id="LINE_133_">
		<line class="st3" x1="497.5" y1="200.5" x2="503.2" y2="200.5"/>
	</g>
	<g id="LINE_134_">
		<line class="st3" x1="487.8" y1="206.9" x2="493.6" y2="206.9"/>
	</g>
	<g id="LINE_135_">
		<line class="st3" x1="511.7" y1="206.9" x2="515.7" y2="200.5"/>
	</g>
	<g id="LINE_136_">
		<line class="st3" x1="524.1" y1="206.9" x2="521.4" y2="200.5"/>
	</g>
	<g id="LINE_137_">
		<line class="st3" x1="515.7" y1="200.5" x2="521.4" y2="200.5"/>
	</g>
	<g id="LINE_138_">
		<line class="st3" x1="505.9" y1="206.9" x2="511.7" y2="206.9"/>
	</g>
	<g id="LINE_139_">
		<line class="st3" x1="177.5" y1="110.6" x2="182.3" y2="110.6"/>
	</g>
	<g id="LINE_140_">
		<line class="st3" x1="182.3" y1="110.6" x2="185.3" y2="116.1"/>
	</g>
	<g id="LINE_141_">
		<line class="st3" x1="185.3" y1="116.1" x2="189.6" y2="116.1"/>
	</g>
	<g id="LINE_142_">
		<line class="st3" x1="189.6" y1="116.1" x2="192.8" y2="110.6"/>
	</g>
	<g id="LINE_143_">
		<line class="st3" x1="192.8" y1="110.6" x2="197.7" y2="110.6"/>
	</g>
	<g id="LINE_144_">
		<line class="st3" x1="197.7" y1="110.6" x2="200.8" y2="116.1"/>
	</g>
	<g id="LINE_145_">
		<line class="st3" x1="200.8" y1="116.1" x2="204.9" y2="116.1"/>
	</g>
	<g id="LINE_146_">
		<line class="st3" x1="204.9" y1="116.1" x2="208.2" y2="110.6"/>
	</g>
	<g id="LINE_147_">
		<line class="st3" x1="208.2" y1="110.6" x2="213" y2="110.6"/>
	</g>
	<g id="LINE_148_">
		<line class="st3" x1="213" y1="110.6" x2="216.4" y2="116.1"/>
	</g>
	<g id="LINE_149_">
		<line class="st3" x1="216.4" y1="116.1" x2="220.3" y2="116.1"/>
	</g>
	<g id="LINE_150_">
		<line class="st3" x1="220.3" y1="116.1" x2="223.5" y2="110.6"/>
	</g>
	<g id="LINE_151_">
		<line class="st3" x1="223.5" y1="110.6" x2="228.4" y2="110.6"/>
	</g>
	<g id="LINE_152_">
		<line class="st3" x1="228.4" y1="110.6" x2="231.9" y2="116.1"/>
	</g>
	<g id="LINE_153_">
		<line class="st3" x1="231.9" y1="116.1" x2="235.7" y2="116.1"/>
	</g>
	<g id="LINE_154_">
		<line class="st3" x1="235.7" y1="116.1" x2="238.9" y2="110.6"/>
	</g>
	<g id="LINE_155_">
		<line class="st3" x1="238.9" y1="110.6" x2="243.8" y2="110.6"/>
	</g>
	<g id="LINE_156_">
		<line class="st3" x1="243.8" y1="110.6" x2="247.4" y2="116.1"/>
	</g>
	<g id="LINE_157_">
		<line class="st3" x1="247.4" y1="116.1" x2="251" y2="116.1"/>
	</g>
	<g id="LINE_158_">
		<line class="st3" x1="251" y1="116.1" x2="254.3" y2="110.6"/>
	</g>
	<g id="LINE_159_">
		<line class="st3" x1="254.3" y1="110.6" x2="259.1" y2="110.6"/>
	</g>
	<g id="LINE_160_">
		<line class="st3" x1="259.1" y1="110.6" x2="262.9" y2="116.1"/>
	</g>
	<g id="LINE_161_">
		<line class="st3" x1="262.9" y1="116.1" x2="266.4" y2="116.1"/>
	</g>
	<g id="LINE_162_">
		<line class="st3" x1="266.4" y1="116.1" x2="269.6" y2="110.6"/>
	</g>
	<g id="LINE_163_">
		<line class="st3" x1="269.6" y1="110.6" x2="274.5" y2="110.6"/>
	</g>
	<g id="LINE_164_">
		<line class="st3" x1="274.5" y1="110.6" x2="278.5" y2="116.1"/>
	</g>
	<g id="LINE_165_">
		<line class="st3" x1="278.5" y1="116.1" x2="281.7" y2="116.1"/>
	</g>
	<g id="LINE_166_">
		<line class="st3" x1="281.7" y1="116.1" x2="285" y2="110.6"/>
	</g>
	<g id="LINE_167_">
		<line class="st3" x1="285" y1="110.6" x2="289.8" y2="110.6"/>
	</g>
	<g id="LINE_168_">
		<line class="st3" x1="289.8" y1="110.6" x2="294" y2="116.1"/>
	</g>
	<g id="LINE_169_">
		<line class="st3" x1="294" y1="116.1" x2="297.1" y2="116.1"/>
	</g>
	<g id="LINE_170_">
		<line class="st3" x1="297.1" y1="116.1" x2="300.4" y2="110.6"/>
	</g>
	<g id="LINE_171_">
		<line class="st3" x1="300.4" y1="110.6" x2="305.2" y2="110.6"/>
	</g>
	<g id="LINE_172_">
		<line class="st3" x1="305.2" y1="110.6" x2="309.5" y2="116.1"/>
	</g>
	<g id="LINE_173_">
		<line class="st3" x1="47.4" y1="100.9" x2="48.8" y2="98.5"/>
	</g>
	<g id="LINE_174_">
		<line class="st3" x1="50.6" y1="95.4" x2="52.3" y2="95.4"/>
	</g>
	<g id="LINE_175_">
		<line class="st3" x1="55.1" y1="95.4" x2="56.7" y2="100.9"/>
	</g>
	<g id="LINE_176_">
		<line class="st3" x1="56.7" y1="100.9" x2="58.7" y2="100.9"/>
	</g>
	<g id="LINE_177_">
		<line class="st3" x1="62.1" y1="100.9" x2="63.5" y2="98.6"/>
	</g>
	<g id="LINE_178_">
		<line class="st3" x1="65.3" y1="95.4" x2="67.1" y2="95.4"/>
	</g>
	<g id="LINE_179_">
		<line class="st3" x1="69.8" y1="95.4" x2="71.6" y2="100.9"/>
	</g>
	<g id="LINE_180_">
		<line class="st3" x1="71.6" y1="100.9" x2="73.7" y2="100.9"/>
	</g>
	<g id="LINE_181_">
		<line class="st3" x1="76.8" y1="100.9" x2="78.1" y2="98.6"/>
	</g>
	<g id="LINE_182_">
		<line class="st3" x1="79.9" y1="95.4" x2="81.6" y2="95.4"/>
	</g>
	<g id="LINE_183_">
		<line class="st3" x1="84.6" y1="95.4" x2="86.6" y2="100.9"/>
	</g>
	<g id="LINE_184_">
		<line class="st3" x1="86.6" y1="100.9" x2="88.3" y2="100.9"/>
	</g>
	<g id="LINE_185_">
		<line class="st3" x1="91.7" y1="100.9" x2="93" y2="98.6"/>
	</g>
	<g id="LINE_186_">
		<line class="st3" x1="94.8" y1="95.4" x2="96.7" y2="95.4"/>
	</g>
	<g id="LINE_187_">
		<line class="st3" x1="99.5" y1="95.4" x2="101.7" y2="100.9"/>
	</g>
	<g id="LINE_188_">
		<line class="st3" x1="101.7" y1="100.9" x2="103.5" y2="100.9"/>
	</g>
	<g id="LINE_189_">
		<line class="st3" x1="106.6" y1="100.9" x2="107.9" y2="98.7"/>
	</g>
	<g id="LINE_190_">
		<line class="st3" x1="109.7" y1="95.4" x2="111.6" y2="95.4"/>
	</g>
	<g id="LINE_191_">
		<line class="st3" x1="114.4" y1="95.4" x2="116.8" y2="100.9"/>
	</g>
	<g id="LINE_192_">
		<line class="st3" x1="116.8" y1="100.9" x2="118.6" y2="100.9"/>
	</g>
	<g id="LINE_193_">
		<line class="st3" x1="121.5" y1="100.9" x2="122.8" y2="98.7"/>
	</g>
	<g id="LINE_194_">
		<line class="st3" x1="124.6" y1="95.4" x2="126.5" y2="95.4"/>
	</g>
	<g id="LINE_195_">
		<line class="st3" x1="129.3" y1="95.4" x2="131.8" y2="100.9"/>
	</g>
	<g id="LINE_196_">
		<line class="st3" x1="131.8" y1="100.9" x2="133.4" y2="100.9"/>
	</g>
	<g id="LINE_197_">
		<line class="st3" x1="136.4" y1="100.9" x2="137.6" y2="98.8"/>
	</g>
	<g id="LINE_198_">
		<line class="st3" x1="139.5" y1="95.4" x2="141.5" y2="95.4"/>
	</g>
	<g id="LINE_199_">
		<line class="st3" x1="144.2" y1="95.4" x2="146.9" y2="100.9"/>
	</g>
	<g id="LINE_200_">
		<line class="st3" x1="146.9" y1="100.9" x2="148.6" y2="100.9"/>
	</g>
	<g id="LINE_201_">
		<line class="st3" x1="151.3" y1="100.9" x2="152.5" y2="98.8"/>
	</g>
	<g id="LINE_202_">
		<line class="st3" x1="154.4" y1="95.4" x2="156.3" y2="95.4"/>
	</g>
	<g id="LINE_203_">
		<line class="st3" x1="159.1" y1="95.4" x2="161.9" y2="100.9"/>
	</g>
	<g id="LINE_204_">
		<line class="st3" x1="161.9" y1="100.9" x2="163.5" y2="100.9"/>
	</g>
	<g id="LINE_205_">
		<line class="st3" x1="166.2" y1="100.9" x2="167.4" y2="98.8"/>
	</g>
	<g id="LINE_206_">
		<line class="st3" x1="287.7" y1="99.1" x2="288.8" y2="100.6"/>
	</g>
	<g id="LINE_207_">
		<line class="st3" x1="169.3" y1="95.4" x2="171.1" y2="95.4"/>
	</g>
	<g id="LINE_208_">
		<line class="st3" x1="174" y1="95.4" x2="177" y2="100.9"/>
	</g>
	<g id="LINE_209_">
		<line class="st3" x1="177" y1="100.9" x2="178.6" y2="100.9"/>
	</g>
	<g id="LINE_210_">
		<line class="st3" x1="181.1" y1="100.9" x2="182.3" y2="98.9"/>
	</g>
	<g id="LINE_211_">
		<line class="st3" x1="184.2" y1="95.4" x2="186.3" y2="95.4"/>
	</g>
	<g id="LINE_212_">
		<line class="st3" x1="188.9" y1="95.4" x2="192.1" y2="100.9"/>
	</g>
	<g id="LINE_213_">
		<line class="st3" x1="192.1" y1="100.9" x2="193.4" y2="100.9"/>
	</g>
	<g id="LINE_214_">
		<line class="st3" x1="196" y1="100.9" x2="197.1" y2="98.9"/>
	</g>
	<g id="LINE_215_">
		<line class="st3" x1="199.1" y1="95.4" x2="201.1" y2="95.4"/>
	</g>
	<g id="LINE_216_">
		<line class="st3" x1="203.8" y1="95.4" x2="207.1" y2="100.9"/>
	</g>
	<g id="LINE_217_">
		<line class="st3" x1="207.1" y1="100.9" x2="208.4" y2="100.9"/>
	</g>
	<g id="LINE_218_">
		<line class="st3" x1="210.9" y1="100.9" x2="212" y2="98.9"/>
	</g>
	<g id="LINE_219_">
		<line class="st3" x1="214" y1="95.4" x2="216.1" y2="95.4"/>
	</g>
	<g id="LINE_220_">
		<line class="st3" x1="218.7" y1="95.4" x2="222.2" y2="100.9"/>
	</g>
	<g id="LINE_221_">
		<line class="st3" x1="222.2" y1="100.9" x2="223.5" y2="100.9"/>
	</g>
	<g id="LINE_222_">
		<line class="st3" x1="225.8" y1="100.9" x2="226.9" y2="99"/>
	</g>
	<g id="LINE_223_">
		<line class="st3" x1="228.9" y1="95.4" x2="230.5" y2="95.4"/>
	</g>
	<g id="LINE_224_">
		<line class="st3" x1="233.6" y1="95.4" x2="237.2" y2="100.9"/>
	</g>
	<g id="LINE_225_">
		<line class="st3" x1="237.2" y1="100.9" x2="238.5" y2="100.9"/>
	</g>
	<g id="LINE_226_">
		<line class="st3" x1="240.7" y1="100.9" x2="241.8" y2="99"/>
	</g>
	<g id="LINE_227_">
		<line class="st3" x1="243.8" y1="95.4" x2="245.7" y2="95.4"/>
	</g>
	<g id="LINE_228_">
		<line class="st3" x1="248.5" y1="95.4" x2="252.3" y2="100.9"/>
	</g>
	<g id="LINE_229_">
		<line class="st3" x1="252.3" y1="100.9" x2="253.5" y2="100.9"/>
	</g>
	<g id="LINE_230_">
		<line class="st3" x1="255.6" y1="100.9" x2="256.6" y2="99.1"/>
	</g>
	<g id="LINE_231_">
		<line class="st3" x1="258.7" y1="95.4" x2="260.8" y2="95.4"/>
	</g>
	<g id="LINE_232_">
		<line class="st3" x1="263.4" y1="95.4" x2="267.4" y2="100.9"/>
	</g>
	<g id="LINE_233_">
		<line class="st3" x1="267.4" y1="100.9" x2="268.5" y2="100.9"/>
	</g>
	<g id="LINE_234_">
		<line class="st3" x1="270.5" y1="100.9" x2="271.5" y2="99.1"/>
	</g>
	<g id="LINE_235_">
		<line class="st3" x1="273.6" y1="95.4" x2="275.8" y2="95.4"/>
	</g>
	<g id="LINE_236_">
		<line class="st3" x1="278.3" y1="95.4" x2="282.4" y2="100.9"/>
	</g>
	<g id="LINE_237_">
		<line class="st3" x1="282.4" y1="100.9" x2="283.6" y2="100.9"/>
	</g>
	<g id="LINE_238_">
		<line class="st3" x1="285.4" y1="100.9" x2="286.4" y2="99.1"/>
	</g>
	<g id="LINE_239_">
		<line class="st3" x1="374.8" y1="100.9" x2="411.3" y2="139.3"/>
	</g>
	<g id="LINE_240_">
		<line class="st3" x1="288.5" y1="95.4" x2="290.6" y2="95.4"/>
	</g>
	<g id="LINE_241_">
		<line class="st3" x1="293.2" y1="95.4" x2="297.5" y2="100.9"/>
	</g>
	<g id="LINE_242_">
		<line class="st3" x1="287.3" y1="97.6" x2="288.5" y2="95.4"/>
	</g>
	<g id="LINE_243_">
		<line class="st3" x1="272.4" y1="97.6" x2="273.6" y2="95.4"/>
	</g>
	<g id="LINE_244_">
		<line class="st3" x1="289.5" y1="101.4" x2="291.1" y2="103.5"/>
	</g>
	<g id="LINE_245_">
		<line class="st3" x1="291.8" y1="104.4" x2="293.5" y2="106.6"/>
	</g>
	<g id="LINE_246_">
		<line class="st3" x1="294.3" y1="107.6" x2="296.2" y2="110.1"/>
	</g>
	<g id="LINE_247_">
		<line class="st3" x1="296.9" y1="111" x2="298.7" y2="113.4"/>
	</g>
	<g id="LINE_248_">
		<line class="st3" x1="257.5" y1="97.5" x2="258.7" y2="95.4"/>
	</g>
	<g id="LINE_249_">
		<line class="st3" x1="242.6" y1="97.5" x2="243.8" y2="95.4"/>
	</g>
	<g id="LINE_250_">
		<line class="st3" x1="227.7" y1="97.5" x2="228.9" y2="95.4"/>
	</g>
	<g id="LINE_251_">
		<line class="st3" x1="212.8" y1="97.5" x2="214" y2="95.4"/>
	</g>
	<g id="LINE_252_">
		<line class="st3" x1="197.9" y1="97.5" x2="199.1" y2="95.4"/>
	</g>
	<g id="LINE_253_">
		<line class="st3" x1="183" y1="97.5" x2="184.2" y2="95.4"/>
	</g>
	<g id="LINE_254_">
		<line class="st3" x1="168.1" y1="97.5" x2="169.3" y2="95.4"/>
	</g>
	<g id="LINE_255_">
		<line class="st3" x1="153.3" y1="97.5" x2="154.4" y2="95.4"/>
	</g>
	<g id="LINE_256_">
		<line class="st3" x1="138.4" y1="97.5" x2="139.5" y2="95.4"/>
	</g>
	<g id="LINE_257_">
		<line class="st3" x1="123.5" y1="97.4" x2="124.6" y2="95.4"/>
	</g>
	<g id="LINE_258_">
		<line class="st3" x1="108.6" y1="97.4" x2="109.7" y2="95.4"/>
	</g>
	<g id="LINE_259_">
		<line class="st3" x1="93.7" y1="97.4" x2="94.8" y2="95.4"/>
	</g>
	<g id="LINE_260_">
		<line class="st3" x1="78.8" y1="97.4" x2="79.9" y2="95.4"/>
	</g>
	<g id="LINE_261_">
		<line class="st3" x1="64.1" y1="97.4" x2="65.3" y2="95.4"/>
	</g>
	<g id="LINE_262_">
		<line class="st3" x1="49.5" y1="97.4" x2="50.6" y2="95.4"/>
	</g>
	<g id="LINE_263_">
		<line class="st3" x1="53.1" y1="95.4" x2="55.1" y2="95.4"/>
	</g>
	<g id="LINE_264_">
		<line class="st3" x1="59.8" y1="100.9" x2="62.1" y2="100.9"/>
	</g>
	<g id="LINE_265_">
		<line class="st3" x1="67.9" y1="95.4" x2="69.8" y2="95.4"/>
	</g>
	<g id="LINE_266_">
		<line class="st3" x1="74.7" y1="100.9" x2="76.8" y2="100.9"/>
	</g>
	<g id="LINE_267_">
		<line class="st3" x1="82.8" y1="95.4" x2="84.6" y2="95.4"/>
	</g>
	<g id="LINE_268_">
		<line class="st3" x1="90" y1="100.9" x2="91.7" y2="100.9"/>
	</g>
	<g id="LINE_269_">
		<line class="st3" x1="97.8" y1="95.4" x2="99.5" y2="95.4"/>
	</g>
	<g id="LINE_270_">
		<line class="st3" x1="104.6" y1="100.9" x2="106.6" y2="100.9"/>
	</g>
	<g id="LINE_271_">
		<line class="st3" x1="112.8" y1="95.4" x2="114.4" y2="95.4"/>
	</g>
	<g id="LINE_272_">
		<line class="st3" x1="119.8" y1="100.9" x2="121.5" y2="100.9"/>
	</g>
	<g id="LINE_273_">
		<line class="st3" x1="127.2" y1="95.4" x2="129.3" y2="95.4"/>
	</g>
	<g id="LINE_274_">
		<line class="st3" x1="134.5" y1="100.9" x2="136.4" y2="100.9"/>
	</g>
	<g id="LINE_275_">
		<line class="st3" x1="142.8" y1="95.4" x2="144.2" y2="95.4"/>
	</g>
	<g id="LINE_276_">
		<line class="st3" x1="149.3" y1="100.9" x2="151.3" y2="100.9"/>
	</g>
	<g id="LINE_277_">
		<line class="st3" x1="157.3" y1="95.4" x2="159.1" y2="95.4"/>
	</g>
	<g id="LINE_278_">
		<line class="st3" x1="164.4" y1="100.9" x2="166.2" y2="100.9"/>
	</g>
	<g id="LINE_279_">
		<line class="st3" x1="172.2" y1="95.4" x2="174" y2="95.4"/>
	</g>
	<g id="LINE_280_">
		<line class="st3" x1="179.3" y1="100.9" x2="181.1" y2="100.9"/>
	</g>
	<g id="LINE_281_">
		<line class="st3" x1="187.2" y1="95.4" x2="188.9" y2="95.4"/>
	</g>
	<g id="LINE_282_">
		<line class="st3" x1="194.8" y1="100.9" x2="196" y2="100.9"/>
	</g>
	<g id="LINE_283_">
		<line class="st3" x1="202.2" y1="95.4" x2="203.8" y2="95.4"/>
	</g>
	<g id="LINE_284_">
		<line class="st3" x1="209.4" y1="100.9" x2="210.9" y2="100.9"/>
	</g>
	<g id="LINE_285_">
		<line class="st3" x1="217.7" y1="95.4" x2="218.7" y2="95.4"/>
	</g>
	<g id="LINE_286_">
		<line class="st3" x1="232.3" y1="95.4" x2="233.6" y2="95.4"/>
	</g>
	<g id="LINE_287_">
		<line class="st3" x1="246.9" y1="95.4" x2="248.5" y2="95.4"/>
	</g>
	<g id="LINE_288_">
		<line class="st3" x1="261.8" y1="95.4" x2="263.4" y2="95.4"/>
	</g>
	<g id="LINE_289_">
		<line class="st3" x1="277" y1="95.4" x2="278.3" y2="95.4"/>
	</g>
	<g id="LINE_290_">
		<line class="st3" x1="291.6" y1="95.4" x2="293.2" y2="95.4"/>
	</g>
	<g id="LINE_291_">
		<line class="st3" x1="284.2" y1="100.9" x2="285.4" y2="100.9"/>
	</g>
	<g id="LINE_292_">
		<line class="st3" x1="269.5" y1="100.9" x2="270.5" y2="100.9"/>
	</g>
	<g id="LINE_293_">
		<line class="st3" x1="254.2" y1="100.9" x2="255.6" y2="100.9"/>
	</g>
	<g id="LINE_294_">
		<line class="st3" x1="239.6" y1="100.9" x2="240.7" y2="100.9"/>
	</g>
	<g id="LINE_295_">
		<line class="st3" x1="224.8" y1="100.9" x2="225.8" y2="100.9"/>
	</g>
	<g id="LINE_296_">
		<line class="st3" x1="28.3" y1="33.2" x2="77.4" y2="206.9"/>
	</g>
	<g id="LINE_297_">
		<line class="st3" x1="31.3" y1="29.3" x2="81.3" y2="200.5"/>
	</g>
	<g id="LINE_298_">
		<line class="st3" x1="36.3" y1="33.2" x2="86.7" y2="200.5"/>
	</g>
	<g id="LINE_299_">
		<line class="st3" x1="41" y1="33.2" x2="95.2" y2="206.9"/>
	</g>
	<g id="LINE_300_">
		<line class="st3" x1="44" y1="29.3" x2="99.1" y2="200.5"/>
	</g>
	<g id="LINE_301_">
		<line class="st3" x1="49.1" y1="33.2" x2="104.6" y2="200.5"/>
	</g>
	<g id="LINE_302_">
		<line class="st3" x1="53.7" y1="33.2" x2="113.1" y2="206.9"/>
	</g>
	<g id="LINE_303_">
		<line class="st3" x1="56.7" y1="29.3" x2="117" y2="200.5"/>
	</g>
	<g id="LINE_304_">
		<line class="st3" x1="62.1" y1="33.2" x2="122.7" y2="200.5"/>
	</g>
	<g id="LINE_305_">
		<line class="st3" x1="66.5" y1="33.2" x2="131.2" y2="206.9"/>
	</g>
	<g id="LINE_306_">
		<line class="st3" x1="69.5" y1="29.3" x2="85.7" y2="71.6"/>
	</g>
	<g id="LINE_307_">
		<line class="st3" x1="75.1" y1="33.2" x2="85.7" y2="60.2"/>
	</g>
	<g id="LINE_308_">
		<line class="st3" x1="79.4" y1="33.2" x2="88.7" y2="56.4"/>
	</g>
	<g id="LINE_309_">
		<line class="st3" x1="82.4" y1="29.3" x2="93.6" y2="56.4"/>
	</g>
	<g id="LINE_310_">
		<line class="st3" x1="88.1" y1="33.2" x2="97.9" y2="56.4"/>
	</g>
	<g id="LINE_311_">
		<line class="st3" x1="92.2" y1="33.2" x2="102.3" y2="56.4"/>
	</g>
	<g id="LINE_312_">
		<line class="st3" x1="95.3" y1="29.3" x2="171.4" y2="200.5"/>
	</g>
	<g id="LINE_313_">
		<line class="st3" x1="101.1" y1="33.2" x2="177.1" y2="200.5"/>
	</g>
	<g id="LINE_314_">
		<line class="st3" x1="105" y1="33.2" x2="185.5" y2="206.9"/>
	</g>
	<g id="LINE_315_">
		<line class="st3" x1="108.1" y1="29.3" x2="189.5" y2="200.5"/>
	</g>
	<g id="LINE_316_">
		<line class="st3" x1="114.1" y1="33.2" x2="195.2" y2="200.5"/>
	</g>
	<g id="LINE_317_">
		<line class="st3" x1="117.9" y1="33.2" x2="203.7" y2="206.9"/>
	</g>
	<g id="LINE_318_">
		<line class="st3" x1="121" y1="29.3" x2="207.6" y2="200.5"/>
	</g>
	<g id="LINE_319_">
		<line class="st3" x1="127" y1="33.2" x2="213.3" y2="200.5"/>
	</g>
	<g id="LINE_320_">
		<line class="st3" x1="130.7" y1="33.2" x2="221.8" y2="206.9"/>
	</g>
	<g id="LINE_321_">
		<line class="st3" x1="133.9" y1="29.3" x2="225.7" y2="200.5"/>
	</g>
	<g id="LINE_322_">
		<line class="st3" x1="132.5" y1="31" x2="224.1" y2="203.2"/>
	</g>
	<g id="LINE_323_">
		<line class="st3" x1="28.3" y1="33.2" x2="31.3" y2="29.3"/>
	</g>
	<g id="LINE_324_">
		<line class="st3" x1="31.3" y1="29.3" x2="35.2" y2="29.3"/>
	</g>
	<g id="LINE_325_">
		<line class="st3" x1="35.2" y1="29.3" x2="36.3" y2="33.2"/>
	</g>
	<g id="LINE_326_">
		<line class="st3" x1="36.3" y1="33.2" x2="41" y2="33.2"/>
	</g>
	<g id="LINE_327_">
		<line class="st3" x1="41" y1="33.2" x2="44" y2="29.3"/>
	</g>
	<g id="LINE_328_">
		<line class="st3" x1="44" y1="29.3" x2="47.9" y2="29.3"/>
	</g>
	<g id="LINE_329_">
		<line class="st3" x1="47.9" y1="29.3" x2="49.1" y2="33.2"/>
	</g>
	<g id="LINE_330_">
		<line class="st3" x1="49.1" y1="33.2" x2="53.7" y2="33.2"/>
	</g>
	<g id="LINE_331_">
		<line class="st3" x1="53.7" y1="33.2" x2="56.7" y2="29.3"/>
	</g>
	<g id="LINE_332_">
		<line class="st3" x1="56.7" y1="29.3" x2="60.7" y2="29.3"/>
	</g>
	<g id="LINE_333_">
		<line class="st3" x1="60.7" y1="29.3" x2="62.1" y2="33.2"/>
	</g>
	<g id="LINE_334_">
		<line class="st3" x1="62.1" y1="33.2" x2="66.5" y2="33.2"/>
	</g>
	<g id="LINE_335_">
		<line class="st3" x1="66.5" y1="33.2" x2="69.5" y2="29.3"/>
	</g>
	<g id="LINE_336_">
		<line class="st3" x1="69.5" y1="29.3" x2="73.6" y2="29.3"/>
	</g>
	<g id="LINE_337_">
		<line class="st3" x1="73.6" y1="29.3" x2="75.1" y2="33.2"/>
	</g>
	<g id="LINE_338_">
		<line class="st3" x1="75.1" y1="33.2" x2="79.4" y2="33.2"/>
	</g>
	<g id="LINE_339_">
		<line class="st3" x1="79.4" y1="33.2" x2="82.4" y2="29.3"/>
	</g>
	<g id="LINE_340_">
		<line class="st3" x1="82.4" y1="29.3" x2="86.5" y2="29.3"/>
	</g>
	<g id="LINE_341_">
		<line class="st3" x1="86.5" y1="29.3" x2="88.1" y2="33.2"/>
	</g>
	<g id="LINE_342_">
		<line class="st3" x1="88.1" y1="33.2" x2="92.2" y2="33.2"/>
	</g>
	<g id="LINE_343_">
		<line class="st3" x1="92.2" y1="33.2" x2="95.3" y2="29.3"/>
	</g>
	<g id="LINE_344_">
		<line class="st3" x1="95.3" y1="29.3" x2="99.3" y2="29.3"/>
	</g>
	<g id="LINE_345_">
		<line class="st3" x1="99.3" y1="29.3" x2="101.1" y2="33.2"/>
	</g>
	<g id="LINE_346_">
		<line class="st3" x1="101.1" y1="33.2" x2="105" y2="33.2"/>
	</g>
	<g id="LINE_347_">
		<line class="st3" x1="105" y1="33.2" x2="108.1" y2="29.3"/>
	</g>
	<g id="LINE_348_">
		<line class="st3" x1="108.1" y1="29.3" x2="112.2" y2="29.3"/>
	</g>
	<g id="LINE_349_">
		<line class="st3" x1="112.2" y1="29.3" x2="114.1" y2="33.2"/>
	</g>
	<g id="LINE_350_">
		<line class="st3" x1="114.1" y1="33.2" x2="117.9" y2="33.2"/>
	</g>
	<g id="LINE_351_">
		<line class="st3" x1="117.9" y1="33.2" x2="121" y2="29.3"/>
	</g>
	<g id="LINE_352_">
		<line class="st3" x1="121" y1="29.3" x2="125.1" y2="29.3"/>
	</g>
	<g id="LINE_353_">
		<line class="st3" x1="125.1" y1="29.3" x2="127" y2="33.2"/>
	</g>
	<g id="LINE_354_">
		<line class="st3" x1="127" y1="33.2" x2="130.7" y2="33.2"/>
	</g>
	<g id="LINE_355_">
		<line class="st3" x1="130.7" y1="33.2" x2="133.9" y2="29.3"/>
	</g>
	<g id="LINE_356_">
		<line class="st3" x1="236.8" y1="29.3" x2="370.7" y2="200.5"/>
	</g>
	<g id="LINE_357_">
		<line class="st3" x1="233.5" y1="33.2" x2="366.8" y2="206.9"/>
	</g>
	<g id="LINE_358_">
		<line class="st3" x1="230.9" y1="33.2" x2="358.3" y2="200.5"/>
	</g>
	<g id="LINE_359_">
		<line class="st3" x1="223.9" y1="29.3" x2="352.6" y2="200.5"/>
	</g>
	<g id="LINE_360_">
		<line class="st3" x1="220.7" y1="33.2" x2="348.6" y2="206.9"/>
	</g>
	<g id="LINE_361_">
		<line class="st3" x1="217.9" y1="33.2" x2="340.2" y2="200.5"/>
	</g>
	<g id="LINE_362_">
		<line class="st3" x1="211.1" y1="29.3" x2="334.4" y2="200.5"/>
	</g>
	<g id="LINE_363_">
		<line class="st3" x1="207.8" y1="33.2" x2="224.2" y2="56.4"/>
	</g>
	<g id="LINE_364_">
		<line class="st3" x1="204.9" y1="33.2" x2="221.2" y2="56.4"/>
	</g>
	<g id="LINE_365_">
		<line class="st3" x1="198.2" y1="29.3" x2="216.9" y2="56.4"/>
	</g>
	<g id="LINE_366_">
		<line class="st3" x1="195" y1="33.2" x2="210.7" y2="56.4"/>
	</g>
	<g id="LINE_367_">
		<line class="st3" x1="192" y1="33.2" x2="207.5" y2="56.4"/>
	</g>
	<g id="LINE_368_">
		<line class="st3" x1="185.3" y1="29.3" x2="204.3" y2="58.1"/>
	</g>
	<g id="LINE_369_">
		<line class="st3" x1="182.1" y1="33.2" x2="204.3" y2="67.5"/>
	</g>
	<g id="LINE_370_">
		<line class="st3" x1="172.5" y1="29.3" x2="280.1" y2="200.5"/>
	</g>
	<g id="LINE_371_">
		<line class="st3" x1="179" y1="33.2" x2="204.3" y2="72.9"/>
	</g>
	<g id="LINE_372_">
		<line class="st3" x1="169.3" y1="33.2" x2="276.2" y2="206.9"/>
	</g>
	<g id="LINE_373_">
		<line class="st3" x1="166" y1="33.2" x2="267.7" y2="200.5"/>
	</g>
	<g id="LINE_374_">
		<line class="st3" x1="159.6" y1="29.3" x2="262" y2="200.5"/>
	</g>
	<g id="LINE_375_">
		<line class="st3" x1="156.4" y1="33.2" x2="258" y2="206.9"/>
	</g>
	<g id="LINE_376_">
		<line class="st3" x1="153" y1="33.2" x2="249.6" y2="200.5"/>
	</g>
	<g id="LINE_377_">
		<line class="st3" x1="146.7" y1="29.3" x2="243.8" y2="200.5"/>
	</g>
	<g id="LINE_378_">
		<line class="st3" x1="143.6" y1="33.2" x2="239.9" y2="206.9"/>
	</g>
	<g id="LINE_379_">
		<line class="st3" x1="140" y1="33.2" x2="231.4" y2="200.5"/>
	</g>
	<g id="LINE_380_">
		<line class="st3" x1="133.9" y1="29.3" x2="137.9" y2="29.3"/>
	</g>
	<g id="LINE_381_">
		<line class="st3" x1="137.9" y1="29.3" x2="140" y2="33.2"/>
	</g>
	<g id="LINE_382_">
		<line class="st3" x1="140" y1="33.2" x2="143.6" y2="33.2"/>
	</g>
	<g id="LINE_383_">
		<line class="st3" x1="143.6" y1="33.2" x2="146.7" y2="29.3"/>
	</g>
	<g id="LINE_384_">
		<line class="st3" x1="146.7" y1="29.3" x2="150.8" y2="29.3"/>
	</g>
	<g id="LINE_385_">
		<line class="st3" x1="150.8" y1="29.3" x2="153" y2="33.2"/>
	</g>
	<g id="LINE_386_">
		<line class="st3" x1="153" y1="33.2" x2="156.4" y2="33.2"/>
	</g>
	<g id="LINE_387_">
		<line class="st3" x1="156.4" y1="33.2" x2="159.6" y2="29.3"/>
	</g>
	<g id="LINE_388_">
		<line class="st3" x1="159.6" y1="29.3" x2="163.7" y2="29.3"/>
	</g>
	<g id="LINE_389_">
		<line class="st3" x1="163.7" y1="29.3" x2="166" y2="33.2"/>
	</g>
	<g id="LINE_390_">
		<line class="st3" x1="166" y1="33.2" x2="169.3" y2="33.2"/>
	</g>
	<g id="LINE_391_">
		<line class="st3" x1="169.3" y1="33.2" x2="172.5" y2="29.3"/>
	</g>
	<g id="LINE_392_">
		<line class="st3" x1="172.5" y1="29.3" x2="176.5" y2="29.3"/>
	</g>
	<g id="LINE_393_">
		<line class="st3" x1="176.5" y1="29.3" x2="179" y2="33.2"/>
	</g>
	<g id="LINE_394_">
		<line class="st3" x1="179" y1="33.2" x2="182.1" y2="33.2"/>
	</g>
	<g id="LINE_395_">
		<line class="st3" x1="182.1" y1="33.2" x2="185.3" y2="29.3"/>
	</g>
	<g id="LINE_396_">
		<line class="st3" x1="185.3" y1="29.3" x2="189.4" y2="29.3"/>
	</g>
	<g id="LINE_397_">
		<line class="st3" x1="189.4" y1="29.3" x2="192" y2="33.2"/>
	</g>
	<g id="LINE_398_">
		<line class="st3" x1="192" y1="33.2" x2="195" y2="33.2"/>
	</g>
	<g id="LINE_399_">
		<line class="st3" x1="195" y1="33.2" x2="198.2" y2="29.3"/>
	</g>
	<g id="LINE_400_">
		<line class="st3" x1="198.2" y1="29.3" x2="202.2" y2="29.3"/>
	</g>
	<g id="LINE_401_">
		<line class="st3" x1="202.2" y1="29.3" x2="204.9" y2="33.2"/>
	</g>
	<g id="LINE_402_">
		<line class="st3" x1="204.9" y1="33.2" x2="207.8" y2="33.2"/>
	</g>
	<g id="LINE_403_">
		<line class="st3" x1="207.8" y1="33.2" x2="211.1" y2="29.3"/>
	</g>
	<g id="LINE_404_">
		<line class="st3" x1="211.1" y1="29.3" x2="215.1" y2="29.3"/>
	</g>
	<g id="LINE_405_">
		<line class="st3" x1="215.1" y1="29.3" x2="217.9" y2="33.2"/>
	</g>
	<g id="LINE_406_">
		<line class="st3" x1="217.9" y1="33.2" x2="220.7" y2="33.2"/>
	</g>
	<g id="LINE_407_">
		<line class="st3" x1="220.7" y1="33.2" x2="223.9" y2="29.3"/>
	</g>
	<g id="LINE_408_">
		<line class="st3" x1="223.9" y1="29.3" x2="228" y2="29.3"/>
	</g>
	<g id="LINE_409_">
		<line class="st3" x1="228" y1="29.3" x2="230.9" y2="33.2"/>
	</g>
	<g id="LINE_410_">
		<line class="st3" x1="230.9" y1="33.2" x2="233.5" y2="33.2"/>
	</g>
	<g id="LINE_411_">
		<line class="st3" x1="233.5" y1="33.2" x2="236.8" y2="29.3"/>
	</g>
	<g id="LINE_412_">
		<line class="st3" x1="412.3" y1="95.4" x2="521.4" y2="200.5"/>
	</g>
	<g id="LINE_413_">
		<line class="st3" x1="407.6" y1="95.4" x2="515.7" y2="200.5"/>
	</g>
	<g id="LINE_414_">
		<line class="st3" x1="402.9" y1="100.9" x2="503.2" y2="200.5"/>
	</g>
	<g id="LINE_415_">
		<line class="st3" x1="392.7" y1="95.4" x2="497.5" y2="200.5"/>
	</g>
	<g id="LINE_416_">
		<line class="st3" x1="387.9" y1="100.9" x2="485.1" y2="200.5"/>
	</g>
	<g id="LINE_417_">
		<line class="st3" x1="377.8" y1="95.4" x2="479.4" y2="200.5"/>
	</g>
	<g id="LINE_418_">
		<line class="st3" x1="372.8" y1="100.9" x2="409.1" y2="139.3"/>
	</g>
	<g id="LINE_419_">
		<line class="st3" x1="362.9" y1="95.4" x2="404" y2="139.3"/>
	</g>
	<g id="LINE_420_">
		<line class="st3" x1="357.7" y1="100.9" x2="397.6" y2="144.5"/>
	</g>
	<g id="LINE_421_">
		<line class="st3" x1="348" y1="95.4" x2="397.6" y2="150.2"/>
	</g>
	<g id="LINE_422_">
		<line class="st3" x1="342.7" y1="100.9" x2="430.8" y2="200.5"/>
	</g>
	<g id="LINE_423_">
		<line class="st3" x1="333.1" y1="95.4" x2="425" y2="200.5"/>
	</g>
	<g id="LINE_424_">
		<line class="st3" x1="330.1" y1="100.9" x2="421.1" y2="206.9"/>
	</g>
	<g id="LINE_425_">
		<line class="st3" x1="327.6" y1="100.9" x2="412.6" y2="200.5"/>
	</g>
	<g id="LINE_426_">
		<line class="st3" x1="318.2" y1="95.4" x2="406.9" y2="200.5"/>
	</g>
	<g id="LINE_427_">
		<line class="st3" x1="315.2" y1="100.9" x2="403" y2="206.9"/>
	</g>
	<g id="LINE_428_">
		<line class="st3" x1="312.5" y1="100.9" x2="394.5" y2="200.5"/>
	</g>
	<g id="LINE_429_">
		<line class="st3" x1="303.3" y1="95.4" x2="388.8" y2="200.5"/>
	</g>
	<g id="LINE_430_">
		<line class="st3" x1="300.3" y1="100.9" x2="384.9" y2="206.9"/>
	</g>
	<g id="LINE_431_">
		<line class="st3" x1="297.5" y1="100.9" x2="376.4" y2="200.5"/>
	</g>
	<g id="LINE_432_">
		<line class="st3" x1="297.5" y1="100.9" x2="300.3" y2="100.9"/>
	</g>
	<g id="LINE_433_">
		<line class="st3" x1="300.3" y1="100.9" x2="303.3" y2="95.4"/>
	</g>
	<g id="LINE_434_">
		<line class="st3" x1="303.3" y1="95.4" x2="308" y2="95.4"/>
	</g>
	<g id="LINE_435_">
		<line class="st3" x1="308" y1="95.4" x2="312.5" y2="100.9"/>
	</g>
	<g id="LINE_436_">
		<line class="st3" x1="312.5" y1="100.9" x2="315.2" y2="100.9"/>
	</g>
	<g id="LINE_437_">
		<line class="st3" x1="315.2" y1="100.9" x2="318.2" y2="95.4"/>
	</g>
	<g id="LINE_438_">
		<line class="st3" x1="318.2" y1="95.4" x2="322.9" y2="95.4"/>
	</g>
	<g id="LINE_439_">
		<line class="st3" x1="322.9" y1="95.4" x2="327.6" y2="100.9"/>
	</g>
	<g id="LINE_440_">
		<line class="st3" x1="327.6" y1="100.9" x2="330.1" y2="100.9"/>
	</g>
	<g id="LINE_441_">
		<line class="st3" x1="330.1" y1="100.9" x2="333.1" y2="95.4"/>
	</g>
	<g id="LINE_442_">
		<line class="st3" x1="333.1" y1="95.4" x2="337.8" y2="95.4"/>
	</g>
	<g id="LINE_443_">
		<line class="st3" x1="337.8" y1="95.4" x2="342.7" y2="100.9"/>
	</g>
	<g id="LINE_444_">
		<line class="st3" x1="342.7" y1="100.9" x2="345" y2="100.9"/>
	</g>
	<g id="LINE_445_">
		<line class="st3" x1="345" y1="100.9" x2="348" y2="95.4"/>
	</g>
	<g id="LINE_446_">
		<line class="st3" x1="348" y1="95.4" x2="352.7" y2="95.4"/>
	</g>
	<g id="LINE_447_">
		<line class="st3" x1="352.7" y1="95.4" x2="357.7" y2="100.9"/>
	</g>
	<g id="LINE_448_">
		<line class="st3" x1="357.7" y1="100.9" x2="359.9" y2="100.9"/>
	</g>
	<g id="LINE_449_">
		<line class="st3" x1="359.9" y1="100.9" x2="362.9" y2="95.4"/>
	</g>
	<g id="LINE_450_">
		<line class="st3" x1="362.9" y1="95.4" x2="367.6" y2="95.4"/>
	</g>
	<g id="LINE_451_">
		<line class="st3" x1="367.6" y1="95.4" x2="372.8" y2="100.9"/>
	</g>
	<g id="LINE_452_">
		<line class="st3" x1="372.8" y1="100.9" x2="374.8" y2="100.9"/>
	</g>
	<g id="LINE_453_">
		<line class="st3" x1="374.8" y1="100.9" x2="377.8" y2="95.4"/>
	</g>
	<g id="LINE_454_">
		<line class="st3" x1="377.8" y1="95.4" x2="382.5" y2="95.4"/>
	</g>
	<g id="LINE_455_">
		<line class="st3" x1="382.5" y1="95.4" x2="387.9" y2="100.9"/>
	</g>
	<g id="LINE_456_">
		<line class="st3" x1="387.9" y1="100.9" x2="389.7" y2="100.9"/>
	</g>
	<g id="LINE_457_">
		<line class="st3" x1="389.7" y1="100.9" x2="392.7" y2="95.4"/>
	</g>
	<g id="LINE_458_">
		<line class="st3" x1="392.7" y1="95.4" x2="397.4" y2="95.4"/>
	</g>
	<g id="LINE_459_">
		<line class="st3" x1="397.4" y1="95.4" x2="402.9" y2="100.9"/>
	</g>
	<g id="LINE_460_">
		<line class="st3" x1="402.9" y1="100.9" x2="404.7" y2="100.9"/>
	</g>
	<g id="LINE_461_">
		<line class="st3" x1="404.7" y1="100.9" x2="407.6" y2="95.4"/>
	</g>
	<g id="LINE_462_">
		<line class="st3" x1="407.6" y1="95.4" x2="412.3" y2="95.4"/>
	</g>
	<g id="LINE_463_">
		<line class="st3" x1="240.8" y1="29.3" x2="293.2" y2="95.4"/>
	</g>
	<g id="LINE_464_">
		<line class="st3" x1="236.8" y1="29.3" x2="240.8" y2="29.3"/>
	</g>
	<g id="LINE_465_">
		<line class="st3" x1="92.7" y1="78" x2="117.9" y2="142.3"/>
	</g>
	<g id="LINE_466_">
		<line class="st3" x1="97.4" y1="78" x2="122.1" y2="139.3"/>
	</g>
	<g id="LINE_467_">
		<line class="st3" x1="102.5" y1="78" x2="127.9" y2="139.3"/>
	</g>
	<g id="LINE_468_">
		<line class="st3" x1="106.9" y1="77.7" x2="133" y2="139.3"/>
	</g>
	<g id="LINE_469_">
		<line class="st3" x1="125.2" y1="160.8" x2="140.8" y2="200.5"/>
	</g>
	<g id="LINE_470_">
		<line class="st3" x1="130.8" y1="160.8" x2="149.3" y2="206.9"/>
	</g>
	<g id="LINE_471_">
		<line class="st3" x1="136.8" y1="160.8" x2="153.2" y2="200.5"/>
	</g>
	<g id="LINE_472_">
		<line class="st3" x1="139.2" y1="153.9" x2="159" y2="200.5"/>
	</g>
	<g id="LINE_473_">
		<line class="st3" x1="211" y1="78" x2="256.1" y2="147.8"/>
	</g>
	<g id="LINE_474_">
		<line class="st3" x1="217.4" y1="78" x2="257.8" y2="139.3"/>
	</g>
	<g id="LINE_475_">
		<line class="st3" x1="221.9" y1="78" x2="262.9" y2="139.3"/>
	</g>
	<g id="LINE_476_">
		<line class="st3" x1="225.2" y1="78" x2="266.7" y2="139.3"/>
	</g>
	<g id="LINE_477_">
		<line class="st3" x1="225.5" y1="69" x2="274.1" y2="139.3"/>
	</g>
	<g id="LINE_478_">
		<line class="st3" x1="264.5" y1="160.8" x2="294.3" y2="206.9"/>
	</g>
	<g id="LINE_479_">
		<line class="st3" x1="260.4" y1="160.8" x2="285.8" y2="200.5"/>
	</g>
	<g id="LINE_480_">
		<line class="st3" x1="272" y1="160.8" x2="298.2" y2="200.5"/>
	</g>
	<g id="LINE_481_">
		<line class="st3" x1="277.3" y1="160.8" x2="303.9" y2="200.5"/>
	</g>
	<g id="LINE_482_">
		<line class="st3" x1="277.4" y1="155" x2="312.4" y2="206.9"/>
	</g>
	<g id="LINE_483_">
		<line class="st3" x1="407.2" y1="160.8" x2="443.2" y2="200.5"/>
	</g>
	<g id="LINE_484_">
		<line class="st3" x1="412.6" y1="160.8" x2="448.9" y2="200.5"/>
	</g>
	<g id="LINE_485_">
		<line class="st3" x1="418.9" y1="155.2" x2="461.3" y2="200.5"/>
	</g>
	<g id="LINE_486_">
		<line class="st3" x1="418.9" y1="149.6" x2="467" y2="200.5"/>
	</g>
	<g id="LINE_487_">
		<line class="st3" x1="106.9" y1="67.2" x2="138.2" y2="139.3"/>
	</g>
	<g id="LINE_488_">
		<line class="st3" x1="88.2" y1="78" x2="117.9" y2="155.7"/>
	</g>
	<g id="LINE_489_">
		<line class="st3" x1="207.6" y1="78" x2="256.1" y2="154"/>
	</g>
	<g id="LINE_490_">
		<line class="st3" x1="225.5" y1="62.6" x2="322" y2="200.5"/>
	</g>
	<g id="LINE_491_">
		<line class="st3" x1="225.5" y1="58.3" x2="330.5" y2="206.9"/>
	</g>
	<g id="LINE_492_">
		<line class="st3" x1="119.9" y1="160.8" x2="135.1" y2="200.5"/>
	</g>
	<g id="LINE_493_">
		<line class="st3" x1="139.2" y1="141.7" x2="167.4" y2="206.9"/>
	</g>
	<g id="LINE_494_">
		<line class="st3" x1="277.4" y1="144.1" x2="316.3" y2="200.5"/>
	</g>
	<g id="LINE_495_">
		<line class="st3" x1="298.7" y1="113.4" x2="368.7" y2="203.7"/>
	</g>
</g>
</svg>
