<svg id="Drawing_Layer" data-name="Drawing Layer" xmlns="http://www.w3.org/2000/svg" viewBox="0 0 494.05 893.93"><defs><style>.cls-1,.cls-10,.cls-12,.cls-3,.cls-4,.cls-5,.cls-6,.cls-7{fill:none;}.cls-1,.cls-10,.cls-12,.cls-6,.cls-7{stroke:#231f20;stroke-miterlimit:10;}.cls-1{stroke-width:0.25px;}.cls-11,.cls-2,.cls-8{fill:#231f20;}.cls-3,.cls-4,.cls-5{stroke:#000;stroke-linejoin:round;}.cls-12,.cls-3,.cls-4,.cls-5,.cls-6{stroke-linecap:round;}.cls-10,.cls-3{stroke-width:0.75px;}.cls-3{stroke-dasharray:12 6;}.cls-4{stroke-width:0.3px;}.cls-5{stroke-width:0;}.cls-6{stroke-width:1.5px;}.cls-11,.cls-8{font-size:12px;font-family:ArialMT, Arial;}.cls-11,.cls-9{letter-spacing:-0.06em;}</style></defs><g id="LINE"><g id="LINE-2" data-name="LINE"><line class="cls-1" x1="319.82" y1="283.77" x2="438.08" y2="215.5"/><polygon class="cls-2" points="322.19 284.92 314.06 287.1 320.01 281.14 322.19 284.92"/><polygon class="cls-2" points="437.88 218.13 443.83 212.18 435.7 214.35 437.88 218.13"/></g></g><g id="LINE-3" data-name="LINE"><g id="LINE-4" data-name="LINE"><line class="cls-1" x1="190.05" y1="383.67" x2="438.08" y2="240.47"/><polygon class="cls-2" points="192.43 384.81 184.3 386.99 190.25 381.04 192.43 384.81"/><polygon class="cls-2" points="437.88 243.1 443.83 237.15 435.7 239.32 437.88 243.1"/></g></g><g id="LINE-5" data-name="LINE"><g id="LINE-6" data-name="LINE"><line class="cls-1" x1="46.25" y1="306.86" x2="178.55" y2="383.65"/><polygon class="cls-2" points="46.44 309.49 40.51 303.52 48.63 305.72 46.44 309.49"/><polygon class="cls-2" points="176.17 384.79 184.3 386.99 178.36 381.02 176.17 384.79"/></g></g><g id="LINE-7" data-name="LINE"><line class="cls-3" x1="314.06" y1="263.86" x2="314.06" y2="251.92"/><line class="cls-3" x1="314.06" y1="239.86" x2="314.06" y2="227.92"/><line class="cls-3" x1="314.06" y1="215.86" x2="314.06" y2="203.92"/><line class="cls-3" x1="314.06" y1="191.86" x2="314.06" y2="179.92"/></g><g id="LINE-8" data-name="LINE"><line class="cls-3" x1="314.04" y1="263.87" x2="303.7" y2="257.91"/><line class="cls-3" x1="293.25" y1="251.87" x2="282.91" y2="245.91"/><line class="cls-3" x1="272.47" y1="239.87" x2="262.13" y2="233.91"/><line class="cls-3" x1="251.68" y1="227.87" x2="241.34" y2="221.91"/><line class="cls-3" x1="230.9" y1="215.87" x2="220.56" y2="209.91"/><line class="cls-3" x1="210.11" y1="203.87" x2="199.78" y2="197.91"/><line class="cls-3" x1="189.33" y1="191.87" x2="178.99" y2="185.91"/><line class="cls-3" x1="168.54" y1="179.87" x2="158.21" y2="173.91"/><line class="cls-3" x1="147.76" y1="167.87" x2="138.23" y2="162.37"/></g><g id="LINE-9" data-name="LINE"><g id="LINE-10" data-name="LINE"><line class="cls-1" x1="311.67" y1="768.77" x2="429.93" y2="700.5"/><polygon class="cls-2" points="314.05 769.92 305.92 772.1 311.87 766.14 314.05 769.92"/><polygon class="cls-2" points="429.73 703.13 435.69 697.17 427.56 699.35 429.73 703.13"/></g></g><g id="LINE-11" data-name="LINE"><line class="cls-4" x1="435.69" y1="677.34" x2="435.69" y2="696.68"/></g><g id="LINE-12" data-name="LINE"><g id="LINE-13" data-name="LINE"><line class="cls-1" x1="181.91" y1="868.66" x2="429.93" y2="725.47"/><polygon class="cls-2" points="184.28 869.81 176.15 871.99 182.1 866.03 184.28 869.81"/><polygon class="cls-2" points="429.73 728.1 435.69 722.14 427.56 724.32 429.73 728.1"/></g></g><g id="LINE-14" data-name="LINE"><line class="cls-5" x1="176.15" y1="827.19" x2="176.15" y2="873.39"/></g><g id="LINE-15" data-name="LINE"><g id="LINE-16" data-name="LINE"><line class="cls-1" x1="38.11" y1="791.85" x2="170.41" y2="868.65"/><polygon class="cls-2" points="38.3 794.48 32.36 788.52 40.49 790.72 38.3 794.48"/><polygon class="cls-2" points="168.03 869.79 176.15 871.99 170.21 866.02 168.03 869.79"/></g></g><g id="LINE-17" data-name="LINE"><line class="cls-1" x1="314.06" y1="266.73" x2="314.06" y2="291.59"/></g><g id="LINE-18" data-name="LINE"><line class="cls-1" x1="443.83" y1="192.35" x2="443.83" y2="241.14"/></g><g id="LINE-19" data-name="LINE"><line class="cls-1" x1="184.3" y1="342.19" x2="184.3" y2="390.77"/></g><g id="LINE-20" data-name="LINE"><line class="cls-1" x1="40.51" y1="259.17" x2="40.51" y2="307.76"/></g><g id="LINE-21" data-name="LINE"><line class="cls-1" x1="305.92" y1="751.73" x2="305.92" y2="776.59"/></g><g id="LINE-22" data-name="LINE"><line class="cls-1" x1="435.69" y1="677.34" x2="435.69" y2="726.14"/></g><g id="LINE-23" data-name="LINE"><line class="cls-1" x1="176.15" y1="827.19" x2="176.15" y2="875.77"/></g><g id="LINE-24" data-name="LINE"><line class="cls-1" x1="32.36" y1="744.17" x2="32.36" y2="792.75"/></g><g id="LINE-25" data-name="LINE"><g id="LINE-26" data-name="LINE"><line class="cls-3" x1="305.92" y1="748.86" x2="305.92" y2="736.92"/><line class="cls-3" x1="305.92" y1="724.86" x2="305.92" y2="712.92"/><line class="cls-3" x1="305.92" y1="700.86" x2="305.92" y2="688.92"/><line class="cls-3" x1="305.92" y1="676.86" x2="305.92" y2="664.92"/></g></g><g id="LINE-27" data-name="LINE"><g id="LINE-28" data-name="LINE"><line class="cls-3" x1="305.89" y1="748.87" x2="295.55" y2="742.9"/><line class="cls-3" x1="285.11" y1="736.87" x2="274.77" y2="730.9"/><line class="cls-3" x1="264.32" y1="724.87" x2="253.98" y2="718.9"/><line class="cls-3" x1="243.54" y1="712.87" x2="233.2" y2="706.9"/><line class="cls-3" x1="222.75" y1="700.87" x2="212.42" y2="694.9"/><line class="cls-3" x1="201.97" y1="688.87" x2="191.63" y2="682.9"/><line class="cls-3" x1="181.18" y1="676.87" x2="170.85" y2="670.9"/><line class="cls-3" x1="160.4" y1="664.87" x2="150.06" y2="658.9"/><line class="cls-3" x1="139.62" y1="652.87" x2="130.09" y2="647.37"/></g></g><g id="LINE-29" data-name="LINE"><line class="cls-6" x1="252.08" y1="678.07" x2="183.9" y2="638.7"/></g><g id="LINE-30" data-name="LINE"><line class="cls-6" x1="252.08" y1="651.78" x2="252.08" y2="678.07"/></g><g id="LINE-31" data-name="LINE"><line class="cls-6" x1="183.9" y1="612.41" x2="252.08" y2="651.78"/></g><g id="LINE-32" data-name="LINE"><line class="cls-6" x1="183.9" y1="612.85" x2="183.9" y2="638.7"/></g><g id="LINE-33" data-name="LINE"><path class="cls-7" d="M197.91,116.91" transform="translate(-27.85 -31.55)"/></g><g id="LINE-34" data-name="LINE"><line class="cls-7" x1="314.06" y1="168.49" x2="138.21" y2="66.96"/></g><g id="LINE-35" data-name="LINE"><line class="cls-7" x1="40.51" y1="160.4" x2="299.63" y2="10.32"/></g><g id="LINE-36" data-name="LINE"><line class="cls-7" x1="170.07" y1="109.81" x2="194.9" y2="109.81"/></g><g id="LINE-37" data-name="LINE"><line class="cls-7" x1="194.9" y1="180.75" x2="194.9" y2="109.81"/></g><g id="LINE-38" data-name="LINE"><line class="cls-7" x1="170.07" y1="180.75" x2="194.9" y2="180.75"/></g><g id="LINE-39" data-name="LINE"><line class="cls-7" x1="299.63" y1="105.72" x2="361.21" y2="141.27"/></g><g id="LINE-40" data-name="LINE"><line class="cls-7" x1="299.63" y1="105.72" x2="299.63" y2="10.32"/></g><g id="LINE-41" data-name="LINE"><line class="cls-7" x1="443.83" y1="188.97" x2="443.83" y2="93.57"/></g><g id="LINE-42" data-name="LINE"><line class="cls-7" x1="443.83" y1="93.57" x2="282.51" y2="0.43"/></g><g id="LINE-43" data-name="LINE"><path class="cls-7" d="M335.74,200" transform="translate(-27.85 -31.55)"/><path class="cls-7" d="M341.91,200" transform="translate(-27.85 -31.55)"/></g><g id="LINE-44" data-name="LINE"><line class="cls-7" x1="8.64" y1="142" x2="184.3" y2="243.41"/></g><g id="LINE-45" data-name="LINE"><line class="cls-7" x1="184.3" y1="243.41" x2="443.83" y2="93.57"/></g><g id="LINE-46" data-name="LINE"><line class="cls-7" x1="184.3" y1="338.81" x2="443.83" y2="188.97"/></g><g id="LINE-47" data-name="LINE"><line class="cls-7" x1="184.3" y1="338.81" x2="184.3" y2="243.41"/></g><g id="LINE-48" data-name="LINE"><line class="cls-7" x1="8.64" y1="237.4" x2="184.3" y2="338.81"/></g><g id="LINE-49" data-name="LINE"><path class="cls-7" d="M197.91,212.3" transform="translate(-27.85 -31.55)"/><path class="cls-7" d="M150.84,239.57" transform="translate(-27.85 -31.55)"/></g><g id="LINE-50" data-name="LINE"><path class="cls-7" d="M127.65,253" transform="translate(-27.85 -31.55)"/><path class="cls-7" d="M95.38,271.69" transform="translate(-27.85 -31.55)"/></g><g id="LINE-51" data-name="LINE"><path class="cls-7" d="M95.38,271.69" transform="translate(-27.85 -31.55)"/><path class="cls-7" d="M68.35,287.34" transform="translate(-27.85 -31.55)"/></g><g id="LINE-52" data-name="LINE"><path class="cls-7" d="M197.91,212.3" transform="translate(-27.85 -31.55)"/></g><g id="LINE-53" data-name="LINE"><line class="cls-7" x1="40.51" y1="255.79" x2="40.51" y2="160.4"/></g><g id="LINE-54" data-name="LINE"><line class="cls-7" x1="40.51" y1="255.79" x2="299.63" y2="105.72"/></g><g id="LINE-55" data-name="LINE"><path class="cls-7" d="M150.84,239.57" transform="translate(-27.85 -31.55)"/><path class="cls-7" d="M127.65,253" transform="translate(-27.85 -31.55)"/></g><g id="LINE-56" data-name="LINE"><line class="cls-7" x1="361.21" y1="141.27" x2="443.83" y2="188.97"/></g><g id="MTEXT"><text class="cls-8" transform="translate(410.3 347.26)"><tspan class="cls-9">A</tspan><tspan x="7.34" y="0" xml:space="preserve"> =</tspan></text></g><g id="MTEXT-2" data-name="MTEXT"><text class="cls-8" transform="translate(440.63 337.94)">a x b</text></g><g id="MTEXT-3" data-name="MTEXT"><text class="cls-8" transform="translate(440.97 390.4)">a x c</text></g><g id="MTEXT-4" data-name="MTEXT"><text class="cls-8" transform="translate(446.97 409)">10</text></g><g id="MTEXT-5" data-name="MTEXT"><text class="cls-8" transform="translate(410.28 399.94)">B =</text></g><g id="MTEXT-6" data-name="MTEXT"><text class="cls-8" transform="translate(480.16 399.94)">m</text><text class="cls-8" transform="translate(490.16 395.94) scale(0.58)">2</text></g><g id="MTEXT-7" data-name="MTEXT"><text class="cls-8" transform="translate(480.16 347.26)">m</text><text class="cls-8" transform="translate(490.16 343.27) scale(0.58)">2</text></g><g id="MTEXT-8" data-name="MTEXT"><text class="cls-8" transform="translate(446.97 355.49)">10</text></g><line class="cls-10" x1="437.14" y1="342.65" x2="470.14" y2="342.65"/><line class="cls-10" x1="437.14" y1="395.5" x2="470.14" y2="395.5"/><g id="MTEXT-9" data-name="MTEXT"><text class="cls-8" transform="translate(179.34 146.1)">B</text></g><g id="MTEXT-10" data-name="MTEXT"><text class="cls-8" transform="translate(107.77 337.74) rotate(30.88)">a</text></g><g id="MTEXT-11" data-name="MTEXT"><text class="cls-8" transform="matrix(0.85, -0.53, 0.53, 0.85, 305.62, 313.17)">b</text></g><g id="MTEXT-12" data-name="MTEXT"><text class="cls-8" transform="matrix(0.85, -0.53, 0.53, 0.85, 369.53, 251.66)">c</text></g><g id="MTEXT-13" data-name="MTEXT"><text class="cls-8" transform="translate(207.06 278.25) rotate(-30)">Room<tspan class="cls-9" x="32.01" y="0" xml:space="preserve"> A</tspan></text></g><g id="MTEXT-14" data-name="MTEXT"><text class="cls-8" transform="translate(330.03 207.2) rotate(-30)">Room B</text></g><g id="MTEXT-15" data-name="MTEXT"><text class="cls-11" transform="translate(113.39 254.79)">A</text></g><g id="MTEXT-16" data-name="MTEXT"><text class="cls-8" transform="translate(98.63 818.74) rotate(30.88)">a</text></g><g id="MTEXT-17" data-name="MTEXT"><text class="cls-8" transform="matrix(0.85, -0.53, 0.53, 0.85, 296.47, 794.17)">b</text></g><g id="MTEXT-18" data-name="MTEXT"><text class="cls-8" transform="matrix(0.85, -0.53, 0.53, 0.85, 360.38, 732.67)">c</text></g><g id="MTEXT-19" data-name="MTEXT"><text class="cls-8" transform="translate(197.91 759.25) rotate(-30)">Room<tspan class="cls-9" x="32.01" y="0" xml:space="preserve"> A</tspan></text></g><g id="MTEXT-20" data-name="MTEXT"><text class="cls-8" transform="translate(320.89 688.2) rotate(-30)">Room B</text></g><g id="MTEXT-21" data-name="MTEXT"><text class="cls-8" transform="translate(215.37 649.44)">B</text></g><g id="MTEXT-22" data-name="MTEXT"><text class="cls-11" transform="translate(98.66 735.79)">A</text></g><g id="LINE-57" data-name="LINE"><line class="cls-12" x1="161.92" y1="570.36" x2="161.92" y2="665.75"/></g><g id="LINE-58" data-name="LINE"><line class="cls-12" x1="32.36" y1="645.39" x2="291.49" y2="495.32"/></g><g id="LINE-59" data-name="LINE"><line class="cls-12" x1="291.49" y1="590.71" x2="291.49" y2="495.32"/></g><g id="LINE-60" data-name="LINE"><line class="cls-12" x1="435.69" y1="673.97" x2="435.69" y2="578.57"/></g><g id="LINE-61" data-name="LINE"><line class="cls-12" x1="435.69" y1="578.57" x2="274.36" y2="485.43"/></g><g id="LINE-62" data-name="LINE"><line class="cls-12" x1="0.5" y1="627" x2="176.15" y2="728.41"/></g><g id="LINE-63" data-name="LINE"><line class="cls-12" x1="176.15" y1="728.41" x2="435.69" y2="578.57"/></g><g id="LINE-64" data-name="LINE"><line class="cls-12" x1="176.15" y1="823.81" x2="435.69" y2="673.97"/></g><g id="LINE-65" data-name="LINE"><line class="cls-12" x1="176.15" y1="823.81" x2="176.15" y2="728.41"/></g><g id="LINE-66" data-name="LINE"><line class="cls-12" x1="0.5" y1="722.4" x2="176.15" y2="823.81"/></g><g id="LINE-67" data-name="LINE"><line class="cls-12" x1="32.36" y1="740.79" x2="32.36" y2="645.39"/></g><g id="LINE-68" data-name="LINE"><line class="cls-12" x1="32.36" y1="741.17" x2="291.49" y2="590.71"/></g><g id="LINE-69" data-name="LINE"><line class="cls-12" x1="291.49" y1="590.71" x2="435.69" y2="673.97"/></g><g id="LINE-70" data-name="LINE"><line class="cls-12" x1="305.92" y1="653.49" x2="130.06" y2="551.96"/></g><g id="MTEXT-23" data-name="MTEXT"><text class="cls-8" transform="translate(410.3 828.29)"><tspan class="cls-9">A</tspan><tspan x="7.34" y="0" xml:space="preserve"> =</tspan></text></g><g id="MTEXT-24" data-name="MTEXT"><text class="cls-8" transform="translate(440.63 818.97)">a x b</text></g><g id="MTEXT-25" data-name="MTEXT"><text class="cls-8" transform="translate(440.97 871.43)">a x c</text></g><g id="MTEXT-26" data-name="MTEXT"><text class="cls-8" transform="translate(446.97 890.03)">10</text></g><g id="MTEXT-27" data-name="MTEXT"><text class="cls-8" transform="translate(410.28 880.97)">B =</text></g><g id="MTEXT-28" data-name="MTEXT"><text class="cls-8" transform="translate(480.16 880.97)">m</text><text class="cls-8" transform="translate(490.16 876.97) scale(0.58)">2</text></g><g id="MTEXT-29" data-name="MTEXT"><text class="cls-8" transform="translate(480.16 828.29)">m</text><text class="cls-8" transform="translate(490.16 824.3) scale(0.58)">2</text></g><g id="MTEXT-30" data-name="MTEXT"><text class="cls-8" transform="translate(446.97 836.52)">10</text></g><line class="cls-10" x1="437.14" y1="823.68" x2="470.14" y2="823.68"/><line class="cls-10" x1="437.14" y1="876.53" x2="470.14" y2="876.53"/><g id="LINE-71" data-name="LINE"><line class="cls-6" x1="172.48" y1="790.42" x2="36.04" y2="711.65"/></g><g id="LINE-72" data-name="LINE"><line class="cls-6" x1="172.48" y1="753.11" x2="172.48" y2="790.42"/></g><g id="LINE-73" data-name="LINE"><line class="cls-6" x1="36.04" y1="674.34" x2="172.48" y2="753.11"/></g><g id="LINE-74" data-name="LINE"><line class="cls-6" x1="36.04" y1="674.34" x2="36.04" y2="711.65"/></g><line class="cls-6" x1="180.62" y1="305.43" x2="44.18" y2="226.65"/><line class="cls-6" x1="180.62" y1="268.11" x2="180.62" y2="305.43"/><line class="cls-6" x1="44.18" y1="189.34" x2="180.62" y2="268.11"/><line class="cls-6" x1="44.18" y1="189.34" x2="44.18" y2="226.65"/><g id="LINE-75" data-name="LINE"><line class="cls-6" x1="170.07" y1="85.36" x2="170.07" y2="180.75"/></g><g id="LINE-76" data-name="LINE"><polyline class="cls-6" points="202.88 199.7 202.88 104.3 170.07 85.36"/></g><line class="cls-6" x1="202.88" y1="199.7" x2="170.07" y2="180.75"/></svg>