<?xml version="1.0" encoding="utf-8"?>
<!-- Generator: Adobe Illustrator 25.2.1, SVG Export Plug-In . SVG Version: 6.00 Build 0)  -->
<svg version="1.1" xmlns="http://www.w3.org/2000/svg" xmlns:xlink="http://www.w3.org/1999/xlink" x="0px" y="0px"
	 viewBox="0 0 552.8 716.3" style="enable-background:new 0 0 552.8 716.3;" xml:space="preserve">
<style type="text/css">
	.st0{display:none;}
	.st1{font-family:'Arial-ItalicMT';}
	.st2{font-size:12px;}
	.st3{font-family:'ArialMT';}
	.st4{font-family:'Arial-BoldMT';}
	.st5{fill:none;stroke:#000000;stroke-width:0.25;stroke-miterlimit:10;}
	.st6{fill:none;stroke:#000000;stroke-width:0.75;stroke-miterlimit:10;}
	.st7{fill:none;stroke:#000000;stroke-width:0.75;stroke-linejoin:bevel;stroke-miterlimit:10;}
	.st8{fill:none;stroke:#000000;stroke-width:1.5;stroke-miterlimit:10;}
	.st9{fill:none;stroke:#000000;stroke-miterlimit:10;}
	.st10{fill:none;stroke:#000000;stroke-linecap:round;stroke-miterlimit:10;}
	.st11{fill:none;stroke:#000000;stroke-miterlimit:10;stroke-dasharray:6,6;}
	.st12{fill:none;stroke:#000000;stroke-width:0.75;stroke-linejoin:round;stroke-miterlimit:10;}
	.st13{fill:none;}
</style>
<g id="Trace" class="st0">
</g>
<g id="Layer_2">
	<text transform="matrix(1 0 0 1 37.8381 424.0176)"><tspan x="0" y="0" class="st1 st2">Non-combustible </tspan><tspan x="0" y="14.4" class="st3 st2">roofing</tspan></text>
	<g>
		<g>
			<text transform="matrix(1 0 0 1 59.9927 368.1667)" class="st4 st2">(a) Gable construction</text>
		</g>
		<g>
			<text transform="matrix(1 0 0 1 318.9976 368.1669)" class="st4 st2">(b) Gutter on face of wall</text>
		</g>
		<g>
			<text transform="matrix(1 0 0 1 56.3394 684.3336)" class="st4 st2">(c) Gutter on top of wall</text>
		</g>
		<g>
			<text transform="matrix(1 0 0 1 324.6551 684.3334)" class="st4 st2">(d) Eaves construction</text>
		</g>
	</g>
	<text transform="matrix(1 0 0 1 420.5049 463.0176)"><tspan x="0" y="0" class="st1 st2">Non-combustible </tspan><tspan x="0" y="14.4" class="st3 st2">roofing</tspan></text>
	<text transform="matrix(1 0 0 1 287.8379 135.3509)"><tspan x="0" y="0" class="st1 st2">Non-combustible </tspan><tspan x="0" y="14.4" class="st3 st2">roofing</tspan></text>
	<text transform="matrix(1 0 0 1 29.1713 38.6842)"><tspan x="0" y="0" class="st1 st2">Non-combustible </tspan><tspan x="0" y="14.4" class="st3 st2">roofing and </tspan><tspan x="63.4" y="14.4" class="st1 st2">flashing</tspan></text>
	<text transform="matrix(1 0 0 1 420.5046 505.0176)"><tspan x="0" y="0" class="st1 st2">Non-combustible </tspan><tspan x="0" y="14.4" class="st3 st2">fascia and gutter</tspan></text>
	<text transform="matrix(1 0 0 1 37.838 466.0176)"><tspan x="0" y="0" class="st1 st2">Non-combustible </tspan><tspan x="0" y="14.4" class="st3 st2">gutter and</tspan><tspan x="54" y="14.4" class="st1 st2"> flashing </tspan><tspan x="0" y="28.8" class="st3 st2">(position and shape </tspan><tspan x="0" y="43.2" class="st3 st2">indicative only)</tspan></text>
	<text transform="matrix(1 0 0 1 420.5048 635.0176)"><tspan x="0" y="0" class="st1 st2">Non-combustible </tspan><tspan x="0" y="14.4" class="st1 st2">eaves</tspan><tspan x="32" y="14.4" class="st3 st2"> lining</tspan></text>
	<text transform="matrix(1 0 0 1 262.1958 178.4661)"><tspan x="0" y="0" class="st1 st2">Non-combustible </tspan><tspan x="0" y="14.4" class="st3 st2">fascia and  </tspan><tspan x="0" y="28.8" class="st3 st2">gutter</tspan></text>
	<text transform="matrix(1 0 0 1 28.838 135.3508)"><tspan x="0" y="0" class="st3 st2">Roofing </tspan><tspan x="0" y="14.4" class="st3 st2">batten</tspan></text>
	<g>
		<g>
			<g>
				<g>
					<polyline class="st5" points="79.7,435 158.3,435 186.8,484.9 					"/>
					<g>
						<polygon points="183.3,484.6 191.2,492.6 188.4,481.7 						"/>
					</g>
				</g>
			</g>
		</g>
	</g>
	<g>
		<g>
			<g>
				<g>
					<polyline class="st5" points="417.5,473.7 411.7,473.7 382.8,506.5 					"/>
					<g>
						<polygon points="381.9,503.1 376.9,513.2 386.3,507 						"/>
					</g>
				</g>
			</g>
		</g>
	</g>
	<g>
		<g>
			<g>
				<g>
					<polyline class="st5" points="419.7,630.3 411.7,630.3 407,611.7 					"/>
					<g>
						<polygon points="410.3,612.9 404.9,603.1 404.7,614.3 						"/>
					</g>
				</g>
			</g>
		</g>
	</g>
	<g>
		<g>
			<g>
				<g>
					<polyline class="st5" points="35.5,505 29.2,505 29.2,538.3 75.9,564.1 					"/>
					<g>
						<polygon points="72.8,565.7 83.7,568.3 75.6,560.6 						"/>
					</g>
				</g>
			</g>
		</g>
	</g>
	<g>
		<g>
			<g>
				<g>
					<line class="st5" x1="29.2" y1="538.3" x2="78.1" y2="546.4"/>
					<g>
						<polygon points="75.7,549 86.9,547.9 76.6,543.2 						"/>
					</g>
				</g>
			</g>
		</g>
	</g>
	<g>
		<g>
			<g>
				<g>
					<polyline class="st5" points="512.5,516 524.4,516 524.4,585 510.6,578.9 					"/>
					<g>
						<polygon points="513.6,577.1 502.5,575.3 511.2,582.4 						"/>
					</g>
				</g>
			</g>
		</g>
	</g>
	<g>
		<g>
			<g>
				<g>
					<line class="st5" x1="490.5" y1="595.2" x2="524.4" y2="585"/>
					<g>
						<polygon points="493.2,597.5 482,597.8 491.5,591.9 						"/>
					</g>
				</g>
			</g>
		</g>
	</g>
	<g>
		<g>
			<g>
				<g>
					<polyline class="st5" points="67,146.5 78,146.5 85.2,112.3 					"/>
					<g>
						<polygon points="87.6,114.9 87,103.7 81.9,113.7 						"/>
					</g>
				</g>
			</g>
		</g>
	</g>
	<g>
		<g>
			<g>
				<g>
					<polyline class="st5" points="138.5,49.5 157,49.5 144.8,78.5 					"/>
					<g>
						<polygon points="142.9,75.5 141.4,86.7 148.3,77.8 						"/>
					</g>
				</g>
			</g>
		</g>
	</g>
	<g>
		<g>
			<g>
				<g>
					<line class="st5" x1="157" y1="49.5" x2="172.1" y2="76.3"/>
					<g>
						<polygon points="168.6,76 176.5,84 173.7,73.1 						"/>
					</g>
				</g>
			</g>
		</g>
	</g>
	<g>
		<g>
			<g>
				<g>
					<polyline class="st5" points="276.5,209 276.5,239 332.8,234.2 					"/>
					<g>
						<polygon points="331.1,237.3 341.7,233.4 330.6,231.5 						"/>
					</g>
				</g>
			</g>
		</g>
	</g>
	<g>
		<g>
			<g>
				<g>
					<line class="st5" x1="276.5" y1="239" x2="357.7" y2="257.3"/>
					<g>
						<polygon points="355.1,259.7 366.4,259.3 356.4,254.1 						"/>
					</g>
				</g>
			</g>
		</g>
	</g>
	<g>
		<g>
			<polyline class="st5" points="433,288.5 381,288.5 381,236.3 			"/>
		</g>
	</g>
	<g>
		<g>
			<g>
				<g>
					<polyline class="st5" points="328.5,146.5 346,146.5 416.3,184.6 					"/>
					<g>
						<polygon points="413.1,186.2 424.1,188.8 415.9,181.1 						"/>
					</g>
				</g>
			</g>
		</g>
	</g>
	<polyline class="st6" points="370,330 396.7,330 400.9,326 400.9,334 405,330 430.8,330 	"/>
	<g>
		<polyline class="st7" points="103.1,347.5 141.6,347.5 145.8,343.5 145.8,351.5 149.9,347.5 188.4,347.5 		"/>
		<polyline class="st7" points="33.5,106 33.5,97.4 30.7,95.3 36.3,95.3 33.5,93.3 33.5,84 		"/>
		<polyline class="st7" points="520.4,247 520.4,244.7 520.4,204.9 516.4,200.7 524.4,200.7 520.4,196.5 520.4,139.2 		"/>
		<polyline class="st7" points="370,330 396.7,330 400.9,326 400.9,334 405,330 430.8,330 		"/>
		<polyline class="st7" points="351,642.5 367.9,642.5 372,638.5 372,646.5 376.2,642.5 402,642.5 		"/>
		<polyline class="st7" points="83.7,661.3 114.1,661.3 118.3,657.3 118.3,665.3 122.4,661.3 148,661.3 		"/>
		<polyline class="st7" points="237.1,469.6 237.1,528.9 241.1,533 233.1,533 237.1,537.2 237.1,579.4 		"/>
		<polyline class="st7" points="284,468 284,515.7 288,519.9 280,519.9 284,524 284,554.3 		"/>
	</g>
	<polyline class="st8" points="146,522.8 116.8,536.7 116.8,566 83.7,566 83.7,574.2 	"/>
	<g>
		<polyline class="st9" points="237.1,491 119.3,545.3 119.3,575.3 237.1,575.3 		"/>
		<polyline class="st9" points="237.1,524.5 176,552.3 237.1,552.3 		"/>
		<polyline class="st9" points="237.1,471 101.7,534.7 104.3,540 237.1,478.3 		"/>
		<polyline class="st9" points="87.3,661.3 87.3,568.3 113.3,568.3 113.3,661.3 		"/>
		<line class="st9" x1="124.7" y1="575.3" x2="124.7" y2="661.3"/>
		<line class="st9" x1="144.2" y1="575" x2="144.2" y2="661"/>
	</g>
	<line class="st9" x1="182.4" y1="503.7" x2="187.1" y2="514.1"/>
	<line class="st9" x1="197.4" y1="497" x2="202.1" y2="507.3"/>
	<polyline class="st9" points="129.9,540.5 126.8,534 141.3,527.2 144.2,533.2 	"/>
	<g>
		<line class="st6" x1="197.4" y1="497" x2="187.1" y2="514.1"/>
		<line class="st6" x1="183.3" y1="503.3" x2="202.1" y2="507.3"/>
	</g>
	<g>
		<line class="st6" x1="126.8" y1="534" x2="144.2" y2="533.8"/>
		<line class="st6" x1="129.9" y1="540.5" x2="141.3" y2="527.2"/>
	</g>
	<g>
		<line class="st9" x1="87.3" y1="586.2" x2="113.3" y2="586.2"/>
		<line class="st9" x1="87.3" y1="588.5" x2="113.3" y2="588.5"/>
		<line class="st9" x1="87.3" y1="602.8" x2="113.3" y2="602.8"/>
		<line class="st9" x1="87.3" y1="605.1" x2="113.3" y2="605.1"/>
		<line class="st9" x1="87.3" y1="619.3" x2="113.3" y2="619.3"/>
		<line class="st9" x1="87.3" y1="621.7" x2="113.3" y2="621.7"/>
		<line class="st9" x1="87.3" y1="636" x2="113.3" y2="636"/>
		<line class="st9" x1="87.3" y1="638.3" x2="113.3" y2="638.3"/>
		<line class="st9" x1="87.3" y1="653" x2="113.3" y2="653"/>
		<line class="st9" x1="87.3" y1="655.3" x2="113.3" y2="655.3"/>
	</g>
	<polyline class="st9" points="284,512.3 321.5,529.2 284,529.2 	"/>
	<polyline class="st9" points="284,469.6 489.2,566.5 486.8,571.5 284,475.5 	"/>
	<polyline class="st9" points="284,482.5 476.5,572.8 476.5,569 480.8,568.6 	"/>
	<polyline class="st9" points="476.8,603.7 476.8,606.5 482,606.5 482,569.2 	"/>
	<line class="st9" x1="476.5" y1="572.8" x2="476.5" y2="601.2"/>
	<line class="st9" x1="293.5" y1="480" x2="290.4" y2="485.5"/>
	<line class="st9" x1="341.3" y1="502.3" x2="338.2" y2="507.8"/>
	<line class="st9" x1="353.5" y1="508.6" x2="350.5" y2="514.1"/>
	<line class="st9" x1="400.1" y1="530.7" x2="397.4" y2="535.4"/>
	<line class="st9" x1="412.7" y1="536.2" x2="409.6" y2="541.7"/>
	<line class="st9" x1="460.1" y1="558.5" x2="457.2" y2="564.1"/>
	<line class="st9" x1="472.5" y1="564.3" x2="469.7" y2="569.9"/>
	<g>
		<line class="st6" x1="459.7" y1="559.2" x2="470.1" y2="569.2"/>
		<line class="st6" x1="458.2" y1="564.2" x2="472.5" y2="564.3"/>
	</g>
	<g>
		<line class="st6" x1="400.1" y1="530.7" x2="410" y2="541.3"/>
		<line class="st6" x1="397.6" y1="535.4" x2="412.5" y2="536.7"/>
	</g>
	<g>
		<line class="st6" x1="341.1" y1="502.8" x2="350.7" y2="513.5"/>
		<line class="st6" x1="338.3" y1="507.7" x2="353.5" y2="508.8"/>
	</g>
	<g>
		<line class="st6" x1="284" y1="477.5" x2="290.4" y2="485.5"/>
		<line class="st6" x1="293.1" y1="480.6" x2="284" y2="480.1"/>
	</g>
	<path class="st8" d="M484,571.5v10c0,0-0.2,2,2.4,2.2s9.7,0,9.7,0s3.7-0.1,5.2-4.8c1.5-4.6,1.2-7.5,1.2-7.5"/>
	<rect x="387.4" y="548.5" class="st9" width="8.6" height="49.6"/>
	<line class="st9" x1="396" y1="598.1" x2="396" y2="601.2"/>
	<line class="st9" x1="387.4" y1="598.1" x2="387.4" y2="603.1"/>
	<polyline class="st9" points="399.6,603 478.8,603 478.8,601.2 387.4,601.2 	"/>
	<polyline class="st9" points="378.8,642.5 378.8,603 399.8,603 399.8,642.5 	"/>
	<g>
		<line class="st9" x1="378.8" y1="616" x2="399.8" y2="616"/>
		<line class="st9" x1="378.8" y1="618.6" x2="399.8" y2="618.6"/>
		<line class="st9" x1="378.8" y1="630" x2="399.8" y2="630"/>
		<line class="st9" x1="378.8" y1="632.6" x2="399.8" y2="632.6"/>
	</g>
	<polyline class="st9" points="284,552 370.2,552 387.4,560.5 	"/>
	<line class="st9" x1="396" y1="564.2" x2="474.2" y2="601.2"/>
	<line class="st9" x1="353.5" y1="552" x2="353.5" y2="642.5"/>
	<line class="st10" x1="369" y1="552" x2="369" y2="640.8"/>
	<line class="st9" x1="105.7" y1="347.5" x2="105.7" y2="268.3"/>
	<polyline class="st9" points="32,268.3 95.7,268.3 138.5,268.3 138.5,347.5 	"/>
	<line class="st9" x1="95.7" y1="268.3" x2="95.7" y2="103.7"/>
	<line class="st9" x1="104.7" y1="268.3" x2="104.7" y2="103.7"/>
	<line class="st9" x1="95.7" y1="148.5" x2="104.7" y2="148.5"/>
	<line class="st9" x1="95.7" y1="233.7" x2="104.7" y2="233.7"/>
	<polyline class="st9" points="33.5,103.7 186.3,103.7 186.3,86.7 33.5,86.7 	"/>
	<line class="st9" x1="33.5" y1="92.3" x2="186.3" y2="92.3"/>
	<polyline class="st8" points="159.3,89.7 161.3,84 189.7,84 189.7,126.3 	"/>
	<line class="st9" x1="186.3" y1="103.7" x2="186.3" y2="347.5"/>
	<line class="st9" x1="152.5" y1="103.7" x2="152.5" y2="347.5"/>
	<g>
		<line class="st9" x1="152.5" y1="120.3" x2="186.3" y2="120.3"/>
		<line class="st9" x1="152.5" y1="122.8" x2="186.3" y2="122.8"/>
		<line class="st9" x1="152.5" y1="144.1" x2="186.3" y2="144.1"/>
		<line class="st9" x1="152.5" y1="146.5" x2="186.3" y2="146.5"/>
		<line class="st9" x1="152.5" y1="168.5" x2="186.3" y2="168.5"/>
		<line class="st9" x1="152.5" y1="170.9" x2="186.3" y2="170.9"/>
		<line class="st9" x1="152.5" y1="191.9" x2="186.3" y2="191.9"/>
		<line class="st9" x1="152.5" y1="194.3" x2="186.3" y2="194.3"/>
		<line class="st9" x1="152.5" y1="215.6" x2="186.3" y2="215.6"/>
		<line class="st9" x1="152.5" y1="218" x2="186.3" y2="218"/>
		<line class="st9" x1="152.5" y1="240" x2="186.3" y2="240"/>
		<line class="st9" x1="152.5" y1="242.4" x2="186.3" y2="242.4"/>
		<line class="st9" x1="152.5" y1="263.4" x2="186.3" y2="263.4"/>
		<line class="st9" x1="152.5" y1="265.8" x2="186.3" y2="265.8"/>
		<line class="st9" x1="152.5" y1="286.4" x2="186.3" y2="286.4"/>
		<line class="st9" x1="152.5" y1="288.8" x2="186.3" y2="288.8"/>
		<line class="st9" x1="152.5" y1="310.8" x2="186.3" y2="310.8"/>
		<line class="st9" x1="152.5" y1="313.2" x2="186.3" y2="313.2"/>
		<line class="st9" x1="152.5" y1="334.2" x2="186.3" y2="334.2"/>
		<line class="st9" x1="152.5" y1="336.6" x2="186.3" y2="336.6"/>
	</g>
	<polyline class="st9" points="138.5,103.7 138.5,261.7 104.7,261.7 	"/>
	<polyline class="st9" points="520.4,144.1 354.7,221 358.2,227.3 520.4,151.3 	"/>
	<polyline class="st9" points="520.4,158.3 371.7,227.3 371.7,222.7 368,222.7 	"/>
	<polyline class="st10" points="371.7,330 371.7,236.3 397.3,236.3 397.3,329 	"/>
	<polyline class="st9" points="397.3,249.7 407.3,244.7 520.4,244.7 	"/>
	<polyline class="st9" points="520.4,193.1 458.9,221.7 520.4,221.7 	"/>
	<path class="st8" d="M364,227.2v14c0,0,0.3,2-2.9,2.2s-11.7,0-11.7,0s-4.4-0.1-6.3-4.8c-1.9-4.6-1.4-11.5-1.4-11.5s-0.1-1.8-2.1-1"
		/>
	<line class="st9" x1="371.7" y1="227.3" x2="371.7" y2="236.3"/>
	<polyline class="st10" points="366.4,224 366.4,266.1 371.3,266.1 	"/>
	<line class="st9" x1="409" y1="244.7" x2="409" y2="330"/>
	<line class="st9" x1="427.8" y1="244.7" x2="427.8" y2="330"/>
	<g>
		<line class="st10" x1="371.7" y1="270.2" x2="397.3" y2="270.2"/>
		<line class="st10" x1="371.7" y1="273.4" x2="397.3" y2="273.4"/>
		<line class="st10" x1="371.7" y1="253.9" x2="397.3" y2="253.9"/>
		<line class="st10" x1="371.7" y1="257" x2="397.3" y2="257"/>
		<line class="st10" x1="371.7" y1="287.2" x2="397.3" y2="287.2"/>
		<line class="st10" x1="371.7" y1="290.4" x2="397.3" y2="290.4"/>
		<line class="st10" x1="371.7" y1="303.4" x2="397.3" y2="303.4"/>
		<line class="st10" x1="371.7" y1="306.5" x2="397.3" y2="306.5"/>
		<line class="st10" x1="371.7" y1="320.4" x2="397.3" y2="320.4"/>
		<line class="st10" x1="371.7" y1="323.5" x2="397.3" y2="323.5"/>
	</g>
	<line class="st11" x1="371.7" y1="263.5" x2="397.3" y2="249.7"/>
	<line class="st11" x1="379.3" y1="217.4" x2="381.8" y2="222.7"/>
	<line class="st11" x1="393.6" y1="211.2" x2="396" y2="216.4"/>
	<line class="st11" x1="453.7" y1="183.1" x2="456.1" y2="188.3"/>
	<line class="st11" x1="467.9" y1="175.9" x2="470.4" y2="181.1"/>
	<g>
		<line class="st6" x1="456.1" y1="188.3" x2="467.9" y2="175.9"/>
		<line class="st6" x1="453.7" y1="183.1" x2="470.4" y2="181.1"/>
	</g>
	<g>
		<line class="st12" x1="381.8" y1="222.6" x2="393.6" y2="210.8"/>
		<line class="st12" x1="379.3" y1="217.4" x2="395.8" y2="215.9"/>
	</g>
	<polyline class="st8" points="87.3,533.2 87.3,562 113.3,562 113.3,546 	"/>
	<g>
		<path d="M170.6,103.7"/>
	</g>
	<g>
		<path d="M208,78.2"/>
	</g>
	<rect x="437.5" y="270" class="st13" width="118" height="77.5"/>
	<text transform="matrix(1 0 0 1 437.5401 278.6127)"><tspan x="0" y="0" class="st3 st2">Brickwork cut around </tspan><tspan x="0" y="14.4" class="st3 st2">truss or rafter.</tspan></text>
</g>
</svg>
