<?xml version="1.0" encoding="UTF-8"?>
<svg id="Drawing_Layer" data-name="Drawing Layer" xmlns="http://www.w3.org/2000/svg" viewBox="0 0 552.76 425.2">
  <defs>
    <style>
      .cls-1, .cls-2, .cls-3 {
        fill: #231f20;
      }

      .cls-1, .cls-3 {
        font-family: ArialMT, Arial;
        font-size: 12px;
      }

      .cls-4, .cls-5, .cls-6, .cls-7 {
        stroke: #231f20;
        stroke-miterlimit: 10;
      }

      .cls-4, .cls-5, .cls-7 {
        fill: none;
      }

      .cls-2 {
        stroke-width: 0px;
      }

      .cls-5 {
        stroke-width: .25px;
      }

      .cls-6 {
        fill: #fff;
      }

      .cls-7 {
        stroke-width: .5px;
      }

      .cls-3, .cls-8 {
        letter-spacing: -.04em;
      }
    </style>
  </defs>
  <polyline class="cls-4" points="87.77 351.98 254.87 351.98 254.87 70.46"/>
  <rect class="cls-4" x="134.27" y="227.79" width="84.14" height="22.17"/>
  <line class="cls-7" x1="176.34" y1="234.34" x2="176.34" y2="257.82"/>
  <g>
    <text class="cls-1" transform="translate(170.4 70.46)"><tspan x="0" y="0">C</tspan></text>
    <text class="cls-3" transform="translate(173.54 75.35)"><tspan x="0" y="0">L</tspan></text>
  </g>
  <g>
    <text class="cls-1" transform="translate(49.87 239.13)"><tspan x="0" y="0">C</tspan></text>
    <text class="cls-3" transform="translate(53.01 244.02)"><tspan x="0" y="0">L</tspan></text>
  </g>
  <g>
    <text class="cls-1" transform="translate(478.75 239.97)"><tspan x="0" y="0">C</tspan></text>
    <text class="cls-3" transform="translate(481.88 244.87)"><tspan x="0" y="0">L</tspan></text>
  </g>
  <line class="cls-7" x1="103.96" y1="238.88" x2="171.32" y2="238.88"/>
  <line class="cls-7" x1="180.37" y1="238.88" x2="189.69" y2="238.88"/>
  <line class="cls-7" x1="87.77" y1="238.88" x2="97.09" y2="238.88"/>
  <line class="cls-7" x1="198.51" y1="238.88" x2="254.87" y2="238.88"/>
  <line class="cls-7" x1="61.63" y1="238.88" x2="80.77" y2="238.88"/>
  <rect class="cls-4" x="327.29" y="227.79" width="84.14" height="22.17" transform="translate(738.73 477.76) rotate(-180)"/>
  <line class="cls-7" x1="421.54" y1="238.88" x2="374.38" y2="238.88"/>
  <line class="cls-7" x1="365.33" y1="238.88" x2="356.01" y2="238.88"/>
  <line class="cls-7" x1="347.2" y1="238.88" x2="290.83" y2="238.88"/>
  <line class="cls-7" x1="473.4" y1="238.88" x2="435.18" y2="238.88"/>
  <line class="cls-5" x1="134.27" y1="252.59" x2="134.27" y2="271.23"/>
  <polyline class="cls-5" points="61.88 351.98 71.2 351.98 80.52 351.98"/>
  <line class="cls-5" x1="111.21" y1="227.79" x2="92.57" y2="227.79"/>
  <line class="cls-5" x1="111.21" y1="249.59" x2="92.57" y2="249.59"/>
  <line class="cls-5" x1="134.27" y1="206.46" x2="134.27" y2="225.1"/>
  <line class="cls-5" x1="218.41" y1="206.46" x2="218.41" y2="225.1"/>
  <line class="cls-5" x1="218.41" y1="252.59" x2="218.41" y2="271.23"/>
  <g>
    <line class="cls-5" x1="143.13" y1="263.91" x2="209.55" y2="263.91"/>
    <polygon class="cls-2" points="145.11 266.82 134.27 263.91 145.11 261.01 145.11 266.82"/>
    <polygon class="cls-2" points="207.57 266.82 218.41 263.91 207.57 261.01 207.57 266.82"/>
  </g>
  <g>
    <line class="cls-5" x1="143.13" y1="215.78" x2="167.48" y2="215.78"/>
    <polygon class="cls-2" points="145.11 218.69 134.27 215.78 145.11 212.88 145.11 218.69"/>
    <polygon class="cls-2" points="165.5 218.69 176.34 215.78 165.5 212.88 165.5 218.69"/>
  </g>
  <g>
    <line class="cls-5" x1="101.89" y1="244.43" x2="101.89" y2="233.33"/>
    <polygon class="cls-2" points="103.7 243.19 101.89 249.96 100.07 243.19 103.7 243.19"/>
    <polygon class="cls-2" points="103.7 234.57 101.89 227.79 100.07 234.57 103.7 234.57"/>
  </g>
  <g>
    <line class="cls-5" x1="185.2" y1="215.78" x2="209.55" y2="215.78"/>
    <polygon class="cls-2" points="187.18 218.69 176.34 215.78 187.18 212.88 187.18 218.69"/>
    <polygon class="cls-2" points="207.57 218.69 218.41 215.78 207.57 212.88 207.57 218.69"/>
  </g>
  <text class="cls-1" transform="translate(22.32 222.45)"><tspan x="0" y="0">150 mm</tspan></text>
  <g>
    <line class="cls-5" x1="71.2" y1="343.12" x2="71.2" y2="247.74"/>
    <polygon class="cls-2" points="74.11 341.14 71.2 351.98 68.3 341.14 74.11 341.14"/>
    <polygon class="cls-2" points="74.11 249.72 71.2 238.88 68.3 249.72 74.11 249.72"/>
  </g>
  <text class="cls-1" transform="translate(68.1 337.11) rotate(-90)"><tspan x="0" y="0">800 to 810 mm</tspan></text>
  <polyline class="cls-5" points="450.9 351.98 460.22 351.98 469.55 351.98"/>
  <g>
    <line class="cls-5" x1="460.22" y1="343.12" x2="460.22" y2="247.74"/>
    <polygon class="cls-2" points="463.13 341.14 460.22 351.98 457.32 341.14 463.13 341.14"/>
    <polygon class="cls-2" points="463.13 249.72 460.22 238.88 457.32 249.72 463.13 249.72"/>
  </g>
  <text class="cls-1" transform="translate(473.4 339.2) rotate(-90)"><tspan x="0" y="0">800 to 810 mm</tspan></text>
  <text class="cls-1" transform="translate(153.04 273.55)"><tspan x="0" y="0">600 mm</tspan></text>
  <g>
    <line class="cls-5" x1="327.06" y1="204.65" x2="327.06" y2="223.29"/>
    <line class="cls-5" x1="411.2" y1="204.59" x2="411.2" y2="223.23"/>
    <g>
      <line class="cls-5" x1="402.34" y1="213.91" x2="335.92" y2="213.91"/>
      <polygon class="cls-2" points="400.36 211 411.2 213.91 400.36 216.81 400.36 211"/>
      <polygon class="cls-2" points="337.9 211 327.06 213.91 337.9 216.81 337.9 211"/>
    </g>
    <text class="cls-1" transform="translate(345.84 212.55)"><tspan x="0" y="0">600 mm</tspan></text>
  </g>
  <text class="cls-1" transform="translate(131.39 204.06)"><tspan x="0" y="0">300 mm</tspan></text>
  <text class="cls-1" transform="translate(177.37 204.06)"><tspan x="0" y="0">300 mm</tspan></text>
  <circle class="cls-4" cx="176.55" cy="94.89" r="6.78"/>
  <rect class="cls-6" x="172.78" y="92.69" width="7.54" height="12.91" rx="3.6" ry="3.6"/>
  <path class="cls-6" d="M161.43,111.13s4.23-10.49,14.91-10.49,15.33,8.7,15.33,10.49"/>
  <ellipse class="cls-6" cx="176.55" cy="111.13" rx="15.12" ry="4.05"/>
  <g>
    <line class="cls-7" x1="176.34" y1="120.97" x2="176.34" y2="132.14"/>
    <line class="cls-7" x1="176.34" y1="141.02" x2="176.34" y2="225.28"/>
    <line class="cls-7" x1="176.34" y1="77.41" x2="176.34" y2="111.22"/>
  </g>
  <text class="cls-1" transform="translate(73.7 97.52)"><tspan x="0" y="0">Shower rose</tspan></text>
  <g>
    <line class="cls-5" x1="160.91" y1="94.89" x2="146.98" y2="94.89"/>
    <polygon class="cls-2" points="158.93 91.98 169.77 94.89 158.93 97.79 158.93 91.98"/>
  </g>
  <text class="cls-1" transform="translate(360.69 109.15)"><tspan x="0" y="0">Shower rose</tspan></text>
  <g>
    <line class="cls-5" x1="358.61" y1="105.1" x2="344.68" y2="105.1"/>
    <polygon class="cls-2" points="346.66 102.19 335.82 105.1 346.66 108 346.66 102.19"/>
  </g>
  <text class="cls-1" transform="translate(122.43 366.09)"><tspan x="0" y="0">Right Far </tspan><tspan class="cls-8" x="52.68" y="0">W</tspan><tspan x="63.56" y="0">all</tspan></text>
  <polyline class="cls-5" points="69.01 218.93 74.67 218.93 101.89 239.52"/>
  <line class="cls-5" x1="417.09" y1="227.69" x2="435.73" y2="227.69"/>
  <line class="cls-5" x1="417.09" y1="250.34" x2="435.73" y2="250.34"/>
  <g>
    <line class="cls-5" x1="426.41" y1="244.8" x2="426.41" y2="233.23"/>
    <polygon class="cls-2" points="428.22 243.57 426.41 250.34 424.59 243.57 428.22 243.57"/>
    <polygon class="cls-2" points="428.22 234.47 426.41 227.69 424.59 234.47 428.22 234.47"/>
  </g>
  <text class="cls-1" transform="translate(459.28 222.6)"><tspan x="0" y="0">150 mm</tspan></text>
  <polyline class="cls-5" points="459.28 218.83 453.62 218.83 426.41 239.42"/>
  <polyline class="cls-4" points="290.83 70.46 290.83 351.98 447.43 351.98"/>
  <text class="cls-1" transform="translate(365.33 368.72)"><tspan x="0" y="0">Side wall</tspan></text>
  <g>
    <line class="cls-5" x1="299.69" y1="213.95" x2="318.2" y2="213.92"/>
    <polygon class="cls-2" points="301.68 216.85 290.83 213.97 301.67 211.04 301.68 216.85"/>
    <polygon class="cls-2" points="316.23 216.83 327.06 213.91 316.22 211.02 316.23 216.83"/>
  </g>
  <text class="cls-1" transform="translate(323.8 191.12)"><tspan x="0" y="0">250 mm</tspan></text>
  <polyline class="cls-5" points="308.95 213.91 308.95 187.2 323.8 187.2"/>
  <ellipse class="cls-4" cx="324.11" cy="112.8" rx="14.66" ry="1.79" transform="translate(-10.16 190.49) rotate(-32.27)"/>
  <path class="cls-4" d="M311.72,120.63s-3.76-3.86,9.75-12.26c13.12-8.16,15.05-3.4,15.05-3.4"/>
  <path class="cls-4" d="M320.49,108.99l-5.68-7.96s-2.13-1.88-4.9-2.76l-7.34-2.7h-11.74"/>
  <path class="cls-4" d="M323.16,107.12l-6.64-8.95s-2.26-1.8-5.18-2.65l-7.77-2.59h-12.42"/>
  <text class="cls-1" transform="translate(202.89 308.46)"><tspan x="0" y="0">Framing</tspan></text>
  <text class="cls-1" transform="translate(313.91 301.54)"><tspan x="0" y="0">Framing</tspan></text>
  <g>
    <line class="cls-5" x1="336.51" y1="258.67" x2="336.51" y2="292.65"/>
    <polygon class="cls-2" points="333.61 260.65 336.51 249.81 339.42 260.65 333.61 260.65"/>
  </g>
  <g>
    <polyline class="cls-5" points="227.27 244.87 239.61 244.87 239.61 299.43"/>
    <polygon class="cls-2" points="229.25 247.77 218.41 244.87 229.25 241.96 229.25 247.77"/>
  </g>
</svg>