<?xml version="1.0" encoding="UTF-8"?>
<svg id="Drawing_Layer" data-name="Drawing Layer" xmlns="http://www.w3.org/2000/svg" viewBox="0 0 552.76 425.2">
  <defs>
    <style>
      .cls-1, .cls-2, .cls-3, .cls-4, .cls-5, .cls-6, .cls-7 {
        fill: none;
        stroke: #231f20;
        stroke-miterlimit: 10;
      }

      .cls-2 {
        stroke-dasharray: 0 0 0 0 25.31 6.87 6.87 6.87;
      }

      .cls-2, .cls-4, .cls-5, .cls-6, .cls-7 {
        stroke-width: .5px;
      }

      .cls-3 {
        stroke-width: .25px;
      }

      .cls-4 {
        stroke-dasharray: 0 0 0 0 24.52 6.65 6.65 6.65;
      }

      .cls-5 {
        stroke-dasharray: 0 0 6.65 6.65;
      }

      .cls-8, .cls-9, .cls-10 {
        fill: #231f20;
      }

      .cls-8, .cls-10 {
        font-family: ArialMT, Arial;
        font-size: 12px;
      }

      .cls-6 {
        stroke-dasharray: 0 0 6.87 6.87;
      }

      .cls-9 {
        stroke-width: 0px;
      }

      .cls-10 {
        letter-spacing: -.04em;
      }
    </style>
  </defs>
  <line class="cls-1" x1="166.34" y1="366.48" x2="450.47" y2="366.48"/>
  <line class="cls-3" x1="209.9" y1="83.27" x2="209.9" y2="55.07"/>
  <line class="cls-3" x1="162.04" y1="193.58" x2="133.84" y2="193.58"/>
  <line class="cls-3" x1="162.04" y1="366.48" x2="133.84" y2="366.48"/>
  <line class="cls-3" x1="406.91" y1="83.27" x2="406.91" y2="55.07"/>
  <g>
    <line class="cls-3" x1="147.94" y1="202.43" x2="147.94" y2="357.62"/>
    <polygon class="cls-9" points="145.03 204.42 147.94 193.58 150.84 204.42 145.03 204.42"/>
    <polygon class="cls-9" points="145.03 355.64 147.94 366.48 150.84 355.64 145.03 355.64"/>
  </g>
  <g>
    <line class="cls-3" x1="218.76" y1="69.17" x2="398.19" y2="69.17"/>
    <polygon class="cls-9" points="220.74 72.08 209.9 69.17 220.74 66.27 220.74 72.08"/>
    <polygon class="cls-9" points="396.2 72.08 407.05 69.17 396.2 66.27 396.2 72.08"/>
  </g>
  <line class="cls-3" x1="209.9" y1="117.6" x2="209.9" y2="89.39"/>
  <g>
    <line class="cls-3" x1="218.76" y1="103.49" x2="299.55" y2="103.49"/>
    <polygon class="cls-9" points="220.74 106.4 209.9 103.49 220.74 100.59 220.74 106.4"/>
    <polygon class="cls-9" points="297.56 106.4 308.41 103.49 297.56 100.59 297.56 106.4"/>
  </g>
  <line class="cls-3" x1="407.11" y1="117.6" x2="407.11" y2="89.39"/>
  <g>
    <line class="cls-3" x1="398.26" y1="103.49" x2="317.47" y2="103.49"/>
    <polygon class="cls-9" points="396.27 100.59 407.11 103.49 396.27 106.4 396.27 100.59"/>
    <polygon class="cls-9" points="319.45 100.59 308.61 103.49 319.45 106.4 319.45 100.59"/>
  </g>
  <text class="cls-8" transform="translate(285.31 64.48)"><tspan x="0" y="0">1000 mm</tspan></text>
  <text class="cls-8" transform="translate(237.15 97.5)"><tspan x="0" y="0">500 mm</tspan></text>
  <text class="cls-8" transform="translate(338.24 97.5)"><tspan x="0" y="0">500 mm</tspan></text>
  <text class="cls-8" transform="translate(101.16 271.55)"><tspan x="0" y="0" xml:space="preserve">800  to </tspan><tspan x="0" y="15.97">810 mm</tspan></text>
  <g>
    <line class="cls-7" x1="308.41" y1="93.53" x2="308.41" y2="105.2"/>
    <line class="cls-6" x1="308.41" y1="112.07" x2="308.41" y2="122.36"/>
    <line class="cls-2" x1="308.41" y1="125.8" x2="308.41" y2="351.93"/>
    <line class="cls-7" x1="308.41" y1="355.36" x2="308.41" y2="367.03"/>
  </g>
  <g>
    <line class="cls-7" x1="185.96" y1="193.58" x2="197.63" y2="193.58"/>
    <line class="cls-5" x1="204.28" y1="193.58" x2="214.26" y2="193.58"/>
    <line class="cls-4" x1="217.58" y1="193.58" x2="392.12" y2="193.58"/>
    <line class="cls-7" x1="395.45" y1="193.58" x2="407.11" y2="193.58"/>
  </g>
  <text class="cls-8" transform="translate(430.31 147.48)"><tspan x="0" y="0">Framing</tspan></text>
  <g>
    <polyline class="cls-3" points="429.2 143.42 406.91 143.42 377.08 170.79"/>
    <polygon class="cls-9" points="376.57 167.31 370.55 176.77 380.5 171.59 376.57 167.31"/>
  </g>
  <text class="cls-8" transform="translate(429.75 259.08)"><tspan x="0" y="0">WC pan</tspan></text>
  <g>
    <polyline class="cls-3" points="428.64 255.02 390.35 255.02 335.71 283.56"/>
    <polygon class="cls-9" points="336.12 280.07 327.86 287.66 338.81 285.22 336.12 280.07"/>
  </g>
  <line class="cls-1" x1="281.46" y1="258.61" x2="335.75" y2="258.61"/>
  <path class="cls-1" d="m290.09,366.48s4.42-30.61,5.03-42.75c.9-17.89-18.63-14.38-23.59-55.19h74.15c-4.97,40.81-24.49,37.3-23.59,55.19.61,12.14,5.03,42.75,5.03,42.75"/>
  <path class="cls-1" d="m281.46,258.61c-9.49,9.94-9.93,9.94-9.93,9.94h73.69c.17,0,.26-.21.14-.33l-9.6-9.61h-54.29Z"/>
  <g>
    <text class="cls-8" transform="translate(303.09 86.82)"><tspan x="0" y="0">C</tspan></text>
    <text class="cls-10" transform="translate(305.2 89.39)"><tspan x="0" y="0">L</tspan></text>
  </g>
  <g>
    <text class="cls-8" transform="translate(171.11 196.36)"><tspan x="0" y="0">C</tspan></text>
    <text class="cls-10" transform="translate(173.22 198.93)"><tspan x="0" y="0">L</tspan></text>
  </g>
  <rect class="cls-1" x="209.9" y="176.77" width="98.51" height="33.6"/>
  <rect class="cls-1" x="308.61" y="176.77" width="98.51" height="33.6"/>
  <line class="cls-3" x1="439.67" y1="210.38" x2="413.09" y2="210.38"/>
  <line class="cls-3" x1="439.67" y1="176.77" x2="413.09" y2="176.77"/>
  <g>
    <line class="cls-3" x1="426.38" y1="185.63" x2="426.38" y2="201.52"/>
    <polygon class="cls-9" points="423.47 187.62 426.38 176.77 429.28 187.62 423.47 187.62"/>
    <polygon class="cls-9" points="423.47 199.54 426.38 210.38 429.28 199.54 423.47 199.54"/>
  </g>
  <text class="cls-8" transform="translate(439.67 197.1)"><tspan x="0" y="0">150 mm</tspan></text>
  <text class="cls-8" transform="translate(46.89 125.76)"><tspan x="0" y="0">Minimum extent of framing </tspan><tspan x="0" y="15.97">clear of any door frame, </tspan><tspan x="0" y="31.93">window or wall opening</tspan></text>
  <g>
    <polyline class="cls-3" points="174.09 152.88 253.02 152.88 253.02 167.91"/>
    <polygon class="cls-9" points="250.11 165.93 253.02 176.77 255.92 165.93 250.11 165.93"/>
  </g>
</svg>