<svg id="Drawing_Layer" data-name="Drawing Layer" xmlns="http://www.w3.org/2000/svg" viewBox="0 0 552.76 425.2"><defs><style>.cls-1,.cls-2,.cls-6{fill:none;}.cls-1,.cls-2,.cls-5,.cls-6{stroke:#231f20;stroke-miterlimit:10;}.cls-2{stroke-width:0.25px;}.cls-3,.cls-4{fill:#231f20;}.cls-4{font-size:12px;font-family:ArialMT, Arial;}.cls-5{fill:#fff;}.cls-6{stroke-width:0.75px;}</style></defs><polyline class="cls-1" points="103.39 364.98 255.45 364.98 255.45 75.61"/><polyline class="cls-2" points="81.04 292.74 90.62 292.74 100.2 292.74"/><polyline class="cls-2" points="81.31 364.98 90.89 364.98 100.47 364.98"/><polyline class="cls-2" points="61.76 364.98 71.34 364.98 80.92 364.98"/><polyline class="cls-2" points="103.39 315.35 103.39 305.76 103.39 296.18"/><polyline class="cls-2" points="61.2 93.76 70.78 93.76 80.36 93.76"/><line class="cls-2" x1="71.05" y1="356.12" x2="71.05" y2="102.62"/><polygon class="cls-3" points="73.96 354.14 71.05 364.98 68.15 354.14 73.96 354.14"/><polygon class="cls-3" points="73.96 104.6 71.05 93.76 68.15 104.6 73.96 104.6"/><line class="cls-2" x1="90.89" y1="356.12" x2="90.89" y2="301.6"/><polygon class="cls-3" points="93.8 354.14 90.89 364.98 87.99 354.14 93.8 354.14"/><polygon class="cls-3" points="93.8 303.58 90.89 292.74 87.99 303.58 93.8 303.58"/><line class="cls-2" x1="112.25" y1="305.76" x2="246.59" y2="305.76"/><polygon class="cls-3" points="114.23 308.67 103.39 305.76 114.23 302.86 114.23 308.67"/><polygon class="cls-3" points="244.6 308.67 255.45 305.76 244.6 302.86 244.6 308.67"/><text class="cls-4" transform="translate(92.95 338.86)">600 mm</text><circle class="cls-1" cx="174.95" cy="100.73" r="6.97"/><rect class="cls-5" x="171.07" y="98.46" width="7.75" height="13.27" rx="3.6"/><path class="cls-5" d="M159.41,117.41s4.35-10.78,15.32-10.78,15.76,8.94,15.76,10.78"/><text class="cls-4" transform="translate(47.78 68.58)">Shower rose</text><polyline class="cls-2" points="168.68 87.5 146.77 65.58 121.22 65.58"/><polygon class="cls-3" points="169.34 84.04 174.95 93.76 165.23 88.15 169.34 84.04"/><polyline class="cls-2" points="342.51 103.09 362.58 64.44 387.68 64.39"/><polygon class="cls-3" points="346 102.67 338.43 110.96 340.84 100 346 102.67"/><text class="cls-4" transform="translate(390.58 68.58)">Shower rose</text><polyline class="cls-1" points="292.42 75.61 292.42 364.98 444.53 364.98"/><text class="cls-4" transform="translate(12.76 193.25)">1850 mm</text><ellipse class="cls-1" cx="326.62" cy="119.14" rx="15.07" ry="1.84" transform="translate(-13.16 192.8) rotate(-32.27)"/><path class="cls-1" d="M313.88,127.19s-3.87-4,10-12.6c13.48-8.39,15.47-3.5,15.47-3.5"/><rect class="cls-1" x="103.39" y="93.76" width="152.06" height="198.98"/><line class="cls-6" x1="103.39" y1="113.01" x2="120.83" y2="93.76"/><line class="cls-6" x1="103.39" y1="165.25" x2="168.16" y2="93.76"/><line class="cls-6" x1="103.39" y1="216.94" x2="215.18" y2="93.76"/><line class="cls-6" x1="103.39" y1="268.63" x2="255.45" y2="100.8"/><line class="cls-6" x1="129.87" y1="292.74" x2="255.45" y2="154.14"/><line class="cls-6" x1="178.2" y1="292.74" x2="255.45" y2="207.48"/><line class="cls-6" x1="224.47" y1="292.81" x2="255.45" y2="258.62"/><rect class="cls-1" x="292.47" y="93.63" width="152.06" height="198.98"/><line class="cls-6" x1="292.47" y1="112.88" x2="309.91" y2="93.63"/><line class="cls-6" x1="292.47" y1="165.12" x2="357.24" y2="93.63"/><line class="cls-6" x1="292.47" y1="216.81" x2="404.27" y2="93.63"/><line class="cls-6" x1="292.47" y1="268.5" x2="444.53" y2="100.67"/><line class="cls-6" x1="318.95" y1="292.61" x2="444.53" y2="154.01"/><line class="cls-6" x1="367.28" y1="292.61" x2="444.53" y2="207.35"/><line class="cls-6" x1="413.55" y1="292.69" x2="444.53" y2="258.49"/><text class="cls-4" transform="translate(146.83 319.36)">900 mm</text><polyline class="cls-2" points="448.04 292.71 457.62 292.71 467.2 292.71"/><polyline class="cls-2" points="448.31 364.95 457.9 364.95 467.48 364.95"/><polyline class="cls-2" points="468.29 364.95 477.87 364.95 487.45 364.95"/><polyline class="cls-2" points="444.53 315.79 444.53 306.21 444.53 296.63"/><polyline class="cls-2" points="467.88 93.72 477.46 93.72 487.04 93.72"/><line class="cls-2" x1="477.74" y1="356.12" x2="477.74" y2="102.58"/><polygon class="cls-3" points="480.64 354.14 477.74 364.98 474.83 354.14 480.64 354.14"/><polygon class="cls-3" points="480.64 104.56 477.74 93.72 474.83 104.56 480.64 104.56"/><line class="cls-2" x1="457.9" y1="356.09" x2="457.9" y2="301.57"/><polygon class="cls-3" points="460.8 354.11 457.9 364.95 454.99 354.11 460.8 354.11"/><polygon class="cls-3" points="460.8 303.55 457.9 292.71 454.99 303.55 460.8 303.55"/><line class="cls-2" x1="435.67" y1="306.21" x2="301.27" y2="306.21"/><polygon class="cls-3" points="433.69 303.31 444.53 306.21 433.69 309.12 433.69 303.31"/><polygon class="cls-3" points="303.26 303.31 292.42 306.21 303.26 309.12 303.26 303.31"/><text class="cls-4" transform="translate(412.98 339)">600 mm</text><text class="cls-4" transform="translate(487.29 193.21)">1850 mm</text><text class="cls-4" transform="translate(361.01 319.36)">900 mm</text><ellipse class="cls-5" cx="174.95" cy="117.41" rx="15.54" ry="4.16"/><path class="cls-5" d="M292.42,101.43h12.06L312,104.2a16.06,16.06,0,0,1,5,2.84l5.84,8.18,2.74-1.92-6.83-9.2a17.05,17.05,0,0,0-5.32-2.72l-8-2.66-13.08,0v2.75"/></svg>