<svg id="Drawing_Layer" data-name="Drawing Layer" xmlns="http://www.w3.org/2000/svg" viewBox="0 0 552.76 425.2"><defs><style>.cls-1,.cls-2,.cls-5,.cls-6,.cls-7{fill:none;stroke:#231f20;stroke-miterlimit:10;}.cls-2{stroke-width:0.25px;}.cls-3,.cls-4,.cls-8{fill:#231f20;}.cls-4,.cls-8{font-size:12px;font-family:ArialMT, Arial;}.cls-5,.cls-6,.cls-7{stroke-width:0.5px;}.cls-6{stroke-dasharray:6.87 6.87;}.cls-7{stroke-dasharray:25.31 6.87 6.87 6.87;}.cls-8{letter-spacing:-0.04em;}</style></defs><line class="cls-1" x1="133.34" y1="371.48" x2="417.47" y2="371.48"/><line class="cls-2" x1="176.9" y1="88.27" x2="176.9" y2="60.07"/><line class="cls-2" x1="129.04" y1="125.44" x2="100.84" y2="125.44"/><line class="cls-2" x1="129.04" y1="371.48" x2="100.84" y2="371.48"/><line class="cls-2" x1="373.91" y1="88.27" x2="373.91" y2="60.07"/><line class="cls-2" x1="114.94" y1="134.3" x2="114.94" y2="362.62"/><polygon class="cls-3" points="112.03 136.28 114.94 125.44 117.84 136.28 112.03 136.28"/><polygon class="cls-3" points="112.03 360.64 114.94 371.48 117.84 360.64 112.03 360.64"/><line class="cls-2" x1="185.76" y1="74.17" x2="365.19" y2="74.17"/><polygon class="cls-3" points="187.74 77.08 176.9 74.17 187.74 71.27 187.74 77.08"/><polygon class="cls-3" points="363.2 77.08 374.05 74.17 363.2 71.27 363.2 77.08"/><line class="cls-2" x1="176.9" y1="122.6" x2="176.9" y2="94.39"/><line class="cls-2" x1="185.76" y1="108.49" x2="266.55" y2="108.49"/><polygon class="cls-3" points="187.74 111.4 176.9 108.49 187.74 105.59 187.74 111.4"/><polygon class="cls-3" points="264.56 111.4 275.4 108.49 264.56 105.59 264.56 111.4"/><line class="cls-2" x1="374.11" y1="122.6" x2="374.11" y2="94.39"/><line class="cls-2" x1="365.26" y1="108.49" x2="284.47" y2="108.49"/><polygon class="cls-3" points="363.27 105.59 374.12 108.49 363.27 111.4 363.27 105.59"/><polygon class="cls-3" points="286.45 105.59 275.61 108.49 286.45 111.4 286.45 105.59"/><text class="cls-4" transform="translate(252.31 69.48)">1000 mm</text><text class="cls-4" transform="translate(204.15 102.5)">500 mm</text><text class="cls-4" transform="translate(305.24 102.5)">500 mm</text><text class="cls-4" transform="translate(61.56 230.63)">1200 mm</text><rect class="cls-1" x="176.9" y="125.44" width="197.15" height="246.04"/><line class="cls-1" x1="176.9" y1="191.79" x2="242.85" y2="125.84"/><line class="cls-1" x1="176.9" y1="244.69" x2="295.75" y2="125.84"/><line class="cls-1" x1="176.9" y1="296.67" x2="347.73" y2="125.84"/><line class="cls-1" x1="262.33" y1="263.61" x2="374.05" y2="151.89"/><line class="cls-1" x1="176.9" y1="349.04" x2="240.67" y2="285.27"/><line class="cls-1" x1="309.23" y1="270.09" x2="373.91" y2="205.41"/><line class="cls-1" x1="207.95" y1="371.48" x2="260.11" y2="319.32"/><line class="cls-1" x1="290.16" y1="340.73" x2="374.05" y2="256.85"/><line class="cls-1" x1="311.25" y1="371.48" x2="374.05" y2="308.69"/><line class="cls-5" x1="275.41" y1="98.53" x2="275.41" y2="110.2"/><line class="cls-6" x1="275.41" y1="117.07" x2="275.41" y2="127.36"/><line class="cls-7" x1="275.41" y1="130.8" x2="275.41" y2="356.93"/><line class="cls-5" x1="275.41" y1="360.36" x2="275.41" y2="372.03"/><text class="cls-4" transform="translate(397.31 217.31)">Structural sheet</text><line class="cls-2" x1="394.52" y1="212.6" x2="382.97" y2="212.6"/><polygon class="cls-3" points="384.95 209.69 374.12 212.6 384.95 215.5 384.95 209.69"/><line class="cls-1" x1="248.46" y1="263.61" x2="302.75" y2="263.61"/><path class="cls-1" d="M257.09,371.48s4.42-30.61,5-42.75c.9-17.89-18.62-14.38-23.59-55.18h74.15c-5,40.8-24.49,37.29-23.59,55.18.61,12.14,5,42.75,5,42.75"/><path class="cls-1" d="M248.46,263.61c-9.49,9.94-9.93,9.94-9.93,9.94h73.69a.19.19,0,0,0,.13-.33l-9.6-9.61Z"/><text class="cls-4" transform="translate(270.09 91.82)">C</text><text class="cls-8" transform="translate(272.2 94.39)">L</text><text class="cls-4" transform="translate(398.77 261.29)">WC pan</text><polyline class="cls-2" points="394.52 256.85 357.42 256.85 304.66 285.63"/><polygon class="cls-3" points="305.01 282.13 296.88 289.87 307.79 287.23 305.01 282.13"/></svg>