<?xml version="1.0" encoding="utf-8"?>
<!-- Generator: Adobe Illustrator 26.3.1, SVG Export Plug-In . SVG Version: 6.00 Build 0)  -->
<svg version="1.1" xmlns="http://www.w3.org/2000/svg" xmlns:xlink="http://www.w3.org/1999/xlink" x="0px" y="0px"
	 viewBox="0 0 552.76 433.69" style="enable-background:new 0 0 552.76 433.69;" xml:space="preserve">
<style type="text/css">
	.st0{fill-rule:evenodd;clip-rule:evenodd;fill:none;}
	
		.st1{clip-path:url(#SVGID_00000085960186512396142900000014235795065269607820_);fill:none;stroke:#221F1F;stroke-width:0.5;stroke-linejoin:round;}
	.st2{fill-rule:evenodd;clip-rule:evenodd;fill:url(#SVGID_00000000906284823950229220000007051212524198901897_);}
	.st3{fill:url(#SVGID_00000058574705505982674790000001675553579631944603_);}
	.st4{fill-rule:evenodd;clip-rule:evenodd;fill:#C5C7C9;}
	.st5{fill:none;stroke:#231F20;stroke-width:0.75;stroke-miterlimit:10;}
	.st6{fill:none;stroke:#231F20;stroke-miterlimit:10;}
	.st7{fill:none;stroke:#231F20;stroke-miterlimit:10;stroke-dasharray:25.9591,11.422;}
	.st8{fill:none;stroke:#231F20;stroke-miterlimit:10;stroke-dasharray:5.1918,11.422,25.9591,11.422;}
	.st9{fill:none;stroke:#231F20;stroke-width:0.75;stroke-miterlimit:10;stroke-dasharray:3.4355,1.7177;}
	.st10{fill:none;stroke:#231F20;stroke-width:0.75;stroke-miterlimit:10;stroke-dasharray:4,2;}
	.st11{fill:#231F20;}
	.st12{font-family:'ArialMT';}
	.st13{font-size:12px;}
	.st14{fill:none;stroke:#231F20;stroke-width:0.25;stroke-miterlimit:10;}
	.st15{font-family:'Arial-BoldMT';}
	.st16{fill:none;stroke:#231F20;stroke-width:0.75;stroke-miterlimit:10;stroke-dasharray:5.9255,5.9255;}
	.st17{fill:none;stroke:#000000;stroke-width:0;stroke-linecap:round;stroke-linejoin:round;stroke-miterlimit:10;}
	.st18{fill:none;stroke:#FF0000;stroke-width:0;stroke-linecap:round;stroke-linejoin:round;stroke-miterlimit:10;}
</style>
<pattern  x="120.47" y="371.37" width="72" height="72" patternUnits="userSpaceOnUse" id="diagonal_cross_hatch" viewBox="6.18 -86.18 72 72" style="overflow:visible;">
	<g>
		<rect x="6.18" y="-86.18" class="st0" width="72" height="72"/>
		<g>
			<defs>
				<rect id="SVGID_1_" x="6.18" y="-86.18" width="72" height="72"/>
			</defs>
			<clipPath id="SVGID_00000101812142490283242450000014702639839531399840_">
				<use xlink:href="#SVGID_1_"  style="overflow:visible;"/>
			</clipPath>
			
				<line style="clip-path:url(#SVGID_00000101812142490283242450000014702639839531399840_);fill:none;stroke:#221F1F;stroke-width:0.5;stroke-linejoin:round;" x1="0.18" y1="-74.18" x2="18.18" y2="-92.18"/>
			
				<line style="clip-path:url(#SVGID_00000101812142490283242450000014702639839531399840_);fill:none;stroke:#221F1F;stroke-width:0.5;stroke-linejoin:round;" x1="0.18" y1="-68.18" x2="24.18" y2="-92.18"/>
			
				<line style="clip-path:url(#SVGID_00000101812142490283242450000014702639839531399840_);fill:none;stroke:#221F1F;stroke-width:0.5;stroke-linejoin:round;" x1="0.18" y1="-62.18" x2="30.18" y2="-92.18"/>
			
				<line style="clip-path:url(#SVGID_00000101812142490283242450000014702639839531399840_);fill:none;stroke:#221F1F;stroke-width:0.5;stroke-linejoin:round;" x1="0.18" y1="-56.18" x2="36.18" y2="-92.18"/>
			
				<line style="clip-path:url(#SVGID_00000101812142490283242450000014702639839531399840_);fill:none;stroke:#221F1F;stroke-width:0.5;stroke-linejoin:round;" x1="0.18" y1="-50.18" x2="42.18" y2="-92.18"/>
			
				<line style="clip-path:url(#SVGID_00000101812142490283242450000014702639839531399840_);fill:none;stroke:#221F1F;stroke-width:0.5;stroke-linejoin:round;" x1="0.18" y1="-44.18" x2="48.18" y2="-92.18"/>
			
				<line style="clip-path:url(#SVGID_00000101812142490283242450000014702639839531399840_);fill:none;stroke:#221F1F;stroke-width:0.5;stroke-linejoin:round;" x1="0.18" y1="-38.18" x2="54.18" y2="-92.18"/>
			
				<line style="clip-path:url(#SVGID_00000101812142490283242450000014702639839531399840_);fill:none;stroke:#221F1F;stroke-width:0.5;stroke-linejoin:round;" x1="0.18" y1="-32.18" x2="60.18" y2="-92.18"/>
			
				<line style="clip-path:url(#SVGID_00000101812142490283242450000014702639839531399840_);fill:none;stroke:#221F1F;stroke-width:0.5;stroke-linejoin:round;" x1="0.18" y1="-26.18" x2="66.18" y2="-92.18"/>
			
				<line style="clip-path:url(#SVGID_00000101812142490283242450000014702639839531399840_);fill:none;stroke:#221F1F;stroke-width:0.5;stroke-linejoin:round;" x1="0.18" y1="-20.18" x2="72.18" y2="-92.18"/>
			
				<line style="clip-path:url(#SVGID_00000101812142490283242450000014702639839531399840_);fill:none;stroke:#221F1F;stroke-width:0.5;stroke-linejoin:round;" x1="0.18" y1="-14.18" x2="78.18" y2="-92.18"/>
			
				<line style="clip-path:url(#SVGID_00000101812142490283242450000014702639839531399840_);fill:none;stroke:#221F1F;stroke-width:0.5;stroke-linejoin:round;" x1="0.18" y1="-8.18" x2="84.18" y2="-92.18"/>
			
				<line style="clip-path:url(#SVGID_00000101812142490283242450000014702639839531399840_);fill:none;stroke:#221F1F;stroke-width:0.5;stroke-linejoin:round;" x1="6.18" y1="-8.18" x2="84.18" y2="-86.18"/>
			
				<line style="clip-path:url(#SVGID_00000101812142490283242450000014702639839531399840_);fill:none;stroke:#221F1F;stroke-width:0.5;stroke-linejoin:round;" x1="12.18" y1="-8.18" x2="84.18" y2="-80.18"/>
			
				<line style="clip-path:url(#SVGID_00000101812142490283242450000014702639839531399840_);fill:none;stroke:#221F1F;stroke-width:0.5;stroke-linejoin:round;" x1="18.18" y1="-8.18" x2="84.18" y2="-74.18"/>
			
				<line style="clip-path:url(#SVGID_00000101812142490283242450000014702639839531399840_);fill:none;stroke:#221F1F;stroke-width:0.5;stroke-linejoin:round;" x1="24.18" y1="-8.18" x2="84.18" y2="-68.18"/>
			
				<line style="clip-path:url(#SVGID_00000101812142490283242450000014702639839531399840_);fill:none;stroke:#221F1F;stroke-width:0.5;stroke-linejoin:round;" x1="30.18" y1="-8.18" x2="84.18" y2="-62.18"/>
			
				<line style="clip-path:url(#SVGID_00000101812142490283242450000014702639839531399840_);fill:none;stroke:#221F1F;stroke-width:0.5;stroke-linejoin:round;" x1="36.18" y1="-8.18" x2="84.18" y2="-56.18"/>
			
				<line style="clip-path:url(#SVGID_00000101812142490283242450000014702639839531399840_);fill:none;stroke:#221F1F;stroke-width:0.5;stroke-linejoin:round;" x1="42.18" y1="-8.18" x2="84.18" y2="-50.18"/>
			
				<line style="clip-path:url(#SVGID_00000101812142490283242450000014702639839531399840_);fill:none;stroke:#221F1F;stroke-width:0.5;stroke-linejoin:round;" x1="48.18" y1="-8.18" x2="84.18" y2="-44.18"/>
			
				<line style="clip-path:url(#SVGID_00000101812142490283242450000014702639839531399840_);fill:none;stroke:#221F1F;stroke-width:0.5;stroke-linejoin:round;" x1="54.18" y1="-8.18" x2="84.18" y2="-38.18"/>
			
				<line style="clip-path:url(#SVGID_00000101812142490283242450000014702639839531399840_);fill:none;stroke:#221F1F;stroke-width:0.5;stroke-linejoin:round;" x1="52.18" y1="-0.18" x2="94.18" y2="-42.18"/>
			
				<line style="clip-path:url(#SVGID_00000101812142490283242450000014702639839531399840_);fill:none;stroke:#221F1F;stroke-width:0.5;stroke-linejoin:round;" x1="58.18" y1="-0.18" x2="94.18" y2="-36.18"/>
			
				<line style="clip-path:url(#SVGID_00000101812142490283242450000014702639839531399840_);fill:none;stroke:#221F1F;stroke-width:0.5;stroke-linejoin:round;" x1="64.18" y1="-0.18" x2="94.18" y2="-30.18"/>
		</g>
	</g>
</pattern>
<g id="Defpoints">
</g>
<g id="LINE_18">
	<g id="HATCH">
		
			<pattern  id="SVGID_00000052790305652921712460000004663085549624366010_" xlink:href="#diagonal_cross_hatch" patternTransform="matrix(1 0 0 1 209.5743 -69.8329)">
		</pattern>
		<path style="fill-rule:evenodd;clip-rule:evenodd;fill:url(#SVGID_00000052790305652921712460000004663085549624366010_);" d="
			M191.03,55.45v4.95h59.04v-4.95H191.03z M348.48,60.4v-4.95h-59.04v4.95H348.48z"/>
		
			<pattern  id="SVGID_00000155131911503256821160000016599340088028605595_" xlink:href="#diagonal_cross_hatch" patternTransform="matrix(1 0 0 1 209.5743 -69.8329)">
		</pattern>
		<path style="fill:url(#SVGID_00000155131911503256821160000016599340088028605595_);" d="M191.03,55.58l0.13-0.13 M192.53,60.4
			l4.95-4.95 M198.84,60.4l4.95-4.95 M205.15,60.4l4.95-4.95 M211.46,60.4l4.95-4.95 M217.77,60.4l4.95-4.95 M224.09,60.4l4.95-4.95
			 M230.4,60.4l4.95-4.95 M236.71,60.4l4.95-4.95 M243.02,60.4l4.95-4.95 M249.33,60.4l0.74-0.74 M289.43,58.17l2.72-2.72
			 M293.52,60.4l4.95-4.95 M299.83,60.4l4.95-4.95 M306.14,60.4l4.95-4.95 M312.45,60.4l4.95-4.95 M318.77,60.4l4.95-4.95
			 M325.08,60.4l4.95-4.95 M331.39,60.4l4.95-4.95 M337.7,60.4l4.95-4.95 M344.01,60.4l4.46-4.46"/>
	</g>
	<polygon class="st4" points="372.09,55.25 372.09,60.2 368.16,60.2 368.16,89.72 368.16,99.56 368.16,193.04 269.75,193.04 
		171.35,193.04 171.35,84.8 171.35,74.96 171.35,60.2 167.42,60.2 167.42,55.25 161.51,55.25 161.51,74.96 161.51,84.8 
		161.51,202.88 269.75,202.88 378,202.88 378,99.56 378,89.72 378,55.25 	"/>
	<g>
		<g id="ELLIPSE_2_">
			<path class="st5" d="M278.4,274.46c0-0.55-0.88-0.99-1.97-0.99c-1.09,0-1.97,0.45-1.97,0.99"/>
		</g>
		<g id="ELLIPSE_3_">
			<path class="st5" d="M278.4,274.46c0,0.55,0.88,0.99,1.97,0.99c1.09,0,1.97-0.45,1.97-0.99c0-0.55-0.88-0.99-1.97-0.99
				C279.28,273.46,278.4,273.91,278.4,274.46L278.4,274.46z"/>
		</g>
	</g>
	<g>
		<g id="ELLIPSE">
			<path class="st5" d="M141.5,74.86c-0.65,0-1.17,1.1-1.17,2.46c0,1.36,0.52,2.46,1.17,2.46"/>
		</g>
		<g id="ELLIPSE_1_">
			<path class="st5" d="M141.5,79.78c-0.65,0-1.17,1.1-1.17,2.46c0,1.36,0.52,2.46,1.17,2.46c0.65,0,1.17-1.1,1.17-2.46
				C142.68,80.88,142.15,79.78,141.5,79.78L141.5,79.78z"/>
		</g>
	</g>
	<g>
		<g id="ELLIPSE_4_">
			<path class="st5" d="M141.5,322.71c-0.65,0-1.17,1.1-1.17,2.46c0,1.36,0.52,2.46,1.17,2.46"/>
		</g>
		<g id="ELLIPSE_5_">
			<path class="st5" d="M141.5,327.63c-0.65,0-1.17,1.1-1.17,2.46c0,1.36,0.52,2.46,1.17,2.46c0.65,0,1.17-1.1,1.17-2.46
				C142.68,328.73,142.15,327.63,141.5,327.63L141.5,327.63z"/>
		</g>
	</g>
	<g>
		<g id="ELLIPSE_6_">
			<g>
				<path class="st5" d="M398.01,322.71c0.65,0,1.17,1.1,1.17,2.46c0,1.36-0.52,2.46-1.17,2.46"/>
			</g>
		</g>
		<g id="ELLIPSE_7_">
			<g>
				<path class="st5" d="M398.01,327.63c0.65,0,1.17,1.1,1.17,2.46c0,1.36-0.52,2.46-1.17,2.46c-0.65,0-1.17-1.1-1.17-2.46
					C396.83,328.73,397.36,327.63,398.01,327.63L398.01,327.63z"/>
			</g>
		</g>
	</g>
	<g id="LINE_87_">
		<g id="LINE_26_">
			<g>
				<g>
					<g>
						<line class="st6" x1="135.74" y1="327.63" x2="138.24" y2="327.63"/>
						<line class="st7" x1="149.66" y1="327.63" x2="181.33" y2="327.63"/>
						<line class="st8" x1="187.04" y1="327.63" x2="397.31" y2="327.63"/>
						<line class="st6" x1="403.02" y1="327.63" x2="405.52" y2="327.63"/>
					</g>
				</g>
			</g>
		</g>
	</g>
	<g>
		<g id="ELLIPSE_8_">
			<path class="st5" d="M402.02,94.54c0.59,0,1.08-1.1,1.08-2.46c0-1.36-0.48-2.46-1.08-2.46"/>
		</g>
		<g id="ELLIPSE_9_">
			<path class="st5" d="M402.02,94.54c-0.59,0-1.08,1.1-1.08,2.46c0,1.36,0.48,2.46,1.08,2.46c0.59,0,1.08-1.1,1.08-2.46
				C403.09,95.64,402.61,94.54,402.02,94.54L402.02,94.54z"/>
		</g>
	</g>
	<g>
		<g>
			<g id="LINE_79_">
				<g>
					<line class="st6" x1="161.51" y1="322.71" x2="141.5" y2="322.71"/>
				</g>
			</g>
			<g id="LINE_80_">
				<g>
					<line class="st6" x1="161.51" y1="332.55" x2="141.5" y2="332.55"/>
				</g>
			</g>
			<g id="LINE_81_">
				<g>
					<line class="st6" x1="378" y1="322.71" x2="398.01" y2="322.71"/>
				</g>
			</g>
			<g id="LINE_82_">
				<g>
					<line class="st6" x1="378" y1="332.55" x2="398.01" y2="332.55"/>
				</g>
			</g>
		</g>
		<path class="st6" d="M368.16,332.55h-10c-2.72,0-4.92-2.2-4.92-4.92c0-2.72,2.2-4.92,4.92-4.92h9.92"/>
		<g>
			
				<rect x="171.35" y="298.76" transform="matrix(-1 -1.224647e-16 1.224647e-16 -1 539.5087 655.2535)" class="st6" width="196.8" height="57.73"/>
			<rect x="161.51" y="288.27" class="st6" width="216.48" height="78.72"/>
			<rect x="167.29" y="294.17" class="st6" width="204.92" height="66.91"/>
		</g>
		<g id="LINE_77_">
			<g>
				<line class="st6" x1="274.46" y1="288.24" x2="274.46" y2="274.46"/>
			</g>
		</g>
		<g id="LINE_78_">
			<g>
				<line class="st6" x1="282.34" y1="288.24" x2="282.34" y2="274.46"/>
			</g>
		</g>
	</g>
	<g id="CIRCLE">
		<path class="st6" d="M274.46,66.5c0-2.17,1.76-3.94,3.94-3.94s3.94,1.76,3.94,3.94c0,2.17-1.76,3.94-3.94,3.94
			S274.46,68.67,274.46,66.5L274.46,66.5z"/>
	</g>
	<g>
		<g id="LINE_60_">
			<line class="st6" x1="365.71" y1="168.89" x2="371.98" y2="168.89"/>
		</g>
		<g id="LINE_94_">
			<line class="st6" x1="365.71" y1="120.91" x2="371.98" y2="120.91"/>
		</g>
		<g id="LWPOLYLINE_1_">
			<polyline class="st6" points="353.24,169.51 351.68,169.51 351.68,168.27 353.24,168.27 			"/>
		</g>
		<g id="LWPOLYLINE_2_">
			<polyline class="st6" points="363.08,168.27 365.71,168.27 365.71,169.51 363.08,169.51 			"/>
		</g>
		<g id="LWPOLYLINE_3_">
			<polyline class="st6" points="353.24,121.53 351.68,121.53 351.68,120.29 353.24,120.29 			"/>
		</g>
		<g id="LWPOLYLINE_4_">
			<polyline class="st6" points="363.08,120.29 365.71,120.29 365.71,121.53 363.08,121.53 			"/>
		</g>
	</g>
	<g>
		<g id="LINE_75_">
			<g>
				<g>
					<line class="st5" x1="274.46" y1="299.11" x2="274.46" y2="297.11"/>
					<line class="st9" x1="274.46" y1="295.39" x2="274.46" y2="291.09"/>
					<line class="st5" x1="274.46" y1="290.24" x2="274.46" y2="288.24"/>
				</g>
			</g>
		</g>
		<g id="LINE_76_">
			<g>
				<g>
					<line class="st5" x1="282.34" y1="299.11" x2="282.34" y2="297.11"/>
					<line class="st9" x1="282.34" y1="295.39" x2="282.34" y2="291.09"/>
					<line class="st5" x1="282.34" y1="290.24" x2="282.34" y2="288.24"/>
				</g>
			</g>
		</g>
	</g>
	<g id="LINE_89_">
		<line class="st10" x1="161.51" y1="74.86" x2="161.51" y2="84.7"/>
	</g>
	<g>
		<g id="ARC_2_">
			<path class="st10" d="M358.16,332.55c2.72,0,4.92-2.2,4.92-4.92c0-2.72-2.2-4.92-4.92-4.92"/>
		</g>
		<g id="LINE_83_">
			<line class="st10" x1="378" y1="322.71" x2="368.08" y2="322.71"/>
		</g>
		<g id="LINE_84_">
			<line class="st10" x1="378" y1="332.55" x2="368.08" y2="332.55"/>
		</g>
		<g id="LINE_90_">
			<line class="st10" x1="161.51" y1="322.71" x2="171.35" y2="322.71"/>
		</g>
		<g id="LINE_91_">
			<line class="st10" x1="161.51" y1="332.55" x2="171.35" y2="332.55"/>
		</g>
	</g>
	<g>
		<g id="LINE_92_">
			<line class="st10" x1="378" y1="89.62" x2="378" y2="99.46"/>
		</g>
		<g id="LINE_93_">
			<line class="st10" x1="368.16" y1="89.62" x2="368.16" y2="99.46"/>
		</g>
	</g>
	<g>
		<g id="LINE_61_">
			<line class="st10" x1="353.24" y1="168.27" x2="363.08" y2="168.27"/>
		</g>
		<g id="LINE_62_">
			<line class="st10" x1="353.24" y1="169.51" x2="363.08" y2="169.51"/>
		</g>
		<g id="LINE_95_">
			<line class="st10" x1="353.24" y1="120.29" x2="363.08" y2="120.29"/>
		</g>
		<g id="LINE_96_">
			<line class="st10" x1="353.24" y1="121.53" x2="363.08" y2="121.53"/>
		</g>
	</g>
	<g id="LINE_42_">
		<g>
			<line class="st6" x1="200.87" y1="356.15" x2="200.87" y2="299.11"/>
		</g>
	</g>
	<g id="LINE_53_">
		<line class="st6" x1="200.87" y1="119.14" x2="200.87" y2="74.86"/>
	</g>
	<g id="LINE_43_">
		<line class="st6" x1="161.51" y1="202.78" x2="161.51" y2="84.7"/>
	</g>
	<polyline class="st6" points="368.16,99.46 368.16,192.94 171.35,192.94 171.35,60.1 	"/>
	<g id="LINE_46_">
		<line class="st6" x1="368.16" y1="89.62" x2="368.16" y2="60.1"/>
	</g>
	<polyline class="st6" points="378,99.46 378,202.78 161.51,202.78 	"/>
	<g>
		<g id="LINE_51_">
			<line class="st6" x1="171.35" y1="74.86" x2="141.5" y2="74.86"/>
		</g>
		<g id="LINE_52_">
			<line class="st6" x1="171.35" y1="84.7" x2="141.5" y2="84.7"/>
		</g>
	</g>
	<path class="st6" d="M402.02,99.46H368c-2.72,0-4.92,2.2-4.92,4.92v73.8h-9.84v-73.8c0-8.15,6.61-14.76,14.76-14.76h34.02"/>
	<polyline class="st6" points="161.51,74.86 161.51,55.15 378,55.15 378,89.62 	"/>
	<polyline class="st6" points="372.09,55.15 372.09,60.1 167.42,60.1 167.42,55.15 	"/>
	<g>
		<g id="LINE_47_">
			<line class="st6" x1="348.48" y1="60.1" x2="348.48" y2="55.15"/>
		</g>
		<g id="LINE_97_">
			<line class="st6" x1="191.03" y1="60.1" x2="191.03" y2="55.15"/>
		</g>
		<g id="LINE_98_">
			<line class="st6" x1="250.07" y1="60.1" x2="250.07" y2="55.15"/>
		</g>
		<g id="LINE_99_">
			<line class="st6" x1="289.43" y1="60.1" x2="289.43" y2="55.15"/>
		</g>
	</g>
	<g id="MTEXT_2_">
		<g>
			<text transform="matrix(1 0 0 1 224.0643 44.2521)" class="st11 st12 st13">80 Vent</text>
		</g>
	</g>
	<g id="MTEXT_3_">
		<g>
			<text transform="matrix(1 0 0 1 55.1878 82.5362)" class="st11 st12 st13">100 Inlet pipe</text>
		</g>
	</g>
	<g id="MTEXT_4_">
		<g>
			<text transform="matrix(1 0 0 1 30.3578 102.5548)"><tspan x="0" y="0" class="st11 st12 st13">Permanently fixed</tspan><tspan x="0" y="14.4" class="st11 st12 st13">rigid baffle</tspan><tspan x="0" y="28.8" class="st11 st12 st13">constructed of  </tspan><tspan x="0" y="43.2" class="st11 st12 st13">6 mm min mild steel</tspan><tspan x="0" y="57.6" class="st11 st12 st13">plate or other</tspan><tspan x="0" y="72" class="st11 st12 st13">approved material</tspan></text>
		</g>
	</g>
	<g>
		<g id="LINE_2_">
			<line class="st14" x1="174.16" y1="84.7" x2="191.32" y2="84.7"/>
		</g>
		<line class="st14" x1="188.51" y1="84.7" x2="188.51" y2="99.46"/>
	</g>
	<g id="LINE_7_">
		<g>
			<line class="st11" x1="203.68" y1="74.86" x2="222.1" y2="74.86"/>
		</g>
	</g>
	<g id="LINE_11_">
		<g>
			<line class="st11" x1="203.68" y1="120.14" x2="222.1" y2="120.14"/>
		</g>
	</g>
	<g>
		<g id="LINE_17_">
			<line class="st14" x1="350.43" y1="178.18" x2="337.44" y2="178.18"/>
		</g>
		<g id="LINE_21_">
			<line class="st14" x1="340.25" y1="185.56" x2="324" y2="179.98"/>
		</g>
		<g id="LINE_22_">
			<line class="st14" x1="324" y1="179.98" x2="324" y2="156.53"/>
		</g>
		<g id="LINE_24_">
			<line class="st14" x1="340.25" y1="178.18" x2="340.25" y2="192.94"/>
		</g>
	</g>
	<g>
		<g id="MTEXT_1_">
			<g>
				<text transform="matrix(1 0 0 1 292.7923 97.1232)" class="st11 st12 st13">Outlet </text>
				<text transform="matrix(1 0 0 1 296.0257 110.8375)" class="st11 st12 st13">level</text>
			</g>
		</g>
		<g id="MTEXT_5_">
			<g>
				<text transform="matrix(0 -1 1 0 183.1102 121.1725)" class="st11 st12 st13">150</text>
			</g>
		</g>
		<g id="MTEXT_6_">
			<g>
				<text transform="matrix(0 -1 1 0 216.3573 95.2535)" class="st11 st12 st13">250</text>
			</g>
		</g>
		<g id="MTEXT_7_">
			<g>
				<text transform="matrix(0 -1 1 0 216.3573 120.3942)" class="st11 st12 st13">200</text>
			</g>
		</g>
		<g id="MTEXT_8_">
			<g>
				<text transform="matrix(0 -1 1 0 250.7318 154.3531)" class="st11 st12 st13">950</text>
			</g>
		</g>
		<g id="MTEXT_9_">
			<g>
				<text transform="matrix(0 -1 1 0 250.7318 87.7916)" class="st11 st12 st13">400</text>
			</g>
		</g>
		<g id="MTEXT_10_">
			<g>
				<text transform="matrix(0 -1 1 0 263.5038 87.6735)" class="st11 st12 st13">min</text>
			</g>
		</g>
		<g id="MTEXT_11_">
			<g>
				<text transform="matrix(0 -1 1 0 321.6097 176.7369)" class="st11 st12 st13">100</text>
				<text transform="matrix(0 -1 1 0 333.3246 177.8077)" class="st11 st12 st13">max</text>
			</g>
		</g>
		<g id="MTEXT_12_">
			<g>
				<text transform="matrix(0 -1 1 0 294.1507 79.0177)" class="st11 st12 st13">25</text>
			</g>
		</g>
	</g>
	<g>
		<g id="LINE_25_">
			<line class="st14" x1="281.68" y1="62.59" x2="299.35" y2="62.59"/>
		</g>
		<g id="LINE_29_">
			<line class="st14" x1="296.54" y1="62.59" x2="296.54" y2="60.1"/>
		</g>
	</g>
	<g id="LINE_32_">
		<g id="LINE_64_">
			<g>
				<g>
					<g>
						<line class="st14" x1="257.54" y1="305.4" x2="257.54" y2="337.63"/>
						<g>
							<polygon class="st11" points="255.36,306.89 257.54,298.76 259.72,306.89 							"/>
						</g>
					</g>
				</g>
			</g>
		</g>
	</g>
	<g id="LINE_33_">
		<g id="LINE_13_">
			<g>
				<g>
					<g>
						<line class="st14" x1="257.54" y1="344.18" x2="257.54" y2="349.85"/>
						<g>
							<polygon class="st11" points="255.36,348.36 257.54,356.49 259.72,348.36 							"/>
						</g>
					</g>
				</g>
			</g>
		</g>
	</g>
	<g id="MTEXT_16_">
		<g>
			<text transform="matrix(0 -1 1 0 254.6087 324.9899)" class="st11 st12 st13">600</text>
		</g>
	</g>
	<g id="LINE_36_">
		<g id="LINE_10_">
			<g>
				<g>
					<g>
						<line class="st14" x1="178" y1="340.91" x2="361.51" y2="340.91"/>
						<g>
							<polygon class="st11" points="179.48,343.08 171.35,340.91 179.48,338.73 							"/>
						</g>
						<g>
							<polygon class="st11" points="360.03,343.08 368.16,340.91 360.03,338.73 							"/>
						</g>
					</g>
				</g>
			</g>
		</g>
	</g>
	<g id="MTEXT_17_">
		<g>
			<text transform="matrix(1 0 0 1 272.1239 338.9733)" class="st11 st12 st13">2000</text>
		</g>
	</g>
	<g>
		<g id="MTEXT">
			<g>
				<text transform="matrix(1 0 0 1 415.6302 311.5153)" class="st11 st12 st13">A</text>
			</g>
		</g>
		<g id="MTEXT_13_">
			<g>
				<text transform="matrix(1 0 0 1 51.513 330.1949)" class="st11 st12 st13">100 Inlet pipe</text>
			</g>
		</g>
		<g id="MTEXT_14_">
			<g>
				<text transform="matrix(1 0 0 1 418.0794 330.2858)" class="st11 st12 st13">100 Outlet pipe</text>
			</g>
		</g>
		<g id="MTEXT_15_">
			<g>
				<text transform="matrix(1 0 0 1 114.8998 311.5153)" class="st11 st12 st13">A</text>
			</g>
		</g>
		<g id="MTEXT_19_">
			<g>
				<text transform="matrix(1 0 0 1 314.5697 281.65)" class="st11 st12 st13">80 Vent</text>
			</g>
		</g>
	</g>
	<g>
		<g id="MTEXT_18_">
			<g>
				<text transform="matrix(1 0 0 1 258.045 385.7985)"><tspan x="0" y="0" class="st11 st15 st13">PLAN</tspan><tspan x="-31.35" y="14.4" class="st11 st15 st13">(Cover removed)</tspan></text>
			</g>
		</g>
		<g id="MTEXT_20_">
			<g>
				<text transform="matrix(1 0 0 1 237.1803 222.2506)" class="st11 st15 st13">SECTION A-A</text>
			</g>
		</g>
	</g>
	<g id="MTEXT_21_">
		<g>
			<text transform="matrix(1 0 0 1 409.0081 99.3903)" class="st11 st12 st13">100 Outlet pipe</text>
		</g>
	</g>
	<g id="MTEXT_22_">
		<g>
			<text transform="matrix(1 0 0 1 395.304 170.4449)"><tspan x="0" y="0" class="st11 st12 st13">100 minimum concrete</tspan><tspan x="0" y="14.4" class="st11 st12 st13">walls and base with</tspan><tspan x="0" y="28.8" class="st11 st12 st13">smooth internal finish,</tspan><tspan x="0" y="43.2" class="st11 st12 st13">with suitable reinforcing</tspan><tspan x="0" y="57.6" class="st11 st12 st13">mesh in concrete</tspan></text>
		</g>
	</g>
	<g id="MTEXT_23_">
		<g>
			<text transform="matrix(1 0 0 1 395.6556 149.6149)" class="st11 st12 st13">Brackets</text>
		</g>
	</g>
	<g id="MTEXT_24_">
		<g>
			<text transform="matrix(1 0 0 1 30.6532 220.5055)"><tspan x="0" y="0" class="st11 st12 st13">75 Compacted</tspan><tspan x="0" y="14.4" class="st11 st12 st13">packing sand</tspan></text>
		</g>
	</g>
	<g>
		<g id="POINT_29_">
			<g>
				<line class="st14" x1="171.35" y1="41.75" x2="171.35" y2="41.75"/>
			</g>
		</g>
		<g id="LINE_101_">
			<g>
				<line class="st14" x1="192.03" y1="52.34" x2="192.03" y2="38.94"/>
			</g>
		</g>
		<g id="LINE_102_">
			<g>
				<line class="st14" x1="171.35" y1="57.29" x2="171.35" y2="38.94"/>
			</g>
		</g>
		<g id="LINE_104_">
			<g>
				<line class="st14" x1="171.35" y1="41.75" x2="131.8" y2="41.75"/>
			</g>
		</g>
	</g>
	<g id="MTEXT_25_">
		<g>
			<text transform="matrix(1 0 0 1 135.433 39.3634)" class="st11 st12 st13">200</text>
			<text transform="matrix(1 0 0 1 133.9711 51.0778)" class="st11 st12 st13">max</text>
		</g>
	</g>
	<g id="MTEXT_26_">
		<g>
			<text transform="matrix(1 0 0 1 321.6302 39.3634)" class="st11 st12 st13">200</text>
			<text transform="matrix(1 0 0 1 320.1683 51.0778)" class="st11 st12 st13">max</text>
		</g>
	</g>
	<g id="MTEXT_27_">
		<g>
			<text transform="matrix(1 0 0 1 379.9124 78.4518)" class="st11 st12 st13">Outlet to disconnector gully</text>
		</g>
	</g>
	<g id="MTEXT_28_">
		<g>
			<text transform="matrix(1 0 0 1 395.304 120.108)"><tspan x="0" y="0" class="st11 st12 st13">100 cast iron outlet pipe</tspan><tspan x="0" y="14.4" class="st11 st12 st13">clipped to wall</tspan></text>
		</g>
	</g>
	<g id="LINE_111_">
		<g>
			<g>
				<line class="st14" x1="178.65" y1="313.68" x2="193.58" y2="313.68"/>
				<g>
					<polygon class="st11" points="180.13,315.86 172,313.68 180.13,311.51 					"/>
				</g>
				<g>
					<polygon class="st11" points="192.09,315.86 200.22,313.68 192.09,311.51 					"/>
				</g>
			</g>
		</g>
	</g>
	<g id="MTEXT_29_">
		<g>
			<text transform="matrix(1 0 0 1 175.9588 309.7506)" class="st11 st12 st13">300</text>
		</g>
	</g>
	<g id="LINE_39_">
		<g id="LINE_18_">
			<g>
				<g>
					<g>
						<line class="st5" x1="171.35" y1="99.46" x2="174.35" y2="99.46"/>
						<line class="st16" x1="180.28" y1="99.46" x2="343.23" y2="99.46"/>
						<line class="st5" x1="346.19" y1="99.46" x2="349.19" y2="99.46"/>
					</g>
				</g>
			</g>
		</g>
	</g>
	<g>
		<g id="LINE_6_">
			<g>
				<g>
					<line class="st14" x1="340.28" y1="171.4" x2="340.28" y2="163.31"/>
					<g>
						<polygon class="st11" points="342.46,169.91 340.28,178.04 338.1,169.91 						"/>
					</g>
				</g>
			</g>
		</g>
		<g id="LINE_5_">
			<g>
				<g>
					<line class="st14" x1="340.28" y1="199.42" x2="340.28" y2="207.5"/>
					<g>
						<polygon class="st11" points="338.1,200.9 340.28,192.77 342.46,200.9 						"/>
					</g>
				</g>
			</g>
		</g>
	</g>
	<g id="LINE_20_">
		<g>
			<g>
				<g>
					<line class="st14" x1="361.59" y1="45.13" x2="354.19" y2="45.13"/>
					<g>
						<polygon class="st11" points="360.1,42.95 368.23,45.13 360.1,47.3 						"/>
					</g>
					<g>
						<polygon class="st11" points="355.68,42.95 347.55,45.13 355.68,47.3 						"/>
					</g>
				</g>
			</g>
		</g>
	</g>
	<g>
		<g id="POINT_5_">
			<g>
				<line class="st14" x1="348" y1="41.75" x2="348" y2="41.75"/>
			</g>
		</g>
		<g id="LINE_23_">
			<g>
				<line class="st14" x1="348" y1="52.29" x2="348" y2="38.94"/>
			</g>
		</g>
		<g id="LINE_9_">
			<g>
				<line class="st14" x1="348" y1="41.75" x2="308.44" y2="41.75"/>
			</g>
		</g>
	</g>
	<g>
		<g id="LINE_28_">
			<g>
				<g>
					<line class="st14" x1="296.54" y1="53.46" x2="296.54" y2="46.04"/>
					<g>
						<polygon class="st11" points="298.72,51.97 296.54,60.1 294.36,51.97 						"/>
					</g>
				</g>
			</g>
		</g>
		<g id="LINE_27_">
			<g>
				<g>
					<line class="st14" x1="296.54" y1="80.87" x2="296.54" y2="69.05"/>
					<g>
						<polygon class="st11" points="298.72,70.54 296.54,62.41 294.36,70.54 						"/>
					</g>
				</g>
			</g>
		</g>
	</g>
	<g id="POINT">
		<line class="st17" x1="171.35" y1="84.7" x2="171.35" y2="84.7"/>
	</g>
	<g id="POINT_1_">
		<line class="st17" x1="171.35" y1="99.46" x2="171.35" y2="99.46"/>
	</g>
	<g id="POINT_2_">
		<line class="st17" x1="188.51" y1="99.46" x2="188.51" y2="99.46"/>
	</g>
	<g id="POINT_3_">
		<line class="st17" x1="200.87" y1="74.86" x2="200.87" y2="74.86"/>
	</g>
	<g id="POINT_4_">
		<line class="st17" x1="200.87" y1="99.46" x2="200.87" y2="99.46"/>
	</g>
	<g id="POINT_6_">
		<line class="st17" x1="200.87" y1="99.46" x2="200.87" y2="99.46"/>
	</g>
	<g id="POINT_7_">
		<line class="st17" x1="200.87" y1="119.14" x2="200.87" y2="119.14"/>
	</g>
	<g id="POINT_8_">
		<line class="st17" x1="219.29" y1="119.14" x2="219.29" y2="119.14"/>
	</g>
	<g id="POINT_9_">
		<line class="st17" x1="245.75" y1="99.46" x2="245.75" y2="99.46"/>
	</g>
	<g id="POINT_10_">
		<line class="st17" x1="245.75" y1="192.94" x2="245.75" y2="192.94"/>
	</g>
	<g id="POINT_11_">
		<line class="st17" x1="253.66" y1="192.94" x2="253.66" y2="192.94"/>
	</g>
	<g id="POINT_12_">
		<line class="st17" x1="253.66" y1="99.46" x2="253.66" y2="99.46"/>
	</g>
	<g id="POINT_13_">
		<line class="st17" x1="253.66" y1="60.1" x2="253.66" y2="60.1"/>
	</g>
	<g id="POINT_14_">
		<line class="st17" x1="253.66" y1="60.1" x2="253.66" y2="60.1"/>
	</g>
	<g id="POINT_15_">
		<line class="st17" x1="353.24" y1="178.18" x2="353.24" y2="178.18"/>
	</g>
	<g id="POINT_16_">
		<line class="st17" x1="353.93" y1="192.94" x2="353.93" y2="192.94"/>
	</g>
	<g id="POINT_17_">
		<line class="st17" x1="340.25" y1="192.94" x2="340.25" y2="192.94"/>
	</g>
	<g id="POINT_18_">
		<line class="st17" x1="278.87" y1="62.59" x2="278.87" y2="62.59"/>
	</g>
	<g id="POINT_19_">
		<line class="st17" x1="275.66" y1="60.1" x2="275.66" y2="60.1"/>
	</g>
	<g id="POINT_20_">
		<line class="st17" x1="296.54" y1="60.1" x2="296.54" y2="60.1"/>
	</g>
	<g id="POINT_21_">
		<line class="st17" x1="269.75" y1="298.11" x2="269.75" y2="298.11"/>
	</g>
	<g id="POINT_22_">
		<line class="st17" x1="269.75" y1="357.15" x2="269.75" y2="357.15"/>
	</g>
	<g id="POINT_23_">
		<line class="st17" x1="257.54" y1="357.15" x2="257.54" y2="357.15"/>
	</g>
	<g id="POINT_24_">
		<line class="st17" x1="171.35" y1="357.15" x2="171.35" y2="357.15"/>
	</g>
	<g id="POINT_25_">
		<line class="st17" x1="368.16" y1="357.15" x2="368.16" y2="357.15"/>
	</g>
	<g id="POINT_26_">
		<line class="st17" x1="368.16" y1="340.91" x2="368.16" y2="340.91"/>
	</g>
	<g id="POINT_27_">
		<line class="st17" x1="191.03" y1="55.15" x2="191.03" y2="55.15"/>
	</g>
	<g id="POINT_28_">
		<line class="st17" x1="171.35" y1="60.1" x2="171.35" y2="60.1"/>
	</g>
	<g id="POINT_30_">
		<line class="st17" x1="348.48" y1="55.15" x2="348.48" y2="55.15"/>
	</g>
	<g id="POINT_31_">
		<line class="st17" x1="368.16" y1="60.1" x2="368.16" y2="60.1"/>
	</g>
	<g id="POINT_33_">
		<line class="st18" x1="171.35" y1="298.11" x2="171.35" y2="298.11"/>
	</g>
	<g id="POINT_34_">
		<line class="st18" x1="200.87" y1="298.11" x2="200.87" y2="298.11"/>
	</g>
	<g id="POINT_35_">
		<line class="st18" x1="200.87" y1="313.68" x2="200.87" y2="313.68"/>
	</g>
	<g id="LEADER_5_">
		<g>
			<g>
				<polyline class="st14" points="312.16,279.14 303.72,279.14 288.98,279.14 				"/>
				<g>
					<polygon class="st11" points="290.47,276.96 282.34,279.14 290.47,281.32 					"/>
				</g>
			</g>
		</g>
	</g>
	<g>
		<g>
			<g>
				<polyline class="st14" points="378.88,174.78 383.68,166.94 392.22,166.94 				"/>
				<g>
					<polygon class="st11" points="381.51,174.65 375.41,180.44 377.79,172.37 					"/>
				</g>
			</g>
		</g>
		<g>
			<g>
				<line class="st14" x1="372.34" y1="127.12" x2="386.92" y2="146.13"/>
				<g>
					<polygon class="st11" points="371.52,129.63 368.3,121.85 374.98,126.98 					"/>
				</g>
			</g>
		</g>
		<g>
			<g>
				<polyline class="st14" points="373.09,162.82 386.92,146.13 392.3,146.13 				"/>
				<g>
					<polygon class="st11" points="375.71,163.07 368.84,167.94 372.36,160.29 					"/>
				</g>
			</g>
		</g>
		<g>
			<g>
				<polyline class="st14" points="369.57,111.01 383.68,116.6 391.22,116.6 				"/>
				<g>
					<polygon class="st11" points="370.15,113.58 363.4,108.56 371.76,109.53 					"/>
				</g>
			</g>
		</g>
	</g>
	<g>
		<g>
			<g>
				<polyline class="st14" points="403.6,327.63 410.1,327.63 410.1,308.76 				"/>
				<g>
					<polygon class="st11" points="412.28,310.25 410.1,302.12 407.92,310.25 					"/>
				</g>
			</g>
		</g>
		<g>
			<g>
				<g>
					<polyline class="st14" points="134.6,327.63 128.1,327.63 128.1,308.76 					"/>
					<g>
						<polygon class="st11" points="130.28,310.25 128.1,302.12 125.92,310.25 						"/>
					</g>
				</g>
			</g>
		</g>
	</g>
	<g>
		<g id="LINE_72_">
			<g>
				<g>
					<line class="st14" x1="188.51" y1="77.96" x2="188.51" y2="69.88"/>
					<g>
						<polygon class="st11" points="190.69,76.48 188.51,84.61 186.33,76.48 						"/>
					</g>
				</g>
			</g>
		</g>
		<g id="LINE_71_">
			<g>
				<g>
					<line class="st14" x1="188.51" y1="105.98" x2="188.51" y2="114.07"/>
					<g>
						<polygon class="st11" points="186.33,107.47 188.51,99.34 190.69,107.47 						"/>
					</g>
				</g>
			</g>
		</g>
	</g>
	<g id="LINE_68_">
		<g>
			<g>
				<line class="st14" x1="220.29" y1="81.4" x2="220.29" y2="93.89"/>
				<g>
					<polygon class="st11" points="218.11,82.89 220.29,74.76 222.47,82.89 					"/>
				</g>
				<g>
					<polygon class="st11" points="218.11,92.4 220.29,100.54 222.47,92.4 					"/>
				</g>
			</g>
		</g>
	</g>
	<g id="LINE_67_">
		<g>
			<g>
				<line class="st14" x1="220.29" y1="105.41" x2="220.29" y2="113.81"/>
				<g>
					<polygon class="st11" points="218.11,106.9 220.29,98.77 222.47,106.9 					"/>
				</g>
				<g>
					<polygon class="st11" points="218.11,112.32 220.29,120.46 222.47,112.32 					"/>
				</g>
			</g>
		</g>
	</g>
	<g id="LINE_65_">
		<g id="LINE_73_">
			<g>
				<g>
					<g>
						<line class="st14" x1="253.87" y1="105.91" x2="253.87" y2="186.3"/>
						<g>
							<polygon class="st11" points="251.69,107.4 253.87,99.26 256.05,107.4 							"/>
						</g>
						<g>
							<polygon class="st11" points="251.69,184.81 253.87,192.94 256.05,184.81 							"/>
						</g>
					</g>
				</g>
			</g>
		</g>
	</g>
	<g id="LINE_1_">
		<g>
			<g>
				<line class="st14" x1="253.87" y1="91.62" x2="253.87" y2="67.99"/>
				<g>
					<polygon class="st11" points="256.05,90.13 253.87,98.26 251.69,90.13 					"/>
				</g>
				<g>
					<polygon class="st11" points="256.05,69.48 253.87,61.35 251.69,69.48 					"/>
				</g>
			</g>
		</g>
	</g>
	<g>
		<g>
			<polyline class="st14" points="268.2,40.45 278.31,40.5 278.37,55.92 			"/>
			<g>
				<polygon class="st11" points="276.19,54.44 278.4,62.56 280.55,54.42 				"/>
			</g>
		</g>
	</g>
	<g>
		<g>
			<polyline class="st14" points="196.06,123.72 146.97,170.44 130.41,170.44 			"/>
			<g>
				<polygon class="st11" points="193.48,123.17 200.87,119.14 196.49,126.33 				"/>
			</g>
		</g>
	</g>
	<g>
		<g>
			<polyline class="st14" points="189.2,210.43 189.2,230.87 107.22,230.87 			"/>
			<g>
				<polygon class="st11" points="187.02,211.92 189.2,203.78 191.37,211.92 				"/>
			</g>
		</g>
	</g>
	<g id="LINE_4_">
		<g>
			<g>
				<g>
					<line class="st14" x1="184.94" y1="45.13" x2="177.54" y2="45.13"/>
					<g>
						<polygon class="st11" points="183.46,42.95 191.59,45.13 183.46,47.3 						"/>
					</g>
					<g>
						<polygon class="st11" points="179.03,42.95 170.9,45.13 179.03,47.3 						"/>
					</g>
				</g>
			</g>
		</g>
	</g>
	<g>
		<g id="LINE">
			<line class="st6" x1="161.51" y1="61.4" x2="91.86" y2="61.4"/>
		</g>
		<g id="LINE_100_">
			<line class="st6" x1="378" y1="61.4" x2="447.65" y2="61.4"/>
		</g>
	</g>
	<line class="st14" x1="368.84" y1="57.63" x2="368.84" y2="38.94"/>
</g>
</svg>
