<?xml version="1.0" encoding="utf-8"?>
<!-- Generator: Adobe Illustrator 26.3.1, SVG Export Plug-In . SVG Version: 6.00 Build 0)  -->
<svg version="1.1" xmlns="http://www.w3.org/2000/svg" xmlns:xlink="http://www.w3.org/1999/xlink" x="0px" y="0px"
	 viewBox="0 0 552.76 481.82" style="enable-background:new 0 0 552.76 481.82;" xml:space="preserve">
<style type="text/css">
	.st0{fill:#231F20;}
	.st1{font-family:'ArialMT';}
	.st2{font-size:12px;}
	.st3{fill:none;stroke:#231F20;stroke-width:0.75;stroke-miterlimit:10;}
	.st4{fill:none;stroke:#231F20;stroke-width:0.75;stroke-miterlimit:10;stroke-dasharray:6.1067,6.1067;}
	.st5{fill:none;stroke:#231F20;stroke-miterlimit:10;}
	.st6{fill:none;stroke:#231F20;stroke-miterlimit:10;stroke-dasharray:23.4695,10.3266;}
	.st7{fill:none;stroke:#231F20;stroke-miterlimit:10;stroke-dasharray:4.6939,10.3266,23.4695,10.3266;}
	.st8{font-family:'Arial-BoldMT';}
	.st9{fill:none;stroke:#231F20;stroke-width:0.25;stroke-miterlimit:10;}
	.st10{fill:none;stroke:#000000;stroke-width:1.1915;stroke-linecap:round;stroke-linejoin:round;stroke-miterlimit:10;}
	.st11{fill:none;stroke:#231F20;stroke-width:0.2605;stroke-miterlimit:10;}
	.st12{fill:none;stroke:#000000;stroke-width:0.8579;stroke-linecap:round;stroke-linejoin:round;stroke-miterlimit:10;}
	.st13{fill:none;stroke:#000000;stroke-width:0;stroke-linecap:round;stroke-linejoin:round;stroke-miterlimit:10;}
	.st14{fill:none;stroke:#231F20;stroke-width:0.75;stroke-miterlimit:10;stroke-dasharray:6,6;}
	.st15{fill:none;stroke:#231F20;stroke-width:0.75;stroke-miterlimit:10;stroke-dasharray:6.2669,6.2669;}
	.st16{fill:none;stroke:#000000;stroke-width:0.75;stroke-linecap:round;stroke-linejoin:round;}
	.st17{fill:none;stroke:#000000;stroke-width:0.75;stroke-linecap:round;stroke-linejoin:round;stroke-dasharray:3.7259,2.4839;}
	.st18{fill:none;stroke:#231F20;stroke-width:1.5;stroke-miterlimit:10;}
	.st19{fill:none;stroke:#231F20;stroke-width:0.2589;stroke-miterlimit:10;}
	.st20{fill:none;stroke:#231F20;stroke-width:0.3226;stroke-miterlimit:10;}
</style>
<g id="Defpoints">
</g>
<g id="LINE_25">
	<g>
		<g id="MTEXT">
			<g>
				<text transform="matrix(1 0 0 1 416.3753 334.4988)" class="st0 st1 st2">A</text>
			</g>
		</g>
		<g id="MTEXT_6_">
			<g>
				<text transform="matrix(1 0 0 1 422.89 356.3055)" class="st0 st1 st2">100 Outlet pipe</text>
			</g>
		</g>
		<g id="MTEXT_7_">
			<g>
				<text transform="matrix(1 0 0 1 96.4266 334.4988)" class="st0 st1 st2">A</text>
			</g>
		</g>
		<g id="MTEXT_8_">
			<g>
				<text transform="matrix(0 -1 1 0 222.5184 340.7899)" class="st0 st1 st2">400</text>
			</g>
		</g>
		<g id="MTEXT_9_">
			<g>
				<text transform="matrix(1 0 0 1 236.5448 384.8465)" class="st0 st1 st2">800</text>
			</g>
		</g>
		<g id="MTEXT_12_">
			<g>
				<text transform="matrix(1 0 0 1 404.8656 288.2625)" class="st0 st1 st2">50 Vent</text>
			</g>
		</g>
		<g id="MTEXT_16_">
			<g>
				<text transform="matrix(1 0 0 1 29.5917 356.2527)" class="st0 st1 st2">100 Inlet pipe</text>
			</g>
		</g>
		<g id="MTEXT_24_">
			<g>
				<text transform="matrix(1 0 0 1 162.2088 314.5672)" class="st0 st1 st2">200</text>
			</g>
		</g>
	</g>
	<g id="LINE_33_">
		<g>
			<g>
				<line class="st3" x1="157.58" y1="109.64" x2="160.58" y2="109.64"/>
				<line class="st4" x1="166.69" y1="109.64" x2="334.62" y2="109.64"/>
				<line class="st3" x1="337.67" y1="109.64" x2="340.67" y2="109.64"/>
			</g>
		</g>
	</g>
	<g>
		<g id="LINE_23_">
			<line class="st5" x1="271.39" y1="297.47" x2="271.39" y2="274.95"/>
		</g>
		<g id="LINE_24_">
			<line class="st5" x1="283.79" y1="297.47" x2="283.79" y2="274.95"/>
		</g>
	</g>
	<g id="CIRCLE_2_">
		<path class="st5" d="M271.39,86.08c0-3.42,2.78-6.2,6.2-6.2c3.42,0,6.2,2.78,6.2,6.2c0,3.42-2.78,6.2-6.2,6.2
			C274.17,92.28,271.39,89.51,271.39,86.08L271.39,86.08z"/>
	</g>
	<g id="LINE_89_">
		<line class="st5" x1="271.39" y1="71.39" x2="271.39" y2="31.91"/>
	</g>
	<g id="LINE_90_">
		<line class="st5" x1="283.79" y1="71.39" x2="283.79" y2="31.91"/>
	</g>
	<rect x="145.84" y="297.47" class="st5" width="198.4" height="111.6"/>
	<g>
		<g id="LINE_25_">
			<line class="st5" x1="145.84" y1="340.87" x2="115.8" y2="340.87"/>
		</g>
		<g id="LINE_26_">
			<line class="st5" x1="145.84" y1="365.67" x2="115.8" y2="365.67"/>
		</g>
	</g>
	<g id="LINE_37_">
		<line class="st5" x1="157.58" y1="79.95" x2="127.41" y2="79.95"/>
	</g>
	<g id="LINE_38_">
		<line class="st5" x1="157.58" y1="104.75" x2="127.41" y2="104.75"/>
	</g>
	<path class="st5" d="M318.39,77.11v119.33h24.8v-74.4c0-6.85,5.55-12.4,12.4-12.4h36.92"/>
	<g id="LINE_45_">
		<line class="st5" x1="343.19" y1="84.84" x2="343.19" y2="77.11"/>
	</g>
	<path class="st5" d="M330.48,97.4c0.63-6.71,5.99-12,12.71-12.56h49.32"/>
	<g>
		<g id="LWPOLYLINE_1_">
			<polyline class="st5" points="318.39,174.59 314.46,174.59 314.46,171.47 318.39,171.47 			"/>
		</g>
		<g id="LWPOLYLINE_2_">
			<polyline class="st5" points="343.19,171.47 349.83,171.47 349.83,174.59 343.19,174.59 			"/>
		</g>
		<g id="LINE_49_">
			<line class="st5" x1="349.83" y1="173.03" x2="365.62" y2="173.03"/>
		</g>
	</g>
	<polyline class="st5" points="355.99,84.84 355.99,73.68 157.58,73.68 157.58,221.25 355.99,221.25 355.99,109.64 	"/>
	<polyline class="st5" points="333.72,71.39 333.72,59.52 308.92,59.52 308.92,71.39 	"/>
	<g id="LINE_67_">
		<polyline class="st5" points="179.85,71.39 179.85,59.52 204.65,59.52 204.65,71.2 		"/>
	</g>
	<polyline class="st5" points="355.99,77.39 358.28,77.39 358.28,71.39 155.29,71.39 155.29,77.39 157.58,77.39 	"/>
	<g id="LINE_18_">
		<line class="st5" x1="195.44" y1="409.08" x2="195.44" y2="297.47"/>
	</g>
	<g id="LINE_39_">
		<line class="st5" x1="207.18" y1="134.45" x2="207.18" y2="79.88"/>
	</g>
	<g id="LINE_11_">
		<g id="LINE_6_">
			<g>
				<g>
					<g>
						<line class="st5" x1="405.93" y1="353.27" x2="403.43" y2="353.27"/>
						<line class="st6" x1="393.1" y1="353.27" x2="364.47" y2="353.27"/>
						<line class="st7" x1="359.31" y1="353.27" x2="120.39" y2="353.27"/>
						<line class="st5" x1="115.22" y1="353.27" x2="112.72" y2="353.27"/>
					</g>
				</g>
			</g>
		</g>
	</g>
	<g>
		<g id="ELLIPSE">
			<path class="st3" d="M277.59,274.95c0-0.86-1.39-1.57-3.1-1.57c-1.71,0-3.1,0.7-3.1,1.57"/>
		</g>
		<g id="ELLIPSE_1_">
			<path class="st3" d="M277.59,274.95c0,0.86,1.39,1.57,3.1,1.57c1.71,0,3.1-0.7,3.1-1.57c0-0.86-1.39-1.57-3.1-1.57
				C278.98,273.38,277.59,274.08,277.59,274.95L277.59,274.95z"/>
		</g>
	</g>
	<g>
		<g id="ELLIPSE_2_">
			<path class="st3" d="M115.8,340.87c-1.63,0-2.96,2.78-2.96,6.2c0,3.42,1.32,6.2,2.96,6.2"/>
		</g>
		<g id="ELLIPSE_3_">
			<path class="st3" d="M115.8,353.27c-1.63,0-2.96,2.78-2.96,6.2c0,3.42,1.32,6.2,2.96,6.2s2.96-2.78,2.96-6.2
				C118.75,356.05,117.43,353.27,115.8,353.27L115.8,353.27z"/>
		</g>
	</g>
	<g>
		<g id="ELLIPSE_4_">
			<path class="st3" d="M380.76,340.87c1.63,0,2.96,2.78,2.96,6.2c0,3.42-1.32,6.2-2.96,6.2"/>
		</g>
		<g id="ELLIPSE_5_">
			<path class="st3" d="M380.76,353.27c1.63,0,2.96,2.78,2.96,6.2c0,3.42-1.32,6.2-2.96,6.2c-1.63,0-2.96-2.78-2.96-6.2
				C377.81,356.05,379.13,353.27,380.76,353.27L380.76,353.27z"/>
		</g>
	</g>
	<g>
		<g id="ELLIPSE_6_">
			<g>
				<path class="st3" d="M127.41,79.95c-1.63,0-2.96,2.78-2.96,6.2c0,3.42,1.32,6.2,2.96,6.2"/>
			</g>
		</g>
		<g id="ELLIPSE_7_">
			<g>
				<path class="st3" d="M127.41,92.35c-1.63,0-2.96,2.78-2.96,6.2c0,3.42,1.32,6.2,2.96,6.2c1.63,0,2.96-2.78,2.96-6.2
					C130.37,95.12,129.04,92.35,127.41,92.35L127.41,92.35z"/>
			</g>
		</g>
	</g>
	<g>
		<g id="ELLIPSE_8_">
			<g>
				<path class="st3" d="M392.51,97.24c1.5,0,2.71-2.78,2.71-6.2c0-3.42-1.21-6.2-2.71-6.2"/>
			</g>
		</g>
		<g id="ELLIPSE_9_">
			<g>
				<path class="st3" d="M392.51,97.24c-1.5,0-2.71,2.78-2.71,6.2c0,3.42,1.21,6.2,2.71,6.2s2.71-2.78,2.71-6.2
					C395.22,100.02,394,97.24,392.51,97.24L392.51,97.24z"/>
			</g>
		</g>
	</g>
	<g>
		<g id="ELLIPSE_10_">
			<path class="st3" d="M277.59,31.91c0-0.86-1.39-1.57-3.1-1.57c-1.71,0-3.1,0.7-3.1,1.57"/>
		</g>
		<g id="ELLIPSE_11_">
			<path class="st3" d="M277.59,31.91c0,0.86,1.39,1.57,3.1,1.57c1.71,0,3.1-0.7,3.1-1.57c0-0.86-1.39-1.57-3.1-1.57
				C278.98,30.35,277.59,31.05,277.59,31.91L277.59,31.91z"/>
		</g>
	</g>
	<g id="MTEXT_1_">
		<g>
			<text transform="matrix(1 0 0 1 35.4042 47.7991)" class="st0 st1 st2">Air tight cover</text>
		</g>
	</g>
	<g id="MTEXT_2_">
		<g>
			<text transform="matrix(1 0 0 1 34.4461 166.5394)" class="st0 st1 st2">Fixed baffle </text>
		</g>
	</g>
	<g id="MTEXT_11_">
		<g>
			<text transform="matrix(1 0 0 1 405.0151 48.5862)" class="st0 st1 st2">50 Vent </text>
		</g>
	</g>
	<g>
		<g id="MTEXT_10_">
			<g>
				<text transform="matrix(1 0 0 1 260.0452 436.2098)"><tspan x="0" y="0" class="st0 st8 st2">PLAN</tspan><tspan x="-31.35" y="14.4" class="st0 st8 st2">(Cover removed)</tspan></text>
			</g>
		</g>
		<g id="MTEXT_13_">
			<g>
				<text transform="matrix(1 0 0 1 237.1805 242.5296)" class="st0 st8 st2">SECTION A-A</text>
			</g>
		</g>
	</g>
	<g id="MTEXT_14_">
		<g>
			<text transform="matrix(1 0 0 1 405.0151 100.9847)" class="st0 st1 st2">Outlet pipe</text>
		</g>
	</g>
	<g id="MTEXT_15_">
		<g>
			<text transform="matrix(1 0 0 1 405.0151 69.1292)"><tspan x="0" y="0" class="st0 st1 st2">100 Pumping port with</tspan><tspan x="0" y="14.4" class="st0 st1 st2">screwed cap (optional)</tspan></text>
		</g>
	</g>
	<g id="MTEXT_17_">
		<g>
			<text transform="matrix(1 0 0 1 64.3231 96.3079)" class="st0 st1 st2">Inlet pipe</text>
		</g>
	</g>
	<g id="LINE_16_">
		<line class="st9" x1="224.3" y1="80.45" x2="224.3" y2="71.26"/>
	</g>
	<g id="LINE_73_">
		<path class="st10" d="M224.3,63.5"/>
		<path class="st10" d="M224.3,71.69"/>
	</g>
	<g>
		<g id="LINE_1_">
			<g>
				<g>
					<line class="st9" x1="245.53" y1="118.81" x2="245.53" y2="212.08"/>
					<g>
						<polygon class="st0" points="243.35,120.29 245.53,112.16 247.71,120.29 						"/>
					</g>
					<g>
						<polygon class="st0" points="243.35,210.6 245.53,218.73 247.71,210.6 						"/>
					</g>
				</g>
			</g>
		</g>
		<g id="LINE_3_">
			<g>
				<g>
					<line class="st9" x1="245.53" y1="101.9" x2="245.53" y2="81.33"/>
					<g>
						<polygon class="st0" points="247.71,100.41 245.53,108.54 243.35,100.41 						"/>
					</g>
					<g>
						<polygon class="st0" points="247.71,82.81 245.53,74.68 243.35,82.81 						"/>
					</g>
				</g>
			</g>
		</g>
		<g id="LINE_13_">
			<g>
				<g>
					<line class="st9" x1="331.96" y1="203.81" x2="331.96" y2="214.6"/>
					<g>
						<polygon class="st0" points="329.78,205.29 331.96,197.16 334.14,205.29 						"/>
					</g>
					<g>
						<polygon class="st0" points="329.78,213.12 331.96,221.25 334.14,213.12 						"/>
					</g>
				</g>
			</g>
		</g>
		<g id="LINE_17_">
			<g>
				<g>
					<line class="st9" x1="224.3" y1="116.29" x2="224.3" y2="127.8"/>
					<g>
						<polygon class="st0" points="222.13,117.78 224.3,109.64 226.48,117.78 						"/>
					</g>
					<g>
						<polygon class="st0" points="222.13,126.31 224.3,134.44 226.48,126.31 						"/>
					</g>
				</g>
			</g>
		</g>
		<g id="LINE_75_">
			<g>
				<g>
					<line class="st9" x1="224.3" y1="86.53" x2="224.3" y2="103"/>
					<g>
						<polygon class="st0" points="222.13,88.01 224.3,79.88 226.48,88.01 						"/>
					</g>
					<g>
						<polygon class="st0" points="222.13,101.51 224.3,109.64 226.48,101.51 						"/>
					</g>
				</g>
			</g>
		</g>
	</g>
	<g>
		<g id="LINE_15_">
			<line class="st9" x1="210.46" y1="134.45" x2="227.58" y2="134.45"/>
		</g>
		<g id="LINE_77_">
			<line class="st9" x1="210.46" y1="79.88" x2="227.58" y2="79.88"/>
		</g>
	</g>
	<g id="LINE_80_">
		<path class="st10" d="M224.3,79.88"/>
		<path class="st10" d="M224.3,73.68"/>
	</g>
	<g id="LINE_81_">
		<line class="st10" x1="298.01" y1="73.68" x2="302.61" y2="73.68"/>
	</g>
	<g id="LINE_82_">
		<line class="st9" x1="288.71" y1="92.16" x2="302.61" y2="92.16"/>
	</g>
	<g>
		<g id="LINE_78_">
			<g>
				<g>
					<line class="st9" x1="224.3" y1="63.85" x2="224.3" y2="53.3"/>
					<g>
						<polygon class="st0" points="226.48,62.36 224.3,70.49 222.13,62.36 						"/>
					</g>
				</g>
			</g>
		</g>
		<g id="LINE_83_">
			<g>
				<g>
					<line class="st9" x1="299.33" y1="65.05" x2="299.33" y2="57.3"/>
					<g>
						<polygon class="st0" points="301.51,63.56 299.33,71.69 297.15,63.56 						"/>
					</g>
				</g>
			</g>
		</g>
		<g id="LINE_84_">
			<g>
				<g>
					<line class="st9" x1="299.33" y1="98.99" x2="299.33" y2="108.54"/>
					<g>
						<polygon class="st0" points="297.15,100.48 299.33,92.35 301.51,100.48 						"/>
					</g>
				</g>
			</g>
		</g>
	</g>
	<g>
		<g id="MTEXT_3_">
			<g>
				<text transform="matrix(0 -1 1 0 242.1112 174.7952)" class="st0 st1 st2">450</text>
			</g>
		</g>
		<g id="MTEXT_4_">
			<g>
				<text transform="matrix(0 -1 1 0 240.1112 101.5931)" class="st0 st1 st2">145</text>
			</g>
		</g>
		<g id="MTEXT_5_">
			<g>
				<text transform="matrix(0 -1 1 0 256.995 100.8577)" class="st0 st1 st2">min</text>
			</g>
		</g>
		<g id="MTEXT_18_">
			<g>
				<text transform="matrix(1 0 0 1 168.6571 106.9183)" class="st0 st1 st2">Outlet </text>
				<text transform="matrix(1 0 0 1 172.4256 120.5706)" class="st0 st1 st2">level</text>
			</g>
		</g>
		<g id="MTEXT_19_">
			<g>
				<text transform="matrix(0 -1 1 0 328.5433 218.7278)" class="st0 st1 st2">100</text>
			</g>
		</g>
		<g id="MTEXT_20_">
			<g>
				<text transform="matrix(0 -1 1 0 221.0907 131.8128)" class="st0 st1 st2">100</text>
			</g>
		</g>
		<g id="MTEXT_21_">
			<g>
				<text transform="matrix(0 -1 1 0 219.0907 104.6448)" class="st0 st1 st2">120</text>
			</g>
		</g>
		<g id="MTEXT_22_">
			<g>
				<text transform="matrix(0 -1 1 0 219.0907 66.2825)" class="st0 st1 st2">25</text>
			</g>
		</g>
		<g id="MTEXT_23_">
			<g>
				<text transform="matrix(0 -1 1 0 297.805 89.348)" class="st0 st1 st2">75</text>
			</g>
		</g>
	</g>
	<g id="LINE_85_">
		<line class="st9" x1="299.33" y1="73.68" x2="299.33" y2="92.16"/>
	</g>
	<g>
		<g>
			<g>
				<polyline class="st11" points="410.93,333.33 410.93,353.27 407.22,353.27 				"/>
				<g>
					<polygon class="st0" points="408.66,334.88 410.93,326.41 413.21,334.88 					"/>
				</g>
			</g>
		</g>
		<g>
			<g>
				<polyline class="st11" points="107.71,333.33 107.71,353.27 110.72,353.27 				"/>
				<g>
					<polygon class="st0" points="105.44,334.88 107.71,326.41 109.99,334.88 					"/>
				</g>
			</g>
		</g>
	</g>
	<path class="st12" d="M112.72,353.27"/>
	<g>
		<g>
			<line class="st11" x1="290.9" y1="285.34" x2="396.97" y2="285.34"/>
			<g>
				<polygon class="st0" points="292.45,287.61 283.98,285.34 292.45,283.07 				"/>
			</g>
		</g>
	</g>
	<g>
		<g>
			<g>
				<polyline class="st9" points="167.5,64.55 167.5,43.9 114.32,43.9 				"/>
				<g>
					<polygon class="st0" points="169.67,63.07 167.5,71.2 165.32,63.07 					"/>
				</g>
			</g>
		</g>
		<g>
			<g>
				<polyline class="st9" points="198.34,137.79 134.57,162.44 100.47,162.44 				"/>
				<g>
					<polygon class="st0" points="196.17,136.29 204.54,135.39 197.74,140.36 					"/>
				</g>
			</g>
		</g>
		<g>
			<g>
				<line class="st9" x1="290.43" y1="43.9" x2="401.06" y2="43.9"/>
				<g>
					<polygon class="st0" points="291.92,46.08 283.79,43.9 291.92,41.72 					"/>
				</g>
			</g>
		</g>
		<g>
			<g>
				<line class="st9" x1="341.6" y1="64.45" x2="401.06" y2="64.45"/>
				<g>
					<polygon class="st0" points="343.09,66.63 334.96,64.45 343.09,62.27 					"/>
				</g>
			</g>
		</g>
	</g>
	<g id="POINT">
		<line class="st13" x1="245.53" y1="109.64" x2="245.53" y2="109.64"/>
	</g>
	<g id="POINT_1_">
		<line class="st13" x1="239" y1="221.25" x2="239" y2="221.25"/>
	</g>
	<g id="POINT_2_">
		<line class="st13" x1="245.53" y1="221.25" x2="245.53" y2="221.25"/>
	</g>
	<g id="POINT_3_">
		<line class="st13" x1="245.53" y1="109.64" x2="245.53" y2="109.64"/>
	</g>
	<g id="POINT_4_">
		<line class="st13" x1="246.46" y1="73.68" x2="246.46" y2="73.68"/>
	</g>
	<g id="POINT_5_">
		<line class="st13" x1="245.53" y1="73.68" x2="245.53" y2="73.68"/>
	</g>
	<g id="POINT_6_">
		<line class="st13" x1="236.58" y1="297.47" x2="236.58" y2="297.47"/>
	</g>
	<g id="POINT_7_">
		<line class="st13" x1="231.45" y1="409.08" x2="231.45" y2="409.08"/>
	</g>
	<g id="POINT_8_">
		<line class="st13" x1="222.93" y1="409.08" x2="222.93" y2="409.08"/>
	</g>
	<g id="POINT_9_">
		<line class="st13" x1="145.84" y1="409.08" x2="145.84" y2="409.08"/>
	</g>
	<g id="POINT_10_">
		<line class="st13" x1="344.24" y1="409.08" x2="344.24" y2="409.08"/>
	</g>
	<g id="POINT_11_">
		<line class="st13" x1="344.24" y1="389.26" x2="344.24" y2="389.26"/>
	</g>
	<g id="POINT_12_">
		<line class="st13" x1="324.78" y1="196.45" x2="324.78" y2="196.45"/>
	</g>
	<g id="POINT_13_">
		<line class="st13" x1="331.96" y1="221.25" x2="331.96" y2="221.25"/>
	</g>
	<g id="POINT_14_">
		<line class="st13" x1="331.96" y1="221.25" x2="331.96" y2="221.25"/>
	</g>
	<g id="POINT_15_">
		<line class="st13" x1="294.73" y1="73.68" x2="294.73" y2="73.68"/>
	</g>
	<g id="POINT_16_">
		<line class="st13" x1="285.43" y1="92.16" x2="285.43" y2="92.16"/>
	</g>
	<g id="POINT_17_">
		<line class="st13" x1="299.33" y1="92.16" x2="299.33" y2="92.16"/>
	</g>
	<g id="POINT_18_">
		<line class="st13" x1="145.84" y1="297.47" x2="145.84" y2="297.47"/>
	</g>
	<g id="POINT_19_">
		<line class="st13" x1="195.44" y1="297.47" x2="195.44" y2="297.47"/>
	</g>
	<g id="POINT_20_">
		<line class="st13" x1="195.44" y1="317.98" x2="195.44" y2="317.98"/>
	</g>
	<g id="CIRCLE">
		<g>
			<path class="st14" d="M306.64,353.27c0-6.85,5.55-12.4,12.4-12.4c6.85,0,12.4,5.55,12.4,12.4s-5.55,12.4-12.4,12.4
				C312.19,365.67,306.64,360.12,306.64,353.27L306.64,353.27z"/>
		</g>
	</g>
	<g>
		<g id="LINE_50_">
			<g id="LINE_8_">
				<g>
					<g>
						<g>
							<line class="st3" x1="318.39" y1="171.47" x2="321.39" y2="171.47"/>
							<line class="st15" x1="327.66" y1="171.47" x2="337.06" y2="171.47"/>
							<line class="st3" x1="340.19" y1="171.47" x2="343.19" y2="171.47"/>
						</g>
					</g>
				</g>
			</g>
		</g>
		<g id="LINE_51_">
			<g id="LINE_7_">
				<g>
					<g>
						<g>
							<line class="st3" x1="318.39" y1="174.59" x2="321.39" y2="174.59"/>
							<line class="st15" x1="327.66" y1="174.59" x2="337.06" y2="174.59"/>
							<line class="st3" x1="340.19" y1="174.59" x2="343.19" y2="174.59"/>
						</g>
					</g>
				</g>
			</g>
		</g>
	</g>
	<g id="LINE_91_">
		<g>
			<g>
				<line class="st16" x1="271.39" y1="71.39" x2="271.39" y2="74.39"/>
				<line class="st17" x1="271.39" y1="76.87" x2="271.39" y2="81.84"/>
				<line class="st16" x1="271.39" y1="83.08" x2="271.39" y2="86.08"/>
			</g>
		</g>
	</g>
	<g id="LINE_92_">
		<g>
			<g>
				<line class="st16" x1="283.79" y1="71.39" x2="283.79" y2="74.39"/>
				<line class="st17" x1="283.79" y1="76.87" x2="283.79" y2="81.84"/>
				<line class="st16" x1="283.79" y1="83.08" x2="283.79" y2="86.08"/>
			</g>
		</g>
	</g>
	<g>
		<g id="LINE_29_">
			<g>
				<line class="st5" x1="324.73" y1="365.67" x2="381.76" y2="365.67"/>
			</g>
		</g>
		<g id="LINE_30_">
			<g>
				<line class="st5" x1="324.73" y1="340.87" x2="381.19" y2="340.87"/>
			</g>
		</g>
		<g id="CIRCLE_1_">
			<g>
				<path class="st5" d="M305.4,353.27c0-7.53,6.11-13.64,13.64-13.64c7.53,0,13.64,6.11,13.64,13.64c0,7.53-6.11,13.64-13.64,13.64
					C311.51,366.91,305.4,360.81,305.4,353.27L305.4,353.27z"/>
			</g>
		</g>
	</g>
	<polyline class="st18" points="344.43,84.31 344.43,76.87 317.15,76.87 317.15,84.31 	"/>
	<polyline class="st18" points="334.96,65.72 334.96,58.28 307.68,58.28 307.68,65.72 	"/>
	<polyline class="st18" points="178.61,65.72 178.61,58.28 205.89,58.28 205.89,65.72 	"/>
	<g id="LWPOLYLINE_3_">
		<rect x="371.26" y="136.6" class="st5" width="152.98" height="76.04"/>
	</g>
	<g id="LINE_96_">
		<g>
			<g>
				<line class="st19" x1="152.72" y1="386.42" x2="337.36" y2="386.42"/>
				<g>
					<polygon class="st0" points="154.25,388.67 145.84,386.42 154.25,384.16 					"/>
				</g>
				<g>
					<polygon class="st0" points="335.82,388.67 344.24,386.42 335.82,384.16 					"/>
				</g>
			</g>
		</g>
	</g>
	<g>
		<g>
			<g id="LINE_95_">
				<g>
					<g>
						<line class="st11" x1="225.68" y1="304.4" x2="225.68" y2="381.8"/>
						<g>
							<polygon class="st0" points="223.41,305.94 225.68,297.47 227.95,305.94 							"/>
						</g>
					</g>
				</g>
			</g>
			<g id="LINE_94_">
				<g>
					<g>
						<line class="st11" x1="225.68" y1="392.71" x2="225.68" y2="401.37"/>
						<g>
							<polygon class="st0" points="223.41,399.82 225.68,408.29 227.95,399.82 							"/>
						</g>
					</g>
				</g>
			</g>
		</g>
		<g id="LINE_93_">
			<g>
				<g>
					<line class="st20" x1="154.85" y1="319.49" x2="186.86" y2="319.49"/>
					<g>
						<polygon class="st0" points="156.77,322.3 146.28,319.49 156.77,316.68 						"/>
					</g>
					<g>
						<polygon class="st0" points="184.95,322.3 195.44,319.49 184.95,316.68 						"/>
					</g>
				</g>
			</g>
		</g>
	</g>
	<line class="st5" x1="318.39" y1="77.68" x2="343.19" y2="77.68"/>
	<g>
		<text transform="matrix(1 0 0 1 375.1779 149.556)"><tspan x="0" y="0" class="st0 st1 st2">Outlet to:</tspan><tspan x="0" y="14.4" class="st0 st1 st2">• trapped waste &amp; </tspan><tspan x="0" y="28.8" class="st0 st1 st2"> disconnector gully</tspan><tspan x="0" y="43.2" class="st0 st1 st2">• trapped waste &amp; stack</tspan><tspan x="0" y="57.6" class="st0 st1 st2">• trapped waste &amp; 90° bend</tspan></text>
	</g>
</g>
</svg>
