<?xml version="1.0" encoding="utf-8"?>
<!-- Generator: Adobe Illustrator 25.2.1, SVG Export Plug-In . SVG Version: 6.00 Build 0)  -->
<svg version="1.1" id="_x30_" xmlns="http://www.w3.org/2000/svg" xmlns:xlink="http://www.w3.org/1999/xlink" x="0px" y="0px"
	 viewBox="0 0 552.8 638.5" style="enable-background:new 0 0 552.8 638.5;" xml:space="preserve">
<style type="text/css">
	.st0{fill:none;stroke:#231F20;stroke-width:0.75;stroke-linecap:round;stroke-linejoin:round;stroke-miterlimit:10;}
	.st1{fill:none;stroke:#000000;stroke-width:0.75;stroke-linecap:round;stroke-linejoin:round;stroke-miterlimit:10;}
	.st2{fill:none;stroke:#231F20;stroke-width:0.75;stroke-linecap:round;stroke-linejoin:bevel;stroke-miterlimit:10;}
	.st3{fill:none;stroke:#231F20;stroke-width:0.2354;stroke-linecap:round;stroke-linejoin:round;stroke-miterlimit:10;}
	.st4{fill:none;stroke:#000000;stroke-width:0.2354;stroke-linecap:round;stroke-linejoin:round;stroke-miterlimit:10;}
	.st5{fill:none;stroke:#000000;stroke-width:0.75;stroke-linecap:round;stroke-linejoin:bevel;stroke-miterlimit:10;}
	.st6{fill:none;stroke:#231F20;stroke-width:0.25;stroke-linecap:round;stroke-linejoin:round;}
	.st7{fill:#231F20;}
	.st8{fill:none;stroke:#000000;stroke-width:0.25;stroke-linecap:round;stroke-linejoin:round;stroke-miterlimit:10;}
	.st9{fill:none;stroke:#000000;stroke-width:0.9818;stroke-linecap:round;stroke-linejoin:round;stroke-miterlimit:10;}
	.st10{fill:none;stroke:#000000;stroke-width:0.25;stroke-miterlimit:10;}
	.st11{fill:none;stroke:#231F20;stroke-linecap:round;stroke-linejoin:round;stroke-miterlimit:10;}
	.st12{fill:none;stroke:#231F20;stroke-width:0.25;stroke-linecap:round;stroke-linejoin:round;stroke-miterlimit:10;}
	.st13{font-family:'ArialMT';}
	.st14{font-size:12px;}
	.st15{fill:none;stroke:#000000;stroke-linecap:round;stroke-linejoin:round;stroke-miterlimit:10;}
</style>
<g>
	<g id="ELLIPSE">
		<path class="st0" d="M201.1,490.7c-2.2,0-3.9,2.8-3.9,6.3s1.8,6.3,3.9,6.3c2.2,0,3.9-2.8,3.9-6.3S203.3,490.7,201.1,490.7
			L201.1,490.7z"/>
	</g>
	<g id="SPLINE">
		<path class="st0" d="M201.1,490.7c2.2,0,3.9-2.8,3.9-6.3s-1.8-6.3-3.9-6.3"/>
	</g>
	<g id="SPLINE_1_">
		<path class="st0" d="M36.1,490.7c-2.2,0-3.9,2.8-3.9,6.3c0,3.5,1.8,6.3,3.9,6.3"/>
	</g>
	<g id="ELLIPSE_1_">
		<path class="st0" d="M36.1,478c-2.2,0-3.9,2.8-3.9,6.3c0,3.5,1.8,6.3,3.9,6.3c2.2,0,3.9-2.8,3.9-6.3C40,480.8,38.2,478,36.1,478
			L36.1,478z"/>
	</g>
</g>
<g id="LINE_12_">
	<line class="st0" x1="122.5" y1="520.6" x2="137.3" y2="513.9"/>
</g>
<g id="LINE_13_">
	<line class="st0" x1="137.3" y1="520.6" x2="122.5" y2="513.9"/>
</g>
<g>
	<g id="LINE_15_">
		<line class="st0" x1="122.5" y1="460.7" x2="137.3" y2="467.4"/>
	</g>
	<g id="LINE_16_">
		<line class="st0" x1="137.3" y1="460.7" x2="122.5" y2="467.4"/>
	</g>
</g>
<g>
	<g id="LINE_14_">
		<line class="st0" x1="115.4" y1="560" x2="127.9" y2="560"/>
	</g>
	<g id="LINE_17_">
		<line class="st0" x1="127.9" y1="560" x2="130" y2="557.1"/>
	</g>
	<g id="LINE_18_">
		<line class="st0" x1="130" y1="563" x2="130" y2="557.1"/>
	</g>
	<g id="LINE_19_">
		<line class="st0" x1="132.1" y1="560" x2="144.3" y2="560"/>
	</g>
	<g id="LINE_20_">
		<line class="st0" x1="130" y1="563" x2="132.1" y2="560"/>
	</g>
</g>
<g>
	<g id="LINE_21_">
		<line class="st0" x1="115.8" y1="421.1" x2="128.3" y2="421.1"/>
	</g>
	<g id="LINE_22_">
		<line class="st0" x1="128.3" y1="421.1" x2="130.4" y2="418.2"/>
	</g>
	<g id="LINE_23_">
		<line class="st0" x1="130.4" y1="424" x2="130.4" y2="418.2"/>
	</g>
	<g id="LINE_24_">
		<line class="st0" x1="132.6" y1="421.1" x2="144.7" y2="421.1"/>
	</g>
	<g id="LINE_25_">
		<line class="st0" x1="130.4" y1="424" x2="132.6" y2="421.1"/>
	</g>
</g>
<g>
	<g id="ELLIPSE_2_">
		<path class="st0" d="M300.7,548.3c0-1.9-3.2-3.5-7.2-3.5c-4,0-7.2,1.5-7.2,3.5s3.2,3.5,7.2,3.5
			C297.5,551.8,300.7,550.2,300.7,548.3L300.7,548.3z"/>
	</g>
	<g id="SPLINE_2_">
		<path class="st0" d="M300.7,548.3c0,1.9,3.2,3.5,7.2,3.5c4,0,7.2-1.5,7.2-3.5"/>
	</g>
	<g id="SPLINE_3_">
		<path class="st0" d="M300.7,395.2c0-1.9-3.2-3.5-7.2-3.5c-4,0-7.2,1.5-7.2,3.5"/>
	</g>
	<g id="ELLIPSE_3_">
		<path class="st0" d="M315.1,395.2c0-1.9-3.2-3.5-7.2-3.5c-4,0-7.2,1.5-7.2,3.5c0,1.9,3.2,3.5,7.2,3.5
			C311.9,398.7,315.1,397.1,315.1,395.2L315.1,395.2z"/>
	</g>
</g>
<g id="LINE_31_">
	<line class="st1" x1="269.8" y1="467" x2="275.9" y2="474.2"/>
</g>
<g id="LINE_32_">
	<line class="st1" x1="269.8" y1="474.2" x2="275.9" y2="467"/>
</g>
<g>
	<g id="LINE_26_">
		<line class="st1" x1="230.2" y1="471.3" x2="230.2" y2="474.9"/>
	</g>
	<g id="LINE_27_">
		<line class="st1" x1="230.2" y1="474.9" x2="232.2" y2="475.9"/>
	</g>
	<g id="LINE_28_">
		<line class="st1" x1="228.3" y1="475.9" x2="232.2" y2="475.9"/>
	</g>
	<g id="LINE_29_">
		<line class="st1" x1="230.2" y1="477" x2="230.2" y2="480.6"/>
	</g>
	<g id="LINE_30_">
		<line class="st1" x1="228.3" y1="475.9" x2="230.2" y2="477"/>
	</g>
	<g id="LINE_33_">
		<line class="st1" x1="371.1" y1="471.3" x2="371.1" y2="474.9"/>
	</g>
	<g id="LINE_34_">
		<line class="st1" x1="371.1" y1="474.9" x2="369.2" y2="475.9"/>
	</g>
	<g id="LINE_35_">
		<line class="st1" x1="373" y1="475.9" x2="369.2" y2="475.9"/>
	</g>
	<g id="LINE_36_">
		<line class="st1" x1="371.1" y1="477" x2="371.1" y2="480.6"/>
	</g>
	<g id="LINE_37_">
		<line class="st1" x1="373" y1="475.9" x2="371.1" y2="477"/>
	</g>
</g>
<g id="LINE_38_">
	<line class="st1" x1="331.6" y1="467" x2="325.5" y2="474.2"/>
</g>
<g id="LINE_39_">
	<line class="st1" x1="331.6" y1="474.2" x2="325.5" y2="467"/>
</g>
<g>
	<g id="ELLIPSE_4_">
		<path class="st1" d="M462.6,560.7c0-1.9-3.2-3.5-7.2-3.5c-4,0-7.2,1.5-7.2,3.5c0,1.9,3.2,3.5,7.2,3.5
			C459.4,564.1,462.6,562.6,462.6,560.7L462.6,560.7z"/>
	</g>
	<g id="SPLINE_4_">
		<path class="st1" d="M462.6,560.7c0,1.9,3.2,3.5,7.2,3.5c4,0,7.2-1.5,7.2-3.5"/>
	</g>
	<g id="SPLINE_5_">
		<path class="st1" d="M462.6,395.2c0-1.9-3.2-3.5-7.2-3.5c-4,0-7.2,1.5-7.2,3.5"/>
	</g>
	<g id="ELLIPSE_5_">
		<path class="st1" d="M477.1,395.2c0-1.9-3.2-3.5-7.2-3.5s-7.2,1.5-7.2,3.5c0,1.9,3.2,3.5,7.2,3.5S477.1,397.1,477.1,395.2
			L477.1,395.2z"/>
	</g>
</g>
<g>
	<g id="LINE_40_">
		<line class="st1" x1="392.9" y1="495.4" x2="396.5" y2="504.1"/>
	</g>
	<g id="LINE_41_">
		<line class="st1" x1="394.2" y1="507.2" x2="400.5" y2="505.2"/>
	</g>
	<g id="LINE_42_">
		<line class="st1" x1="396.5" y1="504.1" x2="400.5" y2="505.2"/>
	</g>
	<g id="LINE_43_">
		<line class="st1" x1="394.2" y1="507.2" x2="398.2" y2="508.3"/>
	</g>
	<g id="LINE_44_">
		<line class="st1" x1="398.2" y1="508.3" x2="402.3" y2="517.9"/>
	</g>
</g>
<g>
	<g id="LINE_47_">
		<line class="st1" x1="515.3" y1="455.3" x2="518.9" y2="464"/>
	</g>
	<g id="LINE_48_">
		<line class="st1" x1="516.6" y1="467.1" x2="522.9" y2="465"/>
	</g>
	<g id="LINE_49_">
		<line class="st1" x1="518.9" y1="464" x2="522.9" y2="465"/>
	</g>
	<g id="LINE_50_">
		<line class="st1" x1="516.6" y1="467.1" x2="520.6" y2="468.1"/>
	</g>
	<g id="LINE_51_">
		<line class="st1" x1="520.6" y1="468.1" x2="524.7" y2="477.9"/>
	</g>
</g>
<g>
	<g id="LINE_45_">
		<line class="st1" x1="422.3" y1="494.2" x2="431.2" y2="495.4"/>
	</g>
	<g id="LINE_46_">
		<line class="st1" x1="423.7" y1="497.7" x2="429.7" y2="491.8"/>
	</g>
	<g id="LINE_52_">
		<line class="st1" x1="496.1" y1="474.5" x2="502.3" y2="468.4"/>
	</g>
	<g id="LINE_53_">
		<line class="st1" x1="503.8" y1="472" x2="494.6" y2="470.9"/>
	</g>
</g>
<g>
	<g>
		<g id="LINE_55_">
			<line class="st2" x1="354.2" y1="128.7" x2="350.4" y2="138"/>
		</g>
		<g id="LINE_56_">
			<line class="st2" x1="346.3" y1="138.2" x2="350.4" y2="138"/>
		</g>
		<g id="LINE_57_">
			<line class="st2" x1="346.3" y1="138.2" x2="353.2" y2="140.7"/>
		</g>
		<g id="LINE_58_">
			<line class="st2" x1="349.2" y1="140.9" x2="353.2" y2="140.7"/>
		</g>
		<g id="LINE_59_">
			<line class="st2" x1="349.2" y1="140.9" x2="343.3" y2="155.3"/>
		</g>
	</g>
	<g>
		<g id="LINE_54_">
			<line class="st2" x1="358.7" y1="130.1" x2="355.4" y2="138.3"/>
		</g>
		<g id="LINE_60_">
			<line class="st2" x1="351.4" y1="138.5" x2="355.4" y2="138.3"/>
		</g>
		<g id="LINE_61_">
			<line class="st2" x1="351.4" y1="138.5" x2="358.2" y2="141"/>
		</g>
		<g id="LINE_62_">
			<line class="st2" x1="354.1" y1="141.2" x2="358.2" y2="141"/>
		</g>
		<g id="LINE_63_">
			<line class="st2" x1="354.1" y1="141.2" x2="347.7" y2="157"/>
		</g>
	</g>
	<g>
		<g id="LINE_65_">
			<line class="st2" x1="232.1" y1="90" x2="228.3" y2="99.3"/>
		</g>
		<g id="LINE_66_">
			<line class="st2" x1="224.3" y1="99.6" x2="228.3" y2="99.3"/>
		</g>
		<g id="LINE_67_">
			<line class="st2" x1="224.3" y1="99.6" x2="231.1" y2="102"/>
		</g>
		<g id="LINE_68_">
			<line class="st2" x1="227.1" y1="102.3" x2="231.1" y2="102"/>
		</g>
		<g id="LINE_69_">
			<line class="st2" x1="227.1" y1="102.3" x2="225.2" y2="107"/>
		</g>
	</g>
	<g>
		<g id="LINE_64_">
			<line class="st2" x1="236.6" y1="91.5" x2="233.3" y2="99.6"/>
		</g>
		<g id="LINE_70_">
			<line class="st2" x1="229.3" y1="99.9" x2="233.3" y2="99.6"/>
		</g>
		<g id="LINE_71_">
			<line class="st2" x1="229.3" y1="99.9" x2="236.2" y2="102.3"/>
		</g>
		<g id="LINE_72_">
			<line class="st2" x1="232.1" y1="102.6" x2="236.2" y2="102.3"/>
		</g>
		<g id="LINE_73_">
			<line class="st2" x1="232.1" y1="102.6" x2="229.7" y2="108.4"/>
		</g>
	</g>
	<g id="LINE_74_">
		<line class="st2" x1="106.5" y1="158.2" x2="106.5" y2="152.8"/>
	</g>
	<g id="LINE_75_">
		<line class="st2" x1="106.5" y1="152.8" x2="109.8" y2="150.9"/>
	</g>
	<g id="LINE_76_">
		<line class="st2" x1="103.1" y1="150.9" x2="109.8" y2="150.9"/>
	</g>
	<g id="LINE_77_">
		<line class="st2" x1="106.5" y1="149" x2="106.5" y2="143.7"/>
	</g>
	<g id="LINE_78_">
		<line class="st2" x1="103.1" y1="150.9" x2="106.5" y2="149"/>
	</g>
	<g>
		<g id="LINE_79_">
			<line class="st2" x1="106.6" y1="130.5" x2="106.6" y2="125.1"/>
		</g>
		<g id="LINE_80_">
			<line class="st2" x1="106.6" y1="125.1" x2="109.9" y2="123.2"/>
		</g>
		<g id="LINE_81_">
			<line class="st2" x1="103.2" y1="123.2" x2="109.9" y2="123.2"/>
		</g>
		<g id="LINE_82_">
			<line class="st2" x1="106.6" y1="121.3" x2="106.6" y2="110.7"/>
		</g>
		<g id="LINE_83_">
			<line class="st2" x1="103.2" y1="123.2" x2="106.6" y2="121.3"/>
		</g>
	</g>
	<g>
		<g id="LINE_84_">
			<line class="st2" x1="209.6" y1="156.2" x2="209.6" y2="152.8"/>
		</g>
		<g id="LINE_85_">
			<line class="st2" x1="209.6" y1="152.8" x2="213" y2="150.9"/>
		</g>
		<g id="LINE_86_">
			<line class="st2" x1="206.3" y1="150.9" x2="213" y2="150.9"/>
		</g>
		<g id="LINE_87_">
			<line class="st2" x1="209.6" y1="149" x2="209.6" y2="144.7"/>
		</g>
		<g id="LINE_88_">
			<line class="st2" x1="206.3" y1="150.9" x2="209.6" y2="149"/>
		</g>
	</g>
	<g>
		<g id="LINE_89_">
			<line class="st2" x1="214.3" y1="156.2" x2="214.3" y2="151.6"/>
		</g>
		<g id="LINE_90_">
			<line class="st2" x1="214.3" y1="151.6" x2="217.6" y2="149.8"/>
		</g>
		<g id="LINE_91_">
			<line class="st2" x1="210.9" y1="149.8" x2="217.6" y2="149.8"/>
		</g>
		<g id="LINE_92_">
			<line class="st2" x1="214.3" y1="147.9" x2="214.3" y2="144.7"/>
		</g>
		<g id="LINE_93_">
			<line class="st2" x1="210.9" y1="149.8" x2="214.3" y2="147.9"/>
		</g>
	</g>
</g>
<g>
	<g id="LINE_94_">
		<line class="st0" x1="301.2" y1="147.1" x2="304.5" y2="153.8"/>
	</g>
	<g id="LINE_95_">
		<line class="st0" x1="301.2" y1="153.8" x2="304.5" y2="147.1"/>
	</g>
	<g id="LINE_96_">
		<line class="st0" x1="335.9" y1="147.1" x2="339.2" y2="153.8"/>
	</g>
	<g id="LINE_97_">
		<line class="st0" x1="335.9" y1="153.8" x2="339.2" y2="147.1"/>
	</g>
</g>
<g id="ELLIPSE_6_">
	<path class="st3" d="M309.8,157c0-11.7-9.5-21.3-21.3-21.3c-11.7,0-21.3,9.5-21.3,21.3s9.5,21.3,21.3,21.3
		C300.3,178.2,309.8,168.7,309.8,157L309.8,157z"/>
</g>
<g id="ELLIPSE_7_">
	<path class="st4" d="M309.8,113.2c0-11.7-9.5-21.3-21.3-21.3c-11.7,0-21.3,9.5-21.3,21.3c0,11.7,9.5,21.3,21.3,21.3
		C300.3,134.5,309.8,125,309.8,113.2L309.8,113.2z"/>
</g>
<g id="LINE_98_">
	<line class="st0" x1="384" y1="159.6" x2="390.9" y2="156.7"/>
</g>
<g id="LINE_99_">
	<line class="st0" x1="390.9" y1="159.6" x2="384" y2="156.7"/>
</g>
<g id="LINE_100_">
	<line class="st0" x1="384" y1="156.7" x2="390.9" y2="153.8"/>
</g>
<g id="LINE_101_">
	<line class="st0" x1="390.9" y1="156.7" x2="384" y2="153.8"/>
</g>
<g id="ELLIPSE_8_">
	<path class="st4" d="M414.4,301.3c0-11.7-9.5-21.3-21.3-21.3c-11.7,0-21.3,9.5-21.3,21.3c0,11.7,9.5,21.3,21.3,21.3
		C404.9,322.6,414.4,313.1,414.4,301.3L414.4,301.3z"/>
</g>
<g>
	<g id="LINE_146_">
		<line class="st5" x1="383.6" y1="350.9" x2="396" y2="350.9"/>
	</g>
	<g id="LINE_147_">
		<line class="st5" x1="398.2" y1="354.4" x2="398.2" y2="347.4"/>
	</g>
	<g id="LINE_148_">
		<line class="st5" x1="400.3" y1="350.9" x2="406.4" y2="350.9"/>
	</g>
	<g id="LINE_149_">
		<line class="st5" x1="400.3" y1="350.9" x2="398.2" y2="347.4"/>
	</g>
	<g id="LINE_150_">
		<line class="st5" x1="398.2" y1="354.4" x2="396" y2="350.9"/>
	</g>
</g>
<g id="POLYLINE">
	<g>
		<g>
			<g>
				<g>
					<polyline class="st6" points="437.9,562.6 427.3,572.6 415.5,572.6 					"/>
					<g>
						<polygon class="st7" points="434.5,561.9 444.3,556.5 438.5,566.1 						"/>
					</g>
				</g>
			</g>
		</g>
	</g>
</g>
<g id="LINE_156_">
	<line class="st8" x1="436.8" y1="436.2" x2="420.3" y2="436.2"/>
</g>
<g id="LINE_157_">
	<line class="st8" x1="436.8" y1="480.3" x2="420.3" y2="480.3"/>
</g>
<g id="LINE_158_">
	<g>
		<g>
			<g>
				<g>
					<line class="st6" x1="425.9" y1="445.1" x2="425.9" y2="471.5"/>
					<g>
						<polygon class="st7" points="423,447.1 425.9,436.2 428.8,447.1 						"/>
					</g>
					<g>
						<polygon class="st7" points="423,469.5 425.9,480.3 428.8,469.5 						"/>
					</g>
				</g>
			</g>
		</g>
	</g>
</g>
<g id="LINE_159_">
	<g>
		<g>
			<g>
				<g>
					<line class="st6" x1="435.5" y1="533.1" x2="418.7" y2="533.1"/>
					<g>
						<polygon class="st7" points="433.5,530.2 444.3,533.1 433.5,536 						"/>
					</g>
				</g>
			</g>
		</g>
	</g>
</g>
<g id="LINE_335_">
	<g>
		<g>
			<g>
				<g>
					<line class="st6" x1="464.3" y1="533.1" x2="457.1" y2="533.1"/>
					<g>
						<polygon class="st7" points="459.1,530.2 448.2,533.1 459.1,536 						"/>
					</g>
				</g>
			</g>
		</g>
	</g>
</g>
<g id="LINE_336_">
	<line class="st8" x1="448.2" y1="533.1" x2="444.3" y2="533.1"/>
</g>
<g id="LINE_160_">
	<line class="st8" x1="488.4" y1="488.4" x2="488.4" y2="520.2"/>
</g>
<g id="LINE_161_">
	<g>
		<g>
			<g>
				<g>
					<line class="st6" x1="497.4" y1="515.2" x2="513.3" y2="515.2"/>
					<g>
						<polygon class="st7" points="499.3,518.1 488.5,515.2 499.3,512.3 						"/>
					</g>
				</g>
			</g>
		</g>
	</g>
</g>
<g id="LINE_333_">
	<g>
		<g>
			<g>
				<g>
					<line class="st6" x1="464.3" y1="515.2" x2="472.1" y2="515.2"/>
					<g>
						<polygon class="st7" points="470.1,518.1 481,515.2 470.1,512.3 						"/>
					</g>
				</g>
			</g>
		</g>
	</g>
</g>
<g id="LINE_162_">
	<line class="st8" x1="336.1" y1="486.9" x2="336.1" y2="536.5"/>
</g>
<g id="LINE_163_">
	<line class="st8" x1="336.1" y1="530" x2="315.1" y2="530"/>
</g>
<g id="LINE_331_">
	<g>
		<g>
			<g>
				<g>
					<line class="st6" x1="306.2" y1="530" x2="296.3" y2="530"/>
					<g>
						<polygon class="st7" points="304.3,527.1 315.1,530 304.3,532.9 						"/>
					</g>
				</g>
			</g>
		</g>
	</g>
</g>
<g id="LINE_165_">
	<line class="st8" x1="330.4" y1="428.8" x2="352.2" y2="428.8"/>
</g>
<g id="LINE_166_">
	<line class="st8" x1="339.1" y1="467" x2="352.2" y2="467"/>
</g>
<g id="LINE_167_">
	<g>
		<g>
			<g>
				<g>
					<line class="st6" x1="346.5" y1="437.7" x2="346.5" y2="458.3"/>
					<g>
						<polygon class="st7" points="343.6,439.7 346.5,428.8 349.4,439.7 						"/>
					</g>
					<g>
						<polygon class="st7" points="343.6,456.3 346.5,467.2 349.4,456.3 						"/>
					</g>
				</g>
			</g>
		</g>
	</g>
</g>
<g id="LINE_169_">
	<line class="st8" x1="330.4" y1="496" x2="370.2" y2="496"/>
</g>
<g id="LINE_170_">
	<line class="st8" x1="364.5" y1="477.9" x2="364.5" y2="496"/>
</g>
<g id="LINE_164_">
	<g>
		<g>
			<g>
				<g>
					<line class="st6" x1="364.5" y1="461.1" x2="364.5" y2="469.1"/>
					<g>
						<polygon class="st7" points="361.6,467.1 364.5,477.9 367.5,467.1 						"/>
					</g>
				</g>
			</g>
		</g>
	</g>
</g>
<g id="LINE_171_">
	<g>
		<g>
			<g>
				<g>
					<line class="st6" x1="295.1" y1="508.2" x2="309.9" y2="508.2"/>
					<g>
						<polygon class="st7" points="297.1,511.1 286.3,508.2 297.1,505.3 						"/>
					</g>
				</g>
			</g>
		</g>
	</g>
</g>
<g id="LINE_193_">
	<g>
		<g>
			<g>
				<g>
					<line class="st6" x1="266" y1="508.2" x2="273.5" y2="508.2"/>
					<g>
						<polygon class="st7" points="271.5,511.1 282.4,508.2 271.5,505.3 						"/>
					</g>
				</g>
			</g>
		</g>
	</g>
</g>
<g id="LINE_172_">
	<line class="st9" x1="278.5" y1="502.7" x2="278.5" y2="524.3"/>
</g>
<g id="LINE_173_">
	<line class="st8" x1="252.4" y1="522.4" x2="286.3" y2="522.4"/>
</g>
<g id="LINE_174_">
	<line class="st9" x1="282.4" y1="502.7" x2="282.4" y2="524.2"/>
</g>
<g id="LINE_175_">
	<g>
		<g>
			<g>
				<g>
					<line class="st6" x1="328.5" y1="400" x2="350.6" y2="400"/>
					<g>
						<polygon class="st7" points="330.5,402.9 319.7,400 330.5,397.1 						"/>
					</g>
				</g>
			</g>
		</g>
	</g>
</g>
<g id="LINE_176_">
	<g>
		<g>
			<g>
				<g>
					<line class="st6" x1="327.4" y1="421.2" x2="340.2" y2="400"/>
					<g>
						<polygon class="st7" points="330.9,421 322.9,428.8 326,418 						"/>
					</g>
				</g>
			</g>
		</g>
	</g>
</g>
<g id="POLYLINE_20_">
	<g>
		<g>
			<g>
				<g>
					<polyline class="st6" points="268.3,487.9 258.9,501.6 241.1,501.6 					"/>
					<g>
						<polygon class="st7" points="264.8,487.9 273.3,480.6 269.6,491.2 						"/>
					</g>
				</g>
			</g>
		</g>
	</g>
</g>
<g id="POLYLINE_22_">
	<g>
		<g>
			<g>
				<g>
					<polyline class="st6" points="485.2,447.1 509.1,403.2 509.1,378.2 495.3,378.2 					"/>
					<g>
						<polygon class="st7" points="488.7,446.7 481,454.9 483.6,444 						"/>
					</g>
				</g>
			</g>
		</g>
	</g>
</g>
<g id="LINE_178_">
	<line class="st10" x1="151.8" y1="454.9" x2="193.3" y2="454.9"/>
</g>
<g id="LINE_179_">
	<g>
		<g>
			<g>
				<g>
					<line class="st6" x1="187.9" y1="463.7" x2="187.9" y2="469.1"/>
					<g>
						<polygon class="st7" points="185,465.7 187.9,454.9 190.8,465.7 						"/>
					</g>
					<g>
						<polygon class="st7" points="185,467.2 187.9,478 190.8,467.2 						"/>
					</g>
				</g>
			</g>
		</g>
	</g>
</g>
<g id="LINE_180_">
	<line class="st10" x1="144.3" y1="448.3" x2="144.3" y2="436.6"/>
</g>
<g id="LINE_181_">
	<g>
		<g>
			<g>
				<g>
					<line class="st6" x1="124.7" y1="441.6" x2="135.4" y2="441.6"/>
					<g>
						<polygon class="st7" points="133.4,444.5 144.3,441.6 133.4,438.7 						"/>
					</g>
				</g>
			</g>
		</g>
	</g>
</g>
<g id="LINE_325_">
	<g>
		<g>
			<g>
				<g>
					<line class="st6" x1="153.1" y1="441.6" x2="169.9" y2="441.6"/>
					<g>
						<polygon class="st7" points="155.1,444.5 144.3,441.6 155.1,438.7 						"/>
					</g>
				</g>
			</g>
		</g>
	</g>
</g>
<g id="LINE_182_">
	<line class="st10" x1="111.1" y1="467.4" x2="95.4" y2="467.4"/>
</g>
<g id="LINE_183_">
	<g>
		<g>
			<g>
				<g>
					<line class="st6" x1="101" y1="493.7" x2="101" y2="480"/>
					<g>
						<polygon class="st7" points="103.9,482 101,471.2 98.1,482 						"/>
					</g>
				</g>
			</g>
		</g>
	</g>
</g>
<g id="LINE_326_">
	<g>
		<g>
			<g>
				<g>
					<line class="st6" x1="101" y1="458.5" x2="101" y2="440.9"/>
					<g>
						<polygon class="st7" points="103.9,456.6 101,467.4 98.1,456.6 						"/>
					</g>
				</g>
			</g>
		</g>
	</g>
</g>
<g id="LINE_184_">
	<line class="st10" x1="83.8" y1="471.2" x2="70.8" y2="471.2"/>
</g>
<g id="LINE_185_">
	<g>
		<g>
			<g>
				<g>
					<line class="st6" x1="76.5" y1="462.3" x2="76.5" y2="440.9"/>
					<g>
						<polygon class="st7" points="79.4,460.3 76.5,471.2 73.5,460.3 						"/>
					</g>
				</g>
			</g>
		</g>
	</g>
</g>
<g id="LINE_327_">
	<g>
		<g>
			<g>
				<g>
					<line class="st6" x1="76.5" y1="493.7" x2="76.5" y2="483.4"/>
					<g>
						<polygon class="st7" points="79.4,485.4 76.5,474.6 73.5,485.4 						"/>
					</g>
				</g>
			</g>
		</g>
	</g>
</g>
<g id="LINE_186_">
	<line class="st10" x1="83.8" y1="474.6" x2="47.1" y2="474.6"/>
</g>
<g id="LINE_328_">
	<g>
		<g>
			<g>
				<g>
					<line class="st6" x1="52.7" y1="493.7" x2="52.7" y2="486.9"/>
					<g>
						<polygon class="st7" points="55.6,488.8 52.7,478 49.8,488.8 						"/>
					</g>
				</g>
			</g>
		</g>
	</g>
</g>
<g id="LINE_188_">
	<line class="st10" x1="91.3" y1="516.7" x2="91.3" y2="546.1"/>
</g>
<g id="LINE_189_">
	<g>
		<g>
			<g>
				<g>
					<line class="st6" x1="100.2" y1="541.1" x2="109.7" y2="541.1"/>
					<g>
						<polygon class="st7" points="102.2,544 91.3,541.1 102.2,538.2 						"/>
					</g>
					<g>
						<polygon class="st7" points="107.7,544 118.6,541.1 107.7,538.2 						"/>
					</g>
				</g>
			</g>
		</g>
	</g>
</g>
<g id="LINE_190_">
	<line class="st10" x1="167.9" y1="513.3" x2="167.9" y2="546.1"/>
</g>
<g id="LINE_191_">
	<g>
		<g>
			<g>
				<g>
					<line class="st6" x1="159" y1="541.1" x2="150" y2="541.1"/>
					<g>
						<polygon class="st7" points="157.1,538.2 167.9,541.1 157.1,544 						"/>
					</g>
					<g>
						<polygon class="st7" points="152,538.2 141.1,541.1 152,544 						"/>
					</g>
				</g>
			</g>
		</g>
	</g>
</g>
<g>
	<g id="POLYLINE_38_">
		<g>
			<g>
				<g>
					<g>
						<polyline class="st6" points="82.8,509.1 76.4,510.9 76.4,562 67.7,562 						"/>
						<g>
							<polygon class="st7" points="80.1,506.8 91.3,506.7 81.7,512.4 							"/>
						</g>
					</g>
				</g>
			</g>
		</g>
	</g>
	<g id="LINE_192_">
		<g>
			<g>
				<g>
					<g>
						<line class="st6" x1="85.8" y1="517" x2="76.4" y2="528.7"/>
						<g>
							<polygon class="st7" points="82.3,516.8 91.3,510.1 86.8,520.4 							"/>
						</g>
					</g>
				</g>
			</g>
		</g>
	</g>
</g>
<g id="LINE_194_">
	<line class="st11" x1="304.5" y1="153.8" x2="304.5" y2="147.1"/>
</g>
<g id="LINE_195_">
	<line class="st11" x1="339.2" y1="153.8" x2="339.2" y2="147.1"/>
</g>
<g id="LINE_196_">
	<line class="st11" x1="335.9" y1="153.8" x2="335.9" y2="147.1"/>
</g>
<g id="LINE_197_">
	<line class="st11" x1="384" y1="156.7" x2="390.9" y2="156.7"/>
</g>
<g id="LINE_198_">
	<line class="st11" x1="384" y1="159.6" x2="390.9" y2="159.6"/>
</g>
<g id="LINE_199_">
	<line class="st12" x1="332.2" y1="262.3" x2="332.2" y2="246.9"/>
</g>
<g id="LINE_200_">
	<g>
		<g>
			<g>
				<g>
					<line class="st6" x1="341" y1="251.9" x2="375.1" y2="251.9"/>
					<g>
						<polygon class="st7" points="343,254.8 332.2,251.9 343,249 						"/>
					</g>
					<g>
						<polygon class="st7" points="373.2,254.8 384,251.9 373.2,249 						"/>
					</g>
				</g>
			</g>
		</g>
	</g>
</g>
<g id="POLYLINE_43_">
	<g>
		<g>
			<g>
				<g>
					<polyline class="st6" points="411,277.2 424.3,255.6 435.7,255.6 					"/>
					<g>
						<polygon class="st7" points="414.5,277 406.4,284.7 409.6,274 						"/>
					</g>
				</g>
			</g>
		</g>
	</g>
</g>
<g id="POLYLINE_45_">
	<g>
		<g>
			<g>
				<g>
					<polyline class="st6" points="409.5,295.6 431,278.9 435.7,278.9 					"/>
					<g>
						<polygon class="st7" points="412.8,296.7 402.5,301.1 409.2,292.1 						"/>
					</g>
				</g>
			</g>
		</g>
	</g>
</g>
<g id="LINE_201_">
	<g>
		<g>
			<g>
				<g>
					<line class="st6" x1="392.9" y1="206.5" x2="435.7" y2="206.5"/>
					<g>
						<polygon class="st7" points="394.8,209.4 384,206.5 394.8,203.6 						"/>
					</g>
				</g>
			</g>
		</g>
	</g>
</g>
<g id="POLYLINE_48_">
	<g>
		<g>
			<g>
				<g>
					<polyline class="st6" points="266.5,95.2 245.6,67.2 210,67.2 					"/>
					<g>
						<polygon class="st7" points="267.6,91.9 271.8,102.3 262.9,95.4 						"/>
					</g>
				</g>
			</g>
		</g>
	</g>
</g>
<g id="POLYLINE_50_">
	<g>
		<g>
			<g>
				<g>
					<polyline class="st6" points="291.7,100.3 304.5,67.3 315.1,67.3 					"/>
					<g>
						<polygon class="st7" points="295.1,99.5 288.5,108.6 289.7,97.4 						"/>
					</g>
				</g>
			</g>
		</g>
	</g>
</g>
<g id="POLYLINE_52_">
	<g>
		<g>
			<g>
				<g>
					<polyline class="st6" points="307.2,89.5 311.1,85.7 315.1,85.7 					"/>
					<g>
						<polygon class="st7" points="310.6,90.2 300.8,95.7 306.6,86 						"/>
					</g>
				</g>
			</g>
		</g>
	</g>
</g>
<g id="POLYLINE_54_">
	<g>
		<g>
			<g>
				<g>
					<polyline class="st6" points="308.5,179.5 311.4,183.1 318.9,183.1 					"/>
					<g>
						<polygon class="st7" points="307.5,182.9 302.9,172.7 312,179.3 						"/>
					</g>
				</g>
			</g>
		</g>
	</g>
</g>
<g id="POLYLINE_56_">
	<g>
		<g>
			<g>
				<g>
					<polyline class="st6" points="227.9,327.3 206.5,298.6 192.1,298.6 					"/>
					<g>
						<polygon class="st7" points="229.1,324 233.2,334.4 224.4,327.5 						"/>
					</g>
				</g>
			</g>
		</g>
	</g>
</g>
<g id="MTEXT_4_">
	<text transform="matrix(1 0 0 1 356.9436 547.595)"><tspan x="0" y="0" class="st13 st14">Flue pipe </tspan><tspan x="0" y="14.4" class="st13 st14">casing </tspan><tspan x="0" y="28.8" class="st13 st14">continued </tspan><tspan x="0" y="43.2" class="st13 st14">through </tspan><tspan x="0" y="57.6" class="st13 st14">to ceiling</tspan></text>
</g>
<g id="MTEXT_6_">
	<text transform="matrix(1 0 0 1 455.9673 366.767)"><tspan x="0" y="0" class="st13 st14">Flue pipe </tspan><tspan x="0" y="14.4" class="st13 st14">casing</tspan></text>
</g>
<g id="MTEXT_7_">
	<text transform="matrix(1 0 0 1 442.4577 609.4354)" class="st13 st14">Detail 3</text>
</g>
<g id="MTEXT_8_">
	<text transform="matrix(0 -1 1 0 421.0426 465.6969)" class="st13 st14">300</text>
</g>
<g id="MTEXT_9_">
	<text transform="matrix(1 0 0 1 419.8532 528.8823)" class="st13 st14">25</text>
</g>
<g id="MTEXT_10_">
	<text transform="matrix(1 0 0 1 501.4529 512.8912)" class="st13 st14">X</text>
</g>
<g id="MTEXT_11_">
	<text transform="matrix(1 0 0 1 315.8611 524.9653)" class="st13 st14">150</text>
</g>
<g id="MTEXT_12_">
	<text transform="matrix(0 -1 1 0 341.2652 457.6726)" class="st13 st14">300</text>
</g>
<g id="MTEXT_13_">
	<text transform="matrix(1 0 0 1 365.7741 491.7896)" class="st13 st14">150</text>
</g>
<g id="MTEXT_14_">
	<text transform="matrix(1 0 0 1 297.7351 504.437)" class="st13 st14">25</text>
</g>
<g id="MTEXT_15_">
	<text transform="matrix(1 0 0 1 253.8152 518.8394)" class="st13 st14">25</text>
</g>
<g id="MTEXT_16_">
	<text transform="matrix(1 0 0 1 277.4997 609.4227)" class="st13 st14">Detail 2</text>
</g>
<g id="MTEXT_18_">
	<text transform="matrix(1 0 0 1 352.0036 402.9918)"><tspan x="0" y="0" class="st13 st14">Flue pipe</tspan><tspan x="0" y="14.4" class="st13 st14">casing</tspan></text>
</g>
<g id="MTEXT_20_">
	<text transform="matrix(1 0 0 1 211.4831 492.5748)"><tspan x="0" y="0" class="st13 st14">Shielding </tspan><tspan x="0" y="14.4" class="st13 st14">plate</tspan></text>
</g>
<g id="MTEXT_21_">
	<text transform="matrix(1 0 0 1 107.5515 609.4227)" class="st13 st14">Detail 1</text>
</g>
<g id="MTEXT_23_">
	<text transform="matrix(1 0 0 1 28.5182 535.2963)"><tspan x="0" y="0" class="st7 st13 st14">Flue </tspan><tspan x="0" y="14.4" class="st7 st13 st14">pipe </tspan><tspan x="0" y="28.8" class="st7 st13 st14">casing</tspan></text>
</g>
<g id="MTEXT_24_">
	<text transform="matrix(0 -1 1 0 182.9244 476.9283)" class="st13 st14">150</text>
</g>
<g id="MTEXT_25_">
	<text transform="matrix(1 0 0 1 155.6189 438.9078)" class="st13 st14">12</text>
</g>
<g id="MTEXT_26_">
	<text transform="matrix(0 -1 1 0 96.0699 458.1031)" class="st13 st14">25</text>
</g>
<g id="MTEXT_27_">
	<text transform="matrix(0 -1 1 0 71.483 461.4908)" class="st13 st14">25</text>
</g>
<g id="MTEXT_28_">
	<text transform="matrix(0 -1 1 0 47.7369 465.1647)" class="st13 st14">25</text>
</g>
<g id="MTEXT_29_">
	<text transform="matrix(1 0 0 1 94.0154 536.5356)" class="st13 st14">150</text>
</g>
<g id="MTEXT_30_">
	<text transform="matrix(1 0 0 1 143.5623 536.5356)" class="st13 st14">150</text>
</g>
<g id="MTEXT_32_">
	<text transform="matrix(1 0 0 1 267.1869 297.4998)"><tspan x="0" y="0" class="st13 st14">Heating</tspan><tspan x="-5" y="14.4" class="st13 st14">appliance</tspan></text>
</g>
<g id="MTEXT_34_">
	<text transform="matrix(1 0 0 1 130.3845 288.9383)"><tspan x="0" y="0" class="st13 st14">Hearth – see </tspan><tspan x="0" y="14.4" class="st13 st14">3.10.7.5</tspan></text>
</g>
<g id="MTEXT_36_">
	<text transform="matrix(1 0 0 1 440.2783 283.6404)"><tspan x="0" y="0" class="st13 st14">Flue pipe </tspan><tspan x="0" y="14.4" class="st13 st14">casing</tspan></text>
</g>
<g id="MTEXT_37_">
	<text transform="matrix(1 0 0 1 440.2779 259.3152)" class="st13 st14">Detail 1</text>
</g>
<g id="MTEXT_38_">
	<text transform="matrix(1 0 0 1 345.5896 262.1883)" class="st13 st14">min.</text>
</g>
<g id="MTEXT_39_">
	<text transform="matrix(1 0 0 1 341.1667 248.8396)" class="st13 st14">1.2 m</text>
</g>
<g id="MTEXT_41_">
	<text transform="matrix(1 0 0 1 440.2783 210.0789)"><tspan x="0" y="0" class="st13 st14">Non masonry </tspan><tspan x="0" y="14.4" class="st13 st14">wall</tspan></text>
</g>
<g id="MTEXT_42_">
	<text transform="matrix(1 0 0 1 321.6612 187.0985)" class="st13 st14">Detail 2</text>
</g>
<g id="MTEXT_43_">
	<text transform="matrix(1 0 0 1 319.6611 89.7722)" class="st13 st14">Detail 3</text>
</g>
<g id="MTEXT_44_">
	<text transform="matrix(1 0 0 1 319.5029 71.7683)" class="st13 st14">Flue pipe casing</text>
</g>
<g id="MTEXT_46_">
	<text transform="matrix(1 0 0 1 157.2585 56.9422)"><tspan x="0" y="0" class="st13 st14">Roof flashing –</tspan><tspan x="0" y="14.4" class="st13 st14">see 3.5.1 </tspan></text>
</g>
<g id="MTEXT_47_">
	<text transform="matrix(1 0 0 1 149.3952 141.3865)" class="st13 st14">Timber framing</text>
</g>
<g>
	<g id="LINE_202_">
		<line class="st11" x1="36.1" y1="478" x2="201.1" y2="478"/>
	</g>
	<g id="LINE_203_">
		<line class="st11" x1="36.1" y1="503.3" x2="201.1" y2="503.3"/>
	</g>
	<g id="LINE_204_">
		<line class="st11" x1="91.3" y1="506.7" x2="167.9" y2="506.7"/>
	</g>
	<g id="LINE_205_">
		<line class="st11" x1="91.3" y1="510.1" x2="167.9" y2="510.1"/>
	</g>
	<g id="LINE_206_">
		<line class="st11" x1="115.5" y1="526.5" x2="115.5" y2="510.1"/>
	</g>
	<g id="LINE_207_">
		<line class="st11" x1="118.6" y1="513.9" x2="141.1" y2="513.9"/>
	</g>
	<g id="LINE_208_">
		<line class="st11" x1="118.6" y1="513.9" x2="118.6" y2="559.8"/>
	</g>
	<g id="LINE_209_">
		<line class="st11" x1="122.5" y1="513.9" x2="122.5" y2="559.8"/>
	</g>
	<g id="LINE_210_">
		<line class="st11" x1="141.1" y1="513.9" x2="141.1" y2="559.8"/>
	</g>
	<g id="LINE_211_">
		<line class="st11" x1="137.3" y1="513.9" x2="137.3" y2="559.8"/>
	</g>
	<g id="LINE_212_">
		<line class="st11" x1="122.5" y1="520.6" x2="137.3" y2="520.6"/>
	</g>
	<g id="LINE_213_">
		<line class="st11" x1="144.3" y1="526.5" x2="144.3" y2="510.1"/>
	</g>
	<g>
		<g id="LINE_217_">
			<line class="st11" x1="118.6" y1="467.4" x2="141.1" y2="467.4"/>
		</g>
		<g id="LINE_218_">
			<line class="st11" x1="118.6" y1="467.4" x2="118.6" y2="421.6"/>
		</g>
		<g id="LINE_219_">
			<line class="st11" x1="122.5" y1="467.4" x2="122.5" y2="421.6"/>
		</g>
		<g id="LINE_220_">
			<line class="st11" x1="141.1" y1="467.4" x2="141.1" y2="421.6"/>
		</g>
		<g id="LINE_221_">
			<line class="st11" x1="137.3" y1="467.4" x2="137.3" y2="421.6"/>
		</g>
		<g id="LINE_222_">
			<line class="st11" x1="122.5" y1="460.7" x2="137.3" y2="460.7"/>
		</g>
		<g>
			<g id="LINE_214_">
				<line class="st11" x1="91.3" y1="474.6" x2="167.9" y2="474.6"/>
			</g>
			<g id="LINE_215_">
				<line class="st11" x1="91.3" y1="471.2" x2="167.9" y2="471.2"/>
			</g>
			<g id="LINE_216_">
				<line class="st11" x1="115.5" y1="454.9" x2="115.5" y2="471.2"/>
			</g>
			<g id="LINE_223_">
				<line class="st11" x1="144.3" y1="454.9" x2="144.3" y2="471.2"/>
			</g>
		</g>
	</g>
</g>
<g>
	<g id="LINE_244_">
		<line class="st15" x1="477.1" y1="395.2" x2="477.1" y2="560.7"/>
	</g>
	<g id="LINE_245_">
		<line class="st15" x1="448.2" y1="395.2" x2="448.2" y2="560.7"/>
	</g>
	<g id="LINE_246_">
		<line class="st15" x1="444.3" y1="436.2" x2="444.3" y2="560.7"/>
	</g>
	<g id="LINE_247_">
		<line class="st15" x1="481" y1="436.2" x2="481" y2="560.7"/>
	</g>
	<g id="LINE_248_">
		<line class="st15" x1="477.1" y1="560.7" x2="481" y2="560.7"/>
	</g>
	<g id="LINE_249_">
		<line class="st15" x1="448.2" y1="560.7" x2="444.3" y2="560.7"/>
	</g>
	<g id="LINE_250_">
		<line class="st15" x1="399.3" y1="510.5" x2="436.9" y2="498.4"/>
	</g>
	<g id="LINE_251_">
		<line class="st15" x1="396" y1="502.6" x2="436.9" y2="489.5"/>
	</g>
	<g id="LINE_252_">
		<line class="st15" x1="395" y1="500.3" x2="436.9" y2="486.9"/>
	</g>
	<g id="LINE_253_">
		<line class="st15" x1="438.2" y1="482.3" x2="444.3" y2="480.3"/>
	</g>
	<g id="LINE_254_">
		<line class="st15" x1="423.7" y1="489.1" x2="437.5" y2="484.6"/>
	</g>
	<g id="LINE_255_">
		<line class="st15" x1="400.6" y1="505.2" x2="436.9" y2="493.5"/>
	</g>
	<g id="LINE_256_">
		<line class="st15" x1="422.3" y1="494.2" x2="423.7" y2="497.7"/>
	</g>
	<g id="LINE_257_">
		<line class="st15" x1="429.7" y1="491.8" x2="431.2" y2="495.4"/>
	</g>
	<g id="LINE_258_">
		<line class="st15" x1="423" y1="491.3" x2="423.7" y2="489.1"/>
	</g>
	<g id="LINE_259_">
		<line class="st15" x1="437.5" y1="484.6" x2="438.2" y2="482.3"/>
	</g>
	<g id="LINE_260_">
		<line class="st15" x1="436.9" y1="486.9" x2="436.9" y2="489.5"/>
	</g>
	<g id="LINE_261_">
		<line class="st15" x1="436.9" y1="493.5" x2="436.9" y2="498.4"/>
	</g>
	<g id="LINE_262_">
		<line class="st15" x1="488.4" y1="477" x2="517.9" y2="467.5"/>
	</g>
	<g id="LINE_263_">
		<line class="st15" x1="488.4" y1="481.8" x2="521.6" y2="471.1"/>
	</g>
	<g id="LINE_264_">
		<line class="st15" x1="488.4" y1="472.9" x2="518.3" y2="463.3"/>
	</g>
	<g id="LINE_265_">
		<line class="st15" x1="488.4" y1="470.3" x2="517.4" y2="461"/>
	</g>
	<g id="LINE_266_">
		<line class="st15" x1="488.5" y1="468.2" x2="507.1" y2="462.2"/>
	</g>
	<g id="LINE_267_">
		<line class="st15" x1="481" y1="468.5" x2="485.2" y2="467.2"/>
	</g>
	<g id="LINE_268_">
		<line class="st15" x1="488.4" y1="470.3" x2="488.4" y2="472.9"/>
	</g>
	<g id="LINE_269_">
		<line class="st15" x1="494.6" y1="470.9" x2="496.1" y2="474.5"/>
	</g>
	<g id="LINE_270_">
		<line class="st15" x1="502.3" y1="468.4" x2="503.8" y2="472"/>
	</g>
	<g id="LINE_271_">
		<line class="st15" x1="488.4" y1="477" x2="488.4" y2="481.8"/>
	</g>
	<g id="LINE_272_">
		<line class="st15" x1="485.2" y1="467.2" x2="488.5" y2="468.2"/>
	</g>
	<g id="LINE_273_">
		<line class="st15" x1="507.1" y1="462.2" x2="510.1" y2="463.3"/>
	</g>
</g>
<g>
	<g id="LINE_151_">
		<line class="st11" x1="302.2" y1="100.6" x2="302.2" y2="114.6"/>
	</g>
	<g id="LINE_152_">
		<line class="st11" x1="274.8" y1="100.6" x2="302.2" y2="100.6"/>
	</g>
	<g id="LINE_153_">
		<line class="st11" x1="274.8" y1="100.6" x2="274.8" y2="106"/>
	</g>
	<g id="LINE_154_">
		<line class="st11" x1="274.8" y1="106" x2="265.9" y2="103.2"/>
	</g>
	<g id="LINE_155_">
		<line class="st11" x1="313.9" y1="118.3" x2="302.2" y2="114.6"/>
	</g>
	<g id="LINE_304_">
		<line class="st11" x1="275.8" y1="101.4" x2="301.2" y2="101.4"/>
	</g>
</g>
<g>
	<g id="LINE_102_">
		<line class="st11" x1="394" y1="184" x2="403.3" y2="184"/>
	</g>
	<g id="LINE_103_">
		<line class="st11" x1="394" y1="185.6" x2="403.3" y2="185.6"/>
	</g>
	<g id="LINE_104_">
		<line class="st11" x1="394" y1="190.3" x2="403.3" y2="190.3"/>
	</g>
	<g id="LINE_105_">
		<line class="st11" x1="394" y1="191.8" x2="403.3" y2="191.8"/>
	</g>
	<g id="LINE_106_">
		<line class="st11" x1="394" y1="196.5" x2="403.3" y2="196.5"/>
	</g>
	<g id="LINE_107_">
		<line class="st11" x1="394" y1="198.1" x2="403.3" y2="198.1"/>
	</g>
	<g id="LINE_108_">
		<line class="st11" x1="394" y1="202.8" x2="403.3" y2="202.8"/>
	</g>
	<g id="LINE_109_">
		<line class="st11" x1="394" y1="204.3" x2="403.3" y2="204.3"/>
	</g>
	<g id="LINE_110_">
		<line class="st11" x1="394" y1="209.1" x2="403.3" y2="209.1"/>
	</g>
	<g id="LINE_111_">
		<line class="st11" x1="394" y1="210.6" x2="403.3" y2="210.6"/>
	</g>
	<g id="LINE_112_">
		<line class="st11" x1="394" y1="215.3" x2="403.3" y2="215.3"/>
	</g>
	<g id="LINE_113_">
		<line class="st11" x1="394" y1="216.9" x2="403.3" y2="216.9"/>
	</g>
	<g id="LINE_114_">
		<line class="st11" x1="394" y1="221.6" x2="403.3" y2="221.6"/>
	</g>
	<g id="LINE_115_">
		<line class="st11" x1="394" y1="223.1" x2="403.3" y2="223.1"/>
	</g>
	<g id="LINE_116_">
		<line class="st11" x1="394" y1="227.8" x2="403.3" y2="227.8"/>
	</g>
	<g id="LINE_117_">
		<line class="st11" x1="394" y1="229.4" x2="403.3" y2="229.4"/>
	</g>
	<g id="LINE_118_">
		<line class="st11" x1="394" y1="234.1" x2="403.3" y2="234.1"/>
	</g>
	<g id="LINE_119_">
		<line class="st11" x1="394" y1="235.6" x2="403.3" y2="235.6"/>
	</g>
	<g id="LINE_120_">
		<line class="st11" x1="394" y1="240.4" x2="403.3" y2="240.4"/>
	</g>
	<g id="LINE_121_">
		<line class="st11" x1="394" y1="241.9" x2="403.3" y2="241.9"/>
	</g>
	<g id="LINE_122_">
		<line class="st11" x1="394" y1="246.6" x2="403.3" y2="246.6"/>
	</g>
	<g id="LINE_123_">
		<line class="st11" x1="394" y1="248.2" x2="403.3" y2="248.2"/>
	</g>
	<g id="LINE_124_">
		<line class="st11" x1="394" y1="252.9" x2="403.3" y2="252.9"/>
	</g>
	<g id="LINE_125_">
		<line class="st11" x1="394" y1="254.4" x2="403.3" y2="254.4"/>
	</g>
	<g id="LINE_126_">
		<line class="st11" x1="394" y1="259.1" x2="403.3" y2="259.1"/>
	</g>
	<g id="LINE_127_">
		<line class="st11" x1="394" y1="260.7" x2="403.3" y2="260.7"/>
	</g>
	<g id="LINE_128_">
		<line class="st11" x1="394" y1="265.4" x2="403.3" y2="265.4"/>
	</g>
	<g id="LINE_129_">
		<line class="st11" x1="394" y1="267" x2="403.3" y2="267"/>
	</g>
	<g id="LINE_130_">
		<line class="st11" x1="394" y1="271.7" x2="403.3" y2="271.7"/>
	</g>
	<g id="LINE_131_">
		<line class="st11" x1="394" y1="273.2" x2="403.3" y2="273.2"/>
	</g>
	<g id="LINE_132_">
		<line class="st11" x1="394" y1="277.9" x2="403.3" y2="277.9"/>
	</g>
	<g id="LINE_133_">
		<line class="st11" x1="394" y1="279.5" x2="403.3" y2="279.5"/>
	</g>
	<g id="LINE_134_">
		<line class="st11" x1="394" y1="284.2" x2="403.3" y2="284.2"/>
	</g>
	<g id="LINE_135_">
		<line class="st11" x1="394" y1="285.7" x2="403.3" y2="285.7"/>
	</g>
	<g id="LINE_136_">
		<line class="st11" x1="394" y1="318.7" x2="403.3" y2="318.7"/>
	</g>
	<g id="LINE_137_">
		<line class="st11" x1="394" y1="320.2" x2="403.3" y2="320.2"/>
	</g>
	<g id="LINE_138_">
		<line class="st11" x1="394" y1="324.9" x2="403.3" y2="324.9"/>
	</g>
	<g id="LINE_139_">
		<line class="st11" x1="394" y1="326.5" x2="403.3" y2="326.5"/>
	</g>
	<g id="LINE_140_">
		<line class="st11" x1="394" y1="331.2" x2="403.3" y2="331.2"/>
	</g>
	<g id="LINE_141_">
		<line class="st11" x1="394" y1="332.7" x2="403.3" y2="332.7"/>
	</g>
	<g id="LINE_142_">
		<line class="st11" x1="394" y1="337.5" x2="403.3" y2="337.5"/>
	</g>
	<g id="LINE_143_">
		<line class="st11" x1="394" y1="339" x2="403.3" y2="339"/>
	</g>
	<g id="LINE_144_">
		<line class="st11" x1="394" y1="343.7" x2="403.3" y2="343.7"/>
	</g>
	<g id="LINE_145_">
		<line class="st11" x1="394" y1="345.3" x2="403.3" y2="345.3"/>
	</g>
	<g id="POLYLINE_58_">
		<polyline class="st11" points="332.2,334.4 332.2,268.9 245.4,268.9 245.4,334.4 		"/>
	</g>
	<g id="POLYLINE_59_">
		<polyline class="st11" points="349.2,341.6 349.2,334.4 228,334.4 228,341.6 		"/>
	</g>
	<g id="LINE_274_">
		<line class="st11" x1="390.9" y1="341.6" x2="106.8" y2="341.6"/>
	</g>
	<g id="LINE_275_">
		<line class="st11" x1="389.3" y1="350.5" x2="389.3" y2="341.6"/>
	</g>
	<g id="LINE_309_">
		<line class="st11" x1="384" y1="153.8" x2="384" y2="290.1"/>
	</g>
	<g id="LINE_310_">
		<line class="st11" x1="390.9" y1="153.8" x2="390.9" y2="290.1"/>
	</g>
	<g>
		<g id="LINE">
			<line class="st11" x1="456.2" y1="168.8" x2="356" y2="137.2"/>
		</g>
		<g id="LINE_1_">
			<line class="st11" x1="456.2" y1="167.1" x2="356.6" y2="135.7"/>
		</g>
		<g id="LINE_2_">
			<line class="st11" x1="457.7" y1="178" x2="457.7" y2="164.5"/>
		</g>
		<g id="LINE_3_">
			<line class="st11" x1="456.2" y1="178" x2="456.2" y2="164.1"/>
		</g>
		<g id="LINE_4_">
			<line class="st11" x1="351" y1="135.6" x2="301.2" y2="119.9"/>
		</g>
		<g id="LINE_5_">
			<line class="st11" x1="351.6" y1="134.1" x2="301.2" y2="118.2"/>
		</g>
		<g id="LINE_6_">
			<line class="st11" x1="106.8" y1="118.7" x2="202.1" y2="88.7"/>
		</g>
		<g id="LINE_7_">
			<line class="st11" x1="106.8" y1="117" x2="202.1" y2="87"/>
		</g>
		<g id="LINE_8_">
			<line class="st11" x1="229" y1="97.2" x2="202.1" y2="88.7"/>
		</g>
		<g id="LINE_9_">
			<line class="st11" x1="229.6" y1="95.7" x2="202.1" y2="87"/>
		</g>
		<g id="LINE_10_">
			<line class="st11" x1="275.8" y1="110.2" x2="234.6" y2="97.2"/>
		</g>
		<g id="LINE_11_">
			<line class="st11" x1="275.8" y1="111.9" x2="234" y2="98.7"/>
		</g>
		<g id="LINE_276_">
			<line class="st11" x1="279" y1="268.9" x2="279" y2="52.3"/>
		</g>
		<g id="LINE_277_">
			<line class="st11" x1="298.3" y1="268.9" x2="298.3" y2="52.3"/>
		</g>
		<g id="LINE_278_">
			<line class="st11" x1="275.8" y1="52.3" x2="301.2" y2="52.3"/>
		</g>
		<g id="LINE_279_">
			<line class="st11" x1="275.8" y1="28.5" x2="301.2" y2="28.5"/>
		</g>
		<g id="LINE_280_">
			<line class="st11" x1="275.8" y1="52.3" x2="275.8" y2="28.5"/>
		</g>
		<g id="LINE_281_">
			<line class="st11" x1="301.2" y1="52.3" x2="301.2" y2="28.5"/>
		</g>
		<g id="LINE_282_">
			<line class="st11" x1="106.8" y1="147.1" x2="209.2" y2="147.1"/>
		</g>
		<g id="LINE_283_">
			<line class="st11" x1="106.8" y1="153.8" x2="209.2" y2="153.8"/>
		</g>
		<g id="LINE_284_">
			<line class="st11" x1="456.2" y1="176.6" x2="390.9" y2="156"/>
		</g>
		<g id="LINE_285_">
			<line class="st11" x1="457.7" y1="164.5" x2="357.7" y2="133"/>
		</g>
		<g id="LINE_286_">
			<line class="st11" x1="457.7" y1="172.5" x2="467.1" y2="172.5"/>
		</g>
		<g id="LINE_287_">
			<line class="st11" x1="467.1" y1="172.5" x2="467.1" y2="166.3"/>
		</g>
		<g id="LINE_288_">
			<line class="st11" x1="450.4" y1="174.7" x2="390.9" y2="174.7"/>
		</g>
		<g id="LINE_289_">
			<line class="st11" x1="457.7" y1="178" x2="390.9" y2="178"/>
		</g>
		<g id="LINE_290_">
			<line class="st11" x1="348.2" y1="142.5" x2="301.2" y2="127.7"/>
		</g>
		<g id="LINE_291_">
			<line class="st11" x1="351.9" y1="147.1" x2="362.8" y2="147.1"/>
		</g>
		<g id="LINE_292_">
			<line class="st11" x1="349.2" y1="153.8" x2="390.9" y2="153.8"/>
		</g>
		<g id="LINE_293_">
			<line class="st11" x1="352.7" y1="131.5" x2="301.2" y2="115.2"/>
		</g>
		<g id="LINE_294_">
			<line class="st11" x1="202.1" y1="96.5" x2="202.1" y2="88.7"/>
		</g>
		<g id="LINE_295_">
			<line class="st11" x1="106.8" y1="126.5" x2="202.1" y2="96.5"/>
		</g>
		<g id="LINE_296_">
			<line class="st11" x1="106.8" y1="114" x2="202.1" y2="84"/>
		</g>
		<g id="LINE_297_">
			<line class="st11" x1="226.2" y1="104" x2="202.1" y2="96.5"/>
		</g>
		<g id="LINE_298_">
			<line class="st11" x1="230.7" y1="93" x2="202.1" y2="84"/>
		</g>
		<g id="LINE_299_">
			<line class="st11" x1="214.5" y1="153.8" x2="275.8" y2="153.8"/>
		</g>
		<g id="LINE_300_">
			<line class="st11" x1="214.5" y1="147.1" x2="275.8" y2="147.1"/>
		</g>
		<g id="LINE_301_">
			<line class="st11" x1="275.8" y1="101.4" x2="275.8" y2="167.9"/>
		</g>
		<g id="LINE_302_">
			<line class="st11" x1="301.2" y1="101.4" x2="301.2" y2="167.9"/>
		</g>
		<g id="LINE_303_">
			<line class="st11" x1="275.8" y1="167.9" x2="301.2" y2="167.9"/>
		</g>
		<g id="LINE_305_">
			<line class="st11" x1="301.2" y1="147.1" x2="346.3" y2="147.1"/>
		</g>
		<g id="LINE_306_">
			<line class="st11" x1="301.2" y1="153.8" x2="343.6" y2="153.8"/>
		</g>
		<g id="LINE_307_">
			<line class="st11" x1="275.8" y1="107.2" x2="235.7" y2="94.5"/>
		</g>
		<g id="LINE_308_">
			<line class="st11" x1="275.8" y1="119.7" x2="231.1" y2="105.6"/>
		</g>
		<g id="LINE_311_">
			<line class="st11" x1="384" y1="153.8" x2="353.2" y2="144.1"/>
		</g>
	</g>
	<g id="LINE_312_">
		<line class="st11" x1="332.2" y1="293" x2="414.4" y2="293"/>
	</g>
	<g id="LINE_313_">
		<line class="st11" x1="332.2" y1="309.9" x2="414.4" y2="309.9"/>
	</g>
	<g id="LINE_314_">
		<line class="st11" x1="375.2" y1="290.1" x2="411" y2="290.1"/>
	</g>
	<g id="LINE_315_">
		<line class="st11" x1="375.2" y1="312.8" x2="411" y2="312.8"/>
	</g>
	<g id="LINE_316_">
		<line class="st11" x1="375.2" y1="312.8" x2="375.2" y2="290.1"/>
	</g>
	<g id="LINE_317_">
		<line class="st11" x1="411" y1="312.8" x2="411" y2="290.1"/>
	</g>
	<g id="LINE_318_">
		<line class="st11" x1="414.4" y1="309.9" x2="414.4" y2="293"/>
	</g>
	<g id="LINE_319_">
		<line class="st11" x1="384" y1="312.8" x2="384" y2="341.6"/>
	</g>
	<g id="LINE_320_">
		<line class="st11" x1="390.9" y1="312.8" x2="390.9" y2="341.6"/>
	</g>
	<g id="LINE_321_">
		<line class="st11" x1="394" y1="178" x2="394" y2="290.1"/>
	</g>
	<g id="LINE_322_">
		<line class="st11" x1="403.3" y1="178" x2="403.3" y2="290.1"/>
	</g>
	<g id="LINE_323_">
		<line class="st11" x1="394" y1="312.8" x2="394" y2="350.5"/>
	</g>
	<g id="LINE_324_">
		<line class="st11" x1="403.3" y1="312.8" x2="403.3" y2="350.5"/>
	</g>
</g>
<g>
	<g id="LINE_232_">
		<line class="st15" x1="286.3" y1="395.2" x2="282.4" y2="395.2"/>
	</g>
	<g id="LINE_233_">
		<line class="st15" x1="315.1" y1="395.2" x2="319" y2="395.2"/>
	</g>
	<g>
		<g id="LINE_224_">
			<line class="st15" x1="315.1" y1="395.2" x2="315.1" y2="548.3"/>
		</g>
		<g id="LINE_225_">
			<line class="st15" x1="286.3" y1="395.2" x2="286.3" y2="548.3"/>
		</g>
		<g id="LINE_226_">
			<line class="st15" x1="282.4" y1="395.2" x2="282.4" y2="498.2"/>
		</g>
		<g id="LINE_227_">
			<line class="st15" x1="278.5" y1="428.8" x2="278.5" y2="498.2"/>
		</g>
		<g id="LINE_228_">
			<line class="st15" x1="275.9" y1="477.6" x2="230.2" y2="477.6"/>
		</g>
		<g id="LINE_229_">
			<line class="st15" x1="275.9" y1="474.2" x2="230.2" y2="474.2"/>
		</g>
		<g id="LINE_230_">
			<line class="st15" x1="319" y1="395.2" x2="319" y2="496"/>
		</g>
		<g id="LINE_231_">
			<line class="st15" x1="322.9" y1="428.8" x2="322.9" y2="496"/>
		</g>
		<g id="LINE_234_">
			<line class="st15" x1="278.5" y1="480.3" x2="265.3" y2="480.3"/>
		</g>
		<g id="LINE_235_">
			<line class="st15" x1="275.9" y1="477.6" x2="275.9" y2="467"/>
		</g>
		<g id="LINE_236_">
			<line class="st15" x1="269.8" y1="474.2" x2="269.8" y2="467"/>
		</g>
		<g id="LINE_237_">
			<line class="st15" x1="269.8" y1="467" x2="275.9" y2="467"/>
		</g>
		<g id="LINE_238_">
			<line class="st15" x1="325.5" y1="477.6" x2="371.1" y2="477.6"/>
		</g>
		<g id="LINE_239_">
			<line class="st15" x1="325.5" y1="474.2" x2="371.1" y2="474.2"/>
		</g>
		<g id="LINE_240_">
			<line class="st15" x1="322.9" y1="480.3" x2="336.1" y2="480.3"/>
		</g>
		<g id="LINE_241_">
			<line class="st15" x1="325.5" y1="477.6" x2="325.5" y2="467"/>
		</g>
		<g id="LINE_242_">
			<line class="st15" x1="331.6" y1="474.2" x2="331.6" y2="467"/>
		</g>
		<g id="LINE_243_">
			<line class="st15" x1="331.6" y1="467" x2="325.5" y2="467"/>
		</g>
	</g>
</g>
<g id="MTEXT_49_">
	<text transform="matrix(1 0 0 1 288.7457 426.2438)"><tspan x="0" y="0" class="st13 st14">Flue </tspan><tspan x="0" y="14.4" class="st13 st14">pipe</tspan></text>
</g>
<g id="MTEXT_1_">
	<text transform="matrix(1 0 0 1 450.7559 426.2438)"><tspan x="0" y="0" class="st13 st14">Flue </tspan><tspan x="0" y="14.4" class="st13 st14">pipe</tspan></text>
</g>
<g id="LINE_168_">
	<g>
		<g>
			<g>
				<g>
					<line class="st6" x1="364.5" y1="504.9" x2="364.5" y2="512.5"/>
					<g>
						<polygon class="st7" points="361.6,506.9 364.5,496 367.5,506.9 						"/>
					</g>
				</g>
			</g>
		</g>
	</g>
</g>
<g id="LINE_330_">
	<line class="st8" x1="282.4" y1="508.2" x2="286.3" y2="508.2"/>
</g>
<g id="LINE_332_">
	<g>
		<g>
			<g>
				<g>
					<line class="st6" x1="354.9" y1="530" x2="344.9" y2="530"/>
					<g>
						<polygon class="st7" points="346.9,527.1 336.1,530 346.9,532.9 						"/>
					</g>
				</g>
			</g>
		</g>
	</g>
</g>
<g id="LINE_177_">
	<g>
		<g>
			<g>
				<g>
					<line class="st6" x1="305" y1="522.4" x2="295.1" y2="522.4"/>
					<g>
						<polygon class="st7" points="297.1,519.5 286.3,522.4 297.1,525.3 						"/>
					</g>
				</g>
			</g>
		</g>
	</g>
</g>
<g id="LINE_334_">
	<line class="st8" x1="481" y1="515.2" x2="488.5" y2="515.2"/>
</g>
<g id="LINE_187_">
	<g>
		<g>
			<g>
				<g>
					<line class="st6" x1="52.7" y1="465.7" x2="52.7" y2="440.9"/>
					<g>
						<polygon class="st7" points="55.6,463.7 52.7,474.6 49.8,463.7 						"/>
					</g>
				</g>
			</g>
		</g>
	</g>
</g>
</svg>
