<?xml version="1.0" encoding="utf-8"?>
<!-- Generator: Adobe Illustrator 26.3.1, SVG Export Plug-In . SVG Version: 6.00 Build 0)  -->
<svg version="1.1" xmlns="http://www.w3.org/2000/svg" xmlns:xlink="http://www.w3.org/1999/xlink" x="0px" y="0px"
	 viewBox="0 0 552.76 463.95" style="enable-background:new 0 0 552.76 463.95;" xml:space="preserve">
<style type="text/css">
	.st0{fill:none;stroke:#231F20;stroke-miterlimit:10;}
	.st1{fill:none;stroke:#231F20;stroke-width:0.75;stroke-miterlimit:10;}
	.st2{fill:none;stroke:#231F20;stroke-miterlimit:10;stroke-dasharray:23.8103,10.4765;}
	.st3{fill:none;stroke:#231F20;stroke-miterlimit:10;stroke-dasharray:4.7621,10.4765,23.8103,10.4765;}
	.st4{fill:none;stroke:#231F20;stroke-width:0.75;stroke-miterlimit:10;stroke-dasharray:4,2;}
	.st5{fill:none;stroke:#231F20;stroke-width:0.75;stroke-miterlimit:10;stroke-dasharray:12,6;}
	.st6{fill:none;stroke:#000000;stroke-width:1.2085;stroke-linecap:round;stroke-linejoin:round;stroke-miterlimit:10;}
	.st7{fill:none;stroke:#231F20;stroke-width:0.25;stroke-miterlimit:10;}
	.st8{fill:#231F20;}
	.st9{font-family:'ArialMT';}
	.st10{font-size:12px;}
	.st11{font-family:'Arial-BoldMT';}
	.st12{fill:none;stroke:#000000;stroke-width:0;stroke-linecap:round;stroke-linejoin:round;stroke-miterlimit:10;}
	.st13{font-size:11.7344px;}
</style>
<g id="Defpoints">
</g>
<g id="LINE_18_centre">
	<polyline class="st0" points="355.67,319.66 355.67,314.93 350.47,314.93 350.47,308.78 355.67,308.78 355.67,304.05 	"/>
	<g id="LWPOLYLINE_3_">
		<g>
			<rect x="370.62" y="156.27" class="st0" width="153.13" height="75.1"/>
		</g>
	</g>
	<g>
		<g id="ELLIPSE_33_">
			<path class="st1" d="M394.78,324.85c1.14,0,2.06,1.93,2.06,4.32c0,2.39-0.92,4.32-2.06,4.32"/>
		</g>
		<g id="ELLIPSE_32_">
			<path class="st1" d="M394.78,333.49c1.14,0,2.06,1.93,2.06,4.32s-0.92,4.32-2.06,4.32c-1.14,0-2.06-1.93-2.06-4.32
				S393.64,333.49,394.78,333.49L394.78,333.49z"/>
		</g>
	</g>
	<g id="LINE_221_">
		<g id="LINE_2_">
			<g>
				<g>
					<g>
						<line class="st0" x1="106.85" y1="333.49" x2="109.35" y2="333.49"/>
						<line class="st2" x1="119.83" y1="333.49" x2="148.88" y2="333.49"/>
						<line class="st3" x1="154.11" y1="333.49" x2="396.5" y2="333.49"/>
						<line class="st0" x1="401.74" y1="333.49" x2="404.24" y2="333.49"/>
					</g>
				</g>
			</g>
		</g>
	</g>
	<g id="ELLIPSE_31_">
		<path class="st1" d="M394.78,104.34c1.04,0,1.89-1.93,1.89-4.32s-0.85-4.32-1.89-4.32"/>
	</g>
	<g id="ELLIPSE_30_">
		<path class="st1" d="M394.78,104.34c-1.04,0-1.89,1.93-1.89,4.32c0,2.39,0.85,4.32,1.89,4.32c1.04,0,1.89-1.93,1.89-4.32
			C396.67,106.27,395.82,104.34,394.78,104.34L394.78,104.34z"/>
	</g>
	<g>
		<g id="ELLIPSE_28_">
			<g>
				<path class="st1" d="M161.59,32.96c0,1.11,1.93,2,4.32,2c2.39,0,4.32-0.9,4.32-2c0-1.11-1.93-2-4.32-2
					C163.53,30.96,161.59,31.85,161.59,32.96L161.59,32.96z"/>
			</g>
		</g>
		<g id="ELLIPSE_26_">
			<g>
				<path class="st1" d="M178.87,32.96c0-1.11-1.93-2-4.32-2c-2.39,0-4.32,0.9-4.32,2"/>
			</g>
		</g>
	</g>
	<g>
		<g id="ELLIPSE_25_">
			<path class="st4" d="M117.79,87.06c-1.14,0-2.06,1.93-2.06,4.32c0,2.39,0.92,4.32,2.06,4.32"/>
		</g>
		<g id="ELLIPSE_24_">
			<path class="st4" d="M117.79,95.7c-1.14,0-2.06,1.93-2.06,4.32s0.92,4.32,2.06,4.32c1.14,0,2.06-1.93,2.06-4.32
				S118.93,95.7,117.79,95.7L117.79,95.7z"/>
		</g>
	</g>
	<g>
		<g id="ELLIPSE_23_">
			<path class="st4" d="M117.93,324.85c-1.14,0-2.06,1.93-2.06,4.32c0,2.39,0.92,4.32,2.06,4.32"/>
		</g>
		<g id="ELLIPSE_14_">
			<path class="st4" d="M117.93,333.49c-1.14,0-2.06,1.93-2.06,4.32s0.92,4.32,2.06,4.32c1.14,0,2.06-1.93,2.06-4.32
				S119.07,333.49,117.93,333.49L117.93,333.49z"/>
		</g>
	</g>
	<g>
		<g id="LINE_219_">
			<g>
				<line class="st5" x1="120.3" y1="112.98" x2="351.69" y2="112.98"/>
			</g>
		</g>
		<g id="LINE_217_">
			<g>
				<line class="st5" x1="149.32" y1="104.34" x2="117.79" y2="104.34"/>
			</g>
		</g>
		<g id="LINE_215_">
			<g>
				<line class="st5" x1="149.32" y1="87.06" x2="117.79" y2="87.06"/>
			</g>
		</g>
		<g id="LINE_213_">
			<g>
				<line class="st5" x1="149.32" y1="324.85" x2="117.93" y2="324.85"/>
			</g>
		</g>
		<g id="LINE_211_">
			<g>
				<line class="st5" x1="149.32" y1="342.12" x2="117.93" y2="342.12"/>
			</g>
		</g>
	</g>
	<g>
		<g id="LINE_210_">
			<line class="st4" x1="178.87" y1="58.75" x2="161.59" y2="58.75"/>
		</g>
		<g id="LINE_209_">
			<line class="st4" x1="178.87" y1="61.15" x2="161.59" y2="61.15"/>
		</g>
	</g>
	<g id="CIRCLE_2_">
		<path class="st4" d="M373,333.49c0-1.54,1.25-2.79,2.79-2.79c1.54,0,2.79,1.25,2.79,2.79c0,1.54-1.25,2.79-2.79,2.79
			C374.25,336.27,373,335.02,373,333.49L373,333.49z"/>
	</g>
	<g>
		<g>
			<g>
				<g id="LINE_208_">
					<line class="st0" x1="252.97" y1="398.27" x2="252.97" y2="268.7"/>
				</g>
				<g id="LINE_207_">
					<line class="st0" x1="201.14" y1="398.27" x2="201.14" y2="268.7"/>
				</g>
				<g id="LINE_206_">
					<line class="st0" x1="304.79" y1="398.27" x2="304.79" y2="268.7"/>
				</g>
			</g>
			<polygon class="st0" points="356.62,398.27 356.62,398.27 356.62,268.7 149.32,268.7 149.32,398.27 			"/>
		</g>
		<g>
			<g id="LINE_205_">
				<line class="st0" x1="359.94" y1="324.85" x2="359.94" y2="342.12"/>
			</g>
			<g id="LINE_204_">
				<line class="st0" x1="356.62" y1="324.85" x2="394.78" y2="324.85"/>
			</g>
			<g id="LINE_203_">
				<line class="st0" x1="356.62" y1="342.12" x2="394.78" y2="342.12"/>
			</g>
		</g>
	</g>
	<g id="LINE_202_">
		<line class="st6" x1="237.44" y1="61.15" x2="234.93" y2="61.15"/>
	</g>
	<g id="LINE_201_">
		<g>
			<g>
				<line class="st7" x1="242.78" y1="276.35" x2="242.78" y2="368.34"/>
				<g>
					<polygon class="st8" points="240.6,277.83 242.78,269.7 244.96,277.83 					"/>
				</g>
			</g>
		</g>
	</g>
	<g id="LINE_200_">
		<g>
			<g>
				<line class="st7" x1="242.78" y1="379.8" x2="242.78" y2="391.62"/>
				<g>
					<polygon class="st8" points="240.6,390.14 242.78,398.27 244.96,390.14 					"/>
				</g>
			</g>
		</g>
	</g>
	<g id="LINE_199_">
		<g>
			<g>
				<line class="st7" x1="155.96" y1="373.57" x2="349.97" y2="373.57"/>
				<g>
					<polygon class="st8" points="157.45,375.75 149.32,373.57 157.45,371.39 					"/>
				</g>
				<g>
					<polygon class="st8" points="348.49,375.75 356.62,373.57 348.49,371.39 					"/>
				</g>
			</g>
		</g>
	</g>
	<g>
		<g id="MTEXT_132_">
			<g>
				<text transform="matrix(1 0 0 1 415.8236 315.4443)" class="st8 st9 st10">A</text>
			</g>
		</g>
		<g id="MTEXT_118_">
			<g>
				<text transform="matrix(1 0 0 1 88.3089 314.4443)" class="st8 st9 st10">A</text>
			</g>
		</g>
		<g id="MTEXT_116_">
			<g>
				<text transform="matrix(0 -1 1 0 239.3099 321.041)" class="st8 st9 st10">450</text>
			</g>
		</g>
		<g id="MTEXT_114_">
			<g>
				<text transform="matrix(1 0 0 1 260.1292 370.1064)" class="st8 st9 st10">750</text>
			</g>
		</g>
	</g>
	<g>
		<g id="MTEXT_112_">
			<g>
				<text transform="matrix(1 0 0 1 260.045 417.6045)"><tspan x="0" y="0" class="st8 st11 st10">PLAN</tspan><tspan x="-31.35" y="14.4" class="st8 st11 st10">(Cover removed)</tspan></text>
			</g>
		</g>
		<g id="MTEXT_106_">
			<g>
				<text transform="matrix(1 0 0 1 237.1805 236.2979)" class="st8 st11 st10">SECTION A-A</text>
			</g>
		</g>
	</g>
	<g>
		<g id="LINE_198_">
			<g>
				<g>
					<line class="st7" x1="238.25" y1="119.62" x2="238.25" y2="209.98"/>
					<g>
						<polygon class="st8" points="236.08,121.11 238.25,112.98 240.43,121.11 						"/>
					</g>
					<g>
						<polygon class="st8" points="236.08,208.5 238.25,216.63 240.43,208.5 						"/>
					</g>
				</g>
			</g>
		</g>
		<g id="LINE_197_">
			<g>
				<g>
					<line class="st7" x1="238.25" y1="106.33" x2="238.25" y2="67.79"/>
					<g>
						<polygon class="st8" points="240.43,104.84 238.25,112.98 236.08,104.84 						"/>
					</g>
					<g>
						<polygon class="st8" points="240.43,69.28 238.25,61.15 236.08,69.28 						"/>
					</g>
				</g>
			</g>
		</g>
		<g id="LINE_196_">
			<g>
				<g>
					<line class="st7" x1="193.62" y1="188.72" x2="193.62" y2="209.98"/>
					<g>
						<polygon class="st8" points="191.45,190.21 193.62,182.08 195.8,190.21 						"/>
					</g>
					<g>
						<polygon class="st8" points="191.45,208.5 193.62,216.63 195.8,208.5 						"/>
					</g>
				</g>
			</g>
		</g>
		<g id="LINE_195_">
			<g>
				<g>
					<line class="st7" x1="317.61" y1="188.72" x2="317.61" y2="209.98"/>
					<g>
						<polygon class="st8" points="315.43,190.21 317.61,182.08 319.79,190.21 						"/>
					</g>
					<g>
						<polygon class="st8" points="315.43,208.5 317.61,216.63 319.79,208.5 						"/>
					</g>
				</g>
			</g>
		</g>
	</g>
	<g>
		<g id="LINE_194_">
			<g>
				<g>
					<line class="st7" x1="193.82" y1="106.27" x2="193.82" y2="97.36"/>
					<g>
						<polygon class="st8" points="196,104.78 193.82,112.91 191.65,104.78 						"/>
					</g>
				</g>
			</g>
		</g>
		<g id="LINE_193_">
			<g>
				<g>
					<line class="st7" x1="193.82" y1="136.34" x2="193.82" y2="145.87"/>
					<g>
						<polygon class="st8" points="191.65,137.83 193.82,129.69 196,137.83 						"/>
					</g>
				</g>
			</g>
		</g>
	</g>
	<g>
		<g id="LINE_192_">
			<g>
				<g>
					<line class="st7" x1="110.42" y1="97.69" x2="110.42" y2="87.72"/>
					<g>
						<polygon class="st8" points="112.6,96.21 110.42,104.34 108.24,96.21 						"/>
					</g>
				</g>
			</g>
		</g>
		<g id="LINE_191_">
			<g>
				<g>
					<line class="st7" x1="110.42" y1="119.62" x2="110.42" y2="129.59"/>
					<g>
						<polygon class="st8" points="108.24,121.11 110.42,112.98 112.6,121.11 						"/>
					</g>
				</g>
			</g>
		</g>
	</g>
	<g id="MTEXT_88_">
		<g>
			<text transform="matrix(0 -1 1 0 101.971 115.041)" class="st8 st9 st10">25</text>
		</g>
	</g>
	<g>
		<g id="LINE_190_">
			<g>
				<g>
					<line class="st7" x1="339.76" y1="97.69" x2="339.76" y2="87.72"/>
					<g>
						<polygon class="st8" points="341.94,96.21 339.76,104.34 337.58,96.21 						"/>
					</g>
				</g>
			</g>
		</g>
		<g id="LINE_189_">
			<g>
				<g>
					<line class="st7" x1="339.76" y1="119.62" x2="339.76" y2="129.59"/>
					<g>
						<polygon class="st8" points="337.58,121.11 339.76,112.98 341.94,121.11 						"/>
					</g>
				</g>
			</g>
		</g>
	</g>
	<g>
		<g id="MTEXT_126_">
			<g>
				<text transform="matrix(0 -1 1 0 234.7875 179.2276)" class="st8 st9 st10">300</text>
			</g>
		</g>
		<g id="MTEXT_124_">
			<g>
				<text transform="matrix(0 -1 1 0 234.7904 97.0869)" class="st8 st9 st10">150</text>
			</g>
		</g>
		<g id="MTEXT_122_">
			<g>
				<text transform="matrix(0 -1 1 0 249.8871 96.3906)" class="st8 st9 st10">min</text>
			</g>
		</g>
		<g id="MTEXT_96_">
			<g>
				<text transform="matrix(1 0 0 1 263.1751 110.2109)" class="st8 st9 st10">Outlet </text>
				<text transform="matrix(1 0 0 1 266.9964 124.0586)" class="st8 st9 st10">level</text>
			</g>
		</g>
		<g id="MTEXT_94_">
			<g>
				<text transform="matrix(0 -1 1 0 188.1595 209.375)" class="st8 st9 st10">100</text>
			</g>
		</g>
		<g id="MTEXT_92_">
			<g>
				<text transform="matrix(0 -1 1 0 312.1468 209.375)" class="st8 st9 st10">100</text>
			</g>
		</g>
		<g id="MTEXT_90_">
			<g>
				<text transform="matrix(0 -1 1 0 191.2005 127.3027)" class="st8 st9 st10">50</text>
			</g>
		</g>
		<g id="MTEXT_80_">
			<g>
				<text transform="matrix(0 -1 1 0 335.2874 101.0977)" class="st8 st9 st10">25</text>
			</g>
		</g>
	</g>
	<g>
		<g id="LINE_187_">
			<g>
				<line class="st7" x1="197.82" y1="182.08" x2="190.3" y2="182.08"/>
			</g>
		</g>
		<g id="LINE_185_">
			<g>
				<line class="st7" x1="308.12" y1="182.08" x2="320.93" y2="182.08"/>
			</g>
		</g>
		<g id="LINE_181_">
			<g>
				<line class="st7" x1="182.19" y1="130.25" x2="197.15" y2="130.25"/>
			</g>
		</g>
		<g id="LINE_180_">
			<line class="st7" x1="193.82" y1="112.98" x2="193.82" y2="130.25"/>
		</g>
		<g id="LINE_178_">
			<g>
				<line class="st7" x1="114.47" y1="104.34" x2="107.1" y2="104.34"/>
			</g>
		</g>
		<g id="LINE_176_">
			<g>
				<line class="st7" x1="116.98" y1="112.98" x2="107.1" y2="112.98"/>
			</g>
		</g>
		<g id="LINE_174_">
			<g>
				<line class="st7" x1="110.42" y1="104.34" x2="110.42" y2="112.98"/>
			</g>
		</g>
		<g id="LINE_172_">
			<g>
				<line class="st7" x1="347.14" y1="104.34" x2="336.44" y2="104.34"/>
			</g>
		</g>
		<g id="LINE_170_">
			<g>
				<line class="st7" x1="339.76" y1="104.34" x2="339.76" y2="112.98"/>
			</g>
		</g>
	</g>
	<g>
		<g id="MTEXT_130_">
			<g>
				<text transform="matrix(1 0 0 1 28.347 52.21)" class="st8 st9 st10">Inlet pipe</text>
			</g>
		</g>
		<g id="MTEXT_128_">
			<g>
				<text transform="matrix(1 0 0 1 28.472 175.5508)" class="st8 st9 st10">Fixed baffle </text>
			</g>
		</g>
		<g id="MTEXT_110_">
			<g>
				<text transform="matrix(1 0 0 1 402.9251 41.9951)" class="st8 st9 st10">Cover </text>
			</g>
		</g>
		<g id="MTEXT_104_">
			<g>
				<text transform="matrix(1 0 0 1 402.0746 107.2988)" class="st8 st9 st10">Outlet pipe</text>
			</g>
		</g>
		<g id="MTEXT_98_">
			<g>
				<text transform="matrix(1 0 0 1 29.4437 86.876)"><tspan x="0" y="0" class="st8 st9 st10">Alternative</tspan><tspan x="0" y="14.4" class="st8 st9 st10">position of</tspan><tspan x="0" y="28.8" class="st8 st9 st10">inlet pipe</tspan></text>
			</g>
		</g>
		<g id="MTEXT_38_">
			<g>
				<text transform="matrix(1 0 0 1 403.1664 146.9678)" class="st8 st9 st10">25 Sampling valve</text>
			</g>
		</g>
		<g id="MTEXT_32_">
			<g>
				<text transform="matrix(1 0 0 1 403.2328 74.5762)" class="st8 st9 st10">Test block</text>
			</g>
		</g>
	</g>
	<g>
		<g id="MTEXT_120_">
			<g>
				<text transform="matrix(1 0 0 1 422.0746 336.5605)" class="st8 st9 st10">Outlet pipe</text>
			</g>
		</g>
		<g id="MTEXT_108_">
			<g>
				<text transform="matrix(1 0 0 1 402.5511 262.9092)" class="st8 st9 st10">Fixed baffles</text>
			</g>
		</g>
		<g id="MTEXT_101_">
			<g>
				<text transform="matrix(1 0 0 1 402.6595 290.6992)" class="st8 st9 st10">Bracket</text>
			</g>
		</g>
		<g id="MTEXT_99_">
			<g>
				<text transform="matrix(1 0 0 1 402.5511 372.3867)" class="st8 st9 st10">Fixed grating</text>
			</g>
		</g>
		<g id="MTEXT_30_">
			<g>
				<text transform="matrix(1 0 0 1 28.7416 318.1752)"><tspan x="0" y="0" class="st8 st9 st10">Alternative</tspan><tspan x="0" y="14.4" class="st8 st9 st10">position of</tspan><tspan x="0" y="28.8" class="st8 st9 st10">inlet pipe</tspan></text>
			</g>
		</g>
	</g>
	<g>
		<g>
			<g>
				<line class="st7" x1="154.95" y1="49.21" x2="86.14" y2="49.21"/>
				<g>
					<polygon class="st8" points="153.46,47.03 161.59,49.21 153.46,51.38 					"/>
				</g>
			</g>
		</g>
		<g>
			<g>
				<line class="st7" x1="194.49" y1="171.39" x2="96.47" y2="171.39"/>
				<g>
					<polygon class="st8" points="193.01,169.21 201.14,171.39 193.01,173.57 					"/>
				</g>
			</g>
		</g>
	</g>
	<g>
		<g>
			<g>
				<polyline class="st7" points="337.38,52.11 337.38,38.15 399.31,38.15 				"/>
				<g>
					<polygon class="st8" points="339.55,50.62 337.38,58.75 335.2,50.62 					"/>
				</g>
			</g>
		</g>
		<g>
			<g>
				<polyline class="st7" points="383.43,135.24 391.46,143.12 399.31,143.12 				"/>
				<g>
					<polygon class="st8" points="382.96,137.84 378.68,130.59 386.01,134.73 					"/>
				</g>
			</g>
		</g>
		<g>
			<g>
				<polyline class="st7" points="365.27,99.61 391.46,70.87 399.31,70.87 				"/>
				<g>
					<polygon class="st8" points="367.88,99.98 360.8,104.52 364.66,97.04 					"/>
				</g>
			</g>
		</g>
	</g>
	<g>
		<g>
			<g>
				<polyline class="st7" points="364.61,346.82 391.46,369.45 399.31,369.45 				"/>
				<g>
					<polygon class="st8" points="364.34,349.44 359.53,342.54 367.15,346.11 					"/>
				</g>
			</g>
		</g>
		<g>
			<g>
				<g>
					<polyline class="st7" points="207.47,284.15 246.08,259.83 399.31,259.83 					"/>
					<g>
						<polygon class="st8" points="209.89,285.21 201.85,287.7 207.57,281.52 						"/>
					</g>
				</g>
			</g>
			<g>
				<g>
					<line class="st7" x1="311.32" y1="284.15" x2="349.93" y2="259.83"/>
					<g>
						<polygon class="st8" points="313.74,285.21 305.7,287.7 311.42,281.52 						"/>
					</g>
				</g>
			</g>
			<g>
				<g>
					<polyline class="st7" points="362.17,307.09 391.46,287.77 399.31,287.77 					"/>
					<g>
						<polygon class="st8" points="364.61,308.09 356.62,310.75 362.21,304.45 						"/>
					</g>
				</g>
			</g>
			<g id="LINE_169_">
				<g>
					<g>
						<line class="st7" x1="259.5" y1="284.15" x2="298.1" y2="259.83"/>
						<g>
							<polygon class="st8" points="261.92,285.21 253.88,287.7 259.59,281.52 							"/>
						</g>
					</g>
				</g>
			</g>
			<g>
				<g>
					<polyline class="st7" points="405.97,333.49 410.47,333.49 410.47,313.65 					"/>
					<g>
						<polygon class="st8" points="412.65,315.14 410.47,307.01 408.29,315.14 						"/>
					</g>
				</g>
			</g>
			<g>
				<g>
					<g>
						<polyline class="st7" points="106.47,333.49 101.97,333.49 101.97,313.65 						"/>
						<g>
							<polygon class="st8" points="104.15,315.14 101.97,307.01 99.79,315.14 							"/>
						</g>
					</g>
				</g>
			</g>
		</g>
	</g>
	<g id="POINT_84_">
		<line class="st12" x1="216.88" y1="154.44" x2="216.88" y2="154.44"/>
	</g>
	<g id="POINT_83_">
		<line class="st12" x1="209.14" y1="216.63" x2="209.14" y2="216.63"/>
	</g>
	<g id="POINT_82_">
		<line class="st12" x1="219.49" y1="216.63" x2="219.49" y2="216.63"/>
	</g>
	<g id="POINT_81_">
		<line class="st12" x1="238.25" y1="112.98" x2="238.25" y2="112.98"/>
	</g>
	<g id="POINT_80_">
		<line class="st12" x1="234.93" y1="216.63" x2="234.93" y2="216.63"/>
	</g>
	<g id="POINT_79_">
		<line class="st12" x1="238.25" y1="216.63" x2="238.25" y2="216.63"/>
	</g>
	<g id="POINT_78_">
		<line class="st12" x1="238.25" y1="112.98" x2="238.25" y2="112.98"/>
	</g>
	<g id="POINT_77_">
		<line class="st12" x1="240.77" y1="61.15" x2="240.77" y2="61.15"/>
	</g>
	<g id="POINT_76_">
		<line class="st12" x1="238.25" y1="61.15" x2="238.25" y2="61.15"/>
	</g>
	<g id="POINT_75_">
		<line class="st12" x1="252.97" y1="268.7" x2="252.97" y2="268.7"/>
	</g>
	<g id="POINT_74_">
		<line class="st12" x1="252.97" y1="398.27" x2="252.97" y2="398.27"/>
	</g>
	<g id="POINT_73_">
		<line class="st12" x1="242.78" y1="398.27" x2="242.78" y2="398.27"/>
	</g>
	<g id="POINT_72_">
		<line class="st12" x1="149.32" y1="398.27" x2="149.32" y2="398.27"/>
	</g>
	<g id="POINT_71_">
		<line class="st12" x1="356.62" y1="373.57" x2="356.62" y2="373.57"/>
	</g>
	<g id="POINT_70_">
		<line class="st12" x1="201.14" y1="182.08" x2="201.14" y2="182.08"/>
	</g>
	<g id="POINT_69_">
		<line class="st12" x1="199.35" y1="216.63" x2="199.35" y2="216.63"/>
	</g>
	<g id="POINT_68_">
		<line class="st12" x1="193.62" y1="216.63" x2="193.62" y2="216.63"/>
	</g>
	<g id="POINT_67_">
		<line class="st12" x1="304.79" y1="182.08" x2="304.79" y2="182.08"/>
	</g>
	<g id="POINT_66_">
		<line class="st12" x1="303" y1="216.63" x2="303" y2="216.63"/>
	</g>
	<g id="POINT_65_">
		<line class="st12" x1="317.61" y1="216.63" x2="317.61" y2="216.63"/>
	</g>
	<g id="POINT_64_">
		<line class="st12" x1="178.87" y1="112.98" x2="178.87" y2="112.98"/>
	</g>
	<g id="POINT_63_">
		<line class="st12" x1="178.87" y1="130.25" x2="178.87" y2="130.25"/>
	</g>
	<g id="POINT_62_">
		<line class="st12" x1="193.82" y1="130.25" x2="193.82" y2="130.25"/>
	</g>
	<g id="POINT_61_">
		<line class="st12" x1="117.79" y1="104.34" x2="117.79" y2="104.34"/>
	</g>
	<g id="POINT_60_">
		<line class="st12" x1="120.3" y1="112.98" x2="120.3" y2="112.98"/>
	</g>
	<g id="POINT_59_">
		<line class="st12" x1="110.42" y1="112.98" x2="110.42" y2="112.98"/>
	</g>
	<g>
		<g id="LINE_168_">
			<line class="st0" x1="394.78" y1="112.98" x2="378.58" y2="112.98"/>
		</g>
		<g id="LINE_167_">
			<line class="st0" x1="373" y1="112.98" x2="356.62" y2="112.98"/>
		</g>
		<g id="LINE_166_">
			<line class="st0" x1="394.78" y1="95.7" x2="356.62" y2="95.7"/>
		</g>
		<g>
			<g id="LINE_165_">
				<line class="st0" x1="252.97" y1="216.63" x2="252.97" y2="112.98"/>
			</g>
			<g id="LINE_164_">
				<line class="st0" x1="304.79" y1="182.08" x2="304.79" y2="61.15"/>
			</g>
			<g id="LINE_163_">
				<line class="st0" x1="201.14" y1="182.08" x2="201.14" y2="61.15"/>
			</g>
			<line class="st0" x1="178.87" y1="61.15" x2="356.62" y2="61.15"/>
			<polyline class="st0" points="356.62,61.15 356.62,216.63 149.32,216.63 149.32,61.15 161.59,61.15 			"/>
			<polyline class="st0" points="149.32,65.02 146.92,65.02 146.92,58.75 161.59,58.75 			"/>
			<polyline class="st0" points="356.62,65.02 359.02,65.02 359.02,58.75 178.87,58.75 			"/>
			<polyline class="st0" points="161.59,32.96 161.59,130.25 178.87,130.25 178.87,32.96 			"/>
		</g>
		<g id="LINE_162_">
			<line class="st0" x1="359.94" y1="112.98" x2="359.94" y2="95.7"/>
		</g>
		<g id="LINE_161_">
			<line class="st0" x1="373" y1="112.98" x2="373" y2="120.52"/>
		</g>
		<g id="LINE_160_">
			<line class="st0" x1="373" y1="120.52" x2="378.58" y2="120.52"/>
		</g>
		<g id="LINE_146_">
			<line class="st0" x1="378.58" y1="120.52" x2="378.58" y2="112.98"/>
		</g>
		<g id="ARC_2_">
			<path class="st0" d="M378.58,112.98c-1.59-1.42-3.99-1.42-5.58,0"/>
		</g>
		<g id="LINE_145_">
			<line class="st0" x1="373" y1="130.69" x2="378.58" y2="130.69"/>
		</g>
		<g id="LINE_127_">
			<line class="st0" x1="373" y1="130.69" x2="378.58" y2="120.52"/>
		</g>
		<g id="LINE_101_">
			<line class="st0" x1="373" y1="120.52" x2="378.58" y2="130.69"/>
		</g>
		<polyline class="st0" points="351.69,97.9 351.69,95.18 356.62,95.18 		"/>
		<polyline class="st0" points="356.62,124.62 351.69,124.62 351.69,104.34 		"/>
		<polyline class="st0" points="356.62,104.34 350.47,104.34 350.47,97.9 356.62,97.9 		"/>
		<g id="POINT_58_">
			<line class="st12" x1="350.47" y1="104.34" x2="350.47" y2="104.34"/>
		</g>
		<g id="POINT_57_">
			<line class="st12" x1="351.69" y1="112.98" x2="351.69" y2="112.98"/>
		</g>
	</g>
	<g id="POINT_56_">
		<line class="st12" x1="339.76" y1="112.98" x2="339.76" y2="112.98"/>
	</g>
	<text transform="matrix(1 0 0 1 375.6205 169.418)"><tspan x="0" y="0" class="st9 st13">Outlet to:</tspan><tspan x="0" y="14.08" class="st9 st13">• trapped waste &amp;</tspan><tspan x="0" y="28.16" class="st9 st13"> disconnector gully</tspan><tspan x="0" y="42.24" class="st9 st13">• trapped waste &amp; stack</tspan><tspan x="0" y="56.33" class="st9 st13">• trapped waste &amp; 90° bend</tspan></text>
</g>
</svg>
