<?xml version="1.0" encoding="utf-8"?>
<!-- Generator: Adobe Illustrator 25.2.1, SVG Export Plug-In . SVG Version: 6.00 Build 0)  -->
<svg version="1.1" id="_x30_" xmlns="http://www.w3.org/2000/svg" xmlns:xlink="http://www.w3.org/1999/xlink" x="0px" y="0px"
	 viewBox="0 0 552.8 329.9" style="enable-background:new 0 0 552.8 329.9;" xml:space="preserve">
<style type="text/css">
	.st0{fill:none;stroke:#231F20;stroke-width:0.75;stroke-linecap:round;stroke-miterlimit:10;}
	.st1{display:none;}
	.st2{display:inline;}
	.st3{fill:none;stroke:#231F20;stroke-width:0.25;stroke-miterlimit:10;}
	.st4{fill:#231F20;}
	.st5{font-family:'Arial-BoldMT';}
	.st6{font-size:12px;}
	.st7{font-family:'ArialMT';}
	.st8{fill:none;stroke:#231F20;stroke-miterlimit:10;}
</style>
<g>
	<g id="SPLINE">
		<g>
			<path class="st0" d="M263.1,87.5c-0.2,0.1-0.4,0.2-0.6,0.3"/>
		</g>
	</g>
	<g id="SPLINE_1_">
		<g>
			<path class="st0" d="M263.1,83.5c-2.1,1-1.7,1.9,0.8,2.1c2.5,0.2,6.3-0.5,8.4-1.5c1.8-0.9,1.8-1.7,0-2"/>
		</g>
	</g>
	<g id="SPLINE_2_">
		<g>
			<path class="st0" d="M263.1,79.6c-2.1,1-1.7,1.9,0.8,2.1c2.5,0.2,6.3-0.5,8.4-1.5c1.8-0.9,1.8-1.7,0-2"/>
		</g>
	</g>
	<g id="SPLINE_3_">
		<g>
			<path class="st0" d="M263.1,75.6c-2.1,1-1.7,1.9,0.8,2.1c2.5,0.2,6.3-0.5,8.4-1.5c1.8-0.9,1.8-1.7,0-2"/>
		</g>
	</g>
	<g id="SPLINE_4_">
		<g>
			<path class="st0" d="M263.1,71.6c-2.1,1-1.7,1.9,0.8,2.1c2.5,0.2,6.3-0.5,8.4-1.5c1.8-0.9,1.8-1.7,0-2"/>
		</g>
	</g>
	<g id="SPLINE_5_">
		<g>
			<path class="st0" d="M263.1,67.6c-2.1,1-1.7,1.9,0.8,2.1c2.5,0.2,6.3-0.5,8.4-1.5c1.8-0.9,1.8-1.7,0-2"/>
		</g>
	</g>
	<g id="SPLINE_6_">
		<g>
			<path class="st0" d="M263.1,63.6c-2.1,1-1.7,1.9,0.8,2.1c2.5,0.2,6.3-0.5,8.4-1.5c1.8-0.9,1.8-1.7,0-2"/>
		</g>
	</g>
	<g id="SPLINE_7_">
		<g>
			<path class="st0" d="M263.1,59.7c-2.1,1-1.7,1.9,0.8,2.1c2.5,0.2,6.3-0.5,8.4-1.5c1.8-0.9,1.8-1.7,0-2"/>
		</g>
	</g>
	<g id="SPLINE_8_">
		<g>
			<path class="st0" d="M263.1,55.7c-2.1,1-1.7,1.9,0.8,2.1c2.5,0.2,6.3-0.5,8.4-1.5c1.8-0.9,1.8-1.7,0-2"/>
		</g>
	</g>
	<g id="SPLINE_9_">
		<g>
			<path class="st0" d="M263.1,51.7c-2.1,1-1.7,1.9,0.8,2.1c2.5,0.2,6.3-0.5,8.4-1.5c1.8-0.9,1.8-1.7,0-2"/>
		</g>
	</g>
	<g id="LINE">
		<g>
			<line class="st0" x1="267.8" y1="96.6" x2="273.5" y2="87.2"/>
		</g>
	</g>
	<g id="LINE_1_">
		<g>
			<line class="st0" x1="267.8" y1="96.6" x2="263.9" y2="89.6"/>
		</g>
	</g>
	<g id="SPLINE_10_">
		<g>
			<path class="st0" d="M263.1,87.5c-2.1,1-1.7,1.9,0.8,2.1c2.5,0.2,6.3-0.5,8.4-1.5c1.8-0.9,1.8-1.7,0-2"/>
		</g>
	</g>
	<g id="LINE_2_">
		<g>
			<line class="st0" x1="272.3" y1="86.1" x2="272.3" y2="84.1"/>
		</g>
	</g>
	<g id="LINE_3_">
		<g>
			<line class="st0" x1="263.1" y1="87.5" x2="263.1" y2="85.5"/>
		</g>
	</g>
	<g id="LINE_4_">
		<g>
			<line class="st0" x1="263.1" y1="83.5" x2="263.1" y2="81.6"/>
		</g>
	</g>
	<g id="LINE_5_">
		<g>
			<line class="st0" x1="263.1" y1="79.6" x2="263.1" y2="77.6"/>
		</g>
	</g>
	<g id="LINE_6_">
		<g>
			<line class="st0" x1="263.1" y1="75.6" x2="263.1" y2="73.6"/>
		</g>
	</g>
	<g id="LINE_7_">
		<g>
			<line class="st0" x1="263.1" y1="71.6" x2="263.1" y2="69.6"/>
		</g>
	</g>
	<g id="LINE_8_">
		<g>
			<line class="st0" x1="263.1" y1="67.6" x2="263.1" y2="65.6"/>
		</g>
	</g>
	<g id="LINE_9_">
		<g>
			<line class="st0" x1="263.1" y1="63.6" x2="263.1" y2="61.6"/>
		</g>
	</g>
	<g id="LINE_10_">
		<g>
			<line class="st0" x1="263.1" y1="59.7" x2="263.1" y2="57.7"/>
		</g>
	</g>
	<g id="LINE_11_">
		<g>
			<line class="st0" x1="263.1" y1="55.7" x2="263.1" y2="53.7"/>
		</g>
	</g>
	<g id="LINE_12_">
		<g>
			<line class="st0" x1="263.1" y1="51.7" x2="263.1" y2="50.3"/>
		</g>
	</g>
	<g id="LINE_13_">
		<g>
			<line class="st0" x1="272.3" y1="82.1" x2="272.3" y2="80.1"/>
		</g>
	</g>
	<g id="LINE_14_">
		<g>
			<line class="st0" x1="272.3" y1="78.1" x2="272.3" y2="76.1"/>
		</g>
	</g>
	<g id="LINE_15_">
		<g>
			<line class="st0" x1="272.3" y1="74.2" x2="272.3" y2="72.2"/>
		</g>
	</g>
	<g id="LINE_16_">
		<g>
			<line class="st0" x1="272.3" y1="70.2" x2="272.3" y2="68.2"/>
		</g>
	</g>
	<g id="LINE_17_">
		<g>
			<line class="st0" x1="272.3" y1="66.2" x2="272.3" y2="64.2"/>
		</g>
	</g>
	<g id="LINE_18_">
		<g>
			<line class="st0" x1="272.3" y1="62.2" x2="272.3" y2="60.2"/>
		</g>
	</g>
	<g id="LINE_19_">
		<g>
			<line class="st0" x1="272.3" y1="57.8" x2="272.3" y2="56.2"/>
		</g>
	</g>
	<g id="LINE_20_">
		<g>
			<line class="st0" x1="272.3" y1="54.2" x2="272.3" y2="52.3"/>
		</g>
	</g>
	<g id="LINE_21_">
		<g>
			<line class="st0" x1="272.3" y1="58.2" x2="272.3" y2="57.8"/>
		</g>
	</g>
	<g id="LINE_22_">
		<g>
			<line class="st0" x1="254.4" y1="38.6" x2="281" y2="38.6"/>
		</g>
	</g>
	<g id="LINE_23_">
		<g>
			<line class="st0" x1="259.4" y1="30.2" x2="262.2" y2="30.2"/>
		</g>
	</g>
	<g id="LINE_24_">
		<g>
			<line class="st0" x1="256.6" y1="38.6" x2="256.6" y2="31.7"/>
		</g>
	</g>
	<g id="LINE_25_">
		<g>
			<line class="st0" x1="262.2" y1="38.6" x2="262.2" y2="31.7"/>
		</g>
	</g>
	<g id="LINE_26_">
		<g>
			<line class="st0" x1="278.7" y1="38.6" x2="278.7" y2="31.7"/>
		</g>
	</g>
	<g id="LINE_27_">
		<g>
			<line class="st0" x1="273.2" y1="38.6" x2="273.2" y2="31.7"/>
		</g>
	</g>
	<g id="LINE_28_">
		<g>
			<line class="st0" x1="262.2" y1="30.2" x2="273.2" y2="30.2"/>
		</g>
	</g>
	<g id="LINE_29_">
		<g>
			<line class="st0" x1="273.2" y1="30.2" x2="276" y2="30.2"/>
		</g>
	</g>
	<g id="SPLINE_11_">
		<g>
			<path class="st0" d="M262.2,31.7c-1-1.5-3.1-1.9-4.6-0.9c-0.4,0.2-0.7,0.6-0.9,0.9"/>
		</g>
	</g>
	<g id="SPLINE_12_">
		<g>
			<path class="st0" d="M273.2,31.7c-3.4-2-7.6-2-11,0"/>
		</g>
	</g>
	<g id="SPLINE_13_">
		<g>
			<path class="st0" d="M278.7,31.7c-1-1.5-3.1-1.9-4.6-0.9c-0.4,0.2-0.7,0.6-0.9,0.9"/>
		</g>
	</g>
	<g id="LINE_30_">
		<g>
			<line class="st0" x1="254.4" y1="42" x2="254.4" y2="38.6"/>
		</g>
	</g>
	<g id="LINE_31_">
		<g>
			<line class="st0" x1="281" y1="42" x2="281" y2="38.6"/>
		</g>
	</g>
</g>
<g>
	<g id="SPLINE_14_">
		<g>
			<path class="st0" d="M259.7,258.2c-0.2,0.1-0.4,0.2-0.6,0.3"/>
		</g>
	</g>
	<g id="SPLINE_15_">
		<g>
			<path class="st0" d="M259.7,254.2c-2.1,1-1.7,1.9,0.8,2.1c2.5,0.2,6.3-0.5,8.4-1.5c1.8-0.9,1.8-1.7,0-2"/>
		</g>
	</g>
	<g id="SPLINE_16_">
		<g>
			<path class="st0" d="M259.7,250.3c-2.1,1-1.7,1.9,0.8,2.1c2.5,0.2,6.3-0.5,8.4-1.5c1.8-0.9,1.8-1.7,0-2"/>
		</g>
	</g>
	<g id="SPLINE_17_">
		<g>
			<path class="st0" d="M259.7,246.3c-2.1,1-1.7,1.9,0.8,2.1c2.5,0.2,6.3-0.5,8.4-1.5c1.8-0.9,1.8-1.7,0-2"/>
		</g>
	</g>
	<g id="SPLINE_18_">
		<g>
			<path class="st0" d="M259.7,242.3c-2.1,1-1.7,1.9,0.8,2.1c2.5,0.2,6.3-0.5,8.4-1.5c1.8-0.9,1.8-1.7,0-2"/>
		</g>
	</g>
	<g id="SPLINE_19_">
		<g>
			<path class="st0" d="M259.7,238.3c-2.1,1-1.7,1.9,0.8,2.1c2.5,0.2,6.3-0.5,8.4-1.5c1.8-0.9,1.8-1.7,0-2"/>
		</g>
	</g>
	<g id="SPLINE_20_">
		<g>
			<path class="st0" d="M259.7,234.3c-2.1,1-1.7,1.9,0.8,2.1c2.5,0.2,6.3-0.5,8.4-1.5c1.8-0.9,1.8-1.7,0-2"/>
		</g>
	</g>
	<g id="SPLINE_21_">
		<g>
			<path class="st0" d="M259.7,230.3c-2.1,1-1.7,1.9,0.8,2.1c2.5,0.2,6.3-0.5,8.4-1.5c1.8-0.9,1.8-1.7,0-2"/>
		</g>
	</g>
	<g id="SPLINE_22_">
		<g>
			<path class="st0" d="M259.7,226.4c-2.1,1-1.7,1.9,0.8,2.1c2.5,0.2,6.3-0.5,8.4-1.5c1.8-0.9,1.8-1.7,0-2"/>
		</g>
	</g>
	<g id="SPLINE_23_">
		<g>
			<path class="st0" d="M259.7,222.4c-2.1,1-1.7,1.9,0.8,2.1c2.5,0.2,6.3-0.5,8.4-1.5c1.6-0.7,1.8-1.5,0.6-1.9"/>
		</g>
	</g>
	<g id="LINE_32_">
		<g>
			<line class="st0" x1="264.3" y1="267.3" x2="270" y2="257.9"/>
		</g>
	</g>
	<g id="LINE_33_">
		<g>
			<line class="st0" x1="264.3" y1="267.3" x2="260.4" y2="260.3"/>
		</g>
	</g>
	<g id="SPLINE_24_">
		<g>
			<path class="st0" d="M259.7,258.2c-2.1,1-1.7,1.9,0.8,2.1c2.5,0.2,6.3-0.5,8.4-1.5c1.8-0.9,1.8-1.7,0-2"/>
		</g>
	</g>
	<g id="LINE_34_">
		<g>
			<line class="st0" x1="268.8" y1="256.8" x2="268.8" y2="254.8"/>
		</g>
	</g>
	<g id="LINE_35_">
		<g>
			<line class="st0" x1="259.7" y1="258.2" x2="259.7" y2="256.2"/>
		</g>
	</g>
	<g id="LINE_36_">
		<g>
			<line class="st0" x1="259.7" y1="254.2" x2="259.7" y2="252.2"/>
		</g>
	</g>
	<g id="LINE_37_">
		<g>
			<line class="st0" x1="259.7" y1="250.3" x2="259.7" y2="248.3"/>
		</g>
	</g>
	<g id="LINE_38_">
		<g>
			<line class="st0" x1="259.7" y1="246.3" x2="259.7" y2="244.3"/>
		</g>
	</g>
	<g id="LINE_39_">
		<g>
			<line class="st0" x1="259.7" y1="242.3" x2="259.7" y2="240.3"/>
		</g>
	</g>
	<g id="LINE_40_">
		<g>
			<line class="st0" x1="259.7" y1="238.3" x2="259.7" y2="236.3"/>
		</g>
	</g>
	<g id="LINE_41_">
		<g>
			<line class="st0" x1="259.7" y1="234.3" x2="259.7" y2="232.3"/>
		</g>
	</g>
	<g id="LINE_42_">
		<g>
			<line class="st0" x1="259.7" y1="230.3" x2="259.7" y2="228.4"/>
		</g>
	</g>
	<g id="LINE_43_">
		<g>
			<line class="st0" x1="259.7" y1="226.4" x2="259.7" y2="224.4"/>
		</g>
	</g>
	<g id="LINE_44_">
		<g>
			<line class="st0" x1="259.7" y1="222.4" x2="259.7" y2="221"/>
		</g>
	</g>
	<g id="LINE_45_">
		<g>
			<line class="st0" x1="268.8" y1="252.8" x2="268.8" y2="250.8"/>
		</g>
	</g>
	<g id="LINE_46_">
		<g>
			<line class="st0" x1="268.8" y1="248.8" x2="268.8" y2="246.8"/>
		</g>
	</g>
	<g id="LINE_47_">
		<g>
			<line class="st0" x1="268.8" y1="244.8" x2="268.8" y2="242.9"/>
		</g>
	</g>
	<g id="LINE_48_">
		<g>
			<line class="st0" x1="268.8" y1="240.9" x2="268.8" y2="238.9"/>
		</g>
	</g>
	<g id="LINE_49_">
		<g>
			<line class="st0" x1="268.8" y1="236.9" x2="268.8" y2="234.9"/>
		</g>
	</g>
	<g id="LINE_50_">
		<g>
			<line class="st0" x1="268.8" y1="232.9" x2="268.8" y2="230.9"/>
		</g>
	</g>
	<g id="LINE_51_">
		<g>
			<line class="st0" x1="268.8" y1="228.5" x2="268.8" y2="226.9"/>
		</g>
	</g>
	<g id="LINE_52_">
		<g>
			<line class="st0" x1="268.8" y1="224.9" x2="268.8" y2="222.9"/>
		</g>
	</g>
	<g id="LINE_53_">
		<g>
			<line class="st0" x1="268.8" y1="228.9" x2="268.8" y2="228.5"/>
		</g>
	</g>
	<g id="LINE_54_">
		<g>
			<line class="st0" x1="251" y1="213.8" x2="277.5" y2="213.8"/>
		</g>
	</g>
	<g id="LINE_55_">
		<g>
			<line class="st0" x1="251" y1="210.5" x2="277.5" y2="210.5"/>
		</g>
	</g>
	<g id="LINE_56_">
		<g>
			<line class="st0" x1="256" y1="202.1" x2="258.7" y2="202.1"/>
		</g>
	</g>
	<g id="LINE_57_">
		<g>
			<line class="st0" x1="253.2" y1="210.5" x2="253.2" y2="203.5"/>
		</g>
	</g>
	<g id="LINE_58_">
		<g>
			<line class="st0" x1="258.7" y1="210.5" x2="258.7" y2="203.5"/>
		</g>
	</g>
	<g id="LINE_59_">
		<g>
			<line class="st0" x1="275.3" y1="210.5" x2="275.3" y2="203.5"/>
		</g>
	</g>
	<g id="LINE_60_">
		<g>
			<line class="st0" x1="269.7" y1="210.5" x2="269.7" y2="203.5"/>
		</g>
	</g>
	<g id="LINE_61_">
		<g>
			<line class="st0" x1="258.7" y1="202.1" x2="269.7" y2="202.1"/>
		</g>
	</g>
	<g id="LINE_62_">
		<g>
			<line class="st0" x1="269.7" y1="202.1" x2="272.5" y2="202.1"/>
		</g>
	</g>
	<g id="SPLINE_25_">
		<g>
			<path class="st0" d="M258.7,203.5c-1-1.5-3.1-1.9-4.6-0.9c-0.4,0.2-0.7,0.6-0.9,0.9"/>
		</g>
	</g>
	<g id="SPLINE_26_">
		<g>
			<path class="st0" d="M269.7,203.5c-3.4-2-7.6-2-11,0"/>
		</g>
	</g>
	<g id="SPLINE_27_">
		<g>
			<path class="st0" d="M275.3,203.5c-1-1.5-3.1-1.9-4.6-0.9c-0.4,0.2-0.7,0.6-0.9,0.9"/>
		</g>
	</g>
	<g id="LINE_63_">
		<g>
			<line class="st0" x1="251" y1="213.8" x2="251" y2="210.5"/>
		</g>
	</g>
	<g id="LINE_64_">
		<g>
			<line class="st0" x1="277.5" y1="213.8" x2="277.5" y2="210.5"/>
		</g>
	</g>
</g>
<g id="LINE_65_" class="st1">
	<g id="LINE_81_" class="st2">
		<g>
			<g>
				<g>
					<line class="st3" x1="347.1" y1="51.4" x2="418.1" y2="51.4"/>
					<g>
						<polygon class="st4" points="348.6,53.6 340.5,51.4 348.6,49.2 						"/>
					</g>
				</g>
			</g>
		</g>
	</g>
</g>
<g id="LINE_66_" class="st1">
	<g id="LINE_80_" class="st2">
		<g>
			<g>
				<g>
					<line class="st3" x1="347.1" y1="195.7" x2="418.1" y2="195.7"/>
					<g>
						<polygon class="st4" points="348.6,197.9 340.5,195.7 348.6,193.5 						"/>
					</g>
				</g>
			</g>
		</g>
	</g>
</g>
<g>
	<g id="MTEXT">
		<g>
			<text transform="matrix(1 0 0 1 204.0372 134.4225)" class="st4 st5 st6">(a) Trapezoidal profile</text>
		</g>
	</g>
	<g id="MTEXT_3_">
		<g>
			<text transform="matrix(1 0 0 1 204.7139 298.5216)" class="st4 st5 st6">(b) Corrugated profile</text>
		</g>
	</g>
</g>
<g>
	<g id="MTEXT_1_">
		<g>
			<text transform="matrix(1 0 0 1 53.3911 43.2731)" class="st4 st7 st6">Typical anti-capillary break</text>
		</g>
	</g>
	<g id="MTEXT_2_" class="st1">
		<g class="st2">
			<text transform="matrix(1 0 0 1 425.019 55.342)" class="st4 st7 st6">Prevailing weather</text>
		</g>
	</g>
	<g id="MTEXT_4_" class="st1">
		<g class="st2">
			<text transform="matrix(1 0 0 1 425.0184 198.732)" class="st4 st7 st6">Prevailing weather</text>
		</g>
	</g>
	<g id="MTEXT_5_">
		<g>
			<text transform="matrix(1 0 0 1 84.7095 190.8751)" class="st4 st7 st6">Gap between sheets</text>
		</g>
	</g>
</g>
<g id="POLYLINE_2_">
	<g id="POLYLINE_5_">
		<g>
			<g>
				<g>
					<polyline class="st3" points="235.1,218.9 215.3,187.4 202.9,187.4 					"/>
					<g>
						<polygon class="st4" points="236.2,216.4 238.7,224.5 232.5,218.8 						"/>
					</g>
				</g>
			</g>
		</g>
	</g>
</g>
<g id="POLYLINE_4_">
	<g id="POLYLINE_3_">
		<g>
			<g>
				<g>
					<polyline class="st3" points="231.9,58.3 212,39.9 202.9,39.9 					"/>
					<g>
						<polygon class="st4" points="232.3,55.7 236.8,62.9 229.3,58.9 						"/>
					</g>
				</g>
			</g>
		</g>
	</g>
</g>
<g>
	<g id="LINE_67_">
		<line class="st8" x1="253.1" y1="42" x2="282.3" y2="42"/>
	</g>
	<g id="LINE_68_">
		<line class="st8" x1="176.2" y1="87.6" x2="214" y2="87.6"/>
	</g>
	<g id="LINE_69_">
		<line class="st8" x1="227.1" y1="79.1" x2="240" y2="50.4"/>
	</g>
	<g id="SPLINE_28_">
		<path class="st8" d="M214,87.6c5.6,0,10.8-3.3,13.1-8.5"/>
	</g>
	<g id="SPLINE_29_">
		<path class="st8" d="M253.1,42c-5.6,0-10.8,3.3-13.1,8.5"/>
	</g>
	<g id="LINE_70_">
		<line class="st8" x1="257.9" y1="50.3" x2="287.2" y2="50.3"/>
	</g>
	<g id="LINE_71_">
		<line class="st8" x1="176.2" y1="95.2" x2="213.7" y2="95.2"/>
	</g>
	<g id="LINE_72_">
		<line class="st8" x1="226.8" y1="86.5" x2="233.6" y2="70.9"/>
	</g>
	<g id="LINE_73_">
		<line class="st8" x1="246.1" y1="64.1" x2="250.1" y2="55.3"/>
	</g>
	<g id="SPLINE_30_">
		<path class="st8" d="M213.7,95.2c5.7,0,10.9-3.4,13.2-8.6"/>
	</g>
	<g id="LINE_74_">
		<line class="st8" x1="236.2" y1="69.2" x2="238.3" y2="69.2"/>
	</g>
	<g id="SPLINE_31_">
		<path class="st8" d="M257.9,50.3c-3.4,0-6.5,2-7.9,5.1"/>
	</g>
	<g id="SPLINE_32_">
		<path class="st8" d="M238.3,69.2c3.4,0,6.5-2,7.9-5.1"/>
	</g>
	<g id="SPLINE_33_">
		<path class="st8" d="M236.2,69.2c-1.1,0-2.2,0.7-2.6,1.7"/>
	</g>
	<g id="LINE_75_">
		<line class="st8" x1="359.2" y1="87.6" x2="321.4" y2="87.6"/>
	</g>
	<g id="LINE_76_">
		<line class="st8" x1="308.3" y1="79.1" x2="295.4" y2="50.4"/>
	</g>
	<g id="SPLINE_34_">
		<path class="st8" d="M308.3,79.1c2.3,5.2,7.4,8.5,13.1,8.5"/>
	</g>
	<g id="SPLINE_35_">
		<path class="st8" d="M295.4,50.4c-2.3-5.2-7.4-8.5-13.1-8.5"/>
	</g>
	<g id="LINE_77_">
		<line class="st8" x1="359.2" y1="95.2" x2="321.7" y2="95.2"/>
	</g>
	<g id="LINE_78_">
		<line class="st8" x1="308.5" y1="86.5" x2="295.1" y2="55.5"/>
	</g>
	<g id="SPLINE_36_">
		<path class="st8" d="M308.5,86.5c2.3,5.3,7.4,8.6,13.2,8.6"/>
	</g>
	<g id="SPLINE_37_">
		<path class="st8" d="M295.1,55.5c-1.4-3.2-4.5-5.2-7.9-5.2"/>
	</g>
</g>
<g>
	<g id="SPLINE_38_">
		<g>
			<path class="st8" d="M302.7,231.3c-18.8-21.4-51.3-23.4-72.7-4.7c-1.8,1.6-3.5,3.3-5.1,5.1"/>
		</g>
	</g>
	<g id="SPLINE_39_">
		<g>
			<path class="st8" d="M199,247.3c10.5-1.1,20-6.8,26-15.5"/>
		</g>
	</g>
	<g id="SPLINE_40_">
		<g>
			<path class="st8" d="M302.7,231.3c18,18.6,47.7,19.1,66.3,1.2c0.4-0.4,0.8-0.8,1.2-1.2"/>
		</g>
	</g>
	<g id="SPLINE_41_">
		<g>
			<path class="st8" d="M447.9,230.8c-18.8-21.4-51.3-23.4-72.7-4.7c-1.8,1.6-3.5,3.3-5.1,5.1"/>
		</g>
	</g>
	<g id="SPLINE_42_">
		<g>
			<path class="st8" d="M447.9,230.8c12.4,12.9,31.1,17.5,48.1,12"/>
		</g>
	</g>
	<g id="SPLINE_43_">
		<g>
			<path class="st8" d="M226.5,238.3c2.1-2.6,4.5-4.9,7.2-7c21.1-16.7,51.7-13.1,68.4,8"/>
		</g>
	</g>
	<g id="SPLINE_44_">
		<g>
			<path class="st8" d="M302,239.3c13.4,12.1,32.9,14.9,49.1,7"/>
		</g>
	</g>
	<g id="SPLINE_45_">
		<g>
			<path class="st8" d="M160,238.3c17.7,18.4,46.9,18.9,65.2,1.3c0.4-0.4,0.8-0.8,1.3-1.3"/>
		</g>
	</g>
	<g id="SPLINE_46_">
		<g>
			<path class="st8" d="M160,238.3c-16.7-21.1-47.3-24.7-68.4-8c-2.6,2.1-5,4.4-7.2,7"/>
		</g>
	</g>
	<g id="SPLINE_47_">
		<g>
			<path class="st8" d="M29.8,246.2c18.2,9.5,40.4,5.9,54.6-8.9"/>
		</g>
	</g>
</g>
</svg>
