<?xml version="1.0" encoding="utf-8"?>
<!-- Generator: Adobe Illustrator 26.3.1, SVG Export Plug-In . SVG Version: 6.00 Build 0)  -->
<svg version="1.1" xmlns="http://www.w3.org/2000/svg" xmlns:xlink="http://www.w3.org/1999/xlink" x="0px" y="0px"
	 viewBox="0 0 552.76 592.07" style="enable-background:new 0 0 552.76 592.07;" xml:space="preserve">
<style type="text/css">
	.st0{fill:none;stroke:#231F20;stroke-miterlimit:10;}
	.st1{fill:#231F20;}
	.st2{fill:none;stroke:#231F20;stroke-width:0.75;stroke-miterlimit:10;}
	.st3{font-family:'ArialMT';}
	.st4{font-size:12px;}
	.st5{fill:none;stroke:#231F20;stroke-width:0.25;stroke-miterlimit:10;}
	.st6{fill-rule:evenodd;clip-rule:evenodd;fill:#231F20;}
	.st7{fill:none;stroke:#231F20;stroke-width:0.75;stroke-miterlimit:10;stroke-dasharray:11.7327,11.7327;}
	.st8{fill:none;stroke:#231F20;stroke-width:0.75;stroke-miterlimit:10;stroke-dasharray:8.707,8.707;}
	.st9{fill:none;stroke:#231F20;stroke-width:0.75;stroke-miterlimit:10;stroke-dasharray:8.8228,8.8228;}
</style>
<g id="Line_50">
	<g>
		<g id="LWPOLYLINE_1_">
			<g>
				<g>
					<path class="st0" d="M142.92,332.07l-39.29-2.06c-3.62-0.19-6.46-3.18-6.46-6.81V38.55"/>
					<g>
						<path class="st1" d="M101.96,45.38c-0.23,0.15-0.54,0.08-0.69-0.15l-4.11-6.45l-4.11,6.45c-0.15,0.23-0.46,0.3-0.69,0.15
							c-0.23-0.15-0.3-0.46-0.15-0.69l4.53-7.11c0.09-0.14,0.25-0.23,0.42-0.23s0.33,0.09,0.42,0.23l4.53,7.11
							c0.05,0.08,0.08,0.18,0.08,0.27C102.19,45.13,102.11,45.29,101.96,45.38z"/>
					</g>
				</g>
			</g>
		</g>
		<g id="LINE_2_">
			<g>
				<g>
					<line class="st0" x1="278.78" y1="496.59" x2="278.78" y2="38.55"/>
					<g>
						<path class="st1" d="M283.58,45.38c-0.23,0.15-0.54,0.08-0.69-0.15l-4.11-6.45l-4.11,6.45c-0.15,0.23-0.46,0.3-0.69,0.15
							c-0.23-0.15-0.3-0.46-0.15-0.69l4.53-7.11c0.09-0.14,0.25-0.23,0.42-0.23s0.33,0.09,0.42,0.23l4.53,7.11
							c0.05,0.08,0.08,0.18,0.08,0.27C283.81,45.13,283.73,45.29,283.58,45.38z"/>
					</g>
				</g>
			</g>
		</g>
	</g>
	<path class="st0" d="M278.78,342.77c0-3.55-2.72-6.5-6.25-6.79"/>
	<line class="st0" x1="272.52" y1="335.98" x2="249.97" y2="334.11"/>
	<path class="st0" d="M211.74,319.67v8.13c0,1.77,1.36,3.25,3.13,3.4l25.66,2.13"/>
	<g id="LINE_27_">
		<line class="st0" x1="70.23" y1="213.52" x2="63.42" y2="213.52"/>
	</g>
	<path class="st0" d="M97.16,224.87l-21.86-1.14c-1.64-0.09-3.11,1.01-3.49,2.6c-0.27,1.14-1.29,1.93-2.46,1.93
		c-1.4,0-2.53-1.13-2.53-2.53v-12.22"/>
	<g>
		<g id="LINE_33_">
			<line class="st0" x1="278.78" y1="143.05" x2="291.58" y2="137.85"/>
		</g>
		<g id="LINE_34_">
			<line class="st0" x1="289.63" y1="135.05" x2="293.53" y2="140.65"/>
		</g>
		<g id="LINE_35_">
			<line class="st0" x1="271.28" y1="130.81" x2="261.51" y2="125.07"/>
		</g>
	</g>
	<g>
		<g id="LINE_36_">
			<line class="st0" x1="278.78" y1="228.24" x2="291.58" y2="223.04"/>
		</g>
		<g id="LINE_37_">
			<line class="st0" x1="289.63" y1="220.25" x2="293.53" y2="225.84"/>
		</g>
		<g id="LINE_38_">
			<line class="st0" x1="271.28" y1="216.01" x2="261.51" y2="210.26"/>
		</g>
	</g>
	<g id="LINE_42_">
		<line class="st0" x1="204.49" y1="326.74" x2="211.74" y2="326.74"/>
	</g>
	<g id="LINE_43_">
		<line class="st0" x1="215.14" y1="319.67" x2="208.33" y2="319.67"/>
	</g>
	<g>
		<rect x="359.2" y="544.9" class="st0" width="27.79" height="5.11"/>
		<g>
			<polyline class="st0" points="369.87,544.9 369.87,34.96 376.69,34.96 376.69,544.9 			"/>
			<g>
				<g id="LINE_12_">
					<line class="st0" x1="369.87" y1="66.57" x2="28.35" y2="66.57"/>
				</g>
				<g id="LINE_13_">
					<line class="st0" x1="369.87" y1="151.77" x2="28.35" y2="151.77"/>
				</g>
				<g id="LINE_14_">
					<line class="st0" x1="369.87" y1="236.96" x2="28.35" y2="236.96"/>
				</g>
				<g id="LINE_15_">
					<line class="st0" x1="143.15" y1="322.15" x2="28.35" y2="322.15"/>
				</g>
				<g id="LINE_16_">
					<line class="st0" x1="370.15" y1="407.34" x2="353.72" y2="407.34"/>
				</g>
				<g id="LINE_17_">
					<line class="st0" x1="349.46" y1="407.34" x2="28.35" y2="407.34"/>
				</g>
				<g id="LINE_31_">
					<line class="st0" x1="204.49" y1="322.15" x2="349.46" y2="322.15"/>
				</g>
				<g id="LINE_32_">
					<line class="st0" x1="353.72" y1="322.15" x2="369.87" y2="322.15"/>
				</g>
				<g id="LWPOLYLINE_2_">
					<g>
						<rect x="143.15" y="322.15" class="st0" width="61.34" height="31.53"/>
					</g>
				</g>
			</g>
		</g>
	</g>
	<g id="LINE_45_">
		<path class="st0" d="M250.27,330.51"/>
		<path class="st0" d="M249.54,339.31"/>
	</g>
	<rect x="334.92" y="491.68" class="st0" width="13.27" height="3.62"/>
	<g id="LINE_74_">
		<line class="st0" x1="335.46" y1="512.81" x2="347.65" y2="512.81"/>
	</g>
	<g id="LINE_75_">
		<line class="st0" x1="335.46" y1="519.4" x2="347.65" y2="519.4"/>
	</g>
	<g>
		<g id="LINE_78_">
			<line class="st0" x1="370.15" y1="518.92" x2="435.92" y2="518.92"/>
		</g>
		<g id="LINE_81_">
			<line class="st0" x1="370.15" y1="527.1" x2="435.92" y2="527.1"/>
		</g>
		<g id="LINE_82_">
			<line class="st0" x1="389.34" y1="529.11" x2="389.34" y2="516.91"/>
		</g>
	</g>
	<path class="st0" d="M359,527.1c-0.77,0-1.46,0.45-1.78,1.15l-2.54,5.63c-1.46,3.22-4.67,5.3-8.21,5.3c-4.97,0-9-4.03-9-9v-0.44
		V495.3"/>
	<path class="st0" d="M359,518.92c-3.98,0-7.59,2.33-9.23,5.96l-2.54,5.63c-0.13,0.3-0.43,0.49-0.75,0.49
		c-0.46,0-0.83-0.37-0.83-0.83v-4.24v2V495.3"/>
	<g id="CIRCLE">
		<path class="st0" d="M431.83,523.01c0-2.26,1.83-4.09,4.09-4.09c2.26,0,4.09,1.83,4.09,4.09c0,2.26-1.83,4.09-4.09,4.09
			C433.66,527.1,431.83,525.27,431.83,523.01L431.83,523.01z"/>
	</g>
	<polyline class="st2" points="359.2,529.11 359.2,516.91 365.68,525.1 368.85,529.11 368.85,516.91 	"/>
	<polyline class="st0" points="251.27,329.51 249.54,339.31 240.89,328.94 239.52,338.67 	"/>
	<g id="TEXT">
		<g>
			<text transform="matrix(1 0 0 1 154.1431 333.8158)"><tspan x="0" y="0" class="st1 st3 st4">Grease</tspan><tspan x="9.34" y="14.4" class="st1 st3 st4">trap</tspan></text>
		</g>
	</g>
	<g id="TEXT_1_">
	</g>
	<g>
		<g id="MTEXT">
			<g>
				<text transform="matrix(1 0 0 1 405.9056 124.1072)" class="st1 st3 st4">Floor level</text>
			</g>
		</g>
		<g id="MTEXT_1_">
			<g>
				<text transform="matrix(1 0 0 1 406.2542 233.3826)" class="st1 st3 st4">Gully overflow level</text>
			</g>
		</g>
		<g id="MTEXT_2_">
			<g>
				<text transform="matrix(1 0 0 1 406.3402 287.4119)" class="st1 st3 st4">Street level</text>
			</g>
		</g>
		<g id="MTEXT_3_">
			<g>
				<text transform="matrix(1 0 0 1 406.3402 460.9075)"><tspan x="0" y="0" class="st1 st3 st4">Sealed and </tspan><tspan x="0" y="14.4" class="st1 st3 st4">vented gully</tspan></text>
			</g>
		</g>
		<g id="MTEXT_4_">
			<g>
				<text transform="matrix(1 0 0 1 448.9837 527.2679)" class="st1 st3 st4">Sewer main</text>
			</g>
		</g>
		<g id="MTEXT_5_">
			<g>
				<text transform="matrix(1 0 0 1 45.7552 118.7381)" class="st1 st3 st4">W.S.</text>
			</g>
		</g>
		<g id="MTEXT_6_">
			<g>
				<text transform="matrix(1 0 0 1 57.3387 204.4749)" class="st1 st3 st4">K.S.</text>
			</g>
		</g>
		<g id="MTEXT_7_">
			<g>
				<text transform="matrix(1 0 0 1 111.1849 186.6077)" class="st1 st3 st4">Main relief vent pipe</text>
			</g>
		</g>
		<g id="MTEXT_8_">
			<g>
				<text transform="matrix(1 0 0 1 111.577 262.1873)" class="st1 st3 st4">50 mm Anti-syphon vent</text>
			</g>
		</g>
		<g id="MTEXT_9_">
			<g>
				<text transform="matrix(1 0 0 1 44.6048 350.5364)" class="st1 st3 st4">100 mm</text>
			</g>
		</g>
		<g id="MTEXT_10_">
			<g>
				<text transform="matrix(1 0 0 1 111.1336 372.0598)" class="st1 st3 st4">Reflux valve outlet</text>
			</g>
		</g>
		<g id="MTEXT_11_">
			<g>
				<text transform="matrix(1 0 0 1 184.0863 395.804)" class="st1 st3 st4">100 mm</text>
			</g>
		</g>
		<g id="MTEXT_12_">
			<g>
				<text transform="matrix(1 0 0 1 186.1415 541.2278)"><tspan x="0" y="0" class="st1 st3 st4">Reflux valve boundary</tspan><tspan x="0" y="14.4" class="st1 st3 st4">trap connection</tspan></text>
			</g>
		</g>
		<g id="MTEXT_13_">
			<g>
				<text transform="matrix(1 0 0 1 304.7308 187.5447)" class="st1 st3 st4">S.V.P</text>
			</g>
		</g>
	</g>
	<g>
		<g>
			<polyline class="st5" points="402.06,118.92 393,118.92 349.95,148.42 			"/>
			<g>
				<polygon class="st1" points="349.95,145.78 344.47,152.18 352.41,149.38 				"/>
			</g>
		</g>
	</g>
	<polyline class="st0" points="523.8,295.92 430.54,301.29 430.54,291.83 376.69,291.83 	"/>
	<g>
		<g>
			<g>
				<line class="st5" x1="301.55" y1="183.67" x2="285.42" y2="183.67"/>
				<g>
					<polygon class="st1" points="286.91,181.49 278.78,183.67 286.91,185.85 					"/>
				</g>
			</g>
		</g>
	</g>
	<g>
		<g>
			<g>
				<line class="st5" x1="223.08" y1="182.54" x2="254.08" y2="182.1"/>
				<g>
					<polygon class="st1" points="252.63,184.3 260.73,182 252.57,179.94 					"/>
				</g>
			</g>
		</g>
	</g>
	<g>
		<g>
			<g>
				<line class="st5" x1="74.36" y1="114.92" x2="90.49" y2="114.92"/>
				<g>
					<polygon class="st1" points="89,117.1 97.14,114.92 89,112.74 					"/>
				</g>
			</g>
		</g>
	</g>
	<g>
		<g>
			<polyline class="st5" points="402.06,118.92 393,118.92 349.95,148.42 			"/>
			<g>
				<polygon class="st1" points="349.95,145.78 344.47,152.18 352.41,149.38 				"/>
			</g>
		</g>
	</g>
	<g>
		<g>
			<polyline class="st5" points="402.52,230 393.47,230 380.05,270.16 			"/>
			<g>
				<polygon class="st1" points="378.45,268.06 377.94,276.46 382.58,269.44 				"/>
			</g>
		</g>
	</g>
	<g>
		<g>
			<polyline class="st5" points="402.04,457 392.98,457 372.37,474.38 			"/>
			<g>
				<polygon class="st1" points="372.1,471.75 367.29,478.66 374.91,475.09 				"/>
			</g>
		</g>
	</g>
	<g>
		<g>
			<g>
				<polyline class="st5" points="309.19,538.23 318.24,538.23 330.84,533.43 				"/>
				<g>
					<polygon class="st1" points="330.22,536 337.05,531.07 328.67,531.93 					"/>
				</g>
			</g>
		</g>
	</g>
	<g>
		<g>
			<g>
				<polyline class="st5" points="231,392.18 240.06,392.18 272.44,381.99 				"/>
				<g>
					<polygon class="st1" points="271.67,384.52 278.78,380 270.37,380.36 					"/>
				</g>
			</g>
		</g>
	</g>
	<g>
		<g>
			<line class="st5" x1="240.06" y1="392.18" x2="266.13" y2="340.71"/>
			<g>
				<polygon class="st1" points="267.4,343.02 269.13,334.78 263.51,341.05 				"/>
			</g>
		</g>
	</g>
	<g>
		<g>
			<g>
				<polyline class="st5" points="212.2,368.37 224.25,368.37 242.83,341.82 				"/>
				<g>
					<polygon class="st1" points="243.76,344.29 246.64,336.38 240.19,341.79 					"/>
				</g>
			</g>
		</g>
	</g>
	<g>
		<g>
			<g>
				<polyline class="st5" points="91.26,347.53 100.31,347.53 116.86,335 				"/>
				<g>
					<polygon class="st1" points="116.99,337.63 122.16,330.98 114.36,334.16 					"/>
				</g>
			</g>
		</g>
	</g>
	<g>
		<g>
			<g>
				<polyline class="st5" points="248.14,274.96 248.14,258.83 243.14,258.83 				"/>
				<g>
					<polygon class="st1" points="250.32,273.47 248.14,281.6 245.96,273.47 					"/>
				</g>
			</g>
		</g>
	</g>
	<g id="HATCH">
		<path class="st6" d="M435.92,518.92c-1.13,0-2.04,0.92-2.04,2.04s0.92,2.04,2.04,2.04c1.13,0,2.04,0.92,2.04,2.04
			c0,1.13-0.92,2.04-2.04,2.04c2.26,0,4.09-1.83,4.09-4.09C440.01,520.75,438.18,518.92,435.92,518.92L435.92,518.92z"/>
	</g>
	<line class="st0" x1="347.33" y1="470.95" x2="355.85" y2="470.95"/>
	<path class="st0" d="M362.03,480.58h-5.58c-3.86,0-6.99-3.13-6.99-6.99v-197.5h4.26v197.5c0,1.51,1.22,2.73,2.73,2.73h5.58"/>
	<line class="st0" x1="346.48" y1="371.61" x2="356.7" y2="371.61"/>
	<line class="st0" x1="347.33" y1="430.6" x2="355.85" y2="430.6"/>
	<line class="st0" x1="347.33" y1="324.87" x2="355.85" y2="324.87"/>
	<line class="st0" x1="347.33" y1="290.48" x2="355.85" y2="290.48"/>
	<line class="st0" x1="347.33" y1="276.09" x2="355.85" y2="276.09"/>
	<line class="st0" x1="353.72" y1="280.2" x2="369.87" y2="280.2"/>
	<line class="st0" x1="353.72" y1="285.99" x2="369.87" y2="285.99"/>
	<line class="st0" x1="371.99" y1="280.2" x2="374.89" y2="280.2"/>
	<line class="st0" x1="371.99" y1="285.99" x2="374.89" y2="285.99"/>
	<g id="LWPOLYLINE_3_">
		<rect x="377.16" y="277.31" width="0.98" height="11.57"/>
	</g>
	<rect x="359.66" y="468.72" class="st0" width="9" height="2.56"/>
	<g>
		<path class="st0" d="M280.91,499.14v2.4c0,1.48,1.19,2.7,2.67,2.73l53.89,1.09"/>
		<path class="st0" d="M337.46,509.62l-53.97-1.09c-3.8-0.08-6.84-3.18-6.84-6.98v-2.4"/>
		<g id="LINE_66_">
			<line class="st0" x1="303.62" y1="511.06" x2="303.79" y2="502.55"/>
		</g>
		<g id="LINE_67_">
			<line class="st0" x1="287.5" y1="510.74" x2="287.67" y2="502.22"/>
		</g>
		<g id="LINE_68_">
			<line class="st0" x1="321.69" y1="511.45" x2="321.87" y2="502.94"/>
		</g>
		<g id="LINE_69_">
			<line class="st0" x1="330.13" y1="511.63" x2="330.31" y2="503.11"/>
		</g>
	</g>
	<line class="st0" x1="359.9" y1="500.98" x2="368.41" y2="500.98"/>
	<path class="st0" d="M347.3,501.81c1.01-1.01,2.34-1.62,3.76-1.73c3.28-0.25,6.15,2.21,6.4,5.49l-0.01-0.17
		c0,1.26,1.02,2.28,2.28,2.28s2.28-1.02,2.28-2.28v-34.12"/>
	<path class="st0" d="M345.64,509.5l5.17-5.17l-0.49,0.49c0.29-0.29,0.67-0.46,1.07-0.49c0.94-0.07,1.76,0.63,1.83,1.57
		c0.28,3.6,3.42,6.3,7.02,6.02c3.41-0.26,6.04-3.1,6.04-6.52v-34.12"/>
	<g id="LINE_91_">
		<line class="st0" x1="347.3" y1="501.81" x2="345.64" y2="503.48"/>
	</g>
	<line class="st0" x1="353.99" y1="498.69" x2="351.92" y2="506.39"/>
	<line class="st0" x1="359.24" y1="474.19" x2="359.24" y2="482.71"/>
	<line class="st0" x1="359.9" y1="486.11" x2="368.41" y2="486.11"/>
	<rect x="274.36" y="496.66" class="st0" width="8.84" height="2.41"/>
	<g>
		<g>
			<line class="st2" x1="278.78" y1="469.39" x2="273.58" y2="466.39"/>
			<polyline class="st2" points="266.71,462.42 261.51,459.42 261.51,453.42 			"/>
			<line class="st7" x1="261.51" y1="441.69" x2="261.51" y2="72.11"/>
			<polyline class="st2" points="261.51,66.24 261.51,60.24 266.71,57.24 			"/>
			<line class="st2" x1="273.58" y1="53.27" x2="278.78" y2="50.27"/>
		</g>
	</g>
	<g>
		<g>
			<line class="st2" x1="229.66" y1="332.42" x2="229.66" y2="326.42"/>
			<line class="st8" x1="229.66" y1="317.71" x2="229.66" y2="304.65"/>
			<polyline class="st2" points="229.66,300.3 229.66,294.3 234.63,290.94 			"/>
			<line class="st9" x1="241.93" y1="285.99" x2="252.89" y2="278.57"/>
			<line class="st2" x1="256.55" y1="276.1" x2="261.51" y2="272.74"/>
		</g>
	</g>
</g>
<g id="TXT25">
</g>
</svg>
