<svg id="Drawing_Layer" data-name="Drawing Layer" xmlns="http://www.w3.org/2000/svg" xmlns:xlink="http://www.w3.org/1999/xlink" viewBox="0 0 484.57 380.26"><defs><style>.cls-1,.cls-3,.cls-5,.cls-8,.cls-9{fill:none;}.cls-2{clip-path:url(#clip-path);}.cls-3{stroke:#221f1f;stroke-width:0.5px;}.cls-3,.cls-8{stroke-linejoin:round;}.cls-4{fill:#c6c7c9;}.cls-5,.cls-8,.cls-9{stroke:#231f20;}.cls-5,.cls-9{stroke-miterlimit:10;}.cls-5{stroke-width:0.25px;}.cls-6,.cls-7{fill:#231f20;}.cls-7{font-size:9.6px;font-family:ArialMT, Arial;}.cls-8{stroke-linecap:round;}.cls-10{fill:url(#diagonal_cross_hatch);}</style><clipPath id="clip-path"><rect class="cls-1" width="72" height="72"/></clipPath><pattern id="diagonal_cross_hatch" data-name="diagonal cross hatch" width="72" height="72" patternTransform="translate(144.68 -78) scale(1.07)" patternUnits="userSpaceOnUse" viewBox="0 0 72 72"><rect class="cls-1" width="72" height="72"/><g class="cls-2"><line class="cls-3" x1="-6" y1="12" x2="12" y2="-6"/><line class="cls-3" x1="-6" y1="18" x2="18" y2="-6"/><line class="cls-3" x1="-6" y1="24" x2="24" y2="-6"/><line class="cls-3" x1="-6" y1="30" x2="30" y2="-6"/><line class="cls-3" x1="-6" y1="36" x2="36" y2="-6"/><line class="cls-3" x1="-6" y1="42" x2="42" y2="-6"/><line class="cls-3" x1="-6" y1="48" x2="48" y2="-6"/><line class="cls-3" x1="-6" y1="54" x2="54" y2="-6"/><line class="cls-3" x1="-6" y1="60" x2="60" y2="-6"/><line class="cls-3" x1="-6" y1="66" x2="66" y2="-6"/><line class="cls-3" x1="-6" y1="72" x2="72" y2="-6"/><line class="cls-3" x1="-6" y1="78" x2="78" y2="-6"/><line class="cls-3" y1="78" x2="78"/><line class="cls-3" x1="6" y1="78" x2="78" y2="6"/><line class="cls-3" x1="12" y1="78" x2="78" y2="12"/><line class="cls-3" x1="18" y1="78" x2="78" y2="18"/><line class="cls-3" x1="24" y1="78" x2="78" y2="24"/><line class="cls-3" x1="30" y1="78" x2="78" y2="30"/><line class="cls-3" x1="36" y1="78" x2="78" y2="36"/><line class="cls-3" x1="42" y1="78" x2="78" y2="42"/><line class="cls-3" x1="48" y1="78" x2="78" y2="48"/><line class="cls-3" x1="46" y1="86" x2="88" y2="44"/><line class="cls-3" x1="52" y1="86" x2="88" y2="50"/><line class="cls-3" x1="58" y1="86" x2="88" y2="56"/></g></pattern></defs><g id="HATCH"><rect class="cls-4" x="283.98" y="47.71" width="84.15" height="76.66"/></g><g id="LINE"><g id="LINE-2" data-name="LINE"><line class="cls-5" x1="179.16" y1="85.34" x2="278.67" y2="85.34"/><polygon class="cls-6" points="180.35 87.08 173.84 85.34 180.35 83.6 180.35 87.08"/><polygon class="cls-6" points="277.48 87.08 283.98 85.34 277.48 83.6 277.48 87.08"/></g></g><g id="LINE-3" data-name="LINE"><g id="LINE-4" data-name="LINE"><line class="cls-5" x1="322.1" y1="174.67" x2="322.1" y2="130.16"/><polygon class="cls-6" points="323.85 173.48 322.11 179.98 320.36 173.48 323.85 173.48"/><polygon class="cls-6" points="323.85 131.35 322.11 124.85 320.36 131.35 323.85 131.35"/></g></g><g id="LINE-5" data-name="LINE"><g id="LINE-6" data-name="LINE"><line class="cls-5" x1="412.92" y1="85.34" x2="373.45" y2="85.34"/><polygon class="cls-6" points="411.74 83.6 418.24 85.34 411.74 87.08 411.74 83.6"/><polygon class="cls-6" points="374.64 83.6 368.13 85.34 374.64 87.08 374.64 83.6"/></g></g><g id="MTEXT"><text class="cls-7" transform="translate(199.99 96.14)">min.</text></g><g id="MTEXT-2" data-name="MTEXT"><text class="cls-7" transform="translate(196.76 81.8)">1.2 m</text></g><g id="MTEXT-3" data-name="MTEXT"><text class="cls-7" transform="translate(331.58 159.11) rotate(-90)">mm</text></g><g id="MTEXT-4" data-name="MTEXT"><text class="cls-7" transform="translate(318.81 159.02) rotate(-90)">400</text></g><g id="MTEXT-5" data-name="MTEXT"><text class="cls-7" transform="translate(449.15 81.44)">400 mm</text></g><g id="MTEXT-6" data-name="MTEXT"><text class="cls-7" transform="translate(87.72 23.66)">Non masonry wall</text></g><g id="MTEXT-8" data-name="MTEXT"><path class="cls-6" d="M343.92,104.56V97.69h.91v2.83h3.57V97.69h.91v6.87h-.91v-3.23h-3.57v3.23Z" transform="translate(-34.12 -22.85)"/><path class="cls-6" d="M354.13,103l.87.11a2.14,2.14,0,0,1-.77,1.19,2.57,2.57,0,0,1-3.15-.26,2.58,2.58,0,0,1-.64-1.88,2.75,2.75,0,0,1,.64-2,2.23,2.23,0,0,1,1.68-.7,2.13,2.13,0,0,1,1.63.68,2.68,2.68,0,0,1,.64,1.92,2,2,0,0,1,0,.22h-3.71a2,2,0,0,0,.46,1.26,1.39,1.39,0,0,0,1,.43,1.33,1.33,0,0,0,.8-.24A1.6,1.6,0,0,0,354.13,103Zm-2.77-1.36h2.78a1.71,1.71,0,0,0-.32-.94,1.29,1.29,0,0,0-1.05-.49,1.35,1.35,0,0,0-1,.39A1.5,1.5,0,0,0,351.36,101.6Z" transform="translate(-34.12 -22.85)"/><path class="cls-6" d="M359.31,104a3.16,3.16,0,0,1-.91.56,2.6,2.6,0,0,1-.93.17,1.87,1.87,0,0,1-1.26-.4,1.34,1.34,0,0,1-.44-1,1.42,1.42,0,0,1,.17-.67,1.33,1.33,0,0,1,.43-.48,2.43,2.43,0,0,1,.61-.28,7.43,7.43,0,0,1,.75-.12,9,9,0,0,0,1.51-.29v-.22a.93.93,0,0,0-.24-.73,1.39,1.39,0,0,0-1-.29,1.48,1.48,0,0,0-.88.21,1.29,1.29,0,0,0-.42.74l-.82-.11a2,2,0,0,1,.37-.86,1.62,1.62,0,0,1,.74-.5,3.27,3.27,0,0,1,1.13-.18,3,3,0,0,1,1,.15,1.36,1.36,0,0,1,.58.38,1.25,1.25,0,0,1,.27.58,4.51,4.51,0,0,1,0,.77v1.13a13.86,13.86,0,0,0,.05,1.49,1.83,1.83,0,0,0,.22.59h-.89A1.76,1.76,0,0,1,359.31,104Zm-.07-1.88a6.76,6.76,0,0,1-1.38.32,3.55,3.55,0,0,0-.74.16.83.83,0,0,0-.33.28.7.7,0,0,0-.12.4.73.73,0,0,0,.26.56,1.09,1.09,0,0,0,.74.23,1.66,1.66,0,0,0,.87-.22,1.31,1.31,0,0,0,.56-.58,2,2,0,0,0,.14-.84Z" transform="translate(-34.12 -22.85)"/><path class="cls-6" d="M363.24,103.81l.12.75a3.12,3.12,0,0,1-.64.07,1.54,1.54,0,0,1-.71-.14.77.77,0,0,1-.35-.39,2.88,2.88,0,0,1-.11-1v-2.87h-.62v-.65h.62V98.35l.84-.5v1.74h.85v.65h-.85v2.91a1.46,1.46,0,0,0,.05.47.31.31,0,0,0,.14.16.57.57,0,0,0,.29.06Z" transform="translate(-34.12 -22.85)"/><path class="cls-6" d="M364.07,98.66v-1h.84v1Zm0,5.9v-5h.84v5Z" transform="translate(-34.12 -22.85)"/><path class="cls-6" d="M366.2,104.56v-5H367v.7a1.79,1.79,0,0,1,1.58-.82,2.05,2.05,0,0,1,.83.17,1.24,1.24,0,0,1,.56.42,1.58,1.58,0,0,1,.27.62,5.23,5.23,0,0,1,0,.82v3.06h-.84v-3a2.13,2.13,0,0,0-.1-.77.82.82,0,0,0-.35-.41,1.13,1.13,0,0,0-.59-.15,1.35,1.35,0,0,0-.93.34,1.7,1.7,0,0,0-.39,1.3v2.71Z" transform="translate(-34.12 -22.85)"/><path class="cls-6" d="M371.38,105l.82.12a.78.78,0,0,0,.29.55,1.37,1.37,0,0,0,.86.24,1.46,1.46,0,0,0,.9-.24,1.11,1.11,0,0,0,.43-.65,4.65,4.65,0,0,0,.06-1.09,1.72,1.72,0,0,1-1.38.65,1.84,1.84,0,0,1-1.58-.74,2.8,2.8,0,0,1-.57-1.77,3.34,3.34,0,0,1,.26-1.32,2,2,0,0,1,.75-.93,2,2,0,0,1,1.15-.33,1.77,1.77,0,0,1,1.45.72v-.6h.78v4.3a4,4,0,0,1-.24,1.65,1.62,1.62,0,0,1-.75.76,2.55,2.55,0,0,1-1.26.29,2.39,2.39,0,0,1-1.44-.41A1.35,1.35,0,0,1,371.38,105Zm.7-3a2.16,2.16,0,0,0,.39,1.43,1.23,1.23,0,0,0,1,.45,1.25,1.25,0,0,0,1-.45,2.11,2.11,0,0,0,.39-1.4,2,2,0,0,0-.4-1.38,1.26,1.26,0,0,0-1-.47,1.25,1.25,0,0,0-1,.46A2,2,0,0,0,372.08,102Z" transform="translate(-34.12 -22.85)"/><path class="cls-6" d="M341.7,115.47a3.16,3.16,0,0,1-.91.56,2.6,2.6,0,0,1-.93.17,1.87,1.87,0,0,1-1.26-.4,1.34,1.34,0,0,1-.44-1,1.42,1.42,0,0,1,.17-.67,1.33,1.33,0,0,1,.43-.48,2.43,2.43,0,0,1,.61-.28,7.43,7.43,0,0,1,.75-.12,9,9,0,0,0,1.51-.29v-.22a.93.93,0,0,0-.24-.73,1.39,1.39,0,0,0-1-.29,1.48,1.48,0,0,0-.88.21,1.29,1.29,0,0,0-.42.74l-.82-.11a1.89,1.89,0,0,1,.37-.86,1.62,1.62,0,0,1,.74-.5,3.27,3.27,0,0,1,1.13-.18,3,3,0,0,1,1,.15,1.36,1.36,0,0,1,.58.38,1.25,1.25,0,0,1,.27.58,5.91,5.91,0,0,1,0,.77V114a13.86,13.86,0,0,0,0,1.49,1.83,1.83,0,0,0,.22.59h-.89A1.76,1.76,0,0,1,341.7,115.47Zm-.07-1.88a6.76,6.76,0,0,1-1.38.32,3.55,3.55,0,0,0-.74.16.83.83,0,0,0-.33.28.7.7,0,0,0-.12.4.73.73,0,0,0,.26.56,1.09,1.09,0,0,0,.74.23,1.66,1.66,0,0,0,.87-.22,1.31,1.31,0,0,0,.56-.58,2,2,0,0,0,.14-.84Z" transform="translate(-34.12 -22.85)"/><path class="cls-6" d="M343.79,118v-6.88h.76v.64a2.07,2.07,0,0,1,.62-.57A1.75,1.75,0,0,1,346,111a1.94,1.94,0,0,1,1.12.33,2,2,0,0,1,.74.93,3.29,3.29,0,0,1,.25,1.31,3.17,3.17,0,0,1-.28,1.37,2.08,2.08,0,0,1-1.89,1.27,1.58,1.58,0,0,1-.76-.18,1.75,1.75,0,0,1-.55-.45V118Zm.76-4.37a2.15,2.15,0,0,0,.39,1.42,1.2,1.2,0,0,0,1.9,0,2.25,2.25,0,0,0,.41-1.48,2.13,2.13,0,0,0-.4-1.42,1.15,1.15,0,0,0-.93-.47,1.21,1.21,0,0,0-1,.5A2.29,2.29,0,0,0,344.55,113.62Z" transform="translate(-34.12 -22.85)"/><path class="cls-6" d="M349.13,118v-6.88h.76v.64a2.07,2.07,0,0,1,.62-.57,1.75,1.75,0,0,1,.83-.19,1.94,1.94,0,0,1,1.12.33,2,2,0,0,1,.74.93,3.47,3.47,0,0,1,.25,1.31,3.17,3.17,0,0,1-.28,1.37,2.1,2.1,0,0,1-.79.94,2,2,0,0,1-1.1.33,1.58,1.58,0,0,1-.76-.18,1.75,1.75,0,0,1-.55-.45V118Zm.76-4.37a2.15,2.15,0,0,0,.39,1.42,1.2,1.2,0,0,0,1.9,0,2.26,2.26,0,0,0,.4-1.48,2.19,2.19,0,0,0-.39-1.42,1.15,1.15,0,0,0-.93-.47,1.21,1.21,0,0,0-1,.5A2.29,2.29,0,0,0,349.89,113.62Z" transform="translate(-34.12 -22.85)"/><path class="cls-6" d="M354.45,116.08v-6.87h.84v6.87Z" transform="translate(-34.12 -22.85)"/><path class="cls-6" d="M356.6,110.18v-1h.85v1Zm0,5.9v-5h.85v5Z" transform="translate(-34.12 -22.85)"/><path class="cls-6" d="M362,115.47a3,3,0,0,1-.9.56,2.6,2.6,0,0,1-.93.17,1.88,1.88,0,0,1-1.27-.4,1.34,1.34,0,0,1-.44-1,1.42,1.42,0,0,1,.17-.67,1.36,1.36,0,0,1,.44-.48,2.36,2.36,0,0,1,.6-.28,7.43,7.43,0,0,1,.75-.12,8.76,8.76,0,0,0,1.51-.29v-.22a.93.93,0,0,0-.24-.73,1.39,1.39,0,0,0-1-.29,1.5,1.5,0,0,0-.88.21,1.34,1.34,0,0,0-.41.74l-.83-.11a2.13,2.13,0,0,1,.37-.86,1.6,1.6,0,0,1,.75-.5,3.21,3.21,0,0,1,1.12-.18,3,3,0,0,1,1,.15,1.4,1.4,0,0,1,.59.38,1.35,1.35,0,0,1,.26.58,4.51,4.51,0,0,1,0,.77V114a10.84,10.84,0,0,0,.06,1.49,1.61,1.61,0,0,0,.21.59h-.88A1.56,1.56,0,0,1,362,115.47Zm-.07-1.88a6.76,6.76,0,0,1-1.38.32,3.55,3.55,0,0,0-.74.16.83.83,0,0,0-.33.28.7.7,0,0,0-.12.4.73.73,0,0,0,.26.56,1.1,1.1,0,0,0,.75.23,1.64,1.64,0,0,0,.86-.22,1.26,1.26,0,0,0,.56-.58,2,2,0,0,0,.14-.84Z" transform="translate(-34.12 -22.85)"/><path class="cls-6" d="M364.07,116.08v-5h.76v.7a1.79,1.79,0,0,1,1.58-.82,2.05,2.05,0,0,1,.83.17,1.33,1.33,0,0,1,.57.42,1.73,1.73,0,0,1,.26.62,5.23,5.23,0,0,1,0,.82v3.06h-.84v-3a2.13,2.13,0,0,0-.1-.77.77.77,0,0,0-.35-.41,1.09,1.09,0,0,0-.58-.15,1.4,1.4,0,0,0-.94.34,1.7,1.7,0,0,0-.39,1.3v2.71Z" transform="translate(-34.12 -22.85)"/><path class="cls-6" d="M372.66,114.26l.83.11a2.16,2.16,0,0,1-.7,1.34,2,2,0,0,1-1.38.49,2.16,2.16,0,0,1-1.64-.67,2.74,2.74,0,0,1-.62-1.92,3.48,3.48,0,0,1,.27-1.41,1.88,1.88,0,0,1,.81-.9,2.43,2.43,0,0,1,1.19-.31,2.11,2.11,0,0,1,1.33.41,2,2,0,0,1,.66,1.17l-.82.13a1.37,1.37,0,0,0-.42-.76,1.07,1.07,0,0,0-.72-.25,1.28,1.28,0,0,0-1,.46,2.12,2.12,0,0,0-.4,1.44,2.28,2.28,0,0,0,.38,1.46,1.26,1.26,0,0,0,1,.45,1.17,1.17,0,0,0,.82-.3A1.48,1.48,0,0,0,372.66,114.26Z" transform="translate(-34.12 -22.85)"/><path class="cls-6" d="M377.62,114.48l.87.11a2.14,2.14,0,0,1-.77,1.19,2.57,2.57,0,0,1-3.15-.26,2.58,2.58,0,0,1-.64-1.88,2.75,2.75,0,0,1,.64-2,2.2,2.2,0,0,1,1.68-.7,2.13,2.13,0,0,1,1.63.68,2.73,2.73,0,0,1,.64,1.92s0,.12,0,.22H374.8a1.9,1.9,0,0,0,.46,1.26,1.39,1.39,0,0,0,1,.43,1.33,1.33,0,0,0,.8-.24A1.67,1.67,0,0,0,377.62,114.48Zm-2.77-1.36h2.78a1.71,1.71,0,0,0-.32-.94,1.29,1.29,0,0,0-1.05-.49,1.35,1.35,0,0,0-1,.39A1.5,1.5,0,0,0,374.85,113.12Z" transform="translate(-34.12 -22.85)"/></g><g id="MTEXT-9" data-name="MTEXT"><text class="cls-7" transform="translate(253.81 23.66)">Hearth</text></g><g id="LINE-7" data-name="LINE"><line class="cls-8" x1="240.91" y1="179.98" x2="418.24" y2="179.98"/></g><g id="LINE-8" data-name="LINE"><line class="cls-8" x1="173.84" y1="164.65" x2="173.84" y2="0.5"/></g><g id="POLYLINE"><rect class="cls-8" x="283.98" y="47.71" width="84.15" height="76.66"/></g><g id="LINE-9" data-name="LINE"><line class="cls-8" x1="418.24" y1="179.98" x2="418.24" y2="5.47"/></g><g id="LINE-10" data-name="LINE"><line class="cls-8" x1="418.24" y1="5.47" x2="240.91" y2="5.47"/></g><g id="LINE-11" data-name="LINE"><line class="cls-8" x1="240.91" y1="5.47" x2="240.91" y2="179.98"/></g><g id="LINE-12" data-name="LINE"><line class="cls-5" x1="484.57" y1="85.34" x2="418.24" y2="85.34"/></g><g id="LINE-13" data-name="LINE"><line class="cls-9" x1="174.42" y1="380.26" x2="174.42" y2="211.96"/></g><g id="HATCH-2" data-name="HATCH"><rect class="cls-10" x="184.72" y="345.41" width="13.42" height="7.97"/></g><g id="HATCH-3" data-name="HATCH"><rect class="cls-10" x="184.72" y="335.46" width="13.42" height="7.97"/></g><g id="HATCH-4" data-name="HATCH"><rect class="cls-10" x="184.72" y="325.51" width="13.42" height="7.97"/></g><g id="HATCH-5" data-name="HATCH"><rect class="cls-10" x="184.72" y="315.56" width="13.42" height="7.97"/></g><g id="HATCH-6" data-name="HATCH"><rect class="cls-10" x="184.72" y="305.62" width="13.42" height="7.97"/></g><g id="HATCH-7" data-name="HATCH"><rect class="cls-10" x="184.72" y="295.67" width="13.42" height="7.97"/></g><g id="HATCH-8" data-name="HATCH"><rect class="cls-10" x="184.72" y="285.72" width="13.42" height="7.97"/></g><g id="HATCH-9" data-name="HATCH"><rect class="cls-10" x="184.72" y="275.77" width="13.42" height="7.97"/></g><g id="HATCH-10" data-name="HATCH"><rect class="cls-10" x="184.72" y="265.82" width="13.42" height="7.97"/></g><g id="HATCH-11" data-name="HATCH"><rect class="cls-10" x="184.72" y="255.87" width="13.42" height="7.97"/></g><g id="HATCH-12" data-name="HATCH"><rect class="cls-10" x="184.72" y="243.94" width="13.42" height="9.95"/></g><g id="HATCH-13" data-name="HATCH"><rect class="cls-10" x="184.72" y="232.01" width="13.42" height="9.95"/></g><g id="HATCH-14" data-name="HATCH"><rect class="cls-10" x="184.72" y="355.36" width="13.42" height="7.97"/></g><g id="HATCH-15" data-name="HATCH"><rect class="cls-10" x="184.72" y="365.31" width="13.42" height="7.97"/></g><g id="LINE-14" data-name="LINE"><line class="cls-10" x1="184.72" y1="265.82" x2="198.13" y2="265.82"/></g><g id="HATCH-16" data-name="HATCH"><rect class="cls-4" x="212.15" y="274.79" width="65.5" height="60.93"/></g><g id="LINE-15" data-name="LINE"><g id="LINE-16" data-name="LINE"><line class="cls-5" x1="244.01" y1="237.33" x2="244.01" y2="269.47"/><polygon class="cls-6" points="242.27 238.52 244.01 232.01 245.76 238.52 242.27 238.52"/><polygon class="cls-6" points="242.27 268.28 244.01 274.79 245.76 268.28 242.27 268.28"/></g></g><g id="LINE-17" data-name="LINE"><g id="LINE-18" data-name="LINE"><line class="cls-5" x1="307.33" y1="298.63" x2="282.93" y2="298.63"/><polygon class="cls-6" points="306.14 296.89 312.64 298.63 306.14 300.38 306.14 296.89"/><polygon class="cls-6" points="284.12 296.89 277.62 298.63 284.12 300.38 284.12 296.89"/></g></g><g id="LINE-19" data-name="LINE"><line class="cls-5" x1="368.92" y1="298.63" x2="312.64" y2="298.63"/></g><g id="POLYLINE-2" data-name="POLYLINE"><g id="POLYLINE-3" data-name="POLYLINE"><polyline class="cls-5" points="174.25 254.41 153.75 246.59 113.68 246.59"/><polygon class="cls-6" points="173.75 252.36 179.21 256.31 172.51 255.62 173.75 252.36"/></g></g><g id="POLYLINE-4" data-name="POLYLINE"><g id="POLYLINE-5" data-name="POLYLINE"><polyline class="cls-5" points="201.5 306.31 154.31 288.2 113.68 288.2"/><polygon class="cls-6" points="201.02 304.25 206.46 308.21 199.77 307.51 201.02 304.25"/></g></g><g id="POLYLINE-6" data-name="POLYLINE"><g id="POLYLINE-7" data-name="POLYLINE"><polyline class="cls-5" points="188.82 320.15 153.75 334.22 113.68 334.22"/><polygon class="cls-6" points="187.07 318.98 193.76 318.17 188.37 322.21 187.07 318.98"/></g></g><g id="MTEXT-14" data-name="MTEXT"><path class="cls-6" d="M38.67,271v.82H34.13a1.46,1.46,0,0,1,.09-.59,3,3,0,0,1,.56-.91,8.81,8.81,0,0,1,1.1-1,9.47,9.47,0,0,0,1.52-1.45,1.77,1.77,0,0,0,.39-1,1.12,1.12,0,0,0-.36-.84,1.29,1.29,0,0,0-.93-.35,1.35,1.35,0,0,0-1,.37,1.38,1.38,0,0,0-.37,1l-.87-.09a2.19,2.19,0,0,1,.67-1.48,2.3,2.3,0,0,1,1.57-.5,2.19,2.19,0,0,1,1.56.54,1.83,1.83,0,0,1,.58,1.36,2.06,2.06,0,0,1-.17.81,3,3,0,0,1-.56.84,13.14,13.14,0,0,1-1.3,1.21c-.51.43-.83.72-1,.87a2.75,2.75,0,0,0-.35.45Z" transform="translate(-34.12 -22.85)"/><path class="cls-6" d="M39.57,270l.89-.08a1.53,1.53,0,0,0,.45,1,1.24,1.24,0,0,0,.87.33,1.33,1.33,0,0,0,1-.46,1.74,1.74,0,0,0,.42-1.22,1.57,1.57,0,0,0-.4-1.14,1.42,1.42,0,0,0-1.07-.42,1.5,1.5,0,0,0-.73.19,1.42,1.42,0,0,0-.52.48l-.79-.1.67-3.53H43.8v.8H41.06l-.37,1.85a2.22,2.22,0,0,1,1.3-.43,2.07,2.07,0,0,1,1.52.62,2.2,2.2,0,0,1,.62,1.61,2.48,2.48,0,0,1-.55,1.61,2.43,2.43,0,0,1-3.33.31A2.06,2.06,0,0,1,39.57,270Z" transform="translate(-34.12 -22.85)"/><path class="cls-6" d="M47.81,271.77v-5h.76v.7a1.67,1.67,0,0,1,.62-.59,1.76,1.76,0,0,1,.89-.23,1.62,1.62,0,0,1,.9.23,1.2,1.2,0,0,1,.5.65,1.81,1.81,0,0,1,1.54-.88,1.54,1.54,0,0,1,1.14.41,1.81,1.81,0,0,1,.4,1.27v3.42h-.84v-3.14a2.48,2.48,0,0,0-.08-.73.75.75,0,0,0-.3-.36.92.92,0,0,0-.51-.13,1.18,1.18,0,0,0-.87.34,1.57,1.57,0,0,0-.35,1.12v2.9h-.84v-3.24a1.39,1.39,0,0,0-.21-.84.76.76,0,0,0-.67-.28,1.26,1.26,0,0,0-.66.18,1.1,1.1,0,0,0-.44.55,3.13,3.13,0,0,0-.13,1v2.59Z" transform="translate(-34.12 -22.85)"/><path class="cls-6" d="M55.81,271.77v-5h.75v.7a1.78,1.78,0,0,1,.63-.59,1.72,1.72,0,0,1,.88-.23,1.68,1.68,0,0,1,.91.23,1.25,1.25,0,0,1,.5.65,1.79,1.79,0,0,1,1.54-.88,1.54,1.54,0,0,1,1.14.41,1.8,1.8,0,0,1,.39,1.27v3.42h-.84v-3.14a2.18,2.18,0,0,0-.08-.73.66.66,0,0,0-.3-.36.91.91,0,0,0-.5-.13,1.18,1.18,0,0,0-.87.34,1.57,1.57,0,0,0-.35,1.12v2.9h-.84v-3.24a1.39,1.39,0,0,0-.21-.84.78.78,0,0,0-.68-.28,1.25,1.25,0,0,0-.65.18,1.1,1.1,0,0,0-.44.55,3.09,3.09,0,0,0-.14,1v2.59Z" transform="translate(-34.12 -22.85)"/><path class="cls-6" d="M69.72,269.94l.83.11a2.11,2.11,0,0,1-.7,1.34,2,2,0,0,1-1.37.49,2.15,2.15,0,0,1-1.64-.67,2.69,2.69,0,0,1-.63-1.92,3.48,3.48,0,0,1,.27-1.41,1.88,1.88,0,0,1,.81-.9,2.48,2.48,0,0,1,1.19-.31,2.09,2.09,0,0,1,1.33.41,2,2,0,0,1,.66,1.17l-.82.13a1.42,1.42,0,0,0-.41-.76,1.07,1.07,0,0,0-.72-.25,1.3,1.3,0,0,0-1,.46,2.12,2.12,0,0,0-.4,1.44,2.22,2.22,0,0,0,.39,1.46,1.24,1.24,0,0,0,1,.45,1.19,1.19,0,0,0,.83-.3A1.53,1.53,0,0,0,69.72,269.94Z" transform="translate(-34.12 -22.85)"/><path class="cls-6" d="M71.25,271.77v-6.88h.85v6.88Z" transform="translate(-34.12 -22.85)"/><path class="cls-6" d="M76.81,270.16l.88.11a2.2,2.2,0,0,1-.77,1.19,2.28,2.28,0,0,1-1.42.42,2.33,2.33,0,0,1-1.74-.67,2.66,2.66,0,0,1-.63-1.89,2.75,2.75,0,0,1,.64-1.95,2.2,2.2,0,0,1,1.68-.7,2.13,2.13,0,0,1,1.63.68,2.73,2.73,0,0,1,.63,1.92v.22H74a1.9,1.9,0,0,0,.46,1.26,1.39,1.39,0,0,0,1,.43,1.28,1.28,0,0,0,.79-.24A1.53,1.53,0,0,0,76.81,270.16ZM74,268.8h2.78a1.56,1.56,0,0,0-.32-.94,1.26,1.26,0,0,0-1-.49,1.35,1.35,0,0,0-1,.39A1.56,1.56,0,0,0,74,268.8Z" transform="translate(-34.12 -22.85)"/><path class="cls-6" d="M82,271.15a3,3,0,0,1-.9.56,2.6,2.6,0,0,1-.93.17,1.83,1.83,0,0,1-1.26-.4,1.34,1.34,0,0,1-.44-1,1.31,1.31,0,0,1,.17-.67,1.33,1.33,0,0,1,.43-.48,2.28,2.28,0,0,1,.61-.28,6.56,6.56,0,0,1,.75-.12,8.6,8.6,0,0,0,1.5-.29c0-.12,0-.19,0-.22a.93.93,0,0,0-.24-.73,1.43,1.43,0,0,0-1-.29,1.48,1.48,0,0,0-.88.21,1.29,1.29,0,0,0-.42.74l-.83-.11a2.13,2.13,0,0,1,.37-.86,1.71,1.71,0,0,1,.75-.5,3.23,3.23,0,0,1,1.13-.18,3.05,3.05,0,0,1,1,.15,1.36,1.36,0,0,1,.58.38,1.24,1.24,0,0,1,.26.58,4.22,4.22,0,0,1,0,.77v1.13a11.53,11.53,0,0,0,0,1.49,2.26,2.26,0,0,0,.21.6h-.88A2.16,2.16,0,0,1,82,271.15Zm-.07-1.88a6.44,6.44,0,0,1-1.38.32,3.42,3.42,0,0,0-.73.16.76.76,0,0,0-.33.28.7.7,0,0,0-.12.4.72.72,0,0,0,.25.56,1.12,1.12,0,0,0,.75.23,1.66,1.66,0,0,0,.87-.22,1.31,1.31,0,0,0,.56-.58,2,2,0,0,0,.13-.84Z" transform="translate(-34.12 -22.85)"/><path class="cls-6" d="M84.07,271.77v-5h.76v.75a2.34,2.34,0,0,1,.54-.7,1,1,0,0,1,.54-.17,1.65,1.65,0,0,1,.87.28l-.29.78a1.23,1.23,0,0,0-.62-.18.83.83,0,0,0-.5.16.94.94,0,0,0-.31.46,3.12,3.12,0,0,0-.14,1v2.61Z" transform="translate(-34.12 -22.85)"/><path class="cls-6" d="M90.53,271.15a3,3,0,0,1-.9.56,2.6,2.6,0,0,1-.93.17,1.83,1.83,0,0,1-1.26-.4,1.31,1.31,0,0,1-.44-1,1.41,1.41,0,0,1,.16-.67,1.36,1.36,0,0,1,.44-.48,2.28,2.28,0,0,1,.61-.28,6.56,6.56,0,0,1,.75-.12,8.6,8.6,0,0,0,1.5-.29v-.22a.93.93,0,0,0-.24-.73,1.39,1.39,0,0,0-1-.29,1.5,1.5,0,0,0-.88.21,1.34,1.34,0,0,0-.41.74l-.83-.11a2.13,2.13,0,0,1,.37-.86,1.6,1.6,0,0,1,.75-.5,3.23,3.23,0,0,1,1.13-.18,3,3,0,0,1,1,.15,1.4,1.4,0,0,1,.59.38,1.35,1.35,0,0,1,.26.58,4.51,4.51,0,0,1,0,.77v1.13a10.84,10.84,0,0,0,.06,1.49,1.72,1.72,0,0,0,.21.6H90.7A1.66,1.66,0,0,1,90.53,271.15Zm-.07-1.88a6.76,6.76,0,0,1-1.38.32,3.27,3.27,0,0,0-.73.16A.79.79,0,0,0,88,270a.69.69,0,0,0-.11.4.72.72,0,0,0,.25.56,1.1,1.1,0,0,0,.75.23,1.71,1.71,0,0,0,.87-.22,1.23,1.23,0,0,0,.55-.58,2,2,0,0,0,.14-.84Z" transform="translate(-34.12 -22.85)"/><path class="cls-6" d="M92.62,271.77v-5h.76v.7a1.8,1.8,0,0,1,1.58-.82,2.05,2.05,0,0,1,.83.17,1.33,1.33,0,0,1,.57.42,1.73,1.73,0,0,1,.26.62,4.91,4.91,0,0,1,0,.82v3.07h-.85v-3a2.13,2.13,0,0,0-.1-.77.77.77,0,0,0-.35-.41,1.09,1.09,0,0,0-.58-.15,1.35,1.35,0,0,0-.93.34,1.66,1.66,0,0,0-.4,1.3v2.72Z" transform="translate(-34.12 -22.85)"/><path class="cls-6" d="M101.21,269.94l.83.11a2.16,2.16,0,0,1-.7,1.34,2,2,0,0,1-1.38.49,2.16,2.16,0,0,1-1.64-.67,2.74,2.74,0,0,1-.62-1.92,3.48,3.48,0,0,1,.27-1.41,1.88,1.88,0,0,1,.81-.9,2.45,2.45,0,0,1,1.19-.31,2.11,2.11,0,0,1,1.33.41,2,2,0,0,1,.66,1.17l-.82.13a1.37,1.37,0,0,0-.42-.76,1.07,1.07,0,0,0-.72-.25,1.28,1.28,0,0,0-1,.46,2.12,2.12,0,0,0-.4,1.44,2.28,2.28,0,0,0,.38,1.46,1.26,1.26,0,0,0,1,.45,1.21,1.21,0,0,0,.83-.3A1.53,1.53,0,0,0,101.21,269.94Z" transform="translate(-34.12 -22.85)"/><path class="cls-6" d="M106.17,270.16l.87.11a2.14,2.14,0,0,1-.77,1.19,2.59,2.59,0,0,1-3.15-.25,2.62,2.62,0,0,1-.64-1.89,2.75,2.75,0,0,1,.64-1.95,2.23,2.23,0,0,1,1.68-.7,2.13,2.13,0,0,1,1.63.68,2.68,2.68,0,0,1,.64,1.92,2,2,0,0,1,0,.22h-3.71a2,2,0,0,0,.46,1.26,1.39,1.39,0,0,0,1,.43,1.33,1.33,0,0,0,.8-.24A1.6,1.6,0,0,0,106.17,270.16Zm-2.77-1.36h2.78a1.71,1.71,0,0,0-.32-.94,1.29,1.29,0,0,0-1-.49,1.35,1.35,0,0,0-1,.39A1.5,1.5,0,0,0,103.4,268.8Z" transform="translate(-34.12 -22.85)"/><path class="cls-6" d="M111.54,271.77h-.78v-6.88h.84v2.45a1.71,1.71,0,0,1,1.37-.67,2.16,2.16,0,0,1,.87.19,1.73,1.73,0,0,1,.67.52,2.39,2.39,0,0,1,.42.81,3.29,3.29,0,0,1,.15,1,2.87,2.87,0,0,1-.63,2,2,2,0,0,1-1.52.7,1.61,1.61,0,0,1-1.39-.74Zm0-2.53a2.56,2.56,0,0,0,.25,1.29,1.19,1.19,0,0,0,1.08.65,1.22,1.22,0,0,0,1-.48,2.16,2.16,0,0,0,.41-1.43,2.21,2.21,0,0,0-.39-1.44,1.18,1.18,0,0,0-.94-.46,1.22,1.22,0,0,0-1,.48A2.1,2.1,0,0,0,111.53,269.24Z" transform="translate(-34.12 -22.85)"/><path class="cls-6" d="M119.51,270.16l.87.11a2.13,2.13,0,0,1-.76,1.19,2.3,2.3,0,0,1-1.42.42,2.33,2.33,0,0,1-1.74-.67,2.67,2.67,0,0,1-.64-1.89,2.75,2.75,0,0,1,.65-1.95,2.2,2.2,0,0,1,1.68-.7,2.14,2.14,0,0,1,1.63.68,2.73,2.73,0,0,1,.63,1.92v.22H116.7a1.9,1.9,0,0,0,.46,1.26,1.37,1.37,0,0,0,1,.43,1.3,1.3,0,0,0,.79-.24A1.6,1.6,0,0,0,119.51,270.16Zm-2.77-1.36h2.78a1.63,1.63,0,0,0-.32-.94,1.27,1.27,0,0,0-1-.49,1.33,1.33,0,0,0-1,.39A1.56,1.56,0,0,0,116.74,268.8Z" transform="translate(-34.12 -22.85)"/><path class="cls-6" d="M123.29,271l.12.75a3.12,3.12,0,0,1-.64.07,1.51,1.51,0,0,1-.71-.14.84.84,0,0,1-.36-.39,3,3,0,0,1-.1-1v-2.87H121v-.65h.62v-1.24l.84-.5v1.74h.85v.65h-.85v2.91a1.57,1.57,0,0,0,0,.47.33.33,0,0,0,.15.16.55.55,0,0,0,.29.06Z" transform="translate(-34.12 -22.85)"/><path class="cls-6" d="M125,271.77l-1.52-5h.87l.79,2.87.29,1.07c0-.05.1-.4.26-1l.79-2.91h.87l.75,2.88.25,1,.28-1,.85-2.88h.82l-1.55,5h-.88l-.79-3-.19-.84-1,3.83Z" transform="translate(-34.12 -22.85)"/><path class="cls-6" d="M134.45,270.16l.87.11a2.13,2.13,0,0,1-.76,1.19,2.6,2.6,0,0,1-3.16-.25,2.62,2.62,0,0,1-.64-1.89,2.75,2.75,0,0,1,.65-1.95,2.2,2.2,0,0,1,1.68-.7,2.14,2.14,0,0,1,1.63.68,2.73,2.73,0,0,1,.63,1.92v.22h-3.72a2,2,0,0,0,.47,1.26,1.37,1.37,0,0,0,1,.43,1.3,1.3,0,0,0,.79-.24A1.6,1.6,0,0,0,134.45,270.16Zm-2.77-1.36h2.78a1.63,1.63,0,0,0-.32-.94,1.28,1.28,0,0,0-1-.49,1.33,1.33,0,0,0-1,.39A1.51,1.51,0,0,0,131.68,268.8Z" transform="translate(-34.12 -22.85)"/><path class="cls-6" d="M139.79,270.16l.87.11a2.13,2.13,0,0,1-.76,1.19,2.6,2.6,0,0,1-3.16-.25,2.62,2.62,0,0,1-.64-1.89,2.75,2.75,0,0,1,.65-1.95,2.2,2.2,0,0,1,1.68-.7,2.14,2.14,0,0,1,1.63.68,2.73,2.73,0,0,1,.63,1.92v.22H137a1.9,1.9,0,0,0,.47,1.26,1.37,1.37,0,0,0,1,.43,1.3,1.3,0,0,0,.79-.24A1.6,1.6,0,0,0,139.79,270.16ZM137,268.8h2.78a1.63,1.63,0,0,0-.32-.94,1.28,1.28,0,0,0-1-.49,1.33,1.33,0,0,0-1,.39A1.51,1.51,0,0,0,137,268.8Z" transform="translate(-34.12 -22.85)"/><path class="cls-6" d="M141.72,271.77v-5h.76v.7a1.82,1.82,0,0,1,1.59-.82,2,2,0,0,1,.82.17,1.33,1.33,0,0,1,.57.42,1.73,1.73,0,0,1,.26.62,4.91,4.91,0,0,1,.05.82v3.07h-.85v-3a2.44,2.44,0,0,0-.09-.77.87.87,0,0,0-.35-.41,1.15,1.15,0,0,0-.59-.15,1.35,1.35,0,0,0-.93.34,1.7,1.7,0,0,0-.39,1.3v2.72Z" transform="translate(-34.12 -22.85)"/><path class="cls-6" d="M34.47,283.29v-6.88h.84v2.47a1.87,1.87,0,0,1,1.49-.69,2.06,2.06,0,0,1,1,.22,1.37,1.37,0,0,1,.59.6,3,3,0,0,1,.17,1.12v3.16h-.84v-3.16a1.27,1.27,0,0,0-.28-.92,1,1,0,0,0-.77-.29,1.39,1.39,0,0,0-.71.2,1.07,1.07,0,0,0-.47.52,2.5,2.5,0,0,0-.14.92v2.73Z" transform="translate(-34.12 -22.85)"/><path class="cls-6" d="M43.21,281.68l.87.11a2.13,2.13,0,0,1-.76,1.19,2.3,2.3,0,0,1-1.42.42,2.33,2.33,0,0,1-1.74-.67,2.67,2.67,0,0,1-.64-1.89,2.75,2.75,0,0,1,.65-1.95,2.2,2.2,0,0,1,1.68-.7,2.14,2.14,0,0,1,1.63.68,2.73,2.73,0,0,1,.63,1.92V281H40.4a1.9,1.9,0,0,0,.46,1.26,1.39,1.39,0,0,0,1,.43,1.3,1.3,0,0,0,.79-.24A1.6,1.6,0,0,0,43.21,281.68Zm-2.77-1.36h2.78a1.56,1.56,0,0,0-.32-.94,1.26,1.26,0,0,0-1-.49,1.35,1.35,0,0,0-1,.39A1.56,1.56,0,0,0,40.44,280.32Z" transform="translate(-34.12 -22.85)"/><path class="cls-6" d="M48.39,282.67a3,3,0,0,1-.9.56,2.6,2.6,0,0,1-.93.17,1.83,1.83,0,0,1-1.26-.4,1.34,1.34,0,0,1-.44-1,1.31,1.31,0,0,1,.17-.67,1.33,1.33,0,0,1,.43-.48,2.28,2.28,0,0,1,.61-.28,6.56,6.56,0,0,1,.75-.12,8.6,8.6,0,0,0,1.5-.29c0-.12,0-.19,0-.22a.93.93,0,0,0-.24-.73,1.43,1.43,0,0,0-1-.29,1.48,1.48,0,0,0-.88.21,1.29,1.29,0,0,0-.42.74l-.83-.11a2.13,2.13,0,0,1,.37-.86,1.65,1.65,0,0,1,.75-.5,3.23,3.23,0,0,1,1.13-.18,3.05,3.05,0,0,1,1,.15,1.36,1.36,0,0,1,.58.38,1.24,1.24,0,0,1,.26.58,4.22,4.22,0,0,1,0,.77v1.13a11.53,11.53,0,0,0,0,1.49,2.26,2.26,0,0,0,.21.6h-.88A1.88,1.88,0,0,1,48.39,282.67Zm-.07-1.88a6.44,6.44,0,0,1-1.38.32,3.42,3.42,0,0,0-.73.16.71.71,0,0,0-.33.28.7.7,0,0,0-.12.4.72.72,0,0,0,.25.56,1.1,1.1,0,0,0,.75.23,1.66,1.66,0,0,0,.87-.22,1.31,1.31,0,0,0,.56-.58,2,2,0,0,0,.13-.84Z" transform="translate(-34.12 -22.85)"/><path class="cls-6" d="M52.33,282.53l.12.75a3.12,3.12,0,0,1-.64.07,1.51,1.51,0,0,1-.71-.14.84.84,0,0,1-.36-.39,3,3,0,0,1-.1-1V279H50v-.65h.62v-1.24l.84-.5v1.74h.85V279h-.85v2.91a1.57,1.57,0,0,0,0,.47.33.33,0,0,0,.15.16.57.57,0,0,0,.29.06Z" transform="translate(-34.12 -22.85)"/><path class="cls-6" d="M55.48,281.8l.84-.13a1.13,1.13,0,0,0,.39.77,1.39,1.39,0,0,0,.89.26,1.33,1.33,0,0,0,.87-.23.75.75,0,0,0,.28-.56.51.51,0,0,0-.25-.45,3.76,3.76,0,0,0-.86-.28,8.67,8.67,0,0,1-1.29-.41,1.19,1.19,0,0,1-.54-.47,1.21,1.21,0,0,1-.19-.67,1.32,1.32,0,0,1,.15-.62,1.45,1.45,0,0,1,.42-.47,1.51,1.51,0,0,1,.54-.24,2.41,2.41,0,0,1,.72-.11,2.92,2.92,0,0,1,1,.17,1.47,1.47,0,0,1,.66.46,1.75,1.75,0,0,1,.29.77l-.83.11a.89.89,0,0,0-.32-.6,1.23,1.23,0,0,0-.76-.21,1.35,1.35,0,0,0-.83.19.55.55,0,0,0-.25.45.47.47,0,0,0,.1.3.79.79,0,0,0,.32.22l.75.22a11,11,0,0,1,1.25.39,1.27,1.27,0,0,1,.55.44,1.2,1.2,0,0,1,.21.72,1.48,1.48,0,0,1-.25.8,1.51,1.51,0,0,1-.71.57,2.52,2.52,0,0,1-1,.21,2.33,2.33,0,0,1-1.48-.41A1.82,1.82,0,0,1,55.48,281.8Z" transform="translate(-34.12 -22.85)"/><path class="cls-6" d="M60.62,283.29v-6.88h.84v2.47a1.89,1.89,0,0,1,1.49-.69,2.06,2.06,0,0,1,1,.22,1.31,1.31,0,0,1,.59.6,3,3,0,0,1,.17,1.12v3.16h-.84v-3.16a1.27,1.27,0,0,0-.28-.92,1,1,0,0,0-.77-.29,1.39,1.39,0,0,0-.71.2,1.12,1.12,0,0,0-.47.52,2.5,2.5,0,0,0-.14.92v2.73Z" transform="translate(-34.12 -22.85)"/><path class="cls-6" d="M66,277.38v-1h.85v1Zm0,5.91v-5h.85v5Z" transform="translate(-34.12 -22.85)"/><path class="cls-6" d="M71.5,281.68l.87.11a2.18,2.18,0,0,1-.76,1.19,2.33,2.33,0,0,1-1.43.42,2.3,2.3,0,0,1-1.73-.67,2.62,2.62,0,0,1-.64-1.89,2.7,2.7,0,0,1,.65-1.95,2.2,2.2,0,0,1,1.67-.7,2.13,2.13,0,0,1,1.63.68,2.68,2.68,0,0,1,.64,1.92,2,2,0,0,1,0,.22H68.68a2,2,0,0,0,.46,1.26,1.4,1.4,0,0,0,1,.43,1.32,1.32,0,0,0,.79-.24A1.6,1.6,0,0,0,71.5,281.68Zm-2.77-1.36h2.78a1.71,1.71,0,0,0-.32-.94,1.29,1.29,0,0,0-1-.49,1.33,1.33,0,0,0-1,.39A1.51,1.51,0,0,0,68.73,280.32Z" transform="translate(-34.12 -22.85)"/><path class="cls-6" d="M73.41,283.29v-6.88h.84v6.88Z" transform="translate(-34.12 -22.85)"/><path class="cls-6" d="M78.79,283.29v-.63a1.55,1.55,0,0,1-1.39.74,1.92,1.92,0,0,1-1.09-.33,2.08,2.08,0,0,1-.78-.92,3.19,3.19,0,0,1-.27-1.35,3.42,3.42,0,0,1,.25-1.35,1.87,1.87,0,0,1,.74-.93,2,2,0,0,1,1.11-.33,1.72,1.72,0,0,1,.8.19,1.77,1.77,0,0,1,.58.5v-2.47h.84v6.88Zm-2.66-2.49a2.14,2.14,0,0,0,.4,1.43,1.2,1.2,0,0,0,1.89,0,2.07,2.07,0,0,0,.39-1.38,2.36,2.36,0,0,0-.4-1.5,1.21,1.21,0,0,0-1.91,0A2.29,2.29,0,0,0,76.13,280.8Z" transform="translate(-34.12 -22.85)"/><path class="cls-6" d="M86.82,282.67a3.16,3.16,0,0,1-.91.56,2.52,2.52,0,0,1-.93.17,1.87,1.87,0,0,1-1.26-.4,1.34,1.34,0,0,1-.44-1,1.4,1.4,0,0,1,.6-1.15,2.43,2.43,0,0,1,.61-.28,7.43,7.43,0,0,1,.75-.12,9,9,0,0,0,1.51-.29v-.22a.93.93,0,0,0-.24-.73,1.39,1.39,0,0,0-1-.29,1.48,1.48,0,0,0-.88.21,1.29,1.29,0,0,0-.42.74l-.82-.11a2,2,0,0,1,.37-.86,1.62,1.62,0,0,1,.74-.5,3.31,3.31,0,0,1,1.13-.18,3,3,0,0,1,1,.15,1.36,1.36,0,0,1,.58.38,1.25,1.25,0,0,1,.27.58,4.51,4.51,0,0,1,0,.77v1.13a13.86,13.86,0,0,0,.05,1.49,2,2,0,0,0,.22.6H87A1.66,1.66,0,0,1,86.82,282.67Zm-.07-1.88a6.76,6.76,0,0,1-1.38.32,3.55,3.55,0,0,0-.74.16.83.83,0,0,0-.33.28.7.7,0,0,0-.12.4.73.73,0,0,0,.26.56,1.1,1.1,0,0,0,.75.23,1.64,1.64,0,0,0,.86-.22,1.26,1.26,0,0,0,.56-.58,2,2,0,0,0,.14-.84Z" transform="translate(-34.12 -22.85)"/><path class="cls-6" d="M88.91,283.29v-5h.76v.7a1.79,1.79,0,0,1,1.58-.82,2.05,2.05,0,0,1,.83.17,1.24,1.24,0,0,1,.56.42,1.58,1.58,0,0,1,.27.62,5.23,5.23,0,0,1,0,.82v3.07h-.84v-3a2.13,2.13,0,0,0-.1-.77.82.82,0,0,0-.35-.41,1.13,1.13,0,0,0-.59-.15,1.35,1.35,0,0,0-.93.34,1.7,1.7,0,0,0-.39,1.3v2.72Z" transform="translate(-34.12 -22.85)"/><path class="cls-6" d="M97.48,283.29v-.63a1.56,1.56,0,0,1-1.4.74,1.94,1.94,0,0,1-1.09-.33,2.12,2.12,0,0,1-.77-.92,3,3,0,0,1-.28-1.35,3.42,3.42,0,0,1,.25-1.35,1.89,1.89,0,0,1,.75-.93,2,2,0,0,1,1.11-.33,1.75,1.75,0,0,1,.8.19,1.84,1.84,0,0,1,.57.5v-2.47h.84v6.88Zm-2.67-2.49a2.14,2.14,0,0,0,.4,1.43,1.21,1.21,0,0,0,1,.47,1.18,1.18,0,0,0,.94-.45,2.07,2.07,0,0,0,.39-1.38,2.36,2.36,0,0,0-.39-1.5,1.23,1.23,0,0,0-1-.48,1.18,1.18,0,0,0-.94.46A2.23,2.23,0,0,0,94.81,280.8Z" transform="translate(-34.12 -22.85)"/><path class="cls-6" d="M103.17,283.29l-1.52-5h.87l.79,2.87.3,1.07c0-.05.1-.4.26-1l.79-2.91h.86l.75,2.88.25,1,.28-1,.86-2.88h.82l-1.56,5H106l-.79-3-.19-.84-1,3.83Z" transform="translate(-34.12 -22.85)"/><path class="cls-6" d="M112.43,282.67a3,3,0,0,1-.9.56,2.6,2.6,0,0,1-.93.17,1.83,1.83,0,0,1-1.26-.4,1.34,1.34,0,0,1-.44-1,1.42,1.42,0,0,1,.17-.67,1.33,1.33,0,0,1,.43-.48,2.28,2.28,0,0,1,.61-.28,6.56,6.56,0,0,1,.75-.12,8.6,8.6,0,0,0,1.5-.29c0-.12,0-.19,0-.22a.93.93,0,0,0-.24-.73,1.43,1.43,0,0,0-1-.29,1.48,1.48,0,0,0-.88.21,1.29,1.29,0,0,0-.42.74l-.83-.11a2,2,0,0,1,.38-.86,1.62,1.62,0,0,1,.74-.5,3.27,3.27,0,0,1,1.13-.18,3.05,3.05,0,0,1,1,.15,1.36,1.36,0,0,1,.58.38,1.15,1.15,0,0,1,.26.58,4.22,4.22,0,0,1,0,.77v1.13a11.53,11.53,0,0,0,0,1.49,2.26,2.26,0,0,0,.21.6h-.88A2.16,2.16,0,0,1,112.43,282.67Zm-.07-1.88a6.47,6.47,0,0,1-1.37.32,3.4,3.4,0,0,0-.74.16.83.83,0,0,0-.33.28.7.7,0,0,0-.12.4.72.72,0,0,0,.25.56,1.12,1.12,0,0,0,.75.23,1.66,1.66,0,0,0,.87-.22,1.31,1.31,0,0,0,.56-.58,2,2,0,0,0,.13-.84Z" transform="translate(-34.12 -22.85)"/><path class="cls-6" d="M114.51,283.29v-6.88h.84v6.88Z" transform="translate(-34.12 -22.85)"/><path class="cls-6" d="M116.64,283.29v-6.88h.84v6.88Z" transform="translate(-34.12 -22.85)"/></g><g id="MTEXT-15" data-name="MTEXT"><path class="cls-6" d="M34.23,310.75l.89-.08a1.56,1.56,0,0,0,.46,1,1.24,1.24,0,0,0,.86.32,1.33,1.33,0,0,0,1-.46,1.72,1.72,0,0,0,.42-1.22,1.53,1.53,0,0,0-.4-1.13,1.42,1.42,0,0,0-1.06-.42,1.5,1.5,0,0,0-.74.18,1.61,1.61,0,0,0-.52.48l-.79-.1.67-3.53h3.41v.81H35.72l-.37,1.84a2.32,2.32,0,0,1,1.3-.43,2,2,0,0,1,1.52.63,2.18,2.18,0,0,1,.62,1.6,2.5,2.5,0,0,1-.54,1.61,2.2,2.2,0,0,1-1.81.84,2.22,2.22,0,0,1-1.53-.53A2,2,0,0,1,34.23,310.75Z" transform="translate(-34.12 -22.85)"/><path class="cls-6" d="M39.57,309.16a6.49,6.49,0,0,1,.25-2,2.46,2.46,0,0,1,.75-1.15,1.88,1.88,0,0,1,1.24-.4,2,2,0,0,1,1,.22,1.84,1.84,0,0,1,.69.64,3.63,3.63,0,0,1,.43,1,7,7,0,0,1,.15,1.62,6.12,6.12,0,0,1-.25,1.95,2.37,2.37,0,0,1-.74,1.15,2.08,2.08,0,0,1-2.81-.31A4.53,4.53,0,0,1,39.57,309.16Zm.87,0a4.34,4.34,0,0,0,.39,2.25,1.16,1.16,0,0,0,1,.56,1.15,1.15,0,0,0,1-.56,6.53,6.53,0,0,0,0-4.5,1.15,1.15,0,0,0-1-.56,1.1,1.1,0,0,0-.93.49A4.37,4.37,0,0,0,40.44,309.16Z" transform="translate(-34.12 -22.85)"/><path class="cls-6" d="M47.81,312.55v-5h.76v.7a1.73,1.73,0,0,1,1.51-.81,1.62,1.62,0,0,1,.9.23,1.18,1.18,0,0,1,.5.64,1.8,1.8,0,0,1,1.54-.87,1.54,1.54,0,0,1,1.14.41,1.76,1.76,0,0,1,.4,1.26v3.42h-.84v-3.14a2.53,2.53,0,0,0-.08-.73.78.78,0,0,0-.3-.35.93.93,0,0,0-.51-.14,1.18,1.18,0,0,0-.87.35,1.53,1.53,0,0,0-.35,1.12v2.89h-.84v-3.24a1.41,1.41,0,0,0-.21-.84.76.76,0,0,0-.67-.28,1.18,1.18,0,0,0-.66.19,1.06,1.06,0,0,0-.44.55,3.09,3.09,0,0,0-.13,1v2.58Z" transform="translate(-34.12 -22.85)"/><path class="cls-6" d="M55.81,312.55v-5h.75v.7a1.88,1.88,0,0,1,.63-.59,1.72,1.72,0,0,1,.88-.22,1.68,1.68,0,0,1,.91.23,1.23,1.23,0,0,1,.5.64,1.78,1.78,0,0,1,1.54-.87,1.54,1.54,0,0,1,1.14.41,1.76,1.76,0,0,1,.39,1.26v3.42h-.84v-3.14a2.21,2.21,0,0,0-.08-.73.67.67,0,0,0-.3-.35.92.92,0,0,0-.5-.14,1.18,1.18,0,0,0-.87.35,1.53,1.53,0,0,0-.35,1.12v2.89h-.84v-3.24a1.41,1.41,0,0,0-.21-.84.78.78,0,0,0-.68-.28,1.17,1.17,0,0,0-.65.19,1.06,1.06,0,0,0-.44.55,3.05,3.05,0,0,0-.14,1v2.58Z" transform="translate(-34.12 -22.85)"/><path class="cls-6" d="M69.72,310.73l.83.1a2.14,2.14,0,0,1-.7,1.35,2,2,0,0,1-1.37.48,2.11,2.11,0,0,1-1.64-.67,2.67,2.67,0,0,1-.63-1.91,3.41,3.41,0,0,1,.27-1.41,1.9,1.9,0,0,1,.81-.91,2.47,2.47,0,0,1,1.19-.3,2.09,2.09,0,0,1,1.33.41,1.9,1.9,0,0,1,.66,1.16l-.82.13a1.39,1.39,0,0,0-.41-.75,1.08,1.08,0,0,0-.72-.26,1.3,1.3,0,0,0-1,.46,2.15,2.15,0,0,0-.4,1.45,2.21,2.21,0,0,0,.39,1.45,1.22,1.22,0,0,0,1,.46,1.16,1.16,0,0,0,.83-.31A1.5,1.5,0,0,0,69.72,310.73Z" transform="translate(-34.12 -22.85)"/><path class="cls-6" d="M71.25,312.55v-6.87h.85v6.87Z" transform="translate(-34.12 -22.85)"/><path class="cls-6" d="M76.81,311l.88.1a2.16,2.16,0,0,1-.77,1.19,2.6,2.6,0,0,1-3.16-.25,2.66,2.66,0,0,1-.63-1.89,2.76,2.76,0,0,1,.64-2,2.19,2.19,0,0,1,1.68-.69,2.13,2.13,0,0,1,1.63.68,2.7,2.7,0,0,1,.63,1.91v.23H74a1.89,1.89,0,0,0,.46,1.25,1.4,1.4,0,0,0,1,.44,1.22,1.22,0,0,0,.79-.25A1.55,1.55,0,0,0,76.81,311ZM74,309.58h2.78a1.59,1.59,0,0,0-.32-.94,1.26,1.26,0,0,0-1-.49,1.35,1.35,0,0,0-1,.39A1.58,1.58,0,0,0,74,309.58Z" transform="translate(-34.12 -22.85)"/><path class="cls-6" d="M82,311.94a3.21,3.21,0,0,1-.9.56,2.6,2.6,0,0,1-.93.16,1.78,1.78,0,0,1-1.26-.4,1.34,1.34,0,0,1-.44-1,1.26,1.26,0,0,1,.17-.67,1.45,1.45,0,0,1,.43-.49,2,2,0,0,1,.61-.27,4.62,4.62,0,0,1,.75-.13,7.74,7.74,0,0,0,1.5-.29c0-.12,0-.19,0-.22a.94.94,0,0,0-.24-.73,1.43,1.43,0,0,0-1-.28,1.48,1.48,0,0,0-.88.21,1.22,1.22,0,0,0-.42.73L78.6,309a2.08,2.08,0,0,1,.37-.85,1.73,1.73,0,0,1,.75-.51,3.49,3.49,0,0,1,1.13-.17,3.05,3.05,0,0,1,1,.15,1.28,1.28,0,0,1,.58.38,1.25,1.25,0,0,1,.26.57,4.27,4.27,0,0,1,0,.78v1.12a11.42,11.42,0,0,0,0,1.49,2.14,2.14,0,0,0,.21.6h-.88A2.18,2.18,0,0,1,82,311.94Zm-.07-1.89a5.88,5.88,0,0,1-1.38.32,3.28,3.28,0,0,0-.73.17.68.68,0,0,0-.33.27.76.76,0,0,0,.13,1,1.12,1.12,0,0,0,.75.22,1.75,1.75,0,0,0,.87-.21,1.33,1.33,0,0,0,.56-.59,2,2,0,0,0,.13-.84Z" transform="translate(-34.12 -22.85)"/><path class="cls-6" d="M84.07,312.55v-5h.76v.76a2.1,2.1,0,0,1,.54-.7,1,1,0,0,1,.54-.17,1.64,1.64,0,0,1,.87.27l-.29.78a1.23,1.23,0,0,0-.62-.18.84.84,0,0,0-.5.17.9.9,0,0,0-.31.46,3.1,3.1,0,0,0-.14,1v2.61Z" transform="translate(-34.12 -22.85)"/><path class="cls-6" d="M90.53,311.94a3.21,3.21,0,0,1-.9.56,2.6,2.6,0,0,1-.93.16,1.78,1.78,0,0,1-1.26-.4,1.31,1.31,0,0,1-.44-1,1.35,1.35,0,0,1,.16-.67,1.48,1.48,0,0,1,.44-.49,2,2,0,0,1,.61-.27,4.62,4.62,0,0,1,.75-.13,7.74,7.74,0,0,0,1.5-.29v-.22a.94.94,0,0,0-.24-.73,1.39,1.39,0,0,0-1-.28,1.5,1.5,0,0,0-.88.21,1.27,1.27,0,0,0-.41.73l-.83-.11a2.08,2.08,0,0,1,.37-.85,1.61,1.61,0,0,1,.75-.51,3.49,3.49,0,0,1,1.13-.17,3,3,0,0,1,1,.15A1.31,1.31,0,0,1,91,308a1.36,1.36,0,0,1,.26.57,4.57,4.57,0,0,1,0,.78v1.12a10.73,10.73,0,0,0,.06,1.49,1.66,1.66,0,0,0,.21.6H90.7A1.67,1.67,0,0,1,90.53,311.94Zm-.07-1.89a6.15,6.15,0,0,1-1.38.32,3.14,3.14,0,0,0-.73.17.68.68,0,0,0-.45.67.72.72,0,0,0,.25.57,1.1,1.1,0,0,0,.75.22,1.81,1.81,0,0,0,.87-.21,1.26,1.26,0,0,0,.55-.59,2,2,0,0,0,.14-.84Z" transform="translate(-34.12 -22.85)"/><path class="cls-6" d="M92.62,312.55v-5h.76v.71a1.78,1.78,0,0,1,1.58-.82,2,2,0,0,1,.83.16,1.42,1.42,0,0,1,.57.42,1.78,1.78,0,0,1,.26.63,4.82,4.82,0,0,1,0,.82v3.06h-.85v-3a2.17,2.17,0,0,0-.1-.77.77.77,0,0,0-.35-.41,1.09,1.09,0,0,0-.58-.15,1.35,1.35,0,0,0-.93.34,1.66,1.66,0,0,0-.4,1.3v2.72Z" transform="translate(-34.12 -22.85)"/><path class="cls-6" d="M101.21,310.73l.83.1a2.18,2.18,0,0,1-.7,1.35,2,2,0,0,1-1.38.48,2.13,2.13,0,0,1-1.64-.67,2.71,2.71,0,0,1-.62-1.91,3.41,3.41,0,0,1,.27-1.41,1.9,1.9,0,0,1,.81-.91,2.45,2.45,0,0,1,1.19-.3,2.11,2.11,0,0,1,1.33.41A1.9,1.9,0,0,1,102,309l-.82.13a1.34,1.34,0,0,0-.42-.75,1.08,1.08,0,0,0-.72-.26,1.28,1.28,0,0,0-1,.46,2.15,2.15,0,0,0-.4,1.45,2.27,2.27,0,0,0,.38,1.45,1.24,1.24,0,0,0,1,.46,1.17,1.17,0,0,0,.83-.31A1.5,1.5,0,0,0,101.21,310.73Z" transform="translate(-34.12 -22.85)"/><path class="cls-6" d="M106.17,311l.87.1a2.11,2.11,0,0,1-.77,1.19,2.28,2.28,0,0,1-1.42.42,2.25,2.25,0,0,1-1.73-.67,2.62,2.62,0,0,1-.64-1.89,2.76,2.76,0,0,1,.64-2,2.22,2.22,0,0,1,1.68-.69,2.13,2.13,0,0,1,1.63.68,2.66,2.66,0,0,1,.64,1.91,2.2,2.2,0,0,1,0,.23h-3.71a1.94,1.94,0,0,0,.46,1.25,1.4,1.4,0,0,0,1,.44,1.27,1.27,0,0,0,.8-.25A1.61,1.61,0,0,0,106.17,311Zm-2.77-1.37h2.78a1.74,1.74,0,0,0-.32-.94,1.29,1.29,0,0,0-1-.49,1.35,1.35,0,0,0-1,.39A1.52,1.52,0,0,0,103.4,309.58Z" transform="translate(-34.12 -22.85)"/><path class="cls-6" d="M111.54,312.55h-.78v-6.87h.84v2.45a1.68,1.68,0,0,1,1.37-.67,2.15,2.15,0,0,1,.87.18,1.83,1.83,0,0,1,.67.52,2.59,2.59,0,0,1,.42.81,3.4,3.4,0,0,1,.15,1,2.83,2.83,0,0,1-.63,2,2,2,0,0,1-1.52.7,1.6,1.6,0,0,1-1.39-.73Zm0-2.53a2.63,2.63,0,0,0,.25,1.3,1.2,1.2,0,0,0,2,.17,2.18,2.18,0,0,0,.41-1.43,2.21,2.21,0,0,0-.39-1.44,1.19,1.19,0,0,0-.94-.47,1.22,1.22,0,0,0-1,.48A2.11,2.11,0,0,0,111.53,310Z" transform="translate(-34.12 -22.85)"/><path class="cls-6" d="M119.51,311l.87.1a2.1,2.1,0,0,1-.76,1.19,2.6,2.6,0,0,1-3.16-.25,2.67,2.67,0,0,1-.64-1.89,2.77,2.77,0,0,1,.65-2,2.19,2.19,0,0,1,1.68-.69,2.14,2.14,0,0,1,1.63.68,2.7,2.7,0,0,1,.63,1.91v.23H116.7a1.89,1.89,0,0,0,.46,1.25,1.38,1.38,0,0,0,1,.44,1.24,1.24,0,0,0,.79-.25A1.61,1.61,0,0,0,119.51,311Zm-2.77-1.37h2.78a1.66,1.66,0,0,0-.32-.94,1.27,1.27,0,0,0-1-.49,1.33,1.33,0,0,0-1,.39A1.58,1.58,0,0,0,116.74,309.58Z" transform="translate(-34.12 -22.85)"/><path class="cls-6" d="M123.29,311.79l.12.75a3.12,3.12,0,0,1-.64.07,1.4,1.4,0,0,1-.71-.14.82.82,0,0,1-.36-.38,3,3,0,0,1-.1-1v-2.86H121v-.66h.62v-1.23l.84-.51v1.74h.85v.66h-.85v2.91a1.49,1.49,0,0,0,0,.46.35.35,0,0,0,.15.17.55.55,0,0,0,.29.06A2,2,0,0,0,123.29,311.79Z" transform="translate(-34.12 -22.85)"/><path class="cls-6" d="M125,312.55l-1.52-5h.87l.79,2.87.29,1.07c0-.05.1-.39.26-1l.79-2.92h.87l.75,2.89.25,1,.28-1,.85-2.88h.82l-1.55,5h-.88l-.79-3-.19-.85-1,3.83Z" transform="translate(-34.12 -22.85)"/><path class="cls-6" d="M134.45,311l.87.1a2.1,2.1,0,0,1-.76,1.19,2.31,2.31,0,0,1-1.43.42,2.28,2.28,0,0,1-1.73-.67,2.62,2.62,0,0,1-.64-1.89,2.77,2.77,0,0,1,.65-2,2.19,2.19,0,0,1,1.68-.69,2.14,2.14,0,0,1,1.63.68,2.7,2.7,0,0,1,.63,1.91v.23h-3.72a2,2,0,0,0,.47,1.25,1.38,1.38,0,0,0,1,.44,1.24,1.24,0,0,0,.79-.25A1.61,1.61,0,0,0,134.45,311Zm-2.77-1.37h2.78a1.66,1.66,0,0,0-.32-.94,1.28,1.28,0,0,0-1-.49,1.33,1.33,0,0,0-1,.39A1.53,1.53,0,0,0,131.68,309.58Z" transform="translate(-34.12 -22.85)"/><path class="cls-6" d="M139.79,311l.87.1a2.1,2.1,0,0,1-.76,1.19,2.31,2.31,0,0,1-1.43.42,2.28,2.28,0,0,1-1.73-.67,2.62,2.62,0,0,1-.64-1.89,2.77,2.77,0,0,1,.65-2,2.19,2.19,0,0,1,1.68-.69,2.14,2.14,0,0,1,1.63.68,2.7,2.7,0,0,1,.63,1.91v.23H137a1.89,1.89,0,0,0,.47,1.25,1.38,1.38,0,0,0,1,.44,1.24,1.24,0,0,0,.79-.25A1.61,1.61,0,0,0,139.79,311ZM137,309.58h2.78a1.66,1.66,0,0,0-.32-.94,1.28,1.28,0,0,0-1-.49,1.33,1.33,0,0,0-1,.39A1.53,1.53,0,0,0,137,309.58Z" transform="translate(-34.12 -22.85)"/><path class="cls-6" d="M141.72,312.55v-5h.76v.71a1.8,1.8,0,0,1,1.59-.82,2,2,0,0,1,.82.16,1.42,1.42,0,0,1,.57.42,1.78,1.78,0,0,1,.26.63,4.82,4.82,0,0,1,.05.82v3.06h-.85v-3a2.48,2.48,0,0,0-.09-.77.87.87,0,0,0-.35-.41,1.15,1.15,0,0,0-.59-.15,1.35,1.35,0,0,0-.93.34,1.7,1.7,0,0,0-.39,1.3v2.72Z" transform="translate(-34.12 -22.85)"/><path class="cls-6" d="M34.47,324.07V317.2h.84v2.46A1.89,1.89,0,0,1,36.8,319a2,2,0,0,1,1,.22,1.27,1.27,0,0,1,.59.6,2.93,2.93,0,0,1,.17,1.11v3.16h-.84v-3.16a1.28,1.28,0,0,0-.28-.92,1,1,0,0,0-.77-.28,1.38,1.38,0,0,0-.71.19,1.09,1.09,0,0,0-.47.53,2.5,2.5,0,0,0-.14.92v2.72Z" transform="translate(-34.12 -22.85)"/><path class="cls-6" d="M43.21,322.47l.87.1a2.1,2.1,0,0,1-.76,1.19,2.6,2.6,0,0,1-3.16-.25,2.67,2.67,0,0,1-.64-1.89,2.77,2.77,0,0,1,.65-1.95,2.19,2.19,0,0,1,1.68-.69,2.14,2.14,0,0,1,1.63.68,2.7,2.7,0,0,1,.63,1.91v.23H40.4a1.89,1.89,0,0,0,.46,1.25,1.4,1.4,0,0,0,1,.44,1.24,1.24,0,0,0,.79-.25A1.61,1.61,0,0,0,43.21,322.47Zm-2.77-1.37h2.78a1.59,1.59,0,0,0-.32-.94,1.26,1.26,0,0,0-1-.49,1.35,1.35,0,0,0-1,.39A1.58,1.58,0,0,0,40.44,321.1Z" transform="translate(-34.12 -22.85)"/><path class="cls-6" d="M48.39,323.46a3.21,3.21,0,0,1-.9.56,2.6,2.6,0,0,1-.93.16,1.78,1.78,0,0,1-1.26-.4,1.34,1.34,0,0,1-.44-1,1.26,1.26,0,0,1,.17-.67,1.45,1.45,0,0,1,.43-.49,2,2,0,0,1,.61-.27,4.62,4.62,0,0,1,.75-.13,7.74,7.74,0,0,0,1.5-.29c0-.12,0-.19,0-.22a.94.94,0,0,0-.24-.73,1.43,1.43,0,0,0-1-.28,1.48,1.48,0,0,0-.88.21,1.22,1.22,0,0,0-.42.73l-.83-.11a2.08,2.08,0,0,1,.37-.85,1.67,1.67,0,0,1,.75-.51,3.49,3.49,0,0,1,1.13-.17,3.05,3.05,0,0,1,1,.15,1.28,1.28,0,0,1,.58.38,1.25,1.25,0,0,1,.26.57,4.27,4.27,0,0,1,0,.78V322a11.42,11.42,0,0,0,0,1.49,2.14,2.14,0,0,0,.21.6h-.88A1.89,1.89,0,0,1,48.39,323.46Zm-.07-1.89a5.88,5.88,0,0,1-1.38.32,3.28,3.28,0,0,0-.73.17.64.64,0,0,0-.33.27.76.76,0,0,0,.13,1,1.1,1.1,0,0,0,.75.22,1.75,1.75,0,0,0,.87-.21,1.33,1.33,0,0,0,.56-.59,2,2,0,0,0,.13-.84Z" transform="translate(-34.12 -22.85)"/><path class="cls-6" d="M52.33,323.31l.12.75a3.12,3.12,0,0,1-.64.07,1.4,1.4,0,0,1-.71-.14.82.82,0,0,1-.36-.38,3,3,0,0,1-.1-1v-2.86H50v-.66h.62v-1.23l.84-.51v1.74h.85v.66h-.85v2.91a1.49,1.49,0,0,0,0,.46.35.35,0,0,0,.15.17.57.57,0,0,0,.29.06A2,2,0,0,0,52.33,323.31Z" transform="translate(-34.12 -22.85)"/><path class="cls-6" d="M55.48,322.58l.84-.13a1.11,1.11,0,0,0,.39.77,1.65,1.65,0,0,0,1.76,0,.73.73,0,0,0,.28-.55.51.51,0,0,0-.25-.45,3.6,3.6,0,0,0-.86-.29,7.61,7.61,0,0,1-1.29-.41,1.24,1.24,0,0,1-.73-1.14,1.28,1.28,0,0,1,.15-.61,1.36,1.36,0,0,1,.42-.47,1.7,1.7,0,0,1,.54-.25,2.41,2.41,0,0,1,.72-.1,2.92,2.92,0,0,1,1,.17,1.38,1.38,0,0,1,.66.45,1.79,1.79,0,0,1,.29.78l-.83.11a.85.85,0,0,0-.32-.6,1.17,1.17,0,0,0-.76-.22,1.43,1.43,0,0,0-.83.19.55.55,0,0,0-.25.45.47.47,0,0,0,.1.3.7.7,0,0,0,.32.22c.09,0,.34.11.75.22a11,11,0,0,1,1.25.39,1.27,1.27,0,0,1,.55.44,1.23,1.23,0,0,1,.21.73,1.45,1.45,0,0,1-.25.79,1.59,1.59,0,0,1-.71.58,2.69,2.69,0,0,1-1,.2,2.33,2.33,0,0,1-1.48-.4A1.86,1.86,0,0,1,55.48,322.58Z" transform="translate(-34.12 -22.85)"/><path class="cls-6" d="M60.62,324.07V317.2h.84v2.46A1.91,1.91,0,0,1,63,319a2,2,0,0,1,1,.22,1.23,1.23,0,0,1,.59.6,2.93,2.93,0,0,1,.17,1.11v3.16h-.84v-3.16a1.28,1.28,0,0,0-.28-.92,1,1,0,0,0-.77-.28,1.38,1.38,0,0,0-.71.19,1.15,1.15,0,0,0-.47.53,2.5,2.5,0,0,0-.14.92v2.72Z" transform="translate(-34.12 -22.85)"/><path class="cls-6" d="M66,318.17v-1h.85v1Zm0,5.9v-5h.85v5Z" transform="translate(-34.12 -22.85)"/><path class="cls-6" d="M71.5,322.47l.87.1a2.15,2.15,0,0,1-.76,1.19,2.33,2.33,0,0,1-1.43.42,2.27,2.27,0,0,1-1.73-.67,2.62,2.62,0,0,1-.64-1.89,2.72,2.72,0,0,1,.65-1.95,2.19,2.19,0,0,1,1.67-.69,2.13,2.13,0,0,1,1.63.68,2.66,2.66,0,0,1,.64,1.91,2.2,2.2,0,0,1,0,.23H68.68a1.94,1.94,0,0,0,.46,1.25,1.4,1.4,0,0,0,1,.44,1.26,1.26,0,0,0,.79-.25A1.61,1.61,0,0,0,71.5,322.47Zm-2.77-1.37h2.78a1.74,1.74,0,0,0-.32-.94,1.29,1.29,0,0,0-1-.49,1.33,1.33,0,0,0-1,.39A1.53,1.53,0,0,0,68.73,321.1Z" transform="translate(-34.12 -22.85)"/><path class="cls-6" d="M73.41,324.07V317.2h.84v6.87Z" transform="translate(-34.12 -22.85)"/><path class="cls-6" d="M78.79,324.07v-.63a1.53,1.53,0,0,1-1.39.74,1.92,1.92,0,0,1-1.09-.33,2.11,2.11,0,0,1-.78-.91,3.27,3.27,0,0,1-.27-1.36,3.49,3.49,0,0,1,.25-1.35,2,2,0,0,1,.74-.93,2,2,0,0,1,1.11-.32,1.6,1.6,0,0,1,.8.19,1.63,1.63,0,0,1,.58.49V317.2h.84v6.87Zm-2.66-2.49a2.14,2.14,0,0,0,.4,1.43,1.19,1.19,0,0,0,1.89,0,2.1,2.1,0,0,0,.39-1.38,2.32,2.32,0,0,0-.4-1.5,1.2,1.2,0,0,0-1-.48,1.16,1.16,0,0,0-.94.46A2.26,2.26,0,0,0,76.13,321.58Z" transform="translate(-34.12 -22.85)"/><path class="cls-6" d="M86.82,323.46a3.4,3.4,0,0,1-.91.56,2.52,2.52,0,0,1-.93.16,1.82,1.82,0,0,1-1.26-.4,1.34,1.34,0,0,1-.44-1,1.36,1.36,0,0,1,.17-.67,1.57,1.57,0,0,1,.43-.49,2.1,2.1,0,0,1,.61-.27,5.08,5.08,0,0,1,.75-.13,8,8,0,0,0,1.51-.29v-.22a.94.94,0,0,0-.24-.73,1.39,1.39,0,0,0-1-.28,1.48,1.48,0,0,0-.88.21,1.22,1.22,0,0,0-.42.73l-.82-.11a2,2,0,0,1,.37-.85,1.63,1.63,0,0,1,.74-.51,3.58,3.58,0,0,1,1.13-.17,3,3,0,0,1,1,.15,1.28,1.28,0,0,1,.58.38,1.26,1.26,0,0,1,.27.57,4.57,4.57,0,0,1,0,.78V322a13.73,13.73,0,0,0,.05,1.49,1.89,1.89,0,0,0,.22.6H87A1.67,1.67,0,0,1,86.82,323.46Zm-.07-1.89a6.15,6.15,0,0,1-1.38.32,3.41,3.41,0,0,0-.74.17.73.73,0,0,0-.33.27.72.72,0,0,0-.12.4.73.73,0,0,0,.26.57,1.1,1.1,0,0,0,.75.22,1.74,1.74,0,0,0,.86-.21,1.28,1.28,0,0,0,.56-.59,2,2,0,0,0,.14-.84Z" transform="translate(-34.12 -22.85)"/><path class="cls-6" d="M88.91,324.07v-5h.76v.71a1.77,1.77,0,0,1,1.58-.82,2,2,0,0,1,.83.16,1.31,1.31,0,0,1,.56.42,1.63,1.63,0,0,1,.27.63,5.15,5.15,0,0,1,0,.82v3.06h-.84v-3a2.17,2.17,0,0,0-.1-.77.82.82,0,0,0-.35-.41,1.13,1.13,0,0,0-.59-.15,1.35,1.35,0,0,0-.93.34,1.7,1.7,0,0,0-.39,1.3v2.72Z" transform="translate(-34.12 -22.85)"/><path class="cls-6" d="M97.48,324.07v-.63a1.54,1.54,0,0,1-1.4.74,1.94,1.94,0,0,1-1.09-.33,2.15,2.15,0,0,1-.77-.91,3.12,3.12,0,0,1-.28-1.36,3.49,3.49,0,0,1,.25-1.35,2,2,0,0,1,.75-.93,2,2,0,0,1,1.11-.32,1.63,1.63,0,0,1,.8.19,1.69,1.69,0,0,1,.57.49V317.2h.84v6.87Zm-2.67-2.49a2.14,2.14,0,0,0,.4,1.43,1.22,1.22,0,0,0,1,.48,1.18,1.18,0,0,0,.94-.45,2.1,2.1,0,0,0,.39-1.38,2.32,2.32,0,0,0-.39-1.5,1.23,1.23,0,0,0-1-.48,1.15,1.15,0,0,0-.94.46A2.2,2.2,0,0,0,94.81,321.58Z" transform="translate(-34.12 -22.85)"/><path class="cls-6" d="M105.5,323.46a3.21,3.21,0,0,1-.9.56,2.6,2.6,0,0,1-.93.16,1.78,1.78,0,0,1-1.26-.4,1.31,1.31,0,0,1-.44-1,1.35,1.35,0,0,1,.16-.67,1.48,1.48,0,0,1,.44-.49,2,2,0,0,1,.61-.27,4.62,4.62,0,0,1,.75-.13,7.74,7.74,0,0,0,1.5-.29c0-.12,0-.19,0-.22a.94.94,0,0,0-.24-.73,1.43,1.43,0,0,0-1-.28,1.48,1.48,0,0,0-.88.21,1.22,1.22,0,0,0-.42.73l-.83-.11a2.08,2.08,0,0,1,.37-.85,1.61,1.61,0,0,1,.75-.51,3.49,3.49,0,0,1,1.13-.17,3,3,0,0,1,1,.15,1.31,1.31,0,0,1,.59.38,1.36,1.36,0,0,1,.26.57,4.57,4.57,0,0,1,0,.78V322a10.73,10.73,0,0,0,.06,1.49,1.87,1.87,0,0,0,.21.6h-.88A1.89,1.89,0,0,1,105.5,323.46Zm-.07-1.89a5.88,5.88,0,0,1-1.38.32,3.28,3.28,0,0,0-.73.17.71.71,0,0,0-.34.27.8.8,0,0,0-.11.4.72.72,0,0,0,.25.57,1.1,1.1,0,0,0,.75.22,1.78,1.78,0,0,0,.87-.21,1.26,1.26,0,0,0,.55-.59,1.87,1.87,0,0,0,.14-.84Z" transform="translate(-34.12 -22.85)"/><path class="cls-6" d="M107.59,326v-6.89h.77v.65a1.81,1.81,0,0,1,.61-.57,1.67,1.67,0,0,1,.83-.19,2,2,0,0,1,1.13.33,2.06,2.06,0,0,1,.74.92,3.51,3.51,0,0,1,.24,1.31,3.4,3.4,0,0,1-.27,1.38,2.06,2.06,0,0,1-.8.94,2.1,2.1,0,0,1-1.1.32A1.54,1.54,0,0,1,109,324a1.65,1.65,0,0,1-.55-.45V326Zm.77-4.37a2.17,2.17,0,0,0,.39,1.42,1.19,1.19,0,0,0,.94.46,1.22,1.22,0,0,0,1-.48,2.86,2.86,0,0,0,0-2.9,1.19,1.19,0,0,0-.94-.47,1.24,1.24,0,0,0-1,.5A2.26,2.26,0,0,0,108.36,321.61Z" transform="translate(-34.12 -22.85)"/><path class="cls-6" d="M112.93,326v-6.89h.77v.65a1.72,1.72,0,0,1,.61-.57,1.67,1.67,0,0,1,.83-.19,1.94,1.94,0,0,1,1.86,1.25,3.32,3.32,0,0,1,.25,1.31,3.4,3.4,0,0,1-.27,1.38,2.06,2.06,0,0,1-.8.94,2.1,2.1,0,0,1-1.1.32,1.54,1.54,0,0,1-.75-.18,1.79,1.79,0,0,1-.56-.45V326Zm.76-4.37a2.17,2.17,0,0,0,.39,1.42,1.21,1.21,0,0,0,1.91,0,2.86,2.86,0,0,0,0-2.9,1.19,1.19,0,0,0-.94-.47,1.22,1.22,0,0,0-1,.5A2.26,2.26,0,0,0,113.69,321.61Z" transform="translate(-34.12 -22.85)"/><path class="cls-6" d="M118.25,324.07V317.2h.84v6.87Z" transform="translate(-34.12 -22.85)"/><path class="cls-6" d="M120.41,318.17v-1h.84v1Zm0,5.9v-5h.84v5Z" transform="translate(-34.12 -22.85)"/><path class="cls-6" d="M125.78,323.46a3.21,3.21,0,0,1-.9.56,2.6,2.6,0,0,1-.93.16,1.78,1.78,0,0,1-1.26-.4,1.34,1.34,0,0,1-.44-1,1.26,1.26,0,0,1,.17-.67,1.45,1.45,0,0,1,.43-.49,2,2,0,0,1,.61-.27,4.62,4.62,0,0,1,.75-.13,7.74,7.74,0,0,0,1.5-.29c0-.12,0-.19,0-.22a.94.94,0,0,0-.24-.73,1.43,1.43,0,0,0-1-.28,1.48,1.48,0,0,0-.88.21,1.22,1.22,0,0,0-.42.73l-.83-.11a2.08,2.08,0,0,1,.37-.85,1.73,1.73,0,0,1,.75-.51,3.49,3.49,0,0,1,1.13-.17,3.05,3.05,0,0,1,1,.15,1.28,1.28,0,0,1,.58.38,1.25,1.25,0,0,1,.26.57,4.27,4.27,0,0,1,0,.78V322a11.42,11.42,0,0,0,.05,1.49,2.14,2.14,0,0,0,.21.6H126A2.18,2.18,0,0,1,125.78,323.46Zm-.07-1.89a5.88,5.88,0,0,1-1.38.32,3.28,3.28,0,0,0-.73.17.68.68,0,0,0-.33.27.76.76,0,0,0,.13,1,1.12,1.12,0,0,0,.75.22,1.75,1.75,0,0,0,.87-.21,1.33,1.33,0,0,0,.56-.59,2,2,0,0,0,.13-.84Z" transform="translate(-34.12 -22.85)"/><path class="cls-6" d="M127.88,324.07v-5h.75v.71a1.8,1.8,0,0,1,1.59-.82,2.08,2.08,0,0,1,.83.16,1.31,1.31,0,0,1,.56.42,1.62,1.62,0,0,1,.26.63,4.82,4.82,0,0,1,0,.82v3.06h-.84v-3a2.43,2.43,0,0,0-.1-.77.82.82,0,0,0-.35-.41,1.13,1.13,0,0,0-.59-.15,1.35,1.35,0,0,0-.93.34,1.7,1.7,0,0,0-.39,1.3v2.72Z" transform="translate(-34.12 -22.85)"/><path class="cls-6" d="M136.46,322.25l.83.1a2.17,2.17,0,0,1-.69,1.35,2.07,2.07,0,0,1-1.38.48,2.11,2.11,0,0,1-1.64-.67,2.66,2.66,0,0,1-.62-1.91,3.41,3.41,0,0,1,.26-1.41,1.87,1.87,0,0,1,.82-.91,2.41,2.41,0,0,1,1.18-.3,2.07,2.07,0,0,1,1.33.41,1.81,1.81,0,0,1,.66,1.16l-.82.13a1.33,1.33,0,0,0-.41-.75,1.08,1.08,0,0,0-.72-.26,1.3,1.3,0,0,0-1,.46,2.86,2.86,0,0,0,0,2.9,1.22,1.22,0,0,0,1,.46,1.16,1.16,0,0,0,.83-.31A1.5,1.5,0,0,0,136.46,322.25Z" transform="translate(-34.12 -22.85)"/><path class="cls-6" d="M141.42,322.47l.87.1a2.1,2.1,0,0,1-.76,1.19,2.31,2.31,0,0,1-1.43.42,2.28,2.28,0,0,1-1.73-.67,2.67,2.67,0,0,1-.64-1.89,2.77,2.77,0,0,1,.65-1.95,2.19,2.19,0,0,1,1.68-.69,2.14,2.14,0,0,1,1.63.68,2.7,2.7,0,0,1,.63,1.91v.23H138.6a2,2,0,0,0,.47,1.25,1.38,1.38,0,0,0,1,.44,1.24,1.24,0,0,0,.79-.25A1.61,1.61,0,0,0,141.42,322.47Zm-2.77-1.37h2.78a1.66,1.66,0,0,0-.32-.94,1.27,1.27,0,0,0-1-.49,1.33,1.33,0,0,0-1,.39A1.58,1.58,0,0,0,138.65,321.1Z" transform="translate(-34.12 -22.85)"/></g><g id="MTEXT-16" data-name="MTEXT"><path class="cls-6" d="M57.33,356.45l.81-.07a1.38,1.38,0,0,0,.4.83,1.07,1.07,0,0,0,.74.25,1.25,1.25,0,0,0,.68-.17,1.5,1.5,0,0,0,.49-.48,3.26,3.26,0,0,0,.31-.8,4.47,4.47,0,0,0,.13-1s0-.1,0-.17a2,2,0,0,1-.69.65,1.85,1.85,0,0,1-.95.25,1.88,1.88,0,0,1-1.44-.62,2.22,2.22,0,0,1-.59-1.63,2.31,2.31,0,0,1,.61-1.68,2.05,2.05,0,0,1,1.55-.64,2.2,2.2,0,0,1,1.22.36,2.35,2.35,0,0,1,.85,1,5.14,5.14,0,0,1,.28,1.93,6.3,6.3,0,0,1-.28,2.1,2.49,2.49,0,0,1-.85,1.19,2.23,2.23,0,0,1-1.33.41,1.91,1.91,0,0,1-1.31-.45A2,2,0,0,1,57.33,356.45Zm3.46-3a1.64,1.64,0,0,0-.39-1.15,1.2,1.2,0,0,0-.93-.43,1.27,1.27,0,0,0-1,.46,1.7,1.7,0,0,0-.42,1.19,1.51,1.51,0,0,0,.4,1.07,1.31,1.31,0,0,0,1,.41,1.25,1.25,0,0,0,1-.41A1.65,1.65,0,0,0,60.79,353.42Z" transform="translate(-34.12 -22.85)"/><path class="cls-6" d="M62.54,354.65a6.19,6.19,0,0,1,.26-2,2.42,2.42,0,0,1,.74-1.15,2,2,0,0,1,1.25-.4,2.16,2.16,0,0,1,1,.22,2,2,0,0,1,.69.65,3.4,3.4,0,0,1,.42,1,6.87,6.87,0,0,1,.16,1.62,6.42,6.42,0,0,1-.25,2,2.53,2.53,0,0,1-.74,1.15,2.1,2.1,0,0,1-2.82-.3A4.59,4.59,0,0,1,62.54,354.65Zm.87,0a4.22,4.22,0,0,0,.4,2.25,1.13,1.13,0,0,0,2,0,6.53,6.53,0,0,0,0-4.5,1.17,1.17,0,0,0-1-.56,1.07,1.07,0,0,0-.93.49A4.35,4.35,0,0,0,63.41,354.65Z" transform="translate(-34.12 -22.85)"/><path class="cls-6" d="M70.79,358v-5h.75v.7a1.94,1.94,0,0,1,.62-.59,1.75,1.75,0,0,1,.89-.22,1.68,1.68,0,0,1,.91.23,1.28,1.28,0,0,1,.5.64A1.77,1.77,0,0,1,76,353a1.51,1.51,0,0,1,1.14.41,1.73,1.73,0,0,1,.4,1.26V358h-.84v-3.13a2.18,2.18,0,0,0-.08-.73.66.66,0,0,0-.3-.36.92.92,0,0,0-.5-.14,1.22,1.22,0,0,0-.88.35,1.55,1.55,0,0,0-.34,1.12V358h-.85v-3.23a1.5,1.5,0,0,0-.2-.85.82.82,0,0,0-.68-.28,1.23,1.23,0,0,0-.66.19,1,1,0,0,0-.43.55,2.86,2.86,0,0,0-.14,1V358Z" transform="translate(-34.12 -22.85)"/><path class="cls-6" d="M78.78,358v-5h.76v.7a1.76,1.76,0,0,1,.62-.59,1.73,1.73,0,0,1,.89-.22,1.62,1.62,0,0,1,.9.23,1.18,1.18,0,0,1,.5.64A1.8,1.8,0,0,1,84,353a1.54,1.54,0,0,1,1.14.41,1.78,1.78,0,0,1,.4,1.26V358h-.84v-3.13a2.48,2.48,0,0,0-.08-.73.75.75,0,0,0-.3-.36.93.93,0,0,0-.51-.14,1.18,1.18,0,0,0-.87.35,1.55,1.55,0,0,0-.35,1.12V358h-.84v-3.23a1.42,1.42,0,0,0-.21-.85.78.78,0,0,0-.67-.28,1.18,1.18,0,0,0-.66.19,1.06,1.06,0,0,0-.44.55,3.13,3.13,0,0,0-.13,1V358Z" transform="translate(-34.12 -22.85)"/><path class="cls-6" d="M89.45,358v-5h.75v.7a1.94,1.94,0,0,1,.62-.59,1.75,1.75,0,0,1,.89-.22,1.68,1.68,0,0,1,.91.23,1.28,1.28,0,0,1,.5.64,1.77,1.77,0,0,1,1.53-.87,1.51,1.51,0,0,1,1.14.41,1.73,1.73,0,0,1,.4,1.26V358h-.84v-3.13a2.18,2.18,0,0,0-.08-.73.66.66,0,0,0-.3-.36.92.92,0,0,0-.5-.14,1.22,1.22,0,0,0-.88.35,1.55,1.55,0,0,0-.34,1.12V358H92.4v-3.23a1.5,1.5,0,0,0-.2-.85.82.82,0,0,0-.68-.28,1.23,1.23,0,0,0-.66.19,1,1,0,0,0-.43.55,2.86,2.86,0,0,0-.14,1V358Z" transform="translate(-34.12 -22.85)"/><path class="cls-6" d="M97.45,352.14v-1h.84v1Zm0,5.9v-5h.84v5Z" transform="translate(-34.12 -22.85)"/><path class="cls-6" d="M99.58,358v-5h.76v.71a1.77,1.77,0,0,1,1.58-.82,2,2,0,0,1,.83.16,1.25,1.25,0,0,1,.56.43,1.51,1.51,0,0,1,.26.62,4,4,0,0,1,.05.82V358h-.84v-3a2.17,2.17,0,0,0-.1-.77.86.86,0,0,0-.35-.41,1.13,1.13,0,0,0-.59-.15,1.4,1.4,0,0,0-.93.34,1.71,1.71,0,0,0-.39,1.3V358Z" transform="translate(-34.12 -22.85)"/><path class="cls-6" d="M105.15,358v-1h1v1Z" transform="translate(-34.12 -22.85)"/><path class="cls-6" d="M110.25,358v-5H111v.7a1.88,1.88,0,0,1,.63-.59,1.72,1.72,0,0,1,.88-.22,1.66,1.66,0,0,1,.91.23,1.23,1.23,0,0,1,.5.64,1.79,1.79,0,0,1,1.54-.87,1.54,1.54,0,0,1,1.14.41,1.78,1.78,0,0,1,.4,1.26V358h-.84v-3.13a2.12,2.12,0,0,0-.09-.73.68.68,0,0,0-.29-.36,1,1,0,0,0-.51-.14,1.18,1.18,0,0,0-.87.35,1.55,1.55,0,0,0-.35,1.12V358h-.84v-3.23A1.42,1.42,0,0,0,113,354a.8.8,0,0,0-.67-.28,1.18,1.18,0,0,0-.66.19,1.06,1.06,0,0,0-.44.55,3.09,3.09,0,0,0-.14,1V358Z" transform="translate(-34.12 -22.85)"/><path class="cls-6" d="M121.5,357.43a3.4,3.4,0,0,1-.91.56,2.6,2.6,0,0,1-.93.16,1.82,1.82,0,0,1-1.26-.4,1.32,1.32,0,0,1-.44-1,1.39,1.39,0,0,1,.17-.67,1.33,1.33,0,0,1,.43-.48,1.88,1.88,0,0,1,.61-.28,6.9,6.9,0,0,1,.75-.13,7.74,7.74,0,0,0,1.5-.29c0-.11,0-.19,0-.22a.92.92,0,0,0-.24-.72,1.35,1.35,0,0,0-1-.29,1.48,1.48,0,0,0-.88.21,1.25,1.25,0,0,0-.42.74l-.82-.12a1.9,1.9,0,0,1,.37-.85,1.55,1.55,0,0,1,.74-.5,3.27,3.27,0,0,1,1.13-.18,3,3,0,0,1,1,.15,1.36,1.36,0,0,1,.58.38,1.26,1.26,0,0,1,.27.57,6.23,6.23,0,0,1,0,.78V356a13.49,13.49,0,0,0,0,1.48,1.89,1.89,0,0,0,.22.6h-.89A1.82,1.82,0,0,1,121.5,357.43Zm-.08-1.89a5.9,5.9,0,0,1-1.37.32,3.41,3.41,0,0,0-.74.17.73.73,0,0,0-.33.27.75.75,0,0,0-.12.41.73.73,0,0,0,.26.56,1.09,1.09,0,0,0,.74.22,1.75,1.75,0,0,0,.87-.21,1.36,1.36,0,0,0,.56-.58,2.1,2.1,0,0,0,.13-.85Z" transform="translate(-34.12 -22.85)"/><path class="cls-6" d="M123.25,356.56l.83-.14a1.17,1.17,0,0,0,.39.77,1.38,1.38,0,0,0,.9.27,1.28,1.28,0,0,0,.86-.24.69.69,0,0,0,.29-.55.53.53,0,0,0-.25-.45,3.74,3.74,0,0,0-.87-.29,8,8,0,0,1-1.28-.4,1.36,1.36,0,0,1-.55-.48,1.26,1.26,0,0,1-.18-.66,1.29,1.29,0,0,1,.15-.62,1.27,1.27,0,0,1,.42-.47,1.75,1.75,0,0,1,.53-.25,2.48,2.48,0,0,1,.73-.1,2.92,2.92,0,0,1,1,.17,1.3,1.3,0,0,1,.65.46,1.88,1.88,0,0,1,.3.77l-.83.11a.9.9,0,0,0-.33-.6,1.19,1.19,0,0,0-.76-.22,1.39,1.39,0,0,0-.83.2.54.54,0,0,0-.24.45.45.45,0,0,0,.1.29.74.74,0,0,0,.32.23l.75.21a11.68,11.68,0,0,1,1.25.39,1.29,1.29,0,0,1,.55.45,1.18,1.18,0,0,1,.2.72,1.41,1.41,0,0,1-.24.79,1.64,1.64,0,0,1-.71.58,2.52,2.52,0,0,1-1.05.2,2.33,2.33,0,0,1-1.48-.4A1.87,1.87,0,0,1,123.25,356.56Z" transform="translate(-34.12 -22.85)"/><path class="cls-6" d="M128.07,355.55a2.59,2.59,0,0,1,.77-2.05,2.37,2.37,0,0,1,1.57-.55,2.24,2.24,0,0,1,1.67.67,2.55,2.55,0,0,1,.66,1.86,3.29,3.29,0,0,1-.29,1.51,2,2,0,0,1-.84.86,2.48,2.48,0,0,1-1.2.3,2.22,2.22,0,0,1-1.69-.67A2.66,2.66,0,0,1,128.07,355.55Zm.87,0a2.09,2.09,0,0,0,.42,1.43,1.38,1.38,0,0,0,2.09,0,2.16,2.16,0,0,0,.42-1.46,2,2,0,0,0-.42-1.39,1.39,1.39,0,0,0-2.09,0A2.12,2.12,0,0,0,128.94,355.55Z" transform="translate(-34.12 -22.85)"/><path class="cls-6" d="M133.72,358v-5h.76v.71a1.8,1.8,0,0,1,1.59-.82,2.08,2.08,0,0,1,.83.16,1.25,1.25,0,0,1,.56.43,1.51,1.51,0,0,1,.26.62,4.91,4.91,0,0,1,.05.82V358h-.84v-3a2.43,2.43,0,0,0-.1-.77.86.86,0,0,0-.35-.41,1.13,1.13,0,0,0-.59-.15,1.4,1.4,0,0,0-.93.34,1.71,1.71,0,0,0-.39,1.3V358Z" transform="translate(-34.12 -22.85)"/><path class="cls-6" d="M139.05,358v-5h.76v.76a2.1,2.1,0,0,1,.54-.7.94.94,0,0,1,.54-.17,1.66,1.66,0,0,1,.87.27l-.29.79a1.15,1.15,0,0,0-.62-.19.84.84,0,0,0-.5.17.9.9,0,0,0-.31.46,3.12,3.12,0,0,0-.14,1V358Z" transform="translate(-34.12 -22.85)"/><path class="cls-6" d="M142.22,360l-.09-.79a1.79,1.79,0,0,0,.48.07,1,1,0,0,0,.45-.09.77.77,0,0,0,.28-.26,5.34,5.34,0,0,0,.26-.63c0-.05,0-.12.07-.21l-1.89-5h.91l1,2.89c.13.36.25.75.36,1.15a10.76,10.76,0,0,1,.35-1.14l1.06-2.9h.84l-1.89,5.07a11,11,0,0,1-.47,1.13,1.78,1.78,0,0,1-.52.61,1.19,1.19,0,0,1-.69.19A1.65,1.65,0,0,1,142.22,360Z" transform="translate(-34.12 -22.85)"/><path class="cls-6" d="M57.44,369.56v-6.87h.84v2.47a1.89,1.89,0,0,1,1.49-.69,2,2,0,0,1,1,.22,1.29,1.29,0,0,1,.58.6,2.75,2.75,0,0,1,.18,1.12v3.15h-.85v-3.15a1.3,1.3,0,0,0-.27-.92,1,1,0,0,0-.78-.29,1.34,1.34,0,0,0-.7.19,1.17,1.17,0,0,0-.48.53,2.5,2.5,0,0,0-.14.92v2.72Z" transform="translate(-34.12 -22.85)"/><path class="cls-6" d="M66.19,368l.87.11a2.08,2.08,0,0,1-.77,1.18,2.28,2.28,0,0,1-1.42.42,2.25,2.25,0,0,1-1.73-.67,2.62,2.62,0,0,1-.64-1.89,2.78,2.78,0,0,1,.64-1.95,2.22,2.22,0,0,1,1.68-.69,2.13,2.13,0,0,1,1.63.68,2.66,2.66,0,0,1,.64,1.91,2.2,2.2,0,0,1,0,.23H63.37a1.94,1.94,0,0,0,.46,1.25,1.4,1.4,0,0,0,1,.44,1.32,1.32,0,0,0,.79-.24A1.7,1.7,0,0,0,66.19,368Zm-2.77-1.37H66.2a1.77,1.77,0,0,0-.32-.94,1.38,1.38,0,0,0-2-.1A1.53,1.53,0,0,0,63.42,366.59Z" transform="translate(-34.12 -22.85)"/><path class="cls-6" d="M71.37,369a3.4,3.4,0,0,1-.91.56,2.56,2.56,0,0,1-.93.16,1.82,1.82,0,0,1-1.26-.4,1.32,1.32,0,0,1-.44-1,1.39,1.39,0,0,1,.17-.67,1.33,1.33,0,0,1,.43-.48,1.88,1.88,0,0,1,.61-.28,6.9,6.9,0,0,1,.75-.13,8,8,0,0,0,1.51-.29v-.22a.92.92,0,0,0-.24-.72,1.35,1.35,0,0,0-1-.29,1.48,1.48,0,0,0-.88.21,1.25,1.25,0,0,0-.42.74L68,366a2,2,0,0,1,.37-.85,1.55,1.55,0,0,1,.74-.5,3.27,3.27,0,0,1,1.13-.18,3,3,0,0,1,1,.15,1.36,1.36,0,0,1,.58.38,1.26,1.26,0,0,1,.27.57,4.72,4.72,0,0,1,0,.78v1.13a13.49,13.49,0,0,0,0,1.48,1.89,1.89,0,0,0,.22.6h-.88A1.61,1.61,0,0,1,71.37,369Zm-.07-1.89a6.15,6.15,0,0,1-1.38.32,3.41,3.41,0,0,0-.74.17.73.73,0,0,0-.33.27.75.75,0,0,0-.12.41.73.73,0,0,0,.26.56,1.1,1.1,0,0,0,.75.22,1.74,1.74,0,0,0,.86-.21,1.3,1.3,0,0,0,.56-.58,2.08,2.08,0,0,0,.14-.85Z" transform="translate(-34.12 -22.85)"/><path class="cls-6" d="M75.3,368.81l.12.74a3.19,3.19,0,0,1-.64.08,1.41,1.41,0,0,1-.71-.15.75.75,0,0,1-.35-.38,3,3,0,0,1-.11-1v-2.86H73v-.66h.62v-1.23l.84-.51v1.74h.85v.66h-.85v2.91a1.34,1.34,0,0,0,0,.46.33.33,0,0,0,.14.17.57.57,0,0,0,.29.06Z" transform="translate(-34.12 -22.85)"/><path class="cls-6" d="M78.45,368.08l.84-.14a1.17,1.17,0,0,0,.39.77,1.34,1.34,0,0,0,.9.27,1.3,1.3,0,0,0,.86-.24.68.68,0,0,0,.28-.55.51.51,0,0,0-.25-.45,3.43,3.43,0,0,0-.86-.29,7.84,7.84,0,0,1-1.29-.4,1.27,1.27,0,0,1-.73-1.14,1.3,1.3,0,0,1,.16-.62,1.33,1.33,0,0,1,.41-.47,1.7,1.7,0,0,1,.54-.25,2.48,2.48,0,0,1,.73-.1,3,3,0,0,1,1,.17,1.34,1.34,0,0,1,.65.46,1.75,1.75,0,0,1,.29.77l-.82.11a.9.9,0,0,0-.33-.6,1.21,1.21,0,0,0-.76-.22,1.37,1.37,0,0,0-.83.2.53.53,0,0,0-.25.45.51.51,0,0,0,.1.29.77.77,0,0,0,.33.23l.74.21a10.32,10.32,0,0,1,1.25.39,1.32,1.32,0,0,1,.56.45,1.25,1.25,0,0,1,.2.72,1.35,1.35,0,0,1-.25.79,1.59,1.59,0,0,1-.71.58,2.52,2.52,0,0,1-1,.2,2.35,2.35,0,0,1-1.48-.4A1.91,1.91,0,0,1,78.45,368.08Z" transform="translate(-34.12 -22.85)"/><path class="cls-6" d="M83.59,369.56v-6.87h.85v2.47a1.87,1.87,0,0,1,1.49-.69,2,2,0,0,1,1,.22,1.29,1.29,0,0,1,.58.6,2.75,2.75,0,0,1,.18,1.12v3.15H86.8v-3.15a1.3,1.3,0,0,0-.27-.92,1,1,0,0,0-.78-.29,1.34,1.34,0,0,0-.7.19,1.09,1.09,0,0,0-.47.53,2.31,2.31,0,0,0-.14.92v2.72Z" transform="translate(-34.12 -22.85)"/><path class="cls-6" d="M88.94,363.66v-1h.84v1Zm0,5.9v-5h.84v5Z" transform="translate(-34.12 -22.85)"/><path class="cls-6" d="M94.47,368l.87.11a2.07,2.07,0,0,1-.76,1.18,2.31,2.31,0,0,1-1.43.42,2.28,2.28,0,0,1-1.73-.67,2.67,2.67,0,0,1-.64-1.89,2.78,2.78,0,0,1,.65-1.95,2.19,2.19,0,0,1,1.68-.69,2.14,2.14,0,0,1,1.63.68,2.7,2.7,0,0,1,.63,1.91v.23H91.65a2,2,0,0,0,.47,1.25,1.38,1.38,0,0,0,1,.44,1.3,1.3,0,0,0,.79-.24A1.7,1.7,0,0,0,94.47,368Zm-2.77-1.37h2.78a1.69,1.69,0,0,0-.32-.94,1.31,1.31,0,0,0-1-.49,1.33,1.33,0,0,0-1,.39A1.58,1.58,0,0,0,91.7,366.59Z" transform="translate(-34.12 -22.85)"/><path class="cls-6" d="M96.38,369.56v-6.87h.85v6.87Z" transform="translate(-34.12 -22.85)"/><path class="cls-6" d="M101.77,369.56v-.63a1.54,1.54,0,0,1-1.4.74,2,2,0,0,1-1.09-.32,2.18,2.18,0,0,1-.77-.92,3,3,0,0,1-.28-1.35,3.51,3.51,0,0,1,.25-1.36,2,2,0,0,1,.75-.93,2,2,0,0,1,1.11-.32,1.63,1.63,0,0,1,.8.19,1.72,1.72,0,0,1,.57.5v-2.47h.84v6.87Zm-2.67-2.48a2.18,2.18,0,0,0,.4,1.43,1.24,1.24,0,0,0,1,.47,1.18,1.18,0,0,0,.94-.45,2.07,2.07,0,0,0,.39-1.38,2.36,2.36,0,0,0-.39-1.5,1.23,1.23,0,0,0-1-.48,1.15,1.15,0,0,0-.94.46A2.23,2.23,0,0,0,99.1,367.08Z" transform="translate(-34.12 -22.85)"/></g><g id="MTEXT-17" data-name="MTEXT"><text class="cls-7" transform="translate(94.25 363.87)">Non masonry wall</text></g><g id="MTEXT-18" data-name="MTEXT"><path class="cls-6" d="M263.92,323.55v-6.87h.91v2.82h3.58v-2.82h.9v6.87h-.9v-3.24h-3.58v3.24Z" transform="translate(-34.12 -22.85)"/><path class="cls-6" d="M274.13,322l.87.11a2.12,2.12,0,0,1-.76,1.18,2.34,2.34,0,0,1-1.43.43,2.27,2.27,0,0,1-1.73-.68,2.6,2.6,0,0,1-.64-1.88,2.75,2.75,0,0,1,.65-1.95,2.33,2.33,0,0,1,3.31,0,2.72,2.72,0,0,1,.63,1.91,2.2,2.2,0,0,1,0,.23h-3.71a1.9,1.9,0,0,0,.47,1.26,1.36,1.36,0,0,0,1,.43,1.3,1.3,0,0,0,.79-.24A1.6,1.6,0,0,0,274.13,322Zm-2.77-1.36h2.78a1.77,1.77,0,0,0-.32-.95,1.31,1.31,0,0,0-1.05-.48,1.33,1.33,0,0,0-1,.39A1.49,1.49,0,0,0,271.36,320.59Z" transform="translate(-34.12 -22.85)"/><path class="cls-6" d="M279.31,322.94a3.36,3.36,0,0,1-.9.56,2.6,2.6,0,0,1-.93.17,1.88,1.88,0,0,1-1.27-.4,1.34,1.34,0,0,1-.44-1,1.39,1.39,0,0,1,.17-.67,1.36,1.36,0,0,1,.44-.48,2.06,2.06,0,0,1,.6-.28c.17,0,.42-.08.75-.13a7.16,7.16,0,0,0,1.51-.29v-.22a.92.92,0,0,0-.24-.72,1.39,1.39,0,0,0-1-.29,1.5,1.5,0,0,0-.88.21,1.25,1.25,0,0,0-.42.74l-.82-.11a2,2,0,0,1,.37-.86,1.62,1.62,0,0,1,.74-.5,3.31,3.31,0,0,1,1.13-.18,3,3,0,0,1,1,.15,1.4,1.4,0,0,1,.59.38,1.36,1.36,0,0,1,.26.57,4.72,4.72,0,0,1,0,.78v1.13a13.86,13.86,0,0,0,.05,1.49,1.93,1.93,0,0,0,.22.59h-.88A1.61,1.61,0,0,1,279.31,322.94Zm-.07-1.89a5.64,5.64,0,0,1-1.38.32,3.41,3.41,0,0,0-.74.17.75.75,0,0,0-.33.28.7.7,0,0,0-.12.4.73.73,0,0,0,.26.56,1.1,1.1,0,0,0,.75.22,1.74,1.74,0,0,0,.86-.21,1.3,1.3,0,0,0,.56-.58,2,2,0,0,0,.14-.85Z" transform="translate(-34.12 -22.85)"/><path class="cls-6" d="M283.24,322.8l.12.74a3.1,3.1,0,0,1-.63.08,1.43,1.43,0,0,1-.72-.15.76.76,0,0,1-.35-.38,2.92,2.92,0,0,1-.11-1v-2.87h-.61v-.65h.61v-1.24l.84-.5v1.74h.85v.65h-.85v2.91a1.46,1.46,0,0,0,.05.47.36.36,0,0,0,.14.16.6.6,0,0,0,.29.06Z" transform="translate(-34.12 -22.85)"/><path class="cls-6" d="M284.07,317.65v-1h.85v1Zm0,5.9v-5h.85v5Z" transform="translate(-34.12 -22.85)"/><path class="cls-6" d="M286.2,323.55v-5H287v.7a1.79,1.79,0,0,1,1.58-.82,2.23,2.23,0,0,1,.83.16,1.35,1.35,0,0,1,.57.43,1.66,1.66,0,0,1,.26.62,5.23,5.23,0,0,1,0,.82v3.06h-.84v-3a2.17,2.17,0,0,0-.1-.77.75.75,0,0,0-.35-.4,1,1,0,0,0-.58-.16,1.4,1.4,0,0,0-.94.35,1.67,1.67,0,0,0-.39,1.29v2.72Z" transform="translate(-34.12 -22.85)"/><path class="cls-6" d="M291.38,324l.82.12a.8.8,0,0,0,.29.55,1.39,1.39,0,0,0,.86.24,1.46,1.46,0,0,0,.9-.24,1.13,1.13,0,0,0,.43-.66,4.51,4.51,0,0,0,.06-1.08,1.69,1.69,0,0,1-1.37.65,1.85,1.85,0,0,1-1.59-.74,2.8,2.8,0,0,1-.57-1.77,3.34,3.34,0,0,1,.26-1.32,2,2,0,0,1,.75-.93,2,2,0,0,1,1.15-.33,1.77,1.77,0,0,1,1.45.72v-.6h.78v4.3a4.31,4.31,0,0,1-.23,1.65,1.77,1.77,0,0,1-.75.76,2.62,2.62,0,0,1-1.27.28,2.38,2.38,0,0,1-1.44-.4A1.36,1.36,0,0,1,291.38,324Zm.7-3a2.13,2.13,0,0,0,.39,1.42,1.25,1.25,0,0,0,1,.45,1.23,1.23,0,0,0,1-.44,2.12,2.12,0,0,0,.39-1.41,2,2,0,0,0-.4-1.37,1.26,1.26,0,0,0-1-.47,1.2,1.2,0,0,0-.95.46A2,2,0,0,0,292.08,321Z" transform="translate(-34.12 -22.85)"/><path class="cls-6" d="M261.7,334.46a3.4,3.4,0,0,1-.91.56,2.51,2.51,0,0,1-.92.17,1.88,1.88,0,0,1-1.27-.4,1.34,1.34,0,0,1-.44-1,1.39,1.39,0,0,1,.17-.67,1.36,1.36,0,0,1,.44-.48,2.06,2.06,0,0,1,.6-.28c.17,0,.42-.08.75-.13a7.16,7.16,0,0,0,1.51-.29v-.22a.92.92,0,0,0-.24-.72,1.39,1.39,0,0,0-1-.29,1.5,1.5,0,0,0-.88.21,1.25,1.25,0,0,0-.42.74l-.82-.11a2,2,0,0,1,.37-.86,1.62,1.62,0,0,1,.74-.5,3.31,3.31,0,0,1,1.13-.18,3,3,0,0,1,1,.15,1.4,1.4,0,0,1,.59.38,1.36,1.36,0,0,1,.26.57,4.72,4.72,0,0,1,0,.78V333a13.86,13.86,0,0,0,0,1.49,1.93,1.93,0,0,0,.22.59h-.88A1.61,1.61,0,0,1,261.7,334.46Zm-.07-1.89a5.64,5.64,0,0,1-1.38.32,3.41,3.41,0,0,0-.74.17.83.83,0,0,0-.33.28.7.7,0,0,0-.12.4.73.73,0,0,0,.26.56,1.1,1.1,0,0,0,.75.22,1.74,1.74,0,0,0,.86-.21,1.3,1.3,0,0,0,.56-.58,2,2,0,0,0,.14-.85Z" transform="translate(-34.12 -22.85)"/><path class="cls-6" d="M263.79,337V330.1h.77v.64a1.93,1.93,0,0,1,.61-.57A1.78,1.78,0,0,1,266,330a2,2,0,0,1,1.13.33,2,2,0,0,1,.73.93,3.26,3.26,0,0,1,.25,1.31,3.35,3.35,0,0,1-.27,1.37,2.12,2.12,0,0,1-.8.94,2,2,0,0,1-1.1.33,1.61,1.61,0,0,1-.76-.18,1.87,1.87,0,0,1-.55-.45V337Zm.76-4.37a2.15,2.15,0,0,0,.39,1.42,1.18,1.18,0,0,0,.94.46,1.25,1.25,0,0,0,1-.47,2.32,2.32,0,0,0,.4-1.48,2.19,2.19,0,0,0-.39-1.42,1.15,1.15,0,0,0-1.89,0A2.21,2.21,0,0,0,264.55,332.61Z" transform="translate(-34.12 -22.85)"/><path class="cls-6" d="M269.13,337V330.1h.77v.64a1.93,1.93,0,0,1,.61-.57,1.75,1.75,0,0,1,.83-.19,1.94,1.94,0,0,1,1.12.33,2,2,0,0,1,.74.93,3.26,3.26,0,0,1,.25,1.31,3.2,3.2,0,0,1-.28,1.37,2.08,2.08,0,0,1-1.89,1.27,1.61,1.61,0,0,1-.76-.18,1.75,1.75,0,0,1-.55-.45V337Zm.76-4.37a2.15,2.15,0,0,0,.39,1.42,1.18,1.18,0,0,0,.94.46,1.25,1.25,0,0,0,1-.47,2.32,2.32,0,0,0,.4-1.48,2.19,2.19,0,0,0-.39-1.42,1.15,1.15,0,0,0-1.89,0A2.21,2.21,0,0,0,269.89,332.61Z" transform="translate(-34.12 -22.85)"/><path class="cls-6" d="M274.45,335.07V328.2h.84v6.87Z" transform="translate(-34.12 -22.85)"/><path class="cls-6" d="M276.6,329.17v-1h.85v1Zm0,5.9v-5h.85v5Z" transform="translate(-34.12 -22.85)"/><path class="cls-6" d="M282,334.46a3.21,3.21,0,0,1-.9.56,2.6,2.6,0,0,1-.93.17,1.83,1.83,0,0,1-1.26-.4,1.31,1.31,0,0,1-.44-1,1.38,1.38,0,0,1,.16-.67,1.36,1.36,0,0,1,.44-.48,2,2,0,0,1,.61-.28c.16,0,.41-.08.75-.13a7,7,0,0,0,1.5-.29c0-.11,0-.19,0-.22a.92.92,0,0,0-.24-.72,1.44,1.44,0,0,0-1-.29,1.47,1.47,0,0,0-.87.21,1.25,1.25,0,0,0-.42.74l-.83-.11a2.13,2.13,0,0,1,.37-.86,1.6,1.6,0,0,1,.75-.5,3.23,3.23,0,0,1,1.13-.18,3,3,0,0,1,1,.15,1.4,1.4,0,0,1,.59.38,1.36,1.36,0,0,1,.26.57,4.72,4.72,0,0,1,0,.78V333a10.84,10.84,0,0,0,.06,1.49,1.67,1.67,0,0,0,.21.59h-.88A1.82,1.82,0,0,1,282,334.46Zm-.07-1.89a5.64,5.64,0,0,1-1.38.32,3.28,3.28,0,0,0-.73.17.79.79,0,0,0-.34.28.77.77,0,0,0-.11.4.72.72,0,0,0,.25.56,1.1,1.1,0,0,0,.75.22,1.81,1.81,0,0,0,.87-.21,1.28,1.28,0,0,0,.55-.58,1.89,1.89,0,0,0,.14-.85Z" transform="translate(-34.12 -22.85)"/><path class="cls-6" d="M284.07,335.07v-5h.76v.7a1.81,1.81,0,0,1,1.59-.82,2.22,2.22,0,0,1,.82.16,1.35,1.35,0,0,1,.57.43,1.66,1.66,0,0,1,.26.62,4.91,4.91,0,0,1,.05.82v3.06h-.85v-3a2.17,2.17,0,0,0-.1-.77.78.78,0,0,0-.34-.4,1.07,1.07,0,0,0-.59-.16,1.36,1.36,0,0,0-.93.35,1.67,1.67,0,0,0-.39,1.29v2.72Z" transform="translate(-34.12 -22.85)"/><path class="cls-6" d="M292.66,333.25l.83.11a2.11,2.11,0,0,1-.7,1.34,2,2,0,0,1-1.37.49,2.18,2.18,0,0,1-1.65-.67,2.75,2.75,0,0,1-.62-1.92,3.48,3.48,0,0,1,.27-1.41,1.88,1.88,0,0,1,.81-.9,2.35,2.35,0,0,1,1.19-.31,2.11,2.11,0,0,1,1.33.41,1.92,1.92,0,0,1,.66,1.17l-.82.12a1.37,1.37,0,0,0-.42-.75,1.05,1.05,0,0,0-.72-.25,1.31,1.31,0,0,0-1,.45,2.17,2.17,0,0,0-.4,1.45,2.3,2.3,0,0,0,.38,1.46,1.26,1.26,0,0,0,1,.45,1.21,1.21,0,0,0,.83-.3A1.56,1.56,0,0,0,292.66,333.25Z" transform="translate(-34.12 -22.85)"/><path class="cls-6" d="M297.62,333.47l.87.11a2.12,2.12,0,0,1-.76,1.18,2.34,2.34,0,0,1-1.43.43,2.27,2.27,0,0,1-1.73-.68,2.6,2.6,0,0,1-.64-1.88,2.7,2.7,0,0,1,.65-1.95,2.16,2.16,0,0,1,1.67-.7,2.13,2.13,0,0,1,1.63.68,2.67,2.67,0,0,1,.64,1.91,2.11,2.11,0,0,1,0,.23H294.8a2,2,0,0,0,.46,1.26,1.4,1.4,0,0,0,1.05.43,1.32,1.32,0,0,0,.79-.24A1.6,1.6,0,0,0,297.62,333.47Zm-2.77-1.36h2.78a1.77,1.77,0,0,0-.32-.95,1.31,1.31,0,0,0-1.05-.48,1.33,1.33,0,0,0-1,.39A1.49,1.49,0,0,0,294.85,332.11Z" transform="translate(-34.12 -22.85)"/></g><g id="MTEXT-19" data-name="MTEXT"><text class="cls-7" transform="translate(223.4 363.87)">Hearth</text></g><g id="MTEXT-20" data-name="MTEXT"><text class="cls-7" transform="translate(254.57 261.63) rotate(-90)">mm</text></g><g id="MTEXT-21" data-name="MTEXT"><text class="cls-7" transform="translate(240.54 261.7) rotate(-90)">400</text></g><g id="MTEXT-22" data-name="MTEXT"><text class="cls-7" transform="translate(332.39 295.5)">400 mm</text></g><g id="LINE-20" data-name="LINE"><line class="cls-8" x1="184.96" y1="353.07" x2="198.34" y2="353.07"/></g><g id="LINE-21" data-name="LINE"><line class="cls-8" x1="184.96" y1="343.14" x2="198.34" y2="343.14"/></g><g id="LINE-22" data-name="LINE"><line class="cls-8" x1="184.96" y1="345.12" x2="198.34" y2="345.12"/></g><g id="LINE-23" data-name="LINE"><line class="cls-8" x1="184.96" y1="333.22" x2="198.34" y2="333.22"/></g><g id="LINE-24" data-name="LINE"><line class="cls-8" x1="184.96" y1="335.2" x2="198.34" y2="335.2"/></g><g id="LINE-25" data-name="LINE"><line class="cls-8" x1="184.96" y1="323.3" x2="198.34" y2="323.3"/></g><g id="LINE-26" data-name="LINE"><line class="cls-8" x1="184.96" y1="325.27" x2="198.34" y2="325.27"/></g><g id="LINE-27" data-name="LINE"><line class="cls-8" x1="184.96" y1="313.37" x2="198.34" y2="313.37"/></g><g id="LINE-28" data-name="LINE"><line class="cls-8" x1="184.96" y1="315.35" x2="198.34" y2="315.35"/></g><g id="LINE-29" data-name="LINE"><line class="cls-8" x1="184.96" y1="303.45" x2="198.34" y2="303.45"/></g><g id="LINE-30" data-name="LINE"><line class="cls-8" x1="184.96" y1="305.43" x2="198.34" y2="305.43"/></g><g id="LINE-31" data-name="LINE"><line class="cls-8" x1="184.96" y1="293.53" x2="198.34" y2="293.53"/></g><g id="LINE-32" data-name="LINE"><line class="cls-8" x1="184.96" y1="295.5" x2="198.34" y2="295.5"/></g><g id="LINE-33" data-name="LINE"><line class="cls-8" x1="184.96" y1="283.61" x2="198.34" y2="283.61"/></g><g id="LINE-34" data-name="LINE"><line class="cls-8" x1="184.96" y1="285.58" x2="198.34" y2="285.58"/></g><g id="LINE-35" data-name="LINE"><line class="cls-8" x1="184.96" y1="273.68" x2="198.34" y2="273.68"/></g><g id="LINE-36" data-name="LINE"><line class="cls-8" x1="184.96" y1="265.74" x2="198.34" y2="265.74"/></g><g id="LINE-37" data-name="LINE"><line class="cls-8" x1="184.96" y1="275.66" x2="198.34" y2="275.66"/></g><g id="LINE-38" data-name="LINE"><line class="cls-8" x1="184.96" y1="263.76" x2="198.34" y2="263.76"/></g><g id="LINE-39" data-name="LINE"><line class="cls-8" x1="184.96" y1="253.84" x2="198.34" y2="253.84"/></g><g id="LINE-40" data-name="LINE"><line class="cls-8" x1="184.96" y1="255.81" x2="198.34" y2="255.81"/></g><g id="LINE-41" data-name="LINE"><line class="cls-8" x1="184.96" y1="241.94" x2="198.34" y2="241.94"/></g><g id="LINE-42" data-name="LINE"><line class="cls-8" x1="184.96" y1="243.91" x2="198.34" y2="243.91"/></g><g id="LINE-43" data-name="LINE"><line class="cls-8" x1="184.96" y1="362.99" x2="198.34" y2="362.99"/></g><g id="LINE-44" data-name="LINE"><line class="cls-8" x1="184.96" y1="353.07" x2="198.34" y2="353.07"/></g><g id="LINE-45" data-name="LINE"><line class="cls-8" x1="184.96" y1="355.04" x2="198.34" y2="355.04"/></g><g id="LINE-46" data-name="LINE"><line class="cls-8" x1="184.96" y1="362.99" x2="198.34" y2="362.99"/></g><g id="LINE-47" data-name="LINE"><line class="cls-8" x1="184.96" y1="364.96" x2="198.34" y2="364.96"/></g><g id="LINE-48" data-name="LINE"><line class="cls-8" x1="182.53" y1="373.27" x2="312.64" y2="373.27"/></g><g id="LINE-49" data-name="LINE"><line class="cls-8" x1="184.96" y1="373.27" x2="184.96" y2="232.01"/></g><g id="LINE-50" data-name="LINE"><line class="cls-8" x1="198.34" y1="373.27" x2="198.34" y2="232.01"/></g><g id="LINE-51" data-name="LINE"><line class="cls-8" x1="312.64" y1="373.27" x2="312.64" y2="232.01"/></g><g id="LINE-52" data-name="LINE"><line class="cls-8" x1="312.64" y1="232.01" x2="182.53" y2="232.01"/></g><g id="LINE-53" data-name="LINE"><path class="cls-8" d="M232.47,254.86" transform="translate(-34.12 -22.85)"/><path class="cls-8" d="M219.08,254.86" transform="translate(-34.12 -22.85)"/></g><g id="LINE-54" data-name="LINE"><line class="cls-8" x1="211.93" y1="335.89" x2="277.62" y2="335.89"/></g><g id="LINE-55" data-name="LINE"><line class="cls-8" x1="277.62" y1="335.89" x2="277.62" y2="274.79"/></g><g id="LINE-56" data-name="LINE"><line class="cls-8" x1="277.62" y1="274.79" x2="211.93" y2="274.79"/></g><g id="LINE-57" data-name="LINE"><line class="cls-8" x1="211.93" y1="274.79" x2="211.93" y2="335.89"/></g><g id="LINE-58" data-name="LINE"><line class="cls-8" x1="182.53" y1="232.01" x2="182.53" y2="373.27"/></g></svg>