<?xml version="1.0" encoding="utf-8"?>
<!-- Generator: Adobe Illustrator 26.3.1, SVG Export Plug-In . SVG Version: 6.00 Build 0)  -->
<svg version="1.1" id="Line_15dashed" xmlns="http://www.w3.org/2000/svg" xmlns:xlink="http://www.w3.org/1999/xlink" x="0px"
	 y="0px" viewBox="0 0 552.76 692.91" style="enable-background:new 0 0 552.76 692.91;" xml:space="preserve">
<style type="text/css">
	.st0{fill:none;}
	.st1{fill:none;stroke:#231F20;stroke-width:0.5;stroke-miterlimit:10;}
	.st2{fill:#D6D6D6;}
	.st3{fill-rule:evenodd;clip-rule:evenodd;fill:url(#SVGID_1_);}
	.st4{fill:none;stroke:#231F20;stroke-width:0.75;stroke-miterlimit:10;}
	.st5{fill-rule:evenodd;clip-rule:evenodd;fill:url(#SVGID_00000102515499747530198100000017266761531660298892_);}
	.st6{fill-rule:evenodd;clip-rule:evenodd;fill:url(#SVGID_00000129897900549567214160000011275531998525784740_);}
	.st7{fill-rule:evenodd;clip-rule:evenodd;fill:url(#SVGID_00000129181794962169177000000016307181707691333819_);}
	.st8{fill-rule:evenodd;clip-rule:evenodd;fill:url(#SVGID_00000127042510731283013140000004514648088330107574_);}
	.st9{fill:none;stroke:#231F20;stroke-width:0.75;stroke-linecap:round;stroke-linejoin:round;stroke-miterlimit:10;}
	.st10{fill:none;stroke:#231F20;stroke-miterlimit:10;}
	.st11{fill:none;stroke:#231F20;stroke-miterlimit:10;stroke-dasharray:10.6726,10.6726;}
	.st12{fill:none;stroke:#231F20;stroke-miterlimit:10;stroke-dasharray:6.7122,6.7122;}
	.st13{fill:none;stroke:#231F20;stroke-miterlimit:10;stroke-dasharray:11.9871,11.9871;}
	.st14{fill:none;stroke:#231F20;stroke-miterlimit:10;stroke-dasharray:11.9989,11.9989;}
	.st15{fill:#231F20;}
	.st16{font-family:'ArialMT';}
	.st17{font-size:12px;}
	.st18{font-family:'Arial-BoldMT';}
	.st19{fill:none;stroke:#231F20;stroke-width:0.25;stroke-miterlimit:10;}
	.st20{fill:none;stroke:#000000;stroke-width:0.25;stroke-miterlimit:10;}
	.st21{fill:none;stroke:#231F20;stroke-miterlimit:10;stroke-dasharray:24.3761,10.7255;}
	.st22{fill:none;stroke:#231F20;stroke-miterlimit:10;stroke-dasharray:4.8752,10.7255,24.3761,10.7255;}
	.st23{fill:none;stroke:#000000;stroke-width:0;stroke-linecap:round;stroke-linejoin:round;stroke-miterlimit:10;}
	.st24{fill:none;stroke:#231F20;stroke-miterlimit:10;stroke-dasharray:5.8227,5.8227;}
</style>
<pattern  x="120.47" y="507.91" width="100" height="100" patternUnits="userSpaceOnUse" id="Horizontal" viewBox="0 -100.25 100 100" style="overflow:visible;">
	<g>
		<rect y="-100.25" class="st0" width="100" height="100"/>
		<g>
			<line class="st1" x1="0" y1="-0.25" x2="100" y2="-0.25"/>
		</g>
		<g>
			<line class="st1" x1="0" y1="-100.25" x2="100" y2="-100.25"/>
			<line class="st1" x1="0" y1="-93.58" x2="100" y2="-93.58"/>
			<line class="st1" x1="0" y1="-86.83" x2="100" y2="-86.83"/>
			<line class="st1" x1="0" y1="-80.17" x2="100" y2="-80.17"/>
			<line class="st1" x1="0" y1="-73.42" x2="100" y2="-73.42"/>
			<line class="st1" x1="0" y1="-66.75" x2="100" y2="-66.75"/>
			<line class="st1" x1="0" y1="-60" x2="100" y2="-60"/>
			<line class="st1" x1="0" y1="-53.33" x2="100" y2="-53.33"/>
			<line class="st1" x1="0" y1="-46.58" x2="100" y2="-46.58"/>
			<line class="st1" x1="0" y1="-39.92" x2="100" y2="-39.92"/>
			<line class="st1" x1="0" y1="-33.17" x2="100" y2="-33.17"/>
			<line class="st1" x1="0" y1="-26.5" x2="100" y2="-26.5"/>
			<line class="st1" x1="0" y1="-19.75" x2="100" y2="-19.75"/>
			<line class="st1" x1="0" y1="-13.08" x2="100" y2="-13.08"/>
			<line class="st1" x1="0" y1="-6.33" x2="100" y2="-6.33"/>
		</g>
	</g>
</pattern>
<pattern  x="120.47" y="507.91" width="100" height="100" patternUnits="userSpaceOnUse" id="Vertical" viewBox="0 -199.96 100 100" style="overflow:visible;">
	<g>
		<rect y="-199.96" class="st0" width="100" height="100"/>
		<g>
			<line class="st1" x1="3.04" y1="0" x2="3.04" y2="-100"/>
			<line class="st1" x1="9.71" y1="0" x2="9.71" y2="-100"/>
			<line class="st1" x1="16.46" y1="0" x2="16.46" y2="-100"/>
			<line class="st1" x1="23.12" y1="0" x2="23.12" y2="-100"/>
			<line class="st1" x1="29.88" y1="0" x2="29.88" y2="-100"/>
			<line class="st1" x1="36.54" y1="0" x2="36.54" y2="-100"/>
			<line class="st1" x1="43.29" y1="0" x2="43.29" y2="-100"/>
			<line class="st1" x1="49.96" y1="0" x2="49.96" y2="-100"/>
			<line class="st1" x1="56.71" y1="0" x2="56.71" y2="-100"/>
			<line class="st1" x1="63.38" y1="0" x2="63.38" y2="-100"/>
			<line class="st1" x1="70.12" y1="0" x2="70.12" y2="-100"/>
			<line class="st1" x1="76.79" y1="0" x2="76.79" y2="-100"/>
			<line class="st1" x1="83.54" y1="0" x2="83.54" y2="-100"/>
			<line class="st1" x1="90.21" y1="0" x2="90.21" y2="-100"/>
			<line class="st1" x1="96.96" y1="0" x2="96.96" y2="-100"/>
		</g>
		<g>
			<line class="st1" x1="3.04" y1="-100" x2="3.04" y2="-200"/>
			<line class="st1" x1="9.71" y1="-100" x2="9.71" y2="-200"/>
			<line class="st1" x1="16.46" y1="-100" x2="16.46" y2="-200"/>
			<line class="st1" x1="23.12" y1="-100" x2="23.12" y2="-200"/>
			<line class="st1" x1="29.88" y1="-100" x2="29.88" y2="-200"/>
			<line class="st1" x1="36.54" y1="-100" x2="36.54" y2="-200"/>
			<line class="st1" x1="43.29" y1="-100" x2="43.29" y2="-200"/>
			<line class="st1" x1="49.96" y1="-100" x2="49.96" y2="-200"/>
			<line class="st1" x1="56.71" y1="-100" x2="56.71" y2="-200"/>
			<line class="st1" x1="63.38" y1="-100" x2="63.38" y2="-200"/>
			<line class="st1" x1="70.12" y1="-100" x2="70.12" y2="-200"/>
			<line class="st1" x1="76.79" y1="-100" x2="76.79" y2="-200"/>
			<line class="st1" x1="83.54" y1="-100" x2="83.54" y2="-200"/>
			<line class="st1" x1="90.21" y1="-100" x2="90.21" y2="-200"/>
			<line class="st1" x1="96.96" y1="-100" x2="96.96" y2="-200"/>
		</g>
	</g>
</pattern>
<g>
	<path class="st2" d="M300.22,180.16l-8.27,12.14c0,0-13.73,20.28-37.55,9.14c-10.43-4.06-14.64-20.1-14.64-20.1l-1.33-7.15
		l-2.03-3.58v-11.01l-0.99-1.78l1.47-1.09l1.64,2.8v9.78h1.65v-19.64l-1.01-2.48l-4.66-4.78v-9.1L217,114.12V62.16h-6.92v-0.71
		v-2.36h-71.04V70.6l4.82,3.16l-9.63,0.32l4.82,3.16v10.03h43.36v143.77h71.99h71.99v-57.24c0,0-5.48-0.24-13.07-0.34
		C305.72,173.35,300.22,180.16,300.22,180.16z"/>
	<path class="st2" d="M374.94,73.76l-5.18-3.16V59.09h-71.04v2.36v0.71h-6.92v51.96l-17.51,19.2v9.1l-4.66,4.78l-1.01,2.48v19.64
		h1.65v-9.78l1.57-2.68l1.68,0.72l-1.14,2.04v7.26l2.23,0.55l1.22-2.32c0,0,10.65-18.48,30.6-17.96
		c19.95,0.52,19.95,0.52,19.95,0.52V87.27h43.36V77.24l-5.18-3.16L374.94,73.76z"/>
</g>
<g id="HATCH_2_">
	<pattern  id="SVGID_1_" xlink:href="#Vertical" patternTransform="matrix(1 0 0 1 62.701 23.211)">
	</pattern>
	<path class="st3" d="M268.63,362.13c0-7.86-6.37-14.23-14.23-14.23s-14.23,6.37-14.23,14.23c0,7.86,6.37,14.23,14.23,14.23
		S268.63,369.99,268.63,362.13L268.63,362.13z"/>
</g>
<g id="LWPOLYLINE_2_">
	<path class="st4" d="M436.74,604.88"/>
</g>
<g>
	<g id="HATCH_1_">
		
			<pattern  id="SVGID_00000127741626860689933260000013888301533329405364_" xlink:href="#Vertical" patternTransform="matrix(1 0 0 1 62.701 23.211)">
		</pattern>
		
			<polygon style="fill-rule:evenodd;clip-rule:evenodd;fill:url(#SVGID_00000127741626860689933260000013888301533329405364_);" points="
			439.23,582.77 431.78,585.95 426.86,582.89 418.55,587.26 425,591.3 419.87,595.89 421.72,601.57 421.72,604.88 436.74,604.88 		
			"/>
	</g>
	<g id="HATCH_3_">
		
			<pattern  id="SVGID_00000176743101056496672630000002119181184406301608_" xlink:href="#Vertical" patternTransform="matrix(1 0 0 1 62.701 23.211)">
		</pattern>
		
			<polygon style="fill-rule:evenodd;clip-rule:evenodd;fill:url(#SVGID_00000176743101056496672630000002119181184406301608_);" points="
			285.26,91.82 277.81,95 272.89,91.94 264.58,96.31 271.03,100.35 265.89,104.94 267.75,110.62 267.75,113.93 282.77,113.93 		"/>
	</g>
</g>
<g>
	<g id="HATCH_5_">
		
			<pattern  id="SVGID_00000181766008082164805680000001655360167951213448_" xlink:href="#Horizontal" patternTransform="matrix(1 0 0 1 50.791 97.8832)">
		</pattern>
		
			<polygon style="fill-rule:evenodd;clip-rule:evenodd;fill:url(#SVGID_00000181766008082164805680000001655360167951213448_);" points="
			439.23,582.77 431.78,585.95 426.86,582.89 418.55,587.26 425,591.3 419.87,595.89 421.72,601.57 421.72,604.88 436.74,604.88 		
			"/>
	</g>
	<g id="HATCH_4_">
		
			<pattern  id="SVGID_00000182487968637263810560000011492910072845692317_" xlink:href="#Horizontal" patternTransform="matrix(1 0 0 1 50.791 97.8832)">
		</pattern>
		
			<polygon style="fill-rule:evenodd;clip-rule:evenodd;fill:url(#SVGID_00000182487968637263810560000011492910072845692317_);" points="
			285.26,91.82 277.81,95 272.89,91.94 264.58,96.31 271.03,100.35 265.89,104.94 267.75,110.62 267.75,113.93 282.77,113.93 		"/>
	</g>
</g>
<g id="LWPOLYLINE_6_">
	<g>
		<path class="st9" d="M282.77,113.93"/>
	</g>
</g>
<g>
	<g id="LINE_59_">
		<g id="LINE_6_">
			<g>
				<g>
					<g>
						<line class="st10" x1="326.27" y1="349.16" x2="320.27" y2="349.16"/>
						<line class="st11" x1="309.59" y1="349.16" x2="272.24" y2="349.16"/>
						<line class="st10" x1="266.9" y1="349.16" x2="260.9" y2="349.16"/>
					</g>
				</g>
			</g>
		</g>
	</g>
	<g id="LINE_60_">
		<g id="LINE_5_">
			<g>
				<g>
					<g>
						<line class="st10" x1="326.27" y1="375.11" x2="320.27" y2="375.11"/>
						<line class="st11" x1="309.59" y1="375.11" x2="272.24" y2="375.11"/>
						<line class="st10" x1="266.9" y1="375.11" x2="260.9" y2="375.11"/>
					</g>
				</g>
			</g>
		</g>
	</g>
</g>
<g id="LINE_121_">
	<g id="LINE_4_">
		<g>
			<g>
				<g>
					<line class="st10" x1="326.4" y1="147.66" x2="326.4" y2="150.66"/>
					<line class="st12" x1="326.4" y1="157.37" x2="326.4" y2="167.44"/>
					<line class="st10" x1="326.4" y1="170.79" x2="326.4" y2="173.79"/>
				</g>
			</g>
		</g>
	</g>
</g>
<g id="LWPOLYLINE_5_">
	<g id="LWPOLYLINE_7_">
		<g>
			<g>
				<g>
					<polyline class="st10" points="182.41,296.14 182.41,290.14 188.41,290.14 					"/>
					<line class="st13" x1="200.39" y1="290.14" x2="314.27" y2="290.14"/>
					<polyline class="st10" points="320.27,290.14 326.27,290.14 326.27,296.14 					"/>
					<line class="st14" x1="326.27" y1="308.14" x2="326.27" y2="422.13"/>
					<polyline class="st10" points="326.27,428.13 326.27,434.13 320.27,434.13 					"/>
					<line class="st13" x1="308.28" y1="434.13" x2="194.4" y2="434.13"/>
					<polyline class="st10" points="188.41,434.13 182.41,434.13 182.41,428.13 					"/>
					<line class="st14" x1="182.41" y1="416.13" x2="182.41" y2="302.14"/>
				</g>
			</g>
		</g>
	</g>
</g>
<g>
	<g id="LINE_19_">
		<line class="st4" x1="220.82" y1="561.88" x2="287.98" y2="561.88"/>
	</g>
	<g id="LINE_20_">
		<line class="st4" x1="220.82" y1="564.2" x2="287.98" y2="564.2"/>
	</g>
</g>
<g>
	<polyline class="st10" points="443.15,554.13 437.36,605.57 380.5,605.57 374.7,554.13 	"/>
	<g id="LINE_38_">
		<line class="st10" x1="452.96" y1="554.13" x2="364.9" y2="554.13"/>
	</g>
</g>
<g id="LINE_80_">
	<line class="st4" x1="210.08" y1="59.09" x2="298.72" y2="59.09"/>
</g>
<g>
	<g id="MTEXT">
		<g>
			<text transform="matrix(1 0 0 1 143.6879 354.3737)" class="st15 st16 st17">A</text>
		</g>
	</g>
	<g id="MTEXT_1_">
		<g>
			<text transform="matrix(1 0 0 1 388.7386 352.2019)" class="st15 st16 st17">A</text>
		</g>
	</g>
</g>
<g id="MTEXT_2_">
	<g>
		<text transform="matrix(1 0 0 1 284.1048 665.1482)" class="st15 st18 st17">BASKET DETAILS</text>
	</g>
</g>
<g id="MTEXT_3_">
	<g>
		<text transform="matrix(1 0 0 1 135.7328 572.4099)"><tspan x="0" y="0" class="st15 st16 st17">25 x 10</tspan><tspan x="0" y="14.4" class="st15 st16 st17">Handle</tspan></text>
	</g>
</g>
<g id="MTEXT_4_">
	<g>
		<text transform="matrix(1 0 0 1 237.4349 457.3806)" class="st15 st18 st17">PLAN</text>
		<text transform="matrix(1 0 0 1 146.4958 472.447)" class="st15 st18 st17">(Perforated plate and basket removed)</text>
	</g>
</g>
<g id="MTEXT_10_">
	<g>
		<text transform="matrix(1 0 0 1 213.5834 252.2566)" class="st15 st18 st17">SECTION A-A</text>
	</g>
</g>
<g id="MTEXT_11_">
	<g>
		<text transform="matrix(1 0 0 1 242.1683 645.7068)" class="st15 st18 st17">Plan</text>
	</g>
</g>
<g id="MTEXT_12_">
	<g>
		<text transform="matrix(1 0 0 1 382.1107 645.7068)" class="st15 st18 st17">Elevation</text>
	</g>
</g>
<g>
	<g id="LINE_39_">
		<line class="st19" x1="456.54" y1="553.43" x2="469.93" y2="553.43"/>
	</g>
	<g id="LINE_40_">
		<line class="st19" x1="440.94" y1="605.57" x2="469.93" y2="605.57"/>
	</g>
	<g id="LINE_42_">
		<line class="st19" x1="302.01" y1="519.01" x2="321.85" y2="519.01"/>
	</g>
	<g id="LINE_43_">
		<line class="st19" x1="302.01" y1="607.07" x2="321.85" y2="607.07"/>
	</g>
	<g id="LINE_45_">
		<line class="st19" x1="380.5" y1="609.16" x2="380.5" y2="626.91"/>
	</g>
	<g id="LINE_46_">
		<line class="st19" x1="437.36" y1="609.16" x2="437.36" y2="626.91"/>
	</g>
	<g id="LINE_48_">
		<line class="st19" x1="375.33" y1="549.85" x2="375.33" y2="537.22"/>
	</g>
	<g id="LINE_49_">
		<line class="st19" x1="442.53" y1="549.85" x2="442.53" y2="537.22"/>
	</g>
	<g id="LINE_51_">
		<line class="st19" x1="364.9" y1="549.85" x2="364.9" y2="517.57"/>
	</g>
	<g id="LINE_52_">
		<line class="st19" x1="452.96" y1="549.85" x2="452.96" y2="517.57"/>
	</g>
	<g id="LINE_54_">
		<line class="st19" x1="210.37" y1="610.65" x2="210.37" y2="630.49"/>
	</g>
	<g id="LINE_55_">
		<line class="st19" x1="298.43" y1="610.65" x2="298.43" y2="630.49"/>
	</g>
</g>
<g>
	<g id="MTEXT_13_">
		<g>
			<text transform="matrix(0 -1 1 0 462.6136 589.8591)" class="st15 st16 st17">225</text>
		</g>
	</g>
	<g id="MTEXT_14_">
		<g>
			<text transform="matrix(0 -1 1 0 314.5345 573.4724)" class="st15 st16 st17">375</text>
		</g>
	</g>
	<g id="MTEXT_15_">
		<g>
			<text transform="matrix(1 0 0 1 398.6234 619.5935)" class="st15 st16 st17">240</text>
		</g>
	</g>
	<g id="MTEXT_16_">
		<g>
			<text transform="matrix(1 0 0 1 398.6224 537.0681)" class="st15 st16 st17">290</text>
		</g>
	</g>
	<g id="MTEXT_17_">
		<g>
			<text transform="matrix(1 0 0 1 398.4935 517.4138)" class="st15 st16 st17">375</text>
		</g>
	</g>
	<g id="MTEXT_18_">
		<g>
			<text transform="matrix(1 0 0 1 243.9671 623.1716)" class="st15 st16 st17">375</text>
		</g>
	</g>
</g>
<g id="MTEXT_19_">
	<g>
		<text transform="matrix(1 0 0 1 379.2894 188.2077)"><tspan x="0" y="0" class="st15 st16 st17">Outlet to:</tspan><tspan x="0" y="14.4" class="st15 st16 st17">• trade waste appliance</tspan><tspan x="0" y="28.8" class="st15 st16 st17">• direct to drain</tspan><tspan x="0" y="43.2" class="st15 st16 st17">• direct to stack</tspan><tspan x="0" y="57.6" class="st15 st16 st17">• disconnector gully </tspan></text>
	</g>
</g>
<g>
	<g id="MTEXT_8_">
		<g>
			<text transform="matrix(1 0 0 1 383.0599 164.9919)" class="st15 st16 st17">100 Outlet</text>
		</g>
	</g>
	<g id="MTEXT_9_">
		<g>
			<text transform="matrix(1 0 0 1 383.0599 37.3464)"><tspan x="0" y="0" class="st15 st16 st17">10 mm thick perforated</tspan><tspan x="0" y="14.4" class="st15 st16 st17">steel plate with 12 mm</tspan><tspan x="0" y="28.8" class="st15 st16 st17">holes at 25 mm centres</tspan></text>
		</g>
	</g>
	<g id="MTEXT_20_">
		<g>
			<text transform="matrix(1 0 0 1 383.0599 103.8083)"><tspan x="0" y="0" class="st15 st16 st17">Sump to have smooth</tspan><tspan x="0" y="14.4" class="st15 st16 st17">internal finish</tspan></text>
		</g>
	</g>
	<g id="MTEXT_22_">
		<g>
			<text transform="matrix(1 0 0 1 383.0599 140.0691)" class="st15 st16 st17">80 mm  max</text>
		</g>
	</g>
</g>
<g>
	<g id="MTEXT_5_">
		<g>
			<text transform="matrix(1 0 0 1 30.1625 71.697)" class="st15 st16 st17">Paving slab</text>
		</g>
	</g>
	<g id="MTEXT_6_">
		<g>
			<text transform="matrix(1 0 0 1 29.7679 125.5407)"><tspan x="0" y="0" class="st15 st16 st17">100 Disconnector</tspan><tspan x="0" y="14.4" class="st15 st16 st17">gully grating</tspan></text>
		</g>
	</g>
	<g id="MTEXT_7_">
		<g>
			<text transform="matrix(1 0 0 1 29.7679 171.9216)"><tspan x="0" y="0" class="st15 st16 st17">100 Disconnector</tspan><tspan x="0" y="14.4" class="st15 st16 st17">gully extension piece</tspan></text>
		</g>
	</g>
	<g id="MTEXT_21_">
		<g>
			<text transform="matrix(1 0 0 1 29.7679 102.5212)" class="st15 st16 st17">150 mm Concrete</text>
		</g>
	</g>
	<g id="MTEXT_23_">
		<g>
			<text transform="matrix(1 0 0 1 29.7679 217.1657)"><tspan x="0" y="0" class="st15 st16 st17">100 cast iron or V.C.</tspan><tspan x="0" y="14.4" class="st15 st16 st17">disconnector gully</tspan></text>
		</g>
	</g>
</g>
<g>
	<g>
		<polyline class="st19" points="178.6,583.79 212.67,583.79 240.06,568.39 		"/>
		<g>
			<polygon class="st15" points="239.83,571.02 245.85,565.14 237.7,567.22 			"/>
		</g>
	</g>
</g>
<g id="LEADER_3_">
	<g>
		<g>
			<line class="st20" x1="164.5" y1="68.54" x2="97.9" y2="68.54"/>
			<g>
				<polygon points="163.01,66.36 171.14,68.54 163.01,70.72 				"/>
			</g>
		</g>
	</g>
</g>
<g id="LEADER_6_">
	<g>
		<g>
			<polyline class="st20" points="378.84,33.95 286.13,33.95 286.13,52.44 			"/>
			<g>
				<polygon points="283.95,50.96 286.13,59.09 288.31,50.96 				"/>
			</g>
		</g>
	</g>
</g>
<g id="LEADER_8_">
	<g>
		<g>
			<polyline class="st20" points="378.84,100.41 359.91,100.41 298.31,112.81 			"/>
			<g>
				<polygon points="299.34,110.38 291.8,114.12 300.2,114.65 				"/>
			</g>
		</g>
	</g>
</g>
<g id="LEADER_10_">
	<g>
		<g>
			<polyline class="st20" points="378.84,136.79 359.91,136.79 267.56,123.97 			"/>
			<g>
				<polygon points="269.33,122.01 260.98,123.05 268.73,126.33 				"/>
			</g>
		</g>
	</g>
</g>
<g id="LEADER_7_">
	<g>
		<g>
			<line class="st20" x1="372.19" y1="161.37" x2="348.08" y2="161.37"/>
			<g>
				<polygon points="370.71,159.19 378.84,161.37 370.71,163.55 				"/>
			</g>
		</g>
	</g>
</g>
<g id="LINE">
	<g id="LINE_7_">
		<g>
			<g>
				<g>
					<line class="st10" x1="169.27" y1="362.13" x2="171.77" y2="362.13"/>
					<line class="st21" x1="182.49" y1="362.13" x2="212.23" y2="362.13"/>
					<line class="st22" x1="217.59" y1="362.13" x2="364.34" y2="362.13"/>
					<line class="st10" x1="369.7" y1="362.13" x2="372.2" y2="362.13"/>
				</g>
			</g>
		</g>
	</g>
</g>
<g id="POINT">
	<line class="st23" x1="452.96" y1="553.43" x2="452.96" y2="553.43"/>
</g>
<g id="POINT_1_">
	<line class="st23" x1="437.36" y1="605.57" x2="437.36" y2="605.57"/>
</g>
<g id="POINT_2_">
	<line class="st23" x1="466.35" y1="605.57" x2="466.35" y2="605.57"/>
</g>
<g id="POINT_3_">
	<line class="st23" x1="298.43" y1="519.01" x2="298.43" y2="519.01"/>
</g>
<g id="POINT_4_">
	<line class="st23" x1="298.43" y1="607.07" x2="298.43" y2="607.07"/>
</g>
<g id="POINT_5_">
	<line class="st23" x1="318.27" y1="607.07" x2="318.27" y2="607.07"/>
</g>
<g id="POINT_6_">
	<line class="st23" x1="380.5" y1="605.57" x2="380.5" y2="605.57"/>
</g>
<g id="POINT_7_">
	<line class="st23" x1="437.36" y1="605.57" x2="437.36" y2="605.57"/>
</g>
<g id="POINT_8_">
	<line class="st23" x1="437.36" y1="623.33" x2="437.36" y2="623.33"/>
</g>
<g id="POINT_9_">
	<line class="st23" x1="375.33" y1="553.43" x2="375.33" y2="553.43"/>
</g>
<g id="POINT_10_">
	<line class="st23" x1="442.53" y1="553.43" x2="442.53" y2="553.43"/>
</g>
<g id="POINT_11_">
	<line class="st23" x1="442.53" y1="540.8" x2="442.53" y2="540.8"/>
</g>
<g id="POINT_14_">
	<line class="st23" x1="452.96" y1="521.15" x2="452.96" y2="521.15"/>
</g>
<g id="POINT_15_">
	<line class="st23" x1="210.37" y1="607.07" x2="210.37" y2="607.07"/>
</g>
<g id="POINT_16_">
	<line class="st23" x1="298.43" y1="607.07" x2="298.43" y2="607.07"/>
</g>
<g id="POINT_17_">
	<line class="st23" x1="298.43" y1="626.91" x2="298.43" y2="626.91"/>
</g>
<g>
	<g id="ELLIPSE">
		<path class="st10" d="M364.09,362.13c-1.54,0-2.78,2.9-2.78,6.49s1.25,6.49,2.78,6.49c1.54,0,2.78-2.91,2.78-6.49
			S365.63,362.13,364.09,362.13L364.09,362.13z"/>
	</g>
	<g id="ELLIPSE_1_">
		<path class="st10" d="M364.09,362.13c1.54,0,2.78-2.91,2.78-6.49c0-3.58-1.25-6.49-2.78-6.49"/>
	</g>
	<g id="LINE_1_">
		<line class="st10" x1="326.27" y1="349.16" x2="364.71" y2="349.16"/>
	</g>
	<g id="LINE_2_">
		<line class="st10" x1="326.27" y1="375.11" x2="364.71" y2="375.11"/>
	</g>
</g>
<g>
	<rect x="210.37" y="519.01" class="st10" width="88.06" height="88.06"/>
	<rect x="220.8" y="529.44" class="st10" width="67.2" height="67.2"/>
	<polyline class="st10" points="282.21,564.2 282.21,590.85 288,596.64 282.21,590.85 226.59,590.85 226.59,564.2 226.59,590.85 
		220.8,596.64 	"/>
	<polyline class="st10" points="282.21,561.88 282.21,535.23 288,529.44 282.21,535.23 226.59,535.23 226.59,561.88 226.59,535.23 
		220.8,529.44 	"/>
</g>
<g id="LWPOLYLINE_3_">
	<g>
		<rect x="374.67" y="174.21" class="st10" width="148.68" height="78.2"/>
	</g>
</g>
<g>
	<rect x="210.08" y="317.81" class="st10" width="88.64" height="88.64"/>
	<rect x="217" y="324.74" class="st10" width="74.79" height="74.79"/>
	<g id="CIRCLE_1_">
		<g>
			<path class="st10" d="M240.17,362.13c0-7.86,6.37-14.23,14.23-14.23s14.23,6.37,14.23,14.23c0,7.86-6.37,14.23-14.23,14.23
				S240.17,369.99,240.17,362.13L240.17,362.13z"/>
		</g>
	</g>
	<g id="CIRCLE_2_">
		<g>
			<path class="st10" d="M234.51,362.13c0-10.99,8.91-19.89,19.89-19.89c10.99,0,19.89,8.91,19.89,19.89
				c0,10.99-8.91,19.89-19.89,19.89C243.42,382.02,234.51,373.12,234.51,362.13L234.51,362.13z"/>
		</g>
	</g>
</g>
<polyline class="st4" points="369.86,87.27 369.86,77.43 364.79,73.7 374.94,73.7 369.86,69.96 369.86,59.09 "/>
<g>
	<g>
		<g>
			<polyline class="st19" points="169.25,362.41 158.37,362.41 158.37,348.95 			"/>
			<g>
				<polygon class="st15" points="160.55,350.44 158.37,342.31 156.19,350.44 				"/>
			</g>
		</g>
	</g>
	<g>
		<g>
			<polyline class="st19" points="370.31,362.41 381.19,362.41 381.19,349.95 			"/>
			<g>
				<polygon class="st15" points="383.37,351.44 381.19,343.31 379.01,351.44 				"/>
			</g>
		</g>
	</g>
</g>
<g>
	<g id="LINE_123_">
		<g>
			<g>
				<line class="st19" x1="387.49" y1="623.33" x2="430.71" y2="623.33"/>
				<g>
					<polygon class="st15" points="388.97,625.51 380.84,623.33 388.97,621.15 					"/>
				</g>
				<g>
					<polygon class="st15" points="429.23,625.51 437.36,623.33 429.23,621.15 					"/>
				</g>
			</g>
		</g>
	</g>
	<g id="LINE_122_">
		<g>
			<g>
				<line class="st19" x1="382.39" y1="540.8" x2="435.89" y2="540.8"/>
				<g>
					<polygon class="st15" points="383.88,542.98 375.75,540.8 383.88,538.62 					"/>
				</g>
				<g>
					<polygon class="st15" points="434.4,542.98 442.53,540.8 434.4,538.62 					"/>
				</g>
			</g>
		</g>
	</g>
	<g id="LINE_58_">
		<g>
			<g>
				<line class="st19" x1="371.45" y1="521.15" x2="446.31" y2="521.15"/>
				<g>
					<polygon class="st15" points="372.94,523.33 364.81,521.15 372.94,518.97 					"/>
				</g>
				<g>
					<polygon class="st15" points="444.83,523.33 452.96,521.15 444.83,518.97 					"/>
				</g>
			</g>
		</g>
	</g>
	<g id="LINE_57_">
		<g>
			<g>
				<line class="st19" x1="317.74" y1="525.7" x2="317.74" y2="600.42"/>
				<g>
					<polygon class="st15" points="315.56,527.19 317.74,519.06 319.92,527.19 					"/>
				</g>
				<g>
					<polygon class="st15" points="315.56,598.94 317.74,607.07 319.92,598.94 					"/>
				</g>
			</g>
		</g>
	</g>
	<g>
		<g>
			<line class="st19" x1="466.35" y1="559.85" x2="466.35" y2="598.93"/>
			<g>
				<polygon class="st15" points="464.17,561.34 466.35,553.21 468.53,561.34 				"/>
			</g>
			<g>
				<polygon class="st15" points="464.17,597.44 466.35,605.57 468.53,597.44 				"/>
			</g>
		</g>
	</g>
	<g id="LINE_41_">
		<g>
			<g>
				<line class="st19" x1="216.55" y1="626.91" x2="291.79" y2="626.91"/>
				<g>
					<polygon class="st15" points="218.03,629.09 209.9,626.91 218.03,624.73 					"/>
				</g>
				<g>
					<polygon class="st15" points="290.3,629.09 298.43,626.91 290.3,624.73 					"/>
				</g>
			</g>
		</g>
	</g>
</g>
<g>
	<polyline class="st10" points="289.31,62.16 283.4,114.64 225.4,114.64 219.49,62.16 	"/>
	<g id="LINE_81_">
		<line class="st10" x1="298.72" y1="62.7" x2="298.72" y2="58.66"/>
	</g>
	<path class="st10" d="M270.28,169.78v-10.25l1.64-2.8c0.24-0.34,0.67-0.49,1.07-0.34c0.48,0.17,0.72,0.7,0.55,1.17l-1.14,2.04v7.25
		"/>
	<g id="LINE_61_">
		<line class="st10" x1="234.51" y1="133.32" x2="234.51" y2="142.42"/>
	</g>
	<g id="LINE_62_">
		<line class="st10" x1="234.51" y1="142.42" x2="274.29" y2="142.42"/>
	</g>
	<g id="LINE_63_">
		<line class="st10" x1="234.51" y1="133.32" x2="274.29" y2="133.32"/>
	</g>
	<path class="st10" d="M236.4,170.62l2.03,3.58l1.33,7.15c2.91,15.66,17.96,25.99,33.62,23.08c7.56-1.4,14.25-5.77,18.57-12.13
		l8.27-12.14c2.94-4.32,7.88-6.85,13.1-6.71l28.18,0.74"/>
	<g id="LINE_95_">
		<line class="st10" x1="274.29" y1="133.32" x2="274.29" y2="142.42"/>
	</g>
	<path class="st10" d="M234.51,142.42l4.66,4.78c0.65,0.66,1.01,1.55,1.01,2.48v19.64h30.49h-2.03v-19.64
		c0-0.92,0.36-1.81,1.01-2.48l4.66-4.78"/>
	<g id="LINE_101_">
		<line class="st10" x1="268.94" y1="148.23" x2="240.17" y2="148.23"/>
	</g>
	<path class="st10" d="M272.4,166.86c0,0.65,0.53,1.18,1.18,1.18c0.44,0,0.84-0.24,1.05-0.63l1.22-2.32
		c5.94-11.33,17.81-18.29,30.6-17.96l35.74,0.94"/>
	<polyline class="st10" points="182.41,59.09 182.41,231.04 326.27,231.04 326.27,173.78 	"/>
	<g id="LINE_110_">
		<line class="st10" x1="182.41" y1="87.27" x2="139.05" y2="87.27"/>
	</g>
	<polyline class="st10" points="217,62.16 217,114.12 234.51,133.32 	"/>
	<polyline class="st10" points="139.05,59.09 210.08,59.09 210.08,61.45 210.08,62.16 298.72,62.16 	"/>
	<g id="LINE_116_">
		<line class="st10" x1="326.4" y1="87.27" x2="369.76" y2="87.27"/>
	</g>
	<polyline class="st10" points="291.8,62.16 291.8,114.12 274.29,133.32 	"/>
	<g id="LINE_119_">
		<line class="st10" x1="369.76" y1="59.09" x2="298.72" y2="59.09"/>
	</g>
	<g id="ELLIPSE_2_">
		<path class="st4" d="M341.85,161.13c1.68,0.04,3.12-2.84,3.22-6.45c0.09-3.61-1.19-6.57-2.87-6.61"/>
	</g>
	<g id="ELLIPSE_3_">
		<path class="st4" d="M341.85,161.13c-1.68-0.04-3.12,2.84-3.22,6.45c-0.09,3.61,1.19,6.57,2.87,6.61
			c1.68,0.04,3.12-2.84,3.22-6.45C344.82,164.13,343.53,161.17,341.85,161.13L341.85,161.13z"/>
	</g>
	<g id="LINE_129_">
		<line class="st10" x1="326.4" y1="147.66" x2="326.4" y2="59.09"/>
	</g>
	<path class="st10" d="M240.17,169.32h-1.65v-9.78l-1.64-2.8c-0.29-0.42-0.86-0.52-1.27-0.24c-0.34,0.24-0.49,0.67-0.34,1.07
		l1.14,2.04v11.01"/>
</g>
<polyline class="st4" points="139.07,87.27 139.07,77.43 133.99,73.7 144.15,73.7 139.07,69.96 139.07,59.09 "/>
<g id="LEADER_5_">
	<g>
		<g>
			<polyline class="st20" points="146.69,182.91 162.44,182.91 240.91,162.78 			"/>
			<g>
				<polygon points="240.01,165.26 247.34,161.13 238.93,161.04 				"/>
			</g>
		</g>
	</g>
</g>
<g id="LEADER_9_">
	<g>
		<g>
			<polyline class="st20" points="130.5,100.19 146.05,100.19 194.85,111.19 			"/>
			<g>
				<polygon points="192.93,112.99 201.34,112.65 193.88,108.74 				"/>
			</g>
		</g>
	</g>
</g>
<g id="LEADER_11_">
	<g>
		<g>
			<polyline class="st20" points="132.07,229.41 162.44,229.41 237.54,194.03 			"/>
			<g>
				<polygon points="237.12,196.63 243.55,191.19 235.27,192.69 				"/>
			</g>
		</g>
	</g>
</g>
<g>
	<g>
		<line class="st20" x1="100.47" y1="137.63" x2="227.87" y2="137.63"/>
		<g>
			<polygon points="226.38,139.81 234.51,137.63 226.38,135.45 			"/>
		</g>
	</g>
</g>
<g id="CIRCLE">
	<g>
		
			<ellipse transform="matrix(0.1602 -0.9871 0.9871 0.1602 -143.8069 555.2433)" class="st24" cx="254.4" cy="362.13" rx="12.98" ry="12.98"/>
	</g>
</g>
</svg>
