<?xml version="1.0" encoding="utf-8"?>
<!-- Generator: Adobe Illustrator 26.3.1, SVG Export Plug-In . SVG Version: 6.00 Build 0)  -->
<svg version="1.1" xmlns="http://www.w3.org/2000/svg" xmlns:xlink="http://www.w3.org/1999/xlink" x="0px" y="0px"
	 viewBox="0 0 552.76 429.76" style="enable-background:new 0 0 552.76 429.76;" xml:space="preserve">
<style type="text/css">
	.st0{display:none;}
	.st1{display:inline;}
	.st2{fill:none;stroke:#007F00;stroke-width:0.7087;stroke-linecap:round;stroke-linejoin:round;stroke-miterlimit:10;}
	.st3{fill:none;stroke:#000000;stroke-width:0;stroke-linecap:round;stroke-linejoin:round;stroke-miterlimit:10;}
	.st4{fill-rule:evenodd;clip-rule:evenodd;fill:#C5C7C9;}
	.st5{fill:none;}
	.st6{fill:#231F20;}
	.st7{font-family:'ArialMT';}
	.st8{font-size:12px;}
	.st9{fill:none;stroke:#231F20;stroke-width:0.25;stroke-miterlimit:10;}
	.st10{font-family:'Arial-BoldMT';}
	.st11{fill:none;stroke:#231F20;stroke-width:0.75;stroke-miterlimit:10;stroke-dasharray:4,4;}
	.st12{fill:none;stroke:#231F20;stroke-miterlimit:10;}
	.st13{fill:none;stroke:#231F20;stroke-width:0.75;stroke-miterlimit:10;}
	.st14{fill:none;stroke:#231F20;stroke-miterlimit:10;stroke-dasharray:24.9885,10.9949;}
	.st15{fill:none;stroke:#231F20;stroke-miterlimit:10;stroke-dasharray:4.9977,10.9949,24.9885,10.9949;}
	.st16{fill:none;stroke:#231F20;stroke-width:0.75;stroke-miterlimit:10;stroke-dasharray:6.0726,6.0726;}
	.st17{fill:none;stroke:#231F20;stroke-width:0.75;stroke-miterlimit:10;stroke-dasharray:4.3345,4.3345;}
	.st18{fill:none;stroke:#231F20;stroke-width:0.75;stroke-miterlimit:10;stroke-dasharray:2.1035,2.1035;}
</style>
<g id="Defpoints" class="st0">
	<g id="LWPOLYLINE" class="st1">
		<rect x="121.22" y="75.99" class="st2" width="310.66" height="266.11"/>
	</g>
	<g id="LINE_42_" class="st1">
		<line class="st2" x1="121.22" y1="78.25" x2="121.22" y2="190.18"/>
	</g>
	<g id="POINT" class="st1">
		<line class="st3" x1="215.39" y1="133.85" x2="215.39" y2="133.85"/>
	</g>
	<g id="POINT_1_" class="st1">
		<line class="st3" x1="215.39" y1="138.95" x2="215.39" y2="138.95"/>
	</g>
	<g id="POINT_2_" class="st1">
		<line class="st3" x1="225.58" y1="138.95" x2="225.58" y2="138.95"/>
	</g>
	<g id="POINT_3_" class="st1">
		<line class="st3" x1="235.78" y1="121.96" x2="235.78" y2="121.96"/>
	</g>
	<g id="POINT_4_" class="st1">
		<line class="st3" x1="235.78" y1="138.95" x2="235.78" y2="138.95"/>
	</g>
	<g id="POINT_5_" class="st1">
		<line class="st3" x1="246.21" y1="138.95" x2="246.21" y2="138.95"/>
	</g>
	<g id="POINT_6_" class="st1">
		<line class="st3" x1="235.78" y1="138.95" x2="235.78" y2="138.95"/>
	</g>
	<g id="POINT_7_" class="st1">
		<line class="st3" x1="235.78" y1="152.54" x2="235.78" y2="152.54"/>
	</g>
	<g id="POINT_8_" class="st1">
		<line class="st3" x1="246.21" y1="152.54" x2="246.21" y2="152.54"/>
	</g>
	<g id="POINT_9_" class="st1">
		<line class="st3" x1="255.65" y1="138.95" x2="255.65" y2="138.95"/>
	</g>
	<g id="POINT_10_" class="st1">
		<line class="st3" x1="255.65" y1="179.73" x2="255.65" y2="179.73"/>
	</g>
	<g id="POINT_11_" class="st1">
		<line class="st3" x1="261.12" y1="179.73" x2="261.12" y2="179.73"/>
	</g>
	<g id="POINT_12_" class="st1">
		<line class="st3" x1="261.12" y1="138.95" x2="261.12" y2="138.95"/>
	</g>
	<g id="POINT_13_" class="st1">
		<line class="st3" x1="261.12" y1="118.56" x2="261.12" y2="118.56"/>
	</g>
	<g id="POINT_14_" class="st1">
		<line class="st3" x1="261.12" y1="118.56" x2="261.12" y2="118.56"/>
	</g>
	<g id="POINT_15_" class="st1">
		<line class="st3" x1="327.42" y1="172.93" x2="327.42" y2="172.93"/>
	</g>
	<g id="POINT_16_" class="st1">
		<line class="st3" x1="327.42" y1="179.73" x2="327.42" y2="179.73"/>
	</g>
	<g id="POINT_17_" class="st1">
		<line class="st3" x1="320.93" y1="179.73" x2="320.93" y2="179.73"/>
	</g>
	<g id="POINT_18_" class="st1">
		<line class="st3" x1="327.08" y1="121.62" x2="327.08" y2="121.62"/>
	</g>
	<g id="POINT_19_" class="st1">
		<line class="st3" x1="327.08" y1="118.56" x2="327.08" y2="118.56"/>
	</g>
	<g id="POINT_20_" class="st1">
		<line class="st3" x1="320.91" y1="118.56" x2="320.91" y2="118.56"/>
	</g>
	<g id="POINT_21_" class="st1">
		<line class="st3" x1="288.3" y1="121.62" x2="288.3" y2="121.62"/>
	</g>
	<g id="POINT_22_" class="st1">
		<line class="st3" x1="288.3" y1="118.56" x2="288.3" y2="118.56"/>
	</g>
	<g id="POINT_23_" class="st1">
		<line class="st3" x1="282.13" y1="118.56" x2="282.13" y2="118.56"/>
	</g>
	<g id="POINT_24_" class="st1">
		<line class="st3" x1="272.23" y1="238.77" x2="272.23" y2="238.77"/>
	</g>
	<g id="POINT_25_" class="st1">
		<line class="st3" x1="272.23" y1="306.74" x2="272.23" y2="306.74"/>
	</g>
	<g id="POINT_26_" class="st1">
		<line class="st3" x1="263.8" y1="306.74" x2="263.8" y2="306.74"/>
	</g>
	<g id="POINT_27_" class="st1">
		<line class="st3" x1="215.39" y1="306.74" x2="215.39" y2="306.74"/>
	</g>
	<g id="POINT_28_" class="st1">
		<line class="st3" x1="337.72" y1="306.74" x2="337.72" y2="306.74"/>
	</g>
	<g id="POINT_29_" class="st1">
		<line class="st3" x1="337.72" y1="293.64" x2="337.72" y2="293.64"/>
	</g>
	<g id="POINT_30_" class="st1">
		<line class="st3" x1="215.39" y1="238.77" x2="215.39" y2="238.77"/>
	</g>
	<g id="POINT_31_" class="st1">
		<line class="st3" x1="235.78" y1="238.77" x2="235.78" y2="238.77"/>
	</g>
	<g id="POINT_32_" class="st1">
		<line class="st3" x1="235.78" y1="250.18" x2="235.78" y2="250.18"/>
	</g>
</g>
<g id="TXT25">
	<g id="HATCH">
		<path class="st4" d="M182.57,67.93h-4.12v-5.19h-6.19v18.08h10.31V67.93z M182.57,91.13h-10.31v79.91h96.55v-10.31h-86.24V91.13z
			 M378.48,98.86h-10.31v61.86h-99.35v10.31h109.66V98.86z M378.48,62.74h-6.19v5.19h-4.12v20.62h10.31V62.74z"/>
	</g>
	<g>
		<g id="MTEXT">
			<g>
				<rect x="413.62" y="274.67" class="st5" width="8.04" height="14.19"/>
				<text transform="matrix(1 0 0 1 413.6195 284.9676)" class="st6 st7 st8">A</text>
			</g>
		</g>
		<g id="MTEXT_18_">
			<g>
				<rect x="129.69" y="274.67" class="st5" width="8.04" height="14.19"/>
				<text transform="matrix(1 0 0 1 129.6918 284.9676)" class="st6 st7 st8">A</text>
			</g>
		</g>
		<g id="MTEXT_19_">
			<g>
				<rect x="242.65" y="273.4" class="st5" width="14.19" height="26.7"/>
				<text transform="matrix(0 -1 1 0 252.9442 300.0936)" class="st6 st7 st8">1000</text>
			</g>
		</g>
		<g id="MTEXT_20_">
			<g>
				<rect x="271.94" y="320.16" class="st5" width="26.7" height="14.19"/>
				<text transform="matrix(1 0 0 1 271.9359 330.4578)" class="st6 st7 st8">1800</text>
			</g>
		</g>
		<g id="MTEXT_30_">
			<g>
				<rect x="189.5" y="254.23" class="st5" width="20.02" height="14.19"/>
				<text transform="matrix(1 0 0 1 189.4974 264.5252)" class="st6 st7 st8">300</text>
			</g>
		</g>
	</g>
	<g>
		<g id="LINE_45_">
			<g>
				<g>
					<line class="st9" x1="198.04" y1="84.49" x2="198.04" y2="76.4"/>
					<g>
						<polygon class="st6" points="200.21,83 198.04,91.13 195.86,83 						"/>
					</g>
				</g>
			</g>
		</g>
		<g id="LINE_46_">
			<g>
				<g>
					<line class="st9" x1="198.04" y1="105.51" x2="198.04" y2="113.59"/>
					<g>
						<polygon class="st6" points="195.86,106.99 198.04,98.86 200.21,106.99 						"/>
					</g>
				</g>
			</g>
		</g>
	</g>
	<g>
		<g id="LINE_43_">
			<line class="st9" x1="185.52" y1="91.13" x2="200.98" y2="91.13"/>
		</g>
		<g id="LINE_47_">
			<line class="st9" x1="198.04" y1="91.13" x2="198.04" y2="98.86"/>
		</g>
	</g>
	<g>
		<g id="LINE_48_">
			<line class="st9" x1="216.45" y1="73.09" x2="232.29" y2="73.09"/>
		</g>
		<g id="LINE_52_">
			<line class="st9" x1="216.45" y1="120.48" x2="232.29" y2="120.48"/>
		</g>
	</g>
	<g>
		<g>
			<g id="LINE_50_">
				<g>
					<g>
						<line class="st9" x1="229.34" y1="79.73" x2="229.34" y2="92.22"/>
						<g>
							<polygon class="st6" points="227.16,81.22 229.34,73.09 231.52,81.22 							"/>
						</g>
						<g>
							<polygon class="st6" points="227.16,90.73 229.34,98.86 231.52,90.73 							"/>
						</g>
					</g>
				</g>
			</g>
			<g id="LINE_53_">
				<g>
					<g>
						<line class="st9" x1="229.34" y1="105.51" x2="229.34" y2="113.91"/>
						<g>
							<polygon class="st6" points="227.16,106.99 229.34,98.86 231.52,106.99 							"/>
						</g>
						<g>
							<polygon class="st6" points="227.16,112.42 229.34,120.55 231.52,112.42 							"/>
						</g>
					</g>
				</g>
			</g>
			<g id="LINE_56_">
				<g id="LINE_9_">
					<g>
						<g>
							<g>
								<line class="st9" x1="251.95" y1="106" x2="251.95" y2="153.59"/>
								<g>
									<polygon class="st6" points="249.78,107.49 251.95,99.36 254.13,107.49 									"/>
								</g>
								<g>
									<polygon class="st6" points="249.78,152.1 251.95,160.23 254.13,152.1 									"/>
								</g>
							</g>
						</g>
					</g>
				</g>
			</g>
		</g>
		<g id="LINE_57_">
			<g>
				<g>
					<line class="st9" x1="251.95" y1="91.72" x2="251.95" y2="74.69"/>
					<g>
						<polygon class="st6" points="254.13,90.23 251.95,98.36 249.78,90.23 						"/>
					</g>
					<g>
						<polygon class="st6" points="254.13,76.18 251.95,68.05 249.78,76.18 						"/>
					</g>
				</g>
			</g>
		</g>
	</g>
	<g>
		<g id="LINE_60_">
			<g>
				<g>
					<line class="st9" x1="342.68" y1="143.91" x2="342.68" y2="136.69"/>
					<g>
						<polygon class="st6" points="344.86,142.42 342.68,150.55 340.51,142.42 						"/>
					</g>
				</g>
			</g>
		</g>
		<g id="LINE_61_">
			<g>
				<g>
					<line class="st9" x1="342.68" y1="167.44" x2="342.68" y2="174.46"/>
					<g>
						<polygon class="st6" points="340.51,168.93 342.68,160.8 344.86,168.93 						"/>
					</g>
				</g>
			</g>
		</g>
	</g>
	<g>
		<g id="LINE_58_">
			<line class="st9" x1="349.59" y1="150.42" x2="339.74" y2="150.42"/>
		</g>
		<g id="LINE_62_">
			<line class="st9" x1="342.68" y1="150.42" x2="342.68" y2="160.73"/>
		</g>
	</g>
	<g>
		<g id="LINE_65_">
			<g>
				<g>
					<line class="st9" x1="342.65" y1="79.73" x2="342.65" y2="87.3"/>
					<g>
						<polygon class="st6" points="340.48,81.22 342.65,73.09 344.83,81.22 						"/>
					</g>
				</g>
			</g>
		</g>
		<g id="LINE_66_">
			<g>
				<g>
					<line class="st9" x1="342.65" y1="60.4" x2="342.65" y2="53.2"/>
					<g>
						<polygon class="st6" points="344.83,58.92 342.65,67.05 340.48,58.92 						"/>
					</g>
				</g>
			</g>
		</g>
	</g>
	<g>
		<g id="LINE_63_">
			<line class="st9" x1="349.07" y1="72.57" x2="339.71" y2="72.57"/>
		</g>
		<g id="LINE_67_">
			<line class="st9" x1="342.65" y1="72.57" x2="342.65" y2="67.93"/>
		</g>
	</g>
	<g>
		<g id="LINE_70_">
			<g>
				<g>
					<line class="st9" x1="283.83" y1="79.22" x2="283.83" y2="87.3"/>
					<g>
						<polygon class="st6" points="281.65,80.7 283.83,72.57 286.01,80.7 						"/>
					</g>
				</g>
			</g>
		</g>
		<g id="LINE_71_">
			<g>
				<g>
					<line class="st9" x1="283.83" y1="60.4" x2="283.83" y2="53.2"/>
					<g>
						<polygon class="st6" points="286.01,58.92 283.83,67.05 281.65,58.92 						"/>
					</g>
				</g>
			</g>
		</g>
	</g>
	<g>
		<g id="MTEXT_1_">
			<g>
				<text transform="matrix(1 0 0 1 292.6595 96.4119)" class="st6 st7 st8">Outlet </text>
				<text transform="matrix(1 0 0 1 296.0472 108.6868)" class="st6 st7 st8">level</text>
			</g>
		</g>
		<g id="MTEXT_6_">
			<g>
				<text transform="matrix(0 -1 1 0 194.8861 114.0613)" class="st6 st7 st8">75</text>
			</g>
		</g>
		<g id="MTEXT_7_">
			<g>
				<text transform="matrix(0 -1 1 0 226.2679 94.4529)" class="st6 st7 st8">250</text>
			</g>
		</g>
		<g id="MTEXT_8_">
			<g>
				<text transform="matrix(0 -1 1 0 226.2679 119.6575)" class="st6 st7 st8">200</text>
			</g>
		</g>
		<g id="MTEXT_9_">
			<g>
				<text transform="matrix(0 -1 1 0 248.8822 138.3118)" class="st6 st7 st8">600</text>
			</g>
		</g>
		<g id="MTEXT_10_">
			<g>
				<text transform="matrix(0 -1 1 0 262.264 138.0609)" class="st6 st7 st8">min</text>
			</g>
		</g>
		<g id="MTEXT_11_">
			<g>
				<text transform="matrix(0 -1 1 0 248.8797 91.9393)" class="st6 st7 st8">300</text>
			</g>
		</g>
		<g id="MTEXT_12_">
			<g>
				<text transform="matrix(0 -1 1 0 262.264 91.6639)" class="st6 st7 st8">min</text>
			</g>
		</g>
		<g id="MTEXT_13_">
			<text transform="matrix(0 -1 1 0 337.0062 149.5501)" class="st7 st8">100</text>
		</g>
		<g id="MTEXT_14_">
			<g>
				<text transform="matrix(0 -1 1 0 339.1341 87.511)" class="st6 st7 st8">50</text>
			</g>
		</g>
		<g id="MTEXT_15_">
			<g>
				<text transform="matrix(0 -1 1 0 280.307 87.511)" class="st6 st7 st8">50</text>
			</g>
		</g>
	</g>
	<g>
		<g id="LINE_68_">
			<line class="st9" x1="290.25" y1="72.57" x2="280.88" y2="72.57"/>
		</g>
		<g id="LINE_72_">
			<line class="st9" x1="283.83" y1="72.57" x2="283.83" y2="67.93"/>
		</g>
	</g>
	<g id="LINE_79_">
		<g>
			<g>
				<line class="st9" x1="189.49" y1="333.53" x2="361.25" y2="333.53"/>
				<g>
					<polygon class="st6" points="190.98,335.71 182.85,333.53 190.98,331.35 					"/>
				</g>
				<g>
					<polygon class="st6" points="359.76,335.71 367.89,333.53 359.76,331.35 					"/>
				</g>
			</g>
		</g>
	</g>
	<g>
		<g>
			<g id="MTEXT_16_">
				<g>
					<text transform="matrix(1 0 0 1 58.0086 304.3797)" class="st6 st7 st8">100 Inlet pipe</text>
				</g>
			</g>
			<g id="MTEXT_17_">
				<g>
					<text transform="matrix(1 0 0 1 416.6234 304.4764)" class="st6 st7 st8">100 Outlet pipe</text>
				</g>
			</g>
		</g>
		<g id="MTEXT_23_">
			<g>
				<text transform="matrix(1 0 0 1 399.3656 235.2957)" class="st6 st7 st8">50 Vent (if required)</text>
			</g>
		</g>
	</g>
	<g>
		<g id="MTEXT_21_">
			<g>
				<text transform="matrix(1 0 0 1 260.0447 386.658)" class="st6 st10 st8">PLAN</text>
				<text transform="matrix(1 0 0 1 228.6971 399.0506)" class="st6 st10 st8">(Cover removed)</text>
			</g>
		</g>
		<g id="MTEXT_24_">
			<g>
				<text transform="matrix(1 0 0 1 237.6256 193.7327)" class="st6 st10 st8">SECTION A-A</text>
			</g>
		</g>
	</g>
	<g>
		<g id="MTEXT_22_">
			<g>
				<text transform="matrix(1 0 0 1 403.0589 36.0154)"><tspan x="0" y="0" class="st6 st7 st8">50 Vent (if airtight</tspan><tspan x="0" y="14.4" class="st6 st7 st8">covers are fitted)</tspan></text>
			</g>
		</g>
		<g id="MTEXT_25_">
			<g>
				<text transform="matrix(1 0 0 1 442.7376 103.9066)" class="st6 st7 st8">100 Outlet pipe</text>
			</g>
		</g>
		<g id="MTEXT_26_">
			<g>
				<text transform="matrix(1 0 0 1 399.3656 156.2913)"><tspan x="0" y="0" class="st6 st7 st8">100 minimum concrete</tspan><tspan x="0" y="14.4" class="st6 st7 st8">walls and base with</tspan><tspan x="0" y="28.8" class="st6 st7 st8">smooth internal finish,</tspan><tspan x="0" y="43.2" class="st6 st7 st8">with suitable reinforcing</tspan><tspan x="0" y="57.6" class="st6 st7 st8">mesh in concrete</tspan></text>
			</g>
		</g>
		<g id="MTEXT_27_">
			<g>
				<text transform="matrix(1 0 0 1 406.9915 75.5267)"><tspan x="0" y="0" class="st6 st7 st8">Outlet junction to be </tspan><tspan x="0" y="14.4" class="st6 st7 st8">of authorised material</tspan></text>
			</g>
		</g>
		<g id="MTEXT_28_">
			<g>
				<text transform="matrix(1 0 0 1 399.3659 119.672)"><tspan x="0" y="0" class="st6 st7 st8">Outlet to</tspan><tspan x="0" y="14.4" class="st6 st7 st8">disconnector gully</tspan></text>
			</g>
		</g>
	</g>
	<g>
		<g id="MTEXT_2_">
			<g>
				<text transform="matrix(1 0 0 1 28.2079 36.9754)"><tspan x="0" y="0" class="st6 st7 st8">Covers of a size to be readily</tspan><tspan x="0" y="14.4" class="st6 st7 st8">removable by one man</tspan></text>
			</g>
		</g>
		<g id="MTEXT_3_">
			<g>
				<text transform="matrix(1 0 0 1 27.7665 107.0384)"><tspan x="0" y="0" class="st6 st7 st8">Inlet drain to be of</tspan><tspan x="0" y="14.4" class="st6 st7 st8">authorised material</tspan></text>
			</g>
		</g>
		<g id="MTEXT_4_">
			<g>
				<text transform="matrix(1 0 0 1 28.3851 87.4479)" class="st6 st7 st8">100 Inlet pipe</text>
			</g>
		</g>
		<g id="MTEXT_5_">
			<g>
				<text transform="matrix(1 0 0 1 27.9281 142.6175)"><tspan x="0" y="0" class="st6 st7 st8">Permanently fixed rigid</tspan><tspan x="0" y="14.4" class="st6 st7 st8">baffle constructed of 6 mm</tspan><tspan x="0" y="28.8" class="st6 st7 st8">min mild steel plate or</tspan><tspan x="0" y="43.2" class="st6 st7 st8">other authorised material</tspan></text>
			</g>
		</g>
		<g id="MTEXT_29_">
			<g>
				<text transform="matrix(1 0 0 1 28.2376 212.804)" class="st6 st7 st8">75 Compacted packing sand</text>
			</g>
		</g>
	</g>
	<g>
		<g>
			<g id="LINE_75_">
				<g>
					<g>
						<line class="st9" x1="256.02" y1="257.97" x2="256.02" y2="329"/>
						<g>
							<polygon class="st6" points="253.84,259.46 256.02,251.33 258.19,259.46 							"/>
						</g>
					</g>
				</g>
			</g>
			<g id="LINE_76_">
				<g>
					<g>
						<line class="st9" x1="256.02" y1="339.05" x2="256.02" y2="346.76"/>
						<g>
							<polygon class="st6" points="253.84,345.27 256.02,353.4 258.19,345.27 							"/>
						</g>
					</g>
				</g>
			</g>
		</g>
		<g id="LINE_82_">
			<g>
				<g>
					<line class="st9" x1="189.92" y1="267.6" x2="206.16" y2="267.6"/>
					<g>
						<polygon class="st6" points="191.41,269.78 183.27,267.6 191.41,265.42 						"/>
					</g>
					<g>
						<polygon class="st6" points="204.68,269.78 212.81,267.6 204.68,265.42 						"/>
					</g>
				</g>
			</g>
		</g>
	</g>
	<g>
		<g>
			<g>
				<polyline class="st9" points="154.95,47.42 204.13,47.42 204.13,56.1 				"/>
				<g>
					<polygon class="st6" points="201.96,54.61 204.13,62.74 206.31,54.61 					"/>
				</g>
			</g>
		</g>
		<g>
			<g>
				<polyline class="st9" points="206.81,121.7 158.93,139.06 154.95,139.06 				"/>
				<g>
					<polygon class="st6" points="204.67,120.16 213.06,119.44 206.15,124.26 					"/>
				</g>
			</g>
		</g>
		<g>
			<g>
				<polyline class="st9" points="191.69,179.05 191.69,209.04 184.97,209.04 				"/>
				<g>
					<polygon class="st6" points="189.51,180.53 191.69,172.4 193.87,180.53 					"/>
				</g>
			</g>
		</g>
		<g>
			<g>
				<g>
					<line class="st9" x1="106.14" y1="84.96" x2="138.62" y2="84.96"/>
					<g>
						<polygon class="st6" points="137.13,87.14 145.26,84.96 137.13,82.78 						"/>
					</g>
				</g>
			</g>
		</g>
	</g>
	<g>
		<g>
			<g>
				<line class="st9" x1="378.93" y1="151.66" x2="395.81" y2="151.66"/>
				<g>
					<polygon class="st6" points="380.42,153.84 372.29,151.66 380.42,149.48 					"/>
				</g>
			</g>
		</g>
		<g>
			<g>
				<polyline class="st9" points="301.55,49.99 328.91,31.42 397.02,31.42 				"/>
				<g>
					<polygon class="st6" points="304,50.95 296.05,53.72 301.55,47.35 					"/>
				</g>
			</g>
		</g>
		<g>
			<g>
				<polyline class="st9" points="369.63,78.25 391,70.73 401.47,70.73 				"/>
				<g>
					<polygon class="st6" points="371.75,79.81 363.36,80.45 370.31,75.7 					"/>
				</g>
			</g>
		</g>
		<g>
			<g>
				<g>
					<polyline class="st9" points="414.89,95.89 427.21,99.77 439.74,99.77 					"/>
					<g>
						<polygon class="st6" points="415.65,98.42 408.55,93.9 416.96,94.26 						"/>
					</g>
				</g>
			</g>
		</g>
	</g>
	<g id="LINE_96_">
		<line class="st11" x1="290.62" y1="67.93" x2="290.62" y2="62.74"/>
	</g>
	<g id="LINE_95_">
		<line class="st11" x1="295.77" y1="67.93" x2="295.77" y2="62.74"/>
	</g>
	<g>
		<g>
			<g>
				<polyline class="st9" points="409.65,284.52 409.65,301.85 401.97,301.85 				"/>
				<g>
					<polygon class="st6" points="407.47,286.01 409.65,277.88 411.82,286.01 					"/>
				</g>
			</g>
		</g>
		<g>
			<g>
				<polyline class="st9" points="140.76,284.36 140.76,301.85 144.47,301.85 				"/>
				<g>
					<polygon class="st6" points="138.58,285.84 140.76,277.71 142.94,285.84 					"/>
				</g>
			</g>
		</g>
	</g>
	<g>
		<g>
			<line class="st9" x1="302.69" y1="231.57" x2="395.81" y2="231.57"/>
			<g>
				<polygon class="st6" points="304.18,233.75 296.05,231.57 304.18,229.39 				"/>
			</g>
		</g>
	</g>
	<g id="LINE_26_">
		<line class="st12" x1="290.62" y1="239.98" x2="290.62" y2="225.55"/>
	</g>
	<g id="LINE_28_">
		<line class="st12" x1="295.77" y1="239.98" x2="295.77" y2="225.55"/>
	</g>
	<g>
		<polyline class="st12" points="182.57,67.93 182.57,160.73 368.17,160.73 368.17,67.93 		"/>
		<g id="LINE_179_">
			<line class="st12" x1="182.57" y1="80.82" x2="151.3" y2="80.82"/>
		</g>
		<g id="LINE_178_">
			<line class="st12" x1="182.57" y1="91.13" x2="151.3" y2="91.13"/>
		</g>
		<path class="st12" d="M357.56,93.77c0.26-2.79,2.49-4.99,5.28-5.22h40.8"/>
		<polyline class="st12" points="172.26,80.82 172.26,62.74 378.48,62.74 378.48,171.04 172.26,171.04 172.26,91.13 		"/>
		<g id="LINE_173_">
			<line class="st12" x1="372.29" y1="65.34" x2="178.45" y2="65.34"/>
		</g>
		<g id="LINE_171_">
			<line class="st12" x1="365.6" y1="140.68" x2="372.17" y2="140.68"/>
		</g>
		<polyline class="st12" points="372.29,62.74 372.29,67.93 178.45,67.93 178.45,62.74 		"/>
		<path class="st12" d="M352.54,73.09v77.33h10.31v-46.4c0-2.85,2.31-5.16,5.16-5.16h35.64"/>
		<g id="LINE_161_">
			<line class="st12" x1="362.85" y1="88.55" x2="362.85" y2="73.09"/>
		</g>
		<g id="LINE_149_">
			<line class="st12" x1="213.51" y1="119.48" x2="213.51" y2="73.09"/>
		</g>
		<g id="LINE_11_">
			<line class="st12" x1="172.26" y1="64.34" x2="99.28" y2="64.34"/>
		</g>
		<g id="LINE_24_">
			<line class="st12" x1="378.48" y1="64.34" x2="451.46" y2="64.34"/>
		</g>
		<polyline class="st12" points="363.36,75.66 363.36,72.57 352.02,72.57 352.02,75.66 		"/>
		<g id="CIRCLE">
			<path class="st12" d="M290.62,75.15c0-1.42,1.15-2.58,2.58-2.58c1.42,0,2.58,1.15,2.58,2.58s-1.15,2.58-2.58,2.58
				C291.77,77.73,290.62,76.57,290.62,75.15L290.62,75.15z"/>
		</g>
		<g id="LWPOLYLINE_1_">
			<polyline class="st12" points="352.54,141.33 350.9,141.33 350.9,140.03 352.54,140.03 			"/>
		</g>
		<g id="LWPOLYLINE_2_">
			<polyline class="st12" points="362.85,140.03 365.6,140.03 365.6,141.33 362.85,141.33 			"/>
		</g>
		<g id="LINE_89_">
			<line class="st12" x1="290.62" y1="62.74" x2="290.62" y2="42.45"/>
		</g>
		<g id="LINE_90_">
			<line class="st12" x1="295.77" y1="62.74" x2="295.77" y2="42.45"/>
		</g>
		<g id="LINE_91_">
			<line class="st12" x1="290.62" y1="67.93" x2="290.62" y2="75.15"/>
		</g>
		<g id="LINE_92_">
			<line class="st12" x1="295.77" y1="67.93" x2="295.77" y2="75.15"/>
		</g>
	</g>
	<g>
		<g id="ELLIPSE_23_">
			<path class="st13" d="M151.3,80.82c-0.68,0-1.23,1.15-1.23,2.58c0,1.42,0.55,2.58,1.23,2.58"/>
		</g>
		<g id="ELLIPSE_22_">
			<path class="st13" d="M151.3,85.97c-0.68,0-1.23,1.15-1.23,2.58s0.55,2.58,1.23,2.58c0.68,0,1.23-1.15,1.23-2.58
				S151.98,85.97,151.3,85.97L151.3,85.97z"/>
		</g>
	</g>
	<g>
		<g id="ELLIPSE_21_">
			<path class="st13" d="M293.19,225.55c0-0.36-0.58-0.65-1.29-0.65s-1.29,0.29-1.29,0.65"/>
		</g>
		<g id="ELLIPSE_20_">
			<path class="st13" d="M293.19,225.55c0,0.36,0.58,0.65,1.29,0.65c0.71,0,1.29-0.29,1.29-0.65c0-0.36-0.58-0.65-1.29-0.65
				C293.77,224.9,293.19,225.19,293.19,225.55L293.19,225.55z"/>
		</g>
	</g>
	<g>
		<g id="ELLIPSE_19_">
			<path class="st13" d="M151.3,296.69c-0.68,0-1.23,1.15-1.23,2.58s0.55,2.58,1.23,2.58"/>
		</g>
		<g id="ELLIPSE_18_">
			<path class="st13" d="M151.3,301.85c-0.68,0-1.23,1.15-1.23,2.58c0,1.42,0.55,2.58,1.23,2.58c0.68,0,1.23-1.15,1.23-2.58
				C152.53,303,151.98,301.85,151.3,301.85L151.3,301.85z"/>
		</g>
	</g>
	<g>
		<g id="ELLIPSE_17_">
			<path class="st13" d="M399.44,296.69c0.68,0,1.23,1.15,1.23,2.58s-0.55,2.58-1.23,2.58"/>
		</g>
		<g id="ELLIPSE_16_">
			<path class="st13" d="M399.44,301.85c0.68,0,1.23,1.15,1.23,2.58c0,1.42-0.55,2.58-1.23,2.58c-0.68,0-1.23-1.15-1.23-2.58
				C398.21,303,398.76,301.85,399.44,301.85L399.44,301.85z"/>
		</g>
	</g>
	<g id="LINE_143_">
		<g id="LINE_3_">
			<g>
				<g>
					<g>
						<line class="st12" x1="145.26" y1="301.85" x2="147.76" y2="301.85"/>
						<line class="st14" x1="158.76" y1="301.85" x2="189.24" y2="301.85"/>
						<line class="st15" x1="194.74" y1="301.85" x2="397.15" y2="301.85"/>
						<line class="st12" x1="402.64" y1="301.85" x2="405.14" y2="301.85"/>
					</g>
				</g>
			</g>
		</g>
	</g>
	<g>
		<g id="ELLIPSE_15_">
			<path class="st13" d="M403.64,93.71c0.62,0,1.13-1.15,1.13-2.58c0-1.42-0.5-2.58-1.13-2.58"/>
		</g>
		<g id="ELLIPSE_14_">
			<path class="st13" d="M403.64,93.71c-0.62,0-1.13,1.15-1.13,2.58s0.5,2.58,1.13,2.58s1.13-1.15,1.13-2.58
				S404.27,93.71,403.64,93.71L403.64,93.71z"/>
		</g>
	</g>
	<g>
		<g id="ELLIPSE_13_">
			<path class="st13" d="M293.19,42.45c0-0.36-0.58-0.65-1.29-0.65s-1.29,0.29-1.29,0.65"/>
		</g>
		<g id="ELLIPSE_12_">
			<path class="st13" d="M293.19,42.45c0,0.36,0.58,0.65,1.29,0.65c0.71,0,1.29-0.29,1.29-0.65c0-0.36-0.58-0.65-1.29-0.65
				C293.77,41.8,293.19,42.09,293.19,42.45L293.19,42.45z"/>
		</g>
	</g>
	<g>
		<g>
			<g id="LWPOLYLINE_10_">
				<rect x="172.26" y="239.98" class="st12" width="206.21" height="123.73"/>
			</g>
			<g id="LWPOLYLINE_9_">
				<rect x="182.57" y="250.3" class="st12" width="185.59" height="103.11"/>
			</g>
			<g id="LWPOLYLINE_8_">
				<rect x="178.45" y="246.17" class="st12" width="193.84" height="111.35"/>
			</g>
		</g>
		<g id="LINE_170_">
			<line class="st12" x1="172.26" y1="296.69" x2="151.3" y2="296.69"/>
		</g>
		<g id="LINE_169_">
			<line class="st12" x1="172.26" y1="307" x2="151.3" y2="307"/>
		</g>
		<g id="LINE_168_">
			<g>
				<line class="st12" x1="378.48" y1="296.69" x2="399.44" y2="296.69"/>
			</g>
		</g>
		<g id="LINE_167_">
			<g>
				<line class="st12" x1="378.48" y1="307" x2="399.44" y2="307"/>
			</g>
		</g>
		<g id="LINE_150_">
			<line class="st12" x1="213.51" y1="353.4" x2="213.51" y2="250.3"/>
		</g>
		<g id="CIRCLE_2_">
			<g>
				<path class="st12" d="M352.02,301.85c0-3.13,2.54-5.67,5.67-5.67s5.67,2.54,5.67,5.67s-2.54,5.67-5.67,5.67
					S352.02,304.98,352.02,301.85L352.02,301.85z"/>
			</g>
		</g>
	</g>
	<g id="LINE_2_">
		<g id="LINE_8_">
			<g>
				<g>
					<g>
						<line class="st13" x1="182.57" y1="98.86" x2="185.57" y2="98.86"/>
						<line class="st16" x1="191.65" y1="98.86" x2="346.5" y2="98.86"/>
						<line class="st13" x1="349.54" y1="98.86" x2="352.54" y2="98.86"/>
					</g>
				</g>
			</g>
		</g>
	</g>
	<g id="LINE_22_">
		<line class="st11" x1="352.54" y1="140.03" x2="362.85" y2="140.03"/>
	</g>
	<g id="LINE_23_">
		<line class="st11" x1="352.54" y1="141.33" x2="362.85" y2="141.33"/>
	</g>
	<g id="LINE_25_">
		<line class="st11" x1="290.62" y1="250.33" x2="290.62" y2="239.98"/>
	</g>
	<g id="LINE_27_">
		<line class="st11" x1="295.77" y1="250.33" x2="295.77" y2="239.98"/>
	</g>
	<g id="LINE_33_">
		<g id="LINE_7_">
			<g>
				<g>
					<g>
						<line class="st13" x1="378.48" y1="296.69" x2="375.48" y2="296.69"/>
						<line class="st17" x1="371.14" y1="296.69" x2="364.64" y2="296.69"/>
						<line class="st13" x1="362.47" y1="296.69" x2="359.47" y2="296.69"/>
					</g>
				</g>
			</g>
		</g>
	</g>
	<g id="LINE_34_">
		<g id="LINE_6_">
			<g>
				<g>
					<g>
						<line class="st13" x1="378.48" y1="307" x2="375.48" y2="307"/>
						<line class="st17" x1="371.14" y1="307" x2="364.64" y2="307"/>
						<line class="st13" x1="362.47" y1="307" x2="359.47" y2="307"/>
					</g>
				</g>
			</g>
		</g>
	</g>
	<g id="LINE_39_">
		<g>
			<g>
				<line class="st13" x1="172.26" y1="80.82" x2="172.26" y2="82.82"/>
				<line class="st18" x1="172.26" y1="84.92" x2="172.26" y2="88.08"/>
				<line class="st13" x1="172.26" y1="89.13" x2="172.26" y2="91.13"/>
			</g>
		</g>
	</g>
	<g id="LINE_40_">
		<g>
			<g>
				<line class="st13" x1="172.26" y1="296.69" x2="175.26" y2="296.69"/>
				<line class="st13" x1="179.57" y1="296.69" x2="182.57" y2="296.69"/>
			</g>
		</g>
	</g>
	<g id="LINE_41_">
		<g>
			<g>
				<line class="st13" x1="172.26" y1="307" x2="175.26" y2="307"/>
				<line class="st13" x1="179.57" y1="307" x2="182.57" y2="307"/>
			</g>
		</g>
	</g>
</g>
<g id="_x31_5dashed">
</g>
</svg>
