<?xml version="1.0" encoding="utf-8"?>
<!-- Generator: Adobe Illustrator 26.3.1, SVG Export Plug-In . SVG Version: 6.00 Build 0)  -->
<svg version="1.1" id="TEXT_50" xmlns="http://www.w3.org/2000/svg" xmlns:xlink="http://www.w3.org/1999/xlink" x="0px" y="0px"
	 viewBox="0 0 552.76 397.69" style="enable-background:new 0 0 552.76 397.69;" xml:space="preserve">
<style type="text/css">
	.st0{fill:#C5C7C9;}
	.st1{fill:none;stroke:#231F20;stroke-width:0.25;stroke-linecap:round;stroke-miterlimit:10;}
	.st2{fill:#231F20;}
	.st3{font-family:'ArialMT';}
	.st4{font-size:12px;}
	.st5{font-family:'Arial-BoldMT';}
	.st6{fill:none;stroke:#000000;stroke-width:1.1603;stroke-linecap:round;stroke-linejoin:round;stroke-miterlimit:10;}
	.st7{font-size:11.2666px;}
	.st8{fill:none;stroke:#231F20;stroke-width:0.25;stroke-miterlimit:10;}
	.st9{fill:none;stroke:#231F20;stroke-width:0.75;stroke-miterlimit:10;stroke-dasharray:6.0521,6.0521;}
	.st10{fill:none;stroke:#231F20;stroke-width:0.75;stroke-miterlimit:10;}
	.st11{fill:none;stroke:#231F20;stroke-width:0.75;stroke-miterlimit:10;stroke-dasharray:3.5055,3.5055;}
	.st12{fill:none;stroke:#231F20;stroke-miterlimit:10;}
	.st13{fill:none;stroke:#231F20;stroke-miterlimit:10;stroke-dasharray:12.052,12.052;}
	.st14{fill:none;stroke:#231F20;stroke-miterlimit:10;stroke-dasharray:10.5953,10.5953;}
	.st15{fill:none;stroke:#231F20;stroke-miterlimit:10;stroke-dasharray:9.6968,1.9394;}
	.st16{fill:none;stroke:#231F20;stroke-miterlimit:10;stroke-dasharray:0.9697,1.9394,9.6968,1.9394;}
	.st17{fill:none;stroke:#231F20;stroke-miterlimit:10;stroke-dasharray:10.1501,2.03;}
	.st18{fill:none;stroke:#231F20;stroke-miterlimit:10;stroke-dasharray:1.015,2.03,10.1501,2.03;}
	.st19{fill:none;stroke:#231F20;stroke-linecap:round;stroke-miterlimit:10;}
	.st20{fill:none;stroke:#231F20;stroke-width:0.75;stroke-linecap:round;stroke-miterlimit:10;}
	.st21{fill:none;stroke:#231F20;stroke-width:0.75;stroke-miterlimit:10;stroke-dasharray:12.025,12.025;}
	.st22{fill:none;stroke:#000000;stroke-width:0;stroke-linecap:round;stroke-linejoin:round;stroke-miterlimit:10;}
	.st23{fill:none;stroke:#231F20;stroke-width:0.9581;stroke-miterlimit:10;}
</style>
<g>
	<path class="st0" d="M331.05,106.97v53.4h-90.84V98.44V75.31h-6.19v-0.62v-2.06c0,0,0.47-4.53-5.16-5.16c-5.63-0.63-9.29,0-9.29,0
		h-34.64v8.26l-2.84,1.03l5.67,2.06l-2.84,1.03v8.26h34.64v10.32v82.58h132.13V98.44c0,0-2.51-0.41-11.58,0
		C331.05,98.85,331.05,106.97,331.05,106.97z"/>
	<path class="st0" d="M368.41,70.62l2.84-1.03v-2.12h-19.56v0.02h-15.48c0,0-5.16-0.59-5.16,5.16c0,5.75,0,2.66,0,2.66v1.3l9.07-1.3
		h11.58h19.56v-1.6l2.84-1.03L368.41,70.62z"/>
</g>
<g id="Leader">
</g>
<g>
	<g>
		<g>
			<polyline class="st1" points="332.13,138.07 377.92,170.49 385.46,170.49 			"/>
			<g>
				<polygon class="st2" points="332.08,140.71 326.7,134.23 334.6,137.15 				"/>
			</g>
		</g>
	</g>
	<g>
		<g>
			<polyline class="st1" points="184.96,72.45 118.29,78.16 99.64,78.16 			"/>
			<g>
				<polygon class="st2" points="183.29,70.4 191.58,71.88 183.66,74.74 				"/>
			</g>
		</g>
	</g>
	<g>
		<g>
			<polyline class="st1" points="230.51,175.3 215.98,186.39 203.64,186.39 			"/>
			<g>
				<polygon class="st2" points="228.01,174.47 235.79,171.26 230.65,177.93 				"/>
			</g>
		</g>
	</g>
	<g>
		<g>
			<polyline class="st1" points="381.49,34.61 328.6,34.61 328.6,63.54 			"/>
			<g>
				<polygon class="st2" points="326.43,62.05 328.6,70.18 330.78,62.05 				"/>
			</g>
		</g>
	</g>
	<g>
		<g>
			<polyline class="st1" points="161.24,150.2 196.08,150.2 244.11,81.14 			"/>
			<g>
				<polygon class="st2" points="245.05,83.6 247.9,75.68 241.47,81.11 				"/>
			</g>
		</g>
	</g>
</g>
<g id="MTEXT">
	<g>
		<text transform="matrix(1 0 0 1 32.0165 80.9741)" class="st2 st3 st4">Paving slab</text>
	</g>
</g>
<g id="MTEXT_1_">
	<g>
		<text transform="matrix(1 0 0 1 32.0165 101.7925)" class="st2 st3 st4">Outlet level</text>
	</g>
</g>
<g>
	<g id="MTEXT_4_">
		<g>
			<text transform="matrix(1 0 0 1 249.2606 204.2558)" class="st2 st5 st4">SECTION A-A</text>
		</g>
	</g>
	<g id="MTEXT_5_">
		<g>
			<text transform="matrix(1 0 0 1 85.5804 354.5195)" class="st2 st5 st4">PIT PLAN</text>
			<text transform="matrix(1 0 0 1 32.0165 367.9414)" class="st2 st5 st4">(Bucket and grating removed)</text>
		</g>
	</g>
	<g id="MTEXT_6_">
		<g>
			<text transform="matrix(1 0 0 1 349.6732 368.4804)" class="st2 st5 st4">BUCKET DETAILS</text>
		</g>
	</g>
	<g id="MTEXT_7_">
		<g>
			<text transform="matrix(1 0 0 1 317.7464 349.2539)" class="st2 st5 st4">Plan</text>
		</g>
	</g>
	<g id="MTEXT_8_">
		<g>
			<text transform="matrix(1 0 0 1 442.4222 349.2539)" class="st2 st5 st4">Elevation</text>
		</g>
	</g>
</g>
<g id="LINE_116_">
	<path class="st6" d="M256.44,98.8"/>
</g>
<g id="LINE_117_">
	<g>
		<g>
			<line class="st1" x1="259.63" y1="153.84" x2="259.63" y2="104.7"/>
			<g>
				<polygon class="st2" points="261.81,152.35 259.63,160.49 257.45,152.35 				"/>
			</g>
			<g>
				<polygon class="st2" points="261.81,106.19 259.63,98.06 257.45,106.19 				"/>
			</g>
		</g>
	</g>
</g>
<g id="MTEXT_9_">
	<g>
		<text transform="matrix(0 -1 1 0 256.9896 145.7793)" class="st2 st3 st4">300</text>
		<text transform="matrix(0 -1 1 0 270.2845 146.9277)" class="st2 st3 st4">min.</text>
	</g>
</g>
<g id="LINE_119_">
	<line class="st1" x1="299.88" y1="139.61" x2="284.66" y2="139.61"/>
</g>
<g id="LINE_120_">
	<g>
		<g>
			<line class="st1" x1="291.85" y1="154.1" x2="291.85" y2="146.25"/>
			<g>
				<polygon class="st2" points="294.03,152.61 291.85,160.74 289.68,152.61 				"/>
			</g>
			<g>
				<polygon class="st2" points="294.03,147.74 291.85,139.61 289.68,147.74 				"/>
			</g>
		</g>
	</g>
</g>
<g id="TEXT">
	<g>
		<text transform="matrix(0 -1 1 0 287.2132 160.8105)" class="st2 st3 st4">100</text>
	</g>
</g>
<g id="TEXT_1_">
	<g>
		<text transform="matrix(0 -1 1 0 304.7152 159.7676)" class="st2 st3 st4">min.</text>
	</g>
</g>
<g id="LINE_124_">
	<g>
		<g>
			<line class="st1" x1="259.63" y1="91.12" x2="259.63" y2="74.52"/>
			<g>
				<polygon class="st2" points="261.81,89.64 259.63,97.77 257.45,89.64 				"/>
			</g>
			<g>
				<polygon class="st2" points="261.81,76 259.63,67.87 257.45,76 				"/>
			</g>
		</g>
	</g>
</g>
<polyline class="st1" points="259.63,67.84 259.63,58.26 269.2,58.26 "/>
<g id="MTEXT_10_">
	<g>
		<text transform="matrix(1 0 0 1 271.1947 62.2002)" class="st2 st3 st4">150</text>
	</g>
</g>
<g id="MTEXT_12_">
	<g>
		<text transform="matrix(0 -1 1 0 514.0345 299.0468)" class="st2 st3 st4">225</text>
	</g>
</g>
<g id="MTEXT_13_">
	<text transform="matrix(0 -1 1 0 274.1263 284.4082)" class="st3 st7">380</text>
</g>
<g id="MTEXT_14_">
	<g>
		<text transform="matrix(1 0 0 1 27.8895 267.2422)" class="st2 st3 st4">A</text>
	</g>
</g>
<g id="MTEXT_15_">
	<g>
		<text transform="matrix(1 0 0 1 230.7401 267.3066)" class="st2 st3 st4">A</text>
	</g>
</g>
<g id="MTEXT_17_">
	<g>
		<text transform="matrix(1 0 0 1 457.0247 325.541)" class="st2 st3 st4">240</text>
	</g>
</g>
<g id="MTEXT_18_">
	<g>
		<text transform="matrix(1 0 0 1 457.0238 255.209)" class="st2 st3 st4">290</text>
	</g>
</g>
<g id="MTEXT_19_">
	<g>
		<text transform="matrix(1 0 0 1 456.9535 239.8418)" class="st2 st3 st4">380</text>
	</g>
</g>
<g id="MTEXT_20_">
	<g>
		<text transform="matrix(1 0 0 1 377.7074 253.8515)"><tspan x="0" y="0" class="st2 st3 st4">25 x 10 </tspan><tspan x="0" y="14.4" class="st2 st3 st4">Handle</tspan></text>
	</g>
</g>
<g>
	<g id="LINE_130_">
		<g>
			<g>
				<line class="st8" x1="518.36" y1="273.24" x2="518.36" y2="306.41"/>
				<g>
					<polygon class="st2" points="516.18,274.73 518.36,266.6 520.54,274.73 					"/>
				</g>
				<g>
					<polygon class="st2" points="516.18,304.92 518.36,313.05 520.54,304.92 					"/>
				</g>
			</g>
		</g>
	</g>
	<g id="LINE_133_">
		<g>
			<g>
				<line class="st8" x1="277.46" y1="242.57" x2="277.46" y2="307.74"/>
				<g>
					<polygon class="st2" points="275.28,244.06 277.46,235.93 279.63,244.06 					"/>
				</g>
				<g>
					<polygon class="st2" points="275.28,306.25 277.46,314.38 279.63,306.25 					"/>
				</g>
			</g>
		</g>
	</g>
	<g id="LINE_136_">
		<g>
			<g>
				<line class="st8" x1="448.52" y1="328.87" x2="485.89" y2="328.87"/>
				<g>
					<polygon class="st2" points="450.01,331.05 441.88,328.87 450.01,326.69 					"/>
				</g>
				<g>
					<polygon class="st2" points="484.4,331.05 492.53,328.87 484.4,326.69 					"/>
				</g>
			</g>
		</g>
	</g>
	<g id="LINE_139_">
		<g>
			<g>
				<line class="st8" x1="443.91" y1="258.54" x2="490.5" y2="258.54"/>
				<g>
					<polygon class="st2" points="445.4,260.71 437.27,258.54 445.4,256.36 					"/>
				</g>
				<g>
					<polygon class="st2" points="489.01,260.71 497.14,258.54 489.01,256.36 					"/>
				</g>
			</g>
		</g>
	</g>
	<g id="LINE_142_">
		<g>
			<g>
				<line class="st8" x1="434.62" y1="243.17" x2="499.79" y2="243.17"/>
				<g>
					<polygon class="st2" points="436.11,245.35 427.98,243.17 436.11,240.99 					"/>
				</g>
				<g>
					<polygon class="st2" points="498.3,245.35 506.43,243.17 498.3,240.99 					"/>
				</g>
			</g>
		</g>
	</g>
	<g id="LINE_145_">
		<g>
			<g>
				<line class="st8" x1="296.95" y1="328.87" x2="362.12" y2="328.87"/>
				<g>
					<polygon class="st2" points="298.44,331.05 290.31,328.87 298.44,326.69 					"/>
				</g>
				<g>
					<polygon class="st2" points="360.63,331.05 368.76,328.87 360.63,326.69 					"/>
				</g>
			</g>
		</g>
	</g>
</g>
<g id="MTEXT_21_">
	<text transform="matrix(1 0 0 1 320.2835 325.5381)" class="st3 st7">380</text>
</g>
<g id="MTEXT_22_">
</g>
<g>
	<g id="CIRCLE_1_">
		<g id="CIRCLE_90_">
			<g>
				<g>
					<circle class="st9" cx="155.76" cy="275.15" r="11.56"/>
				</g>
			</g>
		</g>
	</g>
	<g id="LINE_36_">
		<g id="LINE_4_">
			<g>
				<g>
					<g>
						<line class="st10" x1="187.97" y1="263.59" x2="184.97" y2="263.59"/>
						<line class="st11" x1="181.46" y1="263.59" x2="176.21" y2="263.59"/>
						<line class="st10" x1="174.45" y1="263.59" x2="171.45" y2="263.59"/>
					</g>
				</g>
			</g>
		</g>
	</g>
	<g id="LINE_35_">
		<g id="LINE_3_">
			<g>
				<g>
					<g>
						<line class="st10" x1="187.97" y1="286.72" x2="184.97" y2="286.72"/>
						<line class="st11" x1="181.46" y1="286.72" x2="176.21" y2="286.72"/>
						<line class="st10" x1="174.45" y1="286.72" x2="171.45" y2="286.72"/>
					</g>
				</g>
			</g>
		</g>
	</g>
</g>
<g>
	<g>
		<polyline class="st12" points="181.97,311.29 187.97,311.29 187.97,305.29 		"/>
		<line class="st13" x1="187.97" y1="293.23" x2="187.97" y2="251.05"/>
		<polyline class="st12" points="187.97,245.02 187.97,239.02 181.97,239.02 		"/>
		<polyline class="st12" points="169.19,239.02 163.19,239.02 163.19,233.02 		"/>
		<polyline class="st12" points="163.19,227.48 163.19,221.48 157.19,221.48 		"/>
		<line class="st14" x1="146.6" y1="221.48" x2="67.13" y2="221.48"/>
		<polyline class="st12" points="61.84,221.48 55.84,221.48 55.84,227.48 		"/>
		<line class="st14" x1="55.84" y1="238.07" x2="55.84" y2="317.54"/>
		<polyline class="st12" points="55.84,322.83 55.84,328.83 61.84,328.83 		"/>
		<line class="st14" x1="72.43" y1="328.83" x2="151.9" y2="328.83"/>
		<polyline class="st12" points="157.19,328.83 163.19,328.83 163.19,322.83 		"/>
		<polyline class="st12" points="163.19,317.29 163.19,311.29 169.19,311.29 		"/>
	</g>
</g>
<g>
	<g>
		<line class="st12" x1="384.47" y1="87.24" x2="383.97" y2="87.24"/>
		<line class="st15" x1="382.03" y1="87.24" x2="371.36" y2="87.24"/>
		<path class="st16" d="M370.39,87.24h-30.28c-11.19,0-21.38,8.92-21.67,20.11v37.98"/>
		<line class="st12" x1="318.45" y1="146.3" x2="318.45" y2="146.8"/>
	</g>
</g>
<g id="LINE_69_">
	<g id="LINE_2_">
		<g>
			<g>
				<g>
					<line class="st12" x1="51.68" y1="275.15" x2="52.18" y2="275.15"/>
					<line class="st17" x1="54.21" y1="275.15" x2="65.37" y2="275.15"/>
					<line class="st18" x1="66.39" y1="275.15" x2="217.62" y2="275.15"/>
					<line class="st12" x1="218.64" y1="275.15" x2="219.14" y2="275.15"/>
				</g>
			</g>
		</g>
	</g>
</g>
<g>
	<g id="CIRCLE_45_">
		<path class="st10" d="M466.17,272.79c0-0.57,0.46-1.03,1.03-1.03c0.57,0,1.03,0.46,1.03,1.03c0,0.57-0.46,1.03-1.03,1.03
			C466.64,273.82,466.17,273.36,466.17,272.79L466.17,272.79z"/>
	</g>
	<g id="CIRCLE_44_">
		<path class="st10" d="M471.33,272.79c0-0.57,0.46-1.03,1.03-1.03c0.57,0,1.03,0.46,1.03,1.03c0,0.57-0.46,1.03-1.03,1.03
			C471.8,273.82,471.33,273.36,471.33,272.79L471.33,272.79z"/>
	</g>
	<g id="CIRCLE_43_">
		<path class="st10" d="M476.5,272.79c0-0.57,0.46-1.03,1.03-1.03c0.57,0,1.03,0.46,1.03,1.03c0,0.57-0.46,1.03-1.03,1.03
			C476.96,273.82,476.5,273.36,476.5,272.79L476.5,272.79z"/>
	</g>
	<g id="CIRCLE_42_">
		<path class="st10" d="M481.66,272.79c0-0.57,0.46-1.03,1.03-1.03c0.57,0,1.03,0.46,1.03,1.03c0,0.57-0.46,1.03-1.03,1.03
			C482.12,273.82,481.66,273.36,481.66,272.79L481.66,272.79z"/>
	</g>
	<g id="CIRCLE_41_">
		<path class="st10" d="M486.82,272.79c0-0.57,0.46-1.03,1.03-1.03s1.03,0.46,1.03,1.03c0,0.57-0.46,1.03-1.03,1.03
			S486.82,273.36,486.82,272.79L486.82,272.79z"/>
	</g>
	<g id="CIRCLE_40_">
		<path class="st10" d="M491.98,272.79c0-0.57,0.46-1.03,1.03-1.03s1.03,0.46,1.03,1.03c0,0.57-0.46,1.03-1.03,1.03
			S491.98,273.36,491.98,272.79L491.98,272.79z"/>
	</g>
	<g id="CIRCLE_39_">
		<path class="st10" d="M466.17,277.95c0-0.57,0.46-1.03,1.03-1.03c0.57,0,1.03,0.46,1.03,1.03s-0.46,1.03-1.03,1.03
			C466.64,278.98,466.17,278.52,466.17,277.95L466.17,277.95z"/>
	</g>
	<g id="CIRCLE_38_">
		<path class="st10" d="M471.33,277.95c0-0.57,0.46-1.03,1.03-1.03c0.57,0,1.03,0.46,1.03,1.03s-0.46,1.03-1.03,1.03
			C471.8,278.98,471.33,278.52,471.33,277.95L471.33,277.95z"/>
	</g>
	<g id="CIRCLE_37_">
		<path class="st10" d="M476.5,277.95c0-0.57,0.46-1.03,1.03-1.03c0.57,0,1.03,0.46,1.03,1.03s-0.46,1.03-1.03,1.03
			C476.96,278.98,476.5,278.52,476.5,277.95L476.5,277.95z"/>
	</g>
	<g id="CIRCLE_36_">
		<path class="st10" d="M481.66,277.95c0-0.57,0.46-1.03,1.03-1.03c0.57,0,1.03,0.46,1.03,1.03s-0.46,1.03-1.03,1.03
			C482.12,278.98,481.66,278.52,481.66,277.95L481.66,277.95z"/>
	</g>
	<g id="CIRCLE_35_">
		<path class="st10" d="M486.82,277.95c0-0.57,0.46-1.03,1.03-1.03s1.03,0.46,1.03,1.03s-0.46,1.03-1.03,1.03
			S486.82,278.52,486.82,277.95L486.82,277.95z"/>
	</g>
	<g id="CIRCLE_34_">
		<path class="st10" d="M491.98,277.95c0-0.57,0.46-1.03,1.03-1.03s1.03,0.46,1.03,1.03s-0.46,1.03-1.03,1.03
			S491.98,278.52,491.98,277.95L491.98,277.95z"/>
	</g>
	<g id="CIRCLE_33_">
		<path class="st10" d="M466.17,283.11c0-0.57,0.46-1.03,1.03-1.03c0.57,0,1.03,0.46,1.03,1.03c0,0.57-0.46,1.03-1.03,1.03
			C466.64,284.14,466.17,283.68,466.17,283.11L466.17,283.11z"/>
	</g>
	<g id="CIRCLE_32_">
		<path class="st10" d="M471.33,283.11c0-0.57,0.46-1.03,1.03-1.03c0.57,0,1.03,0.46,1.03,1.03c0,0.57-0.46,1.03-1.03,1.03
			C471.8,284.14,471.33,283.68,471.33,283.11L471.33,283.11z"/>
	</g>
	<g id="CIRCLE_31_">
		<path class="st10" d="M476.5,283.11c0-0.57,0.46-1.03,1.03-1.03c0.57,0,1.03,0.46,1.03,1.03c0,0.57-0.46,1.03-1.03,1.03
			C476.96,284.14,476.5,283.68,476.5,283.11L476.5,283.11z"/>
	</g>
	<g id="CIRCLE_30_">
		<path class="st10" d="M481.66,283.11c0-0.57,0.46-1.03,1.03-1.03c0.57,0,1.03,0.46,1.03,1.03c0,0.57-0.46,1.03-1.03,1.03
			C482.12,284.14,481.66,283.68,481.66,283.11L481.66,283.11z"/>
	</g>
	<g id="CIRCLE_29_">
		<path class="st10" d="M486.82,283.11c0-0.57,0.46-1.03,1.03-1.03s1.03,0.46,1.03,1.03c0,0.57-0.46,1.03-1.03,1.03
			S486.82,283.68,486.82,283.11L486.82,283.11z"/>
	</g>
	<g id="CIRCLE_28_">
		<path class="st10" d="M491.98,283.11c0-0.57,0.46-1.03,1.03-1.03s1.03,0.46,1.03,1.03c0,0.57-0.46,1.03-1.03,1.03
			S491.98,283.68,491.98,283.11L491.98,283.11z"/>
	</g>
	<g id="CIRCLE_27_">
		<path class="st10" d="M466.17,288.27c0-0.57,0.46-1.03,1.03-1.03c0.57,0,1.03,0.46,1.03,1.03s-0.46,1.03-1.03,1.03
			C466.64,289.3,466.17,288.84,466.17,288.27L466.17,288.27z"/>
	</g>
	<g id="CIRCLE_26_">
		<path class="st10" d="M471.33,288.27c0-0.57,0.46-1.03,1.03-1.03c0.57,0,1.03,0.46,1.03,1.03s-0.46,1.03-1.03,1.03
			C471.8,289.3,471.33,288.84,471.33,288.27L471.33,288.27z"/>
	</g>
	<g id="CIRCLE_25_">
		<path class="st10" d="M476.5,288.27c0-0.57,0.46-1.03,1.03-1.03c0.57,0,1.03,0.46,1.03,1.03s-0.46,1.03-1.03,1.03
			C476.96,289.3,476.5,288.84,476.5,288.27L476.5,288.27z"/>
	</g>
	<g id="CIRCLE_24_">
		<path class="st10" d="M481.66,288.27c0-0.57,0.46-1.03,1.03-1.03c0.57,0,1.03,0.46,1.03,1.03s-0.46,1.03-1.03,1.03
			C482.12,289.3,481.66,288.84,481.66,288.27L481.66,288.27z"/>
	</g>
	<g id="CIRCLE_23_">
		<path class="st10" d="M486.82,288.27c0-0.57,0.46-1.03,1.03-1.03s1.03,0.46,1.03,1.03s-0.46,1.03-1.03,1.03
			S486.82,288.84,486.82,288.27L486.82,288.27z"/>
	</g>
	<g id="CIRCLE_22_">
		<path class="st10" d="M491.98,288.27c0-0.57,0.46-1.03,1.03-1.03s1.03,0.46,1.03,1.03s-0.46,1.03-1.03,1.03
			S491.98,288.84,491.98,288.27L491.98,288.27z"/>
	</g>
	<g id="CIRCLE_21_">
		<path class="st10" d="M461.01,272.79c0-0.57,0.46-1.03,1.03-1.03s1.03,0.46,1.03,1.03c0,0.57-0.46,1.03-1.03,1.03
			S461.01,273.36,461.01,272.79L461.01,272.79z"/>
	</g>
	<g id="CIRCLE_20_">
		<path class="st10" d="M455.85,272.79c0-0.57,0.46-1.03,1.03-1.03c0.57,0,1.03,0.46,1.03,1.03c0,0.57-0.46,1.03-1.03,1.03
			C456.31,273.82,455.85,273.36,455.85,272.79L455.85,272.79z"/>
	</g>
	<g id="CIRCLE_19_">
		<path class="st10" d="M450.69,272.79c0-0.57,0.46-1.03,1.03-1.03s1.03,0.46,1.03,1.03c0,0.57-0.46,1.03-1.03,1.03
			S450.69,273.36,450.69,272.79L450.69,272.79z"/>
	</g>
	<g id="CIRCLE_18_">
		<path class="st10" d="M445.53,272.79c0-0.57,0.46-1.03,1.03-1.03c0.57,0,1.03,0.46,1.03,1.03c0,0.57-0.46,1.03-1.03,1.03
			C445.99,273.82,445.53,273.36,445.53,272.79L445.53,272.79z"/>
	</g>
	<g id="CIRCLE_17_">
		<path class="st10" d="M440.37,272.79c0-0.57,0.46-1.03,1.03-1.03s1.03,0.46,1.03,1.03c0,0.57-0.46,1.03-1.03,1.03
			S440.37,273.36,440.37,272.79L440.37,272.79z"/>
	</g>
	<g id="CIRCLE_16_">
		<path class="st10" d="M461.01,277.95c0-0.57,0.46-1.03,1.03-1.03s1.03,0.46,1.03,1.03s-0.46,1.03-1.03,1.03
			S461.01,278.52,461.01,277.95L461.01,277.95z"/>
	</g>
	<g id="CIRCLE_15_">
		<path class="st10" d="M455.85,277.95c0-0.57,0.46-1.03,1.03-1.03c0.57,0,1.03,0.46,1.03,1.03s-0.46,1.03-1.03,1.03
			C456.31,278.98,455.85,278.52,455.85,277.95L455.85,277.95z"/>
	</g>
	<g id="CIRCLE_14_">
		<path class="st10" d="M450.69,277.95c0-0.57,0.46-1.03,1.03-1.03s1.03,0.46,1.03,1.03s-0.46,1.03-1.03,1.03
			S450.69,278.52,450.69,277.95L450.69,277.95z"/>
	</g>
	<g id="CIRCLE_13_">
		<path class="st10" d="M445.53,277.95c0-0.57,0.46-1.03,1.03-1.03c0.57,0,1.03,0.46,1.03,1.03s-0.46,1.03-1.03,1.03
			C445.99,278.98,445.53,278.52,445.53,277.95L445.53,277.95z"/>
	</g>
	<g id="CIRCLE_12_">
		<path class="st10" d="M440.37,277.95c0-0.57,0.46-1.03,1.03-1.03s1.03,0.46,1.03,1.03s-0.46,1.03-1.03,1.03
			S440.37,278.52,440.37,277.95L440.37,277.95z"/>
	</g>
	<g id="CIRCLE_11_">
		<path class="st10" d="M461.01,283.11c0-0.57,0.46-1.03,1.03-1.03s1.03,0.46,1.03,1.03c0,0.57-0.46,1.03-1.03,1.03
			S461.01,283.68,461.01,283.11L461.01,283.11z"/>
	</g>
	<g id="CIRCLE_10_">
		<path class="st10" d="M455.85,283.11c0-0.57,0.46-1.03,1.03-1.03c0.57,0,1.03,0.46,1.03,1.03c0,0.57-0.46,1.03-1.03,1.03
			C456.31,284.14,455.85,283.68,455.85,283.11L455.85,283.11z"/>
	</g>
	<g id="CIRCLE_9_">
		<path class="st10" d="M450.69,283.11c0-0.57,0.46-1.03,1.03-1.03s1.03,0.46,1.03,1.03c0,0.57-0.46,1.03-1.03,1.03
			S450.69,283.68,450.69,283.11L450.69,283.11z"/>
	</g>
	<g id="CIRCLE_8_">
		<path class="st10" d="M445.53,283.11c0-0.57,0.46-1.03,1.03-1.03c0.57,0,1.03,0.46,1.03,1.03c0,0.57-0.46,1.03-1.03,1.03
			C445.99,284.14,445.53,283.68,445.53,283.11L445.53,283.11z"/>
	</g>
	<g id="CIRCLE_7_">
		<path class="st10" d="M440.37,283.11c0-0.57,0.46-1.03,1.03-1.03s1.03,0.46,1.03,1.03c0,0.57-0.46,1.03-1.03,1.03
			S440.37,283.68,440.37,283.11L440.37,283.11z"/>
	</g>
	<g id="CIRCLE_6_">
		<path class="st10" d="M461.01,288.27c0-0.57,0.46-1.03,1.03-1.03s1.03,0.46,1.03,1.03s-0.46,1.03-1.03,1.03
			S461.01,288.84,461.01,288.27L461.01,288.27z"/>
	</g>
	<g id="CIRCLE_5_">
		<path class="st10" d="M455.85,288.27c0-0.57,0.46-1.03,1.03-1.03c0.57,0,1.03,0.46,1.03,1.03s-0.46,1.03-1.03,1.03
			C456.31,289.3,455.85,288.84,455.85,288.27L455.85,288.27z"/>
	</g>
	<g id="CIRCLE_4_">
		<path class="st10" d="M450.69,288.27c0-0.57,0.46-1.03,1.03-1.03s1.03,0.46,1.03,1.03s-0.46,1.03-1.03,1.03
			S450.69,288.84,450.69,288.27L450.69,288.27z"/>
	</g>
	<g id="CIRCLE_3_">
		<path class="st10" d="M445.53,288.27c0-0.57,0.46-1.03,1.03-1.03c0.57,0,1.03,0.46,1.03,1.03s-0.46,1.03-1.03,1.03
			C445.99,289.3,445.53,288.84,445.53,288.27L445.53,288.27z"/>
	</g>
	<g id="CIRCLE_2_">
		<path class="st10" d="M440.37,288.27c0-0.57,0.46-1.03,1.03-1.03s1.03,0.46,1.03,1.03s-0.46,1.03-1.03,1.03
			S440.37,288.84,440.37,288.27L440.37,288.27z"/>
	</g>
</g>
<g>
	<g id="LINE_161_">
		<line class="st10" x1="299.88" y1="274.12" x2="359.19" y2="274.12"/>
	</g>
	<g id="LINE_160_">
		<line class="st10" x1="299.88" y1="276.19" x2="359.19" y2="276.19"/>
	</g>
</g>
<g>
	<g id="LINE_79_">
		<line class="st19" x1="290.31" y1="235.93" x2="368.76" y2="235.93"/>
	</g>
	<g id="LINE_80_">
		<line class="st19" x1="368.76" y1="235.93" x2="368.76" y2="314.38"/>
	</g>
	<g id="LINE_81_">
		<line class="st19" x1="368.76" y1="314.38" x2="290.31" y2="314.38"/>
	</g>
	<g id="LINE_82_">
		<line class="st19" x1="290.31" y1="314.38" x2="290.31" y2="235.93"/>
	</g>
	<g id="LINE_83_">
		<line class="st19" x1="299.6" y1="305.09" x2="299.6" y2="245.22"/>
	</g>
	<g id="LINE_84_">
		<line class="st19" x1="304.76" y1="299.93" x2="304.76" y2="276.19"/>
	</g>
	<g id="LINE_85_">
		<line class="st19" x1="304.76" y1="274.12" x2="304.76" y2="250.38"/>
	</g>
	<g id="LINE_86_">
		<line class="st19" x1="359.47" y1="245.22" x2="299.6" y2="245.22"/>
	</g>
	<g id="LINE_87_">
		<line class="st19" x1="354.31" y1="250.38" x2="304.76" y2="250.38"/>
	</g>
	<g id="LINE_88_">
		<line class="st19" x1="359.47" y1="305.09" x2="299.6" y2="305.09"/>
	</g>
	<g id="LINE_89_">
		<line class="st19" x1="354.31" y1="299.93" x2="304.76" y2="299.93"/>
	</g>
	<g id="LINE_90_">
		<line class="st19" x1="359.47" y1="305.09" x2="359.47" y2="245.22"/>
	</g>
	<g id="LINE_91_">
		<line class="st19" x1="354.31" y1="299.93" x2="354.31" y2="276.19"/>
	</g>
	<g id="LINE_92_">
		<line class="st19" x1="354.31" y1="274.12" x2="354.31" y2="250.38"/>
	</g>
	<g id="LINE_97_">
		<line class="st19" x1="304.76" y1="299.93" x2="299.6" y2="305.09"/>
	</g>
	<g id="LINE_98_">
		<line class="st19" x1="354.31" y1="299.93" x2="359.47" y2="305.09"/>
	</g>
	<g id="LINE_99_">
		<line class="st19" x1="304.76" y1="250.38" x2="299.6" y2="245.22"/>
	</g>
	<g id="LINE_100_">
		<line class="st19" x1="354.31" y1="250.38" x2="359.47" y2="245.22"/>
	</g>
</g>
<g id="LWPOLYLINE_1_">
	<polyline class="st20" points="184.92,67.84 184.92,76.09 182.08,77.13 187.76,79.19 184.92,80.22 184.92,88.48 	"/>
</g>
<g>
	<g id="ELLIPSE">
		<path class="st20" d="M377.68,87.24c-1.37,0-2.48,2.59-2.48,5.78c0,3.19,1.11,5.78,2.48,5.78c1.37,0,2.48-2.59,2.48-5.78
			C380.16,89.83,379.05,87.24,377.68,87.24L377.68,87.24z"/>
	</g>
	<g id="ELLIPSE_1_">
		<path class="st20" d="M377.68,87.24c1.37,0,2.48-2.59,2.48-5.78c0-3.19-1.11-5.78-2.48-5.78"/>
	</g>
</g>
<g id="LWPOLYLINE_2_">
	<polyline class="st20" points="371.25,67.84 371.25,69.95 368.41,70.98 374.09,73.05 371.25,74.08 371.25,75.68 	"/>
</g>
<g>
	<g id="ELLIPSE_2_">
		<path class="st20" d="M213.41,275.15c-1.37,0-2.48,2.59-2.48,5.78c0,3.19,1.11,5.78,2.48,5.78c1.37,0,2.48-2.59,2.48-5.78
			C215.89,277.74,214.78,275.15,213.41,275.15L213.41,275.15z"/>
	</g>
	<g id="ELLIPSE_3_">
		<path class="st20" d="M213.41,275.15c1.37,0,2.48-2.59,2.48-5.78c0-3.19-1.11-5.78-2.48-5.78"/>
	</g>
</g>
<g id="LINE">
	<g id="LINE_5_">
		<g>
			<g>
				<g>
					<line class="st10" x1="99.64" y1="98.8" x2="105.64" y2="98.8"/>
					<line class="st21" x1="117.66" y1="98.8" x2="328.1" y2="98.8"/>
					<line class="st10" x1="334.11" y1="98.8" x2="340.11" y2="98.8"/>
				</g>
			</g>
		</g>
	</g>
</g>
<g id="POINT">
	<line class="st22" x1="264.24" y1="160.74" x2="264.24" y2="160.74"/>
</g>
<g>
	<g id="CIRCLE_178_">
		<path class="st20" d="M272.21,81.25c0-0.57,0.46-1.03,1.03-1.03c0.57,0,1.03,0.46,1.03,1.03s-0.46,1.03-1.03,1.03
			C272.67,82.28,272.21,81.82,272.21,81.25L272.21,81.25z"/>
	</g>
	<g id="CIRCLE_88_">
		<path class="st20" d="M277.37,81.25c0-0.57,0.46-1.03,1.03-1.03s1.03,0.46,1.03,1.03s-0.46,1.03-1.03,1.03
			S277.37,81.82,277.37,81.25L277.37,81.25z"/>
	</g>
	<g id="CIRCLE_87_">
		<path class="st20" d="M282.53,81.25c0-0.57,0.46-1.03,1.03-1.03s1.03,0.46,1.03,1.03s-0.46,1.03-1.03,1.03
			S282.53,81.82,282.53,81.25L282.53,81.25z"/>
	</g>
	<g id="CIRCLE_86_">
		<path class="st20" d="M287.69,81.25c0-0.57,0.46-1.03,1.03-1.03c0.57,0,1.03,0.46,1.03,1.03s-0.46,1.03-1.03,1.03
			C288.15,82.28,287.69,81.82,287.69,81.25L287.69,81.25z"/>
	</g>
	<g id="CIRCLE_85_">
		<path class="st20" d="M292.85,81.25c0-0.57,0.46-1.03,1.03-1.03s1.03,0.46,1.03,1.03s-0.46,1.03-1.03,1.03
			S292.85,81.82,292.85,81.25L292.85,81.25z"/>
	</g>
	<g id="CIRCLE_84_">
		<path class="st20" d="M298.01,81.25c0-0.57,0.46-1.03,1.03-1.03s1.03,0.46,1.03,1.03s-0.46,1.03-1.03,1.03
			S298.01,81.82,298.01,81.25L298.01,81.25z"/>
	</g>
	<g id="CIRCLE_83_">
		<path class="st20" d="M272.21,86.41c0-0.57,0.46-1.03,1.03-1.03c0.57,0,1.03,0.46,1.03,1.03s-0.46,1.03-1.03,1.03
			C272.67,87.45,272.21,86.98,272.21,86.41L272.21,86.41z"/>
	</g>
	<g id="CIRCLE_82_">
		<path class="st20" d="M277.37,86.41c0-0.57,0.46-1.03,1.03-1.03s1.03,0.46,1.03,1.03s-0.46,1.03-1.03,1.03
			S277.37,86.98,277.37,86.41L277.37,86.41z"/>
	</g>
	<g id="CIRCLE_81_">
		<path class="st20" d="M282.53,86.41c0-0.57,0.46-1.03,1.03-1.03s1.03,0.46,1.03,1.03s-0.46,1.03-1.03,1.03
			S282.53,86.98,282.53,86.41L282.53,86.41z"/>
	</g>
	<g id="CIRCLE_80_">
		<path class="st20" d="M287.69,86.41c0-0.57,0.46-1.03,1.03-1.03c0.57,0,1.03,0.46,1.03,1.03s-0.46,1.03-1.03,1.03
			C288.15,87.45,287.69,86.98,287.69,86.41L287.69,86.41z"/>
	</g>
	<g id="CIRCLE_79_">
		<path class="st20" d="M292.85,86.41c0-0.57,0.46-1.03,1.03-1.03s1.03,0.46,1.03,1.03s-0.46,1.03-1.03,1.03
			S292.85,86.98,292.85,86.41L292.85,86.41z"/>
	</g>
	<g id="CIRCLE_78_">
		<path class="st20" d="M298.01,86.41c0-0.57,0.46-1.03,1.03-1.03s1.03,0.46,1.03,1.03s-0.46,1.03-1.03,1.03
			S298.01,86.98,298.01,86.41L298.01,86.41z"/>
	</g>
	<g id="CIRCLE_77_">
		<path class="st20" d="M272.21,91.57c0-0.57,0.46-1.03,1.03-1.03c0.57,0,1.03,0.46,1.03,1.03c0,0.57-0.46,1.03-1.03,1.03
			C272.67,92.61,272.21,92.14,272.21,91.57L272.21,91.57z"/>
	</g>
	<g id="CIRCLE_76_">
		<path class="st20" d="M277.37,91.57c0-0.57,0.46-1.03,1.03-1.03s1.03,0.46,1.03,1.03c0,0.57-0.46,1.03-1.03,1.03
			S277.37,92.14,277.37,91.57L277.37,91.57z"/>
	</g>
	<g id="CIRCLE_75_">
		<path class="st20" d="M282.53,91.57c0-0.57,0.46-1.03,1.03-1.03s1.03,0.46,1.03,1.03c0,0.57-0.46,1.03-1.03,1.03
			S282.53,92.14,282.53,91.57L282.53,91.57z"/>
	</g>
	<g id="CIRCLE_74_">
		<path class="st20" d="M287.69,91.57c0-0.57,0.46-1.03,1.03-1.03c0.57,0,1.03,0.46,1.03,1.03c0,0.57-0.46,1.03-1.03,1.03
			C288.15,92.61,287.69,92.14,287.69,91.57L287.69,91.57z"/>
	</g>
	<g id="CIRCLE_73_">
		<path class="st20" d="M292.85,91.57c0-0.57,0.46-1.03,1.03-1.03s1.03,0.46,1.03,1.03c0,0.57-0.46,1.03-1.03,1.03
			S292.85,92.14,292.85,91.57L292.85,91.57z"/>
	</g>
	<g id="CIRCLE_72_">
		<path class="st20" d="M298.01,91.57c0-0.57,0.46-1.03,1.03-1.03s1.03,0.46,1.03,1.03c0,0.57-0.46,1.03-1.03,1.03
			S298.01,92.14,298.01,91.57L298.01,91.57z"/>
	</g>
	<g id="CIRCLE_71_">
		<path class="st20" d="M272.21,96.74c0-0.57,0.46-1.03,1.03-1.03c0.57,0,1.03,0.46,1.03,1.03s-0.46,1.03-1.03,1.03
			C272.67,97.77,272.21,97.31,272.21,96.74L272.21,96.74z"/>
	</g>
	<g id="CIRCLE_70_">
		<path class="st20" d="M277.37,96.74c0-0.57,0.46-1.03,1.03-1.03s1.03,0.46,1.03,1.03s-0.46,1.03-1.03,1.03
			S277.37,97.31,277.37,96.74L277.37,96.74z"/>
	</g>
	<g id="CIRCLE_69_">
		<path class="st20" d="M282.53,96.74c0-0.57,0.46-1.03,1.03-1.03s1.03,0.46,1.03,1.03s-0.46,1.03-1.03,1.03
			S282.53,97.31,282.53,96.74L282.53,96.74z"/>
	</g>
	<g id="CIRCLE_68_">
		<path class="st20" d="M287.69,96.74c0-0.57,0.46-1.03,1.03-1.03c0.57,0,1.03,0.46,1.03,1.03s-0.46,1.03-1.03,1.03
			C288.15,97.77,287.69,97.31,287.69,96.74L287.69,96.74z"/>
	</g>
	<g id="CIRCLE_67_">
		<path class="st20" d="M292.85,96.74c0-0.57,0.46-1.03,1.03-1.03s1.03,0.46,1.03,1.03s-0.46,1.03-1.03,1.03
			S292.85,97.31,292.85,96.74L292.85,96.74z"/>
	</g>
	<g id="CIRCLE_66_">
		<path class="st20" d="M298.01,96.74c0-0.57,0.46-1.03,1.03-1.03s1.03,0.46,1.03,1.03s-0.46,1.03-1.03,1.03
			S298.01,97.31,298.01,96.74L298.01,96.74z"/>
	</g>
	<g id="CIRCLE_65_">
		<path class="st20" d="M267.04,81.25c0-0.57,0.46-1.03,1.03-1.03s1.03,0.46,1.03,1.03s-0.46,1.03-1.03,1.03
			S267.04,81.82,267.04,81.25L267.04,81.25z"/>
	</g>
	<g id="CIRCLE_64_">
		<path class="st20" d="M261.88,81.25c0-0.57,0.46-1.03,1.03-1.03s1.03,0.46,1.03,1.03s-0.46,1.03-1.03,1.03
			S261.88,81.82,261.88,81.25L261.88,81.25z"/>
	</g>
	<g id="CIRCLE_63_">
		<path class="st20" d="M256.72,81.25c0-0.57,0.46-1.03,1.03-1.03c0.57,0,1.03,0.46,1.03,1.03s-0.46,1.03-1.03,1.03
			C257.18,82.28,256.72,81.82,256.72,81.25L256.72,81.25z"/>
	</g>
	<g id="CIRCLE_62_">
		<path class="st20" d="M251.56,81.25c0-0.57,0.46-1.03,1.03-1.03s1.03,0.46,1.03,1.03s-0.46,1.03-1.03,1.03
			S251.56,81.82,251.56,81.25L251.56,81.25z"/>
	</g>
	<g id="CIRCLE_61_">
		<path class="st20" d="M246.4,81.25c0-0.57,0.46-1.03,1.03-1.03c0.57,0,1.03,0.46,1.03,1.03s-0.46,1.03-1.03,1.03
			C246.86,82.28,246.4,81.82,246.4,81.25L246.4,81.25z"/>
	</g>
	<g id="CIRCLE_60_">
		<path class="st20" d="M267.04,86.41c0-0.57,0.46-1.03,1.03-1.03s1.03,0.46,1.03,1.03s-0.46,1.03-1.03,1.03
			S267.04,86.98,267.04,86.41L267.04,86.41z"/>
	</g>
	<g id="CIRCLE_59_">
		<path class="st20" d="M261.88,86.41c0-0.57,0.46-1.03,1.03-1.03s1.03,0.46,1.03,1.03s-0.46,1.03-1.03,1.03
			S261.88,86.98,261.88,86.41L261.88,86.41z"/>
	</g>
	<g id="CIRCLE_58_">
		<path class="st20" d="M256.72,86.41c0-0.57,0.46-1.03,1.03-1.03c0.57,0,1.03,0.46,1.03,1.03s-0.46,1.03-1.03,1.03
			C257.18,87.45,256.72,86.98,256.72,86.41L256.72,86.41z"/>
	</g>
	<g id="CIRCLE_57_">
		<path class="st20" d="M251.56,86.41c0-0.57,0.46-1.03,1.03-1.03s1.03,0.46,1.03,1.03s-0.46,1.03-1.03,1.03
			S251.56,86.98,251.56,86.41L251.56,86.41z"/>
	</g>
	<g id="CIRCLE_56_">
		<path class="st20" d="M246.4,86.41c0-0.57,0.46-1.03,1.03-1.03c0.57,0,1.03,0.46,1.03,1.03s-0.46,1.03-1.03,1.03
			C246.86,87.45,246.4,86.98,246.4,86.41L246.4,86.41z"/>
	</g>
	<g id="CIRCLE_55_">
		<path class="st20" d="M267.04,91.57c0-0.57,0.46-1.03,1.03-1.03s1.03,0.46,1.03,1.03c0,0.57-0.46,1.03-1.03,1.03
			S267.04,92.14,267.04,91.57L267.04,91.57z"/>
	</g>
	<g id="CIRCLE_54_">
		<path class="st20" d="M261.88,91.57c0-0.57,0.46-1.03,1.03-1.03s1.03,0.46,1.03,1.03c0,0.57-0.46,1.03-1.03,1.03
			S261.88,92.14,261.88,91.57L261.88,91.57z"/>
	</g>
	<g id="CIRCLE_53_">
		<path class="st20" d="M256.72,91.57c0-0.57,0.46-1.03,1.03-1.03c0.57,0,1.03,0.46,1.03,1.03c0,0.57-0.46,1.03-1.03,1.03
			C257.18,92.61,256.72,92.14,256.72,91.57L256.72,91.57z"/>
	</g>
	<g id="CIRCLE_52_">
		<path class="st20" d="M251.56,91.57c0-0.57,0.46-1.03,1.03-1.03s1.03,0.46,1.03,1.03c0,0.57-0.46,1.03-1.03,1.03
			S251.56,92.14,251.56,91.57L251.56,91.57z"/>
	</g>
	<g id="CIRCLE_51_">
		<path class="st20" d="M246.4,91.57c0-0.57,0.46-1.03,1.03-1.03c0.57,0,1.03,0.46,1.03,1.03c0,0.57-0.46,1.03-1.03,1.03
			C246.86,92.61,246.4,92.14,246.4,91.57L246.4,91.57z"/>
	</g>
	<g id="CIRCLE_50_">
		<path class="st20" d="M267.04,96.74c0-0.57,0.46-1.03,1.03-1.03s1.03,0.46,1.03,1.03s-0.46,1.03-1.03,1.03
			S267.04,97.31,267.04,96.74L267.04,96.74z"/>
	</g>
	<g id="CIRCLE_49_">
		<path class="st20" d="M261.88,96.74c0-0.57,0.46-1.03,1.03-1.03s1.03,0.46,1.03,1.03s-0.46,1.03-1.03,1.03
			S261.88,97.31,261.88,96.74L261.88,96.74z"/>
	</g>
	<g id="CIRCLE_48_">
		<path class="st20" d="M256.72,96.74c0-0.57,0.46-1.03,1.03-1.03c0.57,0,1.03,0.46,1.03,1.03s-0.46,1.03-1.03,1.03
			C257.18,97.77,256.72,97.31,256.72,96.74L256.72,96.74z"/>
	</g>
	<g id="CIRCLE_47_">
		<path class="st20" d="M251.56,96.74c0-0.57,0.46-1.03,1.03-1.03s1.03,0.46,1.03,1.03s-0.46,1.03-1.03,1.03
			S251.56,97.31,251.56,96.74L251.56,96.74z"/>
	</g>
	<g id="CIRCLE_46_">
		<path class="st20" d="M246.4,96.74c0-0.57,0.46-1.03,1.03-1.03c0.57,0,1.03,0.46,1.03,1.03s-0.46,1.03-1.03,1.03
			C246.86,97.77,246.4,97.31,246.4,96.74L246.4,96.74z"/>
	</g>
	<g id="LINE_73_">
		<path class="st20" d="M256.44,98.8"/>
	</g>
</g>
<g id="POINT_3_">
	<line class="st22" x1="506.43" y1="266.6" x2="506.43" y2="266.6"/>
</g>
<g id="POINT_5_">
	<line class="st22" x1="518.36" y1="313.05" x2="518.36" y2="313.05"/>
</g>
<g id="POINT_6_">
	<line class="st22" x1="290.31" y1="235.93" x2="290.31" y2="235.93"/>
</g>
<g id="POINT_7_">
	<line class="st22" x1="290.31" y1="314.38" x2="290.31" y2="314.38"/>
</g>
<g id="POINT_8_">
	<line class="st22" x1="277.46" y1="314.38" x2="277.46" y2="314.38"/>
</g>
<g>
	<g id="LINE_158_">
		<line class="st6" x1="492.53" y1="313.05" x2="441.88" y2="313.05"/>
	</g>
	<g id="LINE_157_">
		<line class="st12" x1="436.71" y1="267.22" x2="441.88" y2="313.05"/>
	</g>
	<g id="LINE_152_">
		<line class="st12" x1="497.7" y1="267.22" x2="492.53" y2="313.05"/>
	</g>
	<g id="LINE_147_">
		<line class="st12" x1="427.98" y1="266.6" x2="506.43" y2="266.6"/>
	</g>
	<g id="POINT_4_">
		<line class="st22" x1="492.53" y1="313.05" x2="492.53" y2="313.05"/>
	</g>
	<g id="POINT_9_">
		<line class="st22" x1="441.88" y1="313.05" x2="441.88" y2="313.05"/>
	</g>
	<g id="POINT_10_">
		<line class="st22" x1="492.53" y1="313.05" x2="492.53" y2="313.05"/>
	</g>
</g>
<g id="POINT_11_">
	<line class="st22" x1="492.53" y1="328.87" x2="492.53" y2="328.87"/>
</g>
<g id="POINT_12_">
	<line class="st22" x1="437.27" y1="266.6" x2="437.27" y2="266.6"/>
</g>
<g id="POINT_13_">
	<line class="st22" x1="497.14" y1="266.6" x2="497.14" y2="266.6"/>
</g>
<g>
	<g id="LINE_128_">
		<line class="st8" x1="509.62" y1="266.6" x2="521.55" y2="266.6"/>
	</g>
	<g id="LINE_129_">
		<line class="st8" x1="495.73" y1="313.05" x2="521.55" y2="313.05"/>
	</g>
	<g id="LINE_131_">
		<line class="st8" x1="287.12" y1="235.93" x2="274.26" y2="235.93"/>
	</g>
	<g id="LINE_132_">
		<line class="st8" x1="287.12" y1="314.38" x2="274.26" y2="314.38"/>
	</g>
	<g id="LINE_134_">
		<line class="st8" x1="441.88" y1="316.24" x2="441.88" y2="332.06"/>
	</g>
	<g id="LINE_135_">
		<line class="st8" x1="492.53" y1="316.24" x2="492.53" y2="332.06"/>
	</g>
	<g id="LINE_137_">
		<line class="st8" x1="437.27" y1="263.41" x2="437.27" y2="255.35"/>
	</g>
	<g id="LINE_138_">
		<line class="st8" x1="497.14" y1="263.41" x2="497.14" y2="255.35"/>
	</g>
	<g id="LINE_140_">
		<line class="st8" x1="427.98" y1="263.41" x2="427.98" y2="239.98"/>
	</g>
	<g id="LINE_141_">
		<line class="st8" x1="506.43" y1="263.41" x2="506.43" y2="239.98"/>
	</g>
	<g id="LINE_143_">
		<line class="st8" x1="290.31" y1="317.57" x2="290.31" y2="332.06"/>
	</g>
	<g id="LINE_144_">
		<line class="st8" x1="368.76" y1="317.57" x2="368.76" y2="332.06"/>
	</g>
	<g id="POINT_14_">
		<line class="st8" x1="497.14" y1="258.54" x2="497.14" y2="258.54"/>
	</g>
</g>
<g id="POINT_17_">
	<line class="st22" x1="506.43" y1="243.17" x2="506.43" y2="243.17"/>
</g>
<g id="POINT_18_">
	<line class="st22" x1="290.31" y1="314.38" x2="290.31" y2="314.38"/>
</g>
<g id="POINT_19_">
	<line class="st22" x1="368.76" y1="314.38" x2="368.76" y2="314.38"/>
</g>
<g id="POINT_20_">
	<line class="st22" x1="368.76" y1="328.87" x2="368.76" y2="328.87"/>
</g>
<g id="MTEXT_27_">
	<g>
		<text transform="matrix(1 0 0 1 389.9707 91.575)" class="st2 st3 st4">Outlet</text>
	</g>
</g>
<g id="MTEXT_24_">
	<g>
		<text transform="matrix(1 0 0 1 393.3676 118.8127)"><tspan x="0" y="0" class="st2 st3 st4">Outlet to: </tspan><tspan x="0" y="14.4" class="st2 st3 st4">• trade waste appliance </tspan><tspan x="0" y="28.8" class="st2 st3 st4">• disconnector gully</tspan></text>
	</g>
</g>
<g id="MTEXT_25_">
	<g>
		<text transform="matrix(1 0 0 1 391.6108 174.5241)"><tspan x="0" y="0" class="st2 st3 st4">100 x 88.5° cast iron</tspan><tspan x="0" y="14.4" class="st2 st3 st4">bend with large</tspan><tspan x="0" y="28.8" class="st2 st3 st4">inspection opening</tspan></text>
	</g>
</g>
<g id="MTEXT_26_">
	<g>
		<g>
			<text transform="matrix(1 0 0 1 385.4583 39.1686)"><tspan x="0" y="0" class="st2 st3 st4">10 mm min. thick </tspan><tspan x="0" y="14.4" class="st2 st3 st4">unperforated plate section </tspan><tspan x="0" y="28.8" class="st2 st3 st4">over inspection opening</tspan></text>
		</g>
	</g>
</g>
<g id="LWPOLYLINE_10_">
	<g>
		<rect x="388.77" y="104.01" class="st23" width="135.63" height="51.75"/>
	</g>
</g>
<g id="MTEXT_11_">
	<g>
		<text transform="matrix(1 0 0 1 32.0163 176.1516)"><tspan x="0" y="0" class="st2 st3 st4">100 mm concrete walls and</tspan><tspan x="0" y="14.4" class="st2 st3 st4">base with smooth internal finish</tspan></text>
	</g>
</g>
<g id="MTEXT_3_">
	<g>
		<g>
			<text transform="matrix(1 0 0 1 32.0163 125.2433)"><tspan x="0" y="0" class="st2 st3 st4">10 mm min. thick perforated</tspan><tspan x="0" y="14.4" class="st2 st3 st4">steel plate with 12 mm dia. </tspan><tspan x="0" y="28.8" class="st2 st3 st4">holes at 25 mm centres</tspan></text>
		</g>
	</g>
</g>
<g>
	<g>
		<polyline class="st8" points="374.81,249.9 371.65,249.9 352.31,266.77 		"/>
		<g>
			<polygon class="st2" points="352,264.15 347.31,271.14 354.87,267.43 			"/>
		</g>
	</g>
</g>
<g>
	<g>
		<g>
			<polyline class="st8" points="216.01,275.15 225.76,275.15 225.76,262.2 			"/>
			<g>
				<polygon class="st2" points="227.94,263.68 225.76,255.55 223.58,263.68 				"/>
			</g>
		</g>
	</g>
	<g>
		<g>
			<polyline class="st8" points="50.81,275.15 41.92,275.15 41.92,262.2 			"/>
			<g>
				<polygon class="st2" points="44.1,263.68 41.92,255.55 39.75,263.68 				"/>
			</g>
		</g>
	</g>
</g>
<g>
	<g id="LINE_51_">
		<line class="st19" x1="152.31" y1="263.59" x2="167.32" y2="263.59"/>
	</g>
	<g id="LINE_50_">
		<line class="st19" x1="187.97" y1="263.59" x2="213.96" y2="263.59"/>
	</g>
	<g id="LINE_49_">
		<line class="st19" x1="152.31" y1="286.72" x2="167.32" y2="286.72"/>
	</g>
	<g id="LINE_48_">
		<line class="st19" x1="187.97" y1="286.72" x2="213.96" y2="286.72"/>
	</g>
	<g>
		<g id="ELLIPSE_4_">
			<path class="st19" d="M151.31,286.72c4.66,0,8.43-5.18,8.43-11.56c0-6.39-3.77-11.56-8.43-11.56c-4.66,0-8.43,5.18-8.43,11.56
				C142.88,281.54,146.65,286.72,151.31,286.72L151.31,286.72z"/>
		</g>
		<g id="ELLIPSE_5_">
			<path class="st19" d="M153.47,286.72c4.66,0,8.43-5.18,8.43-11.56c0-6.39-3.77-11.56-8.43-11.56"/>
		</g>
	</g>
	<g id="LINE_213_">
		<line class="st19" x1="76.48" y1="242.12" x2="142.55" y2="242.12"/>
	</g>
	<g id="LINE_212_">
		<line class="st19" x1="142.55" y1="242.12" x2="142.55" y2="259.67"/>
	</g>
	<g id="LINE_211_">
		<line class="st19" x1="142.55" y1="290.64" x2="142.55" y2="308.19"/>
	</g>
	<g id="LINE_209_">
		<line class="st19" x1="148.74" y1="290.64" x2="148.74" y2="314.38"/>
	</g>
	<g id="LINE_208_">
		<line class="st19" x1="142.55" y1="308.19" x2="76.48" y2="308.19"/>
	</g>
	<g id="LINE_207_">
		<line class="st19" x1="76.48" y1="308.19" x2="76.48" y2="242.12"/>
	</g>
	<g id="LINE_206_">
		<line class="st19" x1="167.32" y1="290.64" x2="167.32" y2="259.67"/>
	</g>
	<g id="LINE_204_">
		<line class="st19" x1="171.45" y1="294.77" x2="171.45" y2="255.54"/>
	</g>
	<g id="LINE_203_">
		<line class="st19" x1="142.55" y1="259.67" x2="167.32" y2="259.67"/>
	</g>
	<g id="LINE_202_">
		<line class="st19" x1="148.74" y1="255.54" x2="171.45" y2="255.54"/>
	</g>
	<g id="LINE_185_">
		<line class="st19" x1="70.29" y1="235.93" x2="70.29" y2="314.38"/>
	</g>
	<g id="LINE_184_">
		<line class="st19" x1="70.29" y1="314.38" x2="148.74" y2="314.38"/>
	</g>
	<g id="LINE_183_">
		<line class="st19" x1="70.29" y1="235.93" x2="148.74" y2="235.93"/>
	</g>
	<g id="LINE_182_">
		<line class="st19" x1="148.74" y1="259.67" x2="148.74" y2="235.93"/>
	</g>
	<g id="LINE_180_">
		<line class="st19" x1="142.55" y1="290.64" x2="167.32" y2="290.64"/>
	</g>
	<g id="LINE_179_">
		<line class="st19" x1="148.74" y1="294.77" x2="171.45" y2="294.77"/>
	</g>
</g>
<g>
	<g id="LINE_65_">
		<line class="st19" x1="324.87" y1="78.42" x2="308.01" y2="94.85"/>
	</g>
	<g id="LINE_64_">
		<line class="st19" x1="322.71" y1="76.2" x2="305.85" y2="92.63"/>
	</g>
	<g id="LINE_63_">
		<line class="st19" x1="308.01" y1="94.85" x2="305.85" y2="92.63"/>
	</g>
	<g id="LINE_62_">
		<line class="st19" x1="324.87" y1="78.42" x2="322.71" y2="76.2"/>
	</g>
	<path class="st19" d="M325.08,79.4c4.63-2.44,9.79-3.72,15.03-3.72h37.57"/>
	<path class="st19" d="M309.11,93.78c0.75,0.41,1.2,1.22,1.13,2.07c-1.44,3.56-2.22,7.35-2.32,11.19v0.13l-0.85,32.43l23.12,0.61
		l0.86-32.94l-0.01,0.38c0.13-4.92,4.16-8.85,9.08-8.85h37.57"/>
	<polyline class="st19" points="303.73,75.68 298.57,121.51 247.91,121.51 242.75,75.68 	"/>
	<g id="LINE_165_">
		<line class="st19" x1="234.01" y1="75.06" x2="312.06" y2="75.06"/>
	</g>
	<g id="LINE_21_">
		<line class="st19" x1="312.47" y1="73.06" x2="312.47" y2="75.68"/>
	</g>
	<g id="LINE_27_">
		<line class="st19" x1="234.01" y1="73" x2="312.47" y2="73.01"/>
	</g>
	<g id="LWPOLYLINE_3_">
		<line class="st19" x1="312.47" y1="73.63" x2="331.05" y2="73.63"/>
		<line class="st19" x1="331.05" y1="75.68" x2="312.47" y2="75.68"/>
	</g>
	<polyline class="st19" points="331.05,107.27 331.05,160.74 240.21,160.74 240.21,75.68 	"/>
	<g id="LINE_223_">
		<line class="st19" x1="351.69" y1="67.84" x2="351.69" y2="75.68"/>
	</g>
	<polyline class="st19" points="219.56,67.84 219.56,181.39 351.69,181.39 351.69,98.8 	"/>
	<g id="LINE_218_">
		<line class="st19" x1="219.56" y1="88.48" x2="184.92" y2="88.48"/>
	</g>
	<path class="st19" d="M234.01,75.06V73c0-2.85-2.31-5.16-5.16-5.16"/>
	<path class="st19" d="M331.05,75.68v-2.66c0-2.85,2.31-5.16,5.16-5.16"/>
	<g id="LINE_121_">
		<line class="st19" x1="184.92" y1="67.84" x2="371.25" y2="67.86"/>
	</g>
</g>
</svg>
