<svg id="_0" data-name="0" xmlns="http://www.w3.org/2000/svg" viewBox="0 0 552.76 198.43"><defs><style>.cls-1,.cls-2,.cls-5,.cls-6{fill:none;}.cls-1,.cls-2,.cls-5{stroke:#000;}.cls-1,.cls-2{stroke-miterlimit:10;}.cls-2{stroke-dasharray:11.21 5.61;}.cls-3,.cls-4{font-size:12px;}.cls-3{font-family:Arial-BoldMT, Arial;font-weight:700;}.cls-4{font-family:ArialMT, Arial;}.cls-5,.cls-6{stroke-linecap:round;stroke-linejoin:round;}.cls-5{stroke-width:0.75px;}.cls-6{stroke:#231f20;stroke-width:0.25px;}.cls-7{fill:#231f20;}</style></defs><g id="LINE"><line class="cls-1" x1="130.38" y1="34.34" x2="124.38" y2="34.34"/><line class="cls-2" x1="118.77" y1="34.34" x2="37.49" y2="34.34"/><line class="cls-1" x1="34.69" y1="34.34" x2="28.69" y2="34.34"/></g><g id="MTEXT"><text class="cls-3" transform="translate(81.34 162.22)">(a) Roof capping</text></g><g id="MTEXT-2" data-name="MTEXT"><text class="cls-3" transform="translate(387.89 162.22)">(b) Fascia flashing</text></g><g id="MTEXT-3" data-name="MTEXT"><text class="cls-4" transform="translate(475.16 91.76)">Fascia</text></g><g id="MTEXT-4" data-name="MTEXT"><text class="cls-4" transform="translate(253.02 52.83)">10 mm / 90 degrees</text></g><g id="MTEXT-5" data-name="MTEXT"><text class="cls-4" transform="translate(198.02 114.69)">10 mm / 30 degrees</text></g><g id="MTEXT-6" data-name="MTEXT"><text class="cls-4" transform="translate(34.08 52.84)">Capping</text></g><g id="POLYLINE"><rect class="cls-1" x="443.1" y="40.57" width="25.07" height="91.76"/></g><g id="POLYLINE-2" data-name="POLYLINE"><polyline class="cls-1" points="443.1 90.99 421.16 90.99 421.16 31.17 516.43 31.17"/></g><g id="LINE-2" data-name="LINE"><polyline class="cls-1" points="122.55 99.86 130.38 95.28 130.38 34.34"/></g><g id="LINE-3" data-name="LINE"><polyline class="cls-1" points="179.32 137.35 174.74 129.52 115.47 129.52"/></g><g id="LINE-4" data-name="LINE"><line class="cls-1" x1="115.47" y1="132.03" x2="115.47" y2="53.49"/></g><g id="LINE-5" data-name="LINE"><line class="cls-5" x1="443.1" y1="132.33" x2="468.17" y2="40.57"/></g><g id="LINE-6" data-name="LINE"><line class="cls-5" x1="468.17" y1="132.33" x2="443.1" y2="40.57"/></g><g id="POLYLINE-3" data-name="POLYLINE"><polyline class="cls-6" points="131.54 100.39 163.43 111.03 194.37 111.03"/><polygon class="cls-7" points="132.26 102.93 125.24 98.29 133.64 98.8 132.26 102.93"/></g><g id="POLYLINE-4" data-name="POLYLINE"><polyline class="cls-6" points="427.84 85.22 406.96 48.67 363.02 48.67"/><polygon class="cls-7" points="429 82.85 431.14 90.99 425.21 85.01 429 82.85"/></g></svg>