<?xml version="1.0" encoding="utf-8"?>
<!-- Generator: Adobe Illustrator 26.3.1, SVG Export Plug-In . SVG Version: 6.00 Build 0)  -->
<svg version="1.1" id="Line_50" xmlns="http://www.w3.org/2000/svg" xmlns:xlink="http://www.w3.org/1999/xlink" x="0px" y="0px"
	 viewBox="0 0 552.76 368.16" style="enable-background:new 0 0 552.76 368.16;" xml:space="preserve">
<style type="text/css">
	.st0{fill-rule:evenodd;clip-rule:evenodd;fill:none;}
	
		.st1{clip-path:url(#SVGID_00000165234018764702397910000003116963734299638176_);fill:none;stroke:#221F1F;stroke-width:0.5;stroke-linejoin:round;}
	.st2{fill-rule:evenodd;clip-rule:evenodd;fill:url(#SVGID_00000103265541232761485130000003469871838693251206_);}
	.st3{fill:url(#SVGID_00000129182240195263981160000001499180872231078060_);}
	.st4{fill:none;stroke:#231F20;stroke-miterlimit:10;}
	.st5{fill:#231F20;}
	.st6{font-family:'ArialMT';}
	.st7{font-size:12px;}
	.st8{fill:none;stroke:#231F20;stroke-width:0.75;stroke-miterlimit:10;}
	.st9{fill:none;stroke:#231F20;stroke-width:0.75;stroke-miterlimit:10;stroke-dasharray:6.0765,6.0765;}
	.st10{fill:none;stroke:#231F20;stroke-width:0.75;stroke-miterlimit:10;stroke-dasharray:5.7706,5.7706;}
	.st11{fill:none;stroke:#231F20;stroke-width:0.25;stroke-miterlimit:10;}
</style>
<pattern  x="120.47" y="345.31" width="72" height="72" patternUnits="userSpaceOnUse" id="diagonal_cross_hatch" viewBox="6.18 -86.18 72 72" style="overflow:visible;">
	<g>
		<rect x="6.18" y="-86.18" class="st0" width="72" height="72"/>
		<g>
			<defs>
				<rect id="SVGID_1_" x="6.18" y="-86.18" width="72" height="72"/>
			</defs>
			<clipPath id="SVGID_00000119830959990393775730000005641434713374827146_">
				<use xlink:href="#SVGID_1_"  style="overflow:visible;"/>
			</clipPath>
			
				<line style="clip-path:url(#SVGID_00000119830959990393775730000005641434713374827146_);fill:none;stroke:#221F1F;stroke-width:0.5;stroke-linejoin:round;" x1="0.18" y1="-74.18" x2="18.18" y2="-92.18"/>
			
				<line style="clip-path:url(#SVGID_00000119830959990393775730000005641434713374827146_);fill:none;stroke:#221F1F;stroke-width:0.5;stroke-linejoin:round;" x1="0.18" y1="-68.18" x2="24.18" y2="-92.18"/>
			
				<line style="clip-path:url(#SVGID_00000119830959990393775730000005641434713374827146_);fill:none;stroke:#221F1F;stroke-width:0.5;stroke-linejoin:round;" x1="0.18" y1="-62.18" x2="30.18" y2="-92.18"/>
			
				<line style="clip-path:url(#SVGID_00000119830959990393775730000005641434713374827146_);fill:none;stroke:#221F1F;stroke-width:0.5;stroke-linejoin:round;" x1="0.18" y1="-56.18" x2="36.18" y2="-92.18"/>
			
				<line style="clip-path:url(#SVGID_00000119830959990393775730000005641434713374827146_);fill:none;stroke:#221F1F;stroke-width:0.5;stroke-linejoin:round;" x1="0.18" y1="-50.18" x2="42.18" y2="-92.18"/>
			
				<line style="clip-path:url(#SVGID_00000119830959990393775730000005641434713374827146_);fill:none;stroke:#221F1F;stroke-width:0.5;stroke-linejoin:round;" x1="0.18" y1="-44.18" x2="48.18" y2="-92.18"/>
			
				<line style="clip-path:url(#SVGID_00000119830959990393775730000005641434713374827146_);fill:none;stroke:#221F1F;stroke-width:0.5;stroke-linejoin:round;" x1="0.18" y1="-38.18" x2="54.18" y2="-92.18"/>
			
				<line style="clip-path:url(#SVGID_00000119830959990393775730000005641434713374827146_);fill:none;stroke:#221F1F;stroke-width:0.5;stroke-linejoin:round;" x1="0.18" y1="-32.18" x2="60.18" y2="-92.18"/>
			
				<line style="clip-path:url(#SVGID_00000119830959990393775730000005641434713374827146_);fill:none;stroke:#221F1F;stroke-width:0.5;stroke-linejoin:round;" x1="0.18" y1="-26.18" x2="66.18" y2="-92.18"/>
			
				<line style="clip-path:url(#SVGID_00000119830959990393775730000005641434713374827146_);fill:none;stroke:#221F1F;stroke-width:0.5;stroke-linejoin:round;" x1="0.18" y1="-20.18" x2="72.18" y2="-92.18"/>
			
				<line style="clip-path:url(#SVGID_00000119830959990393775730000005641434713374827146_);fill:none;stroke:#221F1F;stroke-width:0.5;stroke-linejoin:round;" x1="0.18" y1="-14.18" x2="78.18" y2="-92.18"/>
			
				<line style="clip-path:url(#SVGID_00000119830959990393775730000005641434713374827146_);fill:none;stroke:#221F1F;stroke-width:0.5;stroke-linejoin:round;" x1="0.18" y1="-8.18" x2="84.18" y2="-92.18"/>
			
				<line style="clip-path:url(#SVGID_00000119830959990393775730000005641434713374827146_);fill:none;stroke:#221F1F;stroke-width:0.5;stroke-linejoin:round;" x1="6.18" y1="-8.18" x2="84.18" y2="-86.18"/>
			
				<line style="clip-path:url(#SVGID_00000119830959990393775730000005641434713374827146_);fill:none;stroke:#221F1F;stroke-width:0.5;stroke-linejoin:round;" x1="12.18" y1="-8.18" x2="84.18" y2="-80.18"/>
			
				<line style="clip-path:url(#SVGID_00000119830959990393775730000005641434713374827146_);fill:none;stroke:#221F1F;stroke-width:0.5;stroke-linejoin:round;" x1="18.18" y1="-8.18" x2="84.18" y2="-74.18"/>
			
				<line style="clip-path:url(#SVGID_00000119830959990393775730000005641434713374827146_);fill:none;stroke:#221F1F;stroke-width:0.5;stroke-linejoin:round;" x1="24.18" y1="-8.18" x2="84.18" y2="-68.18"/>
			
				<line style="clip-path:url(#SVGID_00000119830959990393775730000005641434713374827146_);fill:none;stroke:#221F1F;stroke-width:0.5;stroke-linejoin:round;" x1="30.18" y1="-8.18" x2="84.18" y2="-62.18"/>
			
				<line style="clip-path:url(#SVGID_00000119830959990393775730000005641434713374827146_);fill:none;stroke:#221F1F;stroke-width:0.5;stroke-linejoin:round;" x1="36.18" y1="-8.18" x2="84.18" y2="-56.18"/>
			
				<line style="clip-path:url(#SVGID_00000119830959990393775730000005641434713374827146_);fill:none;stroke:#221F1F;stroke-width:0.5;stroke-linejoin:round;" x1="42.18" y1="-8.18" x2="84.18" y2="-50.18"/>
			
				<line style="clip-path:url(#SVGID_00000119830959990393775730000005641434713374827146_);fill:none;stroke:#221F1F;stroke-width:0.5;stroke-linejoin:round;" x1="48.18" y1="-8.18" x2="84.18" y2="-44.18"/>
			
				<line style="clip-path:url(#SVGID_00000119830959990393775730000005641434713374827146_);fill:none;stroke:#221F1F;stroke-width:0.5;stroke-linejoin:round;" x1="54.18" y1="-8.18" x2="84.18" y2="-38.18"/>
			
				<line style="clip-path:url(#SVGID_00000119830959990393775730000005641434713374827146_);fill:none;stroke:#221F1F;stroke-width:0.5;stroke-linejoin:round;" x1="52.18" y1="-0.18" x2="94.18" y2="-42.18"/>
			
				<line style="clip-path:url(#SVGID_00000119830959990393775730000005641434713374827146_);fill:none;stroke:#221F1F;stroke-width:0.5;stroke-linejoin:round;" x1="58.18" y1="-0.18" x2="94.18" y2="-36.18"/>
			
				<line style="clip-path:url(#SVGID_00000119830959990393775730000005641434713374827146_);fill:none;stroke:#221F1F;stroke-width:0.5;stroke-linejoin:round;" x1="64.18" y1="-0.18" x2="94.18" y2="-30.18"/>
		</g>
	</g>
</pattern>
<g id="HATCH">
	
		<pattern  id="SVGID_00000096769008153986737730000014931240491611077777_" xlink:href="#diagonal_cross_hatch" patternTransform="matrix(1 0 0 1 172.778 -56.8499)">
	</pattern>
	<path style="fill-rule:evenodd;clip-rule:evenodd;fill:url(#SVGID_00000096769008153986737730000014931240491611077777_);" d="
		M243.55,249.46h-39.73v2.96h39.73V249.46z M253.54,249.46h-9.99v2.96h9.99V249.46z"/>
	
		<pattern  id="SVGID_00000122689707611373627960000006573152050514196629_" xlink:href="#diagonal_cross_hatch" patternTransform="matrix(1 0 0 1 172.778 -56.8499)">
	</pattern>
	<path style="fill:url(#SVGID_00000122689707611373627960000006573152050514196629_);" d="M203.81,252.03l2.57-2.57 M207.18,252.42
		l2.96-2.96 M210.94,252.42l2.96-2.96 M214.7,252.42l2.96-2.96 M218.46,252.42l2.96-2.96 M222.22,252.42l2.96-2.96 M225.98,252.42
		l2.96-2.96 M229.74,252.42l2.96-2.96 M233.5,252.42l2.96-2.96 M237.26,252.42l2.96-2.96 M241.02,252.42l2.53-2.53 M243.55,249.89
		l0.43-0.43 M244.78,252.42l2.96-2.96 M248.54,252.42l2.96-2.96 M252.3,252.42l1.24-1.24"/>
</g>
<g id="LINE_38_">
	<line class="st4" x1="253.54" y1="260.84" x2="259.48" y2="260.84"/>
</g>
<path class="st4" d="M323.5,276.66c0-3.01-2.39-5.48-5.4-5.58l-53.23-1.77c-3.01-0.1-5.4-2.57-5.4-5.58v-10.98"/>
<g>
	<g>
		<g>
			<path class="st4" d="M203.81,263.77L132.75,260c-2.67-0.14-4.76-2.35-4.76-5.02V119.19l4.2-2.07l-8.39-4.27l4.2-2.07V79.75"/>
			<g>
				<path class="st5" d="M132.79,86.59c-0.23,0.15-0.54,0.08-0.69-0.15l-4.11-6.45l-4.11,6.45c-0.15,0.23-0.46,0.3-0.69,0.15
					c-0.23-0.15-0.3-0.46-0.15-0.69l4.53-7.11c0.09-0.14,0.25-0.23,0.42-0.23s0.33,0.09,0.42,0.23l4.53,7.11
					c0.05,0.08,0.08,0.18,0.08,0.27C133.02,86.33,132.94,86.49,132.79,86.59z"/>
			</g>
		</g>
	</g>
	<g>
		<g>
			<polyline class="st4" points="182.3,232.67 182.3,99.74 186.5,97.67 178.11,93.4 182.3,91.32 182.3,60.3 			"/>
			<g>
				<path class="st5" d="M187.1,67.14c-0.23,0.15-0.54,0.08-0.69-0.15l-4.11-6.45l-4.11,6.45c-0.15,0.23-0.46,0.3-0.69,0.15
					c-0.23-0.15-0.3-0.46-0.15-0.69l4.53-7.11c0.09-0.14,0.25-0.23,0.42-0.23c0.17,0,0.33,0.09,0.42,0.23l4.53,7.11
					c0.05,0.08,0.08,0.18,0.08,0.27C187.34,66.88,187.25,67.04,187.1,67.14z"/>
			</g>
		</g>
	</g>
	<g>
		<g>
			<polyline class="st4" points="249.3,36.31 249.3,67.33 245.1,69.4 253.5,73.67 249.3,75.74 249.3,163.62 243.55,173.67 
				243.55,257.51 			"/>
			<g>
				<path class="st5" d="M244.5,43.14c0.23,0.15,0.54,0.08,0.69-0.15l4.11-6.45l4.11,6.45c0.15,0.23,0.46,0.3,0.69,0.15
					c0.23-0.15,0.3-0.46,0.15-0.69l-4.53-7.11c-0.09-0.14-0.25-0.23-0.42-0.23c-0.17,0-0.33,0.09-0.42,0.23l-4.53,7.11
					c-0.05,0.08-0.08,0.18-0.08,0.27C244.27,42.88,244.35,43.05,244.5,43.14z"/>
			</g>
		</g>
	</g>
	<g>
		<g>
			<polyline class="st4" points="323.5,302.03 323.5,97.65 327.7,95.58 319.31,91.31 323.5,89.24 323.5,72.81 			"/>
			<g>
				<path class="st5" d="M328.3,79.64c-0.23,0.15-0.54,0.08-0.69-0.15l-4.11-6.45l-4.11,6.45c-0.15,0.23-0.46,0.3-0.69,0.15
					c-0.23-0.15-0.3-0.46-0.15-0.69l4.53-7.11c0.09-0.14,0.25-0.23,0.42-0.23s0.33,0.09,0.42,0.23l4.53,7.11
					c0.05,0.08,0.08,0.18,0.08,0.27C328.53,79.39,328.45,79.55,328.3,79.64z"/>
			</g>
		</g>
	</g>
	<g>
		<g>
			<polyline class="st4" points="287.91,55.3 287.91,81.16 283.71,83.23 292.11,87.5 287.91,89.57 287.91,140.18 			"/>
			<g>
				<path class="st5" d="M283.11,62.14c0.23,0.15,0.54,0.08,0.69-0.15l4.11-6.45l4.11,6.45c0.15,0.23,0.46,0.3,0.69,0.15
					c0.23-0.15,0.3-0.46,0.15-0.69l-4.53-7.11c-0.09-0.14-0.25-0.23-0.42-0.23s-0.33,0.09-0.42,0.23l-4.53,7.11
					c-0.05,0.08-0.08,0.18-0.08,0.27C282.88,61.88,282.96,62.04,283.11,62.14z"/>
			</g>
		</g>
	</g>
</g>
<g>
	<g id="LINE">
		<g>
			<line class="st4" x1="82.54" y1="252.75" x2="176.2" y2="252.75"/>
		</g>
	</g>
	<g id="LINE_1_">
		<g>
			<line class="st4" x1="82.54" y1="254.87" x2="203.81" y2="254.87"/>
		</g>
	</g>
	<rect x="203.81" y="248.94" class="st4" width="49.73" height="35.97"/>
	<g id="LINE_6_">
		<g>
			<line class="st4" x1="203.81" y1="251.9" x2="253.54" y2="251.9"/>
		</g>
	</g>
	<g id="LWPOLYLINE_1_">
		<g>
			<polyline class="st4" points="203.81,252.75 176.2,252.75 176.2,130.74 295.14,130.74 295.14,252.75 253.54,252.75 			"/>
		</g>
	</g>
	<g id="LWPOLYLINE_2_">
		<g>
			<polyline class="st4" points="292.16,252.75 292.16,188.48 253.54,188.48 253.54,252.75 			"/>
		</g>
	</g>
	<g id="LWPOLYLINE_3_">
		<g>
			<rect x="255.77" y="190.72" class="st4" width="34.15" height="55.8"/>
		</g>
	</g>
	<g id="CIRCLE">
		<g>
			<path class="st4" d="M283.87,220.2c0-0.76,0.62-1.38,1.38-1.38c0.76,0,1.38,0.62,1.38,1.38c0,0.76-0.62,1.38-1.38,1.38
				C284.49,221.58,283.87,220.96,283.87,220.2L283.87,220.2z"/>
		</g>
	</g>
</g>
<g>
	<g>
		<g id="MTEXT">
			<g>
				<text transform="matrix(1 0 0 1 362 51.5869)" class="st5 st6 st7">100 mm Arrestor vent</text>
			</g>
		</g>
		<g id="MTEXT_1_">
			<g>
				<text transform="matrix(1 0 0 1 362 86.1337)" class="st5 st6 st7">100 mm Arrestor vent</text>
			</g>
		</g>
		<g id="MTEXT_2_">
			<g>
				<text transform="matrix(1 0 0 1 362.6241 196.1889)"><tspan x="0" y="0" class="st5 st6 st7">Chamber fitted with airtight </tspan><tspan x="0" y="14.4" class="st5 st6 st7">door (refrigerator type)</tspan></text>
			</g>
		</g>
		<g id="MTEXT_3_">
			<g>
				<text transform="matrix(1 0 0 1 362.7168 160.9794)" class="st5 st6 st7">50 mm Anti-syphon vent</text>
			</g>
		</g>
		<g id="MTEXT_4_">
			<g>
				<text transform="matrix(1 0 0 1 362 106.0146)" class="st5 st6 st7">100 mm Chamber vents</text>
			</g>
		</g>
		<g id="MTEXT_5_">
			<g>
				<text transform="matrix(1 0 0 1 362.9063 295.4311)"><tspan x="0" y="0" class="st5 st6 st7">Trap fitted with sealed lids.</tspan><tspan x="0" y="14.4" class="st5 st6 st7">Therefore 2-100 mm chamber </tspan><tspan x="0" y="28.8" class="st5 st6 st7">vents required also 100 mm </tspan><tspan x="0" y="43.2" class="st5 st6 st7">arrestor vent</tspan></text>
			</g>
		</g>
		<g id="MTEXT_6_">
			<g>
				<text transform="matrix(1 0 0 1 362.6795 266.9244)" class="st5 st6 st7">100 mm</text>
			</g>
		</g>
	</g>
	<g id="MTEXT_7_">
		<text transform="matrix(1 0 0 1 184.7455 149.0898)" class="st6 st7">Grease trap </text>
		<text transform="matrix(1 0 0 1 191.9271 161.7968)" class="st6 st7">chamber</text>
	</g>
	<g id="MTEXT_8_">
		<text transform="matrix(1 0 0 1 29.0707 139.9872)" class="st6 st7">80 mm or</text>
		<text transform="matrix(1 0 0 1 28.3465 152.8242)" class="st6 st7">100 mm W.S.</text>
	</g>
</g>
<g>
	<g>
		<line class="st8" x1="273.3" y1="267.87" x2="275.39" y2="265.72"/>
		<line class="st9" x1="280.98" y1="263.92" x2="301.93" y2="260.26"/>
		<polyline class="st8" points="304.92,259.74 307.88,259.22 307.88,256.22 		"/>
		<line class="st10" x1="307.88" y1="250.45" x2="307.88" y2="172.55"/>
		<line class="st8" x1="307.88" y1="169.66" x2="307.88" y2="166.66"/>
	</g>
</g>
<g>
	<g>
		<g>
			<g>
				<line class="st11" x1="83.97" y1="137.81" x2="121.35" y2="137.81"/>
				<g>
					<polygon class="st5" points="119.86,139.99 127.99,137.81 119.86,135.63 					"/>
				</g>
			</g>
		</g>
	</g>
	<g>
		<g>
			<g>
				<line class="st11" x1="354.97" y1="47.81" x2="256.49" y2="47.81"/>
				<g>
					<polygon class="st5" points="257.98,45.63 249.84,47.81 257.98,49.99 					"/>
				</g>
			</g>
		</g>
	</g>
	<g>
		<g>
			<g>
				<line class="st11" x1="287.64" y1="106.01" x2="188.92" y2="114.96"/>
				<g>
					<polygon class="st5" points="190.2,112.66 182.3,115.56 190.6,117 					"/>
				</g>
			</g>
		</g>
	</g>
	<g>
		<g>
			<g>
				<polyline class="st11" points="294.45,105.22 335.4,101.55 358.22,101.55 				"/>
				<g>
					<polygon class="st5" points="296.12,107.26 287.83,105.81 295.73,102.92 					"/>
				</g>
			</g>
		</g>
	</g>
	<g>
		<g>
			<g>
				<polyline class="st11" points="313.36,176.33 341.06,157.38 356.97,157.06 				"/>
				<g>
					<polygon class="st5" points="315.82,177.29 307.88,180.08 313.36,173.69 					"/>
				</g>
			</g>
		</g>
	</g>
	<g>
		<g>
			<g>
				<polyline class="st11" points="296.22,207.69 340.1,192.76 358.22,192.76 				"/>
				<g>
					<polygon class="st5" points="298.32,209.27 289.93,209.83 296.92,205.14 					"/>
				</g>
			</g>
		</g>
	</g>
	<g>
		<g>
			<g>
				<polyline class="st11" points="306.74,267.87 340.38,261.96 358.22,261.96 				"/>
				<g>
					<polygon class="st5" points="308.58,269.76 300.2,269.02 307.83,265.47 					"/>
				</g>
			</g>
		</g>
	</g>
	<g>
		<g>
			<g>
				<polyline class="st11" points="260.04,275.2 337.84,291.78 353.76,291.78 				"/>
				<g>
					<polygon class="st5" points="261.04,277.64 253.54,273.81 261.95,273.37 					"/>
				</g>
			</g>
		</g>
	</g>
	<g>
		<g>
			<g>
				<line class="st11" x1="358.22" y1="83.13" x2="329.67" y2="83.13"/>
				<g>
					<polygon class="st5" points="331.16,80.95 323.03,83.13 331.16,85.31 					"/>
				</g>
			</g>
		</g>
	</g>
</g>
</svg>
