<?xml version="1.0" encoding="utf-8"?>
<!-- Generator: Adobe Illustrator 26.0.3, SVG Export Plug-In . SVG Version: 6.00 Build 0)  -->
<svg version="1.1" id="_x30_" xmlns="http://www.w3.org/2000/svg" xmlns:xlink="http://www.w3.org/1999/xlink" x="0px" y="0px"
	 viewBox="0 0 552.76 419.53" style="enable-background:new 0 0 552.76 419.53;" xml:space="preserve">
<style type="text/css">
	.st0{fill:#231F20;}
	.st1{font-family:'ArialMT';}
	.st2{font-size:12px;}
	.st3{fill:none;stroke:#231F20;stroke-width:0.75;stroke-linecap:round;stroke-linejoin:round;stroke-miterlimit:10;}
	.st4{fill:none;stroke:#231F20;stroke-linecap:round;stroke-linejoin:round;stroke-miterlimit:10;}
	.st5{fill:none;stroke:#231F20;stroke-width:0.25;stroke-miterlimit:10;}
</style>
<g id="MTEXT_1_">
	<text transform="matrix(1 0 0 1 27.9984 42.9533)" class="st0 st1 st2">Anticapillary break</text>
</g>
<g id="MTEXT_2_">
	<text transform="matrix(1 0 0 1 315.2337 44.1107)" class="st0 st1 st2">75 mm min.</text>
</g>
<g>
	<g id="LINE_104_">
		<line class="st3" x1="299.77" y1="98.93" x2="299.77" y2="84.41"/>
	</g>
	<g id="LINE_109_">
		<line class="st3" x1="42.87" y1="173.24" x2="42.87" y2="192.54"/>
	</g>
	<g id="LINE_110_">
		<line class="st3" x1="44.65" y1="174.06" x2="44.65" y2="193.38"/>
	</g>
	<g id="LINE_111_">
		<line class="st3" x1="42.87" y1="303.7" x2="42.87" y2="325.26"/>
	</g>
	<g id="LINE_112_">
		<line class="st3" x1="44.65" y1="304.63" x2="44.65" y2="326.21"/>
	</g>
	<g id="LINE_113_">
		<line class="st3" x1="42.87" y1="261.72" x2="42.87" y2="279.98"/>
	</g>
	<g id="LINE_114_">
		<line class="st3" x1="44.65" y1="262.62" x2="44.65" y2="280.89"/>
	</g>
	<g id="LINE_115_">
		<line class="st3" x1="42.87" y1="218.22" x2="42.87" y2="236.91"/>
	</g>
	<g id="LINE_116_">
		<line class="st3" x1="44.65" y1="219.08" x2="44.65" y2="237.79"/>
	</g>
	<g id="LINE_117_">
		<line class="st3" x1="97.17" y1="198.34" x2="97.17" y2="215.24"/>
	</g>
	<g id="LINE_118_">
		<line class="st3" x1="98.95" y1="197.61" x2="98.95" y2="214.5"/>
	</g>
	<g id="LINE_119_">
		<line class="st3" x1="97.17" y1="238.87" x2="97.17" y2="258.37"/>
	</g>
	<g id="LINE_120_">
		<line class="st3" x1="98.95" y1="238.1" x2="98.95" y2="257.58"/>
	</g>
	<g id="LINE_121_">
		<line class="st3" x1="67.54" y1="88.15" x2="67.54" y2="109.83"/>
	</g>
	<g id="LINE_122_">
		<line class="st3" x1="67.54" y1="230.14" x2="67.54" y2="249.14"/>
	</g>
	<g id="LINE_123_">
		<line class="st3" x1="67.54" y1="251.71" x2="67.54" y2="271.49"/>
	</g>
	<g id="LINE_124_">
		<line class="st3" x1="67.54" y1="274.13" x2="67.54" y2="292.69"/>
	</g>
	<g id="LINE_125_">
		<line class="st3" x1="67.54" y1="295.27" x2="67.54" y2="313.99"/>
	</g>
	<g id="LINE_126_">
		<line class="st3" x1="67.54" y1="316.58" x2="67.54" y2="338.49"/>
	</g>
	<g id="LINE_127_">
		<line class="st3" x1="67.54" y1="341.08" x2="67.54" y2="347.75"/>
	</g>
	<g id="LINE_128_">
		<line class="st3" x1="67.54" y1="347.75" x2="67.54" y2="359.03"/>
	</g>
	<g id="LINE_129_">
		<line class="st3" x1="42.87" y1="126.88" x2="42.87" y2="148.07"/>
	</g>
	<g id="LINE_130_">
		<line class="st3" x1="44.65" y1="127.67" x2="44.65" y2="148.88"/>
	</g>
	<g id="LINE_131_">
		<line class="st3" x1="42.87" y1="77.78" x2="42.87" y2="99.2"/>
	</g>
	<g id="LINE_132_">
		<line class="st3" x1="44.65" y1="78.53" x2="44.65" y2="99.96"/>
	</g>
	<g id="LINE_133_">
		<line class="st3" x1="67.54" y1="88.15" x2="44.65" y2="78.53"/>
	</g>
	<g id="LINE_134_">
		<line class="st3" x1="67.54" y1="295.27" x2="27.71" y2="274.86"/>
	</g>
	<g id="LINE_135_">
		<line class="st3" x1="27.71" y1="95.23" x2="67.54" y2="112.4"/>
	</g>
	<g id="LINE_136_">
		<line class="st3" x1="27.71" y1="120.18" x2="42.87" y2="126.88"/>
	</g>
	<g id="LINE_137_">
		<line class="st3" x1="27.71" y1="143.79" x2="67.54" y2="161.84"/>
	</g>
	<g id="LINE_138_">
		<line class="st3" x1="27.71" y1="166.22" x2="42.87" y2="173.24"/>
	</g>
	<g id="LINE_139_">
		<line class="st3" x1="27.71" y1="187.98" x2="67.54" y2="206.82"/>
	</g>
	<g id="LINE_140_">
		<line class="st3" x1="27.71" y1="210.89" x2="42.87" y2="218.22"/>
	</g>
	<g id="LINE_141_">
		<line class="st3" x1="27.71" y1="232.07" x2="67.54" y2="251.71"/>
	</g>
	<g id="LINE_142_">
		<line class="st3" x1="27.71" y1="254.09" x2="42.87" y2="261.72"/>
	</g>
	<g id="LINE_143_">
		<line class="st3" x1="27.71" y1="295.78" x2="42.87" y2="303.7"/>
	</g>
	<g id="LINE_144_">
		<line class="st3" x1="27.71" y1="319.85" x2="67.54" y2="341.08"/>
	</g>
	<g id="LINE_145_">
		<line class="st3" x1="27.71" y1="360.03" x2="67.54" y2="381.99"/>
	</g>
	<g id="LINE_146_">
		<line class="st3" x1="67.54" y1="85.59" x2="27.71" y2="68.85"/>
	</g>
	<g id="LINE_147_">
		<line class="st3" x1="27.71" y1="92.66" x2="42.87" y2="99.2"/>
	</g>
	<g id="LINE_148_">
		<line class="st3" x1="27.71" y1="117.6" x2="67.54" y2="135.21"/>
	</g>
	<g id="LINE_149_">
		<line class="st3" x1="27.71" y1="141.2" x2="42.87" y2="148.07"/>
	</g>
	<g id="LINE_150_">
		<line class="st3" x1="27.71" y1="163.62" x2="67.54" y2="182.06"/>
	</g>
	<g id="LINE_151_">
		<line class="st3" x1="27.71" y1="185.37" x2="42.87" y2="192.54"/>
	</g>
	<g id="LINE_152_">
		<line class="st3" x1="27.71" y1="208.26" x2="67.54" y2="227.52"/>
	</g>
	<g id="LINE_153_">
		<line class="st3" x1="27.71" y1="229.44" x2="42.87" y2="236.91"/>
	</g>
	<g id="LINE_154_">
		<line class="st3" x1="27.71" y1="251.45" x2="67.54" y2="271.49"/>
	</g>
	<g id="LINE_155_">
		<line class="st3" x1="67.49" y1="292.59" x2="44.65" y2="280.89"/>
	</g>
	<g id="LINE_156_">
		<line class="st3" x1="27.71" y1="293.12" x2="67.54" y2="313.91"/>
	</g>
	<g id="LINE_157_">
		<line class="st3" x1="27.71" y1="317.18" x2="42.87" y2="325.26"/>
	</g>
	<g id="LINE_158_">
		<line class="st3" x1="27.71" y1="357.33" x2="42.87" y2="365.69"/>
	</g>
	<g id="LINE_159_">
		<line class="st3" x1="67.54" y1="112.4" x2="67.54" y2="135.21"/>
	</g>
	<g id="LINE_160_">
		<line class="st3" x1="67.54" y1="137.79" x2="67.54" y2="159.24"/>
	</g>
	<g id="LINE_161_">
		<line class="st3" x1="44.65" y1="99.96" x2="67.54" y2="109.83"/>
	</g>
	<g id="LINE_162_">
		<line class="st3" x1="42.87" y1="77.78" x2="27.71" y2="71.41"/>
	</g>
	<g id="LINE_163_">
		<line class="st3" x1="44.65" y1="127.67" x2="67.54" y2="137.79"/>
	</g>
	<g id="LINE_164_">
		<line class="st3" x1="44.65" y1="148.88" x2="67.54" y2="159.24"/>
	</g>
	<g id="LINE_165_">
		<line class="st3" x1="67.54" y1="85.59" x2="67.54" y2="73.15"/>
	</g>
	<g id="LINE_166_">
		<line class="st3" x1="67.54" y1="161.84" x2="67.54" y2="182.06"/>
	</g>
	<g id="LINE_167_">
		<line class="st3" x1="67.54" y1="184.67" x2="67.54" y2="204.21"/>
	</g>
	<g id="LINE_168_">
		<line class="st3" x1="67.54" y1="206.82" x2="67.54" y2="227.59"/>
	</g>
	<g id="LINE_169_">
		<line class="st3" x1="44.65" y1="174.06" x2="67.54" y2="184.67"/>
	</g>
	<g id="LINE_170_">
		<line class="st3" x1="44.65" y1="193.38" x2="67.54" y2="204.21"/>
	</g>
	<g id="LINE_171_">
		<line class="st3" x1="44.65" y1="219.08" x2="67.54" y2="230.14"/>
	</g>
	<g id="LINE_172_">
		<line class="st3" x1="44.65" y1="237.79" x2="67.54" y2="249.08"/>
	</g>
	<g id="LINE_173_">
		<line class="st3" x1="44.65" y1="262.62" x2="67.54" y2="274.13"/>
	</g>
	<g id="LINE_174_">
		<line class="st3" x1="42.87" y1="279.98" x2="27.71" y2="272.2"/>
	</g>
	<g id="LINE_175_">
		<line class="st3" x1="44.65" y1="304.63" x2="67.54" y2="316.58"/>
	</g>
	<g id="LINE_176_">
		<line class="st3" x1="44.65" y1="326.21" x2="67.54" y2="338.41"/>
	</g>
	<g id="LINE_177_">
		<line class="st3" x1="27.71" y1="340.37" x2="42.87" y2="348.45"/>
	</g>
	<g id="LINE_178_">
		<line class="st3" x1="27.71" y1="337.7" x2="67.54" y2="358.93"/>
	</g>
	<g id="LINE_179_">
		<line class="st3" x1="42.87" y1="348.45" x2="42.87" y2="365.69"/>
	</g>
	<g id="LINE_180_">
		<line class="st3" x1="44.65" y1="349.4" x2="44.65" y2="366.67"/>
	</g>
	<g id="LINE_181_">
		<line class="st3" x1="44.65" y1="349.4" x2="67.54" y2="361.6"/>
	</g>
	<g id="LINE_182_">
		<line class="st3" x1="44.65" y1="366.67" x2="67.54" y2="379.29"/>
	</g>
	<g id="LINE_183_">
		<line class="st3" x1="67.54" y1="381.99" x2="67.54" y2="385.68"/>
	</g>
	<g id="LINE_184_">
		<line class="st3" x1="67.54" y1="361.6" x2="67.54" y2="379.42"/>
	</g>
	<g id="LINE_185_">
		<line class="st3" x1="67.54" y1="161.84" x2="97.17" y2="150.47"/>
	</g>
	<g id="LINE_186_">
		<line class="st3" x1="113.74" y1="72.68" x2="67.54" y2="88.15"/>
	</g>
	<g id="LINE_187_">
		<line class="st3" x1="185.48" y1="71.01" x2="151.74" y2="82.85"/>
	</g>
	<g id="LINE_188_">
		<line class="st3" x1="246.3" y1="72.06" x2="229.8" y2="78.13"/>
	</g>
	<g id="LINE_189_">
		<line class="st3" x1="346.06" y1="73.58" x2="331.48" y2="79.4"/>
	</g>
	<g id="LINE_190_">
		<line class="st3" x1="118.23" y1="272.58" x2="98.95" y2="281.21"/>
	</g>
	<g id="LINE_191_">
		<line class="st3" x1="117.08" y1="294.55" x2="67.54" y2="316.58"/>
	</g>
	<g id="LINE_192_">
		<line class="st3" x1="104.58" y1="73.19" x2="98.95" y2="75.07"/>
	</g>
	<g id="LINE_193_">
		<line class="st3" x1="181.37" y1="69.89" x2="124.84" y2="89.72"/>
	</g>
	<g id="LINE_194_">
		<line class="st3" x1="242.32" y1="71.67" x2="204.87" y2="85.44"/>
	</g>
	<g id="LINE_195_">
		<line class="st3" x1="67.54" y1="159.24" x2="123.06" y2="137.94"/>
	</g>
	<g id="LINE_196_">
		<line class="st3" x1="340.4" y1="73.24" x2="299.77" y2="89.44"/>
	</g>
	<g id="LINE_197_">
		<line class="st3" x1="107.61" y1="256.37" x2="67.54" y2="274.13"/>
	</g>
	<g id="LINE_198_">
		<line class="st3" x1="107.32" y1="253.87" x2="98.95" y2="257.58"/>
	</g>
	<g id="LINE_199_">
		<line class="st3" x1="100.77" y1="325.93" x2="98.95" y2="326.75"/>
	</g>
	<g id="LINE_200_">
		<line class="st3" x1="115.6" y1="340.81" x2="67.54" y2="361.6"/>
	</g>
	<g id="LINE_201_">
		<line class="st3" x1="202.69" y1="343.99" x2="140.66" y2="370.27"/>
	</g>
	<g id="LINE_202_">
		<line class="st3" x1="185.63" y1="329.4" x2="179.29" y2="332.08"/>
	</g>
	<g id="LINE_203_">
		<line class="st3" x1="113.25" y1="339.26" x2="98.95" y2="345.44"/>
	</g>
	<g id="LINE_204_">
		<line class="st3" x1="101.26" y1="323.11" x2="67.54" y2="338.49"/>
	</g>
	<g id="LINE_205_">
		<line class="st3" x1="114.91" y1="292.93" x2="98.95" y2="300.03"/>
	</g>
	<g id="LINE_206_">
		<line class="st3" x1="114.96" y1="271.46" x2="67.54" y2="292.69"/>
	</g>
	<g id="LINE_207_">
		<line class="st3" x1="199.47" y1="342.79" x2="151.74" y2="363.01"/>
	</g>
	<g id="LINE_208_">
		<line class="st3" x1="97.17" y1="282" x2="97.17" y2="300.82"/>
	</g>
	<g id="LINE_209_">
		<line class="st3" x1="98.95" y1="281.21" x2="98.95" y2="300.03"/>
	</g>
	<g id="LINE_210_">
		<line class="st3" x1="97.17" y1="327.57" x2="97.17" y2="346.21"/>
	</g>
	<g id="LINE_211_">
		<line class="st3" x1="98.95" y1="326.75" x2="98.95" y2="345.44"/>
	</g>
	<g id="LINE_212_">
		<line class="st3" x1="123.06" y1="207" x2="123.06" y2="225.08"/>
	</g>
	<g id="LINE_213_">
		<line class="st3" x1="124.84" y1="206.26" x2="124.84" y2="224.31"/>
	</g>
	<g id="LINE_214_">
		<line class="st3" x1="123.06" y1="339.11" x2="123.06" y2="355.9"/>
	</g>
	<g id="LINE_215_">
		<line class="st3" x1="124.84" y1="338.32" x2="124.84" y2="355.15"/>
	</g>
	<g id="LINE_216_">
		<line class="st3" x1="97.17" y1="150.47" x2="97.17" y2="164.91"/>
	</g>
	<g id="LINE_217_">
		<line class="st3" x1="98.95" y1="149.78" x2="98.95" y2="164.51"/>
	</g>
	<g id="LINE_218_">
		<line class="st3" x1="97.17" y1="102" x2="97.17" y2="125.05"/>
	</g>
	<g id="LINE_219_">
		<line class="st3" x1="98.95" y1="101.37" x2="98.95" y2="124.39"/>
	</g>
	<g id="LINE_220_">
		<line class="st3" x1="97.17" y1="73.71" x2="97.17" y2="75.67"/>
	</g>
	<g id="LINE_221_">
		<line class="st3" x1="98.95" y1="73.59" x2="98.95" y2="75.07"/>
	</g>
	<g id="LINE_222_">
		<line class="st3" x1="123.06" y1="117.38" x2="123.06" y2="137.94"/>
	</g>
	<g id="LINE_223_">
		<line class="st3" x1="124.84" y1="116.72" x2="124.84" y2="137.26"/>
	</g>
	<g id="LINE_224_">
		<line class="st3" x1="123.06" y1="71.09" x2="123.06" y2="90.35"/>
	</g>
	<g id="LINE_225_">
		<line class="st3" x1="124.84" y1="70.45" x2="124.84" y2="89.72"/>
	</g>
	<g id="LINE_226_">
		<line class="st3" x1="149.96" y1="83.48" x2="149.96" y2="105.64"/>
	</g>
	<g id="LINE_227_">
		<line class="st3" x1="151.74" y1="82.85" x2="151.74" y2="104.98"/>
	</g>
	<g id="LINE_228_">
		<line class="st3" x1="149.96" y1="130.21" x2="149.96" y2="144.17"/>
	</g>
	<g id="LINE_229_">
		<line class="st3" x1="151.74" y1="129.53" x2="151.74" y2="143.46"/>
	</g>
	<g id="LINE_230_">
		<line class="st3" x1="149.96" y1="347.07" x2="149.96" y2="363.77"/>
	</g>
	<g id="LINE_231_">
		<line class="st3" x1="151.74" y1="346.32" x2="151.74" y2="363.01"/>
	</g>
	<g id="LINE_232_">
		<line class="st3" x1="149.96" y1="216.01" x2="149.96" y2="235.19"/>
	</g>
	<g id="LINE_233_">
		<line class="st3" x1="151.74" y1="222.54" x2="151.74" y2="235.41"/>
	</g>
	<g id="LINE_234_">
		<line class="st3" x1="203.09" y1="73" x2="203.09" y2="86.1"/>
	</g>
	<g id="LINE_235_">
		<line class="st3" x1="204.87" y1="72.88" x2="204.87" y2="85.44"/>
	</g>
	<g id="LINE_236_">
		<line class="st3" x1="177.51" y1="97.36" x2="177.51" y2="117.05"/>
	</g>
	<g id="LINE_237_">
		<line class="st3" x1="179.29" y1="96.7" x2="179.29" y2="116.37"/>
	</g>
	<g id="LINE_238_">
		<line class="st3" x1="203.09" y1="109.83" x2="203.09" y2="122.97"/>
	</g>
	<g id="LINE_239_">
		<line class="st3" x1="204.87" y1="109.14" x2="204.87" y2="122.26"/>
	</g>
	<g id="LINE_240_">
		<line class="st3" x1="228.02" y1="78.78" x2="228.02" y2="97.67"/>
	</g>
	<g id="LINE_241_">
		<line class="st3" x1="229.8" y1="78.13" x2="229.8" y2="96.99"/>
	</g>
	<g id="LINE_242_">
		<line class="st3" x1="256.88" y1="89.19" x2="256.88" y2="101.52"/>
	</g>
	<g id="LINE_243_">
		<line class="st3" x1="258.66" y1="88.51" x2="258.66" y2="100.81"/>
	</g>
	<g id="LINE_244_">
		<line class="st3" x1="329.7" y1="80.11" x2="329.7" y2="91.62"/>
	</g>
	<g id="LINE_245_">
		<line class="st3" x1="331.48" y1="79.4" x2="331.48" y2="91.62"/>
	</g>
	<g id="LINE_246_">
		<line class="st3" x1="149.21" y1="196.11" x2="124.84" y2="206.26"/>
	</g>
	<g id="LINE_247_">
		<line class="st3" x1="149.96" y1="216.01" x2="98.95" y2="238.1"/>
	</g>
	<g id="LINE_248_">
		<line class="st3" x1="150.61" y1="213.15" x2="124.84" y2="224.31"/>
	</g>
	<g id="LINE_249_">
		<line class="st3" x1="149.1" y1="193.59" x2="98.95" y2="214.5"/>
	</g>
	<g id="LINE_250_">
		<line class="st3" x1="177.51" y1="314.9" x2="177.51" y2="332.84"/>
	</g>
	<g id="LINE_251_">
		<line class="st3" x1="179.29" y1="318.27" x2="179.29" y2="332.08"/>
	</g>
	<g id="LINE_252_">
		<line class="st3" x1="123.06" y1="355.9" x2="67.54" y2="379.42"/>
	</g>
	<g id="LINE_253_">
		<line class="st3" x1="149.96" y1="347.07" x2="67.54" y2="381.99"/>
	</g>
	<g id="LINE_254_">
		<line class="st3" x1="187.81" y1="331.04" x2="151.74" y2="346.32"/>
	</g>
	<g id="LINE_255_">
		<line class="st3" x1="149.96" y1="363.77" x2="138.28" y2="368.71"/>
	</g>
	<g id="LINE_256_">
		<line class="st3" x1="97.17" y1="346.21" x2="67.54" y2="359.03"/>
	</g>
	<g id="LINE_257_">
		<line class="st3" x1="97.17" y1="327.57" x2="67.54" y2="341.08"/>
	</g>
	<g id="LINE_258_">
		<line class="st3" x1="97.17" y1="300.82" x2="67.54" y2="313.99"/>
	</g>
	<g id="LINE_259_">
		<line class="st3" x1="97.17" y1="282" x2="67.54" y2="295.27"/>
	</g>
	<g id="LINE_260_">
		<line class="st3" x1="177.51" y1="332.84" x2="124.84" y2="355.15"/>
	</g>
	<g id="LINE_261_">
		<line class="st3" x1="97.17" y1="238.87" x2="67.54" y2="251.71"/>
	</g>
	<g id="LINE_262_">
		<line class="st3" x1="123.06" y1="225.08" x2="67.54" y2="249.14"/>
	</g>
	<g id="LINE_263_">
		<line class="st3" x1="97.17" y1="215.24" x2="67.54" y2="227.59"/>
	</g>
	<g id="LINE_264_">
		<line class="st3" x1="97.17" y1="258.37" x2="67.54" y2="271.5"/>
	</g>
	<g id="LINE_265_">
		<line class="st3" x1="123.06" y1="207" x2="67.54" y2="230.14"/>
	</g>
	<g id="LINE_266_">
		<line class="st3" x1="94.27" y1="174.01" x2="67.54" y2="184.67"/>
	</g>
	<g id="LINE_267_">
		<line class="st3" x1="94.27" y1="171.41" x2="67.54" y2="182.06"/>
	</g>
	<g id="LINE_268_">
		<line class="st3" x1="97.17" y1="75.67" x2="67.54" y2="85.59"/>
	</g>
	<g id="LINE_269_">
		<line class="st3" x1="123.06" y1="90.35" x2="67.54" y2="109.83"/>
	</g>
	<g id="LINE_270_">
		<line class="st3" x1="97.17" y1="102" x2="67.54" y2="112.4"/>
	</g>
	<g id="LINE_271_">
		<line class="st3" x1="149.96" y1="83.48" x2="98.95" y2="101.37"/>
	</g>
	<g id="LINE_272_">
		<line class="st3" x1="97.17" y1="125.05" x2="69.1" y2="135.37"/>
	</g>
	<g id="LINE_273_">
		<line class="st3" x1="149.96" y1="105.64" x2="98.95" y2="124.39"/>
	</g>
	<g id="LINE_274_">
		<line class="st3" x1="123.06" y1="117.38" x2="67.54" y2="137.79"/>
	</g>
	<g id="LINE_275_">
		<line class="st3" x1="203.09" y1="86.1" x2="151.74" y2="104.98"/>
	</g>
	<g id="LINE_276_">
		<line class="st3" x1="228.02" y1="78.78" x2="179.29" y2="96.7"/>
	</g>
	<g id="LINE_277_">
		<line class="st3" x1="229.8" y1="96.99" x2="297.17" y2="71.14"/>
	</g>
	<g id="LINE_278_">
		<line class="st3" x1="179.29" y1="116.37" x2="228.02" y2="97.67"/>
	</g>
	<g id="LINE_279_">
		<line class="st3" x1="124.84" y1="137.26" x2="177.51" y2="117.05"/>
	</g>
	<g id="LINE_280_">
		<line class="st3" x1="98.95" y1="149.78" x2="149.96" y2="130.21"/>
	</g>
	<g id="LINE_281_">
		<line class="st3" x1="151.74" y1="129.53" x2="203.09" y2="109.83"/>
	</g>
	<g id="LINE_282_">
		<line class="st3" x1="204.87" y1="109.14" x2="256.88" y2="89.19"/>
	</g>
	<g id="LINE_283_">
		<line class="st3" x1="258.66" y1="88.51" x2="304.39" y2="70.96"/>
	</g>
	<g id="LINE_284_">
		<line class="st3" x1="177.51" y1="97.36" x2="124.84" y2="116.72"/>
	</g>
	<g id="LINE_286_">
		<line class="st3" x1="329.7" y1="80.11" x2="299.77" y2="92.04"/>
	</g>
</g>
<g>
	<g>
		<g id="LINE_2_">
			<line class="st4" x1="145.98" y1="239.93" x2="149.33" y2="254.47"/>
		</g>
		<g id="LINE_3_">
			<line class="st4" x1="149.12" y1="238.54" x2="152.52" y2="253.31"/>
		</g>
		<g id="LINE_4_">
			<line class="st4" x1="152.05" y1="237.23" x2="155.42" y2="251.86"/>
		</g>
		<g id="LINE_5_">
			<line class="st4" x1="155.48" y1="235.7" x2="158.8" y2="250.13"/>
		</g>
		<g id="LINE_6_">
			<line class="st4" x1="158.35" y1="234.43" x2="161.6" y2="248.58"/>
		</g>
		<g id="LINE_7_">
			<line class="st4" x1="161.51" y1="233.02" x2="164.7" y2="246.84"/>
		</g>
		<g id="LINE_8_">
			<line class="st4" x1="164.25" y1="231.8" x2="167.4" y2="245.49"/>
		</g>
		<g id="LINE_9_">
			<line class="st4" x1="167.18" y1="230.49" x2="170.3" y2="244.04"/>
		</g>
		<g id="LINE_10_">
			<line class="st4" x1="170.04" y1="230.98" x2="172.62" y2="242.21"/>
		</g>
		<g id="LINE_11_">
			<line class="st4" x1="174.41" y1="233.7" x2="176.1" y2="241.05"/>
		</g>
		<g id="LINE_12_">
			<line class="st4" x1="143.28" y1="241.13" x2="146.61" y2="255.56"/>
		</g>
		<g id="LINE_13_">
			<line class="st4" x1="140.36" y1="242.44" x2="142.81" y2="253.09"/>
		</g>
		<g id="LINE_14_">
			<line class="st4" x1="137.03" y1="243.92" x2="138.5" y2="250.3"/>
		</g>
		<g id="LINE_95_">
			<line class="st4" x1="99.97" y1="330.51" x2="101.71" y2="320.54"/>
		</g>
		<g id="SPLINE_1_">
			<path class="st4" d="M67.54,205.37c6.85,2.5,14.53,0.66,19.5-4.67"/>
		</g>
		<g id="SPLINE_4_">
			<path class="st4" d="M151.39,217.42c0,1.22,0.63,2.36,1.67,3.01"/>
		</g>
		<g id="LINE_108_">
			<line class="st4" x1="122.86" y1="240.14" x2="130.78" y2="243.6"/>
		</g>
		<g id="LINE_315_">
			<line class="st4" x1="111.86" y1="245.03" x2="109.79" y2="259.1"/>
		</g>
		<g id="LINE_316_">
			<line class="st4" x1="106.8" y1="260.53" x2="109.79" y2="259.1"/>
		</g>
		<g id="LINE_325_">
			<line class="st4" x1="354.71" y1="194.43" x2="364.79" y2="189.94"/>
		</g>
	</g>
	<g>
		<g id="LINE_81_">
			<line class="st4" x1="137.94" y1="243.52" x2="168.39" y2="229.96"/>
		</g>
		<g id="LINE_87_">
			<line class="st4" x1="153.06" y1="220.42" x2="176.66" y2="235.1"/>
		</g>
		<g id="LINE_90_">
			<line class="st4" x1="127.96" y1="274.76" x2="108.19" y2="283.55"/>
		</g>
		<g id="LINE_91_">
			<line class="st4" x1="144.84" y1="286.12" x2="125.29" y2="294.82"/>
		</g>
		<g id="LINE_92_">
			<line class="st4" x1="183.58" y1="312.2" x2="117.07" y2="341.78"/>
		</g>
		<g id="LINE_93_">
			<line class="st4" x1="117.07" y1="341.78" x2="125.29" y2="294.82"/>
		</g>
		<g id="LINE_94_">
			<line class="st4" x1="125.29" y1="294.82" x2="108.19" y2="283.55"/>
		</g>
		<g id="LINE_96_">
			<line class="st4" x1="106.19" y1="295" x2="108.19" y2="283.55"/>
		</g>
		<g id="LINE_97_">
			<line class="st4" x1="117.76" y1="289.85" x2="106.19" y2="295"/>
		</g>
		<g id="LINE_98_">
			<line class="st4" x1="117.07" y1="341.78" x2="99.97" y2="330.51"/>
		</g>
		<g id="LINE_99_">
			<line class="st4" x1="120.65" y1="321.31" x2="99.97" y2="330.51"/>
		</g>
		<g id="LINE_100_">
			<line class="st4" x1="122.4" y1="311.34" x2="101.71" y2="320.54"/>
		</g>
		<g id="SPLINE_5_">
			<path class="st4" d="M130.48,243.47c2.36,1.08,5.08,1.1,7.46,0.05"/>
		</g>
		<g id="LINE_313_">
			<line class="st4" x1="111.86" y1="245.03" x2="122.86" y2="240.14"/>
		</g>
		<g id="LINE_322_">
			<line class="st4" x1="176.66" y1="235.1" x2="187.75" y2="234.87"/>
		</g>
		<g id="LINE_323_">
			<line class="st4" x1="187.75" y1="234.87" x2="176.11" y2="245.09"/>
		</g>
		<g id="LINE_324_">
			<line class="st4" x1="176.11" y1="245.09" x2="189.04" y2="242.8"/>
		</g>
		<g>
			<g id="ELLIPSE">
				<path class="st4" d="M217.71,229.14c0-2.24-2.48-4.06-5.55-4.06c-3.06,0-5.55,1.82-5.55,4.06c0,2.24,2.48,4.06,5.55,4.06
					C215.23,233.2,217.71,231.38,217.71,229.14L217.71,229.14z"/>
			</g>
			<g id="ELLIPSE_1_">
				<path class="st4" d="M340.82,178.2c0-2.24-2.48-4.06-5.55-4.06c-3.06,0-5.55,1.82-5.55,4.06s2.48,4.06,5.55,4.06
					C338.34,182.26,340.82,180.44,340.82,178.2L340.82,178.2z"/>
			</g>
			<g id="LINE_47_">
				<line class="st4" x1="319.3" y1="344.32" x2="172.5" y2="252.28"/>
			</g>
			<g id="LINE_48_">
				<line class="st4" x1="335.73" y1="339.78" x2="232.91" y2="274"/>
			</g>
			<g id="LINE_49_">
				<line class="st4" x1="345" y1="323.35" x2="231.55" y2="253.61"/>
			</g>
			<g id="LINE_50_">
				<line class="st4" x1="344.73" y1="327.59" x2="231.33" y2="257.04"/>
			</g>
			<g id="LINE_51_">
				<line class="st4" x1="344.44" y1="331.94" x2="231.12" y2="260.25"/>
			</g>
			<g id="LINE_52_">
				<line class="st4" x1="276.61" y1="356.27" x2="111.35" y2="248.53"/>
			</g>
			<g id="LINE_53_">
				<line class="st4" x1="276.4" y1="359.57" x2="110.97" y2="251.12"/>
			</g>
			<g id="LINE_54_">
				<line class="st4" x1="276.12" y1="363.8" x2="110.5" y2="254.26"/>
			</g>
			<g id="LINE_56_">
				<line class="st4" x1="304.82" y1="354.63" x2="122.86" y2="240.14"/>
			</g>
			<g id="LINE_72_">
				<line class="st4" x1="345.27" y1="319.21" x2="355.92" y2="314.09"/>
			</g>
			<g id="LINE_73_">
				<line class="st4" x1="335.73" y1="339.78" x2="319.3" y2="344.32"/>
			</g>
			<g id="LINE_75_">
				<line class="st4" x1="304.82" y1="354.63" x2="319.3" y2="344.32"/>
			</g>
			<g id="LINE_76_">
				<line class="st4" x1="355.92" y1="314.09" x2="360.92" y2="327.68"/>
			</g>
			<g id="LINE_77_">
				<line class="st4" x1="276.88" y1="352.06" x2="287.45" y2="346.99"/>
			</g>
			<g id="LINE_78_">
				<line class="st4" x1="287.45" y1="346.99" x2="292.46" y2="360.57"/>
			</g>
			<g id="LINE_79_">
				<line class="st4" x1="276.88" y1="352.06" x2="275.81" y2="368.57"/>
			</g>
			<g id="LINE_80_">
				<line class="st4" x1="345.27" y1="319.21" x2="344.2" y2="335.71"/>
			</g>
			<g id="LINE_82_">
				<line class="st4" x1="292.46" y1="360.57" x2="304.82" y2="354.63"/>
			</g>
			<g id="LINE_83_">
				<line class="st4" x1="270.88" y1="370.94" x2="275.81" y2="368.57"/>
			</g>
			<g id="LINE_84_">
				<line class="st4" x1="335.73" y1="339.78" x2="344.2" y2="335.71"/>
			</g>
			<g id="LINE_85_">
				<line class="st4" x1="151.39" y1="217.42" x2="151.39" y2="186.45"/>
			</g>
			<g id="LINE_86_">
				<line class="st4" x1="151.39" y1="186.45" x2="263.29" y2="138.44"/>
			</g>
			<g id="LINE_88_">
				<line class="st4" x1="189.04" y1="242.8" x2="208.47" y2="254.89"/>
			</g>
			<g id="LINE_89_">
				<line class="st4" x1="212.13" y1="271.52" x2="210.11" y2="257.4"/>
			</g>
			<g id="SPLINE">
				<path class="st4" d="M210.11,257.4c-0.15-1.04-0.75-1.95-1.64-2.51"/>
			</g>
			<g id="LINE_101_">
				<line class="st4" x1="299.77" y1="84.41" x2="94.27" y2="166.38"/>
			</g>
			<g id="LINE_102_">
				<line class="st4" x1="283.6" y1="121.98" x2="80.38" y2="205.22"/>
			</g>
			<g id="SPLINE_2_">
				<path class="st4" d="M87.05,200.69c3.83-5.99,6.3-12.74,7.22-19.79"/>
			</g>
			<g id="LINE_103_">
				<line class="st4" x1="94.27" y1="180.9" x2="94.27" y2="166.38"/>
			</g>
			<g id="SPLINE_3_">
				<path class="st4" d="M283.6,121.98c9.71-3.51,16.17-12.73,16.17-23.05"/>
			</g>
			<g id="LINE_106_">
				<line class="st4" x1="263.29" y1="164.2" x2="263.29" y2="130.3"/>
			</g>
			<g id="LINE_290_">
				<line class="st4" x1="212.13" y1="271.52" x2="230.94" y2="263.14"/>
			</g>
			<g id="LINE_294_">
				<line class="st4" x1="316.75" y1="225.35" x2="354.37" y2="208.74"/>
			</g>
			<g id="LINE_308_">
				<line class="st4" x1="345.27" y1="319.21" x2="231.84" y2="249.13"/>
			</g>
			<g id="LINE_309_">
				<line class="st4" x1="344.2" y1="335.71" x2="230.94" y2="263.14"/>
			</g>
			<g id="LINE_310_">
				<line class="st4" x1="276.88" y1="352.06" x2="111.86" y2="245.03"/>
			</g>
			<g id="LINE_311_">
				<line class="st4" x1="270.88" y1="370.94" x2="106.8" y2="260.53"/>
			</g>
			<g id="LINE_312_">
				<line class="st4" x1="275.81" y1="368.57" x2="109.79" y2="259.1"/>
			</g>
			<g id="LINE_314_">
				<line class="st4" x1="287.45" y1="346.99" x2="122.86" y2="240.14"/>
			</g>
			<g id="LINE_317_">
				<line class="st4" x1="231.84" y1="249.13" x2="230.94" y2="263.14"/>
			</g>
			<g id="LINE_318_">
				<line class="st4" x1="291.61" y1="222.52" x2="302.05" y2="217.88"/>
			</g>
			<g id="LINE_319_">
				<line class="st4" x1="252.88" y1="253.38" x2="290.95" y2="236.43"/>
			</g>
			<g id="LINE_320_">
				<line class="st4" x1="355.92" y1="314.09" x2="239.44" y2="245.75"/>
			</g>
			<g id="LINE_321_">
				<line class="st4" x1="291.61" y1="222.52" x2="290.95" y2="236.43"/>
			</g>
			<g id="LINE_326_">
				<line class="st4" x1="354.37" y1="208.74" x2="354.71" y2="194.43"/>
			</g>
			<g id="LINE_335_">
				<line class="st4" x1="360.92" y1="327.68" x2="345.94" y2="318.89"/>
			</g>
			<g id="LINE_336_">
				<line class="st4" x1="292.46" y1="360.57" x2="278.3" y2="351.38"/>
			</g>
			<g id="LINE_337_">
				<line class="st4" x1="231.84" y1="249.13" x2="239.44" y2="245.75"/>
			</g>
			<g id="LINE_338_">
				<line class="st4" x1="214.53" y1="225.47" x2="209.74" y2="232.79"/>
			</g>
			<g id="LINE_339_">
				<line class="st4" x1="337.64" y1="174.53" x2="332.86" y2="181.85"/>
			</g>
			<g>
				<g id="LINE">
					<line class="st4" x1="209.08" y1="255.37" x2="522.16" y2="117.44"/>
				</g>
				<g id="LINE_1_">
					<line class="st4" x1="522.94" y1="118.65" x2="210.11" y2="257.4"/>
				</g>
				<g id="LINE_15_">
					<line class="st4" x1="152.61" y1="220.09" x2="477.13" y2="77.5"/>
				</g>
				<g id="LINE_16_">
					<line class="st4" x1="151.46" y1="218.11" x2="464.51" y2="80.2"/>
				</g>
				<g id="ELLIPSE_2_">
					<path class="st4" d="M454.92,129.33c0-2.24-2.48-4.06-5.55-4.06c-3.06,0-5.55,1.82-5.55,4.06c0,2.24,2.48,4.06,5.55,4.06
						C452.44,133.39,454.92,131.57,454.92,129.33L454.92,129.33z"/>
				</g>
				<g id="LINE_21_">
					<line class="st4" x1="387.77" y1="311.43" x2="277.89" y2="249.05"/>
				</g>
				<g id="LINE_22_">
					<line class="st4" x1="404.2" y1="306.88" x2="293.01" y2="243.76"/>
				</g>
				<g id="LINE_23_">
					<line class="st4" x1="373.29" y1="321.73" x2="239.44" y2="245.75"/>
				</g>
				<g id="LINE_24_">
					<line class="st4" x1="441.75" y1="288.84" x2="302.05" y2="217.88"/>
				</g>
				<g id="LINE_25_">
					<line class="st4" x1="410.69" y1="291.52" x2="291.44" y2="226.23"/>
				</g>
				<g id="LINE_26_">
					<line class="st4" x1="410.45" y1="295.34" x2="291.26" y2="229.88"/>
				</g>
				<g id="LINE_27_">
					<line class="st4" x1="410.19" y1="299.29" x2="291.11" y2="232.97"/>
				</g>
				<g id="LINE_28_">
					<line class="st4" x1="456.23" y1="278.53" x2="348.55" y2="223.29"/>
				</g>
				<g id="LINE_29_">
					<line class="st4" x1="472.66" y1="273.99" x2="360.26" y2="217.7"/>
				</g>
				<g id="LINE_30_">
					<line class="st4" x1="510.22" y1="255.94" x2="364.79" y2="189.94"/>
				</g>
				<g id="LINE_31_">
					<line class="st4" x1="479.16" y1="258.63" x2="354.61" y2="198.49"/>
				</g>
				<g id="LINE_32_">
					<line class="st4" x1="478.91" y1="262.44" x2="354.54" y2="201.54"/>
				</g>
				<g id="LINE_33_">
					<line class="st4" x1="478.65" y1="266.4" x2="354.47" y2="204.74"/>
				</g>
				<g id="LINE_34_">
					<line class="st4" x1="518.49" y1="250.06" x2="400.8" y2="194.03"/>
				</g>
				<g id="LINE_35_">
					<line class="st4" x1="524.41" y1="243.19" x2="411.19" y2="189.31"/>
				</g>
				<g id="LINE_36_">
					<line class="st4" x1="524.41" y1="226.18" x2="411.28" y2="173.14"/>
				</g>
				<g id="LINE_37_">
					<line class="st4" x1="524.41" y1="230.82" x2="411.16" y2="176.79"/>
				</g>
				<g id="LINE_38_">
					<line class="st4" x1="524.41" y1="233.87" x2="411.05" y2="180.51"/>
				</g>
				<g id="LINE_39_">
					<line class="st4" x1="524.41" y1="211.35" x2="420.46" y2="165.16"/>
				</g>
				<g id="LINE_40_">
					<line class="st4" x1="524.41" y1="202.06" x2="460.52" y2="171.65"/>
				</g>
				<g id="LINE_41_">
					<line class="st4" x1="524.41" y1="177.78" x2="463.35" y2="149.48"/>
				</g>
				<g id="LINE_42_">
					<line class="st4" x1="524.41" y1="181.2" x2="463.27" y2="153.13"/>
				</g>
				<g id="LINE_43_">
					<line class="st4" x1="524.41" y1="184.33" x2="463.19" y2="156.88"/>
				</g>
				<g id="LINE_44_">
					<line class="st4" x1="524.41" y1="131.1" x2="515.17" y2="126.76"/>
				</g>
				<g id="LINE_45_">
					<line class="st4" x1="524.41" y1="134.86" x2="515.09" y2="130.41"/>
				</g>
				<g id="LINE_46_">
					<line class="st4" x1="524.41" y1="138.78" x2="515" y2="134.35"/>
				</g>
				<g id="LINE_55_">
					<line class="st4" x1="473.01" y1="141.86" x2="524.41" y2="164.28"/>
				</g>
				<g id="LINE_57_">
					<line class="st4" x1="410.94" y1="287.65" x2="424.38" y2="281.2"/>
				</g>
				<g id="LINE_58_">
					<line class="st4" x1="410.94" y1="287.65" x2="409.88" y2="304.15"/>
				</g>
				<g id="LINE_59_">
					<line class="st4" x1="404.2" y1="306.88" x2="387.77" y2="311.43"/>
				</g>
				<g id="LINE_60_">
					<line class="st4" x1="429.38" y1="294.78" x2="441.75" y2="288.84"/>
				</g>
				<g id="LINE_61_">
					<line class="st4" x1="404.2" y1="306.88" x2="409.88" y2="304.15"/>
				</g>
				<g id="LINE_62_">
					<line class="st4" x1="373.29" y1="321.73" x2="387.77" y2="311.43"/>
				</g>
				<g id="LINE_63_">
					<line class="st4" x1="424.38" y1="281.2" x2="429.38" y2="294.78"/>
				</g>
				<g id="LINE_64_">
					<line class="st4" x1="479.41" y1="254.76" x2="491.05" y2="249.17"/>
				</g>
				<g id="LINE_65_">
					<line class="st4" x1="479.41" y1="254.76" x2="478.34" y2="271.26"/>
				</g>
				<g id="LINE_66_">
					<line class="st4" x1="472.66" y1="273.99" x2="456.23" y2="278.53"/>
				</g>
				<g id="LINE_67_">
					<line class="st4" x1="497.85" y1="261.89" x2="510.22" y2="255.94"/>
				</g>
				<g id="LINE_68_">
					<line class="st4" x1="472.66" y1="273.99" x2="478.34" y2="271.26"/>
				</g>
				<g id="LINE_69_">
					<line class="st4" x1="441.75" y1="288.84" x2="456.23" y2="278.53"/>
				</g>
				<g id="LINE_70_">
					<line class="st4" x1="491.05" y1="249.17" x2="497.85" y2="261.89"/>
				</g>
				<g id="LINE_71_">
					<line class="st4" x1="510.22" y1="255.94" x2="524.41" y2="245.84"/>
				</g>
				<g id="LINE_74_">
					<line class="st4" x1="360.92" y1="327.68" x2="373.29" y2="321.73"/>
				</g>
				<g id="LINE_105_">
					<line class="st4" x1="263.29" y1="164.2" x2="475.76" y2="70.85"/>
				</g>
				<g id="LINE_107_">
					<line class="st4" x1="382.6" y1="75.61" x2="296.36" y2="111.4"/>
				</g>
				<g id="LINE_285_">
					<line class="st4" x1="384.65" y1="78.69" x2="291.36" y2="117.41"/>
				</g>
				<g id="LINE_287_">
					<line class="st4" x1="424.38" y1="281.2" x2="302.05" y2="217.88"/>
				</g>
				<g id="LINE_288_">
					<line class="st4" x1="410.94" y1="287.65" x2="291.61" y2="222.52"/>
				</g>
				<g id="LINE_289_">
					<line class="st4" x1="409.88" y1="304.15" x2="290.95" y2="236.43"/>
				</g>
				<g id="LINE_291_">
					<line class="st4" x1="491.05" y1="249.17" x2="364.79" y2="189.94"/>
				</g>
				<g id="LINE_292_">
					<line class="st4" x1="479.41" y1="254.76" x2="354.71" y2="194.43"/>
				</g>
				<g id="LINE_293_">
					<line class="st4" x1="478.34" y1="271.26" x2="354.37" y2="208.74"/>
				</g>
				<g id="LINE_295_">
					<line class="st4" x1="380.66" y1="197.15" x2="411.08" y2="183.72"/>
				</g>
				<g id="LINE_296_">
					<line class="st4" x1="524.41" y1="212.41" x2="420.46" y2="165.16"/>
				</g>
				<g id="LINE_297_">
					<line class="st4" x1="524.41" y1="222.7" x2="411.4" y2="169.19"/>
				</g>
				<g id="LINE_298_">
					<line class="st4" x1="524.41" y1="237.43" x2="411.08" y2="183.72"/>
				</g>
				<g id="LINE_299_">
					<line class="st4" x1="411.4" y1="169.19" x2="410.96" y2="183.27"/>
				</g>
				<g id="LINE_300_">
					<line class="st4" x1="436.75" y1="172.39" x2="463.1" y2="160.76"/>
				</g>
				<g id="LINE_301_">
					<line class="st4" x1="524.41" y1="165.22" x2="473.01" y2="141.86"/>
				</g>
				<g id="LINE_302_">
					<line class="st4" x1="524.41" y1="174.63" x2="463.42" y2="146.11"/>
				</g>
				<g id="LINE_303_">
					<line class="st4" x1="524.41" y1="187.73" x2="463.1" y2="160.76"/>
				</g>
				<g id="LINE_304_">
					<line class="st4" x1="524.41" y1="192.03" x2="463.43" y2="164.45"/>
				</g>
				<g id="LINE_305_">
					<line class="st4" x1="524.41" y1="127.58" x2="515.24" y2="123.24"/>
				</g>
				<g id="LINE_306_">
					<line class="st4" x1="524.41" y1="142.39" x2="514.92" y2="137.9"/>
				</g>
				<g id="LINE_307_">
					<line class="st4" x1="524.41" y1="146.67" x2="510.27" y2="139.95"/>
				</g>
				<g id="LINE_327_">
					<line class="st4" x1="411.4" y1="169.19" x2="420.46" y2="165.16"/>
				</g>
				<g id="LINE_328_">
					<line class="st4" x1="489.24" y1="149.23" x2="514.92" y2="137.9"/>
				</g>
				<g id="LINE_329_">
					<line class="st4" x1="463.42" y1="146.11" x2="463.1" y2="160.76"/>
				</g>
				<g id="LINE_330_">
					<line class="st4" x1="473.01" y1="141.86" x2="463.42" y2="146.11"/>
				</g>
				<g id="LINE_331_">
					<line class="st4" x1="515.24" y1="123.24" x2="514.92" y2="137.9"/>
				</g>
				<g id="LINE_332_">
					<line class="st4" x1="524.41" y1="119.17" x2="515.24" y2="123.24"/>
				</g>
				<g id="LINE_333_">
					<line class="st4" x1="497.85" y1="261.89" x2="481.01" y2="253.99"/>
				</g>
				<g id="LINE_334_">
					<line class="st4" x1="429.38" y1="294.78" x2="413.36" y2="286.49"/>
				</g>
				<g id="LINE_340_">
					<line class="st4" x1="451.74" y1="125.66" x2="446.95" y2="132.99"/>
				</g>
			</g>
		</g>
	</g>
</g>
<g>
	<g id="POLYLINE">
		<g>
			<g>
				<g>
					<g>
						<polyline class="st5" points="258.67,145.6 193.63,39.19 134.86,39.19 						"/>
						<g>
							<polygon class="st0" points="260.11,142.39 263.29,153.16 255.15,145.42 							"/>
						</g>
					</g>
				</g>
			</g>
		</g>
	</g>
	<g id="LINE_17_">
		<line class="st5" x1="263.29" y1="118.5" x2="263.29" y2="45.08"/>
	</g>
	<g id="LINE_18_">
		<line class="st5" x1="299.77" y1="79.6" x2="299.77" y2="45.08"/>
	</g>
	<g id="LINE_19_">
		<g>
			<g>
				<g>
					<g>
						<line class="st5" x1="291.52" y1="54.37" x2="271.54" y2="62.17"/>
						<g>
							<polygon class="st0" points="288.62,52.39 299.77,51.15 290.73,57.8 							"/>
						</g>
						<g>
							<polygon class="st0" points="272.33,58.74 263.29,65.39 274.44,64.16 							"/>
						</g>
					</g>
				</g>
			</g>
		</g>
	</g>
	<g id="LINE_20_">
		<line class="st5" x1="408.04" y1="51.15" x2="299.77" y2="51.15"/>
	</g>
</g>
</svg>
