<?xml version="1.0" encoding="utf-8"?>
<!-- Generator: Adobe Illustrator 26.3.1, SVG Export Plug-In . SVG Version: 6.00 Build 0)  -->
<svg version="1.1" id="LINE_70" xmlns="http://www.w3.org/2000/svg" xmlns:xlink="http://www.w3.org/1999/xlink" x="0px" y="0px"
	 viewBox="0 0 552.76 519.96" style="enable-background:new 0 0 552.76 519.96;" xml:space="preserve">
<style type="text/css">
	.st0{fill:#231F20;}
	.st1{font-family:'ArialMT';}
	.st2{font-size:12px;}
	.st3{fill:none;stroke:#231F20;stroke-width:0.25;stroke-miterlimit:10;}
	.st4{fill:none;stroke:#231F20;stroke-miterlimit:10;}
	.st5{fill:none;stroke:#231F20;stroke-miterlimit:10;stroke-dasharray:12.1403,12.1403;}
	.st6{fill:none;stroke:#231F20;stroke-width:1.5;stroke-linecap:round;stroke-miterlimit:10;}
</style>
<g id="MTEXT">
	<g>
		<text transform="matrix(1 0 0 1 235.0001 43.3418)" class="st0 st1 st2">Overhang</text>
	</g>
</g>
<g id="MTEXT_1_">
	<g>
		<text transform="matrix(1 0 0 1 351.766 60.3626)" class="st0 st1 st2">Roof</text>
	</g>
</g>
<g id="MTEXT_2_">
	<g>
		<text transform="matrix(1 0 0 1 126.888 489.6107)" class="st0 st1 st2">Bund/speed hump/ kerbing</text>
	</g>
</g>
<g id="MTEXT_3_">
	<g>
		<text transform="matrix(0.9962 -0.0872 0.0872 0.9962 258.3484 157.1977)" class="st0 st1 st2">10°</text>
	</g>
</g>
<g id="MTEXT_4_">
	<g>
		<text transform="matrix(0 -1 1 0 347.7718 388.4193)" class="st0 st1 st2">150 mm</text>
		<text transform="matrix(0 -1 1 0 365.6449 374.4841)" class="st0 st1 st2">min.</text>
	</g>
</g>
<g id="LINE_19_">
	<g id="LINE_22_">
		<g>
			<g>
				<g>
					<line class="st3" x1="238.64" y1="56.44" x2="284.36" y2="56.44"/>
					<g>
						<polygon class="st0" points="240.13,58.62 232,56.44 240.13,54.26 						"/>
					</g>
					<g>
						<polygon class="st0" points="282.87,58.62 291,56.44 282.87,54.26 						"/>
					</g>
				</g>
			</g>
		</g>
	</g>
</g>
<g>
	<g>
		<g>
			<polyline class="st3" points="292.79,456.52 285.22,486.28 276.38,486.28 			"/>
			<g>
				<polygon class="st0" points="290.32,457.42 294.43,450.08 294.54,458.5 				"/>
			</g>
		</g>
	</g>
</g>
<g id="ARC_1_">
	<g id="ARC_3_">
		<g>
			<g>
				<g>
					<path class="st3" d="M284.38,159.82c-9.1,0.76-24.9,2.14-34,2.97"/>
					<g>
						<polygon class="st0" points="282.71,157.83 291,159.29 283.09,162.17 						"/>
					</g>
					<g>
						<polygon class="st0" points="251.68,160.54 243.77,163.42 252.06,164.89 						"/>
					</g>
				</g>
			</g>
		</g>
	</g>
</g>
<g>
	<g id="LINE_21_">
		<g>
			<line class="st3" x1="232" y1="85.25" x2="232" y2="47.86"/>
		</g>
	</g>
	<g id="LINE_20_">
		<g>
			<line class="st3" x1="291" y1="73.75" x2="291" y2="47.86"/>
		</g>
	</g>
	<g id="LINE_18_">
		<g>
			<line class="st3" x1="316.69" y1="431.33" x2="361.13" y2="431.33"/>
		</g>
	</g>
</g>
<g id="LINE_16_">
	<g id="LINE_14_">
		<g>
			<g>
				<g>
					<line class="st3" x1="352.54" y1="456.92" x2="352.54" y2="484.61"/>
					<g>
						<polygon class="st0" points="350.36,458.4 352.54,450.27 354.72,458.4 						"/>
					</g>
				</g>
			</g>
		</g>
	</g>
</g>
<g id="LINE_15_">
	<g id="LINE_13_">
		<g>
			<g>
				<g>
					<line class="st3" x1="352.54" y1="424.68" x2="352.54" y2="316.81"/>
					<g>
						<polygon class="st0" points="354.72,423.2 352.54,431.33 350.36,423.2 						"/>
					</g>
				</g>
			</g>
		</g>
	</g>
</g>
<g id="LINE_7_">
	<g>
		<g>
			<line class="st4" x1="291" y1="431.33" x2="289.96" y2="425.42"/>
			<line class="st5" x1="287.85" y1="413.46" x2="234.1" y2="108.59"/>
			<line class="st4" x1="233.04" y1="102.61" x2="232" y2="96.7"/>
		</g>
	</g>
</g>
<g>
	<g id="LINE">
		<line class="st6" x1="232" y1="96.7" x2="523.36" y2="40.59"/>
	</g>
	<g id="LINE_23_">
		<g>
			<line class="st6" x1="291" y1="431.33" x2="291" y2="85.19"/>
		</g>
	</g>
	<g id="LINE_28_">
		<g>
			<line class="st6" x1="28.35" y1="450.27" x2="284.07" y2="450.27"/>
		</g>
	</g>
	<g id="LINE_2_">
		<g>
			<line class="st6" x1="305.25" y1="450.08" x2="523.36" y2="450.08"/>
		</g>
	</g>
	<g id="LINE_3_">
		<g>
			<line class="st6" x1="284.07" y1="450.27" x2="284.07" y2="431.33"/>
		</g>
	</g>
	<g id="LINE_4_">
		<g>
			<line class="st6" x1="284.07" y1="431.33" x2="305.25" y2="431.33"/>
		</g>
	</g>
	<g id="LINE_5_">
		<g>
			<line class="st6" x1="305.25" y1="431.33" x2="305.25" y2="450.27"/>
		</g>
	</g>
</g>
</svg>
