<?xml version="1.0" encoding="utf-8"?>
<!-- Generator: Adobe Illustrator 26.3.1, SVG Export Plug-In . SVG Version: 6.00 Build 0)  -->
<svg version="1.1" id="Leader" xmlns="http://www.w3.org/2000/svg" xmlns:xlink="http://www.w3.org/1999/xlink" x="0px" y="0px"
	 viewBox="0 0 552.76 181.16" style="enable-background:new 0 0 552.76 181.16;" xml:space="preserve">
<style type="text/css">
	.st0{fill:none;}
	.st1{fill:none;stroke:#231F20;stroke-width:0.25;stroke-miterlimit:10;}
	.st2{fill:#231F20;}
	.st3{fill:none;stroke:#231F20;stroke-miterlimit:10;}
	.st4{fill:none;stroke:#231F20;stroke-width:0.75;stroke-miterlimit:10;}
	.st5{fill:none;stroke:#231F20;stroke-linecap:round;stroke-miterlimit:10;}
	.st6{fill:none;stroke:#231F20;stroke-width:0.75;stroke-linecap:round;stroke-miterlimit:10;}
	.st7{fill:none;stroke:#000000;stroke-width:0;stroke-linecap:round;stroke-linejoin:round;stroke-miterlimit:10;}
	.st8{font-family:'ArialMT';}
	.st9{font-size:12px;}
	.st10{font-family:'Arial-BoldMT';}
</style>
<g>
	<path class="st0" d="M253.99,115.09"/>
</g>
<g>
	<g>
		<polyline class="st1" points="423.33,83.1 429.19,83.1 447.42,71.15 		"/>
		<g>
			<polygon class="st2" points="447.37,73.79 452.98,67.5 444.98,70.14 			"/>
		</g>
	</g>
</g>
<g>
	<g>
		<g>
			<line class="st1" x1="241.52" y1="115.09" x2="256.92" y2="115.09"/>
			<g>
				<polygon class="st2" points="243,117.27 234.87,115.09 243,112.91 				"/>
			</g>
		</g>
	</g>
	<g>
		<g>
			<polyline class="st1" points="256.92,41.93 239.91,41.93 228.9,48.33 			"/>
			<g>
				<polygon class="st2" points="229.09,45.69 223.16,51.66 231.28,49.46 				"/>
			</g>
		</g>
	</g>
	<g>
		<g>
			<line class="st1" x1="230.18" y1="60.41" x2="256.72" y2="60.41"/>
			<g>
				<polygon class="st2" points="231.67,62.59 223.54,60.41 231.67,58.24 				"/>
			</g>
		</g>
	</g>
	<g>
		<g>
			<line class="st1" x1="232.03" y1="76.57" x2="257.11" y2="76.59"/>
			<g>
				<polygon class="st2" points="233.52,78.75 225.39,76.56 233.52,74.39 				"/>
			</g>
		</g>
	</g>
</g>
<g id="LWPOLYLINE_2_">
	<g>
		<rect x="28.54" y="48.06" class="st3" width="134.52" height="79.11"/>
	</g>
</g>
<g>
	<g id="LINE_51_">
		<line class="st4" x1="197.9" y1="51.8" x2="231" y2="51.8"/>
	</g>
	<polyline class="st4" points="231.33,51.15 231.33,56 197.9,56 197.9,51.15 	"/>
	<polyline class="st4" points="230.82,51.66 230.82,55.08 198.41,55.08 198.41,51.66 	"/>
	<g id="LINE_65_">
		<line class="st4" x1="213.4" y1="51.66" x2="213.4" y2="55.08"/>
	</g>
	<g id="LINE_66_">
		<line class="st4" x1="215.84" y1="51.66" x2="215.84" y2="55.08"/>
	</g>
	<g id="LINE_67_">
		<line class="st4" x1="208.51" y1="51.66" x2="208.51" y2="55.08"/>
	</g>
	<g id="LINE_68_">
		<line class="st4" x1="210.96" y1="51.66" x2="210.96" y2="55.08"/>
	</g>
	<g id="LINE_69_">
		<line class="st4" x1="203.63" y1="51.66" x2="203.63" y2="55.08"/>
	</g>
	<g id="LINE_70_">
		<line class="st4" x1="206.07" y1="51.66" x2="206.07" y2="55.08"/>
	</g>
	<g id="LINE_71_">
		<line class="st4" x1="201.19" y1="51.66" x2="201.19" y2="55.08"/>
	</g>
	<g id="LINE_72_">
		<line class="st4" x1="220.72" y1="51.66" x2="220.72" y2="55.08"/>
	</g>
	<g id="LINE_73_">
		<line class="st4" x1="218.28" y1="51.66" x2="218.28" y2="55.08"/>
	</g>
	<g id="LINE_74_">
		<line class="st4" x1="225.6" y1="51.66" x2="225.6" y2="55.08"/>
	</g>
	<g id="LINE_75_">
		<line class="st4" x1="223.16" y1="51.66" x2="223.16" y2="55.08"/>
	</g>
	<g id="LINE_76_">
		<line class="st4" x1="228.04" y1="51.66" x2="228.04" y2="55.08"/>
	</g>
</g>
<g>
	<g id="LINE_33_">
		<g>
			<line class="st5" x1="204.66" y1="87.63" x2="224.57" y2="87.63"/>
		</g>
	</g>
	<g id="LINE_37_">
		<g>
			<line class="st5" x1="204.66" y1="79.55" x2="204.66" y2="87.16"/>
		</g>
	</g>
	<path class="st5" d="M204.66,79.55L201.07,61c-0.34-1.03-1.1-1.87-2.1-2.3l-1.7-0.56c-0.97-0.24-1.66-1.11-1.67-2.11v-4.38h2.3"/>
	<g id="LINE_54_">
		<g>
			<line class="st5" x1="224.57" y1="79.55" x2="224.57" y2="87.16"/>
		</g>
	</g>
	<path class="st5" d="M224.57,79.55L228.16,61c0.34-1.03,1.1-1.87,2.1-2.3l1.7-0.56c0.97-0.24,1.66-1.11,1.67-2.11v-4.38h-2.3"/>
	<path class="st5" d="M253.51,104.34l-12.24-0.83c-0.52-0.04-1,0.24-1.24,0.7l-4.65,9.07c-2.22,4.32-6.42,7.28-11.23,7.91
		c-8.09,1.06-15.51-4.64-16.57-12.73l-2.14-16.34c-0.2-0.81-0.77-1.48-1.54-1.79c-0.49-0.17-0.94-0.43-1.34-0.75
		c-0.79-0.76-1.31-1.77-1.45-2.86v-4.02h3.55"/>
	<path class="st5" d="M224.57,82.69h3.55v4.02c-0.15,1.09-0.66,2.1-1.45,2.86c-0.4,0.32-0.86,0.57-1.34,0.75
		c-0.77,0.32-1.34,0.98-1.54,1.79l-1.14,8.7c-0.12,0.92,0.53,1.77,1.45,1.89c0.72,0.09,1.42-0.28,1.74-0.94l3.74-7.77
		c1.61-3.34,5.09-5.37,8.79-5.12l16.12,1.1"/>
	<g id="ELLIPSE_1_">
		<g>
			<path class="st6" d="M254,97.16c-1.04-0.07-2,1.48-2.14,3.46c-0.14,1.98,0.6,3.65,1.65,3.72c1.04,0.07,2-1.48,2.14-3.46
				C255.78,98.9,255.05,97.23,254,97.16L254,97.16z"/>
		</g>
	</g>
	<path class="st6" d="M254.49,89.97c1.04,0.07,1.78,1.74,1.65,3.72c-0.14,1.98-1.09,3.53-2.14,3.46"/>
</g>
<g>
	<g id="POINT">
		<line class="st4" x1="475.69" y1="93.21" x2="475.69" y2="93.21"/>
	</g>
	<g id="CIRCLE">
		<path class="st4" d="M464.1,72.14c0-0.58,0.47-1.05,1.05-1.05c0.58,0,1.05,0.47,1.05,1.05c0,0.58-0.47,1.05-1.05,1.05
			C464.58,73.19,464.1,72.72,464.1,72.14L464.1,72.14z"/>
	</g>
	<g id="CIRCLE_1_">
		<path class="st4" d="M469.37,72.14c0-0.58,0.47-1.05,1.05-1.05s1.05,0.47,1.05,1.05c0,0.58-0.47,1.05-1.05,1.05
			S469.37,72.72,469.37,72.14L469.37,72.14z"/>
	</g>
	<g id="CIRCLE_2_">
		<path class="st4" d="M474.64,72.14c0-0.58,0.47-1.05,1.05-1.05c0.58,0,1.05,0.47,1.05,1.05c0,0.58-0.47,1.05-1.05,1.05
			C475.11,73.19,474.64,72.72,474.64,72.14L474.64,72.14z"/>
	</g>
	<g id="CIRCLE_3_">
		<path class="st4" d="M464.1,77.41c0-0.58,0.47-1.05,1.05-1.05c0.58,0,1.05,0.47,1.05,1.05c0,0.58-0.47,1.05-1.05,1.05
			C464.58,78.46,464.1,77.99,464.1,77.41L464.1,77.41z"/>
	</g>
	<g id="CIRCLE_4_">
		<path class="st4" d="M469.37,77.41c0-0.58,0.47-1.05,1.05-1.05s1.05,0.47,1.05,1.05c0,0.58-0.47,1.05-1.05,1.05
			S469.37,77.99,469.37,77.41L469.37,77.41z"/>
	</g>
	<g id="CIRCLE_5_">
		<path class="st4" d="M474.64,77.41c0-0.58,0.47-1.05,1.05-1.05c0.58,0,1.05,0.47,1.05,1.05c0,0.58-0.47,1.05-1.05,1.05
			C475.11,78.46,474.64,77.99,474.64,77.41L474.64,77.41z"/>
	</g>
	<g id="CIRCLE_6_">
		<path class="st4" d="M464.1,82.67c0-0.58,0.47-1.05,1.05-1.05c0.58,0,1.05,0.47,1.05,1.05c0,0.58-0.47,1.05-1.05,1.05
			C464.58,83.73,464.1,83.26,464.1,82.67L464.1,82.67z"/>
	</g>
	<g id="CIRCLE_7_">
		<path class="st4" d="M469.37,82.67c0-0.58,0.47-1.05,1.05-1.05s1.05,0.47,1.05,1.05c0,0.58-0.47,1.05-1.05,1.05
			S469.37,83.26,469.37,82.67L469.37,82.67z"/>
	</g>
	<g id="CIRCLE_8_">
		<path class="st4" d="M474.64,82.67c0-0.58,0.47-1.05,1.05-1.05c0.58,0,1.05,0.47,1.05,1.05c0,0.58-0.47,1.05-1.05,1.05
			C475.11,83.73,474.64,83.26,474.64,82.67L474.64,82.67z"/>
	</g>
	<g id="CIRCLE_9_">
		<path class="st4" d="M464.1,87.94c0-0.58,0.47-1.05,1.05-1.05c0.58,0,1.05,0.47,1.05,1.05S465.74,89,465.16,89
			C464.58,89,464.1,88.52,464.1,87.94L464.1,87.94z"/>
	</g>
	<g id="CIRCLE_10_">
		<path class="st4" d="M469.37,87.94c0-0.58,0.47-1.05,1.05-1.05s1.05,0.47,1.05,1.05S471.01,89,470.43,89
			S469.37,88.52,469.37,87.94L469.37,87.94z"/>
	</g>
	<g id="CIRCLE_11_">
		<path class="st4" d="M474.64,87.94c0-0.58,0.47-1.05,1.05-1.05c0.58,0,1.05,0.47,1.05,1.05S476.27,89,475.69,89
			C475.11,89,474.64,88.52,474.64,87.94L474.64,87.94z"/>
	</g>
	<g id="CIRCLE_12_">
		<path class="st4" d="M458.84,72.14c0-0.58,0.47-1.05,1.05-1.05c0.58,0,1.05,0.47,1.05,1.05c0,0.58-0.47,1.05-1.05,1.05
			C459.31,73.19,458.84,72.72,458.84,72.14L458.84,72.14z"/>
	</g>
	<g id="CIRCLE_13_">
		<path class="st4" d="M453.57,72.14c0-0.58,0.47-1.05,1.05-1.05c0.58,0,1.05,0.47,1.05,1.05c0,0.58-0.47,1.05-1.05,1.05
			C454.04,73.19,453.57,72.72,453.57,72.14L453.57,72.14z"/>
	</g>
	<g id="CIRCLE_14_">
		<path class="st4" d="M458.84,77.41c0-0.58,0.47-1.05,1.05-1.05c0.58,0,1.05,0.47,1.05,1.05c0,0.58-0.47,1.05-1.05,1.05
			C459.31,78.46,458.84,77.99,458.84,77.41L458.84,77.41z"/>
	</g>
	<g id="CIRCLE_15_">
		<path class="st4" d="M453.57,77.41c0-0.58,0.47-1.05,1.05-1.05c0.58,0,1.05,0.47,1.05,1.05c0,0.58-0.47,1.05-1.05,1.05
			C454.04,78.46,453.57,77.99,453.57,77.41L453.57,77.41z"/>
	</g>
	<g id="CIRCLE_16_">
		<path class="st4" d="M458.84,82.67c0-0.58,0.47-1.05,1.05-1.05c0.58,0,1.05,0.47,1.05,1.05c0,0.58-0.47,1.05-1.05,1.05
			C459.31,83.73,458.84,83.26,458.84,82.67L458.84,82.67z"/>
	</g>
	<g id="CIRCLE_17_">
		<path class="st4" d="M453.57,82.67c0-0.58,0.47-1.05,1.05-1.05c0.58,0,1.05,0.47,1.05,1.05c0,0.58-0.47,1.05-1.05,1.05
			C454.04,83.73,453.57,83.26,453.57,82.67L453.57,82.67z"/>
	</g>
	<g id="CIRCLE_18_">
		<path class="st4" d="M458.84,87.94c0-0.58,0.47-1.05,1.05-1.05c0.58,0,1.05,0.47,1.05,1.05S460.47,89,459.89,89
			C459.31,89,458.84,88.52,458.84,87.94L458.84,87.94z"/>
	</g>
	<g id="CIRCLE_19_">
		<path class="st4" d="M453.57,87.94c0-0.58,0.47-1.05,1.05-1.05c0.58,0,1.05,0.47,1.05,1.05S455.21,89,454.62,89
			C454.04,89,453.57,88.52,453.57,87.94L453.57,87.94z"/>
	</g>
	<g id="CIRCLE_20_">
		<path class="st4" d="M464.1,93.21c0-0.58,0.47-1.05,1.05-1.05c0.58,0,1.05,0.47,1.05,1.05c0,0.58-0.47,1.05-1.05,1.05
			C464.58,94.26,464.1,93.79,464.1,93.21L464.1,93.21z"/>
	</g>
	<g id="CIRCLE_21_">
		<path class="st4" d="M469.37,93.21c0-0.58,0.47-1.05,1.05-1.05s1.05,0.47,1.05,1.05c0,0.58-0.47,1.05-1.05,1.05
			S469.37,93.79,469.37,93.21L469.37,93.21z"/>
	</g>
	<g id="CIRCLE_22_">
		<path class="st4" d="M474.64,93.21c0-0.58,0.47-1.05,1.05-1.05c0.58,0,1.05,0.47,1.05,1.05c0,0.58-0.47,1.05-1.05,1.05
			C475.11,94.26,474.64,93.79,474.64,93.21L474.64,93.21z"/>
	</g>
	<g id="CIRCLE_23_">
		<path class="st4" d="M458.84,93.21c0-0.58,0.47-1.05,1.05-1.05c0.58,0,1.05,0.47,1.05,1.05c0,0.58-0.47,1.05-1.05,1.05
			C459.31,94.26,458.84,93.79,458.84,93.21L458.84,93.21z"/>
	</g>
	<g id="CIRCLE_24_">
		<path class="st4" d="M453.57,93.21c0-0.58,0.47-1.05,1.05-1.05c0.58,0,1.05,0.47,1.05,1.05c0,0.58-0.47,1.05-1.05,1.05
			C454.04,94.26,453.57,93.79,453.57,93.21L453.57,93.21z"/>
	</g>
</g>
<polyline class="st4" points="224.37,56 220.22,78.09 209.01,78.09 204.86,56 "/>
<g>
	<g>
		<g id="CIRCLE_249_">
			<path class="st4" d="M214.05,58.46c0-0.31,0.25-0.56,0.56-0.56c0.31,0,0.56,0.25,0.56,0.56s-0.25,0.56-0.56,0.56
				C214.31,59.02,214.05,58.77,214.05,58.46L214.05,58.46z"/>
		</g>
		<g id="CIRCLE_248_">
			<path class="st4" d="M216.86,58.46c0-0.31,0.25-0.56,0.56-0.56s0.56,0.25,0.56,0.56s-0.25,0.56-0.56,0.56
				S216.86,58.77,216.86,58.46L216.86,58.46z"/>
		</g>
		<g id="CIRCLE_247_">
			<path class="st4" d="M219.66,58.46c0-0.31,0.25-0.56,0.56-0.56c0.31,0,0.56,0.25,0.56,0.56s-0.25,0.56-0.56,0.56
				C219.91,59.02,219.66,58.77,219.66,58.46L219.66,58.46z"/>
		</g>
		<g id="CIRCLE_246_">
			<path class="st4" d="M214.05,61.27c0-0.31,0.25-0.56,0.56-0.56c0.31,0,0.56,0.25,0.56,0.56c0,0.31-0.25,0.56-0.56,0.56
				C214.31,61.83,214.05,61.58,214.05,61.27L214.05,61.27z"/>
		</g>
		<g id="CIRCLE_245_">
			<path class="st4" d="M216.86,61.27c0-0.31,0.25-0.56,0.56-0.56s0.56,0.25,0.56,0.56c0,0.31-0.25,0.56-0.56,0.56
				S216.86,61.58,216.86,61.27L216.86,61.27z"/>
		</g>
		<g id="CIRCLE_244_">
			<path class="st4" d="M219.66,61.27c0-0.31,0.25-0.56,0.56-0.56c0.31,0,0.56,0.25,0.56,0.56c0,0.31-0.25,0.56-0.56,0.56
				C219.91,61.83,219.66,61.58,219.66,61.27L219.66,61.27z"/>
		</g>
		<g id="CIRCLE_243_">
			<path class="st4" d="M214.05,64.07c0-0.31,0.25-0.56,0.56-0.56c0.31,0,0.56,0.25,0.56,0.56c0,0.31-0.25,0.56-0.56,0.56
				C214.31,64.63,214.05,64.38,214.05,64.07L214.05,64.07z"/>
		</g>
		<g id="CIRCLE_242_">
			<path class="st4" d="M216.86,64.07c0-0.31,0.25-0.56,0.56-0.56s0.56,0.25,0.56,0.56c0,0.31-0.25,0.56-0.56,0.56
				S216.86,64.38,216.86,64.07L216.86,64.07z"/>
		</g>
		<g id="CIRCLE_241_">
			<path class="st4" d="M219.66,64.07c0-0.31,0.25-0.56,0.56-0.56c0.31,0,0.56,0.25,0.56,0.56c0,0.31-0.25,0.56-0.56,0.56
				C219.91,64.63,219.66,64.38,219.66,64.07L219.66,64.07z"/>
		</g>
		<g id="CIRCLE_240_">
			<path class="st4" d="M214.05,66.88c0-0.31,0.25-0.56,0.56-0.56c0.31,0,0.56,0.25,0.56,0.56c0,0.31-0.25,0.56-0.56,0.56
				C214.31,67.44,214.05,67.19,214.05,66.88L214.05,66.88z"/>
		</g>
		<g id="CIRCLE_239_">
			<path class="st4" d="M216.86,66.88c0-0.31,0.25-0.56,0.56-0.56s0.56,0.25,0.56,0.56c0,0.31-0.25,0.56-0.56,0.56
				S216.86,67.19,216.86,66.88L216.86,66.88z"/>
		</g>
		<g id="CIRCLE_238_">
			<path class="st4" d="M219.66,66.88c0-0.31,0.25-0.56,0.56-0.56c0.31,0,0.56,0.25,0.56,0.56c0,0.31-0.25,0.56-0.56,0.56
				C219.91,67.44,219.66,67.19,219.66,66.88L219.66,66.88z"/>
		</g>
		<g id="CIRCLE_237_">
			<path class="st4" d="M211.25,58.46c0-0.31,0.25-0.56,0.56-0.56c0.31,0,0.56,0.25,0.56,0.56s-0.25,0.56-0.56,0.56
				C211.5,59.02,211.25,58.77,211.25,58.46L211.25,58.46z"/>
		</g>
		<g id="CIRCLE_236_">
			<path class="st4" d="M208.45,58.46c0-0.31,0.25-0.56,0.56-0.56c0.31,0,0.56,0.25,0.56,0.56s-0.25,0.56-0.56,0.56
				C208.7,59.02,208.45,58.77,208.45,58.46L208.45,58.46z"/>
		</g>
		<g id="CIRCLE_235_">
			<path class="st4" d="M211.25,61.27c0-0.31,0.25-0.56,0.56-0.56c0.31,0,0.56,0.25,0.56,0.56c0,0.31-0.25,0.56-0.56,0.56
				C211.5,61.83,211.25,61.58,211.25,61.27L211.25,61.27z"/>
		</g>
		<g id="CIRCLE_234_">
			<path class="st4" d="M208.45,61.27c0-0.31,0.25-0.56,0.56-0.56c0.31,0,0.56,0.25,0.56,0.56c0,0.31-0.25,0.56-0.56,0.56
				C208.7,61.83,208.45,61.58,208.45,61.27L208.45,61.27z"/>
		</g>
		<g id="CIRCLE_233_">
			<path class="st4" d="M211.25,64.07c0-0.31,0.25-0.56,0.56-0.56c0.31,0,0.56,0.25,0.56,0.56c0,0.31-0.25,0.56-0.56,0.56
				C211.5,64.63,211.25,64.38,211.25,64.07L211.25,64.07z"/>
		</g>
		<g id="CIRCLE_232_">
			<path class="st4" d="M208.45,64.07c0-0.31,0.25-0.56,0.56-0.56c0.31,0,0.56,0.25,0.56,0.56c0,0.31-0.25,0.56-0.56,0.56
				C208.7,64.63,208.45,64.38,208.45,64.07L208.45,64.07z"/>
		</g>
		<g id="CIRCLE_231_">
			<path class="st4" d="M211.25,66.88c0-0.31,0.25-0.56,0.56-0.56c0.31,0,0.56,0.25,0.56,0.56c0,0.31-0.25,0.56-0.56,0.56
				C211.5,67.44,211.25,67.19,211.25,66.88L211.25,66.88z"/>
		</g>
		<g id="CIRCLE_230_">
			<path class="st4" d="M208.45,66.88c0-0.31,0.25-0.56,0.56-0.56c0.31,0,0.56,0.25,0.56,0.56c0,0.31-0.25,0.56-0.56,0.56
				C208.7,67.44,208.45,67.19,208.45,66.88L208.45,66.88z"/>
		</g>
		<g id="CIRCLE_229_">
			<path class="st4" d="M214.05,69.68c0-0.31,0.25-0.56,0.56-0.56c0.31,0,0.56,0.25,0.56,0.56c0,0.31-0.25,0.56-0.56,0.56
				C214.31,70.24,214.05,69.99,214.05,69.68L214.05,69.68z"/>
		</g>
		<g id="CIRCLE_228_">
			<path class="st4" d="M216.86,69.68c0-0.31,0.25-0.56,0.56-0.56s0.56,0.25,0.56,0.56c0,0.31-0.25,0.56-0.56,0.56
				S216.86,69.99,216.86,69.68L216.86,69.68z"/>
		</g>
		<g id="CIRCLE_227_">
			<path class="st4" d="M219.66,69.68c0-0.31,0.25-0.56,0.56-0.56c0.31,0,0.56,0.25,0.56,0.56c0,0.31-0.25,0.56-0.56,0.56
				C219.91,70.24,219.66,69.99,219.66,69.68L219.66,69.68z"/>
		</g>
		<g id="CIRCLE_226_">
			<path class="st4" d="M211.25,69.68c0-0.31,0.25-0.56,0.56-0.56c0.31,0,0.56,0.25,0.56,0.56c0,0.31-0.25,0.56-0.56,0.56
				C211.5,70.24,211.25,69.99,211.25,69.68L211.25,69.68z"/>
		</g>
		<g id="CIRCLE_225_">
			<path class="st4" d="M208.45,69.68c0-0.31,0.25-0.56,0.56-0.56c0.31,0,0.56,0.25,0.56,0.56c0,0.31-0.25,0.56-0.56,0.56
				C208.7,70.24,208.45,69.99,208.45,69.68L208.45,69.68z"/>
		</g>
	</g>
</g>
<g>
	<g id="LINE_25_">
		<line class="st3" x1="434.08" y1="66.87" x2="496.24" y2="66.87"/>
	</g>
	<polyline class="st3" points="482.95,66.87 475.17,108.38 455.15,108.38 447.37,66.87 	"/>
</g>
<g id="POINT_1_">
	<line class="st7" x1="475.69" y1="109.01" x2="475.69" y2="109.01"/>
</g>
<g id="POINT_2_">
	<line class="st7" x1="499.6" y1="109.01" x2="499.6" y2="109.01"/>
</g>
<g id="POINT_3_">
	<line class="st7" x1="454.62" y1="109.01" x2="454.62" y2="109.01"/>
</g>
<g id="POINT_4_">
	<line class="st7" x1="475.69" y1="109.01" x2="475.69" y2="109.01"/>
</g>
<g id="POINT_5_">
	<line class="st7" x1="475.69" y1="125.93" x2="475.69" y2="125.93"/>
</g>
<g id="POINT_6_">
	<line class="st7" x1="447.37" y1="66.87" x2="447.37" y2="66.87"/>
</g>
<g id="POINT_7_">
	<line class="st7" x1="482.95" y1="66.87" x2="482.95" y2="66.87"/>
</g>
<g id="POINT_8_">
	<line class="st7" x1="482.95" y1="57.6" x2="482.95" y2="57.6"/>
</g>
<g id="POINT_9_">
	<line class="st7" x1="434.08" y1="66.87" x2="434.08" y2="66.87"/>
</g>
<g id="POINT_10_">
	<line class="st7" x1="496.24" y1="66.87" x2="496.24" y2="66.87"/>
</g>
<g id="POINT_11_">
	<line class="st7" x1="496.24" y1="41.35" x2="496.24" y2="41.35"/>
</g>
<g id="POINT_12_">
	<line class="st7" x1="496.24" y1="66.87" x2="496.24" y2="66.87"/>
</g>
<g id="POINT_13_">
	<line class="st7" x1="486.65" y1="109.01" x2="486.65" y2="109.01"/>
</g>
<g id="POINT_14_">
	<line class="st7" x1="521.17" y1="109.01" x2="521.17" y2="109.01"/>
</g>
<g>
	<g id="LINE_2_">
		<g>
			<g>
				<line class="st1" x1="499.6" y1="86.84" x2="499.6" y2="74.77"/>
				<g>
					<polygon class="st2" points="501.78,85.36 499.6,93.49 497.42,85.36 					"/>
				</g>
			</g>
		</g>
	</g>
	<g id="LINE_3_">
		<g>
			<g>
				<line class="st1" x1="499.6" y1="115.38" x2="499.6" y2="127.45"/>
				<g>
					<polygon class="st2" points="497.42,116.86 499.6,108.73 501.78,116.86 					"/>
				</g>
			</g>
		</g>
	</g>
	<g id="LINE_7_">
		<g>
			<g>
				<line class="st1" x1="448.26" y1="125.93" x2="436.18" y2="125.93"/>
				<g>
					<polygon class="st2" points="446.77,123.75 454.9,125.93 446.77,128.11 					"/>
				</g>
			</g>
		</g>
	</g>
	<g id="LINE_8_">
		<g>
			<g>
				<line class="st1" x1="482.06" y1="125.93" x2="494.14" y2="125.93"/>
				<g>
					<polygon class="st2" points="483.54,128.11 475.41,125.93 483.54,123.75 					"/>
				</g>
			</g>
		</g>
	</g>
</g>
<g>
	<g id="LINE_4_">
		<line class="st1" x1="499.6" y1="93.21" x2="499.6" y2="109.01"/>
	</g>
	<g id="LINE_9_">
		<line class="st1" x1="454.62" y1="125.93" x2="475.69" y2="125.93"/>
	</g>
	<g>
		<g id="LINE">
			<g>
				<line class="st1" x1="478.93" y1="93.21" x2="502.84" y2="93.21"/>
			</g>
		</g>
		<g id="LINE_5_">
			<g>
				<line class="st1" x1="454.62" y1="112.25" x2="454.62" y2="129.17"/>
			</g>
		</g>
		<g id="LINE_6_">
			<g>
				<line class="st1" x1="475.69" y1="112.25" x2="475.69" y2="129.17"/>
			</g>
		</g>
		<g id="LINE_10_">
			<g>
				<line class="st1" x1="447.37" y1="63.63" x2="447.37" y2="54.36"/>
			</g>
		</g>
		<g id="LINE_11_">
			<g>
				<line class="st1" x1="482.95" y1="63.63" x2="482.95" y2="54.36"/>
			</g>
		</g>
		<g id="LINE_13_">
			<g>
				<line class="st1" x1="434.08" y1="63.63" x2="434.08" y2="38.11"/>
			</g>
		</g>
		<g id="LINE_14_">
			<g>
				<line class="st1" x1="496.24" y1="63.63" x2="496.24" y2="38.11"/>
			</g>
		</g>
		<g id="LINE_16_">
			<g>
				<line class="st1" x1="499.48" y1="66.87" x2="524.41" y2="66.87"/>
			</g>
		</g>
		<g id="LINE_17_">
			<g>
				<line class="st1" x1="478.47" y1="109.01" x2="524.41" y2="109.01"/>
			</g>
		</g>
	</g>
</g>
<g>
	<g id="LINE_12_">
		<g>
			<g>
				<line class="st1" x1="454.01" y1="57.6" x2="476.31" y2="57.6"/>
				<g>
					<polygon class="st2" points="455.5,59.78 447.37,57.6 455.5,55.42 					"/>
				</g>
				<g>
					<polygon class="st2" points="474.82,59.78 482.95,57.6 474.82,55.42 					"/>
				</g>
			</g>
		</g>
	</g>
	<g id="LINE_15_">
		<g>
			<g>
				<line class="st1" x1="440.73" y1="41.35" x2="489.59" y2="41.35"/>
				<g>
					<polygon class="st2" points="442.21,43.53 434.08,41.35 442.21,39.17 					"/>
				</g>
				<g>
					<polygon class="st2" points="488.11,43.53 496.24,41.35 488.11,39.17 					"/>
				</g>
			</g>
		</g>
	</g>
	<g id="LINE_18_">
		<g>
			<g>
				<line class="st1" x1="521.17" y1="73.52" x2="521.17" y2="102.37"/>
				<g>
					<polygon class="st2" points="518.99,75 521.17,66.87 523.35,75 					"/>
				</g>
				<g>
					<polygon class="st2" points="518.99,100.88 521.17,109.01 523.35,100.88 					"/>
				</g>
			</g>
		</g>
	</g>
</g>
<g>
	<g id="MTEXT_1_">
		<g>
			<text transform="matrix(0 -1 1 0 495.2191 107.437)" class="st2 st8 st9">75</text>
		</g>
	</g>
	<g id="MTEXT_2_">
		<g>
			<text transform="matrix(1 0 0 1 455.3841 121.5542)" class="st2 st8 st9">100</text>
		</g>
	</g>
	<g id="MTEXT_3_">
		<g>
			<text transform="matrix(1 0 0 1 455.3402 53.8285)" class="st2 st8 st9">175</text>
		</g>
	</g>
	<g id="MTEXT_4_">
		<g>
			<text transform="matrix(1 0 0 1 455.7894 37.9741)" class="st2 st8 st9">295</text>
		</g>
	</g>
	<g id="MTEXT_5_">
		<g>
			<text transform="matrix(0 -1 1 0 517.7904 98.2671)" class="st2 st8 st9">200</text>
		</g>
	</g>
</g>
<g>
	<g id="MTEXT">
		<g>
			<text transform="matrix(1 0 0 1 413.3695 151.811)" class="st2 st10 st9">BUCKET DETAILS</text>
		</g>
	</g>
	<g id="MTEXT_6_">
		<g>
			<text transform="matrix(1 0 0 1 201.9212 151.811)" class="st2 st10 st9">SILT TRAP ASSEMBLY</text>
		</g>
	</g>
</g>
<g id="MTEXT_9_">
	<g>
		<text transform="matrix(1 0 0 1 389.0609 87.0747)"><tspan x="0" y="0" class="st2 st8 st9">25 x 5</tspan><tspan x="0" y="14.4" class="st2 st8 st9">Handle</tspan></text>
	</g>
</g>
<g>
	<g id="MTEXT_8_">
		<g>
			<text transform="matrix(1 0 0 1 259.9242 119.0561)" class="st2 st8 st9">100 Yard gully</text>
		</g>
	</g>
	<g id="MTEXT_10_">
		<g>
			<text transform="matrix(1 0 0 1 260.6371 46.0102)" class="st2 st8 st9">Silt trap grating</text>
		</g>
	</g>
	<g id="MTEXT_11_">
		<g>
			<text transform="matrix(1 0 0 1 260.6371 64.4907)" class="st2 st8 st9">Silt trap bucket</text>
		</g>
	</g>
	<g id="MTEXT_12_">
		<g>
			<text transform="matrix(1 0 0 1 260.6371 80.6611)" class="st2 st8 st9">Silt trap top</text>
		</g>
	</g>
</g>
<text transform="matrix(1 0 0 1 31.8065 61.8218)"><tspan x="0" y="0" class="st2 st8 st9">Outlet to:</tspan><tspan x="0" y="14.4" class="st2 st8 st9">• trade waste appliance</tspan><tspan x="0" y="28.8" class="st2 st8 st9">• direct to drain</tspan><tspan x="0" y="43.2" class="st2 st8 st9">• direct to stack </tspan><tspan x="0" y="57.6" class="st2 st8 st9">• disconnector gully </tspan></text>
</svg>
