<?xml version="1.0" encoding="utf-8"?>
<!-- Generator: Adobe Illustrator 26.3.1, SVG Export Plug-In . SVG Version: 6.00 Build 0)  -->
<svg version="1.1" xmlns="http://www.w3.org/2000/svg" xmlns:xlink="http://www.w3.org/1999/xlink" x="0px" y="0px"
	 viewBox="0 0 552.76 298.47" style="enable-background:new 0 0 552.76 298.47;" xml:space="preserve">
<style type="text/css">
	.st0{fill:none;stroke:#231F20;stroke-miterlimit:10;}
	.st1{fill:none;}
	.st2{fill:none;stroke:#231F20;stroke-width:0.75;stroke-miterlimit:10;}
	.st3{fill:none;stroke:#231F20;stroke-width:0.75;stroke-miterlimit:10;stroke-dasharray:5.3952,5.3952;}
	.st4{fill:none;stroke:#231F20;stroke-width:0.75;stroke-miterlimit:10;stroke-dasharray:6.2439,6.2439;}
	.st5{fill:none;stroke:#231F20;stroke-width:0.75;stroke-miterlimit:10;stroke-dasharray:5.9126,5.9126;}
	.st6{fill:#231F20;}
	.st7{font-family:'ArialMT';}
	.st8{font-size:12px;}
	.st9{fill:none;stroke:#231F20;stroke-width:1.0931;stroke-miterlimit:10;}
	.st10{fill:none;stroke:#231F20;stroke-width:0.2558;stroke-miterlimit:10;}
	.st11{fill:none;stroke:#231F20;stroke-width:0.25;stroke-miterlimit:10;}
	.st12{fill:none;stroke:#231F20;stroke-width:0.2745;stroke-miterlimit:10;}
</style>
<g id="Defpoints">
</g>
<g id="LINE_18">
	<g>
		<g id="CIRCLE_1_">
			<path class="st0" d="M175.81,74.38c0-4.47,3.62-8.09,8.09-8.09c4.47,0,8.09,3.62,8.09,8.09s-3.62,8.09-8.09,8.09
				C179.43,82.48,175.81,78.85,175.81,74.38L175.81,74.38z"/>
		</g>
		<g id="ELLIPSE">
			<path class="st0" d="M183.9,74.38c-0.31-0.53-2.13-0.06-4.06,1.06c-1.94,1.12-3.26,2.46-2.95,2.99c0.31,0.53,2.13,0.06,4.06-1.06
				C182.89,76.25,184.21,74.91,183.9,74.38L183.9,74.38z"/>
		</g>
		<g id="LINE_19_">
			<line class="st0" x1="181.33" y1="82.05" x2="181.33" y2="86.03"/>
		</g>
		<g id="LINE_20_">
			<line class="st0" x1="186.48" y1="82.05" x2="186.48" y2="86.03"/>
		</g>
		<g id="ELLIPSE_1_">
			<path class="st0" d="M183.9,74.38c0.31-0.53,2.13-0.06,4.06,1.06c1.94,1.12,3.26,2.46,2.95,2.99c-0.31,0.53-2.13,0.06-4.06-1.06
				C184.92,76.25,183.6,74.91,183.9,74.38L183.9,74.38z"/>
		</g>
		<g id="ELLIPSE_2_">
			<path class="st0" d="M183.9,74.38c-0.62,0-1.11-1.81-1.11-4.05c0-2.24,0.5-4.05,1.11-4.05c0.62,0,1.11,1.81,1.11,4.05
				C185.02,72.57,184.52,74.38,183.9,74.38L183.9,74.38z"/>
		</g>
	</g>
	<g>
		<path class="st1" d="M326.44,34.4"/>
	</g>
	<g>
		<g>
			<g id="LINE">
				<line class="st0" x1="67.09" y1="219.89" x2="169.85" y2="219.89"/>
			</g>
			<g id="LINE_1_">
				<line class="st0" x1="67.09" y1="222.21" x2="200.15" y2="222.21"/>
			</g>
			<polyline class="st0" points="200.15,219.89 200.15,255.17 254.7,255.17 254.7,219.7 			"/>
			<g id="LWPOLYLINE_1_">
				<polyline class="st0" points="200.15,219.89 169.85,219.89 169.85,86.03 300.34,86.03 300.34,219.89 254.7,219.89 				"/>
			</g>
			<g id="LWPOLYLINE_2_">
				<polyline class="st0" points="297.07,219.89 297.07,149.38 254.7,149.38 254.7,219.89 				"/>
			</g>
			<g id="LWPOLYLINE_3_">
				<rect x="257.15" y="151.83" class="st0" width="37.47" height="61.22"/>
			</g>
			<g id="CIRCLE">
				<path class="st0" d="M287.98,184.18c0-0.84,0.68-1.52,1.52-1.52c0.84,0,1.52,0.68,1.52,1.52c0,0.84-0.68,1.52-1.52,1.52
					C288.66,185.69,287.98,185.01,287.98,184.18L287.98,184.18z"/>
			</g>
		</g>
		<g id="LINE_2_">
			<line class="st0" x1="254.87" y1="227.99" x2="260.94" y2="227.99"/>
		</g>
		<path class="st0" d="M326.44,244.18c0-3.08-2.44-5.61-5.52-5.71l-54.45-1.81c-3.08-0.1-5.52-2.63-5.52-5.71v-11.24"/>
		<line class="st0" x1="326.44" y1="270.13" x2="326.44" y2="61.05"/>
	</g>
	<g>
		<g id="LINE_5_">
			<g>
				<g>
					<line class="st2" x1="200.15" y1="219.89" x2="203.15" y2="219.89"/>
					<line class="st3" x1="208.54" y1="219.89" x2="249.01" y2="219.89"/>
					<line class="st2" x1="251.7" y1="219.89" x2="254.7" y2="219.89"/>
				</g>
			</g>
		</g>
		<g>
			<g>
				<line class="st2" x1="275.08" y1="235.18" x2="277.17" y2="233.03"/>
				<line class="st4" x1="282.9" y1="231.15" x2="304.43" y2="227.39"/>
				<polyline class="st2" points="307.5,226.85 310.46,226.33 310.46,223.33 				"/>
				<line class="st5" x1="310.46" y1="217.42" x2="310.46" y2="137.6"/>
				<line class="st2" x1="310.46" y1="134.64" x2="310.46" y2="131.64"/>
			</g>
		</g>
	</g>
	<g id="MTEXT_4_">
		<g>
			<text transform="matrix(1 0 0 1 202.6595 114.5306)"><tspan x="0" y="0" class="st6 st7 st8">Grease trap</tspan><tspan x="8.34" y="14.4" class="st6 st7 st8">chamber</tspan></text>
		</g>
	</g>
	<g>
		<g id="MTEXT_26_">
			<g>
				<text transform="matrix(1 0 0 1 367.4613 161.8514)"><tspan x="0" y="0" class="st6 st7 st8">Chamber fitted with airtight </tspan><tspan x="0" y="14.4" class="st6 st7 st8">door (refrigerator type)</tspan></text>
			</g>
		</g>
		<g id="MTEXT_15_">
			<g>
				<text transform="matrix(1 0 0 1 367.4613 125.8314)" class="st6 st7 st8">50 mm Anti-syphon vent</text>
			</g>
		</g>
		<g id="MTEXT_11_">
			<g>
				<text transform="matrix(1 0 0 1 367.4613 234.2157)" class="st6 st7 st8">100 mm</text>
			</g>
		</g>
		<g id="MTEXT_1_">
			<text transform="matrix(1 0 0 1 29.0684 46.8686)" class="st7 st8">80 mm or</text>
			<text transform="matrix(1 0 0 1 28.3443 59.7055)" class="st7 st8">100 mm W.S.</text>
		</g>
		<g id="MTEXT">
			<g>
				<text transform="matrix(1 0 0 1 367.4613 83.6927)" class="st6 st7 st8">100 mm S.V.P. or W.S.</text>
			</g>
		</g>
		<g id="MTEXT_6_">
			<g>
				<text transform="matrix(1 0 0 1 28.6297 93.9847)" class="st6 st7 st8">Fan</text>
			</g>
		</g>
		<g id="MTEXT_7_">
			<g>
				<text transform="matrix(1 0 0 1 29.2577 161.5057)"><tspan x="0" y="0" class="st6 st7 st8">Trap left open</tspan><tspan x="0" y="14.4" class="st6 st7 st8">&quot;No Lid&quot; safety</tspan><tspan x="0" y="28.8" class="st6 st7 st8">grill on trap</tspan></text>
			</g>
		</g>
	</g>
	<g>
		<g>
			<path class="st9" d="M199.58,231.28l-77.68-4.13c-2.92-0.15-5.2-2.56-5.2-5.48V73.23l4.59-2.26l-9.17-4.67l4.59-2.26V30.12"/>
			<g>
				<path class="st6" d="M121.95,37.6c-0.25,0.16-0.59,0.09-0.75-0.17l-4.49-7.05l-4.49,7.05c-0.16,0.25-0.5,0.33-0.75,0.17
					c-0.25-0.16-0.33-0.5-0.17-0.75l4.95-7.78c0.1-0.16,0.27-0.25,0.46-0.25c0.19,0,0.36,0.1,0.46,0.25l4.95,7.78
					c0.06,0.09,0.09,0.19,0.09,0.29C122.2,37.31,122.11,37.49,121.95,37.6z"/>
			</g>
		</g>
	</g>
	<g>
		<g>
			<g>
				<g>
					<polyline class="st10" points="316.07,141.54 344.4,122.15 360.68,121.82 					"/>
					<g>
						<polygon class="st6" points="318.58,142.52 310.46,145.38 316.06,138.84 						"/>
					</g>
				</g>
			</g>
		</g>
		<g>
			<g>
				<g>
					<polyline class="st10" points="298.52,173.61 343.42,158.34 361.96,158.34 					"/>
					<g>
						<polygon class="st6" points="300.68,175.23 292.09,175.8 299.25,171.01 						"/>
					</g>
				</g>
			</g>
		</g>
		<g>
			<g>
				<g>
					<polyline class="st10" points="309.26,236.03 343.7,229.13 361.96,229.13 					"/>
					<g>
						<polygon class="st6" points="311.19,237.91 302.6,237.36 310.32,233.54 						"/>
					</g>
				</g>
			</g>
		</g>
		<g>
			<g>
				<g>
					<polyline class="st10" points="332.36,87.09 346.38,79.19 362.66,78.87 					"/>
					<g>
						<polygon class="st6" points="334.78,88.29 326.44,90.42 332.59,84.4 						"/>
					</g>
				</g>
			</g>
		</g>
		<g>
			<g>
				<g>
					<line class="st11" x1="83.97" y1="44.69" x2="110.34" y2="44.69"/>
					<g>
						<polygon class="st6" points="108.86,46.87 116.99,44.69 108.86,42.51 						"/>
					</g>
				</g>
			</g>
		</g>
		<g>
			<g>
				<g>
					<polyline class="st12" points="210.22,217.76 108.6,186.71 93.93,186.71 					"/>
					<g>
						<polygon class="st6" points="209.35,214.99 217.19,219.89 207.96,219.57 						"/>
					</g>
				</g>
			</g>
		</g>
		<g>
			<g>
				<g>
					<polyline class="st10" points="169.18,75.89 101.28,91.32 54.44,91.32 					"/>
					<g>
						<polygon class="st6" points="167.21,74.05 175.81,74.38 168.19,78.4 						"/>
					</g>
				</g>
			</g>
		</g>
	</g>
</g>
</svg>
