<?xml version="1.0" encoding="utf-8"?>
<!-- Generator: Adobe Illustrator 25.2.1, SVG Export Plug-In . SVG Version: 6.00 Build 0)  -->
<svg version="1.1" id="_x30_" xmlns="http://www.w3.org/2000/svg" xmlns:xlink="http://www.w3.org/1999/xlink" x="0px" y="0px"
	 viewBox="0 0 552.8 336.8" style="enable-background:new 0 0 552.8 336.8;" xml:space="preserve">
<style type="text/css">
	.st0{fill:none;stroke:#231F20;stroke-miterlimit:10;}
</style>
<g>
	<g id="LINE">
		<g>
			<line class="st0" x1="311.7" y1="283.5" x2="303.6" y2="262.7"/>
		</g>
	</g>
	<g id="LINE_1_">
		<g>
			<line class="st0" x1="280.9" y1="272.4" x2="292.3" y2="258.6"/>
		</g>
	</g>
	<g id="LINE_2_">
		<g>
			<line class="st0" x1="303.6" y1="262.7" x2="292.3" y2="258.6"/>
		</g>
	</g>
	<g id="LINE_3_">
		<g>
			<line class="st0" x1="280.9" y1="272.4" x2="260.6" y2="265.1"/>
		</g>
	</g>
	<g id="LINE_4_">
		<g>
			<line class="st0" x1="260.6" y1="265.1" x2="235.9" y2="253.4"/>
		</g>
	</g>
	<g id="LINE_5_">
		<g>
			<line class="st0" x1="210.2" y1="247" x2="235.9" y2="253.4"/>
		</g>
	</g>
	<g id="LINE_6_">
		<g>
			<line class="st0" x1="210.2" y1="247" x2="190.8" y2="240"/>
		</g>
	</g>
	<g id="LINE_7_">
		<g>
			<line class="st0" x1="190.8" y1="240" x2="182.8" y2="219.2"/>
		</g>
	</g>
	<g id="LINE_8_">
		<g>
			<line class="st0" x1="160.1" y1="228.9" x2="171.5" y2="215.2"/>
		</g>
	</g>
	<g id="LINE_9_">
		<g>
			<line class="st0" x1="182.8" y1="219.2" x2="171.5" y2="215.2"/>
		</g>
	</g>
	<g id="LINE_10_">
		<g>
			<line class="st0" x1="160.1" y1="228.9" x2="139.8" y2="221.6"/>
		</g>
	</g>
	<g id="LINE_11_">
		<g>
			<line class="st0" x1="139.8" y1="221.6" x2="115.1" y2="209.9"/>
		</g>
	</g>
	<g id="LINE_12_">
		<g>
			<line class="st0" x1="89.4" y1="203.5" x2="115.1" y2="209.9"/>
		</g>
	</g>
	<g id="LINE_13_">
		<g>
			<line class="st0" x1="89.4" y1="203.5" x2="70" y2="196.5"/>
		</g>
	</g>
	<g id="LINE_14_">
		<g>
			<line class="st0" x1="70" y1="196.5" x2="62" y2="175.8"/>
		</g>
	</g>
	<g id="LINE_15_">
		<g>
			<line class="st0" x1="39.2" y1="185.5" x2="50.6" y2="171.7"/>
		</g>
	</g>
	<g id="LINE_16_">
		<g>
			<line class="st0" x1="62" y1="175.8" x2="50.6" y2="171.7"/>
		</g>
	</g>
	<g id="LINE_17_">
		<g>
			<line class="st0" x1="39.2" y1="185.5" x2="28.3" y2="181.5"/>
		</g>
	</g>
	<g id="LINE_18_">
		<g>
			<line class="st0" x1="331" y1="290.4" x2="356.8" y2="296.9"/>
		</g>
	</g>
	<g id="LINE_19_">
		<g>
			<line class="st0" x1="331" y1="290.4" x2="311.7" y2="283.5"/>
		</g>
	</g>
	<g id="LINE_20_">
		<g>
			<line class="st0" x1="292.3" y1="258.6" x2="500.2" y2="96.8"/>
		</g>
	</g>
	<g id="LINE_21_">
		<g>
			<line class="st0" x1="43" y1="159.9" x2="240.6" y2="54.3"/>
		</g>
	</g>
	<g id="LINE_22_">
		<g>
			<line class="st0" x1="490.4" y1="90.5" x2="266.1" y2="261"/>
		</g>
	</g>
	<g id="LINE_23_">
		<g>
			<line class="st0" x1="476.7" y1="77.7" x2="365.7" y2="158.4"/>
		</g>
	</g>
	<g id="LINE_24_">
		<g>
			<line class="st0" x1="470.4" y1="63.4" x2="356.2" y2="144.1"/>
		</g>
	</g>
	<g id="LINE_25_">
		<g>
			<line class="st0" x1="468.5" y1="49.6" x2="347.9" y2="132.3"/>
		</g>
	</g>
	<g id="LINE_26_">
		<g>
			<line class="st0" x1="505.7" y1="102.6" x2="303.6" y2="262.7"/>
		</g>
	</g>
	<g id="LINE_27_">
		<g>
			<line class="st0" x1="512.2" y1="118.7" x2="322" y2="275"/>
		</g>
	</g>
	<g id="LINE_28_">
		<g>
			<line class="st0" x1="512.9" y1="136.5" x2="338.5" y2="284.1"/>
		</g>
	</g>
	<g id="LINE_29_">
		<g>
			<line class="st0" x1="510.2" y1="162.1" x2="364.5" y2="290.1"/>
		</g>
	</g>
	<g id="LINE_30_">
		<g>
			<line class="st0" x1="509.8" y1="190.9" x2="393.3" y2="297.7"/>
		</g>
	</g>
	<g id="LINE_31_">
		<g>
			<line class="st0" x1="515.9" y1="205.1" x2="416.9" y2="298.5"/>
		</g>
	</g>
	<g id="LINE_32_">
		<g>
			<line class="st0" x1="521" y1="213.3" x2="432.6" y2="298.3"/>
		</g>
	</g>
	<g id="LINE_33_">
		<g>
			<line class="st0" x1="524.4" y1="235.2" x2="456.5" y2="303"/>
		</g>
	</g>
	<g id="LINE_34_">
		<g>
			<line class="st0" x1="519.1" y1="272.8" x2="484.8" y2="308.5"/>
		</g>
	</g>
	<g id="LINE_35_">
		<g>
			<line class="st0" x1="460.2" y1="35.9" x2="337.6" y2="116.9"/>
		</g>
	</g>
	<g id="LINE_36_">
		<g>
			<line class="st0" x1="448.2" y1="35.2" x2="336" y2="108.1"/>
		</g>
	</g>
	<g id="LINE_37_">
		<g>
			<line class="st0" x1="398" y1="57.1" x2="334" y2="97.8"/>
		</g>
	</g>
	<g id="LINE_38_">
		<g>
			<line class="st0" x1="384.6" y1="44.7" x2="330" y2="78.2"/>
		</g>
	</g>
	<g id="LINE_39_">
		<g>
			<line class="st0" x1="376.4" y1="33" x2="327.4" y2="62.2"/>
		</g>
	</g>
	<g id="LINE_40_">
		<g>
			<line class="st0" x1="360" y1="28.9" x2="327.4" y2="47.8"/>
		</g>
	</g>
	<g id="LINE_41_">
		<g>
			<line class="st0" x1="238.4" y1="77.6" x2="62" y2="175.8"/>
		</g>
	</g>
	<g id="LINE_42_">
		<g>
			<line class="st0" x1="240.6" y1="67.6" x2="50.6" y2="171.7"/>
		</g>
	</g>
	<g id="LINE_43_">
		<g>
			<line class="st0" x1="224.4" y1="47" x2="38.1" y2="143.7"/>
		</g>
	</g>
	<g id="LINE_44_">
		<g>
			<line class="st0" x1="201.9" y1="42.1" x2="44.7" y2="121.2"/>
		</g>
	</g>
	<g id="LINE_45_">
		<g>
			<line class="st0" x1="181.4" y1="39.2" x2="35.3" y2="110.9"/>
		</g>
	</g>
	<g id="LINE_46_">
		<g>
			<line class="st0" x1="58.8" y1="174.6" x2="39.2" y2="185.5"/>
		</g>
	</g>
	<g id="LINE_47_">
		<g>
			<line class="st0" x1="177.7" y1="217.4" x2="160.1" y2="228.9"/>
		</g>
	</g>
	<g id="LINE_48_">
		<g>
			<line class="st0" x1="296.5" y1="260.1" x2="280.9" y2="272.4"/>
		</g>
	</g>
	<g id="LINE_49_">
		<g>
			<line class="st0" x1="231.6" y1="103.1" x2="70" y2="196.5"/>
		</g>
	</g>
	<g id="LINE_50_">
		<g>
			<line class="st0" x1="222" y1="124.7" x2="100.4" y2="196.9"/>
		</g>
	</g>
	<g id="LINE_51_">
		<g>
			<line class="st0" x1="196.6" y1="186.7" x2="147.4" y2="216.8"/>
		</g>
	</g>
	<g id="LINE_52_">
		<g>
			<line class="st0" x1="223.5" y1="181.3" x2="171.5" y2="215.2"/>
		</g>
	</g>
	<g id="LINE_53_">
		<g>
			<line class="st0" x1="235.7" y1="184.3" x2="182.8" y2="219.2"/>
		</g>
	</g>
	<g id="LINE_54_">
		<g>
			<line class="st0" x1="243.8" y1="203.7" x2="190.8" y2="240"/>
		</g>
	</g>
	<g id="LINE_55_">
		<g>
			<line class="st0" x1="262.4" y1="210.4" x2="218.1" y2="241.4"/>
		</g>
	</g>
	<g id="LINE_56_">
		<g>
			<line class="st0" x1="186.3" y1="169.1" x2="115.1" y2="209.9"/>
		</g>
	</g>
	<g id="LINE_57_">
		<g>
			<line class="st0" x1="291.2" y1="212.8" x2="235.9" y2="253.4"/>
		</g>
	</g>
	<g id="LINE_58_">
		<g>
			<line class="st0" x1="243.6" y1="32.3" x2="243.6" y2="79.8"/>
		</g>
	</g>
	<g id="LINE_59_">
		<g>
			<line class="st0" x1="245.2" y1="32.3" x2="245.2" y2="80.6"/>
		</g>
	</g>
	<g id="LINE_60_">
		<g>
			<line class="st0" x1="248.2" y1="32.3" x2="248.2" y2="81.7"/>
		</g>
	</g>
	<g id="LINE_61_">
		<g>
			<line class="st0" x1="256.3" y1="31.8" x2="256.3" y2="81.5"/>
		</g>
	</g>
	<g id="LINE_62_">
		<g>
			<line class="st0" x1="316.9" y1="33" x2="316.9" y2="83.1"/>
		</g>
	</g>
	<g id="LINE_63_">
		<g>
			<line class="st0" x1="320.4" y1="30.7" x2="320.4" y2="80.6"/>
		</g>
	</g>
	<g id="POLYLINE">
		<g>
			<polyline class="st0" points="321.9,128 322.8,127.7 329.8,123.4 335.7,118.9 337.6,116.9 			"/>
		</g>
	</g>
	<g id="SPLINE">
		<g>
			<path class="st0" d="M235,87c4,5.1,6.3,7.4,8.2,8.8c1.9,1.5,3.4,2.1,6.2,3.1c2.8,1,6.8,2.5,10.8,3.1"/>
		</g>
	</g>
	<g id="POLYLINE_1_">
		<g>
			<polyline class="st0" points="228.5,111.7 230,113.9 231.6,116 232.9,117.7 234.2,119.1 235.3,120.2 236.3,121.2 237.3,122 
				238.2,122.6 239.1,123.3 239.9,123.8 240.7,124.4 241.6,124.9 242.4,125.4 243.3,125.8 244.2,126.3 245.1,126.7 246.1,127.2 
				247,127.6 248.1,128.1 249.1,128.5 250.2,129 251.3,129.4 252.3,129.8 253.4,130.1 254.5,130.5 255.5,130.8 256.6,131.1 
				257.7,131.3 258.7,131.6 259.8,131.8 260.9,132.1 262,132.3 263.2,132.5 264.3,132.8 265.5,133 266.6,133.2 267.8,133.5 
				269,133.7 270.2,133.9 271.4,134.1 272.6,134.3 273.9,134.4 275.2,134.6 276.5,134.8 278,134.9 279.6,135 281.3,135.1 
				283.2,135.3 			"/>
		</g>
	</g>
	<g id="POLYLINE_2_">
		<g>
			<polyline class="st0" points="229.5,110 230.7,111.7 232.2,113.8 233.6,115.5 234.8,116.9 236,118.1 237,119 237.9,119.8 
				238.8,120.5 239.7,121.1 240.6,121.7 241.4,122.2 242.3,122.7 243.1,123.2 244,123.6 244.8,124.1 245.8,124.6 246.7,125 
				247.7,125.5 248.7,125.9 249.8,126.3 250.8,126.8 251.9,127.2 253,127.6 254.1,127.9 255.1,128.3 256.2,128.6 257.3,128.9 
				258.3,129.2 259.4,129.4 260.5,129.7 261.6,129.9 262.7,130.1 263.8,130.4 265,130.6 266.1,130.8 267.3,131.1 268.5,131.3 
				269.7,131.5 270.9,131.7 272.1,131.9 273.3,132.1 274.6,132.3 275.8,132.4 277.2,132.6 278.7,132.7 280.2,132.8 282,133 
				283.9,133.1 			"/>
		</g>
	</g>
	<g id="POLYLINE_3_">
		<g>
			<polyline class="st0" points="231.5,103.4 232.6,104.3 234.3,105.7 235.7,106.9 237,107.9 238.2,108.7 239.2,109.4 240.1,110 
				241,110.6 241.8,111.1 242.6,111.5 243.3,112 244.1,112.4 244.8,112.7 245.5,113.1 246.2,113.4 246.8,113.8 247.5,114.1 
				248.2,114.4 249,114.7 249.7,115 250.5,115.3 251.3,115.7 252.2,116 253.2,116.4 254.2,116.9 255.3,117.3 256.7,117.8 
				258.3,118.3 260.1,118.8 262.4,119.3 265.1,119.8 268.2,120.3 			"/>
		</g>
	</g>
	<g id="POLYLINE_4_">
		<g>
			<polyline class="st0" points="232.2,100.9 233.6,102.1 235.3,103.6 236.7,104.7 238,105.7 239.2,106.6 240.2,107.3 241.1,107.9 
				242,108.4 242.8,108.9 243.6,109.4 244.3,109.8 245.1,110.2 245.8,110.6 246.5,110.9 247.2,111.3 247.8,111.6 248.5,111.9 
				249.2,112.2 250,112.5 250.7,112.8 251.5,113.1 252.3,113.5 253.2,113.9 254.2,114.2 255.2,114.7 256.2,115.1 257.3,115.6 
				258.5,116 259.6,116.4 260.7,116.7 261.8,117 262.8,117.2 			"/>
		</g>
	</g>
	<g id="POLYLINE_5_">
		<g>
			<polyline class="st0" points="234.2,90.4 235.1,91.5 236.4,93 237.5,94.4 238.6,95.5 239.5,96.4 240.3,97.2 241.1,97.9 
				241.9,98.5 242.6,99 243.2,99.5 243.9,99.9 244.6,100.2 245.4,100.6 246.2,100.9 247.1,101.3 248,101.6 249.1,102.1 250.3,102.5 
				251.6,102.9 253,103.4 254.4,103.8 255.9,104.1 257.3,104.5 258.8,104.7 			"/>
		</g>
	</g>
	<g id="POLYLINE_6_">
		<g>
			<polyline class="st0" points="305,102.3 308.3,101.5 311.3,100.7 313.9,99.8 316.1,98.9 318.1,98.1 319.8,97.3 321.3,96.5 
				322.6,95.7 323.7,95.1 324.7,94.4 325.5,93.8 326.3,93.3 326.9,92.7 327.6,92.1 328.2,91.6 328.8,91 329.4,90.3 330,89.7 
				330.6,88.9 331.3,88.1 331.6,87.8 			"/>
		</g>
	</g>
	<g id="POLYLINE_7_">
		<g>
			<polyline class="st0" points="310.8,104.1 312.2,103.7 313.7,103.2 315.3,102.6 316.8,101.9 318.4,101.1 319.9,100.3 321.3,99.6 
				322.6,98.8 323.7,98.1 324.7,97.5 325.5,96.9 326.3,96.3 326.9,95.8 327.6,95.2 328.2,94.6 328.8,94 329.4,93.4 330,92.7 
				330.6,92 331.3,91.2 332,90.3 332.3,89.8 			"/>
		</g>
	</g>
	<g id="POLYLINE_8_">
		<g>
			<polyline class="st0" points="308.4,115.4 310.9,114.4 313.1,113.4 315,112.5 316.8,111.6 318.3,110.9 319.7,110.1 321,109.4 
				322.1,108.7 323.2,108.1 324.1,107.5 325,106.8 325.8,106.2 326.6,105.6 327.4,105 328.2,104.4 329,103.8 329.7,103.1 
				330.6,102.4 331.4,101.7 332.3,100.9 333.2,100 334.1,99.1 			"/>
		</g>
	</g>
	<g id="POLYLINE_9_">
		<g>
			<polyline class="st0" points="312.6,117.1 313.9,116.5 315.2,115.9 316.5,115.3 317.8,114.7 319.1,114 320.3,113.3 321.5,112.6 
				322.6,111.9 323.7,111.3 324.6,110.7 325.5,110 326.3,109.4 327.1,108.8 327.9,108.2 328.7,107.6 329.5,107 330.3,106.3 
				331.1,105.6 331.9,104.9 332.8,104.1 333.7,103.2 334.5,102.4 			"/>
		</g>
	</g>
	<g id="POLYLINE_10_">
		<g>
			<polyline class="st0" points="308.8,129.1 313.3,127.4 317,125.9 320,124.6 322.4,123.5 324.4,122.5 326,121.6 327.4,120.7 
				328.6,119.9 329.8,119.1 331,118.2 332.2,117.2 333.5,116.2 334.9,115 336.3,113.7 336.8,113.2 			"/>
		</g>
	</g>
	<g id="LINE_64_">
		<g>
			<line class="st0" x1="257.5" y1="209.6" x2="246" y2="205.5"/>
		</g>
	</g>
	<g id="LINE_65_">
		<g>
			<line class="st0" x1="243.4" y1="202.9" x2="236.8" y2="185.9"/>
		</g>
	</g>
	<g id="LINE_66_">
		<g>
			<line class="st0" x1="234.2" y1="183.4" x2="227.3" y2="180.9"/>
		</g>
	</g>
	<g id="LINE_67_">
		<g>
			<line class="st0" x1="327.4" y1="33.4" x2="327.4" y2="80.9"/>
		</g>
	</g>
	<g id="LINE_68_">
		<g>
			<line class="st0" x1="240.6" y1="33.4" x2="240.6" y2="82.1"/>
		</g>
	</g>
	<g id="LINE_69_">
		<g>
			<line class="st0" x1="240.6" y1="29.3" x2="240.6" y2="70.3"/>
		</g>
	</g>
	<g id="SPLINE_1_">
		<g>
			<path class="st0" d="M240.6,70.3c-2.7,4.4-2.6,6.6-2.1,8.2c0.5,1.7,1.2,2.8,2.5,4c1.2,1.2,2.9,2.5,4.7,3.6c1.8,1.1,3.7,2,6.2,2.8
				c2.4,0.8,5.4,1.7,8.3,2.3c3,0.7,6,1.2,8.9,1.6c2.9,0.4,5.7,0.8,8.2,1c2.5,0.2,4.9,0.3,7.2,0.2c2.3,0,4.6-0.1,6.9-0.4
				c2.3-0.2,4.7-0.5,7-0.9c2.3-0.4,4.6-0.9,6.8-1.4c2.2-0.5,4.1-1,6.1-1.5c2-0.6,4-1.2,5.6-1.9c1.7-0.7,3-1.5,4.3-2.3
				c1.3-0.9,2.6-1.8,3.7-2.7c1.1-0.9,2.2-1.8,2.9-2.7c0.7-0.8,1.2-1.6,1.5-2.7c0.2-1.1,0.2-2.7,0-4c-0.2-1.3-0.7-2.5-2-3.5"/>
		</g>
	</g>
	<g id="SPLINE_2_">
		<g>
			<path class="st0" d="M329.5,77.1c1.7,3.4,1.8,4.7,1.8,5.9c0.1,1.2,0.1,2.1,0.1,3c0,0.9,0.1,1.6,0.3,2.3c0.2,0.7,0.6,1.3,0.8,2
				c0.3,0.7,0.5,1.5,0.6,2.2c0.1,0.8,0.1,1.5,0.2,2.2c0.1,0.7,0.4,1.3,0.6,2.2c0.1,0.9,0.1,2.1,0.2,3.1c0.1,1,0.3,1.9,0.5,2.7
				c0.1,0.8,0.2,1.6,0.4,2.3c0.2,0.8,0.6,1.5,0.8,2.4c0.3,0.9,0.5,2,0.6,3c0.1,1,0.2,2.1,0.3,3c0.1,0.9,0.2,1.6,0.5,2.4
				c0.2,0.8,0.5,1.7,0.9,2.6c0.4,0.9,1,1.7,1.3,2.6c0.3,0.8,0.5,1.7,0.6,2.6c0.1,0.9,0.3,2,0.4,3.4c0.1,1.4,0.3,3.1,0.4,4.6
				c0.1,1.5,0.2,2.8,0.2,4.2c0,1.4,0,3,0,4.4c0,1.4,0,2.6-0.1,3.8c-0.1,1.2-0.3,2.4-0.6,3.4c-0.3,1-0.6,2-1,2.8
				c-0.3,0.9-0.7,1.7-1,2.4c-0.3,0.7-0.7,1.4-1.3,2.1c-0.6,0.7-1.5,1.5-2.6,2.4c-1.1,0.9-2.2,1.8-3.2,2.6c-1,0.8-1.7,1.6-2.6,2.4
				c-0.9,0.8-1.9,1.7-2.8,2.6s-2,1.7-3,2.3c-1,0.6-2.2,0.8-3.2,1.1c-1,0.3-2,0.6-3,0.7c-0.9,0.1-1.9,0.1-2.8,0.2
				c-0.9,0-1.8,0.1-2.7,0.5c-0.8,0.3-1.6,1-2.6,1.5c-0.9,0.5-2.1,0.9-3,1.3c-1,0.3-1.8,0.6-2.8,0.9c-1,0.2-2.2,0.5-3.1,0.5
				c-0.9,0.1-1.5,0-2.5-0.3c-1-0.3-2.4-0.8-4.5-1.9"/>
		</g>
	</g>
	<g id="LINE_70_">
		<g>
			<line class="st0" x1="236.5" y1="185.2" x2="249.6" y2="176.2"/>
		</g>
	</g>
	<g id="LINE_71_">
		<g>
			<line class="st0" x1="243.8" y1="203.7" x2="259.2" y2="192.6"/>
		</g>
	</g>
	<g id="ELLIPSE">
		<g>
			<path class="st0" d="M242,176.7c0-1.4-1.9-2.5-4.2-2.5c-2.3,0-4.2,1.1-4.2,2.5c0,1.4,1.9,2.5,4.2,2.5
				C240.1,179.3,242,178.1,242,176.7L242,176.7z"/>
		</g>
	</g>
	<g id="LINE_72_">
		<g>
			<line class="st0" x1="212.5" y1="154.1" x2="193.3" y2="165.1"/>
		</g>
	</g>
	<g id="LINE_73_">
		<g>
			<line class="st0" x1="361.5" y1="161.1" x2="343.9" y2="174"/>
		</g>
	</g>
	<g id="POLYLINE_11_">
		<g>
			<polyline class="st0" points="229.7,109.7 229.5,110 229.4,110.2 229.3,110.4 229.1,110.7 229,110.9 228.8,111.2 228.7,111.5 
				228.5,111.7 228.3,112 228.2,112.3 228,112.6 227.8,113 227.6,113.3 227.5,113.6 227.3,113.9 227.1,114.3 227,114.6 226.8,114.9 
				226.6,115.3 226.5,115.6 226.3,116 226.1,116.4 226,116.7 225.8,117.1 225.6,117.5 225.4,117.8 225.3,118.2 225.1,118.6 
				224.9,118.9 224.7,119.2 224.6,119.5 224.4,119.8 224.2,120.1 224.1,120.4 223.9,120.6 223.8,120.9 223.6,121.2 223.5,121.5 
				223.3,121.8 223.2,122.1 223.1,122.4 222.9,122.7 222.8,123.1 222.6,123.4 222.5,123.8 222.3,124.1 222.1,124.5 221.9,124.9 
				221.7,125.3 221.5,125.7 221.4,126.1 221.2,126.5 221,126.9 220.8,127.2 220.6,127.6 220.4,127.9 220.3,128.2 220.1,128.6 
				219.9,128.9 219.8,129.2 219.6,129.5 219.5,129.9 219.3,130.2 219.2,130.6 219.1,131 219,131.4 218.8,131.8 218.7,132.2 
				218.7,132.6 218.6,133 218.5,133.3 218.5,133.7 218.4,134.1 218.4,134.4 218.4,134.8 218.4,135.2 218.4,135.5 218.4,135.9 
				218.4,136.3 218.3,136.7 218.3,137.1 218.3,137.6 218.3,138 218.2,138.4 218.2,138.9 218.2,139.3 218.2,139.7 218.1,140.1 
				218.1,140.5 218.1,140.9 218.1,141.3 218.1,141.7 218.1,142.2 218.1,142.6 218.1,143 218.1,143.5 218.2,143.9 218.2,144.4 
				218.3,144.8 218.4,145.3 218.4,145.7 218.5,146.2 218.7,146.6 218.8,147 218.9,147.4 219,147.8 219.2,148.2 219.3,148.7 
				219.4,149.1 219.5,149.5 219.5,149.9 219.6,150.4 219.6,150.8 219.7,151.3 219.7,151.7 219.7,152.2 219.7,152.6 219.8,153 
				219.8,153.4 219.9,153.7 219.9,154.1 220,154.4 220.1,154.7 220.2,155.1 220.3,155.4 220.4,155.7 220.6,156 220.7,156.3 
				220.9,156.6 221.1,157 221.2,157.3 221.4,157.6 221.6,157.9 221.8,158.2 222,158.5 222.2,158.8 222.4,159.1 222.6,159.4 
				222.8,159.6 223,159.9 223.2,160.2 223.4,160.4 223.6,160.7 223.7,161 223.9,161.2 224.1,161.5 224.3,161.7 224.5,161.9 
				224.7,162.2 224.9,162.4 225.2,162.7 225.4,162.9 225.7,163.2 226,163.4 226.4,163.7 226.7,163.9 227.1,164.1 227.6,164.3 
				228,164.5 228.5,164.6 229.1,164.7 229.6,164.9 230.2,164.9 230.9,165 231.5,165 232.3,165 233,164.9 233.8,164.9 234.6,164.8 
				235.4,164.7 236.2,164.6 237,164.4 237.8,164.3 238.6,164.2 239.3,164.1 240,164 240.7,163.9 241.3,163.8 241.9,163.7 
				242.5,163.7 243.1,163.6 243.7,163.6 244.2,163.5 244.8,163.5 245.3,163.5 245.9,163.5 246.4,163.5 246.9,163.5 247.5,163.5 
				248,163.6 248.6,163.6 249.1,163.7 249.6,163.7 250.2,163.8 250.7,163.9 251.3,164 251.8,164.2 252.3,164.3 252.8,164.5 
				253.4,164.7 253.9,164.9 254.4,165.2 254.9,165.5 255.5,165.8 256,166.2 256.6,166.5 257.2,167 257.9,167.4 258.5,167.9 
				259.1,168.3 259.8,168.8 260.4,169.3 261.1,169.8 261.7,170.2 262.3,170.6 262.9,171 263.5,171.4 264.1,171.8 264.6,172.2 
				265.2,172.5 265.8,172.8 266.3,173.2 266.9,173.5 267.5,173.8 268,174.1 268.6,174.4 269.1,174.8 269.7,175.1 270.2,175.4 
				270.7,175.7 271.2,176 271.7,176.3 272.1,176.6 272.6,176.8 273,177.1 273.5,177.4 273.9,177.6 274.4,177.9 274.8,178.1 
				275.3,178.3 275.8,178.5 276.3,178.8 276.7,179 277.2,179.2 277.7,179.4 278.2,179.6 278.7,179.9 279.1,180.1 279.6,180.4 
				280,180.6 280.5,180.9 280.9,181.1 281.4,181.4 281.9,181.6 282.3,181.8 282.8,182 283.2,182.2 283.7,182.4 284.2,182.5 
				284.7,182.7 285.2,182.8 285.7,182.9 286.2,183.1 286.7,183.2 287.2,183.3 287.7,183.3 288.3,183.4 288.9,183.5 289.5,183.5 
				290.1,183.5 290.8,183.6 291.5,183.6 292.2,183.6 292.9,183.6 293.6,183.6 294.3,183.6 295,183.6 295.7,183.7 296.3,183.7 
				296.9,183.8 297.4,183.9 298,184 298.5,184.1 299,184.2 299.6,184.2 300.2,184.3 300.8,184.3 301.4,184.3 302,184.3 302.7,184.3 
				303.4,184.2 304,184.2 304.7,184.1 305.3,184.1 306,184 306.6,183.9 307.2,183.9 307.8,183.8 308.5,183.7 309.1,183.6 
				309.7,183.5 310.4,183.5 311,183.4 311.7,183.3 312.5,183.2 313.3,183.2 314.2,183.1 315.1,183 316.1,182.9 317.3,182.8 			"/>
		</g>
	</g>
	<g id="POLYLINE_12_">
		<g>
			<polyline class="st0" points="238.4,75.6 237.9,77.3 237.5,78.8 237.2,80 237,81 236.8,81.8 236.7,82.4 236.6,83 236.6,83.4 
				236.5,83.8 236.4,84.1 236.3,84.4 236.2,84.7 236.1,85 236,85.2 235.9,85.5 235.8,85.8 235.7,86.1 235.6,86.4 235.5,86.7 			"/>
		</g>
	</g>
	<g id="POLYLINE_13_">
		<g>
			<polyline class="st0" points="235.4,87 235.3,87.4 235.2,87.7 235.1,88.1 235,88.4 234.9,88.7 234.8,88.9 234.7,89.2 234.6,89.4 
				234.5,89.7 234.4,89.9 234.3,90.2 234.2,90.4 234.1,90.7 234.1,91 234,91.3 233.9,91.6 233.9,91.9 233.8,92.2 233.8,92.5 
				233.7,92.8 233.7,93.1 233.6,93.4 233.6,93.7 233.5,94.1 233.5,94.4 233.4,94.7 233.4,94.9 233.3,95.2 233.2,95.5 233.2,95.8 
				233.1,96 233.1,96.3 233,96.5 233,96.7 233,97 232.9,97.2 232.9,97.4 232.8,97.7 232.8,97.9 232.8,98.1 232.7,98.4 232.7,98.6 
				232.7,98.8 232.6,99 232.6,99.2 232.6,99.4 232.5,99.6 232.5,99.7 232.4,99.9 232.4,100.1 232.3,100.3 232.3,100.5 232.2,100.7 
				232.1,100.9 232.1,101.2 232,101.4 232,101.7 231.9,101.9 231.9,102.2 231.8,102.4 231.7,102.7 231.7,102.9 231.6,103.2 
				231.5,103.4 231.4,103.7 231.4,103.9 231.3,104.2 231.2,104.4 231.2,104.7 231.1,105 231.1,105.3 231,105.6 230.9,105.9 
				230.9,106.2 230.8,106.5 230.7,106.9 230.6,107.2 230.5,107.5 230.4,107.8 230.4,108.1 230.2,108.4 230.1,108.7 230,109 
				229.9,109.2 229.8,109.5 			"/>
		</g>
	</g>
	<g id="POLYLINE_14_">
		<g>
			<polyline class="st0" points="218.1,141.8 218,141.9 217.3,143.4 216.7,144.8 216.1,145.9 215.6,147 215.2,147.9 214.8,148.7 
				214.4,149.5 214.1,150.2 213.8,150.8 213.5,151.4 213.3,152 213,152.6 212.8,153.1 212.6,153.7 212.4,154.2 212.3,154.7 
				212.1,155.3 212,155.9 211.8,156.4 211.7,157 211.6,157.6 211.5,158.1 211.5,158.7 211.4,159.2 211.4,159.7 211.3,160.3 
				211.3,160.8 211.3,161.2 211.3,161.7 211.4,162.2 211.4,162.6 211.4,163.1 211.5,163.5 211.5,163.9 211.6,164.2 211.6,164.6 
				211.7,165 211.7,165.3 211.8,165.7 211.9,166 212,166.4 212,166.7 212.1,167 212.2,167.4 212.3,167.8 212.4,168.1 212.5,168.6 
				212.6,169 212.7,169.4 212.9,169.9 213,170.3 213.2,170.8 213.4,171.3 213.6,171.8 213.8,172.3 214,172.7 214.3,173.2 
				214.6,173.7 214.9,174.1 215.2,174.5 215.4,175 215.7,175.4 216,175.8 216.2,176.2 216.5,176.5 216.7,176.9 216.9,177.2 
				217.2,177.6 217.4,177.9 217.6,178.2 217.8,178.5 218,178.8 218.3,179.1 218.5,179.4 218.8,179.7 219.2,180.1 219.6,180.6 
				220,181.1 220.5,181.7 			"/>
		</g>
	</g>
	<g id="POLYLINE_15_">
		<g>
			<polyline class="st0" points="218.3,137.5 217.7,137.7 216,138.3 214.6,138.8 213.3,139.3 212.2,139.8 211.3,140.2 210.5,140.6 
				209.8,141 209.1,141.3 208.5,141.6 207.9,141.9 207.4,142.2 206.9,142.4 206.4,142.7 205.9,143 205.4,143.2 204.9,143.5 
				204.4,143.8 204,144 203.5,144.3 203,144.7 202.5,145 202,145.3 201.6,145.7 201.1,146 200.7,146.4 200.3,146.8 199.9,147.2 
				199.5,147.5 199.1,147.9 198.7,148.3 198.4,148.7 198,149 197.7,149.4 197.4,149.8 197.1,150.1 196.8,150.5 196.5,150.9 
				196.2,151.3 195.9,151.7 195.7,152.1 195.4,152.6 195.1,153 194.8,153.5 194.6,153.9 194.3,154.4 194.1,154.9 193.9,155.4 
				193.7,155.8 193.6,156.3 193.4,156.8 193.3,157.3 193.2,157.8 193.1,158.3 193.1,158.8 193,159.3 193,159.8 193,160.4 193,161 
				193,161.5 193,162.1 193,162.7 193.1,163.2 193.1,163.8 193.2,164.3 193.3,164.8 193.4,165.4 193.4,165.9 193.5,166.3 
				193.6,166.8 193.8,167.3 193.9,167.8 194,168.2 194.1,168.7 194.2,169.1 194.3,169.6 194.5,170 194.6,170.5 194.8,170.9 
				194.9,171.3 195.1,171.7 195.3,172.1 195.5,172.5 195.7,172.9 195.9,173.3 196.1,173.8 196.3,174.2 196.6,174.7 196.8,175.1 
				197,175.6 197.2,176.1 197.4,176.6 197.6,177.1 197.8,177.7 198,178.2 198.2,178.7 198.4,179.1 198.6,179.6 198.7,180 
				198.9,180.5 199.1,180.9 199.3,181.3 199.4,181.7 199.6,182 199.7,182.4 199.9,182.7 200,183.1 200.1,183.4 200.3,183.7 
				200.4,184.1 200.6,184.4 200.7,184.7 200.9,185.1 201,185.4 201.2,185.8 201.4,186.2 201.5,186.5 201.7,186.9 201.9,187.3 
				202,187.6 202.2,188 202.3,188.3 202.5,188.6 202.6,189 202.8,189.3 202.9,189.6 203.1,189.9 203.2,190.2 203.4,190.5 
				203.5,190.7 203.6,191 203.8,191.2 203.9,191.5 204.1,191.8 204.2,192 204.4,192.3 204.5,192.6 204.7,192.9 204.8,193.2 
				204.9,193.4 			"/>
		</g>
	</g>
	<g id="SPLINE_3_">
		<g>
			<path class="st0" d="M227.3,180.9c-1.3-0.5-2.7-0.3-3.9,0.4"/>
		</g>
	</g>
	<g id="SPLINE_4_">
		<g>
			<path class="st0" d="M236.8,185.9c-0.5-1.2-1.4-2.1-2.6-2.5"/>
		</g>
	</g>
	<g id="SPLINE_5_">
		<g>
			<path class="st0" d="M243.4,202.9c0.5,1.2,1.4,2.1,2.6,2.5"/>
		</g>
	</g>
	<g id="POLYLINE_16_">
		<g>
			<polyline class="st0" points="218.9,184.3 219.1,183.9 219.3,183.6 219.5,183.3 219.7,183 219.8,182.8 219.9,182.6 220.1,182.4 
				220.2,182.3 220.3,182.1 220.4,182 220.5,181.8 220.6,181.7 220.7,181.6 220.7,181.5 220.8,181.4 220.9,181.3 221,181.2 
				221.1,181.1 221.2,181 221.3,180.9 221.3,180.8 221.4,180.7 221.5,180.6 221.6,180.5 221.7,180.5 221.8,180.4 221.8,180.3 
				221.9,180.2 222,180.1 222.1,180.1 222.2,180 222.3,179.9 222.3,179.8 222.4,179.8 222.5,179.7 222.6,179.6 222.7,179.6 
				222.7,179.5 222.8,179.5 222.9,179.4 223,179.3 223.1,179.3 223.1,179.2 223.2,179.2 223.3,179.1 223.4,179 223.5,179 
				223.5,178.9 223.6,178.9 223.7,178.8 223.8,178.8 223.8,178.7 223.9,178.7 224,178.6 224.1,178.5 224.2,178.5 224.2,178.4 
				224.3,178.4 224.4,178.3 224.5,178.3 224.5,178.2 224.6,178.2 224.7,178.1 224.7,178.1 224.8,178 224.9,178 225,177.9 225,177.9 
				225.1,177.8 225.2,177.8 225.3,177.7 225.3,177.7 225.4,177.6 225.5,177.6 225.5,177.5 225.6,177.5 225.7,177.4 225.7,177.4 
				225.8,177.3 225.9,177.3 226,177.3 226,177.2 226.1,177.2 226.2,177.1 226.2,177.1 226.3,177 226.4,177 226.4,176.9 226.5,176.9 
				226.6,176.8 226.6,176.8 226.7,176.7 226.8,176.7 226.8,176.7 226.9,176.6 227,176.6 227,176.5 227.1,176.5 227.2,176.4 
				227.2,176.4 227.3,176.3 227.4,176.3 227.4,176.2 227.5,176.2 227.6,176.1 227.6,176.1 227.7,176.1 227.7,176 227.8,176 
				227.9,175.9 227.9,175.9 228,175.8 228.1,175.8 228.1,175.7 228.2,175.7 228.3,175.6 228.3,175.6 228.4,175.5 228.4,175.5 
				228.5,175.4 228.6,175.4 228.6,175.4 228.7,175.3 228.8,175.3 228.8,175.2 228.9,175.2 228.9,175.1 229,175.1 229.1,175 
				229.1,175 229.2,174.9 229.2,174.9 229.3,174.8 229.4,174.8 229.4,174.7 229.5,174.7 229.5,174.6 229.6,174.6 229.7,174.5 
				229.7,174.5 229.8,174.4 229.8,174.4 229.9,174.4 230,174.3 230,174.3 230.1,174.2 230.1,174.2 230.2,174.1 230.3,174.1 
				230.3,174 230.4,174 230.4,173.9 230.5,173.9 230.6,173.9 230.6,173.8 230.7,173.8 230.8,173.7 230.8,173.7 230.9,173.6 
				230.9,173.6 231,173.5 231.1,173.5 231.1,173.5 231.2,173.4 231.2,173.4 231.3,173.3 231.4,173.3 231.4,173.2 231.5,173.2 
				231.5,173.2 231.6,173.1 231.7,173.1 231.7,173 231.8,173 231.9,173 231.9,172.9 232,172.9 232,172.8 232.1,172.8 232.2,172.8 
				232.2,172.7 232.3,172.7 232.3,172.7 232.4,172.6 232.5,172.6 232.5,172.5 232.6,172.5 232.7,172.5 232.7,172.4 232.8,172.4 
				232.9,172.4 232.9,172.3 233,172.3 233.1,172.3 233.1,172.2 233.2,172.2 233.2,172.2 233.3,172.2 233.4,172.1 233.4,172.1 
				233.5,172.1 233.6,172 233.6,172 233.7,172 233.8,172 233.8,171.9 233.9,171.9 234,171.9 234,171.9 234.1,171.8 234.2,171.8 
				234.3,171.8 234.3,171.8 234.4,171.7 234.5,171.7 234.5,171.7 234.6,171.7 234.7,171.7 234.7,171.6 234.8,171.6 234.9,171.6 
				235,171.6 235,171.6 235.1,171.6 235.2,171.5 235.2,171.5 235.3,171.5 235.4,171.5 235.5,171.5 235.5,171.5 235.6,171.5 
				235.7,171.4 235.8,171.4 235.8,171.4 235.9,171.4 236,171.4 236.1,171.4 236.2,171.4 236.2,171.4 236.3,171.4 236.4,171.4 
				236.5,171.4 236.5,171.4 236.6,171.4 236.7,171.4 236.8,171.4 236.9,171.4 236.9,171.4 237,171.4 237.1,171.4 237.2,171.4 
				237.3,171.4 237.4,171.4 237.4,171.4 237.5,171.4 237.6,171.4 237.7,171.4 237.8,171.4 237.9,171.4 237.9,171.4 238,171.4 
				238.1,171.4 238.2,171.4 238.3,171.5 238.4,171.5 238.4,171.5 238.5,171.5 238.6,171.5 238.7,171.5 238.8,171.5 238.9,171.5 
				239,171.6 239,171.6 239.1,171.6 239.2,171.6 239.3,171.6 239.4,171.6 239.5,171.6 239.6,171.7 239.7,171.7 239.7,171.7 
				239.8,171.7 239.9,171.7 240,171.8 240.1,171.8 240.2,171.8 240.3,171.8 240.3,171.8 240.4,171.9 240.5,171.9 240.6,171.9 
				240.7,171.9 240.8,171.9 240.9,172 240.9,172 241,172 241.1,172 241.2,172.1 241.3,172.1 241.4,172.1 241.5,172.1 241.5,172.2 
				241.6,172.2 241.7,172.2 241.8,172.2 241.9,172.3 242,172.3 242.1,172.3 242.1,172.4 242.2,172.4 242.3,172.4 242.4,172.4 
				242.5,172.5 242.6,172.5 242.6,172.5 242.7,172.6 242.8,172.6 242.9,172.6 243,172.6 243,172.7 243.1,172.7 243.2,172.7 
				243.3,172.8 243.4,172.8 243.4,172.8 243.5,172.9 243.6,172.9 243.7,172.9 243.8,173 243.8,173 243.9,173 244,173.1 244.1,173.1 
				244.2,173.1 244.2,173.1 244.3,173.2 244.4,173.2 244.5,173.2 244.5,173.3 244.6,173.3 244.7,173.3 244.8,173.4 244.8,173.4 
				244.9,173.5 245,173.5 245.1,173.5 245.1,173.6 245.2,173.6 245.3,173.6 245.4,173.7 245.4,173.7 245.5,173.7 245.6,173.8 
				245.6,173.8 245.7,173.8 245.8,173.9 245.9,173.9 245.9,173.9 246,174 246.1,174 246.1,174 246.2,174.1 246.3,174.1 246.3,174.1 
				246.4,174.2 246.5,174.2 246.6,174.3 246.6,174.3 246.7,174.3 246.8,174.4 246.8,174.4 246.9,174.4 246.9,174.5 247,174.5 
				247.1,174.5 247.1,174.6 247.2,174.6 247.3,174.6 247.3,174.7 247.4,174.7 247.5,174.7 247.5,174.8 247.6,174.8 247.6,174.9 
				247.7,174.9 247.8,174.9 247.8,175 247.9,175 247.9,175 248,175.1 248.1,175.1 248.1,175.1 248.2,175.2 248.2,175.2 248.3,175.2 
				248.4,175.3 248.4,175.3 248.5,175.4 248.5,175.4 248.6,175.4 248.6,175.5 248.7,175.5 248.7,175.5 248.8,175.6 248.8,175.6 
				248.9,175.6 249,175.7 249,175.7 249.1,175.8 249.1,175.8 249.2,175.8 249.2,175.9 249.3,175.9 249.3,175.9 249.4,176 249.4,176 
				249.5,176 249.5,176.1 249.6,176.1 249.6,176.2 249.7,176.2 249.7,176.2 249.7,176.3 249.8,176.3 249.8,176.3 249.9,176.4 
				249.9,176.4 250,176.5 250,176.5 250.1,176.5 250.1,176.6 250.1,176.6 250.2,176.6 250.2,176.7 250.3,176.7 250.3,176.8 
				250.4,176.8 250.4,176.8 250.4,176.9 250.5,176.9 250.5,177 250.6,177 250.6,177 250.6,177.1 250.7,177.1 250.7,177.1 
				250.8,177.2 250.8,177.2 250.8,177.3 250.9,177.3 250.9,177.3 250.9,177.4 251,177.4 251,177.5 251.1,177.5 251.1,177.6 
				251.1,177.6 251.2,177.6 251.2,177.7 251.2,177.7 251.3,177.8 251.3,177.8 251.3,177.9 251.4,177.9 251.4,177.9 251.4,178 
				251.5,178 251.5,178.1 251.5,178.1 251.6,178.2 251.6,178.2 251.7,178.3 251.7,178.3 251.7,178.4 251.8,178.4 251.8,178.5 
				251.8,178.5 251.9,178.6 251.9,178.6 251.9,178.7 252,178.7 252,178.8 252,178.8 252.1,178.9 252.1,178.9 252.1,179 252.2,179 
				252.2,179.1 252.2,179.1 252.3,179.2 252.3,179.2 252.4,179.3 252.4,179.3 252.4,179.4 252.5,179.5 252.5,179.5 252.5,179.6 
				252.6,179.6 252.6,179.7 252.6,179.8 252.7,179.8 252.7,179.9 252.8,179.9 252.8,180 252.8,180.1 252.9,180.1 252.9,180.2 
				252.9,180.2 253,180.3 253,180.4 253.1,180.4 253.1,180.5 253.1,180.6 253.2,180.6 253.2,180.7 253.3,180.8 253.3,180.8 
				253.3,180.9 253.4,181 253.4,181 253.4,181.1 253.5,181.2 253.5,181.2 253.6,181.3 253.6,181.4 253.6,181.4 253.7,181.5 
				253.7,181.6 253.8,181.6 253.8,181.7 253.8,181.8 253.9,181.9 253.9,181.9 253.9,182 254,182.1 254,182.1 254,182.2 254.1,182.3 
				254.1,182.3 254.2,182.4 254.2,182.5 254.2,182.5 254.3,182.6 254.3,182.7 254.3,182.7 254.4,182.8 254.4,182.9 254.4,182.9 
				254.5,183 254.5,183.1 254.5,183.1 254.6,183.2 254.6,183.3 254.6,183.3 254.7,183.4 254.7,183.5 254.7,183.5 254.8,183.6 
				254.8,183.7 254.8,183.7 254.8,183.8 254.9,183.9 254.9,183.9 254.9,184 255,184.1 255,184.1 255,184.2 255,184.2 255.1,184.3 
				255.1,184.4 255.1,184.4 255.1,184.5 255.2,184.5 255.2,184.6 255.2,184.7 255.2,184.7 255.3,184.8 255.3,184.8 255.3,184.9 
				255.3,185 255.3,185 255.4,185.1 255.4,185.1 255.4,185.2 255.4,185.3 255.5,185.3 255.5,185.4 255.5,185.4 255.5,185.5 
				255.5,185.5 255.6,185.6 255.6,185.6 255.6,185.7 255.6,185.8 255.6,185.8 255.7,185.9 255.7,185.9 255.7,186 255.7,186 
				255.7,186.1 255.8,186.2 255.8,186.2 255.8,186.3 255.8,186.3 255.8,186.4 255.9,186.4 255.9,186.5 255.9,186.5 255.9,186.6 
				255.9,186.6 256,186.7 256,186.8 256,186.8 256,186.9 256,186.9 256.1,187 256.1,187 256.1,187.1 256.1,187.1 256.2,187.2 
				256.2,187.2 256.2,187.3 256.2,187.3 256.2,187.4 256.3,187.5 256.3,187.5 256.3,187.6 256.3,187.6 256.4,187.7 256.4,187.7 
				256.4,187.8 256.4,187.8 256.5,187.9 256.5,187.9 256.5,188 256.5,188.1 256.6,188.1 256.6,188.2 256.6,188.2 256.6,188.3 
				256.7,188.3 256.7,188.4 256.7,188.4 256.7,188.5 256.8,188.5 256.8,188.6 256.8,188.6 256.8,188.7 256.9,188.8 256.9,188.8 
				256.9,188.9 256.9,188.9 257,189 257,189 257,189.1 257.1,189.1 257.1,189.2 257.1,189.2 257.1,189.3 257.2,189.3 257.2,189.4 
				257.2,189.4 257.2,189.5 257.3,189.5 257.3,189.6 257.3,189.6 257.3,189.7 257.4,189.7 257.4,189.8 257.4,189.8 257.5,189.9 
				257.5,189.9 257.5,190 257.5,190 257.6,190.1 257.6,190.1 257.6,190.2 257.6,190.2 257.7,190.3 257.7,190.3 257.7,190.4 
				257.7,190.4 257.8,190.5 257.8,190.5 257.8,190.5 257.8,190.6 257.9,190.6 257.9,190.7 257.9,190.7 257.9,190.8 258,190.8 
				258,190.9 258,190.9 258,190.9 258,191 258.1,191 258.1,191.1 258.1,191.1 258.1,191.1 258.2,191.2 258.2,191.2 258.2,191.3 
				258.2,191.3 258.3,191.3 258.3,191.4 258.3,191.4 258.3,191.5 258.3,191.5 258.4,191.5 258.4,191.6 258.4,191.6 258.4,191.6 
				258.5,191.7 258.5,191.7 258.5,191.8 258.5,191.8 258.6,191.8 258.6,191.9 258.6,191.9 258.6,191.9 258.7,192 258.7,192 
				258.7,192 258.7,192.1 258.8,192.1 258.8,192.1 258.8,192.2 258.8,192.2 258.9,192.2 258.9,192.3 258.9,192.3 259,192.3 
				259,192.4 259,192.4 259,192.4 259.1,192.5 259.1,192.5 259.1,192.5 259.2,192.5 259.2,192.6 259.2,192.6 259.3,192.6 
				259.3,192.7 259.3,192.7 259.4,192.7 259.4,192.8 259.5,192.8 259.5,192.8 259.5,192.8 259.6,192.9 259.6,192.9 259.6,192.9 
				259.7,192.9 259.7,193 259.8,193 259.8,193 259.9,193.1 259.9,193.1 259.9,193.1 260,193.1 260,193.2 260.1,193.2 260.1,193.2 
				260.2,193.2 260.2,193.3 260.3,193.3 260.3,193.3 260.4,193.3 260.4,193.4 260.5,193.4 260.5,193.4 260.6,193.4 260.6,193.5 
				260.7,193.5 260.7,193.5 260.8,193.5 260.8,193.6 260.9,193.6 260.9,193.6 261,193.6 261.1,193.7 261.1,193.7 261.2,193.7 
				261.2,193.7 261.3,193.8 261.3,193.8 261.4,193.8 261.4,193.8 261.5,193.8 261.6,193.9 261.6,193.9 261.7,193.9 261.7,193.9 
				261.8,194 261.9,194 261.9,194 262,194 262,194 262.1,194.1 262.1,194.1 262.2,194.1 262.3,194.1 262.3,194.2 262.4,194.2 
				262.4,194.2 262.5,194.2 262.6,194.2 262.6,194.3 262.7,194.3 262.7,194.3 262.8,194.3 262.8,194.3 262.9,194.4 263,194.4 
				263,194.4 263.1,194.4 263.1,194.4 263.2,194.5 263.2,194.5 263.3,194.5 263.4,194.5 263.4,194.5 263.5,194.5 263.5,194.6 
				263.6,194.6 263.6,194.6 263.7,194.6 263.8,194.6 263.8,194.7 263.9,194.7 263.9,194.7 264,194.7 264,194.7 264.1,194.7 
				264.1,194.8 264.2,194.8 264.3,194.8 264.3,194.8 264.4,194.8 264.4,194.8 264.5,194.9 264.5,194.9 264.6,194.9 264.6,194.9 
				264.7,194.9 264.8,195 264.8,195 264.9,195 264.9,195 265,195 265,195 265.1,195 265.1,195.1 265.2,195.1 265.3,195.1 
				265.3,195.1 265.4,195.1 265.4,195.1 265.5,195.2 265.5,195.2 265.6,195.2 265.7,195.2 265.7,195.2 265.8,195.2 265.8,195.3 
				265.9,195.3 265.9,195.3 266,195.3 266.1,195.3 266.1,195.3 266.2,195.3 266.2,195.4 266.3,195.4 266.3,195.4 266.4,195.4 
				266.5,195.4 266.5,195.4 266.6,195.4 266.6,195.5 266.7,195.5 266.8,195.5 266.8,195.5 266.9,195.5 266.9,195.5 267,195.5 
				267.1,195.6 267.1,195.6 267.2,195.6 267.3,195.6 267.3,195.6 267.4,195.6 267.4,195.6 267.5,195.7 267.6,195.7 267.6,195.7 
				267.7,195.7 267.8,195.7 267.8,195.7 267.9,195.7 267.9,195.8 268,195.8 268.1,195.8 268.1,195.8 268.2,195.8 268.3,195.8 
				268.3,195.8 268.4,195.8 268.5,195.9 268.5,195.9 268.6,195.9 268.7,195.9 268.7,195.9 268.8,195.9 268.9,195.9 268.9,195.9 
				269,196 269.1,196 269.1,196 269.2,196 269.3,196 269.3,196 269.4,196 269.5,196 269.5,196 269.6,196.1 269.7,196.1 269.7,196.1 
				269.8,196.1 269.9,196.1 269.9,196.1 270,196.1 270.1,196.1 270.1,196.1 270.2,196.2 270.3,196.2 270.3,196.2 270.4,196.2 
				270.5,196.2 270.6,196.2 270.6,196.2 270.7,196.2 270.8,196.2 270.8,196.3 270.9,196.3 271,196.3 271,196.3 271.1,196.3 
				271.2,196.3 271.2,196.3 271.3,196.3 271.4,196.3 271.4,196.3 271.5,196.4 271.6,196.4 271.6,196.4 271.7,196.4 271.8,196.4 
				271.8,196.4 271.9,196.4 272,196.4 272.1,196.4 272.1,196.4 272.2,196.4 272.3,196.5 272.3,196.5 272.4,196.5 272.5,196.5 
				272.5,196.5 272.6,196.5 272.7,196.5 272.7,196.5 272.8,196.5 272.9,196.5 272.9,196.5 273,196.5 273.1,196.6 273.1,196.6 
				273.2,196.6 273.3,196.6 273.3,196.6 273.4,196.6 273.5,196.6 273.5,196.6 273.6,196.6 273.7,196.6 273.7,196.6 273.8,196.6 
				273.9,196.6 273.9,196.6 274,196.7 274.1,196.7 274.1,196.7 274.2,196.7 274.3,196.7 274.3,196.7 274.4,196.7 274.5,196.7 
				274.5,196.7 274.6,196.7 274.7,196.7 274.7,196.7 274.8,196.7 274.9,196.7 274.9,196.8 275,196.8 275,196.8 275.1,196.8 
				275.2,196.8 275.2,196.8 275.3,196.8 275.4,196.8 275.4,196.8 275.5,196.8 275.6,196.8 275.6,196.8 275.7,196.8 275.8,196.8 
				275.8,196.8 275.9,196.8 275.9,196.8 276,196.9 276.1,196.9 276.1,196.9 276.2,196.9 276.3,196.9 276.3,196.9 276.4,196.9 
				276.4,196.9 276.5,196.9 276.6,196.9 276.6,196.9 276.7,196.9 276.8,196.9 276.8,196.9 276.9,196.9 276.9,196.9 277,196.9 
				277.1,196.9 277.1,196.9 277.2,196.9 277.3,197 277.3,197 277.4,197 277.4,197 277.5,197 277.6,197 277.6,197 277.7,197 
				277.8,197 277.8,197 277.9,197 277.9,197 278,197 278.1,197 278.1,197 278.2,197 278.3,197 278.3,197 278.4,197 278.5,197 
				278.5,197 278.6,197 278.6,197 278.7,197 278.8,197 278.8,197 278.9,197 279,197 279,197 279.1,197 279.2,197 279.2,197 
				279.3,197 279.3,197 279.4,197 279.5,197 279.5,197 279.6,197 279.7,197 279.7,197 279.8,197 279.9,197 279.9,197 280,197 
				280.1,197 280.1,197 280.2,197 280.3,197 280.3,197 280.4,197 280.5,197 280.5,197 280.6,197 280.7,197 280.8,197 280.8,197 
				280.9,197 281,197 281,197 281.1,197 281.2,197 281.3,196.9 281.3,196.9 281.4,196.9 281.5,196.9 281.6,196.9 281.6,196.9 
				281.7,196.9 281.8,196.9 281.9,196.9 281.9,196.9 282,196.9 282.1,196.9 282.2,196.9 282.3,196.9 282.3,196.9 282.4,196.9 
				282.5,196.9 282.6,196.8 282.7,196.8 282.7,196.8 282.8,196.8 282.9,196.8 283,196.8 283.1,196.8 283.2,196.8 283.3,196.8 
				283.3,196.8 283.4,196.8 283.5,196.8 283.6,196.7 283.7,196.7 283.8,196.7 283.9,196.7 284,196.7 284.1,196.7 284.2,196.7 
				284.3,196.7 284.4,196.7 284.5,196.7 284.6,196.6 284.7,196.6 284.8,196.6 284.9,196.6 285,196.6 285.1,196.6 285.2,196.6 
				285.3,196.6 285.4,196.6 285.5,196.5 285.6,196.5 285.7,196.5 285.8,196.5 285.9,196.5 286,196.5 286.1,196.5 286.2,196.5 
				286.3,196.4 286.4,196.4 286.5,196.4 286.7,196.4 286.8,196.4 286.9,196.4 287,196.4 287.1,196.4 287.2,196.3 287.3,196.3 
				287.4,196.3 287.5,196.3 287.7,196.3 287.8,196.3 287.9,196.3 288,196.2 288.1,196.2 288.2,196.2 288.3,196.2 288.4,196.2 
				288.6,196.2 288.7,196.2 288.8,196.2 288.9,196.1 289,196.1 289.1,196.1 289.2,196.1 289.4,196.1 289.5,196.1 289.6,196.1 
				289.7,196 289.8,196 289.9,196 290,196 290.1,196 290.3,196 290.4,196 290.5,196 290.6,195.9 290.7,195.9 290.8,195.9 
				290.9,195.9 291,195.9 291.2,195.9 291.3,195.9 291.4,195.9 291.5,195.8 291.6,195.8 291.7,195.8 291.8,195.8 291.9,195.8 
				292,195.8 292.1,195.8 292.2,195.8 292.4,195.7 292.5,195.7 292.6,195.7 292.7,195.7 292.8,195.7 292.9,195.7 293,195.7 
				293.1,195.7 293.2,195.7 293.3,195.6 293.4,195.6 293.5,195.6 293.6,195.6 293.7,195.6 293.8,195.6 293.9,195.6 294,195.6 
				294.1,195.6 294.2,195.5 294.3,195.5 294.5,195.5 294.6,195.5 294.7,195.5 294.8,195.5 294.9,195.5 295,195.5 295.1,195.5 
				295.2,195.4 295.3,195.4 295.4,195.4 295.5,195.4 295.6,195.4 295.7,195.4 295.8,195.4 295.9,195.4 296,195.4 296.1,195.4 
				296.1,195.3 296.2,195.3 296.3,195.3 296.4,195.3 296.5,195.3 296.6,195.3 296.7,195.3 296.8,195.3 296.9,195.3 297,195.2 
				297.1,195.2 297.2,195.2 297.3,195.2 297.4,195.2 297.5,195.2 297.6,195.2 297.7,195.2 297.8,195.2 297.9,195.2 298,195.1 
				298.1,195.1 298.2,195.1 298.3,195.1 298.3,195.1 298.4,195.1 298.5,195.1 298.6,195.1 298.7,195.1 298.8,195.1 298.9,195 
				299,195 299.1,195 299.2,195 299.3,195 299.4,195 299.5,195 299.6,195 299.6,195 299.7,195 299.8,194.9 299.9,194.9 300,194.9 
				300.1,194.9 300.2,194.9 300.3,194.9 300.4,194.9 300.5,194.9 300.6,194.9 300.7,194.9 300.8,194.9 300.8,194.8 300.9,194.8 
				301,194.8 301.1,194.8 301.2,194.8 301.3,194.8 301.4,194.8 301.5,194.8 301.6,194.8 301.7,194.8 301.8,194.8 301.9,194.7 
				302,194.7 302.1,194.7 302.1,194.7 302.2,194.7 302.3,194.7 302.4,194.7 302.5,194.7 302.6,194.7 302.7,194.7 302.8,194.7 
				302.9,194.7 303,194.6 303.1,194.6 303.2,194.6 303.3,194.6 303.4,194.6 303.5,194.6 303.6,194.6 303.7,194.6 303.8,194.6 
				303.9,194.6 304,194.6 304.1,194.6 304.2,194.6 304.3,194.5 304.4,194.5 304.5,194.5 304.6,194.5 304.7,194.5 304.8,194.5 
				304.9,194.5 305,194.5 305.1,194.5 305.2,194.5 305.3,194.5 305.4,194.5 305.5,194.5 305.6,194.5 305.7,194.4 305.8,194.4 
				305.9,194.4 306,194.4 306.1,194.4 306.2,194.4 306.3,194.4 306.4,194.4 306.5,194.4 306.6,194.4 306.7,194.4 306.8,194.4 
				306.9,194.4 307,194.3 307.1,194.3 307.2,194.3 307.3,194.3 307.4,194.3 307.5,194.3 307.6,194.3 307.7,194.3 307.8,194.3 
				307.9,194.3 308,194.2 308.1,194.2 308.2,194.2 308.3,194.2 308.4,194.2 308.5,194.2 308.6,194.2 308.7,194.2 308.8,194.2 
				308.9,194.1 309,194.1 309.1,194.1 309.2,194.1 309.3,194.1 309.4,194.1 309.5,194.1 309.6,194.1 309.6,194 309.7,194 309.8,194 
				309.9,194 310,194 310.1,194 310.2,194 310.3,193.9 310.4,193.9 310.5,193.9 310.6,193.9 310.7,193.9 310.8,193.9 310.9,193.8 
				311,193.8 311,193.8 311.1,193.8 311.2,193.8 311.3,193.7 311.4,193.7 311.5,193.7 311.6,193.7 311.7,193.7 311.8,193.6 
				311.9,193.6 311.9,193.6 312,193.6 312.1,193.6 312.2,193.5 312.3,193.5 312.4,193.5 312.5,193.5 312.6,193.5 312.7,193.4 
				312.7,193.4 312.8,193.4 312.9,193.4 313,193.3 313.1,193.3 313.2,193.3 313.3,193.3 313.4,193.3 313.4,193.2 313.5,193.2 
				313.6,193.2 313.7,193.2 313.8,193.1 313.9,193.1 314,193.1 314.1,193.1 314.1,193.1 314.2,193 314.3,193 314.4,193 314.5,193 
				314.6,192.9 314.7,192.9 314.8,192.9 314.9,192.9 314.9,192.8 315,192.8 315.1,192.8 315.2,192.8 315.3,192.7 315.4,192.7 
				315.5,192.7 315.6,192.7 315.7,192.7 315.7,192.6 315.8,192.6 315.9,192.6 316,192.6 316.1,192.5 316.2,192.5 316.3,192.5 
				316.4,192.5 316.5,192.5 316.6,192.4 316.7,192.4 316.7,192.4 316.8,192.4 316.9,192.3 317,192.3 317.1,192.3 317.2,192.3 
				317.3,192.3 317.4,192.2 317.5,192.2 317.6,192.2 317.7,192.2 317.8,192.1 317.9,192.1 318,192.1 318.1,192.1 318.2,192 
				318.2,192 318.3,192 318.4,192 318.5,192 318.6,191.9 318.7,191.9 318.8,191.9 318.9,191.9 319,191.8 319.1,191.8 319.2,191.8 
				319.3,191.8 319.4,191.7 319.5,191.7 319.6,191.7 319.7,191.7 319.8,191.6 319.9,191.6 320,191.6 320.1,191.5 320.2,191.5 
				320.3,191.5 320.4,191.5 320.5,191.4 320.6,191.4 320.7,191.4 320.8,191.3 320.9,191.3 321,191.3 321.2,191.3 321.3,191.2 
				321.4,191.2 321.5,191.2 321.6,191.1 321.7,191.1 321.8,191.1 321.9,191 322,191 322.1,191 322.2,190.9 322.3,190.9 322.4,190.9 
				322.5,190.8 322.6,190.8 322.8,190.8 322.9,190.7 323,190.7 323.1,190.6 323.2,190.6 323.3,190.6 323.4,190.5 323.5,190.5 
				323.6,190.5 323.7,190.4 323.8,190.4 324,190.3 324.1,190.3 324.2,190.3 324.3,190.2 324.4,190.2 324.5,190.1 324.6,190.1 
				324.7,190 324.8,190 324.9,190 325.1,189.9 325.2,189.9 325.3,189.8 325.4,189.8 325.5,189.7 325.6,189.7 325.7,189.6 
				325.8,189.6 325.9,189.6 326,189.5 326.2,189.5 326.3,189.4 326.4,189.4 326.5,189.3 326.6,189.3 326.7,189.2 326.8,189.2 
				326.9,189.1 327,189.1 327.1,189 327.2,189 327.3,188.9 327.4,188.9 327.5,188.8 327.7,188.8 327.8,188.7 327.9,188.7 328,188.6 
				328.1,188.6 328.2,188.5 328.3,188.5 328.4,188.4 328.5,188.4 328.6,188.3 328.7,188.3 328.8,188.2 328.9,188.2 329,188.1 
				329.1,188.1 329.2,188 329.3,188 329.4,187.9 329.4,187.9 329.5,187.8 329.6,187.8 329.7,187.7 329.8,187.6 329.9,187.6 
				330,187.5 330.1,187.5 330.2,187.4 330.3,187.4 330.4,187.3 330.5,187.3 330.6,187.2 330.6,187.2 330.7,187.1 330.8,187.1 
				330.9,187 331,187 331.1,186.9 331.2,186.9 331.2,186.8 331.3,186.7 331.4,186.7 331.5,186.6 331.6,186.6 331.7,186.5 
				331.7,186.5 331.8,186.4 331.9,186.4 332,186.3 332.1,186.3 332.1,186.2 332.2,186.2 332.3,186.1 332.4,186.1 332.4,186 
				332.5,186 332.6,185.9 332.7,185.9 332.7,185.8 332.8,185.8 332.9,185.7 333,185.7 333,185.6 333.1,185.6 333.2,185.6 
				333.3,185.5 333.3,185.5 333.4,185.4 333.5,185.4 333.5,185.3 333.6,185.3 333.7,185.3 333.7,185.2 333.8,185.2 333.9,185.1 
				333.9,185.1 334,185.1 334.1,185 334.1,185 334.2,184.9 334.3,184.9 334.3,184.9 334.4,184.8 334.5,184.8 334.5,184.8 
				334.6,184.7 334.6,184.7 334.7,184.7 334.8,184.6 334.8,184.6 334.9,184.6 334.9,184.5 335,184.5 335.1,184.5 335.1,184.4 
				335.2,184.4 335.2,184.4 335.3,184.3 335.4,184.3 335.4,184.3 335.5,184.2 335.5,184.2 335.6,184.2 335.6,184.2 335.7,184.1 
				335.7,184.1 335.8,184.1 335.8,184 335.9,184 336,184 336,184 336.1,183.9 336.1,183.9 336.2,183.9 336.2,183.8 336.3,183.8 
				336.3,183.8 336.4,183.8 336.4,183.7 336.5,183.7 336.5,183.7 336.6,183.6 336.6,183.6 336.7,183.6 336.7,183.6 336.8,183.5 
				336.8,183.5 336.9,183.5 336.9,183.4 337,183.4 337,183.4 337,183.4 337.1,183.3 337.1,183.3 337.2,183.3 337.2,183.2 
				337.3,183.2 337.3,183.2 337.4,183.1 337.4,183.1 337.5,183.1 337.5,183 337.6,183 337.6,183 337.6,182.9 337.7,182.9 
				337.7,182.9 337.8,182.8 337.8,182.8 337.9,182.8 337.9,182.7 338,182.7 338,182.7 338,182.6 338.1,182.6 338.1,182.5 
				338.2,182.5 338.2,182.5 338.3,182.4 338.3,182.4 338.3,182.4 338.4,182.3 338.4,182.3 338.5,182.2 338.5,182.2 338.6,182.2 
				338.6,182.1 338.6,182.1 338.7,182 338.7,182 338.8,181.9 338.8,181.9 338.8,181.9 338.9,181.8 338.9,181.8 339,181.7 339,181.7 
				339.1,181.7 339.1,181.6 339.1,181.6 339.2,181.5 339.2,181.5 339.3,181.4 339.3,181.4 339.3,181.4 339.4,181.3 339.4,181.3 
				339.5,181.2 339.5,181.2 339.5,181.1 339.6,181.1 339.6,181.1 339.7,181 339.7,181 339.7,180.9 339.8,180.9 339.8,180.8 
				339.9,180.8 339.9,180.8 339.9,180.7 340,180.7 340,180.6 340.1,180.6 340.1,180.5 340.1,180.5 340.2,180.5 340.2,180.4 
				340.2,180.4 340.3,180.3 340.3,180.3 340.4,180.2 340.4,180.2 340.4,180.2 340.5,180.1 340.5,180.1 340.6,180 340.6,180 
				340.6,179.9 340.7,179.9 340.7,179.9 340.8,179.8 340.8,179.8 340.8,179.7 340.9,179.7 340.9,179.6 340.9,179.6 341,179.6 
				341,179.5 341.1,179.5 341.1,179.4 341.1,179.4 341.2,179.3 341.2,179.3 341.2,179.2 341.3,179.2 341.3,179.2 341.4,179.1 
				341.4,179.1 341.4,179 341.5,179 341.5,178.9 341.5,178.9 341.6,178.8 341.6,178.8 341.6,178.7 341.7,178.7 341.7,178.6 
				341.8,178.6 341.8,178.5 341.8,178.5 341.9,178.4 341.9,178.4 341.9,178.4 342,178.3 342,178.3 342,178.2 342.1,178.1 
				342.1,178.1 342.1,178 342.2,178 342.2,177.9 342.2,177.9 342.3,177.8 342.3,177.8 342.3,177.7 342.4,177.7 342.4,177.6 
				342.4,177.6 342.5,177.5 342.5,177.4 342.5,177.4 342.6,177.3 342.6,177.3 342.6,177.2 342.7,177.2 342.7,177.1 342.7,177 
				342.8,177 342.8,176.9 342.8,176.8 342.9,176.8 342.9,176.7 342.9,176.7 342.9,176.6 343,176.5 343,176.5 343,176.4 343.1,176.3 
				343.1,176.3 343.1,176.2 343.2,176.1 343.2,176.1 343.2,176 343.2,175.9 343.3,175.9 343.3,175.8 343.3,175.7 343.4,175.7 
				343.4,175.6 343.4,175.5 343.4,175.4 343.5,175.4 343.5,175.3 343.5,175.2 343.5,175.1 343.6,175.1 343.6,175 343.6,174.9 
				343.6,174.9 343.7,174.8 343.7,174.7 343.7,174.6 343.7,174.5 343.8,174.5 343.8,174.4 343.8,174.3 343.8,174.2 343.9,174.2 
				343.9,174.1 343.9,174 343.9,173.9 343.9,173.8 344,173.8 344,173.7 344,173.6 344,173.5 344.1,173.4 344.1,173.4 344.1,173.3 
				344.1,173.2 344.1,173.1 344.2,173 344.2,173 344.2,172.9 344.2,172.8 344.2,172.7 344.2,172.6 344.3,172.5 344.3,172.4 
				344.3,172.4 344.3,172.3 344.3,172.2 344.3,172.1 344.4,172 344.4,171.9 344.4,171.8 344.4,171.8 344.4,171.7 344.4,171.6 
				344.5,171.5 344.5,171.4 344.5,171.3 344.5,171.2 344.5,171.2 344.5,171.1 344.5,171 344.6,170.9 344.6,170.8 344.6,170.7 
				344.6,170.6 344.6,170.5 344.6,170.5 344.6,170.4 344.6,170.3 344.6,170.2 344.7,170.1 344.7,170 344.7,169.9 344.7,169.8 
				344.7,169.8 344.7,169.7 344.7,169.6 344.7,169.5 344.7,169.4 344.7,169.3 344.8,169.2 344.8,169.2 344.8,169.1 344.8,169 
				344.8,168.9 344.8,168.8 344.8,168.7 344.8,168.6 344.8,168.6 344.8,168.5 344.8,168.4 344.8,168.3 344.8,168.2 344.9,168.1 
				344.9,168.1 344.9,168 344.9,167.9 344.9,167.8 344.9,167.7 344.9,167.7 344.9,167.6 344.9,167.5 344.9,167.4 344.9,167.3 
				344.9,167.3 344.9,167.2 344.9,167.1 344.9,167 344.9,166.9 344.9,166.9 344.9,166.8 344.9,166.7 344.9,166.6 344.9,166.6 
				345,166.5 345,166.4 345,166.3 345,166.3 345,166.2 345,166.1 345,166 345,166 345,165.9 345,165.8 345,165.8 345,165.7 
				345,165.6 345,165.5 345,165.5 345,165.4 345,165.3 345,165.2 345,165.2 345,165.1 345,165 345,165 345,164.9 345,164.8 
				345,164.7 345,164.7 345,164.6 345,164.5 345,164.5 345,164.4 345,164.3 345,164.3 345,164.2 345,164.1 345,164 344.9,164 
				344.9,163.9 344.9,163.8 344.9,163.8 344.9,163.7 344.9,163.6 344.9,163.5 344.9,163.5 344.9,163.4 344.9,163.3 344.9,163.2 
				344.9,163.2 344.9,163.1 344.9,163 344.9,162.9 344.9,162.9 344.9,162.8 344.9,162.7 344.9,162.7 344.9,162.6 344.8,162.5 
				344.8,162.4 344.8,162.3 344.8,162.3 344.8,162.2 344.8,162.1 344.8,162 344.8,162 344.8,161.9 344.8,161.8 344.8,161.7 
				344.8,161.7 344.7,161.6 344.7,161.5 344.7,161.4 344.7,161.4 344.7,161.3 344.7,161.2 344.7,161.1 344.7,161 344.7,161 
				344.6,160.9 344.6,160.8 344.6,160.7 344.6,160.7 344.6,160.6 344.6,160.5 344.6,160.4 344.6,160.3 344.5,160.3 344.5,160.2 
				344.5,160.1 344.5,160 344.5,160 344.5,159.9 344.4,159.8 344.4,159.7 344.4,159.7 344.4,159.6 344.4,159.5 344.4,159.4 
				344.3,159.4 344.3,159.3 344.3,159.2 344.3,159.1 344.3,159.1 344.3,159 344.2,158.9 344.2,158.8 344.2,158.8 344.2,158.7 
				344.2,158.6 344.1,158.6 344.1,158.5 344.1,158.4 344.1,158.4 344,158.3 344,158.2 344,158.1 344,158.1 344,158 343.9,157.9 
				343.9,157.9 343.9,157.8 343.9,157.8 343.8,157.7 343.8,157.6 343.8,157.6 343.8,157.5 343.7,157.4 343.7,157.4 343.7,157.3 
				343.6,157.2 343.6,157.2 343.6,157.1 343.6,157.1 343.5,157 343.5,156.9 343.5,156.9 343.4,156.8 343.4,156.8 343.4,156.7 
				343.3,156.7 343.3,156.6 343.3,156.5 343.3,156.5 343.2,156.4 343.2,156.4 343.2,156.3 343.1,156.3 343.1,156.2 343.1,156.2 
				343,156.1 343,156 343,156 342.9,155.9 342.9,155.9 342.9,155.8 342.8,155.8 342.8,155.7 342.8,155.7 342.7,155.6 342.7,155.6 
				342.6,155.5 342.6,155.5 342.6,155.4 342.5,155.4 342.5,155.3 342.5,155.3 342.4,155.2 342.4,155.2 342.4,155.1 342.3,155.1 
				342.3,155 342.2,155 342.2,154.9 342.2,154.9 342.1,154.8 342.1,154.8 342.1,154.7 342,154.7 342,154.6 341.9,154.6 341.9,154.5 
				341.9,154.5 341.8,154.4 341.8,154.4 341.7,154.3 341.7,154.3 341.7,154.2 341.6,154.2 341.6,154.1 341.5,154.1 341.5,154 
				341.5,154 341.4,153.9 341.4,153.9 341.3,153.8 341.3,153.8 341.2,153.7 341.2,153.7 341.1,153.6 341.1,153.6 341,153.5 
				341,153.5 340.9,153.4 340.8,153.4 340.8,153.3 340.7,153.2 340.6,153.2 340.6,153.1 340.5,153.1 340.4,153 340.4,152.9 
				340.3,152.9 340.2,152.8 340.1,152.7 340,152.7 340,152.6 339.9,152.5 339.8,152.5 339.7,152.4 339.6,152.3 339.5,152.2 
				339.4,152.2 339.3,152.1 339.2,152 339,151.9 338.9,151.8 			"/>
		</g>
	</g>
	<g id="POLYLINE_17_">
		<g>
			<polyline class="st0" points="257.5,209.6 258.3,209.8 259,210 259.6,210.1 260.2,210.2 260.6,210.3 261,210.3 261.4,210.4 
				261.8,210.4 262.1,210.4 262.4,210.4 262.6,210.5 262.9,210.5 263.1,210.5 263.3,210.5 263.6,210.5 263.8,210.5 264,210.5 
				264.2,210.5 264.4,210.5 264.6,210.5 264.8,210.5 264.9,210.5 265.1,210.5 265.3,210.5 265.5,210.5 265.6,210.5 265.8,210.5 
				265.9,210.5 266.1,210.5 266.3,210.6 266.4,210.6 266.5,210.6 266.7,210.6 266.8,210.6 267,210.6 267.1,210.6 267.2,210.6 
				267.3,210.6 267.5,210.6 267.6,210.6 267.7,210.6 267.8,210.6 267.9,210.6 268,210.6 268.2,210.6 268.3,210.6 268.4,210.6 
				268.5,210.6 268.6,210.6 268.7,210.6 268.8,210.6 268.9,210.6 269,210.6 269.1,210.6 269.2,210.6 269.3,210.6 269.4,210.6 
				269.5,210.6 269.6,210.6 269.7,210.6 269.8,210.6 269.9,210.6 269.9,210.6 270,210.6 270.1,210.6 270.2,210.6 270.3,210.6 
				270.4,210.6 270.5,210.6 270.6,210.6 270.7,210.6 270.8,210.6 270.9,210.6 271,210.6 271.1,210.6 271.2,210.6 271.3,210.6 
				271.3,210.6 271.4,210.6 271.5,210.6 271.6,210.6 271.7,210.6 271.8,210.6 271.9,210.6 272,210.6 272.1,210.6 272.2,210.6 
				272.3,210.6 272.4,210.6 272.4,210.6 272.5,210.6 272.6,210.6 272.7,210.6 272.8,210.6 272.9,210.6 273,210.6 273.1,210.6 
				273.2,210.6 273.3,210.6 273.4,210.6 273.5,210.6 273.6,210.6 273.6,210.6 273.7,210.6 273.8,210.6 273.9,210.6 274,210.6 
				274.1,210.6 274.2,210.6 274.3,210.6 274.4,210.6 274.5,210.6 274.6,210.6 274.7,210.6 274.8,210.6 274.9,210.6 275,210.6 
				275.1,210.6 275.2,210.6 275.3,210.6 275.4,210.6 275.5,210.6 275.6,210.6 275.7,210.6 275.8,210.6 275.9,210.6 276,210.6 
				276.1,210.6 276.2,210.6 276.3,210.6 276.4,210.6 276.5,210.6 276.6,210.6 276.7,210.6 276.8,210.6 276.9,210.6 277,210.6 
				277.1,210.6 277.3,210.6 277.4,210.6 277.5,210.6 277.6,210.6 277.7,210.6 277.8,210.6 277.9,210.6 278,210.6 278.1,210.6 
				278.2,210.6 278.3,210.6 278.4,210.6 278.5,210.6 278.6,210.6 278.8,210.6 278.9,210.6 279,210.6 279.1,210.6 279.2,210.6 
				279.3,210.6 279.4,210.6 279.5,210.6 279.6,210.6 279.7,210.6 279.8,210.6 279.9,210.6 280.1,210.6 280.2,210.6 280.3,210.6 
				280.4,210.6 280.5,210.5 280.6,210.5 280.7,210.5 280.8,210.5 280.9,210.5 281,210.5 281.1,210.5 281.2,210.5 281.3,210.5 
				281.4,210.5 281.6,210.5 281.7,210.5 281.8,210.5 281.9,210.5 282,210.5 282.1,210.4 282.2,210.4 282.3,210.4 282.4,210.4 
				282.5,210.4 282.6,210.4 282.7,210.4 282.8,210.4 282.9,210.4 283,210.4 283.1,210.4 283.2,210.3 283.3,210.3 283.4,210.3 
				283.5,210.3 283.6,210.3 283.7,210.3 283.8,210.3 283.9,210.3 284,210.2 284.1,210.2 284.2,210.2 284.3,210.2 284.4,210.2 
				284.5,210.2 284.6,210.2 284.7,210.2 284.8,210.1 284.9,210.1 285,210.1 285.1,210.1 285.2,210.1 285.3,210.1 285.4,210.1 
				285.5,210 285.6,210 285.7,210 285.8,210 285.9,210 286,210 286.1,209.9 286.2,209.9 286.3,209.9 286.4,209.9 286.5,209.9 
				286.6,209.9 286.8,209.8 286.9,209.8 287,209.8 287.1,209.8 287.2,209.8 287.3,209.8 287.4,209.7 287.5,209.7 287.6,209.7 
				287.7,209.7 287.8,209.7 287.9,209.7 288,209.6 288.1,209.6 288.3,209.6 288.4,209.6 288.5,209.6 288.6,209.6 288.7,209.5 
				288.8,209.5 288.9,209.5 289,209.5 289.2,209.5 289.3,209.5 289.4,209.4 289.5,209.4 289.6,209.4 289.7,209.4 289.8,209.4 
				290,209.4 290.1,209.3 290.2,209.3 290.3,209.3 290.4,209.3 290.6,209.3 290.7,209.3 290.8,209.2 290.9,209.2 291,209.2 
				291.2,209.2 291.3,209.2 291.4,209.2 291.5,209.1 291.6,209.1 291.8,209.1 291.9,209.1 292,209.1 292.1,209.1 292.2,209 
				292.4,209 292.5,209 292.6,209 292.7,209 292.8,209 293,208.9 293.1,208.9 293.2,208.9 293.3,208.9 293.4,208.9 293.6,208.9 
				293.7,208.8 293.8,208.8 293.9,208.8 294,208.8 294.2,208.8 294.3,208.7 294.4,208.7 294.5,208.7 294.6,208.7 294.7,208.7 
				294.9,208.7 295,208.6 295.1,208.6 295.2,208.6 295.3,208.6 295.4,208.6 295.5,208.6 295.7,208.5 295.8,208.5 295.9,208.5 
				296,208.5 296.1,208.5 296.2,208.5 296.3,208.4 296.4,208.4 296.5,208.4 296.6,208.4 296.7,208.4 296.8,208.4 296.9,208.3 
				297.1,208.3 297.2,208.3 297.3,208.3 297.4,208.3 297.5,208.3 297.6,208.2 297.7,208.2 297.8,208.2 297.9,208.2 298,208.2 
				298.1,208.2 298.2,208.1 298.3,208.1 298.3,208.1 298.4,208.1 298.5,208.1 298.6,208.1 298.7,208 298.8,208 298.9,208 299,208 
				299.1,208 299.2,208 299.3,208 299.4,207.9 299.5,207.9 299.6,207.9 299.7,207.9 299.8,207.9 299.9,207.9 300,207.9 300.1,207.8 
				300.1,207.8 300.2,207.8 300.3,207.8 300.4,207.8 300.5,207.8 300.6,207.8 300.7,207.7 300.8,207.7 300.9,207.7 301,207.7 
				301.1,207.7 301.2,207.7 301.3,207.7 301.4,207.7 301.5,207.7 301.6,207.6 301.7,207.6 301.7,207.6 301.8,207.6 301.9,207.6 
				302,207.6 302.1,207.6 302.2,207.6 302.3,207.6 302.4,207.6 302.5,207.5 302.6,207.5 302.7,207.5 302.8,207.5 302.9,207.5 
				303,207.5 303.1,207.5 303.2,207.5 303.3,207.5 303.4,207.5 303.5,207.5 303.6,207.5 303.7,207.5 303.8,207.5 303.9,207.5 
				304,207.5 304.1,207.4 304.2,207.4 304.3,207.4 304.4,207.4 304.6,207.4 304.7,207.4 304.8,207.4 304.9,207.4 305,207.4 
				305.1,207.4 305.2,207.4 305.3,207.4 305.4,207.4 305.5,207.4 305.6,207.4 305.7,207.4 305.8,207.4 305.9,207.4 306.1,207.4 
				306.2,207.4 306.3,207.4 306.4,207.4 306.5,207.4 306.6,207.4 306.7,207.4 306.8,207.4 306.9,207.4 307,207.4 307.2,207.3 
				307.3,207.3 307.4,207.3 307.5,207.3 307.6,207.3 307.7,207.3 307.8,207.3 307.9,207.3 308.1,207.3 308.2,207.3 308.3,207.3 
				308.4,207.3 308.5,207.3 308.6,207.3 308.7,207.3 308.8,207.3 309,207.3 309.1,207.3 309.2,207.3 309.3,207.3 309.4,207.3 
				309.5,207.3 309.6,207.3 309.8,207.3 309.9,207.3 310,207.3 310.1,207.2 310.2,207.2 310.3,207.2 310.5,207.2 310.6,207.2 
				310.7,207.2 310.8,207.2 310.9,207.2 311,207.2 311.2,207.2 311.3,207.2 311.4,207.2 311.5,207.2 311.6,207.2 311.7,207.2 
				311.9,207.2 312,207.1 312.1,207.1 312.2,207.1 312.3,207.1 312.4,207.1 312.6,207.1 312.7,207.1 312.8,207.1 312.9,207.1 
				313,207.1 313.1,207 313.3,207 313.4,207 313.5,207 313.6,207 313.7,207 313.9,207 314,207 314.1,207 314.2,206.9 314.3,206.9 
				314.4,206.9 314.6,206.9 314.7,206.9 314.8,206.9 314.9,206.9 315,206.9 315.2,206.8 315.3,206.8 315.4,206.8 315.5,206.8 
				315.6,206.8 315.8,206.8 315.9,206.7 316,206.7 316.1,206.7 316.2,206.7 316.3,206.7 316.5,206.7 316.6,206.6 316.7,206.6 
				316.8,206.6 316.9,206.6 317.1,206.6 317.2,206.5 317.3,206.5 317.4,206.5 317.5,206.5 317.7,206.5 317.8,206.4 317.9,206.4 
				318,206.4 318.1,206.4 318.2,206.3 318.4,206.3 318.5,206.3 318.6,206.3 318.7,206.3 318.8,206.2 319,206.2 319.1,206.2 
				319.2,206.2 319.3,206.1 319.4,206.1 319.6,206.1 319.7,206.1 319.8,206 319.9,206 320,206 320.1,206 320.3,205.9 320.4,205.9 
				320.5,205.9 320.6,205.9 320.7,205.8 320.8,205.8 321,205.8 321.1,205.7 321.2,205.7 321.3,205.7 321.4,205.7 321.5,205.6 
				321.7,205.6 321.8,205.6 321.9,205.5 322,205.5 322.1,205.5 322.2,205.5 322.4,205.4 322.5,205.4 322.6,205.4 322.7,205.3 
				322.8,205.3 322.9,205.3 323,205.3 323.2,205.2 323.3,205.2 323.4,205.2 323.5,205.1 323.6,205.1 323.7,205.1 323.8,205 324,205 
				324.1,205 324.2,205 324.3,204.9 324.4,204.9 324.5,204.9 324.6,204.8 324.7,204.8 324.9,204.8 325,204.8 325.1,204.7 
				325.2,204.7 325.3,204.7 325.4,204.6 325.5,204.6 325.6,204.6 325.7,204.5 325.9,204.5 326,204.5 326.1,204.5 326.2,204.4 
				326.3,204.4 326.4,204.4 326.5,204.3 326.6,204.3 326.7,204.3 326.8,204.2 326.9,204.2 327.1,204.2 327.2,204.2 327.3,204.1 
				327.4,204.1 327.5,204.1 327.6,204 327.7,204 327.8,204 327.9,203.9 328,203.9 328.1,203.9 328.2,203.9 328.3,203.8 328.5,203.8 
				328.6,203.8 328.7,203.7 328.8,203.7 328.9,203.7 329,203.7 329.1,203.6 329.2,203.6 329.3,203.6 329.4,203.5 329.5,203.5 
				329.6,203.5 329.7,203.4 329.8,203.4 330,203.4 330.1,203.4 330.2,203.3 330.3,203.3 330.4,203.3 330.5,203.2 330.6,203.2 
				330.7,203.2 330.8,203.1 330.9,203.1 331,203.1 331.1,203.1 331.2,203 331.3,203 331.4,203 331.5,202.9 331.7,202.9 331.8,202.9 
				331.9,202.8 332,202.8 332.1,202.8 332.2,202.8 332.3,202.7 332.4,202.7 332.5,202.7 332.6,202.6 332.7,202.6 332.8,202.6 
				332.9,202.5 333,202.5 333.1,202.5 333.2,202.5 333.3,202.4 333.5,202.4 333.6,202.4 333.7,202.3 333.8,202.3 333.9,202.3 
				334,202.2 334.1,202.2 334.2,202.2 334.3,202.1 334.4,202.1 334.5,202.1 334.6,202 334.7,202 334.8,202 334.9,202 335,201.9 
				335.1,201.9 335.2,201.8 335.3,201.8 335.5,201.8 335.6,201.7 335.7,201.7 335.8,201.7 335.9,201.6 336,201.6 336.1,201.6 
				336.2,201.5 336.3,201.5 336.4,201.5 336.5,201.4 336.6,201.4 336.7,201.4 336.8,201.3 336.9,201.3 337,201.2 337.1,201.2 
				337.2,201.2 337.3,201.1 337.4,201.1 337.5,201.1 337.6,201 337.7,201 337.8,200.9 337.9,200.9 338,200.9 338.1,200.8 
				338.2,200.8 338.3,200.7 338.4,200.7 338.5,200.6 338.6,200.6 338.7,200.6 338.8,200.5 338.9,200.5 339,200.4 339.1,200.4 
				339.2,200.3 339.3,200.3 339.4,200.3 339.5,200.2 339.6,200.2 339.7,200.1 339.8,200.1 339.9,200 340,200 340.1,199.9 
				340.2,199.9 340.3,199.8 340.4,199.8 340.5,199.7 340.6,199.7 340.7,199.6 340.8,199.6 340.9,199.5 341,199.5 341.1,199.4 
				341.2,199.4 341.3,199.3 341.4,199.3 341.5,199.2 341.6,199.2 341.7,199.1 341.8,199.1 341.9,199 342,199 342.1,198.9 
				342.2,198.8 342.3,198.8 342.4,198.7 342.5,198.7 342.6,198.6 342.7,198.6 342.8,198.5 342.9,198.4 343,198.4 343.1,198.3 
				343.2,198.3 343.4,198.2 343.5,198.1 343.6,198.1 343.7,198 343.8,198 343.9,197.9 344,197.8 344.1,197.8 344.2,197.7 
				344.3,197.7 344.4,197.6 344.5,197.5 344.6,197.5 344.7,197.4 344.8,197.3 344.9,197.3 345,197.2 345.1,197.1 345.2,197.1 
				345.3,197 345.4,196.9 345.5,196.9 345.6,196.8 345.7,196.7 345.8,196.7 345.9,196.6 346,196.5 346.1,196.5 346.2,196.4 
				346.3,196.3 346.4,196.3 346.5,196.2 346.6,196.1 346.7,196 346.8,196 346.9,195.9 347,195.8 347.1,195.8 347.2,195.7 
				347.3,195.6 347.4,195.5 347.5,195.5 347.6,195.4 347.7,195.3 347.8,195.2 347.9,195.2 348,195.1 348.1,195 348.2,195 
				348.3,194.9 348.4,194.8 348.5,194.7 348.6,194.7 348.7,194.6 348.8,194.5 348.9,194.4 349,194.4 349.1,194.3 349.2,194.2 
				349.3,194.1 349.4,194.1 349.5,194 349.6,193.9 349.7,193.8 349.8,193.8 349.8,193.7 349.9,193.6 350,193.5 350.1,193.5 
				350.2,193.4 350.3,193.3 350.4,193.2 350.5,193.2 350.6,193.1 350.7,193 350.7,193 350.8,192.9 350.9,192.8 351,192.7 
				351.1,192.7 351.2,192.6 351.2,192.5 351.3,192.4 351.4,192.4 351.5,192.3 351.6,192.2 351.7,192.1 351.7,192.1 351.8,192 
				351.9,191.9 352,191.8 352.1,191.8 352.1,191.7 352.2,191.6 352.3,191.6 352.4,191.5 352.4,191.4 352.5,191.3 352.6,191.3 
				352.7,191.2 352.7,191.1 352.8,191 352.9,191 352.9,190.9 353,190.8 353.1,190.8 353.2,190.7 353.2,190.6 353.3,190.5 
				353.4,190.5 353.4,190.4 353.5,190.3 353.6,190.3 353.6,190.2 353.7,190.1 353.8,190 353.8,190 353.9,189.9 354,189.8 354,189.8 
				354.1,189.7 354.2,189.6 354.2,189.5 354.3,189.5 354.4,189.4 354.4,189.3 354.5,189.3 354.6,189.2 354.6,189.1 354.7,189 
				354.7,189 354.8,188.9 354.9,188.8 354.9,188.8 355,188.7 355.1,188.6 355.1,188.5 355.2,188.5 355.2,188.4 355.3,188.3 
				355.3,188.3 355.4,188.2 355.5,188.1 355.5,188.1 355.6,188 355.6,187.9 355.7,187.8 355.8,187.8 355.8,187.7 355.9,187.6 
				355.9,187.6 356,187.5 356,187.4 356.1,187.4 356.1,187.3 356.2,187.2 356.3,187.2 356.3,187.1 356.4,187 356.4,186.9 
				356.5,186.9 356.5,186.8 356.6,186.7 356.6,186.7 356.7,186.6 356.7,186.5 356.8,186.5 356.8,186.4 356.9,186.3 357,186.3 
				357,186.2 357.1,186.1 357.1,186.1 357.2,186 357.2,185.9 357.3,185.8 357.3,185.8 357.4,185.7 357.4,185.6 357.5,185.6 
				357.5,185.5 357.6,185.4 357.6,185.4 357.7,185.3 357.7,185.2 357.8,185.2 357.8,185.1 357.8,185 357.9,184.9 357.9,184.9 
				358,184.8 358,184.7 358.1,184.7 358.1,184.6 358.2,184.5 358.2,184.5 358.3,184.4 358.3,184.3 358.4,184.3 358.4,184.2 
				358.4,184.1 358.5,184 358.5,184 358.6,183.9 358.6,183.8 358.7,183.8 358.7,183.7 358.8,183.6 358.8,183.5 358.8,183.5 
				358.9,183.4 358.9,183.3 359,183.3 359,183.2 359.1,183.1 359.1,183.1 359.1,183 359.2,182.9 359.2,182.8 359.3,182.8 
				359.3,182.7 359.3,182.6 359.4,182.6 359.4,182.5 359.5,182.4 359.5,182.3 359.5,182.3 359.6,182.2 359.6,182.1 359.7,182 
				359.7,182 359.7,181.9 359.8,181.8 359.8,181.7 359.9,181.7 359.9,181.6 359.9,181.5 360,181.4 360,181.4 360,181.3 360.1,181.2 
				360.1,181.1 360.2,181.1 360.2,181 360.2,180.9 360.3,180.8 360.3,180.8 360.3,180.7 360.4,180.6 360.4,180.5 360.4,180.5 
				360.5,180.4 360.5,180.3 360.5,180.2 360.6,180.1 360.6,180.1 360.6,180 360.7,179.9 360.7,179.8 360.7,179.7 360.8,179.7 
				360.8,179.6 360.8,179.5 360.8,179.4 360.9,179.3 360.9,179.3 360.9,179.2 361,179.1 361,179 361,178.9 361.1,178.8 361.1,178.8 
				361.1,178.7 361.1,178.6 361.2,178.5 361.2,178.4 361.2,178.3 361.2,178.2 361.3,178.2 361.3,178.1 361.3,178 361.4,177.9 
				361.4,177.8 361.4,177.7 361.4,177.6 361.5,177.5 361.5,177.5 361.5,177.4 361.5,177.3 361.6,177.2 361.6,177.1 361.6,177 
				361.6,176.9 361.6,176.8 361.7,176.7 361.7,176.6 361.7,176.6 361.7,176.5 361.8,176.4 361.8,176.3 361.8,176.2 361.8,176.1 
				361.8,176 361.9,175.9 361.9,175.8 361.9,175.7 361.9,175.6 361.9,175.5 362,175.4 362,175.3 362,175.3 362,175.2 362,175.1 
				362,175 362.1,174.9 362.1,174.8 362.1,174.7 362.1,174.6 362.1,174.5 362.1,174.4 362.2,174.3 362.2,174.2 362.2,174.1 
				362.2,174 362.2,173.9 362.2,173.8 362.2,173.7 362.3,173.6 362.3,173.5 362.3,173.4 362.3,173.3 362.3,173.2 362.3,173.1 
				362.3,173 362.3,172.9 362.4,172.8 362.4,172.7 362.4,172.6 362.4,172.5 362.4,172.4 362.4,172.4 362.4,172.3 362.4,172.2 
				362.4,172.1 362.5,172 362.5,171.9 362.5,171.8 362.5,171.7 362.5,171.6 362.5,171.5 362.5,171.4 362.5,171.3 362.5,171.2 
				362.5,171.1 362.5,171 362.5,170.9 362.5,170.8 362.5,170.7 362.6,170.6 362.6,170.5 362.6,170.4 362.6,170.3 362.6,170.2 
				362.6,170.1 362.6,170 362.6,169.9 362.6,169.8 362.6,169.7 362.6,169.6 362.6,169.5 362.6,169.4 362.6,169.3 362.6,169.2 
				362.6,169.1 362.6,169 362.6,168.9 362.6,168.8 362.6,168.7 362.6,168.6 362.6,168.5 362.6,168.4 362.6,168.3 362.6,168.2 
				362.6,168.1 362.6,168 362.6,167.9 362.6,167.8 362.6,167.7 362.6,167.6 362.6,167.5 362.6,167.4 362.6,167.3 362.6,167.2 
				362.6,167.1 362.6,167 362.6,166.9 362.6,166.9 362.6,166.8 362.6,166.7 362.5,166.6 362.5,166.5 362.5,166.4 362.5,166.3 
				362.5,166.2 362.5,166.1 362.5,166 362.5,165.9 362.5,165.8 362.5,165.7 362.5,165.6 362.5,165.5 362.5,165.4 362.4,165.4 
				362.4,165.3 362.4,165.2 362.4,165.1 362.4,165 362.4,164.9 362.4,164.8 362.4,164.7 362.4,164.6 362.3,164.5 362.3,164.5 
				362.3,164.4 362.3,164.3 362.3,164.2 362.3,164.1 362.3,164 362.2,163.9 362.2,163.8 362.2,163.7 362.2,163.7 362.2,163.6 
				362.2,163.5 362.1,163.4 362.1,163.3 362.1,163.2 362.1,163.1 362.1,163 362,163 362,162.9 362,162.8 362,162.7 362,162.6 
				361.9,162.5 361.9,162.5 361.9,162.4 361.9,162.3 361.8,162.2 361.8,162.1 361.8,162 361.8,162 361.7,161.9 361.7,161.8 
				361.7,161.7 361.7,161.6 361.6,161.5 361.6,161.5 361.6,161.4 361.5,161.3 361.5,161.2 361.5,161.1 361.4,161.1 361.4,161 
				361.4,160.9 361.4,160.8 361.3,160.7 361.3,160.7 361.2,160.6 361.2,160.5 361.2,160.4 361.1,160.4 361.1,160.3 361.1,160.2 
				361,160.1 361,160.1 361,160 360.9,159.9 360.9,159.8 360.8,159.7 360.8,159.7 360.8,159.6 360.7,159.5 360.7,159.4 360.7,159.4 
				360.6,159.3 360.6,159.2 360.5,159.2 360.5,159.1 360.4,159 360.4,158.9 360.4,158.9 360.3,158.8 360.3,158.7 360.2,158.6 
				360.2,158.6 360.2,158.5 360.1,158.4 360.1,158.4 360,158.3 360,158.2 359.9,158.1 359.9,158.1 359.9,158 359.8,157.9 
				359.8,157.9 359.7,157.8 359.7,157.7 359.6,157.7 359.6,157.6 359.6,157.5 359.5,157.5 359.5,157.4 359.4,157.3 359.4,157.3 
				359.3,157.2 359.3,157.1 359.3,157.1 359.2,157 359.2,156.9 359.1,156.9 359.1,156.8 359,156.7 359,156.7 359,156.6 358.9,156.5 
				358.9,156.5 358.8,156.4 358.8,156.3 358.7,156.3 358.7,156.2 358.7,156.1 358.6,156.1 358.6,156 358.5,155.9 358.5,155.9 
				358.5,155.8 358.4,155.8 358.4,155.7 358.3,155.6 358.3,155.6 358.2,155.5 358.2,155.4 358.2,155.4 358.1,155.3 358.1,155.3 
				358,155.2 358,155.1 358,155.1 357.9,155 357.9,154.9 357.8,154.9 357.8,154.8 357.8,154.8 357.7,154.7 357.7,154.6 357.6,154.6 
				357.6,154.5 357.5,154.5 357.5,154.4 357.5,154.3 357.4,154.3 357.4,154.2 357.3,154.2 357.3,154.1 357.3,154 357.2,154 
				357.2,153.9 357.1,153.9 357.1,153.8 357,153.7 357,153.7 357,153.6 356.9,153.6 356.9,153.5 356.8,153.4 356.8,153.4 
				356.7,153.3 356.7,153.3 356.6,153.2 356.6,153.1 356.5,153.1 356.5,153 356.5,153 356.4,152.9 356.4,152.8 356.3,152.8 
				356.3,152.7 356.2,152.7 356.2,152.6 356.1,152.5 356.1,152.5 356,152.4 356,152.4 355.9,152.3 355.9,152.2 355.8,152.2 
				355.8,152.1 355.7,152.1 355.7,152 355.6,151.9 355.6,151.9 355.5,151.8 355.5,151.8 355.4,151.7 355.4,151.7 355.3,151.6 
				355.3,151.5 355.2,151.5 355.2,151.4 355.1,151.4 355.1,151.3 355,151.2 354.9,151.2 354.9,151.1 354.8,151 354.8,151 
				354.7,150.9 354.7,150.9 354.6,150.8 354.5,150.7 354.5,150.7 354.4,150.6 354.4,150.6 354.3,150.5 354.3,150.4 354.2,150.4 
				354.1,150.3 354.1,150.3 354,150.2 353.9,150.1 353.9,150.1 353.8,150 353.8,150 353.7,149.9 353.6,149.8 353.6,149.8 
				353.5,149.7 353.4,149.6 353.4,149.6 353.3,149.5 353.2,149.5 353.2,149.4 353.1,149.3 353,149.3 353,149.2 352.9,149.1 
				352.8,149.1 352.7,149 352.7,149 352.6,148.9 352.5,148.8 352.5,148.8 352.4,148.7 352.3,148.6 352.2,148.6 352.2,148.5 
				352.1,148.4 352,148.4 351.9,148.3 351.9,148.2 351.8,148.2 351.7,148.1 351.6,148.1 351.5,148 351.5,147.9 351.4,147.9 
				351.3,147.8 351.2,147.7 351.2,147.7 351.1,147.6 351,147.5 350.9,147.5 350.8,147.4 350.8,147.3 350.7,147.3 350.6,147.2 
				350.5,147.2 350.4,147.1 350.4,147 350.3,147 350.2,146.9 350.1,146.8 350,146.8 350,146.7 349.9,146.7 349.8,146.6 349.7,146.5 
				349.6,146.5 349.6,146.4 349.5,146.4 349.4,146.3 349.3,146.2 349.2,146.2 349.2,146.1 349.1,146.1 349,146 348.9,145.9 
				348.9,145.9 348.8,145.8 348.7,145.8 348.6,145.7 348.6,145.7 348.5,145.6 348.4,145.5 348.3,145.5 348.3,145.4 348.2,145.4 
				348.1,145.3 348,145.3 348,145.2 347.9,145.2 347.8,145.1 347.7,145.1 347.7,145 347.6,145 347.5,144.9 347.5,144.9 347.4,144.8 
				347.3,144.8 347.2,144.7 347.2,144.7 347.1,144.6 347,144.6 347,144.5 346.9,144.5 346.8,144.5 346.7,144.4 346.7,144.4 
				346.6,144.3 346.5,144.3 346.4,144.2 346.3,144.2 346.2,144.1 346.1,144.1 346,144 345.9,144 345.8,144 345.7,143.9 345.6,143.9 
				345.5,143.8 345.4,143.8 345.3,143.7 345.2,143.7 345,143.6 344.9,143.6 344.8,143.5 344.6,143.5 344.5,143.4 344.3,143.4 
				344.2,143.3 344,143.3 343.9,143.2 343.7,143.2 343.5,143.1 343.3,143.1 343.1,143 342.9,143 342.7,142.9 342.5,142.9 
				342.3,142.8 342,142.7 341.7,142.7 341.4,142.6 341.2,142.5 			"/>
		</g>
	</g>
	<g id="POLYLINE_18_">
		<g>
			<polyline class="st0" points="272.1,176.6 272.6,177.7 273,178.8 273.5,179.7 274.1,180.6 274.6,181.3 275.2,181.9 275.7,182.5 
				276.3,182.9 276.8,183.3 277.4,183.7 277.9,184 278.4,184.2 279,184.3 279.5,184.5 280,184.5 280.5,184.6 280.9,184.6 
				281.4,184.6 281.9,184.5 282.4,184.4 283,184.3 283.5,184.2 284.2,184 284.8,183.9 285.6,183.7 286.3,183.5 287,183.3 
				287.2,183.3 			"/>
		</g>
	</g>
	<g id="ELLIPSE_1_">
		<g>
			<path class="st0" d="M266.8,201.3c0-1.4-1.9-2.5-4.2-2.5c-2.3,0-4.2,1.1-4.2,2.5c0,1.4,1.9,2.5,4.2,2.5
				C264.9,203.8,266.8,202.7,266.8,201.3L266.8,201.3z"/>
		</g>
	</g>
	<g id="ELLIPSE_2_">
		<g>
			<path class="st0" d="M299.9,201.5c0-1.4-1.9-2.5-4.2-2.5s-4.2,1.1-4.2,2.5c0,1.4,1.9,2.5,4.2,2.5S299.9,202.9,299.9,201.5
				L299.9,201.5z"/>
		</g>
	</g>
	<g id="ELLIPSE_3_">
		<g>
			<path class="st0" d="M346,190.2c0-1.4-1.9-2.5-4.2-2.5c-2.3,0-4.2,1.1-4.2,2.5c0,1.4,1.9,2.5,4.2,2.5
				C344.1,192.7,346,191.6,346,190.2L346,190.2z"/>
		</g>
	</g>
	<g id="ELLIPSE_4_">
		<g>
			<path class="st0" d="M357.1,161.5c0-1.4-1.9-2.5-4.2-2.5c-2.3,0-4.2,1.1-4.2,2.5s1.9,2.5,4.2,2.5
				C355.2,164,357.1,162.9,357.1,161.5L357.1,161.5z"/>
		</g>
	</g>
	<g id="SPLINE_6_">
		<g>
			<path class="st0" d="M203.3,144.4c1.9,0.8,4.5,0.5,5.8-0.6c0.9-0.8,1-1.8,0.3-2.6"/>
		</g>
	</g>
	<g id="ELLIPSE_5_">
		<g>
			<path class="st0" d="M206.8,155c0-1.4-1.9-2.5-4.2-2.5c-2.3,0-4.2,1.1-4.2,2.5c0,1.4,1.9,2.5,4.2,2.5
				C205,157.5,206.8,156.4,206.8,155L206.8,155z"/>
		</g>
	</g>
	<g id="ELLIPSE_6_">
		<g>
			<path class="st0" d="M212.7,178.9c0-1.4-1.9-2.5-4.2-2.5c-2.3,0-4.2,1.1-4.2,2.5s1.9,2.5,4.2,2.5
				C210.8,181.4,212.7,180.3,212.7,178.9L212.7,178.9z"/>
		</g>
	</g>
	<g id="LINE_74_">
		<g>
			<line class="st0" x1="320" y1="191.6" x2="298.3" y2="208.1"/>
		</g>
	</g>
</g>
</svg>
