<?xml version="1.0" encoding="utf-8"?>
<!-- Generator: Adobe Illustrator 26.3.1, SVG Export Plug-In . SVG Version: 6.00 Build 0)  -->
<svg version="1.1" xmlns="http://www.w3.org/2000/svg" xmlns:xlink="http://www.w3.org/1999/xlink" x="0px" y="0px"
	 viewBox="0 0 552.76 713.57" style="enable-background:new 0 0 552.76 713.57;" xml:space="preserve">
<style type="text/css">
	.st0{fill:none;}
	.st1{fill:none;stroke:#231F20;stroke-width:0.5;stroke-miterlimit:10;}
	.st2{display:none;}
	.st3{display:inline;}
	.st4{fill:none;stroke:#007F3F;stroke-width:0.7087;stroke-linecap:round;stroke-linejoin:round;stroke-miterlimit:10;}
	.st5{fill:none;stroke:#000000;stroke-width:0;stroke-linecap:round;stroke-linejoin:round;stroke-miterlimit:10;}
	.st6{fill:#C5C7C9;}
	.st7{fill:none;stroke:#231F20;stroke-miterlimit:10;}
	.st8{fill:none;stroke:#231F20;stroke-miterlimit:10;stroke-dasharray:11.6857,11.6857;}
	.st9{fill-rule:evenodd;clip-rule:evenodd;fill:url(#SVGID_1_);}
	.st10{fill-rule:evenodd;clip-rule:evenodd;fill:url(#SVGID_00000132071763239819634380000015817096818263734701_);}
	.st11{fill-rule:evenodd;clip-rule:evenodd;fill:url(#SVGID_00000026137351328371553360000003057976248600258723_);}
	.st12{fill-rule:evenodd;clip-rule:evenodd;fill:url(#SVGID_00000127761504134510384780000012815842035842733958_);}
	.st13{fill-rule:evenodd;clip-rule:evenodd;fill:url(#SVGID_00000134232652224342074530000007203251731147876007_);}
	.st14{fill-rule:evenodd;clip-rule:evenodd;fill:url(#SVGID_00000058563750357045953530000003166861380208422057_);}
	.st15{fill:#231F20;}
	.st16{font-family:'ArialMT';}
	.st17{font-size:12px;}
	.st18{font-family:'Arial-BoldMT';}
	.st19{fill:none;stroke:#231F20;stroke-width:0.25;stroke-miterlimit:10;}
	.st20{fill:none;stroke:#231F20;stroke-width:0.75;stroke-linecap:round;stroke-miterlimit:10;}
	.st21{fill:none;stroke:#231F20;stroke-width:0.75;stroke-miterlimit:10;stroke-dasharray:6,6;}
	.st22{fill:none;stroke:#000000;stroke-width:0.75;stroke-miterlimit:10;}
	.st23{fill:none;stroke:#000000;stroke-width:0.75;stroke-miterlimit:10;stroke-dasharray:6.597,6.597;}
	.st24{fill:none;stroke:#000000;stroke-width:0.75;stroke-linecap:round;stroke-linejoin:round;stroke-miterlimit:10;}
	.st25{fill:none;stroke:#231F20;stroke-width:0.75;stroke-miterlimit:10;}
	.st26{fill:none;stroke:#231F20;stroke-miterlimit:10;stroke-dasharray:1,2,10,2;}
	.st27{fill:none;stroke:#231F20;stroke-miterlimit:10;stroke-dasharray:9.9605,1.9921;}
	.st28{fill:none;stroke:#231F20;stroke-miterlimit:10;stroke-dasharray:0.996,1.9921,9.9605,1.9921;}
	.st29{fill:none;stroke:#231F20;stroke-miterlimit:10;stroke-dasharray:11.24,11.24;}
	.st30{fill:none;stroke:#231F20;stroke-miterlimit:10;stroke-dasharray:11.1222,11.1222;}
	.st31{fill:none;stroke:#231F20;stroke-miterlimit:10;stroke-dasharray:12.7257,12.7257;}
	.st32{fill:none;stroke:#231F20;stroke-linecap:round;stroke-miterlimit:10;}
</style>
<pattern  x="120.47" y="515.15" width="100" height="100" patternUnits="userSpaceOnUse" id="Horizontal" viewBox="0 -100.25 100 100" style="overflow:visible;">
	<g>
		<rect y="-100.25" class="st0" width="100" height="100"/>
		<g>
			<line class="st1" x1="0" y1="-0.25" x2="100" y2="-0.25"/>
		</g>
		<g>
			<line class="st1" x1="0" y1="-100.25" x2="100" y2="-100.25"/>
			<line class="st1" x1="0" y1="-93.58" x2="100" y2="-93.58"/>
			<line class="st1" x1="0" y1="-86.83" x2="100" y2="-86.83"/>
			<line class="st1" x1="0" y1="-80.17" x2="100" y2="-80.17"/>
			<line class="st1" x1="0" y1="-73.42" x2="100" y2="-73.42"/>
			<line class="st1" x1="0" y1="-66.75" x2="100" y2="-66.75"/>
			<line class="st1" x1="0" y1="-60" x2="100" y2="-60"/>
			<line class="st1" x1="0" y1="-53.33" x2="100" y2="-53.33"/>
			<line class="st1" x1="0" y1="-46.58" x2="100" y2="-46.58"/>
			<line class="st1" x1="0" y1="-39.92" x2="100" y2="-39.92"/>
			<line class="st1" x1="0" y1="-33.17" x2="100" y2="-33.17"/>
			<line class="st1" x1="0" y1="-26.5" x2="100" y2="-26.5"/>
			<line class="st1" x1="0" y1="-19.75" x2="100" y2="-19.75"/>
			<line class="st1" x1="0" y1="-13.08" x2="100" y2="-13.08"/>
			<line class="st1" x1="0" y1="-6.33" x2="100" y2="-6.33"/>
		</g>
	</g>
</pattern>
<pattern  x="120.47" y="515.15" width="100" height="100" patternUnits="userSpaceOnUse" id="Vertical" viewBox="0 -199.96 100 100" style="overflow:visible;">
	<g>
		<rect y="-199.96" class="st0" width="100" height="100"/>
		<g>
			<line class="st1" x1="3.04" y1="0" x2="3.04" y2="-100"/>
			<line class="st1" x1="9.71" y1="0" x2="9.71" y2="-100"/>
			<line class="st1" x1="16.46" y1="0" x2="16.46" y2="-100"/>
			<line class="st1" x1="23.12" y1="0" x2="23.12" y2="-100"/>
			<line class="st1" x1="29.88" y1="0" x2="29.88" y2="-100"/>
			<line class="st1" x1="36.54" y1="0" x2="36.54" y2="-100"/>
			<line class="st1" x1="43.29" y1="0" x2="43.29" y2="-100"/>
			<line class="st1" x1="49.96" y1="0" x2="49.96" y2="-100"/>
			<line class="st1" x1="56.71" y1="0" x2="56.71" y2="-100"/>
			<line class="st1" x1="63.38" y1="0" x2="63.38" y2="-100"/>
			<line class="st1" x1="70.12" y1="0" x2="70.12" y2="-100"/>
			<line class="st1" x1="76.79" y1="0" x2="76.79" y2="-100"/>
			<line class="st1" x1="83.54" y1="0" x2="83.54" y2="-100"/>
			<line class="st1" x1="90.21" y1="0" x2="90.21" y2="-100"/>
			<line class="st1" x1="96.96" y1="0" x2="96.96" y2="-100"/>
		</g>
		<g>
			<line class="st1" x1="3.04" y1="-100" x2="3.04" y2="-200"/>
			<line class="st1" x1="9.71" y1="-100" x2="9.71" y2="-200"/>
			<line class="st1" x1="16.46" y1="-100" x2="16.46" y2="-200"/>
			<line class="st1" x1="23.12" y1="-100" x2="23.12" y2="-200"/>
			<line class="st1" x1="29.88" y1="-100" x2="29.88" y2="-200"/>
			<line class="st1" x1="36.54" y1="-100" x2="36.54" y2="-200"/>
			<line class="st1" x1="43.29" y1="-100" x2="43.29" y2="-200"/>
			<line class="st1" x1="49.96" y1="-100" x2="49.96" y2="-200"/>
			<line class="st1" x1="56.71" y1="-100" x2="56.71" y2="-200"/>
			<line class="st1" x1="63.38" y1="-100" x2="63.38" y2="-200"/>
			<line class="st1" x1="70.12" y1="-100" x2="70.12" y2="-200"/>
			<line class="st1" x1="76.79" y1="-100" x2="76.79" y2="-200"/>
			<line class="st1" x1="83.54" y1="-100" x2="83.54" y2="-200"/>
			<line class="st1" x1="90.21" y1="-100" x2="90.21" y2="-200"/>
			<line class="st1" x1="96.96" y1="-100" x2="96.96" y2="-200"/>
		</g>
	</g>
</pattern>
<g id="Defpoints" class="st2">
	<g id="LWPOLYLINE" class="st3">
		<rect x="148.71" y="203.26" class="st4" width="255.53" height="311.76"/>
	</g>
	<g id="POINT" class="st3">
		<line class="st5" x1="375.67" y1="455.43" x2="375.67" y2="455.43"/>
	</g>
	<g id="POINT_1_" class="st3">
		<line class="st5" x1="361.2" y1="476.1" x2="361.2" y2="476.1"/>
	</g>
	<g id="POINT_2_" class="st3">
		<line class="st5" x1="381.64" y1="476.1" x2="381.64" y2="476.1"/>
	</g>
	<g id="POINT_3_" class="st3">
		<line class="st5" x1="337.43" y1="476.1" x2="337.43" y2="476.1"/>
	</g>
	<g id="POINT_4_" class="st3">
		<line class="st5" x1="361.2" y1="476.1" x2="361.2" y2="476.1"/>
	</g>
	<g id="POINT_5_" class="st3">
		<line class="st5" x1="361.2" y1="485.53" x2="361.2" y2="485.53"/>
	</g>
	<g id="POINT_6_" class="st3">
		<line class="st5" x1="327.93" y1="455.74" x2="327.93" y2="455.74"/>
	</g>
	<g id="POINT_7_" class="st3">
		<line class="st5" x1="370.7" y1="455.74" x2="370.7" y2="455.74"/>
	</g>
	<g id="POINT_8_" class="st3">
		<line class="st5" x1="370.7" y1="450.39" x2="370.7" y2="450.39"/>
	</g>
	<g id="POINT_9_" class="st3">
		<line class="st5" x1="322.96" y1="455.43" x2="322.96" y2="455.43"/>
	</g>
	<g id="POINT_10_" class="st3">
		<line class="st5" x1="375.67" y1="455.43" x2="375.67" y2="455.43"/>
	</g>
	<g id="POINT_11_" class="st3">
		<line class="st5" x1="375.67" y1="442.1" x2="375.67" y2="442.1"/>
	</g>
	<g id="LWPOLYLINE_7_" class="st3">
		<polygon class="st4" points="329.67,458.73 341.34,458.73 343.05,461.31 340.39,463.09 341.13,465.52 338.42,466.92 
			336.86,465.83 336.5,463.13 334.68,464.43 333.89,467.78 		"/>
	</g>
	<g id="POINT_12_" class="st3">
		<line class="st5" x1="292.03" y1="430.96" x2="292.03" y2="430.96"/>
	</g>
	<g id="POINT_13_" class="st3">
		<line class="st5" x1="292.03" y1="483.67" x2="292.03" y2="483.67"/>
	</g>
	<g id="POINT_14_" class="st3">
		<line class="st5" x1="302.29" y1="483.67" x2="302.29" y2="483.67"/>
	</g>
	<g id="LWPOLYLINE_8_" class="st3">
		<rect x="244.49" y="436.13" class="st4" width="13.53" height="14.81"/>
	</g>
	<g id="POINT_15_" class="st3">
		<line class="st5" x1="241.91" y1="348.45" x2="241.91" y2="348.45"/>
	</g>
	<g id="POINT_16_" class="st3">
		<line class="st5" x1="289.45" y1="348.45" x2="289.45" y2="348.45"/>
	</g>
	<g id="POINT_17_" class="st3">
		<line class="st5" x1="289.45" y1="353.07" x2="289.45" y2="353.07"/>
	</g>
	<g id="POINT_18_" class="st3">
		<line class="st5" x1="250.23" y1="342.16" x2="250.23" y2="342.16"/>
	</g>
	<g id="POINT_19_" class="st3">
		<line class="st5" x1="253.06" y1="389.7" x2="253.06" y2="389.7"/>
	</g>
	<g id="POINT_20_" class="st3">
		<line class="st5" x1="252.83" y1="389.7" x2="252.83" y2="389.7"/>
	</g>
	<g id="LWPOLYLINE_9_" class="st3">
		<polygon class="st4" points="246.03,233.01 257.7,233.01 259.42,235.58 256.76,237.36 257.5,239.79 254.79,241.2 253.23,240.11 
			252.87,237.4 251.04,238.7 250.26,242.05 		"/>
	</g>
	<g id="POINT_21_" class="st3">
		<line class="st5" x1="252.49" y1="292.02" x2="252.49" y2="292.02"/>
	</g>
	<g id="POINT_22_" class="st3">
		<line class="st5" x1="252.49" y1="250.37" x2="252.49" y2="250.37"/>
	</g>
	<g id="POINT_23_" class="st3">
		<line class="st5" x1="256.09" y1="250.37" x2="256.09" y2="250.37"/>
	</g>
	<g id="POINT_24_" class="st3">
		<line class="st5" x1="241.91" y1="292.02" x2="241.91" y2="292.02"/>
	</g>
	<g id="POINT_25_" class="st3">
		<line class="st5" x1="289.45" y1="281.95" x2="289.45" y2="281.95"/>
	</g>
	<g id="POINT_26_" class="st3">
		<line class="st5" x1="289.45" y1="310.2" x2="289.45" y2="310.2"/>
	</g>
	<g id="POINT_27_" class="st3">
		<line class="st5" x1="289.45" y1="281.95" x2="289.45" y2="281.95"/>
	</g>
	<g id="POINT_28_" class="st3">
		<line class="st5" x1="291.52" y1="292.02" x2="291.52" y2="292.02"/>
	</g>
	<g id="POINT_29_" class="st3">
		<line class="st5" x1="291.52" y1="310.2" x2="291.52" y2="310.2"/>
	</g>
</g>
<g id="TXT25">
	<g>
		<path class="st6" d="M371.66,71.92l-4.16-2.15l-1-9.21h-34.03c0,0-12.08,0-16.12,0c-4.04,0-5.76,5.76-5.76,5.76v2.99h-5.76v25.05
			l14.72-3.15h12.91v-7.62h35.03v-7.21l-4.16-3.15L371.66,71.92z"/>
		<path class="st6" d="M309.44,126.53v80.95h-57.57H198.9v-92.8V69.31h-5.76v-0.69c0,0,0.17,2.87,0-2.3
			c-0.17-5.17-5.76-5.76-5.76-5.76h-11.51h-38.64v9.21l4.84,3.15l-8.67-0.7l3.84,4.15v7.21h38.64v31.09v115.83h75.99h80.6V117
			c0,0-3.9-0.33-12.91,0C310.54,117.33,309.44,126.53,309.44,126.53z"/>
	</g>
	<g id="LINE">
		<g id="LINE_2_">
			<g>
				<g>
					<g>
						<line class="st7" x1="96.41" y1="115.01" x2="102.41" y2="115.01"/>
						<line class="st8" x1="114.1" y1="115.01" x2="295.23" y2="115.01"/>
						<line class="st7" x1="301.07" y1="115.01" x2="307.07" y2="115.01"/>
					</g>
				</g>
			</g>
		</g>
	</g>
	<g>
		<g id="HATCH_1_">
			<pattern  id="SVGID_1_" xlink:href="#Horizontal" patternTransform="matrix(1 0 0 1 28.1244 204.3857)">
			</pattern>
			<polygon class="st9" points="409.36,589.06 410.17,595.08 413.65,597.51 419.68,594.39 418.03,588.96 423.96,585 420.14,579.27 
				394.14,579.27 403.54,599.42 405.3,591.95 			"/>
		</g>
		<g id="HATCH_2_">
			
				<pattern  id="SVGID_00000010277956521892419830000002219949531759016865_" xlink:href="#Horizontal" patternTransform="matrix(1 0 0 1 28.1244 204.3857)">
			</pattern>
			
				<polygon style="fill-rule:evenodd;clip-rule:evenodd;fill:url(#SVGID_00000010277956521892419830000002219949531759016865_);" points="
				204.36,528.9 234.51,528.9 234.51,561.9 204.36,561.9 204.36,528.9 			"/>
		</g>
		<g id="HATCH_3_">
			
				<pattern  id="SVGID_00000020365827798818070800000017578471375306418569_" xlink:href="#Horizontal" patternTransform="matrix(1 0 0 1 28.1244 204.3857)">
			</pattern>
			
				<polygon style="fill-rule:evenodd;clip-rule:evenodd;fill:url(#SVGID_00000020365827798818070800000017578471375306418569_);" points="
				223.02,86.11 223.83,92.13 227.3,94.57 233.33,91.44 231.68,86.01 237.62,82.06 233.79,76.32 207.79,76.32 217.2,96.48 
				218.96,89.01 			"/>
		</g>
	</g>
	<g>
		<g id="HATCH_6_">
			
				<pattern  id="SVGID_00000125584956750551837230000006019291425002464444_" xlink:href="#Vertical" patternTransform="matrix(1 0 0 1 48.0322 200.532)">
			</pattern>
			
				<polygon style="fill-rule:evenodd;clip-rule:evenodd;fill:url(#SVGID_00000125584956750551837230000006019291425002464444_);" points="
				409.36,589.06 410.17,595.08 413.65,597.51 419.68,594.39 418.03,588.96 423.96,585 420.14,579.27 394.14,579.27 403.54,599.42 
				405.3,591.95 			"/>
		</g>
		<g id="HATCH_5_">
			
				<pattern  id="SVGID_00000011007155123110573330000004543703909375014833_" xlink:href="#Vertical" patternTransform="matrix(1 0 0 1 48.0322 200.532)">
			</pattern>
			
				<polygon style="fill-rule:evenodd;clip-rule:evenodd;fill:url(#SVGID_00000011007155123110573330000004543703909375014833_);" points="
				204.36,528.9 234.51,528.9 234.51,561.9 204.36,561.9 204.36,528.9 			"/>
		</g>
		<g id="HATCH_4_">
			
				<pattern  id="SVGID_00000142148025745089105500000014760656910662825134_" xlink:href="#Vertical" patternTransform="matrix(1 0 0 1 48.0322 200.532)">
			</pattern>
			
				<polygon style="fill-rule:evenodd;clip-rule:evenodd;fill:url(#SVGID_00000142148025745089105500000014760656910662825134_);" points="
				223.02,86.11 223.83,92.13 227.3,94.57 233.33,91.44 231.68,86.01 237.62,82.06 233.79,76.32 207.79,76.32 217.2,96.48 
				218.96,89.01 			"/>
		</g>
	</g>
	<g>
		<g id="MTEXT_20_">
			<g>
				<text transform="matrix(0 -1 1 0 226.4955 184.9143)" class="st15 st16 st17">600 min.</text>
			</g>
		</g>
		<g id="TEXT">
			<g>
				<text transform="matrix(0 -1 1 0 262.4896 206.7683)" class="st15 st16 st17">100</text>
			</g>
		</g>
		<g id="TEXT_1_">
			<g>
				<text transform="matrix(0 -1 1 0 277.5511 206.7234)" class="st15 st16 st17">min.</text>
			</g>
		</g>
		<g id="MTEXT_21_">
			<g>
				<text transform="matrix(1 0 0 1 241.4276 244.614)" class="st15 st16 st17">460</text>
			</g>
		</g>
		<g id="MTEXT_22_">
			<g>
				<text transform="matrix(1 0 0 1 333.6908 244.614)" class="st15 st16 st17">20</text>
			</g>
		</g>
	</g>
	<g id="MTEXT">
		<g>
			<text transform="matrix(1 0 0 1 141.5492 363.6892)" class="st15 st16 st17">A</text>
		</g>
	</g>
	<g id="MTEXT_1_">
		<g>
			<text transform="matrix(1 0 0 1 395.4671 363.6892)" class="st15 st16 st17">A</text>
		</g>
	</g>
	<g>
		<g id="MTEXT_2_">
			<g>
				<text transform="matrix(0 -1 1 0 506.2249 605.1658)" class="st15 st16 st17">200</text>
			</g>
		</g>
		<g id="MTEXT_3_">
			<g>
				<text transform="matrix(1 0 0 1 427.6693 635.2576)" class="st15 st16 st17">230</text>
			</g>
		</g>
		<g id="MTEXT_4_">
			<g>
				<text transform="matrix(1 0 0 1 427.7708 556.9646)" class="st15 st16 st17">410</text>
			</g>
		</g>
		<g id="MTEXT_5_">
			<g>
				<text transform="matrix(1 0 0 1 427.5931 538.4978)" class="st15 st16 st17">510</text>
			</g>
		</g>
	</g>
	<g id="MTEXT_6_">
		<g>
			<text transform="matrix(1 0 0 1 301.0003 685.4167)" class="st15 st18 st17">BASKET DETAILS</text>
		</g>
	</g>
	<g>
		<g id="MTEXT_7_">
			<g>
				<text transform="matrix(1 0 0 1 240.4159 665.1003)" class="st15 st18 st17">Plan</text>
			</g>
		</g>
		<g id="MTEXT_8_">
			<g>
				<text transform="matrix(1 0 0 1 412.266 665.1003)" class="st15 st18 st17">Elevation</text>
			</g>
		</g>
	</g>
	<g id="MTEXT_9_">
		<g>
			<text transform="matrix(0 -1 1 0 329.4251 586.4246)" class="st15 st16 st17">510</text>
		</g>
	</g>
	<g>
		<g id="MTEXT_10_">
			<g>
				<text transform="matrix(1 0 0 1 92.1385 545.281)"><tspan x="0" y="0" class="st15 st16 st17">Woven wire</tspan><tspan x="0" y="14.4" class="st15 st16 st17">mesh basket</tspan></text>
			</g>
		</g>
		<g id="MTEXT_11_">
			<g>
				<text transform="matrix(1 0 0 1 91.9251 582.4255)"><tspan x="0" y="0" class="st15 st16 st17">25 x 10</tspan><tspan x="0" y="14.4" class="st15 st16 st17">Handle</tspan></text>
			</g>
		</g>
		<g id="MTEXT_12_">
			<g>
				<text transform="matrix(1 0 0 1 92.307 624.5339)"><tspan x="0" y="0" class="st15 st16 st17">Angle iron</tspan><tspan x="0" y="14.4" class="st15 st16 st17">frame</tspan></text>
			</g>
		</g>
	</g>
	<g id="MTEXT_13_">
		<g>
			<text transform="matrix(1 0 0 1 225.9833 467.5603)"><tspan x="0" y="0" class="st15 st18 st17">PIT PLAN</tspan><tspan x="-57.35" y="14.4" class="st15 st18 st17">(Basket and grating removed)</tspan></text>
		</g>
	</g>
	<g id="LINE_114_">
		<g>
			<g>
				<line class="st19" x1="205.78" y1="343.84" x2="296.73" y2="343.84"/>
				<g>
					<polygon class="st15" points="207.27,346.02 199.14,343.84 207.27,341.66 					"/>
				</g>
				<g>
					<polygon class="st15" points="295.25,346.02 303.38,343.84 295.25,341.66 					"/>
				</g>
			</g>
		</g>
	</g>
	<g id="MTEXT_14_">
		<g>
			<text transform="matrix(1 0 0 1 241.4276 340.1311)" class="st15 st16 st17">460</text>
		</g>
	</g>
	<g>
		<g id="LINE_117_">
			<g>
				<g>
					<line class="st19" x1="222.93" y1="327.46" x2="222.93" y2="340.17"/>
					<g>
						<polygon class="st15" points="220.75,328.94 222.93,320.81 225.11,328.94 						"/>
					</g>
				</g>
			</g>
		</g>
		<g id="LINE_118_">
			<g>
				<g>
					<line class="st19" x1="222.93" y1="347.51" x2="222.93" y2="417.17"/>
					<g>
						<polygon class="st15" points="220.75,415.68 222.93,423.81 225.11,415.68 						"/>
					</g>
				</g>
			</g>
		</g>
	</g>
	<g id="MTEXT_15_">
		<g>
			<text transform="matrix(0 -1 1 0 219.2162 397.2321)" class="st15 st16 st17">460</text>
		</g>
	</g>
	<g id="MTEXT_16_">
		<g>
			<text transform="matrix(1 0 0 1 28.3465 72.5002)" class="st15 st16 st17">Paving slab</text>
		</g>
	</g>
	<g id="MTEXT_17_">
		<g>
			<text transform="matrix(1 0 0 1 28.3465 119.4553)" class="st15 st16 st17">Outlet level</text>
		</g>
	</g>
	<g id="MTEXT_18_">
		<g>
			<text transform="matrix(1 0 0 1 28.3465 161.9035)" class="st15 st16 st17">Straining basket</text>
		</g>
	</g>
	<g id="MTEXT_19_">
		<g>
			<text transform="matrix(1 0 0 1 28.3465 195.1633)"><tspan x="0" y="0" class="st15 st16 st17">100 mm concrete</tspan><tspan x="0" y="14.4" class="st15 st16 st17">walls and base with</tspan><tspan x="0" y="28.8" class="st15 st16 st17">smooth internal finish</tspan></text>
		</g>
	</g>
	<g id="LINE_122_">
		<line class="st19" x1="278.85" y1="184.23" x2="261.88" y2="184.23"/>
	</g>
	<g>
		<g id="LINE_121_">
			<g>
				<g>
					<line class="st19" x1="230.21" y1="200.08" x2="230.21" y2="122.28"/>
					<g>
						<polygon class="st15" points="232.38,198.59 230.21,206.72 228.03,198.59 						"/>
					</g>
					<g>
						<polygon class="st15" points="232.38,123.77 230.21,115.64 228.03,123.77 						"/>
					</g>
				</g>
			</g>
		</g>
		<g id="LINE_123_">
			<g>
				<g>
					<line class="st19" x1="266.44" y1="200.16" x2="266.44" y2="190.88"/>
					<g>
						<polygon class="st15" points="268.62,198.68 266.44,206.81 264.26,198.68 						"/>
					</g>
					<g>
						<polygon class="st15" points="268.62,192.37 266.44,184.23 264.26,192.37 						"/>
					</g>
				</g>
			</g>
		</g>
		<g id="LINE_128_">
			<g>
				<g>
					<line class="st19" x1="205.25" y1="248.32" x2="297.88" y2="248.32"/>
					<g>
						<polygon class="st15" points="206.73,250.5 198.6,248.32 206.73,246.15 						"/>
					</g>
					<g>
						<polygon class="st15" points="296.4,250.5 304.53,248.32 296.4,246.15 						"/>
					</g>
				</g>
			</g>
		</g>
	</g>
	<g id="LINE_132_">
		<g>
			<g>
				<line class="st19" x1="315.78" y1="248.32" x2="350.47" y2="248.32"/>
				<g>
					<polygon class="st15" points="317.27,250.5 309.13,248.32 317.27,246.15 					"/>
				</g>
			</g>
		</g>
	</g>
	<g>
		<g id="LINE_97_">
			<g>
				<line class="st19" x1="500.19" y1="571.9" x2="513.49" y2="571.9"/>
			</g>
		</g>
		<g id="LINE_98_">
			<g>
				<line class="st19" x1="467.95" y1="617.95" x2="513.49" y2="617.95"/>
			</g>
		</g>
		<g id="LINE_100_">
			<g>
				<line class="st19" x1="411.43" y1="621.51" x2="411.43" y2="642.53"/>
			</g>
		</g>
		<g id="LINE_101_">
			<g>
				<line class="st19" x1="464.39" y1="621.51" x2="464.39" y2="642.53"/>
			</g>
		</g>
		<g id="LINE_103_">
			<g>
				<line class="st19" x1="390.26" y1="569.03" x2="390.26" y2="557.12"/>
			</g>
		</g>
		<g id="LINE_104_">
			<g>
				<line class="st19" x1="485.56" y1="569.03" x2="485.56" y2="557.12"/>
			</g>
		</g>
		<g id="LINE_106_">
			<g>
				<line class="st19" x1="379.19" y1="568.34" x2="379.19" y2="538.65"/>
			</g>
		</g>
		<g id="LINE_107_">
			<g>
				<line class="st19" x1="496.63" y1="568.34" x2="496.63" y2="538.65"/>
			</g>
		</g>
		<g id="LINE_109_">
			<g>
				<line class="st19" x1="313.84" y1="517.39" x2="336.69" y2="517.39"/>
			</g>
		</g>
		<g id="LINE_110_">
			<g>
				<line class="st19" x1="313.84" y1="634.83" x2="336.69" y2="634.83"/>
			</g>
		</g>
		<g id="LINE_126_">
			<g>
				<line class="st19" x1="198.6" y1="211.37" x2="198.6" y2="251.88"/>
			</g>
		</g>
		<g id="LINE_129_">
			<g>
				<line class="st19" x1="304.53" y1="188.93" x2="304.53" y2="251.88"/>
			</g>
		</g>
		<g id="LINE_130_">
			<g>
				<line class="st19" x1="309.13" y1="211.37" x2="309.13" y2="251.88"/>
			</g>
		</g>
		<g id="LINE_133_">
			<g>
				<line class="st19" x1="304.53" y1="248.32" x2="309.13" y2="248.32"/>
			</g>
		</g>
	</g>
	<g id="MTEXT_23_">
		<g>
			<text transform="matrix(1 0 0 1 404.391 108.0344)" class="st15 st16 st17">Outlet</text>
		</g>
	</g>
	<g id="MTEXT_24_">
		<g>
			<text transform="matrix(1 0 0 1 380.1751 143.5344)"><tspan x="0" y="0" class="st15 st16 st17">Outlet to: </tspan><tspan x="0" y="14.4" class="st15 st16 st17">• trade waste appliance </tspan><tspan x="0" y="28.8" class="st15 st16 st17">• disconnector gully</tspan></text>
		</g>
	</g>
	<g id="MTEXT_25_">
		<g>
			<text transform="matrix(1 0 0 1 380.4183 202.2458)"><tspan x="0" y="0" class="st15 st16 st17">100 x 88.5° cast iron</tspan><tspan x="0" y="14.4" class="st15 st16 st17">bend with large</tspan><tspan x="0" y="28.8" class="st15 st16 st17">inspection opening</tspan></text>
		</g>
	</g>
	<g id="MTEXT_26_">
		<g>
			<text transform="matrix(1 0 0 1 381.2552 38.2502)"><tspan x="0" y="0" class="st15 st16 st17">510 x 510 mild steel bar</tspan><tspan x="0" y="14.4" class="st15 st16 st17">grating 20 mm min bars</tspan><tspan x="0" y="28.8" class="st15 st16 st17">with 12 mm max spaces </tspan></text>
		</g>
	</g>
	<g id="MTEXT_27_">
		<g>
			<text transform="matrix(1 0 0 1 211.0033 268.0422)" class="st15 st18 st17">SECTION A-A</text>
		</g>
	</g>
	<polyline class="st20" points="367.28,61.15 367.28,69.29 371.64,72.5 362.91,72.5 367.28,75.71 367.28,83.92 	"/>
	<g>
		<g id="LINE_102_">
			<g>
				<g>
					<line class="st19" x1="418.07" y1="638.97" x2="457.31" y2="638.97"/>
					<g>
						<polygon class="st15" points="419.56,641.15 411.43,638.97 419.56,636.79 						"/>
					</g>
					<g>
						<polygon class="st15" points="455.82,641.15 463.95,638.97 455.82,636.79 						"/>
					</g>
				</g>
			</g>
		</g>
		<g id="LINE_105_">
			<g>
				<g>
					<line class="st19" x1="396.9" y1="560.67" x2="478.92" y2="560.67"/>
					<g>
						<polygon class="st15" points="398.39,562.85 390.26,560.67 398.39,558.5 						"/>
					</g>
					<g>
						<polygon class="st15" points="477.43,562.85 485.56,560.67 477.43,558.5 						"/>
					</g>
				</g>
			</g>
		</g>
		<g id="LINE_108_">
			<g>
				<g>
					<line class="st19" x1="385.68" y1="542.21" x2="490.14" y2="542.21"/>
					<g>
						<polygon class="st15" points="387.16,544.39 379.03,542.21 387.16,540.03 						"/>
					</g>
					<g>
						<polygon class="st15" points="488.66,544.39 496.79,542.21 488.66,540.03 						"/>
					</g>
				</g>
			</g>
		</g>
		<g id="LINE_111_">
			<g>
				<g>
					<line class="st19" x1="333.14" y1="524.03" x2="333.14" y2="628.18"/>
					<g>
						<polygon class="st15" points="330.96,525.52 333.14,517.39 335.31,525.52 						"/>
					</g>
					<g>
						<polygon class="st15" points="330.96,626.7 333.14,634.83 335.31,626.7 						"/>
					</g>
				</g>
			</g>
		</g>
		<g>
			<g>
				<line class="st19" x1="509.47" y1="578.54" x2="509.47" y2="610.54"/>
				<g>
					<polygon class="st15" points="507.29,580.03 509.47,571.9 511.65,580.03 					"/>
				</g>
				<g>
					<polygon class="st15" points="507.29,609.05 509.47,617.18 511.65,609.05 					"/>
				</g>
			</g>
		</g>
	</g>
	<g>
		<g id="CIRCLE">
			<path class="st21" d="M284.49,372.48c0-7.12,5.77-12.9,12.9-12.9c7.12,0,12.9,5.77,12.9,12.9s-5.77,12.9-12.9,12.9
				C290.27,385.37,284.49,379.6,284.49,372.48L284.49,372.48z"/>
		</g>
		<g id="LINE_59_">
			<line class="st21" x1="332.16" y1="359.58" x2="304.53" y2="359.58"/>
		</g>
		<g id="LINE_60_">
			<line class="st21" x1="332.16" y1="385.37" x2="304.53" y2="385.37"/>
		</g>
	</g>
	<g id="LINE_124_">
		<g>
			<g>
				<line class="st22" x1="332.16" y1="117.33" x2="332.16" y2="114.33"/>
				<line class="st23" x1="332.16" y1="107.73" x2="332.16" y2="97.84"/>
				<line class="st22" x1="332.16" y1="94.54" x2="332.16" y2="91.54"/>
			</g>
		</g>
	</g>
	<g id="ELLIPSE">
		<path class="st24" d="M361.15,104.44c-1.53,0-2.76,2.89-2.76,6.45c0,3.56,1.24,6.45,2.76,6.45c1.53,0,2.76-2.89,2.76-6.45
			C363.91,107.32,362.68,104.44,361.15,104.44L361.15,104.44z"/>
	</g>
	<g id="ELLIPSE_1_">
		<path class="st24" d="M361.15,104.44c1.53,0,2.76-2.89,2.76-6.45c0-3.56-1.24-6.45-2.76-6.45"/>
	</g>
	<path class="st25" d="M369.75,372.48c-1.53,0-2.76,2.89-2.76,6.45c0,3.56,1.24,6.45,2.76,6.45c1.53,0,2.76-2.89,2.76-6.45
		C372.52,375.37,371.28,372.48,369.75,372.48L369.75,372.48z"/>
	<line class="st25" x1="370.36" y1="385.37" x2="332.16" y2="385.37"/>
	<path class="st25" d="M332.16,359.58h38.2h-0.61c1.53,0,2.76,2.89,2.76,6.45s-1.24,6.45-2.76,6.45"/>
	<g>
		<g>
			<g>
				<polyline class="st19" points="166.97,372.48 156.09,372.48 156.09,359.03 				"/>
				<g>
					<polygon class="st15" points="158.27,360.51 156.09,352.38 153.91,360.51 					"/>
				</g>
			</g>
		</g>
		<g>
			<g>
				<polyline class="st19" points="379.03,372.48 389.91,372.48 389.91,360.03 				"/>
				<g>
					<polygon class="st15" points="392.09,361.51 389.91,353.38 387.73,361.51 					"/>
				</g>
			</g>
		</g>
	</g>
	<g>
		<g>
			<g>
				<polyline class="st19" points="165.91,556.62 175.74,556.62 199.09,568.82 				"/>
				<g>
					<polygon class="st15" points="196.77,570.06 204.98,571.9 198.79,566.2 					"/>
				</g>
			</g>
		</g>
		<g>
			<g>
				<line class="st19" x1="243.77" y1="593.73" x2="134.47" y2="593.73"/>
				<g>
					<polygon class="st15" points="242.28,591.55 250.41,593.73 242.28,595.91 					"/>
				</g>
			</g>
		</g>
		<g>
			<g>
				<polyline class="st19" points="126.75,635.88 168.37,635.88 186.56,621.99 				"/>
				<g>
					<polygon class="st15" points="186.7,624.62 191.84,617.95 184.06,621.16 					"/>
				</g>
			</g>
		</g>
	</g>
	<g>
		<g>
			<g>
				<line class="st19" x1="161" y1="69.36" x2="96.41" y2="69.36"/>
				<g>
					<polygon class="st15" points="159.51,67.18 167.64,69.36 159.51,71.54 					"/>
				</g>
			</g>
		</g>
		<g>
			<g>
				<polyline class="st19" points="120.45,160.02 143.89,160.02 209.24,98.18 				"/>
				<g>
					<polygon class="st15" points="209.65,100.79 214.06,93.62 206.66,97.62 					"/>
				</g>
			</g>
		</g>
		<g>
			<g>
				<polyline class="st19" points="147.5,221.87 160.18,221.87 186.62,202.84 				"/>
				<g>
					<polygon class="st15" points="186.68,205.47 192.01,198.95 184.14,201.94 					"/>
				</g>
			</g>
		</g>
		<g>
			<g>
				<polyline class="st19" points="376.21,198.95 365.54,198.95 315.97,163.86 				"/>
				<g>
					<polygon class="st15" points="318.44,162.94 310.54,160.02 315.92,166.5 					"/>
				</g>
			</g>
		</g>
		<g>
			<g>
				<polyline class="st19" points="376.21,34.99 292.58,34.99 292.67,57.7 				"/>
				<g>
					<polygon class="st15" points="290.49,56.22 292.7,64.35 294.85,56.21 					"/>
				</g>
			</g>
		</g>
		<g>
			<g>
				<line class="st19" x1="391.66" y1="104.44" x2="368.73" y2="104.44"/>
				<g>
					<polygon class="st15" points="390.18,102.26 398.31,104.44 390.18,106.62 					"/>
				</g>
			</g>
		</g>
	</g>
	<g id="ARC_2_">
		<g>
			<path class="st26" d="M319.32,104.44c-12.47,0-22.68,9.93-23.02,22.4v62.1"/>
		</g>
	</g>
	<g id="LINE_54_">
		<g id="LINE_3_">
			<g>
				<g>
					<g>
						<line class="st7" x1="166.97" y1="372.48" x2="167.47" y2="372.48"/>
						<line class="st27" x1="169.46" y1="372.48" x2="180.41" y2="372.48"/>
						<line class="st28" x1="181.41" y1="372.48" x2="374.64" y2="372.48"/>
						<line class="st7" x1="375.64" y1="372.48" x2="376.14" y2="372.48"/>
					</g>
				</g>
			</g>
		</g>
	</g>
	<g>
		<g id="LINE_134_">
			<line class="st20" x1="193.97" y1="64.35" x2="309.16" y2="64.35"/>
		</g>
		<g id="LINE_135_">
			<line class="st20" x1="249.92" y1="64.35" x2="249.92" y2="68.95"/>
		</g>
		<g id="LINE_136_">
			<line class="st20" x1="253.21" y1="64.35" x2="253.21" y2="68.95"/>
		</g>
		<g id="LINE_137_">
			<line class="st20" x1="243.34" y1="64.35" x2="243.34" y2="68.95"/>
		</g>
		<g id="LINE_138_">
			<line class="st20" x1="246.63" y1="64.35" x2="246.63" y2="68.95"/>
		</g>
		<g id="LINE_139_">
			<line class="st20" x1="236.76" y1="64.35" x2="236.76" y2="68.95"/>
		</g>
		<g id="LINE_140_">
			<line class="st20" x1="240.05" y1="64.35" x2="240.05" y2="68.95"/>
		</g>
		<g id="LINE_141_">
			<line class="st20" x1="233.46" y1="64.35" x2="233.46" y2="68.95"/>
		</g>
		<g id="LINE_142_">
			<line class="st20" x1="259.79" y1="64.35" x2="259.79" y2="68.95"/>
		</g>
		<g id="LINE_143_">
			<line class="st20" x1="256.5" y1="64.35" x2="256.5" y2="68.95"/>
		</g>
		<g id="LINE_144_">
			<line class="st20" x1="266.37" y1="64.35" x2="266.37" y2="68.95"/>
		</g>
		<g id="LINE_145_">
			<line class="st20" x1="263.08" y1="64.35" x2="263.08" y2="68.95"/>
		</g>
		<g id="LINE_146_">
			<line class="st20" x1="269.67" y1="64.35" x2="269.67" y2="68.95"/>
		</g>
		<g id="LINE_147_">
			<line class="st20" x1="230.17" y1="64.35" x2="230.17" y2="68.95"/>
		</g>
		<g id="LINE_148_">
			<line class="st20" x1="223.59" y1="64.35" x2="223.59" y2="68.95"/>
		</g>
		<g id="LINE_149_">
			<line class="st20" x1="226.88" y1="64.35" x2="226.88" y2="68.95"/>
		</g>
		<g id="LINE_150_">
			<line class="st20" x1="220.3" y1="64.35" x2="220.3" y2="68.95"/>
		</g>
		<g id="LINE_151_">
			<line class="st20" x1="217.01" y1="64.35" x2="217.01" y2="68.95"/>
		</g>
		<g id="LINE_152_">
			<line class="st20" x1="210.43" y1="64.35" x2="210.43" y2="68.95"/>
		</g>
		<g id="LINE_153_">
			<line class="st20" x1="213.72" y1="64.35" x2="213.72" y2="68.95"/>
		</g>
		<g id="LINE_154_">
			<line class="st20" x1="207.14" y1="64.35" x2="207.14" y2="68.95"/>
		</g>
		<g id="LINE_155_">
			<line class="st20" x1="203.85" y1="64.35" x2="203.85" y2="68.95"/>
		</g>
		<g id="LINE_156_">
			<line class="st20" x1="197.26" y1="64.35" x2="197.26" y2="68.95"/>
		</g>
		<g id="LINE_157_">
			<line class="st20" x1="200.55" y1="64.35" x2="200.55" y2="68.95"/>
		</g>
		<g id="LINE_158_">
			<line class="st20" x1="193.97" y1="64.35" x2="193.97" y2="68.95"/>
		</g>
		<g id="LINE_159_">
			<line class="st20" x1="272.96" y1="64.35" x2="272.96" y2="68.95"/>
		</g>
		<g id="LINE_160_">
			<line class="st20" x1="279.54" y1="64.35" x2="279.54" y2="68.95"/>
		</g>
		<g id="LINE_161_">
			<line class="st20" x1="276.25" y1="64.35" x2="276.25" y2="68.95"/>
		</g>
		<g id="LINE_162_">
			<line class="st20" x1="282.83" y1="64.35" x2="282.83" y2="68.95"/>
		</g>
		<g id="LINE_163_">
			<line class="st20" x1="286.12" y1="64.35" x2="286.12" y2="68.95"/>
		</g>
		<g id="LINE_164_">
			<line class="st20" x1="292.7" y1="64.35" x2="292.7" y2="68.95"/>
		</g>
		<g id="LINE_165_">
			<line class="st20" x1="289.41" y1="64.35" x2="289.41" y2="68.95"/>
		</g>
		<g id="LINE_166_">
			<line class="st20" x1="295.99" y1="64.35" x2="295.99" y2="68.95"/>
		</g>
		<g id="LINE_167_">
			<line class="st20" x1="299.29" y1="64.35" x2="299.29" y2="68.95"/>
		</g>
		<g id="LINE_168_">
			<line class="st20" x1="305.87" y1="64.35" x2="305.87" y2="68.95"/>
		</g>
		<g id="LINE_169_">
			<line class="st20" x1="302.58" y1="64.35" x2="302.58" y2="68.95"/>
		</g>
		<g id="LINE_170_">
			<line class="st20" x1="309.16" y1="64.35" x2="309.16" y2="68.95"/>
		</g>
		<g id="LINE_35_">
			<line class="st20" x1="194" y1="68.95" x2="309.13" y2="68.95"/>
		</g>
	</g>
	<g>
		<g id="LINE_69_">
			<line class="st25" x1="252.72" y1="528.9" x2="252.72" y2="623.55"/>
		</g>
		<g id="LINE_70_">
			<line class="st25" x1="250.41" y1="528.9" x2="250.41" y2="623.55"/>
		</g>
	</g>
	<g>
		<g id="LINE_90_">
			<line class="st7" x1="394.14" y1="579.27" x2="481.68" y2="579.27"/>
		</g>
		<g id="LINE_91_">
			<line class="st7" x1="496.79" y1="572.59" x2="379.03" y2="572.59"/>
		</g>
		<polyline class="st7" points="485.56,572.59 464.39,616.95 463.95,617.26 411.87,617.26 391.02,572.59 		"/>
	</g>
	<g id="LINE_5_">
		<g>
			<g>
				<line class="st7" x1="304.53" y1="185.37" x2="304.53" y2="179.37"/>
				<line class="st29" x1="304.53" y1="168.13" x2="304.53" y2="106.31"/>
				<line class="st7" x1="304.53" y1="100.69" x2="304.53" y2="94.69"/>
			</g>
		</g>
	</g>
	<g>
		<g>
			<polyline class="st7" points="175.57,302.49 175.57,296.49 181.57,296.49 			"/>
			<line class="st30" x1="192.7" y1="296.49" x2="320.6" y2="296.49"/>
			<polyline class="st7" points="326.16,296.49 332.16,296.49 332.16,302.49 			"/>
			<line class="st31" x1="332.16" y1="315.21" x2="332.16" y2="436.11"/>
			<polyline class="st7" points="332.16,442.47 332.16,448.47 326.16,448.47 			"/>
			<line class="st30" x1="315.04" y1="448.47" x2="187.13" y2="448.47"/>
			<polyline class="st7" points="181.57,448.47 175.57,448.47 175.57,442.47 			"/>
			<line class="st31" x1="175.57" y1="429.74" x2="175.57" y2="308.85"/>
		</g>
	</g>
	<g>
		<g id="LINE_19_">
			<line class="st32" x1="302.25" y1="94.6" x2="283.45" y2="112.92"/>
		</g>
		<g id="LINE_20_">
			<line class="st32" x1="299.84" y1="92.12" x2="281.04" y2="110.44"/>
		</g>
		<g id="LINE_21_">
			<line class="st32" x1="283.45" y1="112.92" x2="281.04" y2="110.44"/>
		</g>
		<g id="LINE_22_">
			<line class="st32" x1="302.25" y1="94.6" x2="299.84" y2="92.12"/>
		</g>
	</g>
	<g id="ARC_4_">
		<path class="st7" d="M301.03,95.79c0.48,0.18,1,0.14,1.45-0.09"/>
	</g>
	<g>
		<g id="LINE_57_">
			<line class="st7" x1="303.38" y1="359.58" x2="291.18" y2="359.58"/>
		</g>
		<g id="ELLIPSE_4_">
			<path class="st7" d="M291.18,385.37c5.19,0,9.4-5.77,9.4-12.9s-4.21-12.9-9.4-12.9s-9.4,5.77-9.4,12.9
				S285.98,385.37,291.18,385.37L291.18,385.37z"/>
		</g>
		<g id="ELLIPSE_5_">
			<path class="st7" d="M293.59,385.37c5.19,0,9.4-5.77,9.4-12.9s-4.21-12.9-9.4-12.9"/>
		</g>
		<g id="LINE_58_">
			<line class="st7" x1="303.38" y1="385.37" x2="291.18" y2="385.37"/>
		</g>
	</g>
	<g id="LWPOLYLINE_10_">
		<g>
			<rect x="375.58" y="128.73" class="st7" width="147.75" height="51.75"/>
		</g>
	</g>
	<g>
		<rect x="192.84" y="313.76" class="st7" width="117.44" height="117.44"/>
		<rect x="198.6" y="319.52" class="st7" width="105.93" height="105.93"/>
	</g>
	<g>
		<g id="LINE_71_">
			<line class="st7" x1="225.08" y1="549.63" x2="225.08" y2="602.59"/>
		</g>
		<g id="LINE_72_">
			<line class="st7" x1="278.05" y1="549.63" x2="278.05" y2="602.59"/>
		</g>
		<g id="LINE_73_">
			<line class="st7" x1="225.08" y1="602.59" x2="250.41" y2="602.59"/>
		</g>
		<g id="LINE_74_">
			<line class="st7" x1="252.72" y1="602.59" x2="278.05" y2="602.59"/>
		</g>
		<g id="LINE_75_">
			<line class="st7" x1="225.08" y1="549.63" x2="250.41" y2="549.63"/>
		</g>
		<g id="LINE_76_">
			<line class="st7" x1="252.72" y1="549.63" x2="278.05" y2="549.63"/>
		</g>
		<g id="LWPOLYLINE_3_">
			<rect x="204.36" y="528.9" class="st7" width="94.41" height="94.41"/>
		</g>
		<g id="LWPOLYLINE_4_">
			<polyline class="st7" points="252.72,532.27 295.41,532.27 295.41,619.95 252.72,619.95 			"/>
		</g>
		<g id="LWPOLYLINE_5_">
			<polyline class="st7" points="250.41,619.95 207.72,619.95 207.72,532.27 250.41,532.27 			"/>
		</g>
		<g id="LINE_77_">
			<line class="st7" x1="225.08" y1="602.59" x2="204.36" y2="623.31"/>
		</g>
		<g id="LINE_78_">
			<line class="st7" x1="225.08" y1="549.63" x2="204.36" y2="528.9"/>
		</g>
		<g id="LINE_79_">
			<line class="st7" x1="278.05" y1="549.63" x2="298.77" y2="528.9"/>
		</g>
		<g id="LINE_80_">
			<line class="st7" x1="278.05" y1="602.59" x2="298.77" y2="623.31"/>
		</g>
		<g id="LWPOLYLINE_6_">
			<rect x="192.84" y="517.39" class="st7" width="117.44" height="117.44"/>
		</g>
	</g>
	<g>
		<g id="LINE_30_">
			<line class="st32" x1="203.91" y1="69.64" x2="225.08" y2="115.01"/>
		</g>
		<g id="LINE_36_">
			<line class="st32" x1="207.79" y1="76.32" x2="295.34" y2="76.32"/>
		</g>
		<g id="LINE_38_">
			<line class="st32" x1="299.22" y1="69.64" x2="278.05" y2="115.01"/>
		</g>
		<g id="LINE_29_">
			<line class="st32" x1="278.05" y1="115.01" x2="225.08" y2="115.01"/>
		</g>
	</g>
	<g>
		<polyline class="st7" points="175.57,60.89 175.57,230.84 332.16,230.84 332.16,117.33 		"/>
		<g id="LINE_11_">
			<line class="st7" x1="175.57" y1="83.92" x2="136.94" y2="83.92"/>
		</g>
		<path class="st7" d="M302.48,95.69c5.17-2.73,10.92-4.15,16.77-4.15h41.9"/>
		<path class="st7" d="M284.67,111.73c0.84,0.45,1.33,1.36,1.26,2.31c-1.6,3.97-2.48,8.2-2.59,12.49v0.15l-1.52,58.11l25.78,0.68
			l1.54-58.68l-0.01,0.42c0.14-5.49,4.64-9.87,10.13-9.87h41.9"/>
		<g id="LINE_27_">
			<line class="st7" x1="304.53" y1="69.64" x2="304.53" y2="94.69"/>
		</g>
		<g id="LINE_43_">
			<line class="st7" x1="332.16" y1="83.92" x2="367.19" y2="83.92"/>
		</g>
		<path class="st7" d="M136.94,60.89h50.15c3.18,0,5.76,1.58,5.76,4.76l-0.06,3.99h116.17h1.33l0,0v-2.99
			c0-3.18,2.58-5.76,5.76-5.76h51.15"/>
		<g id="LINE_125_">
			<line class="st7" x1="332.16" y1="91.54" x2="332.16" y2="60.89"/>
		</g>
		<polyline class="st7" points="198.6,69.64 198.6,207.81 309.13,207.81 309.13,126.85 		"/>
	</g>
	<polyline class="st20" points="137.19,61.11 137.19,69.26 141.55,72.47 132.82,72.47 137.19,75.68 137.19,83.89 	"/>
</g>
<g id="Hatch">
</g>
</svg>
